<?xml version="1.0" encoding="utf-8"?>
<!-- Generator: Adobe Illustrator 23.0.6, SVG Export Plug-In . SVG Version: 6.00 Build 0)  -->
<svg version="1.1" id="Objects" xmlns="http://www.w3.org/2000/svg" xmlns:xlink="http://www.w3.org/1999/xlink" x="0px" y="0px"
	 viewBox="0 0 319 273.9" style="enable-background:new 0 0 319 273.9;" xml:space="preserve">
<style type="text/css">
	.st0{opacity:0.1;fill:#35484E;}
	.st1{fill:#FFFFFF;}
	.st2{fill:#7AE2E2;}
	.st3{fill:#829EE8;}
	.st4{opacity:0.2;fill:#35484E;}
	.st5{opacity:0.2;}
	.st6{fill:#35484E;}
	.st7{fill:#EFEEED;}
	.st8{fill:#E8E7E6;}
	.st9{enable-background:new    ;}
	.st10{fill:#DDDDDD;}
	.st11{fill:#EFEEEC;}
	.st12{fill:#F2F4F4;}
	.st13{fill:#EAA906;}
	.st14{fill:#D8B45D;}
	.st15{fill:#F4D271;}
	.st16{fill:#FCE186;}
	.st17{fill:#D1E9F5;}
	.st18{fill:#E8F5FD;}
	.st19{fill:#FE7342;}
	.st20{fill:#73A9B1;}
	.st21{fill:#80BDC5;}
	.st22{fill:#95DBE5;}
	.st23{fill:#444444;}
	.st24{fill:none;stroke:#FFFFFF;stroke-width:2.1468;stroke-miterlimit:10;stroke-dasharray:6.3302,6.3302;}
	.st25{fill:#B77275;}
	.st26{fill:#C0C4C7;}
	.st27{fill:#F4F1E4;}
	.st28{fill:#14A4AF;}
	.st29{fill:none;}
	.st30{fill:none;stroke:#13989B;stroke-linecap:round;stroke-linejoin:round;stroke-miterlimit:10;}
	.st31{fill:#F3F2EC;}
	.st32{fill:#F0EEE8;}
	.st33{fill:#FD8257;}
	.st34{fill:#D36C5E;}
	.st35{fill:#119699;}
	.st36{fill:#DBA76E;}
	.st37{fill:#CA614E;}
	.st38{fill:#1AB3BA;}
	.st39{fill:#21C2D4;}
	.st40{fill:#18AAAA;}
	.st41{fill:#9EA4A7;}
	.st42{fill:#D1552F;}
	.st43{fill:#E5E8E8;}
	.st44{fill:#F1EFE9;}
	.st45{fill:#E0C16C;}
	.st46{fill:#C2CACC;}
	.st47{fill:#FDD837;}
	.st48{fill:#959FA0;}
	.st49{fill:#141413;}
	.st50{fill:#2B2A28;}
</style>
<g>
	<path class="st0" d="M316.4,150c3.5,2,3.5,5.2,0.1,7.2L118.3,272.4c-3.5,2-9,2-12.5,0L2.6,212.8c-3.5-2-3.5-5.2-0.1-7.2L200.8,90.4
		c3.5-2,9-2,12.5,0L316.4,150z"/>
	<g>
		<path class="st1" d="M316.4,123.4c3.5,2,3.5,5.2,0.1,7.2L118.3,245.9c-3.5,2-9,2-12.5,0L2.6,186.3c-3.5-2-3.5-5.2-0.1-7.2
			L200.8,63.9c3.5-2,9-2,12.5,0L316.4,123.4z"/>
		<g>
			<polygon class="st2" points="294.5,137.7 133.5,231.2 26.3,169.3 187.2,75.7 			"/>
		</g>
		<path class="st3" d="M262,106.4c-1,0.5-2.4,0.5-3.3,0c-0.9-0.5-0.9-1.4,0-1.9c1-0.5,2.4-0.5,3.3,0C263,105,263,105.8,262,106.4z"
			/>
		<path class="st4" d="M254.7,100.6c0.7,0.4,0.7,1,0,1.4c-0.7,0.4-1.7,0.4-2.3,0l-14.1-8.2c-0.7-0.4-0.7-1,0-1.3
			c0.7-0.4,1.7-0.4,2.3,0L254.7,100.6z"/>
		<g class="st5">
			<path class="st6" d="M60.2,212.1c4.2,2.4,11,2.4,15.1,0c4.2-2.4,4.1-6.3-0.1-8.8c-4.2-2.4-11-2.4-15.1,0
				C56,205.8,56,209.7,60.2,212.1z"/>
		</g>
		<g>
			<path class="st7" d="M61.4,212.4c3.5,2,9.2,2,12.6,0c3.5-2,3.5-5.3-0.1-7.3c-3.5-2-9.2-2-12.6,0
				C57.9,207.2,57.9,210.4,61.4,212.4z"/>
		</g>
		<path class="st8" d="M106.2,255.7L2.6,195.8l0,0c0,0,0,0,0,0v0c-1.1-0.6-1.8-1.4-2.2-2.2c0-0.1-0.1-0.2-0.1-0.2
			c0-0.1-0.1-0.2-0.1-0.3c0-0.1,0-0.2-0.1-0.2c0-0.2-0.1-0.4-0.1-0.6l0,0v-9.5l0,0c0,0,0,0,0,0c0,0.2,0,0.4,0.1,0.6
			c0,0.1,0,0.2,0.1,0.2c0,0.1,0.1,0.2,0.1,0.3c0,0.1,0.1,0.2,0.1,0.2c0.2,0.4,0.5,0.8,0.8,1.1c0.2,0.3,0.9,0.7,1.5,1.1v0l103.1,59.6
			c0.1,0.1,0.3,0.1,0.4,0.2v0c3.5,1.7,8.7,1.7,12-0.2l0,0l198.2-115.2c1.7-1,2.6-2.3,2.6-3.6v9.5c0,0.2,0,0.3,0,0.5c0,0,0,0,0,0
			c-0.1,0.5-0.3,1-0.6,1.4c0,0,0,0,0,0c-0.1,0.1-0.2,0.3-0.3,0.4c0,0-0.1,0.1-0.1,0.1c-0.1,0.1-0.2,0.2-0.3,0.3
			c-0.1,0.1-0.1,0.1-0.2,0.2c-0.1,0.1-0.2,0.2-0.3,0.2c-0.1,0.1-0.1,0.1-0.2,0.2c0,0-0.1,0.1-0.1,0.1
			c-0.1,0.1-186.7,108.5-186.7,108.5c-12.4,7.3-13.1,7.6-13.8,7.8C116.2,256.3,112.2,258.3,106.2,255.7z"/>
	</g>
	<g>
		<g class="st9">
			<g>
				<path class="st10" d="M247.1,56.1l5.3-3.1c0.8-0.4,1.8-0.4,3,0.3c0.4,0.2,0.7,0.5,1,0.7l-5.3,3.1c-0.3-0.3-0.7-0.5-1-0.7
					C248.9,55.7,247.8,55.6,247.1,56.1z"/>
			</g>
			<g>
				<path class="st10" d="M256.1,64.8l5.3-3.1c-0.2,0.2,0,0.8,0.3,1l-5.3,3.1C256.1,65.6,255.9,65,256.1,64.8z"/>
			</g>
			<g>
				<polygon class="st11" points="257.1,66.2 262.4,63.1 262.3,66.9 257.1,70 				"/>
			</g>
			<g>
				<polygon class="st10" points="256.4,65.8 261.7,62.7 262.4,63.1 257.1,66.2 				"/>
			</g>
			<g>
				<polygon class="st10" points="262.5,69.3 267.7,66.2 268.4,66.6 263.1,69.6 				"/>
			</g>
			<g>
				<path class="st10" d="M268.7,66.6l-5.3,3.1c-0.1,0-0.2,0-0.3,0l5.3-3.1C268.5,66.7,268.6,66.7,268.7,66.6z"/>
			</g>
			<g>
				<polygon class="st10" points="259.5,62.3 264.7,59.2 261.4,61.7 256.1,64.8 				"/>
			</g>
			<g>
				<path class="st1" d="M259.5,62.3l5.3-3.1c0,0,0,0,0,0L259.5,62.3C259.5,62.3,259.5,62.3,259.5,62.3z"/>
			</g>
			<path class="st8" d="M264.2,49c-2.2-1.3-4.2-1.4-5.6-0.5l-5.3,3.1c1.4-0.8,3.4-0.7,5.6,0.5c3.6,2.1,6.7,6.7,7.6,11.1l5.3-3.1
				C270.9,55.8,267.8,51.1,264.2,49z"/>
			<g>
				<path class="st11" d="M266.5,63.2l5.3-3.1c0.4,0.1,0.8,0.3,1.3,0.6c2.7,1.5,4.9,5,5.3,8.2l-5.3,3.1c-0.4-3.2-2.6-6.6-5.3-8.2
					C267.4,63.5,266.9,63.3,266.5,63.2z"/>
			</g>
			<g>
				<path class="st12" d="M281.2,76.7l-5.3,3.1c0.6-0.3,0.9-1,0.9-2.1c0-2-1.4-4.5-3.2-5.5c-0.2-0.1-0.4-0.2-0.6-0.3l5.3-3.1
					c0.2,0.1,0.4,0.2,0.6,0.3c1.8,1,3.2,3.5,3.2,5.5C282.2,75.7,281.8,76.4,281.2,76.7z"/>
			</g>
			<g>
				<path class="st1" d="M258.9,52.1c3.6,2.1,6.7,6.7,7.6,11.1c0.4,0.1,0.8,0.3,1.3,0.6c2.7,1.5,4.9,5,5.3,8.2
					c0.2,0.1,0.4,0.2,0.6,0.3c1.8,1,3.2,3.5,3.2,5.5c0,2-1.4,2.8-3.2,1.9l-11.2-6.5l0-3.8l0.6,0.4c0.4,0.2,0.6-0.2,0.3-0.6l-3.3-6.3
					c-0.1-0.2-0.2-0.3-0.3-0.4c-0.1-0.1-0.2-0.1-0.3,0l-3.3,2.5c-0.2,0.2,0,0.8,0.3,1l0.6,0.4l0,3.8l-2.2-1.3l-4.9-2.8
					c-2.3-1.3-4.1-4.5-4.1-7.2c0-2.6,1.9-3.7,4.2-2.4c0.4,0.2,0.7,0.5,1,0.7c0-0.2,0-0.3,0-0.5C251,51.6,254.6,49.6,258.9,52.1z"/>
			</g>
		</g>
	</g>
	<g>
		<g>
			<g class="st9">
				<g>
					<polygon class="st13" points="186.6,30.6 188,31.4 184.8,33.2 					"/>
				</g>
				<path class="st14" d="M182.1,0.2c-0.5-0.3-0.9-0.3-1.2-0.1l-3.4,2c0.3-0.2,0.8-0.2,1.2,0.1l22.9,13.2l3.4-2L182.1,0.2z"/>
				<path class="st14" d="M206.7,16.5c0-1.1-0.8-2.4-1.7-3l-3.4,2c1,0.6,1.7,1.9,1.7,3l-0.1,19.7c0,0.5-0.2,0.9-0.5,1.1l3.4-2
					c0.3-0.2,0.5-0.6,0.5-1.1l0,0L206.7,16.5z"/>
				<g>
					<path class="st15" d="M201.6,15.5c1,0.6,1.7,1.9,1.7,3l-0.1,19.7c0,1.1-0.8,1.5-1.7,1l-14.9-8.6l-0.8,1.2l-1,1.4
						c-0.1,0.2-0.3,0.2-0.5,0c-0.2-0.1-0.4-0.3-0.5-0.6l-1-2.5l-0.8-2.2l-3.3-1.9c-1-0.6-1.7-1.9-1.7-3L177,3.2c0-1.1,0.8-1.5,1.7-1
						L201.6,15.5z"/>
				</g>
			</g>
		</g>
		<g>
			<g class="st9">
				<g>
					<polygon class="st16" points="212.2,29.6 213.8,30.3 210.4,32.2 					"/>
				</g>
				<path class="st15" d="M198.9,0.5c-0.5-0.3-0.9-0.3-1.2-0.1l-3.4,2c0.3-0.2,0.8-0.2,1.2,0.1l22.9,13.2l3.4-2L198.9,0.5z"/>
				<path class="st15" d="M223.5,16.7c0-1.1-0.8-2.4-1.7-3l-3.4,2c1,0.6,1.7,1.9,1.7,3L220,32.2c0,0.5-0.2,0.9-0.5,1.1l3.4-2
					c0.3-0.2,0.5-0.6,0.5-1.1l0,0L223.5,16.7z"/>
				<g>
					<path class="st1" d="M218.4,15.7c1,0.6,1.7,1.9,1.7,3L220,32.2c0,1.1-0.8,1.5-1.7,1l-6.1-3.6l-0.8,1.2l-1,1.4
						c-0.1,0.2-0.3,0.2-0.5,0c-0.2-0.1-0.4-0.3-0.5-0.6l-1-2.5l-0.8-2.2L195.4,20c-1-0.6-1.7-1.9-1.7-3l0.1-13.5
						c0-1.1,0.8-1.5,1.7-1L218.4,15.7z"/>
				</g>
			</g>
		</g>
	</g>
	<g>
		<path class="st1" d="M129.7,159.8l-37.9-22.1c-0.5-0.3-1.3-0.3-1.8,0l-52.7,30.7c-0.5,0.3-0.5,0.7,0,1l37.9,22.1
			c0.5,0.3,1.3,0.3,1.8,0l52.7-30.7C130.1,160.6,130.1,160.1,129.7,159.8z"/>
	</g>
	<g>
		<path class="st1" d="M148.7,102.4l33.9,19.7c0.5,0.3,1.3,0.3,1.8,0l37.9-22.1c0.5-0.3,0.5-0.7,0-1l-33.9-19.7
			c-0.5-0.3-1.3-0.3-1.8,0l-37.9,22.1C148.3,101.7,148.3,102.1,148.7,102.4z"/>
	</g>
	<g>
		<g class="st9">
			<g>
				<polygon class="st17" points="212.8,84.5 213.1,101.7 184,118.2 183.7,101 				"/>
			</g>
			<g>
				<polygon class="st18" points="184,118.2 154.1,101.1 153.8,83.9 183.7,101 				"/>
			</g>
			<g>
				<polygon class="st19" points="183.7,101 153.8,83.9 182.9,67.4 212.8,84.5 				"/>
			</g>
			<g>
				<g>
					<g class="st9">
						<polygon class="st2" points="159.8,93.1 158.4,92.2 158.3,98.5 180.3,110.9 180.3,109.2 180.3,104.7 						"/>
						<g>
							<polygon class="st20" points="157.4,91.7 158.4,92.2 158.3,98.5 157.4,99 							"/>
						</g>
						<g>
							<polygon class="st21" points="157.4,99 158.3,98.5 180.3,110.9 180.3,112.1 							"/>
						</g>
					</g>
				</g>
			</g>
			<g>
				<g>
					<g class="st9">
						<polygon class="st2" points="207.5,92.9 209,92.1 209,98.3 187.1,110.8 187.1,109.1 187,104.5 						"/>
						<g>
							<polygon class="st20" points="210,91.5 209,92.1 209,98.3 210,98.9 							"/>
						</g>
						<g>
							<polygon class="st21" points="210,98.9 209,98.3 187.1,110.8 187.1,111.9 							"/>
						</g>
					</g>
				</g>
			</g>
		</g>
		<g class="st9">
			<g>
				<polygon class="st17" points="207.4,70.5 207.6,84.5 183.9,97.9 183.7,83.9 				"/>
			</g>
			<g>
				<polygon class="st18" points="183.9,97.9 159.5,84 159.3,70 183.7,83.9 				"/>
			</g>
			<g>
				<polygon class="st19" points="183.7,83.9 159.3,70 183,56.6 207.4,70.5 				"/>
			</g>
			<g>
				<g>
					<g class="st9">
						<polygon class="st22" points="163.9,77 162.7,76.3 162.7,81.5 180.9,91.8 180.9,90.4 180.9,86.6 						"/>
						<g>
							<polygon class="st20" points="161.9,75.9 162.7,76.3 162.7,81.5 161.9,82 							"/>
						</g>
						<g>
							<polygon class="st21" points="161.9,82 162.7,81.5 180.9,91.8 180.9,92.8 							"/>
						</g>
					</g>
				</g>
			</g>
			<g>
				<g>
					<g class="st9">
						<polygon class="st22" points="203.4,76.9 204.6,76.2 204.7,81.4 186.5,91.7 186.5,90.3 186.5,86.5 						"/>
						<g>
							<polygon class="st20" points="205.5,75.7 204.6,76.2 204.7,81.4 205.5,81.8 							"/>
						</g>
						<g>
							<polygon class="st21" points="205.5,81.8 204.7,81.4 186.5,91.7 186.5,92.6 							"/>
						</g>
					</g>
				</g>
			</g>
		</g>
		<g class="st9">
			<g>
				<polygon class="st17" points="202.6,59.2 202.7,70.3 183.8,81 183.6,69.9 				"/>
			</g>
			<g>
				<polygon class="st18" points="183.8,81 164.4,69.9 164.2,58.8 183.6,69.9 				"/>
			</g>
			<g>
				<polygon class="st19" points="183.6,69.9 164.2,58.8 183.1,48.1 202.6,59.2 				"/>
			</g>
			<g>
				<g>
					<g class="st9">
						<polygon class="st2" points="163.9,77 162.7,76.3 162.7,81.5 180.9,91.8 180.9,90.4 180.9,86.6 						"/>
						<g>
							<polygon class="st20" points="161.9,75.9 162.7,76.3 162.7,81.5 161.9,82 							"/>
						</g>
						<g>
							<polygon class="st21" points="161.9,82 162.7,81.5 180.9,91.8 180.9,92.8 							"/>
						</g>
					</g>
				</g>
			</g>
			<g>
				<g>
					<g class="st9">
						<polygon class="st2" points="203.4,76.9 204.6,76.2 204.7,81.4 186.5,91.7 186.5,90.3 186.5,86.5 						"/>
						<g>
							<polygon class="st20" points="205.5,75.7 204.6,76.2 204.7,81.4 205.5,81.8 							"/>
						</g>
						<g>
							<polygon class="st21" points="205.5,81.8 204.7,81.4 186.5,91.7 186.5,92.6 							"/>
						</g>
					</g>
				</g>
			</g>
			<g>
				<g>
					<g class="st9">
						<polygon class="st2" points="168.7,64.4 167.6,63.7 167.5,68.6 181,76.2 181,74.9 181,71.3 						"/>
						<g>
							<polygon class="st20" points="166.8,63.2 167.6,63.7 167.5,68.6 166.8,69 							"/>
						</g>
						<g>
							<polygon class="st21" points="166.8,69 167.5,68.6 181,76.2 181,77.1 							"/>
						</g>
					</g>
				</g>
			</g>
			<g>
				<g>
					<g class="st9">
						<polygon class="st2" points="198.4,64.4 199.6,63.7 199.6,68.6 186.3,76.1 186.3,74.8 186.3,71.2 						"/>
						<g>
							<polygon class="st20" points="200.3,63.2 199.6,63.7 199.6,68.6 200.3,69 							"/>
						</g>
						<g>
							<polygon class="st21" points="200.3,69 199.6,68.6 186.3,76.1 186.3,77 							"/>
						</g>
					</g>
				</g>
			</g>
		</g>
		<g>
			<g>
				<polygon class="st17" points="190.9,55.7 191,59.8 183.6,64 183.5,59.9 				"/>
			</g>
			<g>
				<polygon class="st18" points="183.6,64 176,59.7 176,55.6 183.5,59.9 				"/>
			</g>
			<g>
				<polygon class="st1" points="183.5,59.9 176,55.6 183.3,51.4 190.9,55.7 				"/>
			</g>
			<g>
				<path class="st23" d="M183.6,55.7c-0.3,0-0.5-0.1-0.5-0.2h0l0-14l0.9,0l0,14h0C184.1,55.6,183.9,55.6,183.6,55.7z"/>
				<g>
					<path class="st19" d="M183.6,37.9c1.4,0,2.5,1.1,2.5,2.5c0,1.4-1.1,2.5-2.5,2.5c-1.4,0-2.5-1.1-2.5-2.5
						C181.1,39,182.2,37.9,183.6,37.9z"/>
					<g>
						<path class="st1" d="M182.3,40.5c-0.2,0-0.4-0.2-0.4-0.4c0-0.4,0.2-0.8,0.5-1.1c0.3-0.3,0.7-0.5,1.1-0.5c0,0,0,0,0,0
							c0.2,0,0.4,0.2,0.4,0.4c0,0.2-0.2,0.4-0.4,0.4c-0.2,0-0.5,0.1-0.6,0.3c-0.2,0.2-0.3,0.4-0.3,0.6
							C182.7,40.4,182.5,40.5,182.3,40.5C182.3,40.5,182.3,40.5,182.3,40.5z"/>
					</g>
				</g>
			</g>
		</g>
	</g>
	<g>
		<g>
			<path class="st24" d="M204,132c14.7,8.5,14.8,22.3,0.2,30.8c-14.6,8.5-38.5,8.5-53.2,0c-14.7-8.5-14.8-22.3-0.2-30.8
				C165.4,123.5,189.2,123.5,204,132z"/>
		</g>
		<g>
			<g>
				<path class="st1" d="M197.2,135.9c11,6.3,11,16.6,0.1,22.9c-10.9,6.3-28.6,6.3-39.6,0c-11-6.3-11-16.6-0.1-22.9
					C168.5,129.6,186.2,129.6,197.2,135.9z M168.8,152.4c4.8,2.8,12.6,2.8,17.4,0c4.8-2.8,4.7-7.3-0.1-10.1
					c-4.8-2.8-12.6-2.8-17.4,0C164,145.1,164,149.6,168.8,152.4"/>
			</g>
			<g>
				<g>
					<g class="st9">
						<g>
							<path class="st25" d="M186.7,142.6l0,8.6c0-1.4-0.9-2.7-2.7-3.8c-3.6-2.1-9.4-2.1-13,0c-1.8,1-2.7,2.4-2.7,3.7l0-8.6
								c0-1.4,0.9-2.7,2.7-3.7c3.6-2.1,9.4-2.1,13,0C185.8,139.9,186.7,141.2,186.7,142.6z"/>
						</g>
						<g>
							<path class="st26" d="M198.4,142.6l0,3.8c0,3.1-2,6.2-6.1,8.5c-8.2,4.7-21.4,4.7-29.6,0c-4.1-2.4-6.2-5.5-6.2-8.6l0-3.7
								c0,3.1,2.1,6.3,6.2,8.6c8.2,4.7,21.5,4.7,29.6,0C196.4,148.8,198.4,145.7,198.4,142.6z"/>
						</g>
						<g>
							<path class="st27" d="M192.2,134c8.2,4.7,8.3,12.4,0.1,17.2c-8.2,4.7-21.4,4.7-29.6,0c-8.2-4.7-8.3-12.4-0.1-17.2
								C170.8,129.2,184,129.2,192.2,134z M171,146.3c3.6,2.1,9.4,2.1,13,0c3.6-2.1,3.6-5.4,0-7.5c-3.6-2.1-9.4-2.1-13,0
								C167.4,140.9,167.4,144.3,171,146.3"/>
						</g>
					</g>
				</g>
				<g>
					<path class="st26" d="M164.1,135.9c7.4-4.3,19.3-4.3,26.7,0c3.5,2,5.3,4.6,5.6,7.2c0.2-3-1.6-6-5.6-8.3
						c-7.4-4.3-19.4-4.3-26.7,0c-3.9,2.3-5.7,5.3-5.5,8.2C158.8,140.5,160.6,137.9,164.1,135.9z"/>
					<path class="st28" d="M164.2,150.3c7.4,4.3,19.4,4.3,26.7,0c3.4-2,5.3-4.6,5.5-7.2c-0.2-2.6-2.1-5.2-5.6-7.2
						c-7.4-4.3-19.4-4.3-26.7,0c-3.4,2-5.2,4.6-5.5,7.2C158.8,145.7,160.7,148.3,164.2,150.3z"/>
				</g>
				<path class="st29" d="M169,141.6c-0.5,1.6,0.3,3.3,2.4,4.5"/>
				<path class="st29" d="M185.3,140.6c-0.4-0.6-1-1.1-1.8-1.5c-1.1-0.7-2.5-1.1-3.9-1.3"/>
				<path class="st29" d="M179.1,147.5c1.6-0.2,3.2-0.6,4.4-1.4"/>
				<path class="st30" d="M167.8,139.2c-2,1.9-2.1,4.2-0.6,6.1"/>
				<path class="st29" d="M170.8,135.1c-1.3,0.4-2.5,0.9-3.6,1.5c-1.3,0.8-2.3,1.6-3,2.6"/>
				<path class="st30" d="M187.7,136.6c-2.4-1.4-5.5-2.2-8.7-2.4"/>
				<path class="st30" d="M185.4,149.6c0.9-0.3,1.7-0.7,2.4-1.1c2.7-1.5,4.1-3.5,4.2-5.5"/>
			</g>
			<g>
				<g class="st9">
					<g>
						<path class="st26" d="M181.4,141.4l0,1.8c0-0.6-0.4-1.2-1.2-1.6c-1.5-0.9-4-0.9-5.6,0c-0.8,0.4-1.1,1-1.1,1.6l0-1.8
							c0-0.6,0.4-1.2,1.1-1.6c1.5-0.9,4-0.9,5.6,0C181,140.2,181.4,140.8,181.4,141.4z"/>
					</g>
					<g>
						<path class="st26" d="M186.4,141.4l0,1.6c0,1.3-0.9,2.6-2.6,3.7c-3.5,2-9.2,2-12.7,0c-1.8-1-2.7-2.4-2.6-3.7l0-1.6
							c0,1.3,0.9,2.7,2.6,3.7c3.5,2,9.2,2,12.7,0C185.6,144,186.4,142.7,186.4,141.4z"/>
					</g>
					<g>
						<path class="st31" d="M183.8,137.7c3.5,2,3.5,5.3,0,7.4c-3.5,2-9.2,2-12.7,0c-3.5-2-3.5-5.3,0-7.4
							C174.6,135.7,180.3,135.7,183.8,137.7z M174.7,143c1.5,0.9,4,0.9,5.6,0c1.5-0.9,1.5-2.3,0-3.2c-1.5-0.9-4-0.9-5.6,0
							C173.1,140.6,173.2,142.1,174.7,143"/>
					</g>
				</g>
			</g>
		</g>
	</g>
	<g>
		<g>
			<polygon class="st1" points="95.6,186 93.8,185 84.7,190.4 86.6,191.4 			"/>
		</g>
		<g>
			<polygon class="st1" points="98.9,187.9 97.1,186.9 88,192.2 89.8,193.3 			"/>
		</g>
		<g>
			<polygon class="st1" points="102.1,189.8 100.3,188.7 91.2,194.1 93,195.1 			"/>
		</g>
		<g>
			<polygon class="st1" points="105.3,191.7 103.6,190.6 94.4,196 96.3,197 			"/>
		</g>
		<g>
			<polygon class="st1" points="108.6,193.6 106.8,192.5 97.7,197.9 99.5,198.9 			"/>
		</g>
	</g>
	<g>
		<g>
			<g>
				<path class="st32" d="M188,192c0.5,0.3,0.5,0.7,0,1l-52.7,30.7c-0.5,0.3-1.3,0.3-1.8,0l-33.9-19.6c-0.5-0.3-0.5-0.7,0-1
					l52.7-30.7c0.5-0.3,1.3-0.3,1.8,0L188,192z"/>
			</g>
			<path class="st1" d="M188,192l-33.9-19.6c-0.5-0.3-1.3-0.3-1.8,0l-52.7,30.7c-0.5,0.3-0.5,0.7,0,1l33.9,19.6
				c0.5,0.3,1.3,0.3,1.8,0L188,193C188.5,192.7,188.5,192.3,188,192z"/>
		</g>
		<g>
			<g>
				<g class="st9">
					<path class="st33" d="M161.9,183.2c0,0.2,0.1,0.3,0.3,0.5c0.5,0.3,1.2,0.3,1.6,0c0.2-0.1,0.3-0.3,0.3-0.5l0,6.5
						c0,0.2-0.1,0.3-0.3,0.5c-0.4,0.3-1.2,0.3-1.6,0c-0.2-0.1-0.3-0.3-0.3-0.5L161.9,183.2z"/>
					<g>
						<path class="st34" d="M162.2,183.6c0.5,0.3,1.2,0.3,1.6,0c0.4-0.3,0.4-0.7,0-0.9c-0.4-0.3-1.2-0.3-1.6,0
							C161.8,183,161.8,183.4,162.2,183.6z"/>
					</g>
				</g>
			</g>
			<path class="st35" d="M154.3,177.2c0-1.3,0.7-2.4,1.8-3c0,0,0,0,0,0c-0.2-0.3-0.3-0.7-0.3-1.2c0-1.3,1-2.4,2.3-2.6c0,0,0,0,0,0
				c0-1.9,1.5-3.4,3.4-3.4c1.2,0,2.3,0.7,2.9,1.7c0.5-0.6,1.2-0.9,2-0.9c1.5,0,2.6,1.2,2.6,2.6c0,0.3-0.1,0.6-0.2,0.9
				c1.8,0.4,3.1,1.9,3.1,3.8c0,1.3-0.7,2.5-1.7,3.2c0.1,0.2,0.1,0.4,0.1,0.7c0,1.2-0.9,2.3-2,2.6c-0.4,1.4-1.7,2.4-3.2,2.4
				c-0.5,0-1-0.1-1.5-0.3c-0.4,0.2-0.9,0.3-1.5,0.3c-1.2,0-2.2-0.6-2.8-1.5c0,0-0.1-0.1-0.1-0.1c-0.2,0-0.4,0.1-0.6,0.1
				c-1.3,0-2.4-1-2.6-2.3C155,179.6,154.3,178.5,154.3,177.2z"/>
		</g>
		<g>
			<g>
				<g class="st9">
					<path class="st33" d="M173.3,187.5c0,0.2,0.1,0.3,0.3,0.5c0.5,0.3,1.2,0.3,1.6,0c0.2-0.1,0.3-0.3,0.3-0.5l0,6.5
						c0,0.2-0.1,0.3-0.3,0.5c-0.4,0.3-1.2,0.3-1.6,0c-0.2-0.1-0.3-0.3-0.3-0.5L173.3,187.5z"/>
					<g>
						<path class="st34" d="M173.7,188c0.5,0.3,1.2,0.3,1.6,0c0.4-0.3,0.4-0.7,0-0.9c-0.4-0.3-1.2-0.3-1.6,0S173.2,187.7,173.7,188z
							"/>
					</g>
				</g>
			</g>
			<path class="st28" d="M165.7,181.6c0-1.3,0.7-2.4,1.8-3c0,0,0,0,0,0c-0.2-0.3-0.3-0.7-0.3-1.2c0-1.3,1-2.4,2.3-2.6c0,0,0,0,0,0
				c0-1.9,1.5-3.4,3.4-3.4c1.2,0,2.3,0.7,2.9,1.7c0.5-0.6,1.2-0.9,2-0.9c1.5,0,2.6,1.2,2.6,2.6c0,0.3-0.1,0.6-0.2,0.9
				c1.8,0.4,3.1,1.9,3.1,3.8c0,1.3-0.7,2.5-1.7,3.2c0.1,0.2,0.1,0.4,0.1,0.7c0,1.2-0.9,2.3-2,2.6c-0.4,1.4-1.7,2.4-3.2,2.4
				c-0.5,0-1-0.1-1.5-0.3c-0.4,0.2-0.9,0.3-1.5,0.3c-1.2,0-2.2-0.6-2.8-1.5c0,0-0.1-0.1-0.1-0.1c-0.2,0-0.4,0.1-0.6,0.1
				c-1.3,0-2.4-1-2.6-2.3C166.4,184,165.7,182.9,165.7,181.6z"/>
		</g>
		<g>
			<g class="st9">
				<g>
					<polygon class="st36" points="160.2,203.8 133.7,184.4 133.4,135.6 160,150.8 					"/>
				</g>
				<g>
					<polygon class="st36" points="107.8,203.3 133.2,184.4 133.4,135.6 107.6,150.3 					"/>
				</g>
				<g>
					<polygon class="st37" points="160,150.8 160.2,203.9 134.4,218.5 134.1,165.4 					"/>
				</g>
				<g>
					<polygon class="st33" points="134.4,218.5 107.8,203.3 107.6,150.3 134.1,165.4 					"/>
				</g>
				<g>
					<polygon class="st34" points="134.1,165.4 107.6,150.3 133.4,135.6 160,150.8 					"/>
				</g>
				<g>
					<g class="st9">
						<polygon class="st22" points="112.6,159.7 111.3,158.9 111.3,164.6 116.2,167.4 116.2,165.9 116.2,161.8 						"/>
						<g>
							<polygon class="st20" points="110.4,158.4 111.3,158.9 111.3,164.6 110.4,165.1 							"/>
						</g>
						<g>
							<polygon class="st21" points="110.4,165.1 111.3,164.6 116.2,167.4 116.2,168.4 							"/>
						</g>
					</g>
				</g>
				<g>
					<g class="st9">
						<polygon class="st22" points="120.2,164 118.8,163.3 118.8,168.9 123.7,171.7 123.7,170.2 123.7,166.1 						"/>
						<g>
							<polygon class="st20" points="118,162.7 118.8,163.3 118.8,168.9 117.9,169.4 							"/>
						</g>
						<g>
							<polygon class="st21" points="117.9,169.4 118.8,168.9 123.7,171.7 123.7,172.7 							"/>
						</g>
					</g>
				</g>
				<g>
					<g class="st9">
						<polygon class="st22" points="127.7,168.3 126.4,167.5 126.4,173.2 131.3,176 131.3,174.5 131.3,170.4 						"/>
						<g>
							<polygon class="st20" points="125.5,167 126.4,167.5 126.4,173.2 125.5,173.7 							"/>
						</g>
						<g>
							<polygon class="st21" points="125.5,173.7 126.4,173.2 131.3,176 131.3,177 							"/>
						</g>
					</g>
				</g>
				<g>
					<g class="st9">
						<polygon class="st22" points="112.6,170.3 111.3,169.5 111.3,175.1 116.2,178 116.2,176.4 116.2,172.3 						"/>
						<g>
							<polygon class="st20" points="110.4,169 111.3,169.5 111.3,175.1 110.4,175.6 							"/>
						</g>
						<g>
							<polygon class="st21" points="110.4,175.6 111.3,175.1 116.2,178 116.2,179 							"/>
						</g>
					</g>
				</g>
				<g>
					<g class="st9">
						<polygon class="st22" points="120.2,174.6 118.8,173.8 118.8,179.5 123.7,182.3 123.7,180.7 123.7,176.7 						"/>
						<g>
							<polygon class="st20" points="118,173.3 118.8,173.8 118.8,179.5 117.9,180 							"/>
						</g>
						<g>
							<polygon class="st21" points="117.9,180 118.8,179.5 123.7,182.3 123.7,183.3 							"/>
						</g>
					</g>
				</g>
				<g>
					<g class="st9">
						<polygon class="st22" points="127.7,178.9 126.4,178.1 126.4,183.7 131.3,186.6 131.3,185 131.3,180.9 						"/>
						<g>
							<polygon class="st20" points="125.5,177.6 126.4,178.1 126.4,183.7 125.5,184.3 							"/>
						</g>
						<g>
							<polygon class="st21" points="125.5,184.3 126.4,183.7 131.3,186.6 131.3,187.6 							"/>
						</g>
					</g>
				</g>
				<g>
					<g class="st9">
						<polygon class="st22" points="112.6,180.9 111.3,180.1 111.3,185.7 116.2,188.5 116.2,187 116.2,182.9 						"/>
						<g>
							<polygon class="st20" points="110.4,179.6 111.3,180.1 111.3,185.7 110.4,186.2 							"/>
						</g>
						<g>
							<polygon class="st21" points="110.4,186.2 111.3,185.7 116.2,188.5 116.2,189.6 							"/>
						</g>
					</g>
				</g>
				<g>
					<g class="st9">
						<polygon class="st22" points="120.2,185.2 118.8,184.4 118.8,190 123.7,192.9 123.7,191.3 123.7,187.2 						"/>
						<g>
							<polygon class="st20" points="118,183.9 118.8,184.4 118.8,190 117.9,190.5 							"/>
						</g>
						<g>
							<polygon class="st21" points="117.9,190.5 118.8,190 123.7,192.9 123.7,193.9 							"/>
						</g>
					</g>
				</g>
				<g>
					<g class="st9">
						<polygon class="st22" points="127.7,189.5 126.4,188.7 126.4,194.3 131.3,197.1 131.3,195.6 131.3,191.5 						"/>
						<g>
							<polygon class="st20" points="125.5,188.2 126.4,188.7 126.4,194.3 125.5,194.8 							"/>
						</g>
						<g>
							<polygon class="st21" points="125.5,194.8 126.4,194.3 131.3,197.1 131.3,198.2 							"/>
						</g>
					</g>
				</g>
				<g>
					<g class="st9">
						<polygon class="st22" points="112.6,191.4 111.3,190.6 111.3,196.3 116.2,199.1 116.2,197.6 116.2,193.5 						"/>
						<g>
							<polygon class="st20" points="110.4,190.1 111.3,190.6 111.3,196.3 110.4,196.8 							"/>
						</g>
						<g>
							<polygon class="st21" points="110.4,196.8 111.3,196.3 116.2,199.1 116.2,200.1 							"/>
						</g>
					</g>
				</g>
				<g>
					<g class="st9">
						<polygon class="st22" points="120.2,195.7 118.8,195 118.8,200.6 123.7,203.4 123.7,201.9 123.7,197.8 						"/>
						<g>
							<polygon class="st20" points="118,194.5 118.8,195 118.8,200.6 117.9,201.1 							"/>
						</g>
						<g>
							<polygon class="st21" points="117.9,201.1 118.8,200.6 123.7,203.4 123.7,204.4 							"/>
						</g>
					</g>
				</g>
				<g>
					<g class="st9">
						<polygon class="st22" points="127.7,200 126.4,199.3 126.4,204.9 131.3,207.7 131.3,206.2 131.3,202.1 						"/>
						<g>
							<polygon class="st20" points="125.5,198.8 126.4,199.3 126.4,204.9 125.5,205.4 							"/>
						</g>
						<g>
							<polygon class="st21" points="125.5,205.4 126.4,204.9 131.3,207.7 131.3,208.7 							"/>
						</g>
					</g>
				</g>
				<g>
					<g class="st9">
						<polygon class="st22" points="155.5,159.7 156.9,158.9 156.9,164.6 152,167.4 152,165.9 152,161.8 						"/>
						<g>
							<polygon class="st20" points="157.7,158.4 156.9,158.9 156.9,164.6 157.8,165.1 							"/>
						</g>
						<g>
							<polygon class="st21" points="157.8,165.1 156.9,164.6 152,167.4 152,168.4 							"/>
						</g>
					</g>
				</g>
				<g>
					<g class="st9">
						<polygon class="st22" points="148,164 149.3,163.3 149.3,168.9 144.4,171.7 144.4,170.2 144.4,166.1 						"/>
						<g>
							<polygon class="st20" points="150.2,162.7 149.3,163.3 149.3,168.9 150.2,169.4 							"/>
						</g>
						<g>
							<polygon class="st21" points="150.2,169.4 149.3,168.9 144.4,171.7 144.4,172.7 							"/>
						</g>
					</g>
				</g>
				<g>
					<g class="st9">
						<polygon class="st22" points="140.5,168.3 141.8,167.5 141.8,173.2 136.9,176 136.9,174.5 136.9,170.4 						"/>
						<g>
							<polygon class="st20" points="142.7,167 141.8,167.5 141.8,173.2 142.7,173.7 							"/>
						</g>
						<g>
							<polygon class="st21" points="142.7,173.7 141.8,173.2 136.9,176 136.9,177 							"/>
						</g>
					</g>
				</g>
				<g>
					<g class="st9">
						<polygon class="st22" points="155.5,170.3 156.9,169.5 156.9,175.1 152,178 152,176.4 152,172.3 						"/>
						<g>
							<polygon class="st20" points="157.7,169 156.9,169.5 156.9,175.1 157.8,175.6 							"/>
						</g>
						<g>
							<polygon class="st21" points="157.8,175.6 156.9,175.1 152,178 152,179 							"/>
						</g>
					</g>
				</g>
				<g>
					<g class="st9">
						<polygon class="st22" points="148,174.6 149.3,173.8 149.3,179.5 144.4,182.3 144.4,180.7 144.4,176.7 						"/>
						<g>
							<polygon class="st20" points="150.2,173.3 149.3,173.8 149.3,179.5 150.2,180 							"/>
						</g>
						<g>
							<polygon class="st21" points="150.2,180 149.3,179.5 144.4,182.3 144.4,183.3 							"/>
						</g>
					</g>
				</g>
				<g>
					<g class="st9">
						<polygon class="st22" points="140.5,178.9 141.8,178.1 141.8,183.7 136.9,186.6 136.9,185 136.9,180.9 						"/>
						<g>
							<polygon class="st20" points="142.7,177.6 141.8,178.1 141.8,183.7 142.7,184.3 							"/>
						</g>
						<g>
							<polygon class="st21" points="142.7,184.3 141.8,183.7 136.9,186.6 136.9,187.6 							"/>
						</g>
					</g>
				</g>
				<g>
					<g class="st9">
						<polygon class="st22" points="155.5,180.9 156.9,180.1 156.9,185.7 152,188.5 152,187 152,182.9 						"/>
						<g>
							<polygon class="st20" points="157.7,179.6 156.9,180.1 156.9,185.7 157.8,186.2 							"/>
						</g>
						<g>
							<polygon class="st21" points="157.8,186.2 156.9,185.7 152,188.5 152,189.6 							"/>
						</g>
					</g>
				</g>
				<g>
					<g class="st9">
						<polygon class="st22" points="148,185.2 149.3,184.4 149.3,190 144.4,192.9 144.4,191.3 144.4,187.2 						"/>
						<g>
							<polygon class="st20" points="150.2,183.9 149.3,184.4 149.3,190 150.2,190.5 							"/>
						</g>
						<g>
							<polygon class="st21" points="150.2,190.5 149.3,190 144.4,192.9 144.4,193.9 							"/>
						</g>
					</g>
				</g>
				<g>
					<g class="st9">
						<polygon class="st22" points="140.5,189.5 141.8,188.7 141.8,194.3 136.9,197.1 136.9,195.6 136.9,191.5 						"/>
						<g>
							<polygon class="st20" points="142.7,188.2 141.8,188.7 141.8,194.3 142.7,194.8 							"/>
						</g>
						<g>
							<polygon class="st21" points="142.7,194.8 141.8,194.3 136.9,197.1 136.9,198.2 							"/>
						</g>
					</g>
				</g>
				<g>
					<g class="st9">
						<polygon class="st22" points="155.5,191.4 156.9,190.6 156.9,196.3 152,199.1 152,197.6 152,193.5 						"/>
						<g>
							<polygon class="st20" points="157.7,190.1 156.9,190.6 156.9,196.3 157.8,196.8 							"/>
						</g>
						<g>
							<polygon class="st21" points="157.8,196.8 156.9,196.3 152,199.1 152,200.1 							"/>
						</g>
					</g>
				</g>
				<g>
					<g class="st9">
						<polygon class="st22" points="148,195.7 149.3,195 149.3,200.6 144.4,203.4 144.4,201.9 144.4,197.8 						"/>
						<g>
							<polygon class="st20" points="150.2,194.5 149.3,195 149.3,200.6 150.2,201.1 							"/>
						</g>
						<g>
							<polygon class="st21" points="150.2,201.1 149.3,200.6 144.4,203.4 144.4,204.4 							"/>
						</g>
					</g>
				</g>
				<g>
					<g class="st9">
						<polygon class="st22" points="140.5,200 141.8,199.3 141.8,204.9 136.9,207.7 136.9,206.2 136.9,202.1 						"/>
						<g>
							<polygon class="st20" points="142.7,198.8 141.8,199.3 141.8,204.9 142.7,205.4 							"/>
						</g>
						<g>
							<polygon class="st21" points="142.7,205.4 141.8,204.9 136.9,207.7 136.9,208.7 							"/>
						</g>
					</g>
				</g>
			</g>
		</g>
	</g>
	<g>
		<path class="st38" d="M120.4,56.9c2.8-1.6,5.3-1.8,7.2-0.7l-5.2-3.1c-1.8-1.1-4.4-0.9-7.2,0.7c-5.6,3.2-10.1,11-10,17.4
			c0,2.7,0.8,4.8,2.2,6l0,0h0l0.1,0.1l7.8,6.5l5.2,3.1l-7.8-6.5l-1.3-1.6c-0.6-1.1-1-2.6-1-4.4C110.4,67.9,114.9,60.1,120.4,56.9z"
			/>
		<g>
			<path class="st39" d="M120.4,56.9c-5.6,3.2-10.1,11-10,17.4c0,2.7,0.8,4.8,2.2,6l0.1,0.1l7.8,6.5l7.6-15.3
				c0.1-0.2,0.2-0.3,0.3-0.6c1.3-2.7,2.1-5.7,2.1-8.3C130.5,56.3,126,53.7,120.4,56.9z M117.5,70.3c-0.2,0.1-0.4,0.2-0.5,0.3
				c0-0.1,0-0.2,0-0.3c0-2.6,1.8-5.7,4.1-7c0.2-0.1,0.4-0.2,0.5-0.3c0,0.1,0,0.2,0,0.3C121.6,65.9,119.8,69,117.5,70.3z"/>
			<path class="st40" d="M121.6,63c0,0.1,0,0.2,0,0.3c0,2.6-1.8,5.7-4.1,7c-0.2,0.1-0.4,0.2-0.5,0.3c0.1,2.4,1.9,3.3,4.1,2.1
				c2.3-1.3,4.1-4.5,4.1-7C125.1,63.2,123.6,62.2,121.6,63z"/>
		</g>
	</g>
	<g>
		<g>
			<path class="st1" d="M102.7,130.1l17.8,10.5c0.5,0.3,1.3,0.3,1.8,0l32.6-19.1c0.5-0.3,0.5-0.7,0-1l-17.8-10.5
				c-0.5-0.3-1.3-0.3-1.8,0L102.7,129C102.3,129.3,102.3,129.8,102.7,130.1z"/>
		</g>
		<g>
			<path class="st17" d="M115.1,110.6l12.7,7.4l0,15.6c0,0-12.6-7.3-12.6-7.3L115.1,110.6z"/>
			<g>
				<polygon class="st18" points="115.1,110.6 135.1,100.6 147.8,107.5 147.8,121.9 127.8,133.6 127.7,118 127.7,118.1 				"/>
			</g>
			<g>
				<g>
					<g class="st9">
						<g>
							<polyline class="st1" points="145.4,122.4 145.9,122.1 145.9,113.5 141.2,116.2 141.2,124.8 141.7,124.6 							"/>
						</g>
						<g>
							<polygon class="st41" points="141.2,116.2 140.9,116 140.9,124.6 141.2,124.8 							"/>
						</g>
					</g>
				</g>
				<polygon class="st41" points="145.4,114.4 145.4,122.4 145,122.2 145,114.6 				"/>
				<g>
					<g class="st9">
						<g>
							<polygon class="st22" points="141.6,116.6 141.7,124.3 145.1,122.3 145.1,114.6 							"/>
						</g>
					</g>
				</g>
			</g>
			<g>
				<g class="st9">
					<g>
						<polygon class="st33" points="137,103.4 123.9,96.1 114.8,110.7 127.7,118.2 						"/>
					</g>
				</g>
			</g>
			<polygon class="st37" points="137,103.4 123.9,96.1 135.1,100.6 148.2,107.7 			"/>
			<g>
				<path class="st42" d="M141.6,119.8c0,0.2,0.2,0.3,0.5,0.2c0.2-0.1,0.5-0.5,0.5-0.7"/>
			</g>
			<g>
				<path class="st42" d="M143.5,118.7c0,0.2,0.2,0.3,0.5,0.2c0.2-0.1,0.5-0.5,0.5-0.7"/>
			</g>
			<g>
				<path class="st42" d="M145.3,117.7c0,0.2,0.2,0.3,0.5,0.2c0.2-0.1,0.5-0.5,0.5-0.7"/>
			</g>
			<g>
				<path class="st42" d="M147.1,116.6c0,0.2,0.2,0.3,0.5,0.2c0.2-0.1,0.5-0.5,0.5-0.7"/>
			</g>
			<g>
				<path class="st42" d="M149,115.5c0,0.2,0.2,0.3,0.5,0.2c0.2-0.1,0.5-0.5,0.5-0.7"/>
			</g>
			<g>
				<path class="st43" d="M142.6,119.2c0,0.2,0.2,0.3,0.5,0.2c0.2-0.1,0.5-0.5,0.5-0.7"/>
			</g>
			<g>
				<path class="st43" d="M144.4,118.2c0,0.2,0.2,0.3,0.5,0.2c0.2-0.1,0.5-0.5,0.5-0.7"/>
			</g>
			<g>
				<path class="st43" d="M146.2,117.1c0,0.2,0.2,0.3,0.5,0.2c0.2-0.1,0.5-0.5,0.5-0.7"/>
			</g>
			<g>
				<path class="st43" d="M148.1,116.1c0,0.2,0.2,0.3,0.5,0.2c0.2-0.1,0.5-0.5,0.5-0.7"/>
			</g>
			<g>
				<g class="st9">
					<polygon class="st22" points="118.6,117.4 117,116.5 117,122.8 126.3,128.2 126.3,126.5 126.3,121.9 					"/>
					<g>
						<polygon class="st20" points="116.1,115.9 117,116.5 117,122.8 116,123.4 						"/>
					</g>
					<g>
						<polygon class="st21" points="116,123.4 117,122.8 126.3,128.2 126.3,129.4 						"/>
					</g>
				</g>
			</g>
			<g>
				<g class="st9">
					<polygon class="st22" points="137,117.8 138.5,117 138.6,123.3 129.3,128.7 129.3,127 129.2,122.4 					"/>
					<g>
						<polygon class="st20" points="139.5,116.4 138.5,117 138.6,123.3 139.5,123.9 						"/>
					</g>
					<g>
						<polygon class="st21" points="139.5,123.9 138.6,123.3 129.3,128.7 129.3,129.8 						"/>
					</g>
				</g>
			</g>
			<g>
				<g class="st9">
					<polygon class="st22" points="139,108.5 140,107.9 140,112.1 135.8,114.6 135.8,113.4 135.7,110.4 					"/>
					<g>
						<polygon class="st20" points="140.6,107.5 140,107.9 140,112.1 140.6,112.5 						"/>
					</g>
					<g>
						<polygon class="st21" points="140.6,112.5 140,112.1 135.8,114.6 135.8,115.3 						"/>
					</g>
				</g>
			</g>
			<g>
				<g>
					<polygon class="st19" points="138.2,116.4 141.6,119.8 149.9,115 146.4,111.7 					"/>
					<polygon class="st44" points="142.6,119.2 139.1,115.9 140,115.4 143.4,118.8 					"/>
					<polyline class="st1" points="139.1,115.9 140,115.3 143.5,118.7 142.6,119.2 					"/>
					<polygon class="st1" points="140.9,114.8 141.8,114.3 145.3,117.7 144.4,118.2 					"/>
					<polyline class="st1" points="142.8,113.8 143.7,113.2 147.1,116.6 146.2,117.1 					"/>
					<polygon class="st1" points="144.6,112.7 145.5,112.2 149,115.5 148.1,116.1 					"/>
				</g>
			</g>
		</g>
		<g>
			<g>
				<g class="st9">
					<path class="st33" d="M109.5,125.8c0,0.2,0.1,0.3,0.3,0.5c0.5,0.3,1.2,0.3,1.6,0c0.2-0.1,0.3-0.3,0.3-0.5l0,6.5
						c0,0.2-0.1,0.3-0.3,0.5c-0.4,0.3-1.2,0.3-1.6,0c-0.2-0.1-0.3-0.3-0.3-0.5L109.5,125.8z"/>
					<g>
						<path class="st34" d="M109.8,126.3c0.5,0.3,1.2,0.3,1.6,0c0.4-0.3,0.4-0.7,0-0.9c-0.4-0.3-1.2-0.3-1.6,0
							C109.4,125.6,109.4,126,109.8,126.3z"/>
					</g>
				</g>
			</g>
			<path class="st35" d="M101.9,119.9c0-1.3,0.7-2.4,1.8-3c0,0,0,0,0,0c-0.2-0.3-0.3-0.7-0.3-1.2c0-1.3,1-2.4,2.3-2.6c0,0,0,0,0,0
				c0-1.9,1.5-3.4,3.4-3.4c1.2,0,2.3,0.7,2.9,1.7c0.5-0.6,1.2-0.9,2-0.9c1.5,0,2.6,1.2,2.6,2.6c0,0.3-0.1,0.6-0.2,0.9
				c1.8,0.3,3.1,1.9,3.1,3.8c0,1.3-0.7,2.5-1.7,3.2c0.1,0.2,0.1,0.4,0.1,0.7c0,1.2-0.9,2.3-2,2.6c-0.4,1.4-1.7,2.4-3.2,2.4
				c-0.5,0-1-0.1-1.5-0.3c-0.4,0.2-0.9,0.3-1.5,0.3c-1.2,0-2.2-0.6-2.8-1.5c0,0-0.1-0.1-0.1-0.1c-0.2,0-0.4,0.1-0.6,0.1
				c-1.3,0-2.4-1-2.6-2.3C102.5,122.2,101.9,121.1,101.9,119.9z"/>
		</g>
		<g>
			<g>
				<g class="st9">
					<path class="st33" d="M120.9,130.2c0,0.2,0.1,0.3,0.3,0.5c0.5,0.3,1.2,0.3,1.6,0c0.2-0.1,0.3-0.3,0.3-0.5l0,6.5
						c0,0.2-0.1,0.3-0.3,0.5c-0.4,0.3-1.2,0.3-1.6,0c-0.2-0.1-0.3-0.3-0.3-0.5L120.9,130.2z"/>
					<g>
						<path class="st34" d="M121.3,130.6c0.5,0.3,1.2,0.3,1.6,0c0.4-0.3,0.4-0.7,0-0.9c-0.4-0.3-1.2-0.3-1.6,0
							C120.8,130,120.8,130.4,121.3,130.6z"/>
					</g>
				</g>
			</g>
			<path class="st28" d="M113.3,124.2c0-1.3,0.7-2.4,1.8-3c0,0,0,0,0,0c-0.2-0.3-0.3-0.7-0.3-1.2c0-1.3,1-2.4,2.3-2.6c0,0,0,0,0,0
				c0-1.9,1.5-3.4,3.4-3.4c1.2,0,2.3,0.7,2.9,1.7c0.5-0.6,1.2-0.9,2-0.9c1.5,0,2.6,1.2,2.6,2.6c0,0.3-0.1,0.6-0.2,0.9
				c1.8,0.4,3.1,1.9,3.1,3.8c0,1.3-0.7,2.5-1.7,3.2c0.1,0.2,0.1,0.4,0.1,0.7c0,1.2-0.9,2.3-2,2.6c-0.4,1.4-1.7,2.4-3.2,2.4
				c-0.5,0-1-0.1-1.5-0.3c-0.4,0.2-0.9,0.3-1.5,0.3c-1.2,0-2.2-0.6-2.8-1.5c0,0-0.1-0.1-0.1-0.1c-0.2,0-0.4,0.1-0.6,0.1
				c-1.3,0-2.4-1-2.6-2.3C114,126.6,113.3,125.5,113.3,124.2z"/>
		</g>
	</g>
	<g>
		<g class="st9">
			<g>
				<polygon class="st36" points="106.4,169.8 74.8,151.8 74.5,69.5 106.1,87.5 				"/>
			</g>
			<g>
				<polygon class="st36" points="44.1,169.2 74.2,151.8 74.5,69.5 43.8,86.9 				"/>
			</g>
			<g>
				<polygon class="st45" points="106.1,87.5 106.4,169.8 75.7,187.2 75.4,104.9 				"/>
			</g>
			<g>
				<polygon class="st16" points="75.7,187.2 44.1,169.2 43.8,86.9 75.4,104.9 				"/>
			</g>
			<g>
				<polygon class="st19" points="75.4,104.9 43.8,86.9 74.5,69.5 106.1,87.5 				"/>
			</g>
			<g>
				<g class="st9">
					<polygon class="st22" points="49.8,109.9 48.2,108.9 48.2,115.6 54,119 54,117.2 54.1,112.3 					"/>
					<g>
						<polygon class="st20" points="47.2,108.3 48.2,108.9 48.2,115.6 47.2,116.2 						"/>
					</g>
					<g>
						<polygon class="st21" points="47.2,116.2 48.2,115.6 54,119 54,120.2 						"/>
					</g>
				</g>
			</g>
			<g>
				<g class="st9">
					<polygon class="st22" points="58.8,115 57.2,114.1 57.2,120.8 63,124.1 63,122.3 63,117.4 					"/>
					<g>
						<polygon class="st20" points="56.1,113.5 57.2,114.1 57.2,120.8 56.1,121.4 						"/>
					</g>
					<g>
						<polygon class="st21" points="56.1,121.4 57.2,120.8 63,124.1 63,125.4 						"/>
					</g>
				</g>
			</g>
			<g>
				<g class="st9">
					<polygon class="st22" points="67.8,120.1 66.2,119.2 66.1,125.9 72,129.2 72,127.4 72,122.5 					"/>
					<g>
						<polygon class="st20" points="65.1,118.6 66.2,119.2 66.1,125.9 65.1,126.5 						"/>
					</g>
					<g>
						<polygon class="st21" points="65.1,126.5 66.1,125.9 72,129.2 72,130.5 						"/>
					</g>
				</g>
			</g>
			<g>
				<g class="st9">
					<polygon class="st22" points="49.8,122.4 48.2,121.5 48.2,128.2 54,131.6 54,129.7 54.1,124.9 					"/>
					<g>
						<polygon class="st20" points="47.2,120.9 48.2,121.5 48.2,128.2 47.2,128.8 						"/>
					</g>
					<g>
						<polygon class="st21" points="47.2,128.8 48.2,128.2 54,131.6 54,132.8 						"/>
					</g>
				</g>
			</g>
			<g>
				<g class="st9">
					<polygon class="st22" points="58.8,127.6 57.2,126.6 57.2,133.3 63,136.7 63,134.9 63,130 					"/>
					<g>
						<polygon class="st20" points="56.1,126 57.2,126.6 57.2,133.3 56.1,134 						"/>
					</g>
					<g>
						<polygon class="st21" points="56.1,134 57.2,133.3 63,136.7 63,137.9 						"/>
					</g>
				</g>
			</g>
			<g>
				<g class="st9">
					<polygon class="st22" points="67.8,132.7 66.2,131.8 66.1,138.5 72,141.8 72,140 72,135.1 					"/>
					<g>
						<polygon class="st20" points="65.1,131.1 66.2,131.8 66.1,138.5 65.1,139.1 						"/>
					</g>
					<g>
						<polygon class="st21" points="65.1,139.1 66.1,138.5 72,141.8 72,143 						"/>
					</g>
				</g>
			</g>
			<g>
				<g class="st9">
					<polygon class="st22" points="49.8,135 48.2,134.1 48.2,140.8 54,144.1 54,142.3 54.1,137.4 					"/>
					<g>
						<polygon class="st20" points="47.2,133.5 48.2,134.1 48.2,140.8 47.2,141.4 						"/>
					</g>
					<g>
						<polygon class="st21" points="47.2,141.4 48.2,140.8 54,144.1 54,145.4 						"/>
					</g>
				</g>
			</g>
			<g>
				<g class="st9">
					<polygon class="st22" points="58.8,140.1 57.2,139.2 57.2,145.9 63,149.3 63,147.5 63,142.6 					"/>
					<g>
						<polygon class="st20" points="56.1,138.6 57.2,139.2 57.2,145.9 56.1,146.5 						"/>
					</g>
					<g>
						<polygon class="st21" points="56.1,146.5 57.2,145.9 63,149.3 63,150.5 						"/>
					</g>
				</g>
			</g>
			<g>
				<g class="st9">
					<polygon class="st22" points="67.8,145.3 66.2,144.3 66.1,151 72,154.4 72,152.6 72,147.7 					"/>
					<g>
						<polygon class="st20" points="65.1,143.7 66.2,144.3 66.1,151 65.1,151.6 						"/>
					</g>
					<g>
						<polygon class="st21" points="65.1,151.6 66.1,151 72,154.4 72,155.6 						"/>
					</g>
				</g>
			</g>
			<g>
				<g class="st9">
					<polygon class="st22" points="49.8,147.6 48.2,146.7 48.2,153.4 54,156.7 54,154.9 54.1,150 					"/>
					<g>
						<polygon class="st20" points="47.2,146 48.2,146.7 48.2,153.4 47.2,154 						"/>
					</g>
					<g>
						<polygon class="st21" points="47.2,154 48.2,153.4 54,156.7 54,157.9 						"/>
					</g>
				</g>
			</g>
			<g>
				<g class="st9">
					<polygon class="st22" points="58.8,152.7 57.2,151.8 57.2,158.5 63,161.9 63,160 63,155.2 					"/>
					<g>
						<polygon class="st20" points="56.1,151.2 57.2,151.8 57.2,158.5 56.1,159.1 						"/>
					</g>
					<g>
						<polygon class="st21" points="56.1,159.1 57.2,158.5 63,161.9 63,163.1 						"/>
					</g>
				</g>
			</g>
			<g>
				<g class="st9">
					<polygon class="st22" points="67.8,157.8 66.2,156.9 66.1,163.6 72,167 72,165.1 72,160.3 					"/>
					<g>
						<polygon class="st20" points="65.1,156.3 66.2,156.9 66.1,163.6 65.1,164.2 						"/>
					</g>
					<g>
						<polygon class="st21" points="65.1,164.2 66.1,163.6 72,167 72,168.2 						"/>
					</g>
				</g>
			</g>
			<g>
				<g class="st9">
					<polygon class="st22" points="49.8,160.2 48.2,159.2 48.2,165.9 54,169.3 54,167.5 54.1,162.6 					"/>
					<g>
						<polygon class="st20" points="47.2,158.6 48.2,159.2 48.2,165.9 47.2,166.5 						"/>
					</g>
					<g>
						<polygon class="st21" points="47.2,166.5 48.2,165.9 54,169.3 54,170.5 						"/>
					</g>
				</g>
			</g>
			<g>
				<g class="st9">
					<polygon class="st22" points="58.8,165.3 57.2,164.4 57.2,171.1 63,174.4 63,172.6 63,167.7 					"/>
					<g>
						<polygon class="st20" points="56.1,163.8 57.2,164.4 57.2,171.1 56.1,171.7 						"/>
					</g>
					<g>
						<polygon class="st21" points="56.1,171.7 57.2,171.1 63,174.4 63,175.7 						"/>
					</g>
				</g>
			</g>
			<g>
				<g class="st9">
					<polygon class="st22" points="67.8,170.4 66.2,169.5 66.1,176.2 72,179.5 72,177.7 72,172.8 					"/>
					<g>
						<polygon class="st20" points="65.1,168.9 66.2,169.5 66.1,176.2 65.1,176.8 						"/>
					</g>
					<g>
						<polygon class="st21" points="65.1,176.8 66.1,176.2 72,179.5 72,180.8 						"/>
					</g>
				</g>
			</g>
			<g>
				<g class="st9">
					<polygon class="st22" points="100.8,109.9 102.4,108.9 102.5,115.6 96.6,119 96.6,117.2 96.6,112.3 					"/>
					<g>
						<polygon class="st20" points="103.5,108.3 102.4,108.9 102.4,115.6 103.5,116.2 						"/>
					</g>
					<g>
						<polygon class="st21" points="103.5,116.2 102.5,115.6 96.6,119 96.6,120.2 						"/>
					</g>
				</g>
			</g>
			<g>
				<g class="st9">
					<polygon class="st22" points="91.9,115 93.5,114.1 93.5,120.8 87.7,124.1 87.7,122.3 87.6,117.4 					"/>
					<g>
						<polygon class="st20" points="94.5,113.5 93.5,114.1 93.5,120.8 94.5,121.4 						"/>
					</g>
					<g>
						<polygon class="st21" points="94.5,121.4 93.5,120.8 87.7,124.1 87.7,125.4 						"/>
					</g>
				</g>
			</g>
			<g>
				<g class="st9">
					<polygon class="st22" points="82.9,120.1 84.5,119.2 84.5,125.9 78.7,129.2 78.7,127.4 78.7,122.5 					"/>
					<g>
						<polygon class="st20" points="85.6,118.6 84.5,119.2 84.5,125.9 85.6,126.5 						"/>
					</g>
					<g>
						<polygon class="st21" points="85.6,126.5 84.5,125.9 78.7,129.2 78.7,130.5 						"/>
					</g>
				</g>
			</g>
			<g>
				<g class="st9">
					<polygon class="st22" points="49.8,97.4 48.2,96.5 48.2,103.2 54,106.5 54,104.7 54.1,99.8 					"/>
					<g>
						<polygon class="st20" points="47.2,95.9 48.2,96.5 48.2,103.2 47.2,103.8 						"/>
					</g>
					<g>
						<polygon class="st21" points="47.2,103.8 48.2,103.2 54,106.5 54,107.7 						"/>
					</g>
				</g>
			</g>
			<g>
				<g class="st9">
					<polygon class="st22" points="58.8,102.5 57.2,101.6 57.2,108.3 63,111.7 63,109.8 63,105 					"/>
					<g>
						<polygon class="st20" points="56.1,101 57.2,101.6 57.2,108.3 56.1,108.9 						"/>
					</g>
					<g>
						<polygon class="st21" points="56.1,108.9 57.2,108.3 63,111.7 63,112.9 						"/>
					</g>
				</g>
			</g>
			<g>
				<g class="st9">
					<polygon class="st22" points="67.8,107.6 66.2,106.7 66.1,113.4 72,116.8 72,114.9 72,110.1 					"/>
					<g>
						<polygon class="st20" points="65.1,106.1 66.2,106.7 66.1,113.4 65.1,114 						"/>
					</g>
					<g>
						<polygon class="st21" points="65.1,114 66.1,113.4 72,116.8 72,118 						"/>
					</g>
				</g>
			</g>
			<g>
				<g class="st9">
					<polygon class="st22" points="100.8,97.4 102.4,96.5 102.5,103.2 96.6,106.5 96.6,104.7 96.6,99.8 					"/>
					<g>
						<polygon class="st20" points="103.5,95.9 102.4,96.5 102.4,103.2 103.5,103.8 						"/>
					</g>
					<g>
						<polygon class="st21" points="103.5,103.8 102.5,103.2 96.6,106.5 96.6,107.7 						"/>
					</g>
				</g>
			</g>
			<g>
				<g class="st9">
					<polygon class="st22" points="91.9,102.5 93.5,101.6 93.5,108.3 87.7,111.7 87.7,109.8 87.6,105 					"/>
					<g>
						<polygon class="st20" points="94.5,101 93.5,101.6 93.5,108.3 94.5,108.9 						"/>
					</g>
					<g>
						<polygon class="st21" points="94.5,108.9 93.5,108.3 87.7,111.7 87.7,112.9 						"/>
					</g>
				</g>
			</g>
			<g>
				<g class="st9">
					<polygon class="st22" points="82.9,107.6 84.5,106.7 84.5,113.4 78.7,116.8 78.7,114.9 78.7,110.1 					"/>
					<g>
						<polygon class="st20" points="85.6,106.1 84.5,106.7 84.5,113.4 85.6,114 						"/>
					</g>
					<g>
						<polygon class="st21" points="85.6,114 84.5,113.4 78.7,116.8 78.7,118 						"/>
					</g>
				</g>
			</g>
			<g>
				<g class="st9">
					<polygon class="st22" points="100.8,122.4 102.4,121.5 102.5,128.2 96.6,131.6 96.6,129.7 96.6,124.9 					"/>
					<g>
						<polygon class="st20" points="103.5,120.9 102.4,121.5 102.4,128.2 103.5,128.8 						"/>
					</g>
					<g>
						<polygon class="st21" points="103.5,128.8 102.5,128.2 96.6,131.6 96.6,132.8 						"/>
					</g>
				</g>
			</g>
			<g>
				<g class="st9">
					<polygon class="st22" points="91.9,127.6 93.5,126.6 93.5,133.3 87.7,136.7 87.7,134.9 87.6,130 					"/>
					<g>
						<polygon class="st20" points="94.5,126 93.5,126.6 93.5,133.3 94.5,134 						"/>
					</g>
					<g>
						<polygon class="st21" points="94.5,134 93.5,133.3 87.7,136.7 87.7,137.9 						"/>
					</g>
				</g>
			</g>
			<g>
				<g class="st9">
					<polygon class="st22" points="82.9,132.7 84.5,131.8 84.5,138.5 78.7,141.8 78.7,140 78.7,135.1 					"/>
					<g>
						<polygon class="st20" points="85.6,131.1 84.5,131.8 84.5,138.5 85.6,139.1 						"/>
					</g>
					<g>
						<polygon class="st21" points="85.6,139.1 84.5,138.5 78.7,141.8 78.7,143 						"/>
					</g>
				</g>
			</g>
			<g>
				<g class="st9">
					<polygon class="st22" points="100.8,135 102.4,134.1 102.5,140.8 96.6,144.1 96.6,142.3 96.6,137.4 					"/>
					<g>
						<polygon class="st20" points="103.5,133.5 102.4,134.1 102.4,140.8 103.5,141.4 						"/>
					</g>
					<g>
						<polygon class="st21" points="103.5,141.4 102.5,140.8 96.6,144.1 96.6,145.4 						"/>
					</g>
				</g>
			</g>
			<g>
				<g class="st9">
					<polygon class="st22" points="91.9,140.1 93.5,139.2 93.5,145.9 87.7,149.3 87.7,147.5 87.6,142.6 					"/>
					<g>
						<polygon class="st20" points="94.5,138.6 93.5,139.2 93.5,145.9 94.5,146.5 						"/>
					</g>
					<g>
						<polygon class="st21" points="94.5,146.5 93.5,145.9 87.7,149.3 87.7,150.5 						"/>
					</g>
				</g>
			</g>
			<g>
				<g class="st9">
					<polygon class="st22" points="82.9,145.3 84.5,144.3 84.5,151 78.7,154.4 78.7,152.6 78.7,147.7 					"/>
					<g>
						<polygon class="st20" points="85.6,143.7 84.5,144.3 84.5,151 85.6,151.6 						"/>
					</g>
					<g>
						<polygon class="st21" points="85.6,151.6 84.5,151 78.7,154.4 78.7,155.6 						"/>
					</g>
				</g>
			</g>
			<g>
				<g class="st9">
					<polygon class="st22" points="100.8,147.6 102.4,146.7 102.5,153.4 96.6,156.7 96.6,154.9 96.6,150 					"/>
					<g>
						<polygon class="st20" points="103.5,146 102.4,146.7 102.4,153.4 103.5,154 						"/>
					</g>
					<g>
						<polygon class="st21" points="103.5,154 102.5,153.4 96.6,156.7 96.6,157.9 						"/>
					</g>
				</g>
			</g>
			<g>
				<g class="st9">
					<polygon class="st22" points="91.9,152.7 93.5,151.8 93.5,158.5 87.7,161.9 87.7,160 87.6,155.2 					"/>
					<g>
						<polygon class="st20" points="94.5,151.2 93.5,151.8 93.5,158.5 94.5,159.1 						"/>
					</g>
					<g>
						<polygon class="st21" points="94.5,159.1 93.5,158.5 87.7,161.9 87.7,163.1 						"/>
					</g>
				</g>
			</g>
			<g>
				<g class="st9">
					<polygon class="st22" points="82.9,157.8 84.5,156.9 84.5,163.6 78.7,167 78.7,165.1 78.7,160.3 					"/>
					<g>
						<polygon class="st20" points="85.6,156.3 84.5,156.9 84.5,163.6 85.6,164.2 						"/>
					</g>
					<g>
						<polygon class="st21" points="85.6,164.2 84.5,163.6 78.7,167 78.7,168.2 						"/>
					</g>
				</g>
			</g>
			<g>
				<g class="st9">
					<polygon class="st22" points="100.8,160.2 102.4,159.2 102.5,165.9 96.6,169.3 96.6,167.5 96.6,162.6 					"/>
					<g>
						<polygon class="st20" points="103.5,158.6 102.4,159.2 102.4,165.9 103.5,166.5 						"/>
					</g>
					<g>
						<polygon class="st21" points="103.5,166.5 102.5,165.9 96.6,169.3 96.6,170.5 						"/>
					</g>
				</g>
			</g>
			<g>
				<g class="st9">
					<polygon class="st22" points="91.9,165.3 93.5,164.4 93.5,171.1 87.7,174.4 87.7,172.6 87.6,167.7 					"/>
					<g>
						<polygon class="st20" points="94.5,163.8 93.5,164.4 93.5,171.1 94.5,171.7 						"/>
					</g>
					<g>
						<polygon class="st21" points="94.5,171.7 93.5,171.1 87.7,174.4 87.7,175.7 						"/>
					</g>
				</g>
			</g>
			<g>
				<g class="st9">
					<polygon class="st22" points="82.9,170.4 84.5,169.5 84.5,176.2 78.7,179.5 78.7,177.7 78.7,172.8 					"/>
					<g>
						<polygon class="st20" points="85.6,168.9 84.5,169.5 84.5,176.2 85.6,176.8 						"/>
					</g>
					<g>
						<polygon class="st21" points="85.6,176.8 84.5,176.2 78.7,179.5 78.7,180.8 						"/>
					</g>
				</g>
			</g>
		</g>
		<g class="st9">
			<g>
				<polygon class="st45" points="95.4,67.4 95.6,87.9 75.8,99.1 75.6,78.6 				"/>
			</g>
			<g>
				<polygon class="st16" points="75.8,99.1 55.4,87.5 55.2,67 75.6,78.6 				"/>
			</g>
			<g>
				<polygon class="st19" points="75.6,78.6 55.2,67 75,55.8 95.4,67.4 				"/>
			</g>
			<g>
				<g>
					<g class="st9">
						<polygon class="st22" points="59.1,81.6 58,81 58,85.4 61.8,87.5 61.8,86.4 61.8,83.2 						"/>
						<g>
							<polygon class="st20" points="57.4,80.6 58,81 58,85.4 57.4,85.8 							"/>
						</g>
						<g>
							<polygon class="st21" points="57.3,85.8 58,85.4 61.8,87.5 61.8,88.3 							"/>
						</g>
					</g>
				</g>
				<g>
					<g class="st9">
						<polygon class="st22" points="64.9,85 63.8,84.4 63.8,88.7 67.6,90.9 67.6,89.7 67.6,86.5 						"/>
						<g>
							<polygon class="st20" points="63.1,84 63.8,84.4 63.8,88.7 63.1,89.1 							"/>
						</g>
						<g>
							<polygon class="st21" points="63.1,89.1 63.8,88.7 67.6,90.9 67.6,91.6 							"/>
						</g>
					</g>
				</g>
				<g>
					<g class="st9">
						<polygon class="st22" points="70.6,88.3 69.6,87.7 69.6,92 73.4,94.2 73.4,93 73.4,89.8 						"/>
						<g>
							<polygon class="st20" points="68.9,87.3 69.6,87.7 69.6,92 68.9,92.4 							"/>
						</g>
						<g>
							<polygon class="st21" points="68.9,92.4 69.6,92 73.4,94.2 73.4,94.9 							"/>
						</g>
					</g>
				</g>
			</g>
			<g>
				<g class="st9">
					<polygon class="st22" points="92,81.6 93,81 93.1,85.4 89.3,87.5 89.3,86.4 89.3,83.2 					"/>
					<g>
						<polygon class="st20" points="93.7,80.6 93,81 93.1,85.4 93.7,85.8 						"/>
					</g>
					<g>
						<polygon class="st21" points="93.7,85.8 93.1,85.4 89.3,87.5 89.3,88.3 						"/>
					</g>
				</g>
			</g>
			<g>
				<g class="st9">
					<polygon class="st22" points="86.2,85 87.3,84.4 87.3,88.7 83.5,90.9 83.5,89.7 83.5,86.5 					"/>
					<g>
						<polygon class="st20" points="87.9,84 87.3,84.4 87.3,88.7 87.9,89.1 						"/>
					</g>
					<g>
						<polygon class="st21" points="87.9,89.1 87.3,88.7 83.5,90.9 83.5,91.6 						"/>
					</g>
				</g>
			</g>
			<g>
				<g class="st9">
					<polygon class="st22" points="80.4,88.3 81.5,87.7 81.5,92 77.7,94.2 77.7,93 77.7,89.8 					"/>
					<g>
						<polygon class="st20" points="82.1,87.3 81.5,87.7 81.5,92 82.2,92.4 						"/>
					</g>
					<g>
						<polygon class="st21" points="82.2,92.4 81.5,92 77.7,94.2 77.7,94.9 						"/>
					</g>
				</g>
			</g>
			<g>
				<g>
					<g class="st9">
						<polygon class="st22" points="59.1,73.8 58,73.2 58,77.5 61.8,79.7 61.8,78.5 61.8,75.4 						"/>
						<g>
							<polygon class="st20" points="57.4,72.8 58,73.2 58,77.5 57.4,77.9 							"/>
						</g>
						<g>
							<polygon class="st21" points="57.3,77.9 58,77.5 61.8,79.7 61.8,80.5 							"/>
						</g>
					</g>
				</g>
				<g>
					<g class="st9">
						<polygon class="st22" points="64.9,77.1 63.8,76.5 63.8,80.9 67.6,83 67.6,81.8 67.6,78.7 						"/>
						<g>
							<polygon class="st20" points="63.1,76.1 63.8,76.5 63.8,80.9 63.1,81.3 							"/>
						</g>
						<g>
							<polygon class="st21" points="63.1,81.3 63.8,80.9 67.6,83 67.6,83.8 							"/>
						</g>
					</g>
				</g>
				<g>
					<g class="st9">
						<polygon class="st22" points="70.6,80.4 69.6,79.8 69.6,84.2 73.4,86.3 73.4,85.1 73.4,82 						"/>
						<g>
							<polygon class="st20" points="68.9,79.4 69.6,79.8 69.6,84.2 68.9,84.6 							"/>
						</g>
						<g>
							<polygon class="st21" points="68.9,84.6 69.6,84.2 73.4,86.3 73.4,87.1 							"/>
						</g>
					</g>
				</g>
			</g>
			<g>
				<g class="st9">
					<polygon class="st22" points="92,73.8 93,73.2 93.1,77.5 89.3,79.7 89.3,78.5 89.3,75.4 					"/>
					<g>
						<polygon class="st20" points="93.7,72.8 93,73.2 93.1,77.5 93.7,77.9 						"/>
					</g>
					<g>
						<polygon class="st21" points="93.7,77.9 93.1,77.5 89.3,79.7 89.3,80.5 						"/>
					</g>
				</g>
			</g>
			<g>
				<g class="st9">
					<polygon class="st22" points="86.2,77.1 87.3,76.5 87.3,80.9 83.5,83 83.5,81.8 83.5,78.7 					"/>
					<g>
						<polygon class="st20" points="87.9,76.1 87.3,76.5 87.3,80.9 87.9,81.3 						"/>
					</g>
					<g>
						<polygon class="st21" points="87.9,81.3 87.3,80.9 83.5,83 83.5,83.8 						"/>
					</g>
				</g>
			</g>
			<g>
				<g class="st9">
					<polygon class="st22" points="80.4,80.4 81.5,79.8 81.5,84.2 77.7,86.3 77.7,85.1 77.7,82 					"/>
					<g>
						<polygon class="st20" points="82.1,79.4 81.5,79.8 81.5,84.2 82.2,84.6 						"/>
					</g>
					<g>
						<polygon class="st21" points="82.2,84.6 81.5,84.2 77.7,86.3 77.7,87.1 						"/>
					</g>
				</g>
			</g>
		</g>
	</g>
	<g>
		<g>
			<path class="st1" d="M200.3,122.5l56.8,32.6c0.5,0.3,1.3,0.3,1.8,0l27.9-16.3c0.5-0.3,0.5-0.7,0-1L230,105.1
				c-0.5-0.3-1.3-0.3-1.8,0l-27.9,16.3C199.9,121.7,199.9,122.2,200.3,122.5z"/>
		</g>
		<g>
			<g>
				<g class="st9">
					<path class="st33" d="M224.7,110.6c0,0.2-0.1,0.3-0.3,0.5c-0.5,0.3-1.2,0.3-1.6,0c-0.2-0.1-0.3-0.3-0.3-0.5l0,6.5
						c0,0.2,0.1,0.3,0.3,0.5c0.4,0.3,1.2,0.3,1.6,0c0.2-0.1,0.3-0.3,0.3-0.5L224.7,110.6z"/>
					<g>
						<path class="st34" d="M224.3,111.1c-0.5,0.3-1.2,0.3-1.6,0c-0.4-0.3-0.4-0.7,0-0.9c0.4-0.3,1.2-0.3,1.6,0
							C224.8,110.4,224.8,110.9,224.3,111.1z"/>
					</g>
				</g>
			</g>
			<path class="st35" d="M232.3,104.7c0-1.3-0.7-2.4-1.8-3c0,0,0,0,0,0c0.2-0.3,0.3-0.7,0.3-1.2c0-1.3-1-2.4-2.3-2.6c0,0,0,0,0,0
				c0-1.9-1.5-3.4-3.4-3.4c-1.2,0-2.3,0.7-2.9,1.7c-0.5-0.6-1.2-0.9-2-0.9c-1.5,0-2.6,1.2-2.6,2.6c0,0.3,0.1,0.6,0.2,0.9
				c-1.8,0.4-3.1,1.9-3.1,3.8c0,1.3,0.7,2.5,1.7,3.2c-0.1,0.2-0.1,0.4-0.1,0.7c0,1.2,0.9,2.3,2,2.6c0.4,1.4,1.7,2.4,3.2,2.4
				c0.5,0,1-0.1,1.5-0.3c0.4,0.2,0.9,0.3,1.5,0.3c1.2,0,2.2-0.6,2.8-1.5c0,0,0.1-0.1,0.1-0.1c0.2,0,0.4,0.1,0.6,0.1
				c1.3,0,2.4-1,2.6-2.3C231.6,107.1,232.3,106,232.3,104.7z"/>
		</g>
		<g>
			<g>
				<g class="st9">
					<path class="st33" d="M213.2,115c0,0.2-0.1,0.3-0.3,0.5c-0.5,0.3-1.2,0.3-1.6,0c-0.2-0.1-0.3-0.3-0.3-0.5l0,6.5
						c0,0.2,0.1,0.3,0.3,0.5c0.4,0.3,1.2,0.3,1.6,0c0.2-0.1,0.3-0.3,0.3-0.5L213.2,115z"/>
					<g>
						<path class="st34" d="M212.9,115.5c-0.5,0.3-1.2,0.3-1.6,0c-0.4-0.3-0.4-0.7,0-0.9c0.4-0.3,1.2-0.3,1.6,0
							S213.3,115.2,212.9,115.5z"/>
					</g>
				</g>
			</g>
			<path class="st28" d="M220.8,109.1c0-1.3-0.7-2.4-1.8-3c0,0,0,0,0,0c0.2-0.3,0.3-0.7,0.3-1.2c0-1.3-1-2.4-2.3-2.6c0,0,0,0,0,0
				c0-1.9-1.5-3.4-3.4-3.4c-1.2,0-2.3,0.7-2.9,1.7c-0.5-0.6-1.2-0.9-2-0.9c-1.5,0-2.6,1.2-2.6,2.6c0,0.3,0.1,0.6,0.2,0.9
				c-1.8,0.3-3.1,1.9-3.1,3.8c0,1.3,0.7,2.5,1.7,3.2c-0.1,0.2-0.1,0.4-0.1,0.7c0,1.2,0.9,2.3,2,2.6c0.4,1.4,1.7,2.4,3.2,2.4
				c0.5,0,1-0.1,1.5-0.3c0.4,0.2,0.9,0.3,1.5,0.3c1.2,0,2.2-0.6,2.8-1.5c0,0,0.1-0.1,0.1-0.1c0.2,0,0.4,0.1,0.6,0.1
				c1.3,0,2.4-1,2.6-2.3C220.2,111.4,220.8,110.3,220.8,109.1z"/>
		</g>
		<g>
			<path class="st17" d="M251.2,111.8l-12.7,7.4l0,15.6c0,0,12.6-7.3,12.6-7.3L251.2,111.8z"/>
			<g>
				<polygon class="st18" points="251.2,111.8 231.2,101.8 218.5,108.8 218.5,123.1 238.5,134.9 238.6,119.2 238.6,119.3 				"/>
			</g>
			<g>
				<g>
					<g class="st9">
						<g>
							<polyline class="st1" points="220.9,123.6 220.4,123.3 220.4,114.7 225.1,117.4 225.1,126 224.6,125.8 							"/>
						</g>
						<g>
							<polygon class="st41" points="225.1,117.4 225.4,117.2 225.4,125.9 225.1,126 							"/>
						</g>
					</g>
				</g>
				<polygon class="st41" points="220.9,115.6 220.9,123.6 221.3,123.4 221.3,115.8 				"/>
				<g>
					<g class="st9">
						<g>
							<polygon class="st22" points="224.6,117.8 224.6,125.5 221.2,123.5 221.2,115.8 							"/>
						</g>
					</g>
				</g>
			</g>
			<g>
				<g class="st9">
					<g>
						<polygon class="st33" points="229.3,104.7 242.4,97.3 251.4,111.9 238.6,119.4 						"/>
					</g>
				</g>
			</g>
			<polygon class="st37" points="229.3,104.7 242.4,97.3 231.2,101.8 218.1,108.9 			"/>
			<g>
				<path class="st42" d="M224.6,121c0,0.2-0.2,0.3-0.5,0.2c-0.2-0.1-0.5-0.5-0.5-0.7"/>
			</g>
			<g>
				<path class="st42" d="M222.8,119.9c0,0.2-0.2,0.3-0.5,0.2c-0.2-0.1-0.5-0.5-0.5-0.7"/>
			</g>
			<g>
				<path class="st42" d="M221,118.9c0,0.2-0.2,0.3-0.5,0.2c-0.2-0.1-0.5-0.5-0.5-0.7"/>
			</g>
			<g>
				<path class="st42" d="M219.1,117.8c0,0.2-0.2,0.3-0.5,0.2c-0.2-0.1-0.5-0.5-0.5-0.7"/>
			</g>
			<g>
				<path class="st42" d="M217.3,116.7c0,0.2-0.2,0.3-0.5,0.2c-0.2-0.1-0.5-0.5-0.5-0.7"/>
			</g>
			<g>
				<path class="st43" d="M223.7,120.5c0,0.2-0.2,0.3-0.5,0.2c-0.2-0.1-0.5-0.5-0.5-0.7"/>
			</g>
			<g>
				<path class="st43" d="M221.9,119.4c0,0.2-0.2,0.3-0.5,0.2c-0.2-0.1-0.5-0.5-0.5-0.7"/>
			</g>
			<g>
				<path class="st43" d="M220.1,118.3c0,0.2-0.2,0.3-0.5,0.2c-0.2-0.1-0.5-0.5-0.5-0.7"/>
			</g>
			<g>
				<path class="st43" d="M218.2,117.3c0,0.2-0.2,0.3-0.5,0.2c-0.2-0.1-0.5-0.5-0.5-0.7"/>
			</g>
			<g>
				<g class="st9">
					<polygon class="st22" points="247.7,118.6 249.2,117.7 249.3,124 240,129.4 240,127.7 240,123.1 					"/>
					<g>
						<polygon class="st20" points="250.2,117.1 249.2,117.7 249.3,124 250.2,124.6 						"/>
					</g>
					<g>
						<polygon class="st21" points="250.3,124.6 249.3,124 240,129.4 240,130.6 						"/>
					</g>
				</g>
			</g>
			<g>
				<g class="st9">
					<polygon class="st22" points="229.3,119.1 227.7,118.2 227.7,124.5 237,129.9 237,128.2 237,123.6 					"/>
					<g>
						<polygon class="st20" points="226.8,117.6 227.7,118.2 227.7,124.5 226.7,125.1 						"/>
					</g>
					<g>
						<polygon class="st21" points="226.7,125.1 227.7,124.5 237,129.9 237,131 						"/>
					</g>
				</g>
			</g>
			<g>
				<g class="st9">
					<polygon class="st22" points="227.3,109.7 226.3,109.1 226.3,113.3 230.5,115.8 230.5,114.6 230.5,111.6 					"/>
					<g>
						<polygon class="st20" points="225.7,108.8 226.3,109.1 226.3,113.3 225.7,113.7 						"/>
					</g>
					<g>
						<polygon class="st21" points="225.7,113.7 226.3,113.3 230.5,115.8 230.5,116.5 						"/>
					</g>
				</g>
			</g>
			<g>
				<g>
					<polygon class="st19" points="228.1,117.6 224.6,121 216.4,116.2 219.9,112.9 					"/>
					<polygon class="st44" points="223.7,120.5 227.2,117.1 226.3,116.6 222.9,120 					"/>
					<polyline class="st1" points="227.2,117.1 226.3,116.6 222.8,119.9 223.7,120.5 					"/>
					<polygon class="st1" points="225.4,116 224.4,115.5 221,118.9 221.9,119.4 					"/>
					<polyline class="st1" points="223.5,115 222.6,114.4 219.1,117.8 220.1,118.3 					"/>
					<polygon class="st1" points="221.7,113.9 220.8,113.4 217.3,116.7 218.2,117.3 					"/>
				</g>
			</g>
		</g>
		<g>
			<polygon class="st45" points="278.7,116.8 261.5,126.8 261.5,148.1 278.6,138.1 			"/>
			<g>
				<polygon class="st16" points="278.7,116.8 254.5,103.1 234.4,112.6 234.3,132.2 261.5,148.1 261.5,126.8 261.6,126.9 				"/>
			</g>
			<g>
				<g class="st9">
					<g>
						<polygon class="st39" points="249,111.5 266.7,101.6 279,116.8 261.5,127 						"/>
					</g>
				</g>
			</g>
			<polygon class="st38" points="249,111.5 266.7,101.6 251.5,103.2 233.8,112.8 			"/>
			<g>
				<g>
					<g>
						<polygon class="st21" points="245.4,120.7 244.9,121 248.6,123.2 248.6,122.6 						"/>
						<polygon class="st22" points="245.4,117 245.4,120.7 248.6,122.6 248.7,118.9 						"/>
					</g>
					<polygon class="st20" points="245.4,120.7 245.4,117 244.9,116.7 244.9,121 					"/>
				</g>
				<polygon class="st29" points="248.6,123.2 244.9,121 244.9,116.7 248.7,118.9 				"/>
			</g>
			<g>
				<g>
					<g class="st9">
						<g>
							<polyline class="st1" points="238.2,134.9 237.6,134.6 237.6,124 243.3,127.3 243.3,137.9 242.7,137.5 							"/>
						</g>
						<g>
							<polygon class="st41" points="243.3,127.3 243.7,127.1 243.7,137.6 243.3,137.9 							"/>
						</g>
					</g>
				</g>
				<polygon class="st41" points="238.2,125.1 238.2,134.9 238.7,134.7 238.7,125.4 				"/>
				<g>
					<g class="st9">
						<g>
							<polygon class="st46" points="242.8,127.8 242.7,137.2 238.6,134.8 238.6,125.3 							"/>
						</g>
					</g>
				</g>
			</g>
			<g>
				<g>
					<polygon class="st47" points="247,127.6 242.8,131.7 232.7,125.9 236.9,121.8 					"/>
					<polygon class="st44" points="241.6,131.1 245.9,127 244.8,126.4 240.6,130.5 					"/>
					<polyline class="st1" points="245.9,127 244.8,126.3 240.5,130.4 241.6,131.1 					"/>
					<polygon class="st1" points="243.6,125.7 242.5,125 238.3,129.1 239.4,129.8 					"/>
					<polyline class="st1" points="241.4,124.4 240.3,123.7 236.1,127.8 237.2,128.5 					"/>
					<polygon class="st1" points="239.2,123.1 238,122.4 233.8,126.5 234.9,127.2 					"/>
				</g>
			</g>
			<g>
				<g>
					<g>
						<polygon class="st21" points="250,137.8 249.5,138 257,142.4 257,141.9 						"/>
						<polygon class="st22" points="250,129.3 250,137.8 257,141.9 257.1,133.3 						"/>
					</g>
					<polygon class="st20" points="250,137.8 250,129.3 249.6,129 249.5,138 					"/>
				</g>
				<polygon class="st29" points="257,142.4 249.5,138 249.6,129 257.1,133.3 				"/>
			</g>
			<g>
				<g>
					<g>
						<polygon class="st21" points="273.8,136 274.3,136.2 266.8,140.6 266.8,140.1 						"/>
						<polygon class="st22" points="273.8,127.5 273.8,136 266.8,140.1 266.8,131.5 						"/>
					</g>
					<polygon class="st20" points="273.8,136 273.8,127.5 274.3,127.2 274.3,136.2 					"/>
				</g>
				<polygon class="st29" points="266.8,140.6 274.3,136.2 274.3,127.2 266.8,131.5 				"/>
			</g>
		</g>
	</g>
	<g id="XMLID_1_">
		<g id="XMLID_54_">
			<g id="XMLID_55_" class="st9">
				<g id="XMLID_61_">
					<path id="XMLID_62_" class="st32" d="M193.7,159.8c0.2,0.2,0.4,0.3,0.7,0.5l8.6,5c0.9,0.5,2.1,0.8,3.4,0.8
						c1.3,0,2.5-0.3,3.4-0.8l27.7-16.2c0,0,0,0,0,0c-0.1-0.3-0.4-0.6-0.7-0.8c-0.1-0.1-0.2-0.1-0.3-0.2l-8.6-5
						c-1.6-0.9-4.2-0.9-5.9,0l-27.5,16l-0.3,0.2C194.1,159.4,193.9,159.6,193.7,159.8z"/>
				</g>
				<g id="XMLID_57_">
					<path id="XMLID_58_" class="st34" d="M193.3,160.1c-0.6-0.8-0.3-1.7,0.7-2.3l29.5-17.2c0.7-0.4,1.6-0.6,2.6-0.6
						c1,0,1.9,0.2,2.6,0.6l9.1,5.3c1.3,0.7,1.4,1.9,0.4,2.7c-0.1,0.1-0.2,0.2-0.4,0.2l-29.5,17.2c-0.7,0.4-1.6,0.6-2.6,0.6
						c-1,0-1.9-0.2-2.6-0.6l-9.1-5.3C193.7,160.6,193.5,160.4,193.3,160.1z"/>
				</g>
				<path id="XMLID_56_" class="st37" d="M193.3,160.1c0,0.7,0.1-0.4,1,0.1l8.6,5c0.9,0.5,2.1,0.8,3.4,0.8c1.3,0,2.5-0.3,3.4-0.8
					l27.7-16.2c0.9-0.5,1.4-1.3,1.4-2l-0.1,13.4c0,0.7-0.5,1.4-1.4,2l-31.1,18.1c-0.9,0.5-2.1,0.8-3.4,0.8c-1.3,0-2.5-0.3-3.4-0.8
					l-8.6-5c-0.9-0.5-1.4-1.3-1.4-2L193.3,160.1z"/>
			</g>
		</g>
		<g id="XMLID_47_">
			<g id="XMLID_52_">
				<path id="XMLID_53_" class="st48" d="M210.7,175.5l0.3,0.2l1.9,1.1c0.1-0.2,0.1-0.4,0.1-0.6c0-1-0.6-1.4-1.3-1.2c0,0,0,0-0.1,0
					c-0.1,0-0.3,0.1-0.4,0.2c0,0-0.1,0-0.1,0.1C210.9,175.3,210.8,175.4,210.7,175.5z"/>
			</g>
			<g id="XMLID_48_" class="st9">
				<path id="XMLID_51_" class="st49" d="M209.4,178.2c0,0.3,0,0.5,0.1,0.7l0.6,0.3c-0.3-0.2-0.5-0.5-0.5-1c0-0.9,0.6-2,1.3-2.6
					c0.1-0.1,0.2-0.1,0.3-0.2c0.5-0.3,0.9-0.3,1.2-0.1l-0.7-0.4c0,0,0,0-0.1,0c-0.1,0-0.3,0.1-0.4,0.2c0,0-0.1,0-0.1,0.1
					c-0.1,0.1-0.2,0.2-0.4,0.3c-0.1,0-0.1,0.1-0.2,0.2c-0.6,0.6-1.1,1.6-1.1,2.4C209.4,178.1,209.4,178.2,209.4,178.2z"/>
				<g id="XMLID_49_">
					<path id="XMLID_50_" class="st50" d="M211.3,175.5c-0.9,0.5-1.6,1.8-1.6,2.8c0,1,0.7,1.4,1.6,0.9c0.9-0.5,1.6-1.8,1.6-2.8
						C212.9,175.4,212.1,175,211.3,175.5z"/>
				</g>
			</g>
		</g>
		<g id="XMLID_40_">
			<g id="XMLID_45_">
				<path id="XMLID_46_" class="st48" d="M230.8,163.9l0.3,0.2l1.9,1.1c0.1-0.2,0.1-0.4,0.1-0.6c0-1-0.6-1.4-1.3-1.2c0,0,0,0-0.1,0
					c-0.1,0-0.3,0.1-0.4,0.2c0,0-0.1,0-0.1,0.1C231,163.7,230.9,163.8,230.8,163.9z"/>
			</g>
			<g id="XMLID_41_" class="st9">
				<path id="XMLID_44_" class="st49" d="M229.5,166.6c0,0.3,0,0.5,0.1,0.7l0.6,0.3c-0.3-0.2-0.5-0.5-0.5-1c0-0.9,0.6-2,1.3-2.6
					c0.1-0.1,0.2-0.1,0.3-0.2c0.5-0.3,0.9-0.3,1.2-0.1l-0.7-0.4c0,0,0,0-0.1,0c-0.1,0-0.3,0.1-0.4,0.2c0,0-0.1,0-0.1,0.1
					c-0.1,0.1-0.2,0.2-0.4,0.3c-0.1,0-0.1,0.1-0.2,0.2c-0.6,0.6-1.1,1.6-1.1,2.4C229.5,166.5,229.5,166.6,229.5,166.6z"/>
				<g id="XMLID_42_">
					<path id="XMLID_43_" class="st50" d="M231.4,163.9c-0.9,0.5-1.6,1.8-1.6,2.8c0,1,0.7,1.4,1.6,0.9c0.9-0.5,1.6-1.8,1.6-2.8
						C233,163.8,232.2,163.3,231.4,163.9z"/>
				</g>
			</g>
		</g>
		<path id="XMLID_39_" class="st33" d="M202.8,181.4c-1.3,0-2.5-0.3-3.4-0.8l-8.6-5c-0.9-0.5-1.6-1.3-1.4-2l3.1-13.5l0.7-1.5
			c-0.3,0.6-0.2,1,1,1.6l8.6,5c0.9,0.5,2.2,0.9,3.5,0.9"/>
		<g id="XMLID_2_">
			<g id="XMLID_6_">
				<path id="XMLID_38_" class="st28" d="M232.4,158.6l5.5-3.2c0.3-0.2,0.5-0.6,0.5-1v-2.1c0-0.4-0.2-0.6-0.5-0.4l-5.5,3.2
					c-0.3,0.2-0.5,0.6-0.5,1v2.1C231.9,158.6,232.1,158.7,232.4,158.6z"/>
				<path id="XMLID_37_" class="st28" d="M225,162.9l5.5-3.2c0.3-0.2,0.5-0.6,0.5-0.9v-2.3c0-0.3-0.2-0.5-0.5-0.3l-5.5,3.2
					c-0.3,0.2-0.5,0.6-0.5,0.9v2.3C224.4,162.9,224.7,163,225,162.9z"/>
				<path id="XMLID_36_" class="st28" d="M217.5,167.2l5.5-3.2c0.3-0.2,0.5-0.6,0.5-0.9v-2.3c0-0.3-0.2-0.5-0.5-0.3l-5.5,3.2
					c-0.3,0.2-0.5,0.6-0.5,0.9v2.3C217,167.2,217.2,167.3,217.5,167.2z"/>
				<path id="XMLID_8_" class="st28" d="M210.1,171.4l5.5-3.2c0.3-0.2,0.5-0.6,0.5-0.9v-2.3c0-0.3-0.2-0.5-0.5-0.3l-5.5,3.2
					c-0.3,0.2-0.5,0.6-0.5,0.9v2.3C209.6,171.5,209.8,171.6,210.1,171.4z"/>
				<path id="XMLID_7_" class="st28" d="M206,173.8l2.2-1.2c0.3-0.2,0.5-0.6,0.5-1v-2.1c0-0.4-0.2-0.6-0.5-0.4l-1.6,1
					c-0.3,0.2-0.4,0.5-0.5,1l-0.5,2.4C205.4,173.8,205.7,174,206,173.8z"/>
			</g>
			<g id="XMLID_3_">
				<path id="XMLID_5_" class="st28" d="M201.4,176.5l-9.8-5.7c-0.3-0.2-0.5-0.6-0.5-1l1.1-5c0.1-0.4,0.4-0.4,0.7-0.3l9.6,5.5
					c0.3,0.2,0.6,0.5,0.5,1l-1.1,5C201.8,176.5,201.7,176.6,201.4,176.5z"/>
			</g>
		</g>
	</g>
</g>
</svg>
