<?xml version="1.0" ?><svg style="enable-background:new 0 0 512 512;" version="1.1" viewBox="0 0 512 512" xml:space="preserve" xmlns="http://www.w3.org/2000/svg" xmlns:xlink="http://www.w3.org/1999/xlink"><g id="_x36__x2C__Building_x2C__city_x2C__disease_x2C__protection_x2C__safety_x2C__virus"><g id="XMLID_8588_"><path d="M236,455H36V75c115.665,0,82.887,0,200,0C236,91.344,236,435.252,236,455z" id="XMLID_8987_" style="fill:#9BC9FF;"/><path d="M400.72,66.67c23.93,0,43.33,19.4,43.33,43.33c0,11.96-4.85,22.8-12.69,30.64    c-7.84,7.84-18.68,12.69-30.64,12.69c-11.96,0-22.8-4.85-30.64-12.69c-7.78-7.78-12.62-18.49-12.7-30.34c0-0.1,0-0.2,0-0.3    c0-11.96,4.85-22.8,12.7-30.64C377.92,71.52,388.76,66.67,400.72,66.67z" id="XMLID_8981_" style="fill:#FFFFFF;"/><path d="M410.72,86.67c5.52,0,10,4.47,10,10c0,5.52-4.48,10-10,10c-5.53,0-10-4.48-10-10    C400.72,91.14,405.19,86.67,410.72,86.67z" id="XMLID_298_" style="fill:#9BC9FF;"/><path d="M390.72,120c3.68,0,6.66,2.98,6.66,6.67c0,3.68-2.98,6.66-6.66,6.66    c-3.68,0-6.67-2.98-6.67-6.66C384.05,122.98,387.04,120,390.72,120z" id="XMLID_297_" style="fill:#9BC9FF;"/><path d="M400.72,30c5.52,0,10,4.48,10,10s-4.48,10-10,10c-5.53,0-10-4.48-10-10    S395.19,30,400.72,30z" id="XMLID_296_" style="fill:#FFFFFF;"/><path d="M321.02,96.67c7.53,0,13.64,6.1,13.64,13.63c0,7.53-6.11,13.64-13.64,13.64    c-7.53,0-13.64-6.11-13.64-13.64C307.38,102.77,313.49,96.67,321.02,96.67z" id="XMLID_295_" style="fill:#FFFFFF;"/><path d="M358.29,152.43c3.91,3.9,3.91,10.23,0,14.14c-3.9,3.9-10.24,3.9-14.14,0    c-3.91-3.91-3.91-10.24,0-14.14C348.05,148.52,354.39,148.52,358.29,152.43z" id="XMLID_294_" style="fill:#FFFFFF;"/><path d="M358.29,53.43c3.91,3.91,3.91,10.24,0,14.14c-3.9,3.91-10.24,3.91-14.14,0    c-3.91-3.9-3.91-10.23,0-14.14C348.05,49.53,354.39,49.53,358.29,53.43z" id="XMLID_293_" style="fill:#FFFFFF;"/><path d="M470.72,100c5.52,0,10,4.48,10,10s-4.48,10-10,10c-5.53,0-10-4.48-10-10    S465.19,100,470.72,100z" id="XMLID_292_" style="fill:#FFFFFF;"/><path d="M476.38,42.52c6.16,6.17,6.16,16.16,0,22.33c-6.17,6.16-16.16,6.16-22.33,0    c-6.16-6.17-6.16-16.16,0-22.33C460.22,36.36,470.21,36.36,476.38,42.52z" id="XMLID_291_" style="fill:#FFFFFF;"/><path d="M457.29,152.43c3.9,3.9,3.9,10.23,0,14.14c-3.91,3.9-10.24,3.9-14.15,0    c-3.9-3.91-3.9-10.24,0-14.14C447.05,148.52,453.38,148.52,457.29,152.43z" id="XMLID_290_" style="fill:#FFFFFF;"/><path d="M400.72,170c5.52,0,10,4.48,10,10s-4.48,10-10,10c-5.53,0-10-4.48-10-10    S395.19,170,400.72,170z" id="XMLID_289_" style="fill:#FFFFFF;"/><path d="M456.78,393.79c-16.2,0-29.55-12.12-31.49-27.79c-0.16-1.29-0.24-2.6-0.24-3.93    V317.18v-30.46c0-8.76,3.55-16.689,9.29-22.43c5.74-5.74,13.68-9.29,22.44-9.29c17.52,0,31.72,14.2,31.72,31.72v75.351    C488.5,379.59,474.3,393.79,456.78,393.79z" id="XMLID_288_" style="fill:#FFFFFF;"/><path d="M389.36,385.86c-13.39,0-25.37-6.03-33.36-15.53    c-6.41-7.59-10.26-17.39-10.26-28.09s3.85-20.5,10.26-28.09c7.99-9.5,19.97-15.53,33.36-15.53c14.76,0,27.8,7.34,35.69,18.56    v44.891c0,1.33,0.08,2.64,0.24,3.93l-0.24,0.03c0,0.42,0.02,0.83,0.03,1.229C417.19,378.5,404.14,385.86,389.36,385.86z" id="XMLID_287_" style="fill:#9BC9FF;"/><path d="M276,30c11.05,0,20,8.95,20,20s-8.95,20-20,20s-20-8.95-20-20S264.95,30,276,30z" id="XMLID_286_" style="fill:#FFFFFF;"/><rect height="45" id="XMLID_285_" style="fill:#FFFFFF;" width="25" x="146" y="240"/><rect height="45" id="XMLID_284_" style="fill:#FFFFFF;" width="25" x="101" y="370"/><rect height="45" id="XMLID_283_" style="fill:#FFFFFF;" width="25" x="191" y="240"/><rect height="45" id="XMLID_282_" style="fill:#FFFFFF;" width="25" x="101" y="175"/><rect height="45" id="XMLID_281_" style="fill:#FFFFFF;" width="25" x="191" y="370"/><rect height="45" id="XMLID_280_" style="fill:#FFFFFF;" width="25" x="191" y="110"/><rect height="45" id="XMLID_279_" style="fill:#FFFFFF;" width="25" x="56" y="110"/><rect height="45" id="XMLID_278_" style="fill:#FFFFFF;" width="25" x="101" y="305"/><rect height="45" id="XMLID_277_" style="fill:#FFFFFF;" width="25" x="56" y="370"/><rect height="45" id="XMLID_276_" style="fill:#FFFFFF;" width="25" x="101" y="110"/><rect height="45" id="XMLID_275_" style="fill:#FFFFFF;" width="25" x="146" y="370"/><rect height="45" id="XMLID_274_" style="fill:#FFFFFF;" width="25" x="56" y="175"/><rect height="45" id="XMLID_273_" style="fill:#FFFFFF;" width="25" x="191" y="305"/><rect height="45" id="XMLID_272_" style="fill:#FFFFFF;" width="25" x="56" y="305"/><rect height="45" id="XMLID_271_" style="fill:#FFFFFF;" width="25" x="146" y="110"/><rect height="45" id="XMLID_270_" style="fill:#FFFFFF;" width="25" x="146" y="305"/><rect height="45" id="XMLID_269_" style="fill:#FFFFFF;" width="25" x="56" y="240"/><rect height="45" id="XMLID_268_" style="fill:#FFFFFF;" width="25" x="146" y="175"/><rect height="45" id="XMLID_267_" style="fill:#FFFFFF;" width="25" x="101" y="240"/><rect height="45" id="XMLID_266_" style="fill:#FFFFFF;" width="25" x="191" y="175"/><path d="M356,370.33V485H236v-30V135l120,75v104.15c-6.41,7.59-10.26,17.39-10.26,28.09    S349.59,362.74,356,370.33z" id="XMLID_265_" style="fill:#FFFFFF;"/><rect height="30" id="XMLID_264_" style="fill:#FFFFFF;" width="200" x="36" y="455"/><rect height="30" id="XMLID_263_" style="fill:#FFFFFF;" width="155" x="56" y="45"/><circle cx="458.5" cy="212.5" id="XMLID_262_" r="7.5" style="fill:#1E81CE;"/><circle cx="436" cy="422.5" id="XMLID_261_" r="7.5" style="fill:#1E81CE;"/><circle cx="283.5" cy="107.5" id="XMLID_260_" r="7.5" style="fill:#1E81CE;"/><path d="M36,490c-2.761,0-5-2.238-5-5V75c0-2.761,2.239-5,5-5h20c2.761,0,5,2.239,5,5    s-2.239,5-5,5H41v405C41,487.762,38.761,490,36,490z" id="XMLID_259_" style="fill:#1E81CE;"/><path d="M236,490c-2.761,0-5-2.238-5-5V80h-20c-2.761,0-5-2.239-5-5s2.239-5,5-5h25    c2.761,0,5,2.239,5,5v410C241,487.762,238.761,490,236,490z" id="XMLID_258_" style="fill:#1E81CE;"/><path d="M81,160c-2.761,0-5-2.239-5-5v-40H61v40c0,2.761-2.239,5-5,5s-5-2.239-5-5v-45    c0-2.761,2.239-5,5-5h25c2.761,0,5,2.239,5,5v45C86,157.761,83.761,160,81,160z" id="XMLID_257_" style="fill:#1E81CE;"/><path d="M126,160c-2.761,0-5-2.239-5-5v-40h-15v40c0,2.761-2.239,5-5,5s-5-2.239-5-5v-45    c0-2.761,2.239-5,5-5h25c2.761,0,5,2.239,5,5v45C131,157.761,128.761,160,126,160z" id="XMLID_256_" style="fill:#1E81CE;"/><path d="M171,160c-2.761,0-5-2.239-5-5v-40h-15v40c0,2.761-2.239,5-5,5s-5-2.239-5-5v-45    c0-2.761,2.239-5,5-5h25c2.761,0,5,2.239,5,5v45C176,157.761,173.761,160,171,160z" id="XMLID_255_" style="fill:#1E81CE;"/><path d="M216,160c-2.761,0-5-2.239-5-5v-40h-15v40c0,2.761-2.239,5-5,5s-5-2.239-5-5v-45    c0-2.761,2.239-5,5-5h25c2.761,0,5,2.239,5,5v45C221,157.761,218.761,160,216,160z" id="XMLID_254_" style="fill:#1E81CE;"/><path d="M81,225c-2.761,0-5-2.239-5-5v-40H61v40c0,2.761-2.239,5-5,5s-5-2.239-5-5v-45    c0-2.761,2.239-5,5-5h25c2.761,0,5,2.239,5,5v45C86,222.761,83.761,225,81,225z" id="XMLID_253_" style="fill:#1E81CE;"/><path d="M126,225c-2.761,0-5-2.239-5-5v-40h-15v40c0,2.761-2.239,5-5,5s-5-2.239-5-5v-45    c0-2.761,2.239-5,5-5h25c2.761,0,5,2.239,5,5v45C131,222.761,128.761,225,126,225z" id="XMLID_252_" style="fill:#1E81CE;"/><path d="M171,225c-2.761,0-5-2.239-5-5v-40h-15v40c0,2.761-2.239,5-5,5s-5-2.239-5-5v-45    c0-2.761,2.239-5,5-5h25c2.761,0,5,2.239,5,5v45C176,222.761,173.761,225,171,225z" id="XMLID_251_" style="fill:#1E81CE;"/><path d="M216,225c-2.761,0-5-2.239-5-5v-40h-15v40c0,2.761-2.239,5-5,5s-5-2.239-5-5v-45    c0-2.761,2.239-5,5-5h25c2.761,0,5,2.239,5,5v45C221,222.761,218.761,225,216,225z" id="XMLID_250_" style="fill:#1E81CE;"/><path d="M81,290c-2.761,0-5-2.238-5-5v-40H61v40c0,2.762-2.239,5-5,5s-5-2.238-5-5v-45    c0-2.761,2.239-5,5-5h25c2.761,0,5,2.239,5,5v45C86,287.762,83.761,290,81,290z" id="XMLID_249_" style="fill:#1E81CE;"/><path d="M126,290c-2.761,0-5-2.238-5-5v-40h-15v40c0,2.762-2.239,5-5,5s-5-2.238-5-5v-45    c0-2.761,2.239-5,5-5h25c2.761,0,5,2.239,5,5v45C131,287.762,128.761,290,126,290z" id="XMLID_248_" style="fill:#1E81CE;"/><path d="M171,290c-2.761,0-5-2.238-5-5v-40h-15v40c0,2.762-2.239,5-5,5s-5-2.238-5-5v-45    c0-2.761,2.239-5,5-5h25c2.761,0,5,2.239,5,5v45C176,287.762,173.761,290,171,290z" id="XMLID_247_" style="fill:#1E81CE;"/><path d="M216,290c-2.761,0-5-2.238-5-5v-40h-15v40c0,2.762-2.239,5-5,5s-5-2.238-5-5v-45    c0-2.761,2.239-5,5-5h25c2.761,0,5,2.239,5,5v45C221,287.762,218.761,290,216,290z" id="XMLID_246_" style="fill:#1E81CE;"/><path d="M81,355c-2.761,0-5-2.238-5-5v-40H61v40c0,2.762-2.239,5-5,5s-5-2.238-5-5v-45    c0-2.762,2.239-5,5-5h25c2.761,0,5,2.238,5,5v45C86,352.762,83.761,355,81,355z" id="XMLID_245_" style="fill:#1E81CE;"/><path d="M126,355c-2.761,0-5-2.238-5-5v-40h-15v40c0,2.762-2.239,5-5,5s-5-2.238-5-5v-45    c0-2.762,2.239-5,5-5h25c2.761,0,5,2.238,5,5v45C131,352.762,128.761,355,126,355z" id="XMLID_244_" style="fill:#1E81CE;"/><path d="M171,355c-2.761,0-5-2.238-5-5v-40h-15v40c0,2.762-2.239,5-5,5s-5-2.238-5-5v-45    c0-2.762,2.239-5,5-5h25c2.761,0,5,2.238,5,5v45C176,352.762,173.761,355,171,355z" id="XMLID_243_" style="fill:#1E81CE;"/><path d="M216,355c-2.761,0-5-2.238-5-5v-40h-15v40c0,2.762-2.239,5-5,5s-5-2.238-5-5v-45    c0-2.762,2.239-5,5-5h25c2.761,0,5,2.238,5,5v45C221,352.762,218.761,355,216,355z" id="XMLID_242_" style="fill:#1E81CE;"/><path d="M81,420c-2.761,0-5-2.238-5-5v-40H61v40c0,2.762-2.239,5-5,5s-5-2.238-5-5v-45    c0-2.762,2.239-5,5-5h25c2.761,0,5,2.238,5,5v45C86,417.762,83.761,420,81,420z" id="XMLID_241_" style="fill:#1E81CE;"/><path d="M126,420c-2.761,0-5-2.238-5-5v-40h-15v40c0,2.762-2.239,5-5,5s-5-2.238-5-5v-45    c0-2.762,2.239-5,5-5h25c2.761,0,5,2.238,5,5v45C131,417.762,128.761,420,126,420z" id="XMLID_240_" style="fill:#1E81CE;"/><path d="M171,420c-2.761,0-5-2.238-5-5v-40h-15v40c0,2.762-2.239,5-5,5s-5-2.238-5-5v-45    c0-2.762,2.239-5,5-5h25c2.761,0,5,2.238,5,5v45C176,417.762,173.761,420,171,420z" id="XMLID_239_" style="fill:#1E81CE;"/><path d="M216,420c-2.761,0-5-2.238-5-5v-40h-15v40c0,2.762-2.239,5-5,5s-5-2.238-5-5v-45    c0-2.762,2.239-5,5-5h25c2.761,0,5,2.238,5,5v45C221,417.762,218.761,420,216,420z" id="XMLID_238_" style="fill:#1E81CE;"/><path d="M236,460H36c-2.761,0-5-2.238-5-5s2.239-5,5-5h200c2.761,0,5,2.238,5,5    S238.761,460,236,460z" id="XMLID_237_" style="fill:#1E81CE;"/><path d="M211,80H56c-2.761,0-5-2.239-5-5V45c0-2.761,2.239-5,5-5h155c2.761,0,5,2.239,5,5    v30C216,77.761,213.761,80,211,80z M61,70h145V50H61V70z" id="XMLID_8787_" style="fill:#1E81CE;"/><path d="M216,160H56c-2.761,0-5-2.239-5-5s2.239-5,5-5h160c2.761,0,5,2.239,5,5    S218.761,160,216,160z" id="XMLID_234_" style="fill:#1E81CE;"/><path d="M216,225H56c-2.761,0-5-2.239-5-5s2.239-5,5-5h160c2.761,0,5,2.239,5,5    S218.761,225,216,225z" id="XMLID_233_" style="fill:#1E81CE;"/><path d="M216,290H56c-2.761,0-5-2.238-5-5s2.239-5,5-5h160c2.761,0,5,2.238,5,5    S218.761,290,216,290z" id="XMLID_232_" style="fill:#1E81CE;"/><path d="M216,355H56c-2.761,0-5-2.238-5-5s2.239-5,5-5h160c2.761,0,5,2.238,5,5    S218.761,355,216,355z" id="XMLID_231_" style="fill:#1E81CE;"/><path d="M216,420H56c-2.761,0-5-2.238-5-5s2.239-5,5-5h160c2.761,0,5,2.238,5,5    S218.761,420,216,420z" id="XMLID_230_" style="fill:#1E81CE;"/><path d="M456.78,398.79c-18.51,0-34.181-13.833-36.452-32.176    c-0.185-1.485-0.278-3.015-0.278-4.544V286.72c0-9.809,3.819-19.029,10.754-25.965c6.935-6.936,16.16-10.755,25.976-10.755    c20.248,0,36.72,16.473,36.72,36.72v75.351C493.5,382.317,477.027,398.79,456.78,398.79z M456.78,260    c-7.144,0-13.858,2.779-18.904,7.825c-5.046,5.047-7.826,11.757-7.826,18.895v75.351c0,1.118,0.068,2.233,0.202,3.313    c1.652,13.345,13.057,23.406,26.528,23.406c14.733,0,26.72-11.986,26.72-26.72V286.72C483.5,271.986,471.513,260,456.78,260z" id="XMLID_8764_" style="fill:#1E81CE;"/><path d="M400.72,158.33c-12.911,0-25.048-5.027-34.176-14.154    c-9.048-9.048-14.078-21.066-14.164-33.842V110c0-12.915,5.031-25.054,14.167-34.178c9.125-9.126,21.262-14.152,34.173-14.152    c26.649,0,48.33,21.681,48.33,48.33c0,12.911-5.027,25.048-14.154,34.176C425.768,153.303,413.631,158.33,400.72,158.33z     M400.72,71.67c-10.24,0-19.866,3.987-27.105,11.226C366.369,90.133,362.38,99.758,362.38,110v0.3    c0.068,10.096,4.059,19.628,11.236,26.805c7.239,7.239,16.865,11.226,27.105,11.226c10.239,0,19.865-3.987,27.104-11.226    S439.05,120.24,439.05,110C439.05,88.865,421.855,71.67,400.72,71.67z" id="XMLID_8756_" style="fill:#1E81CE;"/><path d="M400.72,55c-8.271,0-15-6.729-15-15s6.729-15,15-15c8.271,0,15,6.729,15,15    S408.991,55,400.72,55z M400.72,35c-2.757,0-5,2.243-5,5s2.243,5,5,5c2.757,0,5-2.243,5-5S403.477,35,400.72,35z" id="XMLID_8748_" style="fill:#1E81CE;"/><path d="M400.72,195c-8.271,0-15-6.729-15-15s6.729-15,15-15c8.271,0,15,6.729,15,15    S408.991,195,400.72,195z M400.72,175c-2.757,0-5,2.243-5,5s2.243,5,5,5c2.757,0,5-2.243,5-5S403.477,175,400.72,175z" id="XMLID_8740_" style="fill:#1E81CE;"/><path d="M400.72,175c-2.761,0-5-2.239-5-5v-16.67c0-2.761,2.239-5,5-5s5,2.239,5,5V170    C405.72,172.761,403.481,175,400.72,175z" id="XMLID_221_" style="fill:#1E81CE;"/><path d="M400.72,71.67c-2.761,0-5-2.239-5-5V50c0-2.761,2.239-5,5-5s5,2.239,5,5v16.67    C405.72,69.431,403.481,71.67,400.72,71.67z" id="XMLID_220_" style="fill:#1E81CE;"/><path d="M465.215,74.47c-5.549,0-10.769-2.16-14.697-6.081    c-8.097-8.11-8.097-21.297-0.006-29.401c3.934-3.928,9.154-6.087,14.704-6.087c5.55,0,10.77,2.16,14.698,6.082    c8.097,8.11,8.097,21.297,0.005,29.401C475.984,72.31,470.765,74.47,465.215,74.47z M465.215,42.9    c-2.881,0-5.592,1.122-7.632,3.159c-4.196,4.203-4.196,11.05,0.006,15.259c2.034,2.031,4.745,3.152,7.626,3.152    c2.882,0,5.592-1.122,7.632-3.158c4.196-4.203,4.196-11.05-0.006-15.259C470.807,44.021,468.097,42.9,465.215,42.9z" id="XMLID_8726_" style="fill:#1E81CE;"/><path d="M351.22,174.495c-4.008,0-7.775-1.559-10.605-4.39    c-2.838-2.837-4.399-6.608-4.396-10.618c0.002-4.005,1.565-7.768,4.401-10.597c2.822-2.829,6.59-4.393,10.601-4.393    c4.011,0,7.779,1.563,10.61,4.402c2.827,2.819,4.39,6.583,4.393,10.587c0.002,4.01-1.559,7.781-4.397,10.619    C358.995,172.936,355.228,174.495,351.22,174.495z M351.22,154.498c-1.335,0-2.588,0.52-3.53,1.463    c-0.952,0.95-1.472,2.201-1.472,3.532c-0.001,1.336,0.521,2.594,1.468,3.541c0.942,0.942,2.197,1.461,3.534,1.461    c1.337,0,2.593-0.519,3.535-1.46c0.948-0.948,1.469-2.206,1.468-3.542c-0.001-1.331-0.521-2.583-1.463-3.523    C353.809,155.017,352.555,154.498,351.22,154.498z" id="XMLID_8718_" style="fill:#1E81CE;"/><path d="M358.29,157.43c-1.28,0-2.559-0.488-3.536-1.464c-1.953-1.953-1.953-5.119,0-7.071    l11.79-11.79c1.953-1.952,5.118-1.952,7.071,0c1.953,1.953,1.953,5.119,0,7.071l-11.79,11.79    C360.849,156.942,359.57,157.43,358.29,157.43z" id="XMLID_215_" style="fill:#1E81CE;"/><path d="M435.45,88.45c-1.28,0-2.559-0.488-3.536-1.464c-1.953-1.953-1.953-5.119,0-7.071    l18.6-18.6c1.953-1.952,5.118-1.952,7.071,0c1.953,1.953,1.953,5.119,0,7.071l-18.6,18.6    C438.009,87.962,436.73,88.45,435.45,88.45z" id="XMLID_214_" style="fill:#1E81CE;"/><path d="M470.72,125c-8.271,0-15-6.729-15-15s6.729-15,15-15c8.271,0,15,6.729,15,15    S478.991,125,470.72,125z M470.72,105c-2.757,0-5,2.243-5,5s2.243,5,5,5c2.757,0,5-2.243,5-5S473.477,105,470.72,105z" id="XMLID_8704_" style="fill:#1E81CE;"/><path d="M321.02,128.94c-10.278,0-18.64-8.362-18.64-18.64    c0-10.272,8.362-18.63,18.64-18.63c10.278,0,18.64,8.357,18.64,18.63C339.66,120.578,331.298,128.94,321.02,128.94z     M321.02,101.67c-4.764,0-8.64,3.872-8.64,8.63c0,4.764,3.876,8.64,8.64,8.64c4.764,0,8.64-3.876,8.64-8.64    C329.66,105.541,325.784,101.67,321.02,101.67z" id="XMLID_8696_" style="fill:#1E81CE;"/><path d="M357.38,115.3h-22.72c-2.761,0-5-2.239-5-5s2.239-5,5-5h22.72c2.761,0,5,2.239,5,5    S360.141,115.3,357.38,115.3z" id="XMLID_209_" style="fill:#1E81CE;"/><path d="M460.72,115h-16.67c-2.761,0-5-2.239-5-5s2.239-5,5-5h16.67c2.761,0,5,2.239,5,5    S463.481,115,460.72,115z" id="XMLID_208_" style="fill:#1E81CE;"/><path d="M351.22,75.502c-4.011,0-7.779-1.563-10.61-4.402    c-2.827-2.819-4.39-6.583-4.392-10.587c-0.003-4.01,1.559-7.781,4.396-10.619c2.831-2.831,6.597-4.39,10.605-4.39    c4.009,0,7.775,1.559,10.606,4.39c2.838,2.837,4.399,6.608,4.397,10.618c-0.002,4.005-1.566,7.768-4.402,10.597    C358.999,73.939,355.231,75.502,351.22,75.502z M351.22,55.505c-1.337,0-2.592,0.518-3.534,1.46    c-0.947,0.948-1.469,2.205-1.468,3.542c0,1.332,0.521,2.583,1.463,3.523c0.95,0.953,2.204,1.473,3.538,1.473    c1.336,0,2.589-0.52,3.53-1.463c0.952-0.95,1.472-2.201,1.473-3.532c0.001-1.336-0.521-2.594-1.468-3.541    C353.813,56.023,352.557,55.505,351.22,55.505z" id="XMLID_8682_" style="fill:#1E81CE;"/><path d="M450.215,174.495c-4.004,0-7.771-1.558-10.606-4.386    c-5.847-5.861-5.845-15.374-0.004-21.215c2.835-2.835,6.604-4.397,10.61-4.397c4.007,0,7.775,1.561,10.611,4.397    c5.84,5.841,5.842,15.354,0.004,21.207C457.986,172.938,454.219,174.495,450.215,174.495z M450.215,154.498    c-1.335,0-2.592,0.521-3.539,1.468c-1.946,1.947-1.944,5.12,0.004,7.073c0.939,0.936,2.197,1.456,3.535,1.456    c1.338,0,2.597-0.521,3.544-1.465c1.94-1.945,1.942-5.118-0.004-7.064C452.808,155.019,451.551,154.498,450.215,154.498z" id="XMLID_8674_" style="fill:#1E81CE;"/><path d="M443.14,157.43c-1.28,0-2.561-0.489-3.537-1.466l-11.78-11.79    c-1.952-1.954-1.95-5.119,0.003-7.071c1.953-1.952,5.119-1.951,7.071,0.003l11.78,11.79c1.952,1.954,1.95,5.119-0.003,7.071    C445.698,156.942,444.419,157.43,443.14,157.43z" id="XMLID_203_" style="fill:#1E81CE;"/><path d="M370.08,84.36c-1.28,0-2.559-0.488-3.536-1.464l-11.79-11.79    c-1.953-1.953-1.953-5.119,0-7.071c1.953-1.952,5.118-1.952,7.071,0l11.79,11.79c1.953,1.953,1.953,5.119,0,7.071    C372.639,83.872,371.36,84.36,370.08,84.36z" id="XMLID_202_" style="fill:#1E81CE;"/><path d="M410.72,111.67c-8.271,0-15-6.729-15-15s6.729-15,15-15c8.271,0,15,6.729,15,15    S418.991,111.67,410.72,111.67z M410.72,91.67c-2.757,0-5,2.243-5,5c0,2.757,2.243,5,5,5c2.757,0,5-2.243,5-5    C415.72,93.913,413.477,91.67,410.72,91.67z" id="XMLID_8660_" style="fill:#1E81CE;"/><path d="M390.72,138.33c-6.435,0-11.67-5.231-11.67-11.66    c0-6.435,5.235-11.67,11.67-11.67c6.429,0,11.66,5.235,11.66,11.67C402.38,133.099,397.149,138.33,390.72,138.33z M390.72,125    c-0.921,0-1.67,0.749-1.67,1.67c0,0.916,0.749,1.66,1.67,1.66c0.915,0,1.66-0.745,1.66-1.66    C392.38,125.749,391.635,125,390.72,125z" id="XMLID_8652_" style="fill:#1E81CE;"/><path d="M389.36,490c-2.761,0-5-2.238-5-5V342.24c0-2.762,2.239-5,5-5c2.761,0,5,2.238,5,5    V485C394.36,487.762,392.121,490,389.36,490z" id="XMLID_197_" style="fill:#1E81CE;"/><path d="M456.78,490c-2.761,0-5-2.238-5-5V298.62c0-2.762,2.239-5,5-5s5,2.238,5,5V485    C461.78,487.762,459.541,490,456.78,490z" id="XMLID_196_" style="fill:#1E81CE;"/><path d="M456.776,339.31c-1.044,0-2.096-0.325-2.996-1c-2.209-1.656-2.657-4.791-1-7    l15.86-21.149c1.656-2.209,4.79-2.657,7-1c2.209,1.656,2.657,4.791,1,7l-15.86,21.149    C459.798,338.619,458.296,339.31,456.776,339.31z" id="XMLID_195_" style="fill:#1E81CE;"/><path d="M456.785,359.141c-1.699,0-3.354-0.866-4.292-2.428l-11.9-19.83    c-1.421-2.368-0.653-5.439,1.714-6.86c2.367-1.422,5.439-0.652,6.86,1.714l11.9,19.83c1.421,2.368,0.653,5.439-1.714,6.86    C458.547,358.91,457.66,359.141,456.785,359.141z" id="XMLID_194_" style="fill:#1E81CE;"/><path d="M389.364,371.03c-1.521,0-3.022-0.69-4.004-2.001l-11.89-15.86    c-1.657-2.209-1.208-5.344,1.001-7c2.208-1.656,5.344-1.208,7,1.002l11.89,15.86c1.657,2.209,1.208,5.344-1.002,7    C391.46,370.705,390.407,371.03,389.364,371.03z" id="XMLID_193_" style="fill:#1E81CE;"/><path d="M389.356,378.97c-1.044,0-2.096-0.325-2.996-1c-2.21-1.656-2.657-4.79-1.001-7    l11.9-15.87c1.658-2.208,4.792-2.656,7-1c2.209,1.656,2.657,4.79,1.001,7l-11.9,15.87    C392.378,378.279,390.876,378.97,389.356,378.97z" id="XMLID_192_" style="fill:#1E81CE;"/><path d="M456.776,367.07c-1.044,0-2.096-0.325-2.995-0.999    c-2.21-1.657-2.658-4.791-1.001-7l11.89-15.86c1.655-2.21,4.789-2.657,7-1.002c2.209,1.657,2.658,4.791,1.001,7l-11.89,15.86    C459.798,366.38,458.296,367.07,456.776,367.07z" id="XMLID_191_" style="fill:#1E81CE;"/><path d="M488.5,490h-465c-2.761,0-5-2.238-5-5s2.239-5,5-5h465c2.761,0,5,2.238,5,5    S491.261,490,488.5,490z" id="XMLID_190_" style="fill:#1E81CE;"/><path d="M356,490c-2.761,0-5-2.238-5-5V370.33c0-2.762,2.239-5,5-5s5,2.238,5,5V485    C361,487.762,358.761,490,356,490z" id="XMLID_189_" style="fill:#1E81CE;"/><path d="M356,319.15c-2.761,0-5-2.238-5-5V212.771L233.35,139.24    c-2.342-1.463-3.054-4.548-1.59-6.89c1.464-2.34,4.549-3.053,6.89-1.59l120,75c1.462,0.913,2.35,2.516,2.35,4.24v104.15    C361,316.912,358.761,319.15,356,319.15z" id="XMLID_188_" style="fill:#1E81CE;"/><path d="M389.36,390.86c-14.379,0-27.933-6.31-37.187-17.312    c-7.37-8.728-11.433-19.849-11.433-31.309c0-11.46,4.063-22.581,11.44-31.316c9.247-10.994,22.801-17.304,37.18-17.304    c15.802,0,30.673,7.732,39.78,20.684c1.588,2.259,1.045,5.378-1.214,6.966c-2.259,1.589-5.378,1.045-6.966-1.214    c-7.237-10.291-19.05-16.436-31.6-16.436c-11.42,0-22.185,5.011-29.533,13.749c-5.862,6.94-9.086,15.77-9.086,24.871    c0,9.101,3.225,17.931,9.08,24.863c7.355,8.746,18.12,13.757,29.54,13.757c12.043,0,23.406-5.658,30.705-15.213    c0.195-2.582,2.352-4.617,4.985-4.617c2.761,0,5,2.238,5,5c0,0.231,0.008,0.458,0.016,0.682l0.013,0.42    c0.027,1.071-0.29,2.123-0.906,3.001C420.061,383.111,405.179,390.86,389.36,390.86z" id="XMLID_187_" style="fill:#1E81CE;"/><path d="M326,240h-65c-2.761,0-5-2.239-5-5s2.239-5,5-5h65c2.761,0,5,2.239,5,5    S328.761,240,326,240z" id="XMLID_186_" style="fill:#1E81CE;"/><path d="M326,280h-65c-2.761,0-5-2.238-5-5s2.239-5,5-5h65c2.761,0,5,2.238,5,5    S328.761,280,326,280z" id="XMLID_185_" style="fill:#1E81CE;"/><path d="M326,320h-65c-2.761,0-5-2.238-5-5s2.239-5,5-5h65c2.761,0,5,2.238,5,5    S328.761,320,326,320z" id="XMLID_184_" style="fill:#1E81CE;"/><path d="M326,360h-65c-2.761,0-5-2.238-5-5s2.239-5,5-5h65c2.761,0,5,2.238,5,5    S328.761,360,326,360z" id="XMLID_183_" style="fill:#1E81CE;"/><path d="M326,400h-65c-2.761,0-5-2.238-5-5s2.239-5,5-5h65c2.761,0,5,2.238,5,5    S328.761,400,326,400z" id="XMLID_182_" style="fill:#1E81CE;"/><path d="M326,440h-65c-2.761,0-5-2.238-5-5s2.239-5,5-5h65c2.761,0,5,2.238,5,5    S328.761,440,326,440z" id="XMLID_181_" style="fill:#1E81CE;"/><path d="M276,75c-13.785,0-25-11.215-25-25s11.215-25,25-25s25,11.215,25,25    S289.785,75,276,75z M276,35c-8.271,0-15,6.729-15,15s6.729,15,15,15s15-6.729,15-15S284.271,35,276,35z" id="XMLID_8590_" style="fill:#1E81CE;"/></g></g><g id="Layer_1"/></svg>