<?xml version="1.0" ?><!DOCTYPE svg  PUBLIC '-//W3C//DTD SVG 1.1//EN'  'http://www.w3.org/Graphics/SVG/1.1/DTD/svg11.dtd'><svg enable-background="new 0 0 45.9316 58" id="love-message-phone" version="1.1" viewBox="0 0 45.9316 58" xml:space="preserve" xmlns="http://www.w3.org/2000/svg" xmlns:xlink="http://www.w3.org/1999/xlink"><g><g><path d="M1,6.793V4.2881C1,2.4746,2.4746,1,4.2871,1h24.3223c1.8125,0,3.2871,1.4746,3.2871,3.2881V6.793H1z" fill="#FFFFFF"/><path d="M4.2871,57C2.4746,57,1,55.5254,1,53.7129v-8.2998h30.8965v8.2998c0,1.8125-1.4746,3.2871-3.2871,3.2871    H4.2871z" fill="#FFFFFF"/><polygon fill="#C0DFCF" points="1,45.4131 1,6.793 31.8965,6.793 31.8965,12.5869 14.5176,12.5869 14.5176,30.9307     18.3789,30.9307 18.3789,36.7236 26.1035,30.9307 31.8965,30.9307 31.8965,45.4131   "/><polygon fill="#ECE9E6" points="44.9316,30.9307 25.7422,30.9307 18.6211,36.1201 18.6211,30.9307 14.5176,30.9307     14.5176,12.5869 44.9316,12.5869   "/></g><g><g><path d="M28.6094,58H4.2871C1.9228,58,0,56.0771,0,53.7129V4.2881C0,1.9238,1.9228,0,4.2871,0h24.3223     c2.3642,0,4.2871,1.9238,4.2871,4.2881v9.2988H15.5176v16.3438h3.8613v4.7929l6.3916-4.7929h7.126v23.7822     C32.8965,56.0771,30.9736,58,28.6094,58L28.6094,58z M4.2871,2C3.0263,2,2,3.0264,2,4.2881v49.4248     C2,54.9736,3.0263,56,4.2871,56h24.3223c1.2607,0,2.2871-1.0264,2.2871-2.2871V31.9307h-4.46l-9.0576,6.7929v-6.7929h-3.8613     V11.5869h17.3789V4.2881C30.8965,3.0264,29.8701,2,28.6094,2H4.2871L4.2871,2z" fill="#43525B"/></g><g><path d="M31.8965,46.4131H1c-0.5528,0-1-0.4473-1-1s0.4472-1,1-1h30.8965c0.5527,0,1,0.4473,1,1     S32.4492,46.4131,31.8965,46.4131L31.8965,46.4131z" fill="#43525B"/></g><g><path d="M31.8965,7.793H1c-0.5528,0-1-0.4473-1-1c0-0.5528,0.4472-1,1-1h30.8965c0.5527,0,1,0.4472,1,1     C32.8965,7.3457,32.4492,7.793,31.8965,7.793L31.8965,7.793z" fill="#43525B"/></g><g><polygon fill="#43525B" points="45.9316,31.9307 32.3808,31.9307 32.3808,29.9307 43.9316,29.9307 43.9316,13.5869      32.3808,13.5869 32.3808,11.5869 45.9316,11.5869 45.9316,31.9307    "/></g></g><g><path d="M18.3808,4.8965h-3.8623c-0.5527,0-1-0.4473-1-1c0-0.5528,0.4473-1,1-1h3.8623c0.5528,0,1,0.4472,1,1    C19.3808,4.4492,18.9336,4.8965,18.3808,4.8965L18.3808,4.8965z" fill="#43525B"/></g><g><circle cx="16.4496" cy="51.207" fill="#D6D6D6" r="1.9312"/><g><path d="M16.4492,54.1377c-1.6162,0-2.9307-1.3145-2.9307-2.9307c0-1.6162,1.3145-2.9306,2.9307-2.9306     s2.9316,1.3144,2.9316,2.9306C19.3808,52.8232,18.0654,54.1377,16.4492,54.1377L16.4492,54.1377z M16.4492,50.2764     c-0.5127,0-0.9307,0.4179-0.9307,0.9306c0,0.5127,0.418,0.9307,0.9307,0.9307c0.5137,0,0.9316-0.418,0.9316-0.9307     C17.3808,50.6943,16.9629,50.2764,16.4492,50.2764L16.4492,50.2764z" fill="#43525B"/></g></g><g><g><polygon fill="#43525B" points="41.0703,20.3447 31.415,20.3447 31.415,18.3447 41.0703,18.3447 41.0703,20.3447    "/></g><g><polygon fill="#43525B" points="41.0703,25.1729 30.6113,25.1729 30.6113,23.1729 41.0703,23.1729 41.0703,25.1729    "/></g></g><g><path d="M23.917,18.6826c-0.3936-0.8916-1.2823-1.5156-2.3164-1.5156c-1.3946,0-2.3994,1.1543-2.5264,2.5273    c0,0-0.0664,0.3389,0.0801,0.9532c0.206,0.8379,0.6875,1.5771,1.332,2.1464l3.4307,2.9512l3.3662-2.9512    c0.6484-0.5693,1.1279-1.3085,1.334-2.1464c0.1484-0.6143,0.082-0.9532,0.082-0.9532c-0.126-1.373-1.1309-2.5273-2.5273-2.5273    C25.1367,17.167,24.3047,17.791,23.917,18.6826z" fill="#FFA8A6"/><g><path d="M23.917,26.6455c-0.209,0-0.418-0.0732-0.5869-0.2178l-3.4307-2.9511     c-0.8193-0.7237-1.376-1.625-1.6191-2.6143c-0.1797-0.7519-0.1133-1.2168-0.0889-1.3408     c0.1631-1.8164,1.6348-3.2549,3.4092-3.2549c0.8681,0,1.6845,0.3301,2.3047,0.8936c0.6054-0.5684,1.4013-0.8936,2.2666-0.8936     c1.7763,0,3.249,1.4385,3.4238,3.3457c0.0107,0.0342,0.0771,0.499-0.1035,1.2461c-0.2451,0.9971-0.8037,1.8994-1.6153,2.6123     l-3.3662,2.9512C24.3408,26.5703,24.1289,26.6455,23.917,26.6455L23.917,26.6455z M21.6006,18.0674     c-0.9668,0-1.5518,0.8603-1.6299,1.7099c-0.0088,0.0625-0.0332,0.2745,0.0586,0.6612c0.1543,0.626,0.5185,1.209,1.0527,1.6806     l2.8291,2.4336l2.7783-2.4355c0.5332-0.4678,0.8975-1.0508,1.0537-1.6846c0.0928-0.3818,0.0684-0.5937,0.0674-0.5957     c-0.0859-0.9101-0.6709-1.7695-1.6386-1.7695c-0.6299,0-1.1641,0.3642-1.4297,0.9746c-0.1426,0.3271-0.4649,0.54-0.8223,0.541     H23.917c-0.3565,0-0.6797-0.2109-0.8233-0.5371C22.831,18.4512,22.2451,18.0674,21.6006,18.0674L21.6006,18.0674z" fill="#43525B"/></g></g></g></svg>