<?xml version="1.0" encoding="UTF-8"?>
<svg width="381px" height="82px" viewBox="0 0 381 82" version="1.1" xmlns="http://www.w3.org/2000/svg" xmlns:xlink="http://www.w3.org/1999/xlink">
    <!-- Generator: sketchtool 41.2 (35397) - http://www.bohemiancoding.com/sketch -->
    <title>081BFD73-9A40-41CB-BFD2-A12B9916F6D2</title>
    <desc>Created with sketchtool.</desc>
    <defs>
        <polygon id="path-1" points="6.30465649 8.48541379 6.30465649 0.167137931 0.44110229 0.167137931 0.44110229 8.48541379 6.30465649 8.48541379"></polygon>
        <polygon id="path-3" points="5.79260153 0.148965517 0.599151145 0.148965517 0.599151145 5.95182759 5.79260153 5.95182759 5.79260153 0.148965517"></polygon>
        <polygon id="path-5" points="43.2228626 64.4827586 0 64.4827586 0 0.624958257 43.2228626 0.624958257"></polygon>
        <polygon id="path-7" points="0 81.8516207 380.556565 81.8516207 380.556565 0.93162069 0 0.93162069"></polygon>
    </defs>
    <g id="Symbols" stroke="none" stroke-width="1" fill="none" fill-rule="evenodd">
        <g id="Nav/desktop/light" transform="translate(-150.000000, -19.000000)">
            <g id="logo" transform="translate(150.000000, 19.000000)">
                <path d="M201.920826,48.1708103 C201.054765,48.1708103 200.378246,48.2059828 199.856276,48.2059828 L199.856276,47.543569 C200.378246,47.543569 201.156826,47.5787414 201.156826,46.5851207 L201.156826,37.9180517 C201.156826,36.9273621 200.378246,36.9596034 199.856276,36.9596034 L199.856276,36.2971897 C200.378246,36.2971897 201.054765,36.3323621 201.920826,36.3323621 C202.786887,36.3323621 203.463406,36.2971897 203.985376,36.2971897 L203.985376,36.9596034 C203.463406,36.9596034 202.684826,36.9273621 202.684826,37.9180517 L202.684826,46.5851207 C202.684826,47.5787414 203.463406,47.543569 203.985376,47.543569 L203.985376,48.2059828 C203.463406,48.2059828 202.786887,48.1708103 201.920826,48.1708103 Z M208.788078,48.1708103 C207.924933,48.1708103 207.178429,48.2059828 206.65646,48.2059828 L206.65646,47.543569 C207.365055,47.543569 207.924933,47.4233966 207.195925,46.6906379 L202.824795,42.2442586 L206.89849,38.0939138 C207.03846,37.938569 207.178429,37.7802931 207.178429,37.4842586 C207.178429,37.2028793 206.915986,36.9596034 206.186979,36.9596034 L206.186979,36.2971897 C206.708948,36.2971897 207.42046,36.3323621 208.286521,36.3323621 C209.152582,36.3323621 209.867009,36.2971897 210.386063,36.2971897 L210.386063,36.9273621 C209.811605,36.9273621 209.362536,36.9068448 208.04449,38.2316724 L204.539421,41.7723621 L208.980536,46.183569 C210.298582,47.4908103 210.50562,47.543569 210.905116,47.543569 L210.905116,48.2059828 C210.386063,48.2059828 209.657055,48.1708103 208.788078,48.1708103 Z" id="Fill-1" fill="#050000"></path>
                <path d="M214.752527,48.1708103 C213.886466,48.1708103 213.242023,48.2059828 212.722969,48.2059828 L212.722969,47.543569 C213.416985,47.543569 214.023519,47.4761552 214.023519,46.4268448 L214.023519,36.3704655 C213.33242,36.2121897 213.19245,36.1770172 212.550924,35.983569 L212.550924,35.3211552 C213.242023,35.2859828 214.233473,35.0602931 214.875,34.8521897 L215.481534,34.8521897 L215.481534,46.4268448 C215.481534,47.4761552 216.143473,47.543569 216.782084,47.543569 L216.782084,48.2059828 C216.265947,48.2059828 215.621504,48.1708103 214.752527,48.1708103" id="Fill-3" fill="#050000"></path>
                <path d="M224.058747,48.3466724 C224.058747,48.3466724 223.385144,48.223569 222.723205,47.1947759 C222.134166,47.8747759 221.489724,48.3466724 220.469113,48.3466724 C219.323113,48.3466724 218.334579,47.6139138 218.334579,46.4268448 C218.334579,45.2251207 219.148151,44.5773621 220.069617,44.2637414 C221.212701,43.8827069 222.481174,43.8299483 222.481174,43.8299483 L222.481174,42.7132241 C222.481174,41.3883966 221.527632,40.9692586 220.72864,40.9692586 C219.740105,40.9692586 219.168563,41.5290862 218.821556,41.9628793 L218.419144,41.6170172 C218.67867,40.8490862 219.789678,39.8906379 221.300182,39.8906379 C223.974182,39.8906379 223.851708,42.1387414 223.851708,42.3292586 L223.816716,45.9402931 C223.816716,46.8459828 224.647785,47.1947759 225.394289,47.5083966 L224.058747,48.3466724 Z M219.635128,45.9402931 C219.635128,46.8108103 220.33206,47.3149483 221.090227,47.3149483 C221.629693,47.3149483 222.169159,47.0746034 222.460762,46.6378793 L222.481174,44.4220172 C220.798624,44.6154655 219.635128,44.8440862 219.635128,45.9402931 L219.635128,45.9402931 Z" id="Fill-5" fill="#050000"></path>
                <path d="M233.282443,41.1794138 C233.471985,41.5457931 233.801496,41.8975172 233.801496,42.8178621 C233.801496,44.7552759 232.031466,45.7488966 230.436397,45.7488966 C229.482855,45.7488966 229.272901,45.6257931 229.272901,45.6257931 C229.013374,45.7313103 228.491405,46.0625172 228.491405,46.5168276 C228.491405,47.1059655 229.777374,47.1587241 231.217893,47.2818276 C232.795466,47.4225172 234.443023,47.4576897 234.443023,49.0433793 C234.443023,50.5938966 232.777969,52.4257931 230.141878,52.4257931 C227.992763,52.4257931 226.584321,51.4673448 226.584321,50.2978621 C226.584321,49.1488966 227.660336,48.4513103 228.199802,48.1552759 C227.677832,47.9618276 227.10629,47.6306207 227.10629,46.9857931 C227.10629,46.3087241 228.26687,45.6111379 228.631374,45.4176897 C228.357267,45.277 227.001313,44.5442414 227.001313,42.8354483 C227.001313,41.0914828 228.599298,39.8897586 230.453893,39.8897586 C231.459924,39.8897586 231.891496,40.1711379 232.343481,40.3792414 L234.772534,40.3792414 L234.772534,41.1794138 L233.282443,41.1794138 Z M230.786321,48.5568276 C230.089389,48.504069 229.654901,48.4513103 228.873405,48.3633793 C228.459328,48.5392414 227.800305,49.1137241 227.800305,49.7233793 C227.800305,50.8225172 229.086275,51.4145862 230.625939,51.4145862 C232.256,51.4145862 233.282443,50.6114828 233.282443,49.6530345 C233.282443,48.7297586 232.188931,48.677 230.786321,48.5568276 L230.786321,48.5568276 Z M230.401405,40.7075172 C229.100855,40.7075172 228.491405,41.7538966 228.491405,42.7826897 C228.491405,44.1280345 229.307893,44.9106207 230.383908,44.9106207 C231.824427,44.9106207 232.363893,43.8642414 232.363893,42.8178621 C232.363893,41.4578621 231.47742,40.7075172 230.401405,40.7075172 L230.401405,40.7075172 Z" id="Fill-7" fill="#050000"></path>
                <path d="M237.474237,43.8642414 C237.474237,46.6018276 239.069305,47.1411379 240.162817,47.1411379 C241.705397,47.1411379 242.384832,46.2530345 242.384832,46.2530345 L242.781412,46.7952759 C242.59187,47.1059655 241.547931,48.3633793 239.52129,48.3633793 C237.179718,48.3633793 235.981229,46.4963103 235.981229,44.1280345 C235.981229,41.6132069 237.491733,39.8897586 239.658344,39.8897586 C241.722893,39.8897586 242.903885,41.4930345 242.903885,43.5682069 L242.903885,43.8818276 L237.474237,43.8642414 Z M239.468802,40.7456207 C238.22074,40.7456207 237.541305,41.9795862 237.491733,43.149069 L241.378802,43.149069 C241.378802,42.1056207 240.853916,40.7456207 239.468802,40.7456207 L239.468802,40.7456207 Z" id="Fill-9" fill="#050000"></path>
                <path d="M251.863681,48.1708103 C250.994704,48.1708103 250.251116,48.2059828 249.834124,48.2059828 L249.834124,47.543569 C250.545635,47.543569 251.137589,47.4556379 251.137589,46.4268448 L251.137589,42.8363276 C251.137589,41.7371897 250.341513,41.0571897 249.175101,41.0571897 C248.276963,41.0571897 247.475055,41.5290862 247.250521,41.8602931 L247.250521,46.4268448 C247.250521,47.4761552 247.91246,47.543569 248.55107,47.543569 L248.55107,48.2059828 C248.032017,48.2059828 247.387574,48.1708103 246.521513,48.1708103 C245.652536,48.1708103 244.908948,48.2059828 244.491956,48.2059828 L244.491956,47.543569 C245.203467,47.543569 245.792505,47.4556379 245.792505,46.4268448 L245.792505,41.4059828 C245.101406,41.2506379 244.961437,41.2301207 244.316994,41.0396034 L244.316994,40.3771897 C245.011009,40.3420172 246.00246,40.0987414 246.643986,39.8906379 L247.215528,39.8906379 L247.215528,41.1480517 C247.387574,40.9370172 248.256551,39.8906379 249.988673,39.8906379 C250.770169,39.8906379 252.592689,40.2746034 252.592689,42.5227069 L252.592689,46.4268448 C252.592689,47.4761552 253.254627,47.543569 253.893238,47.543569 L253.893238,48.2059828 C253.374185,48.2059828 252.732658,48.1708103 251.863681,48.1708103" id="Fill-11" fill="#050000"></path>
                <path d="M256.755905,43.8642414 C256.755905,46.6018276 258.350974,47.1411379 259.441569,47.1411379 C260.987066,47.1411379 261.663585,46.2530345 261.663585,46.2530345 L262.060165,46.7952759 C261.870623,47.1059655 260.8296,48.3633793 258.800043,48.3633793 C256.45847,48.3633793 255.259982,46.4963103 255.259982,44.1280345 C255.259982,41.6132069 256.773402,39.8897586 258.940012,39.8897586 C261.004562,39.8897586 262.182638,41.4930345 262.182638,43.5682069 L262.182638,43.8818276 L256.755905,43.8642414 Z M258.75047,40.7456207 C257.502409,40.7456207 256.822974,41.9795862 256.773402,43.149069 L260.657554,43.149069 C260.657554,42.1056207 260.135585,40.7456207 258.75047,40.7456207 L258.75047,40.7456207 Z" id="Fill-13" fill="#050000"></path>
                <path d="M276.416366,48.1708103 C275.550305,48.1708103 274.803802,48.2059828 274.389725,48.2059828 L274.389725,47.543569 C275.098321,47.543569 275.687359,47.4556379 275.687359,46.4268448 L275.687359,42.8363276 C275.687359,41.7371897 274.891282,41.0571897 273.727786,41.0571897 C272.826733,41.0571897 272.045237,41.6170172 271.820702,41.9482241 C271.820702,41.9482241 271.870275,42.2442586 271.870275,42.5578793 L271.870275,46.4268448 C271.870275,47.4761552 272.532214,47.543569 273.17374,47.543569 L273.17374,48.2059828 C272.651771,48.2059828 272.010244,48.1708103 271.141267,48.1708103 C270.278122,48.1708103 269.531618,48.2059828 269.114626,48.2059828 L269.114626,47.543569 C269.823221,47.543569 270.41226,47.4556379 270.41226,46.4268448 L270.41226,42.8363276 C270.41226,41.7371897 269.616183,41.0571897 268.455603,41.0571897 C267.551634,41.0571897 266.755557,41.5290862 266.528107,41.8602931 L266.528107,46.4268448 C266.528107,47.4761552 267.190046,47.543569 267.831573,47.543569 L267.831573,48.2059828 C267.309603,48.2059828 266.668076,48.1708103 265.799099,48.1708103 C264.933038,48.1708103 264.18945,48.2059828 263.769542,48.2059828 L263.769542,47.543569 C264.481053,47.543569 265.070092,47.4556379 265.070092,46.4268448 L265.070092,41.4059828 C264.378992,41.2506379 264.239023,41.2301207 263.597496,41.0396034 L263.597496,40.3771897 C264.291511,40.3420172 265.280046,40.0987414 265.921573,39.8906379 L266.496031,39.8906379 L266.496031,41.1480517 C266.668076,40.9370172 267.534137,39.8906379 269.269176,39.8906379 C269.896122,39.8906379 271.126687,40.2042586 271.578672,41.3033966 C271.750718,41.0923621 272.809237,39.8906379 274.541359,39.8906379 C275.322855,39.8906379 277.145374,40.2746034 277.145374,42.5227069 L277.145374,46.4268448 C277.145374,47.4761552 277.804397,47.543569 278.445924,47.543569 L278.445924,48.2059828 C277.92687,48.2059828 277.285344,48.1708103 276.416366,48.1708103" id="Fill-15" fill="#050000"></path>
                <path d="M287.559394,48.1708103 C286.690417,48.1708103 285.946829,48.2059828 285.529837,48.2059828 L285.529837,47.543569 C286.241348,47.543569 286.830386,47.4556379 286.830386,46.4268448 L286.830386,42.8363276 C286.830386,41.7371897 286.03431,41.0571897 284.870814,41.0571897 C283.96976,41.0571897 283.170768,41.5290862 282.943318,41.8602931 L282.943318,46.4268448 C282.943318,47.4761552 283.605256,47.543569 284.246783,47.543569 L284.246783,48.2059828 C283.72773,48.2059828 283.083287,48.1708103 282.21431,48.1708103 C281.348249,48.1708103 280.601745,48.2059828 280.187669,48.2059828 L280.187669,47.543569 C280.896264,47.543569 281.488218,47.4556379 281.488218,46.4268448 L281.488218,41.4059828 C280.794203,41.2506379 280.65715,41.2301207 280.012707,41.0396034 L280.012707,40.3771897 C280.706722,40.3420172 281.695256,40.0987414 282.336783,39.8906379 L282.908325,39.8906379 L282.908325,41.1480517 C283.083287,40.9370172 283.952264,39.8906379 285.684386,39.8906379 C286.465882,39.8906379 288.285485,40.2746034 288.285485,42.5227069 L288.285485,46.4268448 C288.285485,47.4761552 288.947424,47.543569 289.588951,47.543569 L289.588951,48.2059828 C289.069898,48.2059828 288.428371,48.1708103 287.559394,48.1708103" id="Fill-17" fill="#050000"></path>
                <path d="M297.60891,48.3795 L297.002376,48.3795 L297.002376,47.3360517 C296.413337,47.9105345 295.337322,48.3795 294.348788,48.3795 C292.494192,48.3795 290.966192,46.9169138 290.966192,44.4226034 C290.966192,41.6146724 292.838284,39.8882931 295.319826,39.8882931 C296.290864,39.8882931 296.84491,40.0817414 296.84491,40.0817414 L296.84491,36.3681207 C296.153811,36.2127759 296.010925,36.1746724 295.369398,35.9841552 L295.369398,35.3217414 C296.06633,35.286569 297.054864,35.0608793 297.696391,34.8527759 L298.302925,34.8527759 L298.302925,46.8817414 C298.999856,47.0370862 299.133994,47.0019138 299.775521,47.1953621 L299.775521,47.8577759 C299.084421,47.8929483 298.253353,48.1713966 297.60891,48.3795 L297.60891,48.3795 Z M296.84491,41.1955345 C296.44833,40.9170862 295.873872,40.7617414 295.235261,40.7617414 C293.686849,40.7617414 292.47378,41.7729483 292.47378,44.0913966 C292.47378,46.6882931 294.068849,47.2481207 295.127368,47.2481207 C296.168391,47.2481207 296.84491,46.5857069 296.84491,46.5857069 L296.84491,41.1955345 Z" id="Fill-19" fill="#050000"></path>
                <path d="M307.114295,48.3466724 C307.114295,48.3466724 306.440692,48.223569 305.778753,47.1947759 C305.189715,47.8747759 304.548188,48.3466724 303.524661,48.3466724 C302.381577,48.3466724 301.390127,47.6139138 301.390127,46.4268448 C301.390127,45.2251207 302.203699,44.5773621 303.125165,44.2637414 C304.268249,43.8827069 305.536722,43.8299483 305.536722,43.8299483 L305.536722,42.7132241 C305.536722,41.3883966 304.58318,40.9692586 303.784188,40.9692586 C302.798569,40.9692586 302.224111,41.5290862 301.874188,41.9628793 L301.477608,41.6170172 C301.737134,40.8490862 302.848142,39.8906379 304.35573,39.8906379 C307.02973,39.8906379 306.907256,42.1387414 306.907256,42.3292586 L306.872264,45.9402931 C306.872264,46.8459828 307.703333,47.1947759 308.452753,47.5083966 L307.114295,48.3466724 Z M302.690676,45.9402931 C302.690676,46.8108103 303.387608,47.3149483 304.145776,47.3149483 C304.688157,47.3149483 305.224707,47.0746034 305.51631,46.6378793 L305.536722,44.4220172 C303.854173,44.6154655 302.690676,44.8440862 302.690676,45.9402931 L302.690676,45.9402931 Z" id="Fill-21" fill="#050000"></path>
                <path d="M319.111719,36.6298621 C318.729719,36.369 318.210666,36.0202069 317.359185,36.0202069 C316.041139,36.0202069 315.74662,37.0108966 315.74662,38.8105517 L315.74662,40.3786552 L317.965719,40.3786552 L317.965719,41.2667586 L315.74662,41.2667586 L315.74662,46.4283103 C315.74662,47.4746897 316.475627,47.5450345 317.169643,47.5450345 L317.169643,48.2074483 C316.647673,48.2074483 315.956574,48.1722759 315.087597,48.1722759 C314.221536,48.1722759 313.507108,48.2074483 312.988055,48.2074483 L312.988055,47.5450345 C313.702482,47.5450345 314.291521,47.4571034 314.291521,46.4283103 L314.291521,41.2667586 L312.973475,41.2667586 L312.973475,40.3786552 L314.291521,40.3786552 L314.291521,39.086069 C314.291521,36.0876207 316.163612,34.8331379 317.793673,34.8331379 C318.712223,34.8331379 319.409154,35.1115862 319.9632,35.5834828 L319.111719,36.6298621 Z" id="Fill-23" fill="#050000"></path>
                <path d="M323.195328,48.3639655 C320.821679,48.3639655 319.171206,46.8632759 319.171206,44.1960345 C319.171206,41.5991379 321.21826,39.8903448 323.317802,39.8903448 C325.904321,39.8903448 327.341924,41.5991379 327.341924,44.0758621 C327.341924,46.7577586 325.399847,48.3639655 323.195328,48.3639655 M323.282809,40.7286207 C321.337817,40.7286207 320.821679,42.627931 320.821679,44.1081034 C320.821679,45.7494828 321.410718,47.5256897 323.300305,47.5256897 C325.242382,47.5256897 325.708947,45.6615517 325.708947,44.0905172 C325.708947,42.6425862 325.189893,40.7286207 323.282809,40.7286207" id="Fill-25" fill="#050000"></path>
                <path d="M333.617805,41.3898621 C332.748827,41.3898621 332.124797,41.5979655 331.693224,42.1372759 L331.693224,46.4283103 C331.693224,47.4746897 332.419316,47.5450345 333.113331,47.5450345 L333.113331,48.2074483 C332.594278,48.2074483 331.900263,48.1693448 331.031285,48.1693448 C330.165224,48.1693448 329.450797,48.2074483 328.93466,48.2074483 L328.93466,47.5450345 C329.646171,47.5450345 330.235209,47.4571034 330.235209,46.4283103 L330.235209,41.4074483 C329.541194,41.2521034 329.401224,41.2315862 328.759698,41.041069 L328.759698,40.3786552 C329.450797,40.3434828 330.442247,40.0972759 331.083774,39.8891724 L331.655316,39.8891724 L331.655316,41.4221034 C331.86527,40.8827931 332.818812,39.8891724 333.964812,39.8891724 C334.189347,39.8891724 334.413881,39.9243448 334.623835,39.9946897 L334.623835,41.5100345 C334.31182,41.4572759 334.046461,41.3898621 333.617805,41.3898621" id="Fill-27" fill="#050000"></path>
                <path d="M201.858131,67.8521207 C200.989154,67.8521207 200.245566,67.8872931 199.828574,67.8872931 L199.828574,67.2248793 C200.540085,67.2248793 201.129124,67.1369483 201.129124,66.1081552 L201.129124,61.0872931 C200.435108,60.9319483 200.298055,60.9143621 199.653612,60.7209138 L199.653612,60.0585 C200.347627,60.0233276 201.336162,59.7800517 201.980605,59.5719483 L202.587139,59.5719483 L202.587139,66.1081552 C202.587139,67.1574655 203.246162,67.2248793 203.884773,67.2248793 L203.884773,67.8872931 C203.368635,67.8872931 202.724192,67.8521207 201.858131,67.8521207 M201.700666,57.6345345 C200.922085,57.6345345 200.680055,57.0424655 200.680055,56.6233276 C200.680055,56.1719483 200.971658,55.6472931 201.735658,55.6472931 C202.464666,55.6472931 202.776681,56.1191897 202.776681,56.6409138 C202.776681,57.165569 202.397597,57.6345345 201.700666,57.6345345" id="Fill-29" fill="#050000"></path>
                <path d="M212.947212,67.8521207 C212.078235,67.8521207 211.334647,67.8872931 210.917655,67.8872931 L210.917655,67.2248793 C211.629166,67.2248793 212.218205,67.1369483 212.218205,66.1081552 L212.218205,62.5176379 C212.218205,61.4185 211.422128,60.7385 210.258632,60.7385 C209.357579,60.7385 208.558586,61.2103966 208.334052,61.5416034 L208.334052,66.1081552 C208.334052,67.1574655 208.993075,67.2248793 209.631685,67.2248793 L209.631685,67.8872931 C209.115548,67.8872931 208.471105,67.8521207 207.605044,67.8521207 C206.736067,67.8521207 205.989563,67.8872931 205.575487,67.8872931 L205.575487,67.2248793 C206.286998,67.2248793 206.876037,67.1369483 206.876037,66.1081552 L206.876037,61.0872931 C206.182021,60.9319483 206.042052,60.9143621 205.400525,60.7209138 L205.400525,60.0585 C206.09454,60.0233276 207.083075,59.7800517 207.724602,59.5719483 L208.296144,59.5719483 L208.296144,60.8293621 C208.471105,60.6183276 209.340082,59.5719483 211.072205,59.5719483 C211.853701,59.5719483 213.67622,59.9559138 213.67622,62.2040172 L213.67622,66.1081552 C213.67622,67.1574655 214.338159,67.2248793 214.976769,67.2248793 L214.976769,67.8872931 C214.457716,67.8872931 213.813273,67.8521207 212.947212,67.8521207" id="Fill-31" fill="#050000"></path>
                <path d="M222.996728,68.0611034 L222.390194,68.0611034 L222.390194,67.0176552 C221.801156,67.5921379 220.72514,68.0611034 219.736606,68.0611034 C217.879095,68.0611034 216.354011,66.5985172 216.354011,64.1042069 C216.354011,61.2962759 218.226102,59.5698966 220.707644,59.5698966 C221.678682,59.5698966 222.232728,59.7633448 222.232728,59.7633448 L222.232728,56.0497241 C221.538713,55.8914483 221.40166,55.8562759 220.757217,55.6657586 L220.757217,55.0033448 C221.454148,54.9681724 222.442682,54.7424828 223.084209,54.5343793 L223.690744,54.5343793 L223.690744,66.5633448 C224.384759,66.7186897 224.521812,66.6835172 225.166255,66.8769655 L225.166255,67.5393793 C224.47224,67.5745517 223.638255,67.853 222.996728,68.0611034 L222.996728,68.0611034 Z M222.232728,60.8771379 C221.836148,60.5986897 221.26169,60.4433448 220.620163,60.4433448 C219.074667,60.4433448 217.861598,61.4545517 217.861598,63.773 C217.861598,66.3698966 219.456667,66.9297241 220.515186,66.9297241 C221.556209,66.9297241 222.232728,66.2673103 222.232728,66.2673103 L222.232728,60.8771379 Z" id="Fill-33" fill="#050000"></path>
                <path d="M233.413373,68.0611034 L232.806838,68.0611034 L232.806838,66.8593793 C232.617296,67.085069 231.678334,68.0435172 229.943296,68.0435172 C228.453205,68.0435172 227.359693,67.0323103 227.359693,65.133 L227.359693,61.0881724 C226.665678,60.9298966 226.613189,60.9152414 225.971663,60.7217931 L225.971663,60.0593793 C226.665678,60.0242069 227.724197,59.780931 228.208258,59.5698966 L228.814792,59.5698966 L228.814792,64.9424828 C228.814792,66.2497241 229.473815,66.9121379 230.686884,66.9121379 C231.590853,66.9121379 232.182808,66.580931 232.649373,66.1090345 L232.649373,61.0881724 C231.955357,60.9298966 231.815388,60.9152414 231.173861,60.7217931 L231.173861,60.0593793 C231.870792,60.0242069 232.859327,59.780931 233.497937,59.5698966 L234.107388,59.5698966 L234.107388,66.5633448 C234.804319,66.7186897 234.938456,66.6835172 235.582899,66.8769655 L235.582899,67.5393793 C234.888884,67.5745517 234.054899,67.853 233.413373,68.0611034" id="Fill-35" fill="#050000"></path>
                <path d="M239.894834,68.0452759 C238.608864,68.0452759 238.159795,67.6437241 237.325811,67.6437241 C237.325811,67.6437241 237.360803,67.034069 237.360803,66.5123448 C237.360803,65.9876897 237.325811,65.3604483 237.325811,65.3604483 L237.984834,65.3604483 C237.984834,65.9525172 238.019826,67.2597586 240.017307,67.2597586 C241.195383,67.2597586 241.647368,66.6676897 241.647368,65.932 C241.647368,63.8597586 237.308315,64.8709655 237.308315,62.0483793 C237.308315,60.1988966 239.00836,59.5716552 240.171856,59.5716552 C241.297444,59.5716552 241.612376,59.8501034 242.510513,59.8501034 C242.510513,59.8501034 242.478437,60.4245862 242.478437,60.9492414 C242.478437,61.4709655 242.510513,62.0483793 242.510513,62.0483793 L241.854406,62.0483793 C241.854406,61.2628621 241.574467,60.3542414 240.15436,60.3542414 C239.078345,60.3542414 238.594284,60.8085517 238.594284,61.6116552 C238.594284,63.3556207 243.049979,62.7459655 243.049979,65.3604483 C243.049979,67.0868276 241.45491,68.0452759 239.894834,68.0452759" id="Fill-37" fill="#050000"></path>
                <path d="M247.762867,68.0095172 C246.602287,68.0095172 245.526272,67.5200345 245.526272,66.0222759 L245.613753,60.9486552 L244.604806,60.9486552 L244.604806,60.2862414 C245.281325,59.8495172 246.118226,58.8412414 246.444821,58.2608966 L247.103844,58.2608966 L247.086348,60.0605517 L249.967386,60.0605517 L249.967386,60.9486552 L247.068852,60.9486552 L246.998867,65.4302069 C246.949295,66.8253793 247.850348,66.9807241 248.372318,66.9807241 C249.045921,66.9807241 249.448333,66.7872759 249.879905,66.4384828 L250.276485,66.9807241 C249.984882,67.3471034 249.098409,68.0095172 247.762867,68.0095172" id="Fill-39" fill="#050000"></path>
                <path d="M256.311794,61.0711724 C255.448649,61.0711724 254.821702,61.2792759 254.39013,61.8185862 L254.39013,66.1096207 C254.39013,67.156 255.119137,67.2263448 255.810237,67.2263448 L255.810237,67.8887586 C255.288267,67.8887586 254.597168,67.8506552 253.728191,67.8506552 C252.859214,67.8506552 252.150618,67.8887586 251.631565,67.8887586 L251.631565,67.2263448 C252.343076,67.2263448 252.929198,67.1384138 252.929198,66.1096207 L252.929198,61.0887586 C252.238099,60.9334138 252.101046,60.9158276 251.456603,60.7223793 L251.456603,60.0599655 C252.150618,60.0247931 253.139153,59.7785862 253.780679,59.5704828 L254.352221,59.5704828 L254.352221,61.1034138 C254.562176,60.5670345 255.515718,59.5704828 256.661718,59.5704828 C256.886252,59.5704828 257.110786,59.6056552 257.32074,59.676 L257.32074,61.1913448 C257.005809,61.1385862 256.746282,61.0711724 256.311794,61.0711724" id="Fill-41" fill="#050000"></path>
                <path d="M260.999021,67.8521207 C260.130044,67.8521207 259.386456,67.8872931 258.969464,67.8872931 L258.969464,67.2248793 C259.680976,67.2248793 260.270014,67.1369483 260.270014,66.1081552 L260.270014,61.0872931 C259.575998,60.9319483 259.438945,60.9143621 258.797418,60.7209138 L258.797418,60.0585 C259.488518,60.0233276 260.477052,59.7800517 261.121495,59.5719483 L261.728029,59.5719483 L261.728029,66.1081552 C261.728029,67.1574655 262.387052,67.2248793 263.025663,67.2248793 L263.025663,67.8872931 C262.509525,67.8872931 261.865082,67.8521207 260.999021,67.8521207 M260.841556,57.6345345 C260.065892,57.6345345 259.818029,57.0424655 259.818029,56.6233276 C259.818029,56.1719483 260.115464,55.6472931 260.876548,55.6472931 C261.605556,55.6472931 261.917571,56.1191897 261.917571,56.6409138 C261.917571,57.165569 261.538487,57.6345345 260.841556,57.6345345" id="Fill-43" fill="#050000"></path>
                <path d="M265.925363,63.5458448 C265.925363,66.283431 267.523348,66.8256724 268.61686,66.8256724 C270.156524,66.8256724 270.835959,65.9346379 270.835959,65.9346379 L271.232539,66.4768793 C271.045913,66.787569 270.001974,68.0449828 267.972417,68.0449828 C265.630844,68.0449828 264.432356,66.1779138 264.432356,63.8096379 C264.432356,61.2948103 265.945776,59.5713621 268.112386,59.5713621 C270.176936,59.5713621 271.357928,61.1746379 271.357928,63.2498103 L271.357928,63.563431 L265.925363,63.5458448 Z M267.922844,60.4272241 C266.671867,60.4272241 265.995348,61.6611897 265.945776,62.8306724 L269.829928,62.8306724 C269.829928,61.7872241 269.307959,60.4272241 267.922844,60.4272241 L267.922844,60.4272241 Z" id="Fill-45" fill="#050000"></path>
                <path d="M274.907029,67.8521207 C274.040968,67.8521207 273.399441,67.8872931 272.880388,67.8872931 L272.880388,67.2248793 C273.571487,67.2248793 274.180937,67.1574655 274.180937,66.1081552 L274.180937,56.0517759 C273.486922,55.890569 273.346953,55.8583276 272.705426,55.6648793 L272.705426,55.0024655 C273.399441,54.9672931 274.387976,54.7416034 275.029502,54.5335 L275.636037,54.5335 L275.636037,66.1081552 C275.636037,67.1574655 276.297976,67.2248793 276.936586,67.2248793 L276.936586,67.8872931 C276.420449,67.8872931 275.778922,67.8521207 274.907029,67.8521207" id="Fill-47" fill="#050000"></path>
                <path d="M280.662107,67.8521207 C279.79313,67.8521207 279.151603,67.8872931 278.63255,67.8872931 L278.63255,67.2248793 C279.326565,67.2248793 279.936015,67.1574655 279.936015,66.1081552 L279.936015,56.0517759 C279.242,55.890569 279.102031,55.8583276 278.460504,55.6648793 L278.460504,55.0024655 C279.151603,54.9672931 280.143053,54.7416034 280.78458,54.5335 L281.391115,54.5335 L281.391115,66.1081552 C281.391115,67.1574655 282.053053,67.2248793 282.691664,67.2248793 L282.691664,67.8872931 C282.172611,67.8872931 281.531084,67.8521207 280.662107,67.8521207" id="Fill-49" fill="#050000"></path>
                <path d="M285.600113,63.5458448 C285.600113,66.283431 287.198098,66.8256724 288.288693,66.8256724 C289.831273,66.8256724 290.510708,65.9346379 290.510708,65.9346379 L290.907289,66.4768793 C290.717747,66.787569 289.673808,68.0449828 287.647166,68.0449828 C285.302678,68.0449828 284.107105,66.1779138 284.107105,63.8096379 C284.107105,61.2948103 285.617609,59.5713621 287.78422,59.5713621 C289.848769,59.5713621 291.029762,61.1746379 291.029762,63.2498103 L291.029762,63.563431 L285.600113,63.5458448 Z M287.597594,60.4272241 C286.346617,60.4272241 285.667182,61.6611897 285.617609,62.8306724 L289.504678,62.8306724 C289.504678,61.7872241 288.982708,60.4272241 287.597594,60.4272241 L287.597594,60.4272241 Z" id="Fill-51" fill="#050000"></path>
                <path d="M300.738394,61.0711724 C299.869417,61.0711724 299.245386,61.2792759 298.813814,61.8185862 L298.813814,66.1096207 C298.813814,67.156 299.539905,67.2263448 300.233921,67.2263448 L300.233921,67.8887586 C299.714867,67.8887586 299.020852,67.8506552 298.151875,67.8506552 C297.285814,67.8506552 296.574302,67.8887586 296.055249,67.8887586 L296.055249,67.2263448 C296.76676,67.2263448 297.355798,67.1384138 297.355798,66.1096207 L297.355798,61.0887586 C296.661783,60.9334138 296.521814,60.9158276 295.880287,60.7223793 L295.880287,60.0599655 C296.574302,60.0247931 297.562837,59.7785862 298.204363,59.5704828 L298.775905,59.5704828 L298.775905,61.1034138 C298.98586,60.5670345 299.942318,59.5704828 301.085402,59.5704828 C301.309936,59.5704828 301.53447,59.6056552 301.744424,59.676 L301.744424,61.1913448 C301.429493,61.1385862 301.16705,61.0711724 300.738394,61.0711724" id="Fill-53" fill="#050000"></path>
                <path d="M304.617006,63.5458448 C304.617006,66.283431 306.214991,66.8256724 307.308502,66.8256724 C308.851082,66.8256724 309.527602,65.9346379 309.527602,65.9346379 L309.924182,66.4768793 C309.737556,66.787569 308.693617,68.0449828 306.66406,68.0449828 C304.319571,68.0449828 303.126915,66.1779138 303.126915,63.8096379 C303.126915,61.2948103 304.634502,59.5713621 306.804029,59.5713621 C308.868579,59.5713621 310.046655,61.1746379 310.046655,63.2498103 L310.046655,63.563431 L304.617006,63.5458448 Z M306.614487,60.4272241 C305.36351,60.4272241 304.684075,61.6611897 304.634502,62.8306724 L308.521571,62.8306724 C308.521571,61.7872241 307.999602,60.4272241 306.614487,60.4272241 L306.614487,60.4272241 Z" id="Fill-55" fill="#050000"></path>
                <path d="M314.749046,68.0095172 C313.588466,68.0095172 312.509534,67.5200345 312.509534,66.0222759 L312.599931,60.9486552 L311.593901,60.9486552 L311.593901,60.2862414 C312.267504,59.8495172 313.101489,58.8412414 313.431,58.2608966 L314.087107,58.2608966 L314.072527,60.0605517 L316.950649,60.0605517 L316.950649,60.9486552 L314.055031,60.9486552 L313.985046,65.4302069 C313.932557,66.8253793 314.833611,66.9807241 315.35558,66.9807241 C316.032099,66.9807241 316.428679,66.7872759 316.866084,66.4384828 L317.262664,66.9807241 C316.971061,67.3471034 316.084588,68.0095172 314.749046,68.0095172" id="Fill-57" fill="#050000"></path>
                <path d="M321.629128,68.0095172 C320.468548,68.0095172 319.392533,67.5200345 319.392533,66.0222759 L319.480014,60.9486552 L318.473983,60.9486552 L318.473983,60.2862414 C319.147586,59.8495172 319.981571,58.8412414 320.311082,58.2608966 L320.970105,58.2608966 L320.955525,60.0605517 L323.833647,60.0605517 L323.833647,60.9486552 L320.935113,60.9486552 L320.868044,65.4302069 C320.815556,66.8253793 321.716609,66.9807241 322.238579,66.9807241 C322.912182,66.9807241 323.308762,66.7872759 323.746166,66.4384828 L324.145663,66.9807241 C323.851144,67.3471034 322.96467,68.0095172 321.629128,68.0095172" id="Fill-59" fill="#050000"></path>
                <path d="M327.526508,67.8521207 C326.657531,67.8521207 325.913944,67.8872931 325.496951,67.8872931 L325.496951,67.2248793 C326.208463,67.2248793 326.797501,67.1369483 326.797501,66.1081552 L326.797501,61.0872931 C326.103485,60.9319483 325.966432,60.9143621 325.321989,60.7209138 L325.321989,60.0585 C326.016005,60.0233276 327.004539,59.7800517 327.648982,59.5719483 L328.255516,59.5719483 L328.255516,66.1081552 C328.255516,67.1574655 328.914539,67.2248793 329.556066,67.2248793 L329.556066,67.8872931 C329.037012,67.8872931 328.395485,67.8521207 327.526508,67.8521207 M327.369043,57.6345345 C326.590463,57.6345345 326.348432,57.0424655 326.348432,56.6233276 C326.348432,56.1719483 326.640035,55.6472931 327.404035,55.6472931 C328.133043,55.6472931 328.445058,56.1191897 328.445058,56.6409138 C328.445058,57.165569 328.065974,57.6345345 327.369043,57.6345345" id="Fill-61" fill="#050000"></path>
                <path d="M337.576024,60.8607241 C337.765566,61.2271034 338.097994,61.5788276 338.097994,62.4991724 C338.097994,64.4365862 336.325047,65.4302069 334.729979,65.4302069 C333.779353,65.4302069 333.569398,65.3071034 333.569398,65.3071034 C333.306956,65.4126207 332.787902,65.7438276 332.787902,66.1981379 C332.787902,66.7872759 334.073872,66.8400345 335.511475,66.966069 C337.089047,67.1038276 338.736605,67.139 338.736605,68.7276207 C338.736605,70.2752069 337.071551,72.1071034 334.43546,72.1071034 C332.286345,72.1071034 330.880818,71.1486552 330.880818,69.9791724 C330.880818,68.8302069 331.953918,68.1326207 332.493383,67.8365862 C331.971414,67.6431379 331.402788,67.3148621 331.402788,66.6671034 C331.402788,65.9900345 332.563368,65.2924483 332.927872,65.099 C332.650849,64.9583103 331.297811,64.2255517 331.297811,62.5167586 C331.297811,60.7727931 332.892879,59.571069 334.747475,59.571069 C335.753505,59.571069 336.187994,59.8524483 336.639979,60.0605517 L339.069032,60.0605517 L339.069032,60.8607241 L337.576024,60.8607241 Z M335.079902,68.2381379 C334.382971,68.1853793 333.951398,68.1326207 333.166986,68.0446897 C332.755826,68.2205517 332.093887,68.7950345 332.093887,69.4046897 C332.093887,70.5038276 333.379856,71.0958966 334.922437,71.0958966 C336.549582,71.0958966 337.576024,70.2927931 337.576024,69.3343448 C337.576024,68.411069 336.482513,68.3583103 335.079902,68.2381379 L335.079902,68.2381379 Z M334.694986,60.3888276 C333.394437,60.3888276 332.787902,61.4352069 332.787902,62.464 C332.787902,63.8093448 333.604391,64.591931 334.680406,64.591931 C336.120925,64.591931 336.657475,63.5455517 336.657475,62.4991724 C336.657475,61.1391724 335.773918,60.3888276 334.694986,60.3888276 L334.694986,60.3888276 Z" id="Fill-63" fill="#050000"></path>
                <path d="M347.742473,67.8521207 C346.876412,67.8521207 346.129908,67.8872931 345.715832,67.8872931 L345.715832,67.2248793 C346.424427,67.2248793 347.016382,67.1369483 347.016382,66.1081552 L347.016382,62.5176379 C347.016382,61.4185 346.217389,60.7385 345.053893,60.7385 C344.15284,60.7385 343.353847,61.2103966 343.129313,61.5416034 L343.129313,66.1081552 C343.129313,67.1574655 343.788336,67.2248793 344.429863,67.2248793 L344.429863,67.8872931 C343.913725,67.8872931 343.269282,67.8521207 342.400305,67.8521207 C341.534244,67.8521207 340.892718,67.8872931 340.370748,67.8872931 L340.370748,67.2248793 C341.064763,67.2248793 341.671298,67.1574655 341.671298,66.1081552 L341.671298,56.0517759 C340.980198,55.890569 340.843145,55.8583276 340.198702,55.6648793 L340.198702,55.0024655 C340.892718,54.9672931 341.881252,54.7416034 342.522779,54.5335 L343.129313,54.5335 L343.129313,60.8088448 C343.304275,60.5978103 344.135344,59.5719483 345.867466,59.5719483 C346.651878,59.5719483 348.471481,59.9559138 348.471481,62.2040172 L348.471481,66.1081552 C348.471481,67.1574655 349.13342,67.2248793 349.772031,67.2248793 L349.772031,67.8872931 C349.252977,67.8872931 348.61145,67.8521207 347.742473,67.8521207" id="Fill-65" fill="#050000"></path>
                <path d="M352.648986,63.5458448 C352.648986,66.283431 354.246971,66.8256724 355.340482,66.8256724 C356.883063,66.8256724 357.562498,65.9346379 357.562498,65.9346379 L357.956162,66.4768793 C357.769536,66.787569 356.725597,68.0449828 354.69604,68.0449828 C352.351551,68.0449828 351.158895,66.1779138 351.158895,63.8096379 C351.158895,61.2948103 352.666482,59.5713621 354.836009,59.5713621 C356.900559,59.5713621 358.078635,61.1746379 358.078635,63.2498103 L358.078635,63.563431 L352.648986,63.5458448 Z M354.646467,60.4272241 C353.39549,60.4272241 352.716055,61.6611897 352.666482,62.8306724 L356.556467,62.8306724 C356.556467,61.7872241 356.031582,60.4272241 354.646467,60.4272241 L354.646467,60.4272241 Z" id="Fill-67" fill="#050000"></path>
                <path d="M362.781026,68.0095172 C361.620446,68.0095172 360.544431,67.5200345 360.544431,66.0222759 L360.631911,60.9486552 L359.625881,60.9486552 L359.625881,60.2862414 C360.299484,59.8495172 361.133469,58.8412414 361.46298,58.2608966 L362.122003,58.2608966 L362.104507,60.0605517 L364.985545,60.0605517 L364.985545,60.9486552 L362.087011,60.9486552 L362.019942,65.4302069 C361.970369,66.8253793 362.868507,66.9807241 363.390476,66.9807241 C364.064079,66.9807241 364.46066,66.7872759 364.898064,66.4384828 L365.29756,66.9807241 C365.003041,67.3471034 364.116568,68.0095172 362.781026,68.0095172" id="Fill-69" fill="#050000"></path>
                <path d="M367.849962,63.5458448 C367.849962,66.283431 369.447947,66.8256724 370.538542,66.8256724 C372.081122,66.8256724 372.757641,65.9346379 372.757641,65.9346379 L373.157137,66.4768793 C372.964679,66.787569 371.923656,68.0449828 369.894099,68.0449828 C367.552527,68.0449828 366.356954,66.1779138 366.356954,63.8096379 C366.356954,61.2948103 367.867458,59.5713621 370.034069,59.5713621 C372.098618,59.5713621 373.276695,61.1746379 373.276695,63.2498103 L373.276695,63.563431 L367.849962,63.5458448 Z M369.844527,60.4272241 C368.596466,60.4272241 367.917031,61.6611897 367.867458,62.8306724 L371.751611,62.8306724 C371.751611,61.7872241 371.232557,60.4272241 369.844527,60.4272241 L369.844527,60.4272241 Z" id="Fill-71" fill="#050000"></path>
                <g id="Group-75" transform="translate(374.251908, 59.403345)">
                    <mask id="mask-2" fill="white">
                        <use xlink:href="#path-1"></use>
                    </mask>
                    <g id="Clip-74"></g>
                    <path d="M5.29629313,1.66782759 C4.43023206,1.66782759 3.8032855,1.87593103 3.37171298,2.41524138 L3.37171298,6.70627586 C3.37171298,7.75265517 4.10072061,7.823 4.79473588,7.823 L4.79473588,8.48541379 C4.26985038,8.48541379 3.57875115,8.44731034 2.71269008,8.44731034 C1.84371298,8.44731034 1.13511756,8.48541379 0.613148092,8.48541379 L0.613148092,7.823 C1.32465954,7.823 1.91369771,7.73506897 1.91369771,6.70627586 L1.91369771,1.68541379 C1.22259847,1.53006897 1.08554504,1.51248276 0.44110229,1.31903448 L0.44110229,0.65662069 C1.13511756,0.621448276 2.12365191,0.375241379 2.76517863,0.167137931 L3.33672061,0.167137931 L3.33672061,1.70006897 C3.54375878,1.16368966 4.50021679,0.167137931 5.64330076,0.167137931 C5.86783511,0.167137931 6.09236947,0.202310345 6.30523969,0.272655172 L6.30523969,1.788 C5.9903084,1.73524138 5.73078168,1.66782759 5.29629313,1.66782759" id="Fill-73" fill="#050000" mask="url(#mask-2)"></path>
                </g>
                <path d="M88.0889084,67.9796207 C85.7881603,67.9796207 82.9333664,68.0734138 81.9215038,68.0734138 L81.9215038,65.8516897 C83.9918855,65.8516897 85.5577939,65.6201379 85.5577939,62.6597931 L85.5577939,41.8816897 C85.5577939,38.9213448 83.9918855,38.6897931 81.9215038,38.6897931 L81.9215038,36.471 C82.9333664,36.471 85.8348168,36.5618621 88.1355649,36.5618621 C90.439229,36.5618621 93.2473664,36.471 94.3058855,36.471 L94.3058855,38.6897931 C92.2325878,38.6897931 90.6666794,38.9213448 90.6666794,41.8816897 L90.6666794,62.6597931 C90.6666794,65.6201379 92.2325878,65.8516897 94.3058855,65.8516897 L94.3058855,68.0734138 C93.2473664,68.0734138 90.3925725,67.9796207 88.0889084,67.9796207 M106.596954,67.9796207 C104.296206,67.9796207 101.57555,68.0734138 100.196267,68.0734138 L100.196267,65.8516897 C102.129595,65.8516897 103.605107,65.4794483 101.902145,63.7237586 L90.9903588,52.8496207 L102.039198,41.653069 C102.453275,41.1870345 102.820695,40.7268621 102.820695,40.0761724 C102.820695,39.3375517 102.085855,38.6897931 99.8755038,38.6897931 L99.8755038,36.471 C101.254786,36.471 103.511794,36.5618621 105.815458,36.5618621 C108.116206,36.5618621 110.416954,36.471 111.796237,36.471 L111.796237,38.6428966 C110.279901,38.6428966 109.037672,38.6428966 105.815458,41.8816897 L96.6037176,51.1378966 L108.022893,62.5191034 C111.01474,65.4794483 111.70584,65.8516897 112.904328,65.8516897 L112.904328,68.0734138 C111.52213,68.0734138 108.897702,67.9796207 106.596954,67.9796207" id="Fill-76" fill="#050000"></path>
                <path d="M137.58736,43.3176034 C137.58736,39.6626034 136.161421,39.1995 130.819253,39.1995 C126.675574,39.1995 125.847421,39.3372586 125.159238,39.3372586 L125.159238,50.9500172 L129.300002,50.9500172 C134.13478,50.9500172 135.009589,50.8151897 135.009589,47.5734655 L137.173284,47.5734655 C137.173284,48.9627759 137.079971,50.2113966 137.079971,52.5239828 C137.079971,54.8395 137.173284,56.1350172 137.173284,57.5213966 L134.962933,57.5213966 C134.962933,53.7755345 134.041467,53.5439828 129.300002,53.5439828 L125.159238,53.5439828 L125.159238,62.6595 C125.159238,65.8513966 127.042994,65.8513966 129.346658,65.8513966 L129.346658,68.0731207 C128.334795,68.0731207 125.109666,68.0262241 122.808918,68.0262241 C120.508169,68.0262241 117.423009,68.0731207 116.411147,68.0731207 L116.411147,65.8513966 C118.481528,65.8513966 120.047437,65.6198448 120.047437,62.6595 L120.047437,41.8813966 C120.047437,38.6895 118.251162,38.6895 115.903757,38.6895 L115.903757,36.4707069 C116.962276,36.4707069 120.371116,36.5146724 122.671864,36.5146724 C124.972612,36.5146724 127.687437,36.4707069 131.326643,36.4707069 C134.5022,36.4707069 136.986658,36.4707069 139.704398,36.3769138 C139.704398,36.3769138 139.611085,38.5517414 139.611085,39.8472586 C139.611085,41.1867414 139.704398,43.3176034 139.704398,43.3176034 L137.58736,43.3176034 Z" id="Fill-78" fill="#050000"></path>
                <path d="M149.976116,67.9796207 C147.675368,67.9796207 144.820574,68.0734138 143.808711,68.0734138 L143.808711,65.8516897 C145.879093,65.8516897 147.445002,65.6201379 147.445002,62.6597931 L147.445002,41.8816897 C147.445002,38.9213448 145.879093,38.6897931 143.808711,38.6897931 L143.808711,36.471 C144.820574,36.471 147.722024,36.5618621 150.022773,36.5618621 C152.326437,36.5618621 155.134574,36.471 156.193093,36.471 L156.193093,38.6897931 C154.119795,38.6897931 152.553887,38.9213448 152.553887,41.8816897 L152.553887,62.6597931 C152.553887,65.6201379 154.119795,65.8516897 156.193093,65.8516897 L156.193093,68.0734138 C155.134574,68.0734138 152.27978,67.9796207 149.976116,67.9796207" id="Fill-80" fill="#050000"></path>
                <path d="M189.709948,68.3043793 C186.394421,68.3043793 183.95662,67.1466207 181.011429,63.860931 C178.614452,61.1790345 177.325566,59.1419655 174.747795,55.2554138 C174.747795,55.2554138 173.001093,55.2085172 171.849261,55.1645517 C171.111505,55.1176552 169.592253,54.9769655 169.592253,54.9769655 L169.592253,62.6592069 C169.592253,65.6195517 171.158162,65.8511034 173.228544,65.8511034 L173.228544,68.0728276 C172.170024,68.0728276 169.315231,67.9790345 167.014482,67.9790345 C164.713734,67.9790345 161.85894,68.0728276 160.847078,68.0728276 L160.847078,65.8511034 C162.91746,65.8511034 164.483368,65.6195517 164.483368,62.6592069 L164.483368,41.8811034 C164.483368,38.6892069 162.687093,38.6892069 160.339689,38.6892069 L160.339689,36.4674828 C161.398208,36.4674828 164.804131,36.5143793 167.107795,36.5143793 C169.408544,36.5143793 171.248559,36.4674828 175.532208,36.4674828 C182.437368,36.4674828 185.980345,40.1693793 185.980345,44.8912759 C185.980345,46.7876552 185.289246,48.5462759 184.277383,49.8886897 C182.898101,51.785069 180.73149,53.1714483 179.535918,53.6814483 C180.597353,55.1645517 182.344055,57.568 184.601063,60.205931 C187.222574,63.3538621 190.261078,65.8511034 192.057353,65.8511034 L192.564742,65.8511034 L192.564742,68.025931 C192.564742,68.025931 191.2292,68.3043793 189.709948,68.3043793 M173.829246,39.0585172 C170.881139,39.0585172 169.592253,39.1992069 169.592253,39.1992069 L169.592253,52.5266207 C169.592253,52.5266207 171.064849,52.7552414 172.216681,52.7552414 C173.64262,52.8021379 174.470773,52.8021379 174.470773,52.8021379 C178.063322,52.8021379 180.597353,50.0264483 180.597353,45.4921379 C180.597353,41.1893793 177.879612,39.0585172 173.829246,39.0585172" id="Fill-82" fill="#050000"></path>
                <g id="Group-86" transform="translate(18.496183, 0.782655)">
                    <mask id="mask-4" fill="white">
                        <use xlink:href="#path-3"></use>
                    </mask>
                    <g id="Clip-85"></g>
                    <path d="M3.99341069,0.195275862 L3.99341069,2.22062069 C3.94092214,2.20303448 5.7809374,2.22062069 5.7809374,2.22062069 L5.79260153,3.5982069 L3.96716641,3.5982069 L3.96716641,5.92251724 L3.95258626,5.94303448 C3.46269313,5.88148276 2.89698321,5.87268966 2.42750229,5.95182759 L2.42750229,3.6157931 L0.599151145,3.6157931 L0.599151145,2.29389655 L2.4187542,2.29389655 L2.4187542,0.14837931 C2.89115115,0.168896552 3.53267786,0.163034483 3.95258626,0.163034483 L3.99341069,0.195275862 Z" id="Fill-84" fill="#8C6F4B" mask="url(#mask-4)"></path>
                </g>
                <path d="M21.0601557,7.32215517 C20.9989191,7.34267241 21.0309954,7.40422414 21.0309954,7.44525862 C21.1418046,7.67094828 21.2147053,7.91715517 21.3255145,8.14284483 L21.3371786,10.4935345 C21.3138504,10.5638793 21.3575908,10.6518103 21.2642779,10.6723276 C21.2642779,10.6723276 18.5377893,10.6928448 18.5669496,10.6723276 L18.5377893,10.6869828 C18.4969649,10.9038793 18.5582015,11.0885345 18.5873618,11.2849138 C18.5873618,11.3552586 18.6806748,11.3611207 18.7302473,11.3699138 L24.7868427,11.3699138 C24.8509954,11.2380172 24.8889038,11.0680172 24.8889038,10.9156034 C24.8801557,10.8423276 24.9209802,10.7309483 24.8597435,10.6869828 L22.1624153,10.6781897 L22.133255,10.6576724 L22.1215908,8.3275 C22.1215908,7.9787069 22.3344611,7.70025862 22.419026,7.37491379 L22.3986137,7.34267241 C21.9787053,7.22836207 21.4888122,7.26939655 21.0601557,7.32215517 M23.3696519,7.33094828 C24.623545,8.04025862 25.3700489,9.42663793 25.2184153,10.8423276 C25.1338504,11.9092241 24.6031328,12.9057759 23.6845832,13.5212931 C22.7951939,14.1192241 21.5792092,14.3331897 20.5585985,13.9433621 C19.2405527,13.5007759 18.2695145,12.1993966 18.1995298,10.8012931 C18.0887206,9.43836207 18.7827359,8.00801724 20.039545,7.33094828 C20.7423084,6.91181034 21.6521099,6.83853448 22.4511023,6.99387931 C22.7660336,7.07594828 23.0809649,7.17853448 23.3696519,7.33094828" id="Fill-87" fill="#8C6F4B"></path>
                <path d="M15.3703969,13.266 C15.6882443,13.266 16.0644122,13.2953103 16.3939237,13.3363448 C17.0150382,13.4301379 17.6274046,13.5034138 18.2514351,13.6147931 C18.4963817,13.6763448 18.7617405,13.7291034 19.006687,13.778931 C19.4645038,13.8287586 19.866916,14.0134138 20.3130687,14.1072069 L20.345145,14.1599655 L20.3859695,14.7637586 C20.2722443,14.8047931 20.1410229,14.7315172 20.0185496,14.7432414 C19.4061832,14.6318621 18.7821527,14.5908276 18.149374,14.5058276 C17.382458,14.456 16.6067939,14.4061724 15.8398779,14.4149655 C15.0233893,14.4765172 14.227313,14.4266897 13.4487328,14.6113448 C13.1017252,14.713931 12.7663817,14.9982414 12.7372214,15.3792759 C12.6526565,16.2234138 12.8801069,17.093931 12.9413435,17.9058276 C12.888855,18.0699655 12.7168092,17.9058276 12.5914198,17.9585862 C12.2852366,17.9761724 11.938229,18.0084138 11.652458,18.1022069 C11.5912214,18.1022069 11.5708092,18.0494483 11.5620611,18.0084138 C11.4191756,16.9415172 11.2354656,15.8628966 11.2150534,14.796 C11.2558779,14.3446207 11.4891603,13.8932414 11.9090687,13.6441034 C12.3989618,13.3685862 12.9821679,13.3070345 13.5420458,13.2542759 C13.7899084,13.2747931 14.0231908,13.2454828 14.2768855,13.2249655 C14.6355573,13.2542759 15.0350534,13.2132414 15.3703969,13.266" id="Fill-89" fill="#8C6F4B"></path>
                <path d="M29.9662962,13.3172931 C30.3249679,13.3700517 30.6807237,13.3876379 31.0073191,13.5224655 C31.5292885,13.6045345 31.8967084,14.0647069 32.0716702,14.5395345 C32.1912275,14.8443621 32.1212427,15.2136724 32.1212427,15.5331552 C32.0075176,16.3948793 31.9375328,17.2067759 31.7829832,18.0274655 C31.7129985,18.071431 31.6517618,17.9776379 31.570113,17.9981552 C31.191029,17.9571207 30.8644336,17.9248793 30.4853496,17.9366034 L30.4561893,17.8633276 C30.4970137,17.3826379 30.5699145,16.8667759 30.619487,16.3860862 C30.5990748,16.110569 30.6486473,15.8116034 30.6398992,15.5331552 C30.6311511,15.2576379 30.5378382,14.9586724 30.2841435,14.7857414 C29.9954565,14.5571207 29.6280366,14.5688448 29.2722809,14.495569 C28.2924947,14.4047069 27.4526779,14.4252241 26.4728916,14.4252241 C25.7263878,14.4867759 25.0440366,14.5483276 24.317945,14.6303966 C23.9213649,14.6802241 23.4606321,14.7740172 23.0319756,14.8150517 L22.9882351,14.7652241 L23.0523878,14.1086724 C23.3381588,13.9533276 23.6968305,13.9533276 24.0030137,13.8390172 C24.8282504,13.6338448 25.6243267,13.5224655 26.4933038,13.3993621 C27.4526779,13.3260862 28.4353802,13.2029828 29.4151664,13.2850517 L29.9662962,13.3172931 Z" id="Fill-91" fill="#8C6F4B"></path>
                <path d="M10.4382229,13.7481552 C10.7239939,13.7774655 11.0622534,13.7891897 11.3480244,13.7891897 C11.3888489,13.8829828 11.2459634,13.9240172 11.2342992,13.9943621 C11.0826656,14.1907414 11.0418412,14.4340172 10.9572763,14.6626379 L10.9193679,14.7036724 C10.2836733,14.7036724 9.52842137,14.6919483 8.86356641,14.7329828 C7.77297099,14.7945345 6.74069618,14.9586724 5.69092519,15.175569 C5.06689466,15.3924655 4.23874198,15.5243621 3.99379542,16.2717759 C3.91214656,16.8785 4.09585649,17.4529828 4.15709313,18.0274655 C4.21832977,18.2121207 4.21832977,18.4583276 4.24749008,18.6547069 C4.13668092,18.6635 4.01420763,18.6341897 3.90048244,18.6253966 C3.61471145,18.6136724 3.30852824,18.6253966 3.01400916,18.6136724 C2.84779542,17.895569 2.69616183,17.1452241 2.53286412,16.4183276 C2.41039084,15.7295345 2.60284885,15.0407414 3.2181313,14.6421207 C3.91214656,14.1790172 4.74904733,14.0969483 5.5772,13.9416034 L6.55698626,13.8419483 C7.47553588,13.7774655 8.37367328,13.7276379 9.2630626,13.736431 C9.65089466,13.7569483 10.0708031,13.7481552 10.4382229,13.7481552" id="Fill-93" fill="#8C6F4B"></path>
                <path d="M34.5622519,13.7897759 C34.7459618,13.7780517 34.950084,13.798569 35.1658702,13.798569 C36.5130763,13.8425345 37.7990458,13.9832241 39.0850153,14.2411552 C39.7498702,14.4170172 40.5255344,14.733569 40.782145,15.4721897 C40.8842061,15.8532241 40.9133664,16.3046034 40.8142214,16.694431 C40.6713359,17.3392586 40.5459466,17.9987414 40.3826489,18.6347759 C40.2922519,18.7051207 40.1581145,18.6640862 40.0677176,18.6347759 C39.7702824,18.6465 39.4524351,18.5849483 39.157916,18.6846034 L39.1258397,18.6465 C39.2308168,17.8433966 39.5749084,17.0637414 39.4232748,16.2225345 C39.341626,15.8942586 39.055855,15.6275345 38.7496718,15.5015 C37.9215191,15.1146034 36.9504809,15.0706379 36.0523435,14.9182241 C35.1337939,14.7951207 34.1015191,14.7951207 33.1625573,14.7452931 C33.0196718,14.7540862 32.8651221,14.7452931 32.7134885,14.7540862 C32.5910153,14.7042586 32.4481298,14.7658103 32.3460687,14.6720172 C32.3139924,14.3642586 32.182771,14.0975345 32.0078092,13.8425345 C32.2848321,13.7897759 32.5385267,13.8102931 32.8155496,13.7897759 C33.2033817,13.8102931 33.611626,13.7370172 33.9907099,13.7897759 C34.1656718,13.7575345 34.378542,13.7897759 34.5622519,13.7897759" id="Fill-95" fill="#8C6F4B"></path>
                <path d="M22.7957771,14.4466207 C22.7141282,15.5252414 22.6820519,16.6947241 22.5829069,17.7821379 L22.5595786,17.8055862 C21.9997008,17.6824828 21.3873344,17.7616207 20.8449527,17.8231724 C20.7428916,16.6624828 20.6904031,15.5252414 20.5795939,14.3440345 C20.6087542,14.3147241 20.5708458,14.2414483 20.6204183,14.2092069 C21.3144336,14.4348966 22.0696855,14.4055862 22.7753649,14.1886897 C22.8570137,14.2619655 22.7753649,14.3645517 22.7957771,14.4466207" id="Fill-97" fill="#8C6F4B"></path>
                <path d="M26.9633679,16.5103621 C27.5873985,16.5396724 28.1472763,16.6217414 28.782971,16.6745 C29.2612,16.7770862 29.8123298,16.7770862 30.3022229,16.9001897 C30.2934748,17.0555345 30.2818107,17.1786379 30.2526504,17.3193276 C30.220574,17.3720862 30.1505893,17.3398448 30.1097649,17.3398448 L30.0776885,17.3105345 C29.4157496,17.2401897 28.7508947,17.1346724 28.0977038,17.0848448 C26.3801618,16.9001897 24.6130473,16.932431 22.8896733,16.9001897 C22.8575969,16.756569 22.8780092,16.592431 22.9188336,16.4576034 L22.9800702,16.4077759 C24.298116,16.4370862 25.6657344,16.4693276 26.9633679,16.5103621" id="Fill-99" fill="#8C6F4B"></path>
                <path d="M20.4778244,16.479 C20.5390611,16.6021034 20.4982366,16.8072759 20.5069847,16.9303793 L19.9879313,16.9421034 C17.8417328,16.9831379 15.7800992,17.0652069 13.7184656,17.331931 C13.5318397,17.3407241 13.368542,17.4022759 13.176084,17.4227931 L13.1352595,17.3817586 C13.1235954,17.2264138 13.082771,17.1062414 13.1148473,16.9626207 C13.3597939,16.8805517 13.6339008,16.8277931 13.8905115,16.8277931 C15.0948321,16.6724483 16.424542,16.5815862 17.6288626,16.5317586 C17.9437939,16.5317586 18.3520382,16.4995172 18.6902977,16.4995172 C19.2618397,16.4995172 19.7517328,16.4379655 20.3466031,16.4672759 C20.3874275,16.4995172 20.437,16.4496897 20.4778244,16.479" id="Fill-101" fill="#8C6F4B"></path>
                <path d="M11.2555863,17.484931 C11.2847466,17.567 11.2964107,17.6783793 11.235174,17.7516552 C9.83547939,17.9685517 8.64865496,18.6045862 7.41517405,19.2083793 C6.64825802,19.6304483 5.91341832,20.1228621 5.23981527,20.6973448 C5.17857863,20.7178621 5.18732672,20.6475172 5.19899084,20.6152759 C5.30105191,20.4306207 5.30105191,20.204931 5.32146412,20.0114828 C6.14961679,19.3226897 7.05650229,18.8302759 7.96630382,18.3583793 C8.86444122,17.9480345 9.77424275,17.567 10.754029,17.3413103 C10.8969145,17.3002759 11.0602122,17.2592414 11.2147618,17.2475172 C11.2439221,17.3295862 11.2235099,17.4028621 11.2555863,17.484931" id="Fill-103" fill="#8C6F4B"></path>
                <path d="M36.2369282,18.7886552 C36.6859969,19.0143448 37.0942412,19.3015862 37.5228977,19.5683103 C37.6774473,19.7441724 37.9836305,19.8350345 37.9952947,20.1017586 C38.0127908,20.2571034 37.9952947,20.4212414 38.0856916,20.5326207 L38.0448672,20.5736552 C37.4937374,20.1134828 36.9426076,19.6826207 36.3185771,19.3426207 C35.3183786,18.7593448 34.2452794,18.3255517 33.160516,18.006069 C32.8164244,17.926931 32.4694168,17.7921034 32.110745,17.7217586 C32.0699206,17.5664138 32.1719817,17.4227931 32.1515695,17.2703793 L32.1719817,17.2498621 C33.5804244,17.6396897 34.971371,18.0588276 36.2369282,18.7886552" id="Fill-105" fill="#8C6F4B"></path>
                <g id="Group-109" transform="translate(0.000000, 17.368862)">
                    <mask id="mask-6" fill="white">
                        <use xlink:href="#path-5"></use>
                    </mask>
                    <g id="Clip-108"></g>
                    <path d="M0.602160305,11.6957069 C0.447610687,11.7572586 0.573,11.962431 0.540923664,12.0855345 C0.581748092,12.6922586 0.573,13.2872586 0.602160305,13.8734655 C0.622572519,14.0669138 0.561335878,14.3043276 0.622572519,14.4772586 C0.593412214,14.7762241 0.642984733,15.0634655 0.642984733,15.3301897 C0.631320611,16.0482931 0.715885496,16.7576034 0.704221374,17.487431 C0.806282443,19.5596724 0.89959542,21.5908793 0.989992366,23.7188103 C1.06289313,24.9703621 1.12412977,26.2834655 1.22619084,27.5467414 C1.30783969,28.3469138 1.34574809,29.1177759 1.4711374,29.9179483 C1.53237405,30.656569 1.66359542,31.3658793 1.7569084,32.1045 C1.9289542,33.0189828 2.08350382,33.8601897 2.26721374,34.7541552 C2.62296947,36.4072586 2.91165649,38.0486379 3.41029771,39.6519138 C3.68732061,40.7070862 4.08681679,41.7153621 4.46298473,42.7295 C5.37278626,45.0186379 6.39339695,47.2579483 7.74351908,49.3507069 C9.13154962,51.4962241 10.7353664,53.5508793 12.4791527,55.4795 C13.4006183,56.4555345 14.3075038,57.4403621 15.2902061,58.3753621 C15.9025725,58.9088103 16.4449542,59.5360517 17.0748168,60.0782931 C18.4016107,61.3122586 19.8333817,62.4407069 21.2534885,63.5193276 C21.4284504,63.6219138 21.5596718,63.7743276 21.7433817,63.8388103 C22.253687,63.5603621 22.7464962,63.1617414 23.2130611,62.8100172 C24.542771,61.8779483 25.7558397,60.746569 26.9922366,59.647431 C27.4529695,59.2370862 27.8320534,58.8589828 28.2607099,58.4486379 C29.0976107,57.686569 29.8732748,56.8160517 30.6285267,55.9719138 C31.0980076,55.5000172 31.517916,54.9782931 31.9582366,54.4653621 C32.2323435,54.1253621 32.5589389,53.7677759 32.8359618,53.4395 C33.1829695,52.9353621 33.5912137,52.5045 33.9411374,51.991569 C34.4397786,51.2705345 34.9996565,50.5846724 35.4516412,49.8431207 C36.4605878,48.3248448 37.2683282,46.7245 37.9740076,45.0713966 C38.1373053,44.6786379 38.2889389,44.2800172 38.4726489,43.8901897 C38.9537939,42.7705345 39.3212137,41.621569 39.7090458,40.4696724 C39.7498702,40.346569 39.7615344,40.2058793 39.8315191,40.091569 C40.0793817,39.0539828 40.3826489,37.9988103 40.6188473,36.9407069 C40.9775191,35.3198448 41.260374,33.6550172 41.4878244,32.0019138 C41.6102977,31.0786379 41.7123588,30.1963966 41.8144198,29.2731207 C41.9135649,28.2355345 42.018542,27.2595 42.1206031,26.2219138 C42.3947099,23.4110517 42.4471985,20.5151897 42.5375954,17.6896724 C42.5288473,17.4053621 42.5492595,17.1562241 42.5492595,16.8807069 C42.5580076,15.8636379 42.5871679,14.9696724 42.6104962,13.996569 C42.6309084,13.4513966 42.6513206,12.897431 42.6513206,12.3639828 C42.6425725,12.1353621 42.7008931,11.9419138 42.6309084,11.7162241 C42.3947099,11.7162241 0.602160305,11.6957069 0.602160305,11.6957069 M23.6038092,1.5132931 C23.8166794,2.05553448 23.6650458,2.68277586 23.3180382,3.11363793 C23.0410153,3.4507069 22.7464962,3.81122414 22.4286489,4.1395 C22.440313,4.2332931 22.5102977,4.32415517 22.5511221,4.41794828 C22.6415191,4.43846552 22.6531832,4.30656897 22.7348321,4.26260345 C23.3267863,3.77018966 23.9099924,2.96122414 24.7585573,3.20743103 C25.4729847,3.4507069 25.6654427,4.2332931 25.7383435,4.88984483 C25.7179313,5.61967241 25.5225573,6.39932759 24.8402061,6.78915517 C24.4611221,6.99432759 23.9799771,6.89174138 23.6446336,6.65725862 C23.1955649,6.3582931 22.8660534,5.92743103 22.4986336,5.55518966 C22.4169847,5.56691379 22.3353359,5.64018966 22.2945115,5.71053448 C22.6240229,6.50191379 22.9506183,7.2932931 23.4288473,8.01139655 C23.6650458,8.29863793 23.9304046,8.56536207 24.2890763,8.65622414 C25.0122519,8.87312069 25.8287405,9.02846552 26.6044046,8.92294828 C27.310084,8.84381034 28.0361756,8.84381034 28.6164656,8.45984483 C29.1063588,8.0407069 29.3425573,7.45743103 29.6487405,6.93277586 C29.8032901,6.59277586 30.0074122,6.28501724 30.1094733,5.92743103 L29.9461756,5.72225862 C29.4358702,6.13260345 28.9955496,6.76863793 28.3423588,6.90053448 L27.9953511,6.91225862 C27.697916,6.8507069 27.4238092,6.66605172 27.2284351,6.43156897 C26.7472901,5.73105172 26.6773053,4.65536207 27.0942977,3.90208621 C27.2896718,3.57381034 27.6279313,3.21622414 28.0449237,3.22501724 C28.8818244,3.10191379 29.4037939,3.91381034 29.9461756,4.40622414 C30.0278244,4.34467241 30.0978092,4.24501724 30.1182214,4.1395 C29.6487405,3.35105172 28.648542,2.53915517 29.1880076,1.52208621 C29.5350153,0.927086207 30.2436107,0.803982759 30.8968015,0.815706897 C31.2729695,0.833293103 31.6608015,0.906568966 31.9990611,1.06191379 C32.4364656,1.28760345 32.7951374,1.7595 32.754313,2.28415517 C32.6522519,3.10191379 31.8561756,3.57381034 31.4041908,4.21277586 C31.415855,4.32415517 31.517916,4.40622414 31.5587405,4.50001724 C31.9378244,4.16001724 32.3344046,3.80243103 32.7339008,3.51518966 C33.040084,3.2982931 33.4599924,3.20743103 33.8157481,3.35984483 C34.5826641,3.86398276 34.6847252,4.75501724 34.5505878,5.60794828 C34.4193664,6.10036207 34.1219313,6.63381034 33.611626,6.84191379 C33.2442061,6.96208621 32.8242977,6.86243103 32.5297786,6.64553448 C32.182771,6.39932759 31.8445115,6.11208621 31.5587405,5.80432759 L31.5383282,5.80432759 L31.3546183,5.97725862 C31.4683435,6.30846552 31.6724656,6.58398276 31.8357634,6.89174138 C32.1011221,7.36363793 32.3956412,7.81501724 32.7426489,8.23708621 C33.3054427,8.93467241 34.285229,8.79984483 35.1133817,8.89363793 C35.337916,8.86432759 35.6032748,8.89363793 35.8394733,8.83208621 C36.3089542,8.84381034 36.7580229,8.70018966 37.1662672,8.51553448 C37.9944198,7.81501724 38.5455496,6.8507069 38.962542,5.9157069 C38.9537939,5.84536207 38.9013053,5.78381034 38.8400687,5.73984483 C38.7496718,5.78381034 38.6884351,5.86587931 38.6067863,5.93622414 C38.0760687,6.52243103 37.3295649,7.13794828 36.4926641,6.8507069 C35.8190611,6.61622414 35.7053359,5.88639655 35.6557634,5.25915517 C35.623687,4.93087931 35.7344962,4.65536207 35.7869847,4.34467241 C35.9298702,3.86398276 36.288542,3.38036207 36.8192595,3.31881034 C37.6765725,3.25725862 38.2889389,3.98708621 38.8109084,4.60260345 C38.9013053,4.61139655 38.9742061,4.50881034 39.0150305,4.43846552 C38.6067863,3.75260345 37.9011069,2.96122414 38.3414275,2.0995 C38.8604809,1.28760345 40.0356412,1.4195 40.8433817,1.61587931 C40.965855,1.64518966 41.0999924,1.64518966 41.1991374,1.72725862 C40.3330763,4.64363793 39.6157328,7.67139655 38.962542,10.6493276 C38.9333817,10.7607069 38.9742061,10.8750172 38.9013053,10.9776034 C38.9013053,11.1945 38.8604809,11.1476034 38.9421298,11.1886379 L43.1907863,11.1886379 L43.2228626,11.3351897 C43.1907863,13.3282931 43.1412137,15.3712241 43.068313,17.3731207 C43.1003893,17.5255345 43.068313,17.7131207 43.068313,17.8772586 C43.068313,18.4605345 43.0391527,19.1405345 43.0187405,19.7443276 C42.9983282,20.3627759 42.9458397,20.9958793 42.9458397,21.6348448 C42.9458397,21.9308793 42.9050153,22.2591552 42.9283435,22.5463966 C42.8146183,24.4457069 42.7329695,26.3567414 42.4880229,28.2238103 C42.3947099,28.9741552 42.3334733,29.6922586 42.2518244,30.4308793 C42.1206031,31.2017414 42.0914427,31.9286379 41.9368931,32.7200172 C41.8231679,33.5436379 41.6715344,34.311569 41.5373969,35.1351897 C41.4061756,35.9236379 41.2312137,36.6827759 41.067916,37.4536379 C40.6596718,39.1360517 40.1901908,40.7803621 39.6273969,42.4012241 C39.5165878,42.5976034 39.4961756,42.8320862 39.3911985,43.0255345 C38.7904962,44.7138103 38.0148321,46.3434655 37.2070916,47.9467414 C36.8396718,48.5798448 36.5130763,49.2070862 36.1048321,49.8138103 C36.0435954,50.0277759 35.8278092,50.1713966 35.7461603,50.376569 C35.3904046,50.8719138 35.052145,51.3643276 34.7051374,51.8245 C34.4397786,52.1439828 34.2560687,52.4927759 33.9790458,52.8005345 C33.2558702,53.7150172 32.6026794,54.6382931 31.803687,55.4912241 C31.3546183,56.0041552 30.8734733,56.496569 30.4273206,57.0212241 C30.0074122,57.4198448 29.6283282,57.8712241 29.2113359,58.2639828 C28.7506031,58.7651897 28.2402977,59.216569 27.7387405,59.6913966 C27.7299924,59.7705345 27.6162672,59.7705345 27.5754427,59.8555345 C27.1059618,60.3362241 26.5635802,60.7260517 26.0620229,61.1979483 C24.735229,62.3996724 23.2568015,63.4577759 21.8046183,64.4631207 C21.7521298,64.4836379 21.7025573,64.4953621 21.6617328,64.4631207 C19.7109084,62.9741552 17.8213206,61.5262241 16.0133817,59.8027759 C15.3106183,59.0729483 14.5553664,58.4163966 13.8700992,57.686569 C13.563916,57.3582931 13.176084,57.0007069 12.8582366,56.6401897 C11.6335038,55.3153621 10.3854427,53.9319138 9.31525954,52.4927759 C8.53959542,51.4669138 7.77267939,50.4498448 7.13990076,49.362431 C5.82185496,47.2462241 4.7370916,45.0186379 3.87103053,42.7119138 C3.42196183,41.4457069 2.96122901,40.1853621 2.66670992,38.8605345 C2.53257252,38.397431 2.38968702,37.9343276 2.30803817,37.4419138 C1.96103053,36.1698448 1.76565649,34.8450172 1.4798855,33.552431 C1.16203817,31.8993276 0.949167939,30.1641552 0.785870229,28.4700172 C0.745045802,27.8457069 0.654648855,27.2272586 0.631320611,26.6322586 C0.581748092,26.2013966 0.593412214,25.7412241 0.540923664,25.3103621 C0.52051145,24.1379483 0.377625954,23.0182931 0.365961832,21.8576034 C0.365961832,21.5000172 0.325137405,21.1307069 0.316389313,20.7613966 C0.348465649,20.6470862 0.284312977,20.5357069 0.284312977,20.4126034 C0.295977099,19.9289828 0.234740458,19.4277759 0.225992366,18.9529483 L0.193916031,18.0413966 C0.141427481,17.1562241 0.141427481,16.2857069 0.112267176,15.3595 C0.132679389,15.1250172 0.0918549618,14.9081207 0.0918549618,14.6619138 C0.059778626,13.5657069 0.0189541985,12.4343276 -0.00145801527,11.3351897 C0.0422824427,11.2853621 -0.021870229,11.1827759 0.0714427481,11.1622586 L4.45132061,11.1622586 L4.47173282,11.0889828 C3.99350382,8.33087931 3.30823664,5.61967241 2.57339695,2.9407069 C2.43925954,2.53915517 2.32845038,2.11708621 2.19431298,1.70674138 C2.2059771,1.68622414 2.21764122,1.65691379 2.22638931,1.63639655 C2.89124427,1.50156897 3.52110687,1.37846552 4.21803817,1.54260345 C4.64669466,1.6657069 5.00245038,2.04674138 5.07535115,2.48639655 C5.16574809,3.18691379 4.7370916,3.75846552 4.41341221,4.32415517 C4.38133588,4.3857069 4.27927481,4.43846552 4.34051145,4.50881034 C4.40174809,4.54984483 4.4309084,4.64363793 4.51255725,4.66415517 L4.58545802,4.63484483 C5.06660305,4.01639655 5.65855725,3.14587931 6.51587023,3.26898276 C7.16031298,3.35105172 7.59771756,4.00760345 7.72019084,4.59087931 C7.86307634,5.30018966 7.74351908,6.03001724 7.27112214,6.55174138 C6.9241145,6.91225862 6.39339695,6.99432759 5.93266412,6.84191379 C5.44277099,6.62501724 4.96454198,6.23518966 4.61461832,5.80432759 C4.50380916,5.77208621 4.47173282,5.95674138 4.41341221,6.03001724 C4.69626718,6.71587931 5.13658779,7.36363793 5.59732061,7.96156897 C5.97348855,8.47156897 6.53628244,8.77932759 7.16031298,8.8232931 C7.89223664,8.94639655 8.73205344,9.00794828 9.47855725,8.8232931 C9.88680153,8.70018966 10.3242061,8.71777586 10.6128931,8.29863793 C11.2048473,7.56881034 11.5926794,6.76863793 12.0009237,5.96846552 C11.9192748,5.88639655 11.8988626,5.77208621 11.7968015,5.71053448 C11.458542,6.05932759 11.1231985,6.44036207 10.7149542,6.71587931 C10.3766947,6.89174138 9.93637405,6.91225862 9.5981145,6.71587931 C8.95658779,6.31725862 8.73205344,5.54639655 8.79329008,4.8282931 C8.8428626,4.31536207 9.01782443,3.7907069 9.45814504,3.46243103 C9.76432824,3.26898276 10.1113359,3.25725862 10.4379313,3.36863793 C10.9190763,3.63536207 11.3360687,4.03691379 11.7763893,4.36518966 C11.8259618,4.31536207 11.8667863,4.24501724 11.9192748,4.17174138 C11.8580382,4.03691379 11.7239008,3.92553448 11.6014275,3.80243103 C11.1815191,3.33053448 10.7237023,2.82639655 10.7353664,2.16984483 C10.7645267,1.7595 11.0094733,1.37846552 11.365229,1.15277586 C11.7851374,0.906568966 12.2954427,0.795189655 12.8086641,0.845017241 C13.4414427,0.877258621 14.0946336,1.19381034 14.3308321,1.82984483 C14.5028779,2.40725862 14.1762824,2.90846552 13.9196718,3.35105172 C13.7242977,3.57381034 13.5522519,3.84346552 13.3364656,4.07794828 C13.3364656,4.20105172 13.4297786,4.26260345 13.4910153,4.34467241 C13.6339008,4.29484483 13.6747252,4.1395 13.8088626,4.06622414 C14.3075038,3.61777586 14.8790458,3.09312069 15.5963893,3.25725862 C16.1679313,3.35105172 16.4128779,3.94312069 16.5353511,4.43846552 C16.6286641,5.01294828 16.5965878,5.64018966 16.3603893,6.15312069 C16.1766794,6.6045 15.6984504,6.88001724 15.2377176,6.87122414 C14.4912137,6.86243103 13.940084,6.24398276 13.461855,5.73984483 C13.3597939,5.73105172 13.3277176,5.85415517 13.2868931,5.92743103 C13.3802061,6.39932759 13.6834733,6.75691379 13.8700992,7.1907069 C14.0946336,7.60984483 14.3804046,8.02018966 14.7157481,8.3807069 C15.3281145,8.88191379 16.2087557,8.84381034 16.9640076,8.95518966 C17.0573206,8.93467241 17.1972901,8.93467241 17.2906031,8.95518966 C17.9058855,8.93467241 18.5474122,8.84381034 19.1189542,8.68846552 C19.7633969,8.36898276 20.1104046,7.70363793 20.4574122,7.11743103 C20.6702824,6.64553448 20.918145,6.18243103 21.0289542,5.6607069 C21.008542,5.59622414 20.9473053,5.52587931 20.8948168,5.47312069 C20.8131679,5.46432759 20.8044198,5.55518966 20.7723435,5.59622414 C20.3874275,6.07105172 20.0287557,6.59277586 19.4455496,6.78915517 C19.0693817,6.93277586 18.5794885,6.91225862 18.2616412,6.6045 C17.5472137,5.90398276 17.5355496,4.68467241 17.9350458,3.81122414 C18.045855,3.50346552 18.3637023,3.24846552 18.6786336,3.20743103 C19.191855,3.12536207 19.6088473,3.33932759 19.9762672,3.67932759 C20.2737023,3.91381034 20.5186489,4.20105172 20.8131679,4.44725862 C20.9064809,4.41794828 20.9064809,4.30656897 20.9677176,4.2332931 L20.9064809,4.09846552 C20.3466031,3.40967241 19.477626,2.72381034 19.7225725,1.74777586 C19.7838092,1.33743103 20.1104046,1.00036207 20.4778244,0.845017241 C21.1106031,0.598810345 21.865855,0.578293103 22.5190458,0.689672414 C22.9593664,0.783465517 23.4405115,1.05018966 23.6038092,1.5132931" id="Fill-107" fill="#8C6F4B" mask="url(#mask-6)"></path>
                </g>
                <path d="M18.9256214,35.2458276 C19.1618198,35.4832414 19.5175756,35.4392759 19.8237588,35.4920345 C20.1999267,35.5213448 20.611087,35.5213448 21.0076672,35.5535862 L21.1942931,35.5418621 C21.3663389,35.7265172 21.5500489,35.9111724 21.7220947,36.0870345 L21.6841863,36.1163448 C20.9172702,36.0372069 20.0978656,36.0665172 19.3222015,35.9522069 C18.9664458,35.8818621 18.6398504,35.7177241 18.3540794,35.451 C18.3336672,35.3484138 18.3336672,35.2253103 18.4036519,35.1432414 C18.5786137,34.9263448 18.7623237,35.1842759 18.9256214,35.2458276" id="Fill-110" fill="#8C6F4B"></path>
                <path d="M10.274342,53.2713966 C10.1606168,53.2626034 10.0381435,53.2098448 9.92733435,53.2420862 C9.91567023,53.4062241 9.88650992,53.6113966 9.94774656,53.7638103 L10.5513649,53.5703621 C10.6942504,53.5263966 10.5805252,53.3945 10.560113,53.3241552 L10.274342,53.2713966 Z M20.8653649,41.0255345 C20.2734107,41.1076034 19.6202198,41.1193276 19.0166015,41.2307069 C18.5675328,41.2717414 18.1592885,41.5062241 17.8822656,41.8960517 C17.4536092,42.6463966 17.0162046,43.3850172 16.6079603,44.1236379 L16.5962962,44.2086379 C16.6575328,44.2291552 16.7100214,44.2907069 16.771258,44.2789828 C17.0366168,43.8598448 17.2698992,43.4377759 17.5031817,42.9981207 C17.8531053,42.4822586 18.0659756,41.7729483 18.7104183,41.5062241 C19.4365099,41.3332931 20.212174,41.3127759 20.9878382,41.2189828 C20.9878382,41.2101897 20.9878382,41.1896724 20.9965863,41.1808793 C20.9790901,41.0958793 20.9878382,40.9962241 20.8653649,41.0255345 L20.8653649,41.0255345 Z M22.4808458,35.4595 C22.3991969,35.4917414 22.3262962,35.3979483 22.2650595,35.4712241 C22.2942198,35.717431 22.3758687,35.9313966 22.4808458,36.1482931 C23.0932122,36.1805345 23.7259908,36.2391552 24.3675176,36.2508793 L24.3995939,36.221569 C24.3675176,35.9929483 24.2975328,35.7672586 24.2362962,35.5532931 C23.6735023,35.4917414 23.0319756,35.4917414 22.4808458,35.4595 L22.4808458,35.4595 Z M27.5664031,34.6388103 C27.6684641,34.7648448 27.8200977,34.8439828 27.945487,34.9553621 C27.9833954,35.1839828 27.9338229,35.4096724 27.8842504,35.6148448 L27.9134107,35.6148448 C28.0971206,35.4096724 28.2691664,35.2132931 28.4353802,34.9876034 C28.4353802,34.8645 28.4966168,34.7208793 28.4353802,34.5977759 C28.1583573,34.4131207 27.8405099,34.5684655 27.5664031,34.6388103 L27.5664031,34.6388103 Z M23.3673191,32.8420862 C23.0611359,33.0589828 22.787029,33.3139828 22.498342,33.5601897 C22.5420824,33.6539828 22.5100061,33.7770862 22.5829069,33.8298448 C22.7666168,33.7360517 22.9299145,33.6334655 23.1340366,33.5836379 C23.2448458,33.592431 23.355655,33.4986379 23.4693802,33.5719138 C23.4606321,33.6217414 23.4489679,33.6657069 23.4198076,33.6950172 C23.265258,33.8679483 23.3964794,34.1053621 23.4693802,34.2695 C23.5422809,34.3632931 23.6647542,34.3427759 23.7580672,34.3808793 C23.9709374,34.351569 24.2654565,34.4248448 24.3879298,34.187431 C24.5104031,34.0526034 24.3879298,33.8884655 24.4404183,33.7448448 C25.0527847,33.6832931 25.6768153,33.7038103 26.2891817,33.8386379 C26.5545405,33.9207069 26.8286473,34.0027759 27.0765099,34.1376034 C27.2689679,34.187431 27.4031053,34.0232931 27.5868153,34.0145 C27.6363878,34.0027759 27.7297008,34.0027759 27.750113,33.9412241 C26.9744489,33.7448448 26.2162809,33.5426034 25.4406168,33.3462241 C24.7582656,33.1703621 24.0525863,33.0179483 23.3673191,32.8420862 L23.3673191,32.8420862 Z M23.2360977,30.5558793 C23.4198076,30.4708793 23.6326779,30.3888103 23.8368,30.4708793 C24.0117618,30.5851897 24.1954718,30.7786379 24.1750595,31.0043276 C24.1633954,31.2095 24.0525863,31.467431 23.8280519,31.5377759 C23.644342,31.5993276 23.4198076,31.5817414 23.2740061,31.4469138 C23.2360977,31.4381207 23.2360977,31.4879483 23.2127695,31.4967414 C23.2856702,31.807431 23.551029,32.1562241 23.8863725,32.2060517 C24.215884,32.3086379 24.603716,32.4317414 24.9507237,32.3408793 C25.1256855,32.2676034 25.2889832,32.1562241 25.4406168,32.0419138 C25.4406168,31.9920862 25.3997924,31.9510517 25.3706321,31.9070862 C25.175258,31.9803621 24.9419756,31.9510517 24.787426,31.7839828 C24.6737008,31.6520862 24.6445405,31.5084655 24.6532885,31.3120862 C24.6737008,31.1186379 24.8078382,30.9339828 24.9915481,30.8519138 C25.1956702,30.7581207 25.4318687,30.8313966 25.5951664,30.9545 C25.7059756,30.7581207 25.9217618,30.5939828 26.1550443,30.5939828 C26.3504183,30.6350172 26.5749527,30.6760517 26.6682656,30.8812241 C26.7586626,30.9750172 26.7295023,31.1186379 26.7382504,31.2417414 C26.9015481,31.2622586 27.0648458,31.2739828 27.1960672,31.3648448 C27.371029,31.4967414 27.4322656,31.7048448 27.4031053,31.9070862 C27.371029,32.1151897 27.1873191,32.3203621 26.991945,32.3819138 C26.7790748,32.4229483 26.5866168,32.3701897 26.4320672,32.226569 C26.3912427,32.2470862 26.3300061,32.2763966 26.318342,32.3291552 C26.411655,32.6691552 26.7382504,32.9563966 27.0765099,33.0179483 C27.4526779,33.1117414 27.9746473,33.3257069 28.3304031,33.0267414 C28.4033038,32.9769138 28.5666015,32.9446724 28.5257771,32.821569 C28.4149679,32.7717414 28.2808305,32.8420862 28.1583573,32.7717414 C27.9833954,32.7600172 27.8842504,32.5753621 27.8113496,32.4434655 C27.7617771,32.2060517 27.8317618,31.9510517 27.9950595,31.7839828 C28.1087847,31.6608793 28.2604183,31.6110517 28.423716,31.631569 C28.6190901,31.6608793 28.8202962,31.7751897 28.8815328,31.9686379 C28.9048611,31.9920862 28.8815328,32.0213966 28.9136092,32.0301897 C28.9660977,32.062431 28.995258,31.9598448 29.0448305,31.9598448 C29.2722809,31.7957069 29.5959603,31.807431 29.852571,31.8982931 C29.9371359,31.9070862 29.8963115,31.9803621 29.8846473,32.0301897 C29.3947542,32.6486379 28.9660977,33.3139828 28.4645405,33.9529483 C28.4966168,34.0526034 28.6365863,33.9822586 28.6890748,34.0643276 C28.8028,34.1258793 28.9456855,34.1463966 29.0040061,34.2812241 C29.0360824,34.5567414 29.0769069,34.8439828 28.995258,35.1136379 C28.8319603,35.4096724 28.6278382,35.6763966 28.4149679,35.9313966 C28.3624794,36.6729483 28.4441282,37.3089828 28.3012427,38.006569 C28.1087847,39.196569 27.6772122,40.307431 27.2077313,41.3831207 C26.6682656,42.5027759 25.9217618,43.5403621 25.3910443,44.6600172 C25.2364947,45.0381207 25.1840061,45.4689828 25.1840061,45.8910517 C24.9711359,45.8382931 24.7670137,45.747431 24.5628916,45.6653621 L24.5424794,45.7151897 C24.5104031,45.9936379 24.5424794,46.2691552 24.501655,46.5388103 C24.5220672,47.3389828 24.4812427,48.0776034 24.4812427,48.8777759 C24.4899908,50.8093276 24.3879298,52.7584655 24.5104031,54.7105345 C25.3093954,55.601569 25.749716,56.6391552 26.1958687,57.6767414 C27.0356855,59.5731207 27.7996855,61.5163966 28.8931969,63.3131207 C29.281029,63.8876034 29.753426,64.4738103 30.3541282,64.8108793 C31.0568916,65.3120862 31.9987695,65.3355345 32.8065099,65.0776034 C33.7338076,64.8196724 34.5123878,63.9169138 34.7135939,62.9936379 C34.8564794,62.0176034 34.6436092,61.0650172 34.2674412,60.2120862 C33.7862962,59.1451897 33.1126931,58.157431 32.529487,57.1432931 C31.570113,55.3553621 30.2433191,53.7139828 29.945884,51.6505345 C29.8029985,50.3989828 30.1587542,49.1767414 30.9460824,48.2212241 C31.3251664,47.7288103 31.7829832,47.3184655 32.243716,46.8876034 C33.0922809,46.0757069 33.9904183,45.4396724 34.8973038,44.7420862 C36.1249527,43.7455345 37.402174,42.8632931 38.5656702,41.7231207 C39.5862809,40.6445 40.2278076,39.3812241 40.1986473,37.8629483 C40.2103115,37.6050172 40.1578229,37.3295 40.1169985,37.071569 C39.9537008,36.4853621 39.7087542,35.9313966 39.2800977,35.4595 C38.8222809,35.0403621 38.3003115,34.7091552 37.6966931,34.5772586 C36.7052427,34.3720862 35.675884,34.7003621 34.9993649,35.4595 C34.6523573,35.9226034 34.3899145,36.5176034 34.5502962,37.1038103 C35.104342,37.2562241 35.6438076,37.3500172 36.154113,37.5757069 C36.3990595,37.7926034 36.4515481,38.1296724 36.5827695,38.4051897 C36.7489832,38.8184655 36.9326931,39.2288103 36.8189679,39.7300172 C36.7985557,40.5419138 36.6440061,41.3538103 36.5011206,42.1451897 C36.4311359,42.2067414 36.3290748,42.1539828 36.2357618,42.1627759 L36.2066015,42.1129483 C36.1249527,41.5179483 36.0433038,40.9112241 35.6846321,40.4188103 C35.5329985,40.2048448 35.4513496,39.9263966 35.2151511,39.7622586 C35.1743267,39.7739828 35.1451664,39.7505345 35.104342,39.7622586 L35.0839298,39.8150172 C35.2151511,40.2429483 35.3667847,40.7177759 35.2355634,41.1808793 C35.1830748,41.3948448 35.1830748,41.6527759 35.0926779,41.8550172 C34.0895634,42.7196724 32.9902198,43.446569 31.957945,44.217431 C31.3047542,44.7626034 30.5903267,45.2755345 30.1091817,45.9613966 L29.9138076,46.2603621 L29.6397008,46.1782931 L29.6192885,46.1050172 C30.427029,44.2907069 31.5788611,42.6170862 32.7627695,40.9757069 C33.0689527,40.6650172 33.0193802,40.1843276 33.007716,39.7827759 C32.9989679,39.7505345 32.9581435,39.7212241 32.9377313,39.7622586 C32.6723725,39.9058793 32.427426,40.0905345 32.1824794,40.2663966 C31.9258687,40.4276034 31.7421588,40.7177759 31.5088763,40.8907069 C31.4155634,40.8613966 31.3339145,40.811569 31.284342,40.7177759 C31.7946473,39.7300172 32.2553802,38.7158793 32.9902198,37.8131207 L33.007716,37.2679483 C33.1126931,36.5176034 33.2847389,35.7789828 33.7250595,35.1429483 C33.8766931,34.8645 34.1741282,34.6300172 34.4307389,34.3926034 C34.8069069,34.1053621 35.2151511,33.8591552 35.6554718,33.7155345 C37.2184641,33.2231207 38.8718534,33.5836379 39.9945252,34.8029483 C40.5777313,35.4419138 40.9772275,36.1600172 41.1288611,36.9807069 C41.1900977,37.2562241 41.1609374,37.5229483 41.2425863,37.7926034 C41.2309221,37.9538103 41.222174,38.1091552 41.2309221,38.2850172 C41.2309221,38.777431 41.0997008,39.2493276 40.9859756,39.7095 C40.6506321,41.0460517 39.9332885,42.2272586 39.0759756,43.3234655 C38.4927695,44.0122586 37.8104183,44.7010517 37.2068,45.3576034 C36.6644183,45.9819138 36.0112275,46.506569 35.5125863,47.1719138 L35.5417466,47.2070862 L36.728571,46.9784655 C37.402174,47.0722586 38.1166015,47.2363966 38.7785405,47.3272586 C39.1080519,47.2862241 39.4346473,47.1953621 39.7495786,47.1836379 C39.781655,47.2862241 39.8720519,47.4005345 39.8312275,47.5031207 C38.7610443,48.0482931 37.6471206,48.4879483 36.5652733,49.0008793 C35.8800061,49.2881207 35.203487,49.6163966 34.529884,49.9270862 C34.3899145,49.9563966 34.337426,50.1000172 34.346174,50.2319138 L34.3957466,50.2758793 C34.8681435,50.1820862 35.3172122,50.0589828 35.8071053,50.0091552 C36.4719603,50.1088103 37.1047389,50.2934655 37.7579298,50.4195 C38.0961893,50.3872586 38.4111206,50.3257069 38.7289679,50.2934655 C38.7785405,50.3872586 38.8222809,50.4986379 38.8397771,50.6041552 L38.7902046,50.6627759 C37.4225863,51.2284655 36.0841282,51.8732931 34.7135939,52.4507069 C34.5123878,52.5943276 34.2674412,52.6148448 34.0720672,52.7789828 C34.0895634,52.8727759 33.9991664,53.0251897 34.1333038,53.0339828 C34.3665863,53.0046724 34.6231969,52.9636379 34.8681435,52.9343276 C35.5504947,53.1189828 36.2357618,53.2919138 36.9618534,53.4150172 C37.1951359,53.4150172 37.402174,53.3329483 37.6062962,53.3857069 C37.6150443,53.5088103 37.7171053,53.5996724 37.6762809,53.7227759 C36.5652733,54.1741552 35.4717618,54.6782931 34.3782504,55.1707069 L34.337426,55.2117414 C34.4511511,56.0119138 34.7777466,56.7417414 34.9993649,57.5008793 C35.0606015,57.6063966 35.0839298,57.7353621 35.1218382,57.8613966 C35.5125863,59.0513966 35.9820672,60.2853621 35.9704031,61.6072586 C35.9908153,63.1372586 35.4513496,64.6467414 34.1624641,65.5817414 C33.4072122,66.0946724 32.5703115,66.3819138 31.6400977,66.3731207 C30.526174,66.3731207 29.4559908,66.0331207 28.607426,65.2739828 C27.5255786,64.3389828 26.7586626,63.1284655 25.933426,61.9882931 C25.7176397,61.6893276 25.4814412,61.381569 25.3298076,61.0445 C25.3093954,60.027431 25.1840061,59.1041552 25.1548458,58.0782931 C25.0411206,57.3777759 24.7174412,56.7622586 24.4520824,56.1262241 C24.3791817,56.0763966 24.317945,56.1672586 24.2654565,56.1995 C24.4287542,56.6801897 24.6532885,57.1432931 24.8282504,57.6239828 C24.9098992,57.9229483 24.9507237,58.2805345 24.9711359,58.5882931 C25.0848611,60.3645 25.1635939,62.2345 25.2977313,64.0195 C25.3589679,64.9251897 25.3706321,65.8279483 25.6564031,66.6486379 C25.7059756,66.9358793 26.0034107,67.1322586 26.1550443,67.3579483 C26.1462962,67.8298448 26.1754565,68.3017414 26.1054718,68.7531207 C26.0967237,68.9084655 26.0733954,69.0608793 26.0442351,69.2162241 L25.6039145,69.7701897 C25.5747542,70.4267414 25.554342,70.9895 25.5135176,71.6372586 C25.4406168,72.5107069 25.3910443,73.372431 25.2773191,74.2370862 C25.175258,74.9845 25.1635939,75.7436379 25.2889832,76.4822586 C25.175258,76.5438103 25.0323725,76.5760517 24.9186473,76.6082931 C24.6737008,76.2976034 24.3471053,75.9693276 23.9913496,75.8169138 C23.551029,75.8872586 23.1836092,76.1862241 22.8249374,76.4412241 L22.7957771,76.4822586 C22.9882351,76.9453621 23.1427847,77.4377759 23.3177466,77.9213966 C23.1136244,78.1969138 22.8366015,78.4958793 22.4895939,78.557431 L22.4371053,78.6189828 C22.3758687,79.0908793 22.5100061,79.4807069 22.6324794,79.8705345 C22.5595786,79.9350172 22.4487695,79.911569 22.3467084,79.8939828 L22.1834107,79.8617414 C21.9676244,79.6243276 21.8364031,79.3282931 21.6731053,79.0586379 C21.5506321,78.6893276 21.3435939,78.3522586 21.2531969,77.9712241 C21.3435939,77.4993276 21.4893954,77.0479483 21.6935176,76.6258793 C21.7139298,76.5350172 21.6118687,76.5350172 21.5710443,76.4734655 C21.3348458,76.6258793 21.1511359,76.8632931 20.9382656,77.0596724 C20.7428916,77.2208793 20.5795939,77.4289828 20.3550595,77.5403621 C20.1392733,77.4905345 19.9468153,77.3879483 19.7514412,77.2853621 C19.5881435,77.191569 19.5473191,76.9863966 19.3636092,76.9453621 C19.1303267,77.0069138 18.9262046,77.1593276 18.7191664,77.2853621 L18.3109221,77.7132931 C18.2321893,77.6341552 18.2817618,77.4905345 18.2409374,77.3879483 C18.1184641,77.1417414 18.3634107,76.9746724 18.4363115,76.772431 C18.6375176,76.3181207 19.0865863,76.0338103 19.4365099,75.7026034 C19.9468153,75.5589828 20.4658687,75.5062241 21.0082504,75.4476034 C21.0374107,75.4153621 21.069487,75.3538103 21.0286626,75.3039828 C20.6000061,75.0138103 20.1305252,74.8203621 19.6902046,74.5419138 L19.5881435,74.4217414 C19.5793954,74.0495 19.6814565,73.6919138 19.8126779,73.3607069 C19.6406321,73.1467414 19.538571,72.8712241 19.2615481,72.7276034 C19.0778382,72.6338103 18.873716,72.5312241 18.7191664,72.3876034 L18.7191664,72.3670862 L19.1390748,72.182431 C19.538571,72.2938103 19.9555634,72.3788103 20.3229832,72.5107069 C20.6000061,72.7041552 20.8857771,72.9005345 21.159884,73.0969138 C21.2940214,73.2610517 21.448571,73.4339828 21.5302198,73.6391552 C21.7547542,73.9586379 21.8976397,74.3162241 22.0609374,74.6650172 C22.3583725,74.6357069 22.6820519,74.5653621 22.9503267,74.4510517 C23.0815481,74.2869138 23.0728,74.0612241 23.1019603,73.8648448 C23.1952733,72.8712241 23.0932122,71.8336379 22.9707389,70.8576034 C22.8570137,69.7496724 22.6528916,68.7120862 22.5508305,67.6657069 L22.498342,67.4370862 C21.5185557,66.1562241 20.3871359,64.9750172 19.2732122,63.7938103 C18.8533038,63.2838103 18.4363115,62.7796724 18.1476244,62.1934655 C17.9551664,61.1763966 17.821029,60.1798448 17.9055939,59.1158793 C18.5791969,57.8819138 19.8330901,57.1432931 20.7633038,56.1057069 C21.1511359,55.5517414 21.5185557,55.006569 21.8568153,54.411569 C21.8043267,54.3617414 21.734342,54.2884655 21.641029,54.2796724 C21.159884,55.0476034 20.7633038,55.8477759 20.0372122,56.4750172 C19.7514412,56.8032931 19.3869374,57.0084655 19.0982504,57.3162241 C18.6200214,57.7295 18.2205252,58.2307069 17.8414412,58.7231207 C17.628571,58.9195 17.6577313,59.1950172 17.628571,59.4529483 C17.5644183,60.0479483 17.7306321,60.6107069 17.7510443,61.1969138 C17.7918687,61.5750172 17.8414412,61.9384655 17.914342,62.3077759 C18.1884489,62.8822586 18.6287695,63.3834655 19.0166015,63.8963966 C18.7308305,64.5148448 18.302174,65.0570862 17.9872427,65.6432931 C17.8647695,65.9305345 17.9959908,66.2793276 17.9260061,66.5753621 C17.3515481,67.0296724 16.6662809,67.1820862 15.9518534,67.2641552 L15.8002198,67.2553621 C15.4940366,67.0501897 15.1761893,66.8127759 14.8816702,66.566569 C13.6948458,66.3731207 12.6129985,66.0419138 11.4699145,65.7341552 C10.9071206,65.5905345 10.3268305,65.3970862 9.72321221,65.4703621 C9.60948702,65.4996724 9.49576183,65.4351897 9.39661679,65.4879483 C9.31496794,65.4791552 9.18083053,65.5201897 9.18957863,65.3853621 C9.18957863,65.2945 9.07002137,65.2007069 9.16041832,65.1098448 C9.44618931,64.9134655 9.7028,64.7200172 9.92733435,64.4327759 C10.1197924,64.0722586 9.74362443,63.8055345 9.62989924,63.4977759 C9.54825038,63.4245 9.54825038,63.2896724 9.43744122,63.2838103 L8.37600611,63.7820862 C8.00567023,63.7938103 7.74031145,63.7439828 7.41371603,63.682431 C7.08712061,63.5798448 6.80134962,63.3951897 6.49516641,63.2603621 C6.3318687,63.1489828 6.3318687,62.9438103 6.27063206,62.7796724 L6.29979237,62.7562241 C6.46309008,62.8500172 6.65846412,62.8617414 6.84217405,62.911569 L7.32040305,62.8822586 C7.38455573,62.7562241 7.39621985,62.6038103 7.42538015,62.4601897 L7.50411298,62.2227759 C7.9356855,62.0586379 8.41683053,62.0791552 8.86589924,62.0703621 C8.93588397,62.0791552 9.01753282,62.1026034 9.07876947,62.0498448 C9.05835725,61.9795 9.05835725,61.8651897 8.95629618,61.8739828 C8.43724275,61.7420862 7.94443359,61.5984655 7.48661679,61.3112241 C7.46620458,60.9829483 7.57701374,60.6751897 7.75197557,60.4084655 C7.69073893,60.3029483 7.55660153,60.2619138 7.46620458,60.1798448 C7.14835725,59.9658793 6.74011298,60.027431 6.39310534,59.9248448 L6.38435725,59.9043276 C6.49516641,59.7695 6.59722748,59.4734655 6.85383817,59.5232931 C7.20959389,59.5232931 7.57701374,59.5027759 7.94443359,59.5232931 C8.25353282,59.6170862 8.56846412,59.7196724 8.87756336,59.8222586 C9.4257771,60.2736379 9.78444885,60.8276034 10.0293954,61.4460517 C10.0702198,61.4636379 10.1314565,61.4548448 10.1606168,61.4020862 C10.1431206,61.2907069 10.181029,61.1881207 10.1606168,61.0650172 C10.1431206,60.6751897 10.2043573,60.2619138 10.274342,59.8838103 C10.5717771,59.7284655 10.9071206,59.6669138 11.233716,59.687431 C11.4699145,59.3093276 11.3153649,58.837431 11.3357771,58.3948448 C11.3882656,58.2805345 11.4699145,58.4358793 11.5486473,58.4358793 C11.6652885,58.5267414 11.8548305,58.5707069 11.8898229,58.7436379 C11.9802198,59.1158793 12.0822809,59.5027759 12.1114412,59.8838103 C12.0735328,60.2853621 12.0735328,60.6957069 11.9598076,61.0650172 C11.7031969,61.4753621 11.2745405,61.8153621 10.9683573,62.2022586 C11.0908305,62.6155345 11.2045557,63.0463966 11.2745405,63.4860517 C11.4582504,63.8055345 11.8898229,63.6912241 12.2047542,63.7820862 C12.9104336,63.8963966 13.5927847,63.8758793 14.2780519,63.9696724 C14.6979603,64.0107069 15.1062046,64.0195 15.5465252,64.0517414 C15.5844336,64.0107069 15.5231969,63.9491552 15.5027847,63.8963966 L15.1966015,63.3834655 C15.4123878,61.6307069 15.5552733,59.8105345 16.1064031,58.157431 C16.1763878,57.9551897 16.2376244,57.7295 16.4621588,57.6239828 C17.3836244,57.0495 18.3838229,56.6801897 19.3315328,56.1995 C19.538571,56.1467414 19.7018687,56.0119138 19.9059908,55.9708793 L19.9555634,55.9210517 C19.7922656,55.0153621 19.5589832,54.1536379 19.2732122,53.3036379 C18.8328916,52.6558793 18.2905099,52.122431 17.9260061,51.4453621 C17.7597924,51.1170862 17.628571,50.7682931 17.4536092,50.4488103 C17.6693954,50.0472586 18.0047389,49.7307069 18.2730137,49.3408793 C18.9845252,48.4557069 19.731029,47.5734655 20.4775328,46.7029483 C20.5066931,46.6296724 20.4162962,46.5886379 20.3754718,46.5476034 L20.3463115,46.5476034 L19.4569221,47.5939828 L15.913945,51.946569 C15.1062046,52.9548448 14.2984641,53.9601897 13.4819756,54.9362241 L13.143716,55.3876034 C13.0329069,55.4081207 12.9308458,55.3055345 12.857945,55.2322586 C12.8258687,54.9069138 12.9716702,54.3910517 12.563426,54.2562241 C12.3155634,54.2269138 12.0822809,54.0832931 11.8169221,54.0950172 C11.6652885,54.3001897 11.5603115,54.5346724 11.417426,54.7398448 C11.1928916,55.1413966 10.8575481,55.4901897 10.4988763,55.8067414 C10.3151664,55.777431 10.1314565,55.7569138 9.95649466,55.6748448 C9.86609771,55.6953621 9.91567023,55.7979483 9.89817405,55.8477759 C9.88650992,56.7622586 9.90692214,57.7177759 9.8748458,58.6322586 C9.74362443,58.6732931 9.58907481,58.6410517 9.44618931,58.661569 C9.27414351,58.661569 9.07002137,58.6410517 8.89505954,58.6527759 L8.87756336,58.5795 C8.85423511,58.0460517 8.87756336,57.562431 8.87756336,57.0084655 C8.85423511,56.5981207 8.91547176,56.2082931 8.89505954,55.777431 L8.86589924,55.7451897 C8.60928855,55.9210517 8.41683053,56.1995 8.19229618,56.4017414 C8.1077313,56.3226034 8.0698229,56.1995 8.02608244,56.0763966 C8.19229618,55.6338103 8.33226565,55.1707069 8.67052519,54.7808793 L8.89505954,54.4643276 L8.89505954,53.1277759 L8.86589924,53.0867414 C8.6996855,53.0251897 8.47515115,53.1072586 8.41683053,52.9050172 C8.20104427,52.6353621 8.05815878,52.3276034 7.97650992,52.0081207 C7.58867786,51.8732931 7.1716855,51.9289828 6.80134962,52.0696724 C6.7809374,51.8967414 6.82176183,51.6710517 6.97631145,51.5596724 C7.45454046,51.4043276 7.88611298,51.1258793 8.42557863,51.1376034 L8.87756336,51.0848448 C8.92713588,51.0438103 8.89505954,50.9822586 8.89505954,50.932431 C8.93588397,48.0981207 8.94754809,45.3282931 8.96796031,42.4412241 C8.91547176,42.3796724 8.88339542,42.4705345 8.84257099,42.4822586 C8.74342595,42.5438103 8.65886107,42.7196724 8.52763969,42.6463966 C8.2418687,42.6053621 7.99692214,42.4617414 7.74031145,42.3386379 C7.56826565,42.4295 7.3728916,42.5232931 7.22125802,42.6669138 C7.01421985,42.8926034 6.93548702,43.1827759 6.71970076,43.3850172 C6.63805191,43.2736379 6.57681527,43.1300172 6.50683053,42.9863966 C6.62930382,42.6170862 6.7809374,42.256569 6.9238229,41.8960517 C7.14835725,41.5677759 7.35539542,41.2395 7.63825038,40.9405345 C8.05815878,40.7382931 8.49847939,40.5536379 8.93588397,40.3982931 C9.0058687,40.3250172 8.96796031,40.2136379 8.9767084,40.131569 C8.86589924,40.0582931 8.68218931,40.0817414 8.55971603,40.0495 C8.25353282,39.9879483 7.97650992,39.9469138 7.69073893,39.8853621 C7.56826565,39.5981207 7.46620458,39.287431 7.40496794,38.9738103 C7.43412824,38.9005345 7.40496794,38.7979483 7.31165496,38.7979483 C6.96464733,38.5898448 6.54765496,38.6836379 6.16857099,38.7158793 C6.14815878,38.5693276 6.29979237,38.4579483 6.32312061,38.3055345 C6.65846412,38.1501897 7.02588397,38.1501897 7.38455573,38.0476034 L8.26228092,38.0476034 C8.51597557,38.1384655 8.71134962,38.3231207 8.9767084,38.3963966 C8.98837252,37.5639828 9.00003664,36.7139828 9.0058687,35.9108793 L8.94754809,35.881569 C8.48681527,35.9108793 8.00567023,35.8610517 7.54785344,35.9636379 C7.3437313,36.0339828 7.11919695,36.0457069 6.94423511,36.1893276 C5.87113588,36.8576034 5.04589924,37.842431 4.22941069,38.8067414 L4.19733435,38.8067414 C3.43041832,37.5346724 2.9609374,36.1395 2.64309008,34.6710517 C2.4827084,33.8884655 2.40105954,33.0384655 2.34857099,32.1972586 C2.34857099,31.7136379 2.34857099,31.2007069 2.40105954,30.7405345 L2.43021985,30.7082931 C3.8299145,31.7136379 5.25876947,32.7189828 6.85383817,33.2963966 C7.50411298,33.5426034 8.27102901,33.5719138 8.98837252,33.5836379 L9.01753282,33.4986379 C9.01753282,33.2026034 8.9767084,32.8626034 9.05835725,32.6076034 C9.40536489,32.6369138 9.69113588,32.5958793 10.0381435,32.6163966 L10.0906321,32.6896724 C10.0614718,33.0062241 10.0702198,33.3257069 10.0906321,33.6451897 C10.1606168,33.7038103 10.2451817,33.6217414 10.3268305,33.6657069 C10.4580519,33.6832931 10.5805252,33.6451897 10.7029985,33.6950172 C10.6825863,34.4453621 10.7029985,35.1429483 10.6825863,35.8610517 L10.6505099,35.881569 L10.0906321,35.881569 L10.0498076,35.9108793 C10.0206473,36.9601897 10.0381435,38.0681207 10.0293954,39.0529483 C10.081884,39.1145 10.1431206,39.1877759 10.2218534,39.2082931 C10.3647389,38.7246724 10.4668,38.2205345 10.6505099,37.7603621 C10.8983725,37.6284655 11.1841435,37.5757069 11.4378382,37.4526034 C11.6419603,37.071569 11.6944489,36.6407069 11.6827847,36.1893276 C11.6944489,36.1600172 11.6652885,36.0750172 11.7265252,36.0750172 C11.8664947,36.1600172 12.0006321,36.2919138 12.1231053,36.4062241 C12.1318534,36.8781207 12.3388916,37.2357069 12.2572427,37.7076034 C12.2251664,37.9860517 12.2251664,38.2850172 12.1726779,38.5693276 C11.8489985,38.9913966 11.5719756,39.4545 11.2453802,39.8736379 C11.3474412,40.0289828 11.4786626,40.1843276 11.6711206,40.1931207 L12.2339145,40.1638103 C12.3272275,40.2839828 12.4001282,40.4188103 12.4497008,40.562431 C13.4615634,41.1251897 14.482174,41.6820862 15.4940366,42.2272586 L15.5348611,42.2976034 C15.2899145,43.2736379 15.2082656,44.2789828 15.0333038,45.2755345 C14.951655,45.4396724 14.9020824,45.2139828 14.8087695,45.2139828 C14.0331053,44.5046724 13.2457771,43.9184655 12.4788611,43.2208793 C12.184342,42.9043276 11.7965099,42.6669138 11.4903267,42.3913966 C11.2949527,42.2272586 11.0179298,42.3386379 10.8050595,42.2682931 C10.6009374,42.3298448 10.4580519,42.1539828 10.3559908,42.0220862 C10.4668,41.837431 10.6330137,41.6527759 10.7350748,41.4563966 C10.662174,41.3743276 10.5717771,41.3538103 10.4784641,41.3127759 C10.3443267,41.2307069 10.2043573,41.1193276 10.0498076,41.0870862 L9.99731908,41.1603621 C9.99731908,44.0327759 9.92733435,46.846569 9.92733435,49.7307069 C9.89817405,50.2436379 9.92733435,50.7976034 9.92733435,51.3017414 C10.2539298,51.5684655 10.560113,51.8351897 10.8983725,52.0813966 C10.9596092,52.0813966 11.0004336,52.031569 11.0529221,51.9993276 C10.845884,51.4746724 10.4055634,51.0438103 10.2947542,50.4781207 C10.4493038,50.2553621 10.6126015,49.9651897 10.8662962,49.8332931 C10.845884,49.6281207 10.8050595,49.402431 10.7642351,49.1855345 C10.6330137,48.9803621 10.5105405,48.7751897 10.4172275,48.5495 C10.5280366,48.4762241 10.6942504,48.5495 10.8167237,48.5084655 L10.8983725,48.5495 L11.5807237,49.3701897 L12.093945,50.3051897 C12.1639298,51.0027759 12.2864031,51.7326034 12.184342,52.4008793 C12.2864031,52.541569 12.4584489,52.5738103 12.6042504,52.6558793 C12.755884,52.7203621 12.857945,52.541569 12.9104336,52.4419138 C13.9602046,50.4282931 15.1062046,48.4557069 16.1676397,46.4538103 L16.1355634,46.4332931 C15.6981588,46.4948448 15.2286779,46.5476034 14.7796092,46.6091552 L14.7591969,46.5886379 C14.8816702,46.2603621 15.0741282,45.9613966 15.1878534,45.6243276 C15.4532122,44.4519138 15.4736244,43.1593276 15.8527084,42.0426034 C16.3513496,41.2512241 17.1999145,40.6767414 17.914342,40.0993276 C18.4567237,39.7300172 19.0078534,39.3519138 19.5706473,39.0529483 C19.6814565,38.9210517 19.8651664,38.9093276 19.9963878,38.8067414 C21.0374107,38.3143276 22.2242351,38.2029483 23.3469069,37.9039828 C23.4810443,37.7193276 23.5189527,37.4936379 23.6035176,37.2884655 C23.6035176,37.2269138 23.5102046,37.2357069 23.4606321,37.2269138 C22.787029,37.1858793 22.0521893,37.1536379 21.3960824,37.1360517 L21.3873344,37.0920862 C21.5622962,36.731569 21.8364031,36.4238103 22.020113,36.0662241 L21.9792885,35.9841552 C21.7547542,35.7672586 21.4981435,35.541569 21.3144336,35.2982931 L21.2648611,34.7707069 C21.3348458,34.7091552 21.4689832,34.7531207 21.5622962,34.691569 L21.7635023,34.5362241 L21.8976397,34.4248448 L21.8976397,34.187431 L21.8684794,34.1581207 L21.5098076,34.3720862 L21.3056855,34.4043276 L21.2240366,34.3720862 L21.1919603,34.3222586 L21.1715481,34.0526034 L21.3960824,33.8503621 L22.4487695,33.0062241 L22.693716,32.7805345 L22.7345405,32.7072586 L22.6733038,31.9070862 L22.6033191,31.2417414 L22.5100061,30.441569 L22.4808458,30.0927759 L22.498342,30.0400172 L22.7345405,30.0810517 L22.9882351,30.2451897 L23.1631969,30.441569 L23.2040214,30.5207069 L23.2360977,30.5558793 Z" id="Fill-112" fill="#8C6F4B"></path>
                <mask id="mask-8" fill="white">
                    <use xlink:href="#path-7"></use>
                </mask>
                <g id="Clip-115"></g>
                <polygon id="Fill-114" fill="#050000" mask="url(#mask-8)" points="62.2368397 76.4233448 62.8987786 76.4233448 62.8987786 28.585931 62.2368397 28.585931"></polygon>
            </g>
        </g>
    </g>
</svg>