<?xml version="1.0" encoding="UTF-8"?>
<svg id="ORIGINAL_2_copy_2" data-name="ORIGINAL 2 copy 2" version="1.1" viewBox="0 0 1418.1 1618.7" xmlns="http://www.w3.org/2000/svg" xmlns:cc="http://creativecommons.org/ns#" xmlns:dc="http://purl.org/dc/elements/1.1/" xmlns:rdf="http://www.w3.org/1999/02/22-rdf-syntax-ns#">
 <metadata id="metadata23">
  <rdf:RDF>
   <cc:Work rdf:about="">
    <dc:format>image/svg+xml</dc:format>
    <dc:type rdf:resource="http://purl.org/dc/dcmitype/StillImage"/>
   </cc:Work>
  </rdf:RDF>
 </metadata>
 <defs id="defs4">
  <style id="style2">.cls-1{fill:#e40017;}.cls-2{fill:#ffcd00;}</style>
 </defs>
 <title id="title6">VT Fylkesvåpen_rgb</title>
 <path id="path8" class="cls-1" transform="translate(-14.71 -14.86)" d="M14.71,14.86V913.54c0,23.7,1.18,60.44,3.46,83.55C53.55,1354.43,356,1633.6,723.77,1633.6S1394,1354.43,1429.38,997.09c2.29-23.11,3.47-59.85,3.47-83.55V14.86Z"/>
 <path id="path10" class="cls-2" transform="translate(-14.71 -14.86)" d="M742.69,1190.15a.7.7,0,0,1,.54-.81.73.73,0,0,1,.83.45c22.42,70.39,63.88,135.2,115.48,191.47,21.26-8.65,44.08-16.71,67.26-25.51-87.68-76.68-162.37-178.37-184.11-296.29a.69.69,0,0,1,.54-.8.71.71,0,0,1,.83.44c35.86,112.6,120.41,210.92,217.36,282.84,26.63-11.3,52.93-24.44,77.11-41.39-129.18-77.12-265.18-211.14-295.84-377.45a.69.69,0,0,1,.54-.8.71.71,0,0,1,.83.45c49,153.93,189.07,281.2,327.37,350.76a239.76,239.76,0,0,0,50.75-71.18c-147.39-61.92-342-216.9-379.49-420.06a.69.69,0,0,1,.54-.8.72.72,0,0,1,.83.45c56.89,178.63,236.35,321.37,393.42,379.66,9.46-32.42,14.81-70.5,14.81-115.61C962.8,988,742.68,765.19,742.68,540.58h0v-140H704.9V540.7C704.81,760.65,469.62,992.64,295.29,1046c0,45.11,5.35,83.19,14.81,115.61,157.07-58.29,336.53-201,393.42-379.66a.72.72,0,0,1,.83-.45.7.7,0,0,1,.54.8c-37.45,203.16-232.1,358.14-379.49,420.06a239.76,239.76,0,0,0,50.75,71.18c138.3-69.56,278.34-196.83,327.37-350.76a.71.71,0,0,1,.83-.45.7.7,0,0,1,.54.8c-30.66,166.31-166.66,300.33-295.84,377.45,24.18,17,50.48,30.09,77.11,41.39,96.95-71.92,181.5-170.24,217.36-282.84a.71.71,0,0,1,.83-.44.7.7,0,0,1,.54.8c-21.74,117.92-96.43,219.6-184.11,296.29,23.18,8.8,46,16.86,67.26,25.51,51.6-56.28,93.06-121.08,115.48-191.47a.73.73,0,0,1,.83-.45.71.71,0,0,1,.54.81c-13.67,74.16-48.29,141.9-93.91,201,54.42,25.29,93.89,58.58,93.92,126.83v.07h37.78v0c0-68.27,39.5-101.57,93.92-126.85C791,1332.05,756.36,1264.31,742.69,1190.15Z"/>
 <ellipse id="ellipse12" class="cls-2" transform="translate(692.16 1585.6) rotate(-89)" cx="1167.8" cy="440.58" rx="41.22" ry="41.89"/>
 <path id="path14" class="cls-2" transform="translate(-14.71 -14.86)" d="M1300.48,656.4c-64.93,155.5-346,159.06-395.67-21.09,25.61,44,73.83,79.15,146.43,80.41,144,2.52,262.9-115.37,265.48-263.3q.19-10.53-.42-20.89c-.27-6.18-.87-12.37-1.72-18.55A270.87,270.87,0,0,0,1302,358.91c-15.79-52.77-37.87-106.42-30.1-164a32.89,32.89,0,1,0,12.48-63.53c-17.16-.3-32.26,9.06-42.25,29.76-14.48,30-4.22,74.56,7.16,107.13-46.79-53.08-90.89-88.23-188.72-88.23-80.45,0-231.43,24.29-263.68-60.72a101.41,101.41,0,0,0-14.73,50.43c-2.11,71.7,81.18,81.89,85.5,81-96.54,92.94,19.41,221,113.41,146.11,8.25-6.57,18.13-17.59,20.92-27.55a63.55,63.55,0,0,1-84.83-59.9,64.22,64.22,0,0,1,.92-10.82c11-52.55,65.7-89.64,159-88.95-104.19,21.3-94.66,116.77-70.68,122.94,0,0-.59-5.35-.54-8.07.71-40.3,43.94-78.94,106.4-78.94,74.6,0,121.52,57.66,138.49,88.75a111.9,111.9,0,0,0-179.35,87.31c-.39,22.28,10.56,62.06,50.41,67.06-46.09-62-3.76-118.08,46.84-118.88,53.19-.85,93.21,44.79,93.21,98,0,85.23-87.79,144.32-179.45,144.32-38.51,0-78.2-11.86-103.53-33.27a62.3,62.3,0,0,0,44.58-58.64c.6-34.38-26.78-63.35-61.18-63.35-76.36,0-94.23,80.55-94.23,120,0,294.32,404.93,329.79,380.47,454.75,18.9-11,24.15-37.4,22.72-56.18-4.87-63.84-118.55-125.91-142.91-142.37C1158.5,843.72,1340.31,797.3,1300.48,656.4Z"/>
 <path id="path16" class="cls-2" transform="translate(-14.71 -14.86)" d="m159.54 131.44c53.72-4.57 71.24 80.44-3.11 141.23-7.51 6.14-14.77 6.87-16.1 6.67 11.4-8.59 35.16-53.35 29.58-84.85-21.6 3-34.82-8.34-38.72-24.12-4.68-18.93 9.67-37.37 28.35-38.93z"/>
 <path id="path18" class="cls-2" transform="translate(-14.71 -14.86)" d="m665.66 169.72a101.31 101.31 0 0 0-14.73-50.43c-32.25 85.01-183.23 60.71-263.68 60.71-151.87 0-258.72 124.48-256.13 272.41s121.44 265.83 265.48 263.31c69.34-1.21 116.43-33.32 142.84-74.54-44.93 165.12-318.61 173.65-388.44 15.22-28.45 25.83-17.87 75.75 9.49 88.58-14.43 64.06 91 104.21 147.57 83.79-40 20-172.94 124.05-108.78 202.84-24.8-126.95 381.1-160.61 381.1-448.61 0-27.23-8.94-126.17-94.82-126.17-34.4 0-61.78 29-61.18 63.35a62.3 62.3 0 0 0 44.62 58.67c-25.32 22.42-65 33.27-103.53 33.27-65.68 0-185.47-35.85-185.47-153.64 0-51.07 39.78-93.17 90.83-94.06a92.21 92.21 0 0 1 70.8 31.14 45.76 45.76 0 1 0-25.84 83c41.46-0.73 46.11-45.23 46.64-43a107.48 107.48 0 0 0-107.56-126.91 107 107 0 0 0-50.64 13.68c46.18-71.17 107-76.33 131.35-76.76 62.45-1.09 105.7 38.64 106.4 78.94a48.19 48.19 0 0 1-1 10.74c28.67-16.4 25-107.75-70-124.92 84.29-2.07 147.51 34.25 158.83 88.26a64.22 64.22 0 0 1 0.92 10.82 63.57 63.57 0 0 1-84.83 59.9c2.79 10 12.67 21 20.92 27.55 94 74.87 210-53.17 113.42-146.11 4.24 0.86 87.53-9.33 85.42-81.03z"/>
</svg>
