<?xml version="1.0" encoding="utf-8"?>
<!-- Generator: Adobe Illustrator 23.0.3, SVG Export Plug-In . SVG Version: 6.00 Build 0)  -->
<svg version="1.1" id="Layer_1" xmlns="http://www.w3.org/2000/svg" xmlns:xlink="http://www.w3.org/1999/xlink" x="0px" y="0px"
	 viewBox="0 0 709.6 272.7" style="enable-background:new 0 0 709.6 272.7;" xml:space="preserve">
<style type="text/css">
	.st0{fill:#86A315;}
</style>
<g>
	<path class="st0" d="M513.4,172.4c-0.9-1.6-4.2,1.4-6.8,2.9c-9.3,5.2-17.7,9.5-31.5,9.5c-22.3,0-40.2-14-40.2-47.4
		c0,0,71.6,0,73.4,0c3.8,0,5.1-0.4,4.8-4.2c-2-26-20.3-40.9-42.9-40.9c-30.6,0-53.3,24-53.3,54.4c0,23,11.5,40.1,31.7,46.8
		c-13.8,0.7-31.5,3.4-43.6,7.3c-13.8,4.4-24.3,14.9-31,21.8c0,0,0,0,0,0c-4-3.8-8.5-6.8-13.3-8.7c-3.2-1.2-6.4-1.6-9.5-1.5
		c-6.8,0.2-13.5,2.9-20.1,5.3c-27.5,10.1-49.5,24.7-77.6,33.2c-16.9,5.1-38.6,4.3-55.7-0.8c-6.7-2-13-4.8-18.9-8.2
		c0.5-3,1.4-12.7-6.4-19.9c-9.3-8.6-27.6-10.3-27.6-10.3s3.2,18.1,12.5,26.7c7.3,6.7,16.2,5.6,19.7,4.8c2.1,1.2,4.3,2.4,6.5,3.5
		c14.7,7.1,38.6,10.5,54.9,9.2c10.7-0.9,14.2-2.5,24.3-6.1c13.5-4.8,33.8-14,46.7-19.9c11.5-5.3,15.9-8.2,27.5-12.2
		c3.8-1.3,7.8-2.6,11.8-3.2c7.7-1.1,15.2,2.6,21,7.4c0.9,0.7,1.7,1.5,2.6,2.4c-9.9,11.2-16.4,29.3-6.4,42.7
		c3.9,5.2,10.9,7.7,16.5,3.5c5.3-3.9,7.1-11.6,6.6-17.8c-0.7-9.3-5.4-19-12.1-26.7c7.3-8,19.8-17.4,35.6-20.6
		c34.7-7.2,33.3-3.8,56.6-5c15.7-0.8,27.8-9.1,34.9-15.6c3.4-2.8,5.8-5.6,7.3-7.8c0,0,0-0.1,0-0.1l0,0
		C513.2,174.7,513.8,173,513.4,172.4z M466.7,99.5c18.7,0,27.8,17,27.8,29.5h-58.4C437.3,113.3,449.7,99.5,466.7,99.5z M383.2,267.4
		c-8,9.2-17.6-1.9-19.1-10.3c-1.7-9.3,3.5-17.7,8.6-25.4c0.8-1.2,1.8-2.6,3-4C385,238.6,393,256.1,383.2,267.4z"/>
	<path class="st0" d="M7.5,104.5l2.1-11.3h0.1l10.6,23.1h1.4l3.3-17.4c0.8-4.4,1.4-6.5,1.7-7.7c0.5-1.8,1.1-2.5,3.7-2.7l0.3-1.2
		h-9.3L21,88.5c2.9,0.2,3.6,0.7,3.4,2.7c-0.1,1.2-0.4,3.3-1.2,7.7l-2,10.6h-0.1L10.6,87.4H4.7l-0.3,1.2c2.2,0.1,2.9,0.5,3.4,1.5
		C8.3,91,8.4,91.7,8,93.6l-2.2,10.9c-0.9,4.2-1.4,6.4-1.8,7.7c-0.5,1.9-1.4,2.4-3.7,2.6L0,116h9.4l0.3-1.2c-2.8-0.2-3.5-0.7-3.4-2.7
		C6.4,110.7,6.7,108.6,7.5,104.5z"/>
	<path class="st0" d="M36.1,116.5c2.1,0,4.5-1.2,6.2-2.7c2.9-2.5,4.7-7.2,4.7-11.3c0-4-1.7-6.5-5.2-6.5h0c-1.4,0-3.3,0.7-4.8,1.6
		c-3.3,2-6.1,6.5-6.1,12.3C30.8,113.2,32.2,116.5,36.1,116.5z M38.9,98c0.4-0.2,0.9-0.4,1.5-0.4h0c1.9,0,3.1,1.6,3.1,4.9
		c0,6-2.5,11-4.6,11.9c-0.4,0.1-0.8,0.3-1.3,0.3c-2,0-3.2-2-3.2-5.3C34.3,102.5,37.2,98.8,38.9,98z"/>
	<path class="st0" d="M55.6,99.2c0.4,0,0.4,0.5,0.1,1.9c-0.9,4.9-2,10.1-3.2,15l0.3,0.3c0.9-0.3,2-0.6,3-0.7
		c0.5-2.8,1.1-5.7,1.8-8.6c0.6-1.7,1.7-3.7,2.8-5.3c1.1-1.7,1.7-2.1,2.2-2.1c0.4,0,0.9,0.2,1.3,0.7c0.3,0.2,0.6,0.2,0.9,0
		c0.4-0.3,0.8-0.8,1.2-1.3c0.4-0.6,0.4-1.2,0.1-1.8C65.7,96.5,65,96,64.2,96c-1.5,0-3.9,2.7-6.2,7.4h-0.1l0.4-2.1
		c0.6-3,0.8-5.3-0.4-5.3c-1.2,0-3.6,1.7-5.8,4.1l0.5,1C53.7,100.2,55.2,99.2,55.6,99.2z"/>
	<path class="st0" d="M73.2,110.9c-2,1.3-2.6,2.1-2.6,2.8c0,0.5,0.5,1.4,1.6,2.2c-4.9,2.6-7.2,4.4-7.2,6.4c0,2.4,3.2,4.6,7.5,4.6
		c3.7,0,9.9-2.4,9.9-6.1c0-1.6-1.6-3.4-5.3-5.6c-2-1.2-3.3-2.1-3.3-2.8c0-0.5,0.4-1,0.8-1.3c2.5-0.7,4.3-1.7,5.5-2.7
		c1.4-1.2,3.1-3.5,3.1-6.9c0-1-0.1-1.7-0.4-2.3c0.4,0,0.7-0.1,1-0.1c0.8-0.1,2-0.6,3.3-2l-0.4-0.8c-0.8,0.4-2.7,0.9-4.9,0.9
		c-0.9-0.7-2-1.2-3.3-1.2c-1.6,0-3.7,0.8-5.4,2.2c-2.2,1.8-3.6,4.6-3.6,7.4C69.5,108.6,70.8,110.4,73.2,110.9z M76.1,118.3
		c2.1,1.3,3.1,2.4,3.1,3.6c0,1.9-2.4,3.2-5,3.2h-0.1c-3,0-5.7-1.6-5.7-3.7c0-1.5,1.7-3.3,4.8-4.9C73.8,116.9,74.8,117.5,76.1,118.3z
		 M74.3,99.7c0.9-1.4,1.8-2.1,3.1-2.1h0c1.6,0,2.7,1.5,2.7,4.1c0,4.9-2.5,7.6-4.7,7.6c-1.5,0-2.6-1.3-2.6-3.9
		C72.8,103.1,73.4,101,74.3,99.7z"/>
	<path class="st0" d="M101.7,111.5l-0.7-0.9c-2.3,2.2-4.5,3.4-6.1,3.4c-2.5,0-3.1-2.5-3.1-4.9c0-0.6,0-1,0.1-1.6
		c4.2-1.2,11-3.6,11-8c0-1.8-1.3-3.5-3.5-3.5c-1.8,0-4.1,1.2-5.9,2.6c-3.2,2.6-5,7.2-5,11.6c0,5,2.4,6.3,4.4,6.3
		C94.8,116.5,97.8,115.7,101.7,111.5z M95.8,98.5c0.5-0.4,1.2-0.7,1.8-0.7h0c1.2,0,2,0.9,2,2.4c0,2.2-1.8,4.2-7.7,5.9
		C92.9,101.2,94.9,99.2,95.8,98.5z"/>
	<path class="st0" d="M109.6,116.5c3.4,0,7.6-3.4,7.6-6.6c0-1.8-1-3.1-3.3-5.2c-1.5-1.3-2.6-2.4-2.6-3.9c0-1.5,1-2.5,2.3-2.5
		c1.3,0,2.4,0.8,3.2,1.9c0.3,0.3,0.5,0.4,0.9,0.1c0.6-0.4,1-1.1,1-1.7c0-1.2-1.6-2.4-3.1-2.4h0c-1.5,0-3.5,1.1-4.5,2.1
		c-1.8,1.5-2.4,2.9-2.4,4.4c0,2,1.6,3.7,3.4,5.3c1.9,1.8,2.4,2.7,2.4,3.9c0,1.6-1.2,2.6-2.7,2.6c-1.5,0-2.8-0.7-4-2.3
		c-0.3-0.4-0.6-0.4-1.1-0.1c-0.6,0.4-1.2,1-1.2,1.7C105.5,115,107.8,116.5,109.6,116.5z"/>
	<path class="st0" d="M147.9,120.7c0-1.6-1.6-3.4-5.3-5.6c-2-1.2-3.3-2.1-3.3-2.8c0-0.5,0.4-1,0.8-1.3c2.5-0.7,4.3-1.7,5.5-2.7
		c1.4-1.2,3.1-3.5,3.1-6.9c0-1-0.1-1.7-0.4-2.3c0.4,0,0.7-0.1,1-0.1c0.8-0.1,2-0.6,3.3-2l-0.4-0.8c-0.8,0.4-2.7,0.9-4.9,0.9
		c-0.9-0.7-2-1.2-3.3-1.2c-1.6,0-3.7,0.8-5.4,2.2c-2.2,1.8-3.6,4.6-3.6,7.4c0,2.9,1.3,4.7,3.7,5.3c-2,1.3-2.6,2.1-2.6,2.8
		c0,0.5,0.5,1.4,1.6,2.2c-4.9,2.6-7.2,4.4-7.2,6.4c0,2.4,3.2,4.6,7.5,4.6C141.6,126.9,147.9,124.5,147.9,120.7z M138.3,105.4
		c0-2.3,0.6-4.3,1.5-5.7c0.9-1.4,1.8-2.1,3.1-2.1h0c1.6,0,2.7,1.5,2.7,4.1c0,4.9-2.5,7.6-4.7,7.6
		C139.5,109.2,138.3,107.9,138.3,105.4z M134,121.5c0-1.5,1.7-3.3,4.8-4.9c0.6,0.3,1.6,0.9,2.9,1.7c2.1,1.3,3.1,2.4,3.1,3.6
		c0,1.9-2.4,3.2-5,3.2h-0.1C136.7,125.1,134,123.6,134,121.5z"/>
	<path class="st0" d="M158.2,99.2c0.4,0,0.4,0.5,0.1,1.9c-0.9,4.9-2,10.1-3.2,15l0.3,0.3c0.9-0.3,2-0.6,3-0.7
		c0.5-2.8,1.1-5.7,1.8-8.6c0.6-1.7,1.7-3.7,2.8-5.3c1.1-1.7,1.7-2.1,2.2-2.1c0.4,0,0.9,0.2,1.3,0.7c0.3,0.2,0.6,0.2,0.9,0
		c0.4-0.3,0.8-0.8,1.2-1.3c0.4-0.6,0.4-1.2,0.1-1.8c-0.4-0.7-1.1-1.2-1.8-1.2c-1.5,0-3.9,2.7-6.2,7.4h-0.1l0.4-2.1
		c0.6-3,0.8-5.3-0.4-5.3c-1.2,0-3.6,1.7-5.8,4.1l0.5,1C156.4,100.2,157.8,99.2,158.2,99.2z"/>
	<path class="st0" d="M171.7,118l1.7-2.4c0.7,0.6,1.8,0.9,2.9,0.9c2.2,0,4.8-1.2,6.4-2.8c2.8-2.6,4.6-7,4.6-11.1
		c0-2-0.5-3.8-1.3-4.9l1.7-2.4l-1.1-0.8l-1.7,2.4c-0.8-0.5-1.6-0.8-2.9-0.8c-1.3,0-3.1,0.6-4.9,1.6c-3.2,2-6.1,6.4-6.1,12.1
		c0,1.7,0.4,3.7,1.3,4.9l-1.6,2.4L171.7,118z M184.2,103c0,6.1-3.1,10.7-5.2,11.6c-0.4,0.1-0.8,0.3-1.3,0.3c-1.2,0-2.1-0.8-2.4-1.6
		l8.7-12.3C184.1,101.4,184.2,102.1,184.2,103z M179.3,98c0.4-0.2,0.9-0.4,1.6-0.4c1.2,0,2.1,0.6,2.6,1.6l-8.7,12.3
		c-0.1-0.8-0.3-1.5-0.3-2.3C174.4,102.4,177.7,98.7,179.3,98z"/>
	<path class="st0" d="M192.7,116.1l0.3,0.3c0.8-0.3,2-0.6,3-0.8c0.5-2.7,1.2-5.7,1.8-7.9c2.1-3.7,6.9-9,8.7-9c0.6,0,0.8,0.7,0.3,2.9
		c-0.8,3.4-1.6,6.9-2.4,10.3c-0.8,3.4-0.4,4.5,0.6,4.5c1.1,0,3.5-1.5,5.9-4.2l-0.6-1c-1.1,1.2-2.3,2-2.7,2c-0.3,0-0.3-0.4,0-1.7
		c0.8-3.2,1.6-6.4,2.3-9.5c1.2-5.3,0.1-6-0.9-6c-0.7,0-1.6,0.3-2.6,0.9c-1.6,0.9-4.5,3.1-7.8,7.7h-0.1l0.8-3.3
		c0.9-3.7,0.8-5.3-0.2-5.3c-1.2,0-3.6,1.6-5.9,4.1l0.6,1c1.1-1.1,2.4-2,2.7-2c0.3,0,0.3,0.4,0,2
		C195.1,106.3,193.6,112.4,192.7,116.1z"/>
	<path class="st0" d="M216.2,116.1l0.3,0.3c0.8-0.3,2-0.6,3-0.8c0.5-2.7,1.2-5.7,1.8-7.9c2.1-3.7,6.9-9,8.7-9c0.6,0,0.8,0.7,0.3,2.9
		c-0.8,3.4-1.6,6.9-2.4,10.3c-0.8,3.4-0.4,4.5,0.6,4.5c1.1,0,3.5-1.5,5.9-4.2l-0.6-1c-1.1,1.2-2.3,2-2.7,2c-0.3,0-0.3-0.4,0-1.7
		c0.8-3.2,1.6-6.4,2.3-9.5c1.2-5.3,0.1-6-0.9-6c-0.7,0-1.6,0.3-2.6,0.9c-1.6,0.9-4.5,3.1-7.8,7.7h-0.1l0.8-3.3
		c0.9-3.7,0.8-5.3-0.2-5.3c-1.2,0-3.6,1.6-5.9,4.1l0.6,1c1.1-1.1,2.4-2,2.7-2c0.3,0,0.3,0.4,0,2
		C218.7,106.3,217.2,112.4,216.2,116.1z"/>
	<path class="st0" d="M244.2,116.5c2,0,5-0.8,8.9-5l-0.7-0.9c-2.3,2.2-4.5,3.4-6.1,3.4c-2.5,0-3.1-2.5-3.1-4.9c0-0.6,0-1,0.1-1.6
		c4.2-1.2,11-3.6,11-8c0-1.8-1.3-3.5-3.5-3.5c-1.8,0-4.1,1.2-5.9,2.6c-3.2,2.6-5,7.2-5,11.6C239.7,115.2,242.2,116.5,244.2,116.5z
		 M247.1,98.5c0.5-0.4,1.2-0.7,1.8-0.7h0c1.2,0,2,0.9,2,2.4c0,2.2-1.8,4.2-7.7,5.9C244.2,101.2,246.2,99.2,247.1,98.5z"/>
	<path class="st0" d="M54.3,135.1c1.6,0,3.4,0.8,5,2.6c0.7,0.5,1.3,0.4,2-0.1c1-0.7,2-2.1,2-3.1c0.1-1.5-2-3.5-4.6-3.5
		c-3.5,0-8.1,2.6-11.7,6.8c-3.4,4-5.2,9.3-6.5,15.7h-4.6l-2.4,2.1l0.2,1h6.1c-1.3,8.3-2.3,14.6-4.2,25.7
		c-2.6,15.1-4.7,19.3-5.7,20.4c-0.8,1.1-1.9,1.7-3.2,1.7c-1.6,0-3.6-0.7-5-1.9c-0.5-0.5-0.9-0.5-1.5-0.1c-1.2,1-2.1,2.5-2.1,3.5
		c0,1.9,2.6,3.3,4.6,3.3c1.9,0,5.6-1.5,9.1-5.4c4.1-4.4,7.5-11.2,10.3-26c1.6-7.9,2.3-12.2,3.8-21.3l7.7-0.7l1.7-2.6h-8.8
		C48.9,138.7,51.2,135.1,54.3,135.1z"/>
	<path class="st0" d="M82.6,184.1c-0.5,0-0.7-0.7-0.2-3.7c1.8-10,4.3-21,5.9-26.9l-0.2-0.3c-0.9,0-2-0.2-3.1-0.5
		c-1.7-0.3-3.1-0.6-4.3-0.6h-0.1c-5.1,0-11,3.1-15,6.8c-5.4,5-9.2,14-9.2,22.3c0,6.5,2.5,9,4.5,9c2.1,0,4.6-1.5,7.1-3.6
		c3.3-2.8,6.8-6.5,9.6-10.5h0.2l-1.5,7.3c-1.1,5.4-0.2,6.9,1.4,6.9c2.2,0,7.4-3.1,11.3-8l-1-2C86.1,182.2,83.4,184.1,82.6,184.1z
		 M78.9,169.8c-3,5.8-10.8,14.8-13.7,14.8c-1.2,0-2.1-1.7-2.1-5.1c0-7.6,3.1-18.1,8.9-22.4c1.3-0.9,3.1-1.6,5.1-1.6h0.1
		c1.8,0,3.6,0.5,4.7,1.1C81.3,159.9,80,165.9,78.9,169.8z"/>
	<path class="st0" d="M121.9,154.2c-1.7-1.3-3.7-2.2-6.1-2.2c-2.9,0-6.9,1.5-10.1,4.1c-4.1,3.3-6.7,8.5-6.7,13.8
		c0,5.5,2.4,8.7,6.8,9.8c-3.6,2.4-4.8,4-4.9,5.1c0,1,0.9,2.6,3,4.1c-9.1,4.9-13.3,8.2-13.4,11.8c-0.1,4.5,6,8.6,13.9,8.6
		c6.8,0,18.4-4.4,18.4-11.4c0-3.1-2.9-6.4-9.9-10.3c-3.8-2.2-6-3.9-6-5.2c0.1-0.9,0.7-1.8,1.6-2.5c4.7-1.3,8-3.2,10.2-5
		c2.6-2.3,5.8-6.5,5.8-12.8c0-1.8-0.2-3.1-0.7-4.3c0.7-0.1,1.3-0.2,1.8-0.2c1.6-0.2,3.7-1.1,6.1-3.6l-0.7-1.4
		C129.5,153.2,126.1,154.1,121.9,154.2z M111.3,193.5c3.9,2.5,5.8,4.5,5.8,6.7c0,3.6-4.4,6-9.3,6h-0.2c-5.5,0-10.6-2.9-10.6-6.8
		c0-2.7,3.2-6.1,8.9-9C107.1,190.9,108.8,192,111.3,193.5z M109.9,176.6c-2.7,0-4.9-2.4-4.9-7.2c0-4.2,1.2-8,2.8-10.6
		c1.7-2.6,3.4-3.9,5.7-3.9h0.1c3.1,0,5,2.7,5,7.5C118.6,171.7,113.9,176.6,109.9,176.6z"/>
	<path class="st0" d="M153.8,177.8c0-3.4-1.8-5.8-6.2-9.7c-2.8-2.5-4.9-4.6-4.9-7.3c0-2.8,1.9-4.7,4.3-4.7c2.5,0,4.5,1.6,6,3.5
		c0.5,0.6,1,0.7,1.7,0.2c1.2-0.8,1.8-2,1.9-3.1c0-2.2-2.9-4.6-5.8-4.6h-0.1c-2.7,0-6.5,2.1-8.4,4c-3.3,2.8-4.4,5.5-4.4,8.1
		c0,3.8,3.1,6.8,6.4,9.8c3.6,3.3,4.4,5,4.4,7.2c0,3-2.3,4.8-5,4.8c-2.7,0-5.2-1.3-7.4-4.3c-0.5-0.7-1.1-0.8-2-0.2
		c-1.1,0.7-2.2,1.9-2.2,3.1c0,2.8,4.1,5.5,7.5,5.5C145.9,190.1,153.8,183.7,153.8,177.8z"/>
	<path class="st0" d="M190.4,157.6c1.1,0,2.1,0.2,2.8,0.7c0.3,0.1,0.7-0.1,1.2-0.5c0.8-0.7,1.7-2.2,1.7-3.2c0-1.1-1.1-2.5-3.3-2.5
		c-3.5,0-8.9,5.4-13.6,10.3c-2,2.2-3.8,4.1-6.2,7.1h-0.2c2.6-12.1,5.2-23.9,7.9-36.1c0.3-1.7,0.3-2.3-0.5-2.3c-1.1,0-5.1,2-11.4,2.6
		l-0.4,2l2.3,0.1c3.1,0.1,3.6,0.5,2.9,4.1c-3.4,17-7,33.5-10.8,49.8l0.5,0.5c1.8-0.6,3.8-1.2,5.6-1.5c0.9-4.5,1.8-9.1,2.7-13.7
		c0.7-1.6,1.9-2.6,4.1-5.4c1.9,5.7,3.9,11,5.6,15.1c1.9,4.5,3.5,5.5,5.1,5.5c1.6,0,5-1.7,8.4-7.4l-1.4-1.7c-2,2.6-3.5,3.8-4.3,3.8
		c-0.7,0-1.5-0.9-2.8-3.6c-1.7-3.4-4.6-10.9-6.2-16.5C182.3,162.3,186.9,157.6,190.4,157.6z"/>
	<path class="st0" d="M213.2,190.1c4,0,8.4-2.1,11.6-5c5.5-4.6,8.8-13.4,8.8-20.9c0-7.4-3.2-12.1-9.7-12.1h-0.1c-2.6,0-6,1.2-8.9,3
		c-6,3.6-11.4,12-11.4,22.9C203.4,184.1,206,190.1,213.2,190.1z M218.5,155.8c0.8-0.4,1.7-0.7,2.7-0.7h0.1c3.6,0,5.7,3,5.7,9.2
		c0,11.2-4.7,20.5-8.6,22.2c-0.8,0.2-1.5,0.5-2.5,0.5c-3.8,0-6-3.8-6-9.8C210,164.1,215.3,157.2,218.5,155.8z"/>
	<path class="st0" d="M247.1,135.7h1.7c3.9,0.1,4.4,0.6,3.6,4.3c-2.8,13.4-5.6,26.8-8.4,40.2c-1.7,8-0.5,9.9,1.2,9.9
		c2.2,0,7.7-3.5,11.6-8.2l-1.2-1.8c-2.1,2.1-5,4.1-5.9,4.1c-0.5,0-0.8-0.7-0.3-3.2c3.4-16.4,6.7-32.2,9.9-47.6
		c0.3-1.5,0.4-2.4-0.3-2.4c-1.1,0-5.5,2-11.7,2.6L247.1,135.7z"/>
	<path class="st0" d="M273.9,190.1c3.6,0,9.3-1.4,16.5-9.3L289,179c-4.2,4.1-8.4,6.3-11.3,6.3c-4.7,0-5.7-4.7-5.7-9.1
		c0-1.1,0-1.9,0.2-2.9c7.9-2.2,20.3-6.7,20.3-14.8c0-3.4-2.5-6.5-6.5-6.5c-3.3,0-7.7,2.2-11,4.9c-5.9,4.8-9.3,13.4-9.3,21.5
		C265.7,187.8,270.3,190.1,273.9,190.1z M279.5,156.7c1-0.7,2.2-1.2,3.4-1.2h0.1c2.2,0,3.8,1.7,3.8,4.4c0,4.1-3.4,7.9-14.2,11
		C273.9,161.7,277.6,157.9,279.5,156.7z"/>
	<path class="st0" d="M476.5,40.6c-12.3,6.3-14.3,19-14.6,22.5c-48.4,6.7-64.6-1.9-68.4-4.3c-0.3-13.2-2.9-27.2-7.1-36.6
		c-7.2-15.7-16-23.9-23.5-21.9c-4.9,1.3-7.9,6.8-7.9,13.9c0,0.8,0,1.6,0.1,2.5c1.3,13.8,7.9,21.3,21.4,32c2.7,2.2,7.5,5.8,14,9.9
		c0.2,2.1-0.4,6.2-0.6,7.6c-1.2,7.8-3.9,16-6,21.6c-5.2-12.4-14.3-22.3-25.6-26.7l-0.6,0.7c12.2,9.7,17.3,27.2,17.4,55.4
		c0,0,0.9,14.6-7,36.7c-0.4,0.8-0.7,1.5-1.1,2.3c-2.4,4.7-5.7,11.8-8.7,17.4c-1.5,2.8-2.4,3.8-4.1-0.4
		c-6.6-15.9-13.4-32.2-20.4-48.3c-4.3-10-5.4-12.6-5.4-15.8c0-8.6,6.7-8.8,11.5-9.1c1.4-0.1,3.8-0.5,3.8-2.6c0-2.3-2.3-2.5-3.6-2.4
		c-5.5,0.1-16.4,1.7-21.7,1.7c-9.9,0-14.1-1.3-24-1.7c-1.2,0-3.5-0.3-3.5,2.5c0,2.1,2.4,2.7,3.7,2.7c10.4,0.3,13.3,6.3,19.3,18.4
		c4,8.4,23.5,51.9,32.2,74.8c1.8,4.4,2,5,4.3,5c2,0,3-3.1,7.2-11.3c0.6-1.1,1.7-3.3,3.1-6l14.8-29.2c4.8-9.6,7.6-15.7,16.9-35.9
		c1.9-3.9,7.6-14.4,17.1-15.5c0,0,1.7-0.3,2.2-0.4c1.2-0.2,3.7-0.6,3.6-2.6c0-2.4-2.6-2.3-4-2.3c-4.1-0.1-11.7,0.3-18,1.3
		c0.9-13.6,0.2-27.8,0.2-32.1c0-1.1,0-2.3-0.1-3.4c18.8,9.3,46.7,7.6,69.1,3.8c2.9,1.7,14.5,7.7,26.9,1.3
		c14.4-7.4,24.4-28.6,24.4-28.6S490.9,33.2,476.5,40.6z M377.5,47.6C364,37,357.8,30,356.6,16.6c-0.1-0.8-0.1-1.6-0.1-2.4
		c0-6.5,2.6-11.5,6.8-12.6c5.2-1.4,13.1,3.3,21.1,21c4.1,8.9,5.6,21.1,5.9,33.8C384.3,52.6,380,49.7,377.5,47.6z"/>
	<path class="st0" d="M698.1,165.4c-6.2-4.7-13-3.2-15.6-2.3c-8.5-4.1-18.2-11.7-24.1-25.8c-4.8-11.5-7.6-25.3-7.6-39.1
		c0-10.3,1.6-20.6,5-30c2.7-0.3,5.4-0.7,8.2-1c26.2-2.3,42.3-8.5,44.2-17.1c0.1-0.5,0.2-1.1,0.2-1.6c0-3.4-2.3-6.7-6.5-9.1
		c-8.4-4.8-21.9-5.1-31.5,3.7c-7.1,6.5-12.2,14.7-15.6,23.7c-69.3,7.3-99.8,34.5-110.9,47.9c-8.3,9.4-13.2,21.7-13.2,35.7
		c0,27.8,14,49.1,43.8,49.1c13.4,0,23.2-7.4,27.9-13.5c3-3.9,5.9-8.9,4.9-10.3c-1-1.5-4.2,1.1-6.9,3.3c-5.2,4.2-11.4,7.5-18.1,7.5
		c-22.1,0-33.1-20.6-33.1-40.4c0-25.3,10-42.5,31.6-42.5c16.8,0,30,13.6,30,32.3v56.7c0,0,0.3,6.6,5.1,6.6c1.6,0,7-0.7,14.1-0.7
		c7.5,0,12.2,0.7,12.2,0.7s3.5-0.2,3.5-2.3c0-2.5-3-3.2-3-3.2c-11.7-0.6-13.2-1.9-13.2-13.2v-46.8c0-23.8-24.2-37-44.8-37
		c-3.2,0-6.4,0.3-9.4,0.8c16.8-11.7,42.7-24.5,79-29.3c-3.3,9.4-4.8,19.6-4.8,29.8c0,14,2.8,28,7.7,39.6c5.9,14.2,15.7,22,24.4,26.3
		c-0.2,2.3-0.2,9.9,6.3,14.8c7.8,5.9,21.9,6,21.9,6S705.9,171.3,698.1,165.4z M671.3,44.3c9-8.3,22.1-8,29.8-3.5
		c3.7,2.1,5.7,5,5.7,7.8c0,0.4-0.1,0.9-0.2,1.3c-0.6,2.9-5.6,12.6-42.8,15.9c-2.5,0.2-5,0.6-7.4,0.9
		C659.8,58.2,664.6,50.5,671.3,44.3z"/>
</g>
</svg>
