<svg viewBox="0 0 144 35" fill="none" xmlns="http://www.w3.org/2000/svg"><g clip-path="url(#clip0)"><path d="M2.19058 11.5899C3.03094 11.5899 3.71123 10.9099 3.71123 10.0699C3.71123 9.22993 3.03094 8.54993 2.19058 8.54993C1.35022 8.55993 0.669922 9.23993 0.669922 10.0799C0.669922 10.9099 1.35022 11.5899 2.19058 11.5899Z" fill="#1A1A1A"/><path d="M6.03223 0.900635V29.0006H23.8599V0.900635H6.03223ZM9.81386 11.5906C8.9735 11.5906 8.2932 10.9106 8.2932 10.0706C8.2932 9.23063 8.9735 8.55063 9.81386 8.55063C10.6542 8.55063 11.3345 9.23063 11.3345 10.0706C11.3345 10.9106 10.6542 11.5906 9.81386 11.5906ZM17.3671 26.6006C16.5268 26.6006 15.8465 25.9206 15.8465 25.0806C15.8465 24.2406 16.5268 23.5606 17.3671 23.5606C18.2075 23.5606 18.8878 24.2406 18.8878 25.0806C18.8878 25.9206 18.2075 26.6006 17.3671 26.6006ZM17.3671 19.1206C16.5268 19.1206 15.8465 18.4406 15.8465 17.6006C15.8465 16.7606 16.5268 16.0806 17.3671 16.0806C18.2075 16.0806 18.8878 16.7606 18.8878 17.6006C18.8878 18.4406 18.2075 19.1206 17.3671 19.1206ZM17.3671 11.5906C16.5268 11.5906 15.8465 10.9106 15.8465 10.0706C15.8465 9.23063 16.5268 8.55063 17.3671 8.55063C18.2075 8.55063 18.8878 9.23063 18.8878 10.0706C18.8878 10.9106 18.2075 11.5906 17.3671 11.5906Z" fill="#1A1A1A"/><path d="M17.4772 34.1799C18.3176 34.1799 18.9979 33.4999 18.9979 32.6599C18.9979 31.8199 18.3176 31.1399 17.4772 31.1399C16.6368 31.1399 15.9565 31.8199 15.9565 32.6599C15.9665 33.4999 16.6468 34.1799 17.4772 34.1799Z" fill="#1A1A1A"/></g><path d="M40.0275 29H38.5698L34.8305 23.0481V29H33.3728V20.6109H34.8305L38.5813 26.5858V20.6109H40.0275V29ZM45.8118 29C45.7504 28.8809 45.6966 28.6869 45.6505 28.4181C45.2049 28.8828 44.6595 29.1152 44.0142 29.1152C43.3881 29.1152 42.8772 28.9366 42.4816 28.5794C42.0859 28.2222 41.8881 27.7804 41.8881 27.2542C41.8881 26.5897 42.1339 26.0807 42.6256 25.7273C43.1211 25.3701 43.8279 25.1915 44.7459 25.1915H45.6044V24.7824C45.6044 24.4598 45.5142 24.2024 45.3336 24.0104C45.1531 23.8145 44.8784 23.7165 44.5097 23.7165C44.1909 23.7165 43.9297 23.7972 43.7261 23.9585C43.5225 24.116 43.4207 24.3176 43.4207 24.5635H42.0206C42.0206 24.2216 42.1339 23.9028 42.3606 23.607C42.5872 23.3074 42.8945 23.0731 43.2824 22.9041C43.6742 22.7351 44.1102 22.6506 44.5904 22.6506C45.3202 22.6506 45.9021 22.835 46.3362 23.2037C46.7702 23.5686 46.993 24.0833 47.0045 24.7479V27.5596C47.0045 28.1204 47.0833 28.5679 47.2408 28.9021V29H45.8118ZM44.2735 27.9917C44.55 27.9917 44.8093 27.9245 45.0513 27.79C45.2971 27.6556 45.4815 27.4751 45.6044 27.2484V26.073H44.8496C44.3311 26.073 43.9412 26.1633 43.68 26.3438C43.4188 26.5244 43.2882 26.7798 43.2882 27.1102C43.2882 27.379 43.3766 27.5941 43.5533 27.7555C43.7338 27.913 43.9739 27.9917 44.2735 27.9917ZM52.4374 27.3061C52.4374 27.0564 52.3336 26.8662 52.1262 26.7356C51.9226 26.605 51.5827 26.4898 51.1064 26.3899C50.6301 26.2901 50.2325 26.1633 49.9137 26.0097C49.2146 25.6716 48.8651 25.1819 48.8651 24.5404C48.8651 24.0027 49.0917 23.5533 49.545 23.1922C49.9982 22.8311 50.5744 22.6506 51.2735 22.6506C52.0187 22.6506 52.6198 22.835 53.0769 23.2037C53.5378 23.5725 53.7683 24.0507 53.7683 24.6384H52.3682C52.3682 24.3695 52.2684 24.1467 52.0686 23.97C51.8689 23.7895 51.6038 23.6992 51.2735 23.6992C50.9662 23.6992 50.7146 23.7703 50.5187 23.9124C50.3267 24.0545 50.2306 24.2447 50.2306 24.4828C50.2306 24.6979 50.3209 24.865 50.5014 24.9841C50.682 25.1032 51.0469 25.2242 51.5961 25.3471C52.1454 25.4661 52.5756 25.6102 52.8868 25.7792C53.2017 25.9444 53.4341 26.1441 53.5839 26.3784C53.7376 26.6127 53.8144 26.897 53.8144 27.2312C53.8144 27.792 53.582 28.2471 53.1172 28.5967C52.6525 28.9424 52.0436 29.1152 51.2908 29.1152C50.7799 29.1152 50.3247 29.023 49.9253 28.8387C49.5258 28.6543 49.2146 28.4008 48.9919 28.0781C48.7691 27.7555 48.6577 27.4078 48.6577 27.0353H50.0174C50.0366 27.3656 50.1615 27.621 50.392 27.8016C50.6224 27.9783 50.9278 28.0666 51.3081 28.0666C51.6768 28.0666 51.9572 27.9975 52.1493 27.8592C52.3413 27.7171 52.4374 27.5327 52.4374 27.3061ZM56.9714 22.7658V29.5531C56.9714 30.1908 56.812 30.6767 56.4931 31.0108C56.1782 31.3489 55.7153 31.5179 55.1046 31.5179C54.8472 31.5179 54.5995 31.4852 54.3613 31.4199V30.3137C54.5073 30.3482 54.6724 30.3655 54.8568 30.3655C55.3216 30.3655 55.5598 30.112 55.5713 29.605V22.7658H56.9714ZM55.4503 21.1468C55.4503 20.9317 55.5175 20.7531 55.6519 20.6109C55.7902 20.4688 55.9861 20.3978 56.2396 20.3978C56.4931 20.3978 56.689 20.4688 56.8273 20.6109C56.9656 20.7531 57.0348 20.9317 57.0348 21.1468C57.0348 21.358 56.9656 21.5347 56.8273 21.6769C56.689 21.8151 56.4931 21.8843 56.2396 21.8843C55.9861 21.8843 55.7902 21.8151 55.6519 21.6769C55.5175 21.5347 55.4503 21.358 55.4503 21.1468ZM58.6821 25.8253C58.6821 25.2146 58.8031 24.6653 59.0451 24.1774C59.2871 23.6858 59.6271 23.3093 60.065 23.0481C60.5028 22.7831 61.006 22.6506 61.5745 22.6506C62.4157 22.6506 63.0975 22.9214 63.6199 23.463C64.1462 24.0046 64.4304 24.7229 64.4727 25.6179L64.4784 25.9463C64.4784 26.5609 64.3594 27.1102 64.1212 27.5941C63.8869 28.0781 63.5489 28.4526 63.1071 28.7177C62.6693 28.9827 62.1622 29.1152 61.586 29.1152C60.7064 29.1152 60.0016 28.8233 59.4715 28.2395C58.9453 27.6518 58.6821 26.8701 58.6821 25.8944V25.8253ZM60.0822 25.9463C60.0822 26.5878 60.2148 27.091 60.4798 27.4559C60.7448 27.8169 61.1136 27.9975 61.586 27.9975C62.0585 27.9975 62.4253 27.8131 62.6865 27.4443C62.9516 27.0756 63.0841 26.5359 63.0841 25.8253C63.0841 25.1953 62.9477 24.696 62.675 24.3272C62.4061 23.9585 62.0393 23.7741 61.5745 23.7741C61.1174 23.7741 60.7544 23.9566 60.4856 24.3215C60.2167 24.6826 60.0822 25.2242 60.0822 25.9463ZM67.4337 22.7658L67.4741 23.486C67.935 22.9291 68.54 22.6506 69.289 22.6506C70.5873 22.6506 71.248 23.3938 71.271 24.8804V29H69.8709V24.961C69.8709 24.5654 69.7845 24.2735 69.6117 24.0853C69.4427 23.8932 69.1642 23.7972 68.7762 23.7972C68.2116 23.7972 67.791 24.0526 67.5144 24.5635V29H66.1143V22.7658H67.4337ZM76.8998 29C76.8383 28.8809 76.7845 28.6869 76.7384 28.4181C76.2929 28.8828 75.7474 29.1152 75.1021 29.1152C74.476 29.1152 73.9651 28.9366 73.5695 28.5794C73.1739 28.2222 72.976 27.7804 72.976 27.2542C72.976 26.5897 73.2219 26.0807 73.7135 25.7273C74.2091 25.3701 74.9158 25.1915 75.8339 25.1915H76.6924V24.7824C76.6924 24.4598 76.6021 24.2024 76.4216 24.0104C76.241 23.8145 75.9664 23.7165 75.5976 23.7165C75.2788 23.7165 75.0176 23.7972 74.814 23.9585C74.6105 24.116 74.5087 24.3176 74.5087 24.5635H73.1086C73.1086 24.2216 73.2219 23.9028 73.4485 23.607C73.6751 23.3074 73.9824 23.0731 74.3704 22.9041C74.7622 22.7351 75.1981 22.6506 75.6783 22.6506C76.4081 22.6506 76.99 22.835 77.4241 23.2037C77.8581 23.5686 78.0809 24.0833 78.0925 24.7479V27.5596C78.0925 28.1204 78.1712 28.5679 78.3287 28.9021V29H76.8998ZM75.3614 27.9917C75.638 27.9917 75.8972 27.9245 76.1392 27.79C76.3851 27.6556 76.5694 27.4751 76.6924 27.2484V26.073H75.9376C75.419 26.073 75.0291 26.1633 74.7679 26.3438C74.5067 26.5244 74.3761 26.7798 74.3761 27.1102C74.3761 27.379 74.4645 27.5941 74.6412 27.7555C74.8217 27.913 75.0618 27.9917 75.3614 27.9917ZM81.5202 29H80.1201V20.15H81.5202V29ZM88.9927 25.9463C88.9927 26.9143 88.7757 27.6844 88.3416 28.2567C87.9114 28.8291 87.318 29.1152 86.5613 29.1152C85.8314 29.1152 85.2629 28.8521 84.8558 28.3259L84.7866 29H83.5191V20.15H84.9192V23.365C85.3225 22.8887 85.866 22.6506 86.5497 22.6506C87.3103 22.6506 87.9076 22.9329 88.3416 23.4976C88.7757 24.0622 88.9927 24.8516 88.9927 25.8656V25.9463ZM87.5926 25.8253C87.5926 25.1493 87.4735 24.6422 87.2354 24.3042C86.9972 23.9662 86.6515 23.7972 86.1983 23.7972C85.5914 23.7972 85.165 24.0622 84.9192 24.5923V27.162C85.1688 27.7036 85.599 27.9744 86.2098 27.9744C86.6477 27.9744 86.9857 27.8112 87.2239 27.4847C87.462 27.1582 87.5849 26.6646 87.5926 26.0039V25.8253ZM92.1324 29H90.7323V22.7658H92.1324V29ZM90.6459 21.1468C90.6459 20.9317 90.7131 20.7531 90.8475 20.6109C90.9858 20.4688 91.1817 20.3978 91.4352 20.3978C91.6887 20.3978 91.8846 20.4688 92.0229 20.6109C92.1612 20.7531 92.2303 20.9317 92.2303 21.1468C92.2303 21.358 92.1612 21.5347 92.0229 21.6769C91.8846 21.8151 91.6887 21.8843 91.4352 21.8843C91.1817 21.8843 90.9858 21.8151 90.8475 21.6769C90.7131 21.5347 90.6459 21.358 90.6459 21.1468ZM99.6049 25.9463C99.6049 26.9143 99.3878 27.6844 98.9538 28.2567C98.5236 28.8291 97.9301 29.1152 97.1734 29.1152C96.4436 29.1152 95.8751 28.8521 95.468 28.3259L95.3988 29H94.1312V20.15H95.5313V23.365C95.9346 22.8887 96.4782 22.6506 97.1619 22.6506C97.9224 22.6506 98.5197 22.9329 98.9538 23.4976C99.3878 24.0622 99.6049 24.8516 99.6049 25.8656V25.9463ZM98.2048 25.8253C98.2048 25.1493 98.0857 24.6422 97.8475 24.3042C97.6094 23.9662 97.2637 23.7972 96.8104 23.7972C96.2035 23.7972 95.7772 24.0622 95.5313 24.5923V27.162C95.781 27.7036 96.2112 27.9744 96.822 27.9744C97.2598 27.9744 97.5979 27.8112 97.836 27.4847C98.0742 27.1582 98.1971 26.6646 98.2048 26.0039V25.8253ZM102.745 29H101.344V20.15H102.745V29ZM106.236 29H104.836V22.7658H106.236V29ZM104.749 21.1468C104.749 20.9317 104.816 20.7531 104.951 20.6109C105.089 20.4688 105.285 20.3978 105.539 20.3978C105.792 20.3978 105.988 20.4688 106.126 20.6109C106.264 20.7531 106.334 20.9317 106.334 21.1468C106.334 21.358 106.264 21.5347 106.126 21.6769C105.988 21.8151 105.792 21.8843 105.539 21.8843C105.285 21.8843 105.089 21.8151 104.951 21.6769C104.816 21.5347 104.749 21.358 104.749 21.1468ZM107.975 25.8253C107.975 25.2146 108.096 24.6653 108.338 24.1774C108.58 23.6858 108.92 23.3093 109.358 23.0481C109.796 22.7831 110.299 22.6506 110.868 22.6506C111.709 22.6506 112.391 22.9214 112.913 23.463C113.439 24.0046 113.724 24.7229 113.766 25.6179L113.772 25.9463C113.772 26.5609 113.652 27.1102 113.414 27.5941C113.18 28.0781 112.842 28.4526 112.4 28.7177C111.962 28.9827 111.455 29.1152 110.879 29.1152C110 29.1152 109.295 28.8233 108.765 28.2395C108.238 27.6518 107.975 26.8701 107.975 25.8944V25.8253ZM109.375 25.9463C109.375 26.5878 109.508 27.091 109.773 27.4559C110.038 27.8169 110.407 27.9975 110.879 27.9975C111.352 27.9975 111.718 27.8131 111.98 27.4443C112.245 27.0756 112.377 26.5359 112.377 25.8253C112.377 25.1953 112.241 24.696 111.968 24.3272C111.699 23.9585 111.332 23.7741 110.868 23.7741C110.411 23.7741 110.048 23.9566 109.779 24.3215C109.51 24.6826 109.375 25.2242 109.375 25.9463ZM117.182 21.2505V22.7658H118.283V23.8029H117.182V27.283C117.182 27.5212 117.228 27.694 117.32 27.8016C117.416 27.9053 117.585 27.9571 117.827 27.9571C117.989 27.9571 118.152 27.9379 118.317 27.8995V28.9827C117.998 29.0711 117.691 29.1152 117.395 29.1152C116.32 29.1152 115.782 28.5218 115.782 27.3349V23.8029H114.756V22.7658H115.782V21.2505H117.182ZM122.575 29.1152C121.687 29.1152 120.967 28.8368 120.414 28.2798C119.865 27.719 119.59 26.9738 119.59 26.0442V25.8714C119.59 25.2491 119.709 24.6941 119.947 24.2062C120.189 23.7146 120.527 23.3324 120.961 23.0597C121.395 22.7869 121.879 22.6506 122.413 22.6506C123.262 22.6506 123.917 22.9214 124.378 23.463C124.843 24.0046 125.075 24.7709 125.075 25.7619V26.3266H121.002C121.044 26.8413 121.215 27.2484 121.514 27.548C121.818 27.8477 122.198 27.9975 122.655 27.9975C123.297 27.9975 123.819 27.7382 124.222 27.2196L124.977 27.9398C124.727 28.3124 124.393 28.6024 123.975 28.8099C123.56 29.0134 123.093 29.1152 122.575 29.1152ZM122.407 23.7741C122.023 23.7741 121.712 23.9086 121.474 24.1774C121.24 24.4463 121.09 24.8208 121.025 25.301H123.692V25.1973C123.662 24.7286 123.537 24.3753 123.318 24.1371C123.099 23.8951 122.795 23.7741 122.407 23.7741ZM128.664 26.3266L128.042 26.9661V29H126.642V20.15H128.042V25.2549L128.48 24.7075L130.203 22.7658H131.885L129.569 25.3644L132.133 29H130.514L128.664 26.3266ZM135.906 29.1152C135.019 29.1152 134.299 28.8368 133.746 28.2798C133.196 27.719 132.922 26.9738 132.922 26.0442V25.8714C132.922 25.2491 133.041 24.6941 133.279 24.2062C133.521 23.7146 133.859 23.3324 134.293 23.0597C134.727 22.7869 135.211 22.6506 135.745 22.6506C136.594 22.6506 137.249 22.9214 137.71 23.463C138.174 24.0046 138.407 24.7709 138.407 25.7619V26.3266H134.333C134.376 26.8413 134.546 27.2484 134.846 27.548C135.15 27.8477 135.53 27.9975 135.987 27.9975C136.628 27.9975 137.151 27.7382 137.554 27.2196L138.309 27.9398C138.059 28.3124 137.725 28.6024 137.306 28.8099C136.891 29.0134 136.425 29.1152 135.906 29.1152ZM135.739 23.7741C135.355 23.7741 135.044 23.9086 134.806 24.1774C134.571 24.4463 134.422 24.8208 134.356 25.301H137.024V25.1973C136.993 24.7286 136.868 24.3753 136.649 24.1371C136.431 23.8951 136.127 23.7741 135.739 23.7741ZM141.725 21.2505V22.7658H142.826V23.8029H141.725V27.283C141.725 27.5212 141.771 27.694 141.863 27.8016C141.959 27.9053 142.128 27.9571 142.37 27.9571C142.532 27.9571 142.695 27.9379 142.86 27.8995V28.9827C142.541 29.0711 142.234 29.1152 141.938 29.1152C140.863 29.1152 140.325 28.5218 140.325 27.3349V23.8029H139.299V22.7658H140.325V21.2505H141.725Z" fill="#1A1A1A"/><defs><clipPath id="clip0"><rect width="24" height="34" fill="white" transform="translate(0.52002 0.65332)"/></clipPath></defs></svg>