<svg xmlns="http://www.w3.org/2000/svg" width="204.759" height="110.745" viewBox="0 0 204.759 110.745">
  <g id="Group_1088" data-name="Group 1088" transform="translate(-486.186 -145.152)">
    <g id="Group_1087" data-name="Group 1087">
      <path id="Path_603" data-name="Path 603" d="M489.108,238.886c.033,1.279.246,1.706.574,1.821a2.593,2.593,0,0,0,.853.115c.181,0,.279.033.279.131,0,.131-.147.164-.377.164-1.067,0-1.723-.049-2.035-.049-.147,0-.919.049-1.772.049-.213,0-.361-.016-.361-.164,0-.1.1-.131.263-.131a2.9,2.9,0,0,0,.738-.082c.427-.131.492-.607.509-2.035l.148-9.715c0-.327.049-.557.213-.557.18,0,.328.213.607.508.2.214,2.691,2.889,5.087,5.268,1.116,1.116,3.331,3.479,3.61,3.742h.082l-.164-7.369c-.017-1-.164-1.312-.558-1.476a2.663,2.663,0,0,0-.87-.1c-.2,0-.262-.049-.262-.147,0-.132.18-.148.426-.148.853,0,1.641.049,1.986.049.18,0,.8-.049,1.608-.049.213,0,.377.016.377.148,0,.1-.1.147-.3.147a1.794,1.794,0,0,0-.492.049c-.46.132-.591.476-.607,1.4l-.181,10.355c0,.361-.065.508-.213.508-.181,0-.378-.181-.558-.361-1.034-.985-3.134-3.134-4.841-4.824-1.789-1.773-3.61-3.824-3.9-4.135h-.05Z" fill="#5e6264"/>
      <path id="Path_604" data-name="Path 604" d="M503.729,233.47c0-2.493,0-2.952-.033-3.478-.033-.558-.2-.837-.558-.919a2.292,2.292,0,0,0-.59-.066c-.165,0-.263-.032-.263-.165,0-.1.131-.13.394-.13.623,0,1.657.048,2.133.048.41,0,1.378-.048,2-.048.213,0,.345.033.345.13,0,.133-.1.165-.263.165a2.671,2.671,0,0,0-.492.05c-.443.082-.575.361-.607.935-.033.526-.033.985-.033,3.478v2.888c0,1.593,0,2.888.065,3.594.05.444.165.738.657.805a7.078,7.078,0,0,0,.837.065c.18,0,.262.049.262.131,0,.115-.131.164-.312.164-1.083,0-2.116-.049-2.559-.049-.378,0-1.412.049-2.068.049-.213,0-.328-.049-.328-.164,0-.082.065-.131.262-.131a2.733,2.733,0,0,0,.591-.065c.328-.067.427-.346.476-.821.082-.69.082-1.985.082-3.578Z" fill="#5e6264"/>
      <path id="Path_605" data-name="Path 605" d="M513.2,235.276c0,1.74.017,3,.033,3.315a3.551,3.551,0,0,0,.181,1.246c.213.311.853.656,2.149.656a5.273,5.273,0,0,0,3.774-1.181c1.05-.9,1.379-2.395,1.379-4.085a5.573,5.573,0,0,0-1.576-4.1,6.5,6.5,0,0,0-4.66-1.642,4.35,4.35,0,0,0-1.066.116.3.3,0,0,0-.2.327c-.017.558-.017,1.985-.017,3.282Zm-2.051-1.806c0-2.493,0-2.952-.033-3.478-.033-.558-.164-.82-.705-.935a3.281,3.281,0,0,0-.64-.05c-.181,0-.279-.032-.279-.148s.115-.147.361-.147c.869,0,1.9.048,2.363.048.508,0,1.542-.048,2.527-.048,2.051,0,4.791,0,6.58,1.871a5.864,5.864,0,0,1,1.592,4.168,6.513,6.513,0,0,1-1.789,4.577,7.478,7.478,0,0,1-5.5,1.938c-.591,0-1.264-.05-1.887-.1s-1.2-.1-1.608-.1c-.181,0-.542,0-.936.017-.377,0-.8.032-1.132.032-.213,0-.328-.049-.328-.164,0-.082.065-.131.262-.131a2.733,2.733,0,0,0,.591-.065c.328-.067.41-.428.476-.9.082-.69.082-1.987.082-3.5Z" fill="#5e6264"/>
      <path id="Path_606" data-name="Path 606" d="M530.512,236.014c.082,0,.1-.049.082-.1l-1.477-4.053c-.016-.066-.033-.148-.082-.148s-.082.082-.1.148l-1.509,4.037c-.017.065,0,.114.065.114Zm-3.348.821c-.082,0-.115.033-.148.131l-.886,2.347a3.184,3.184,0,0,0-.246,1c0,.295.148.508.657.508h.246c.2,0,.246.033.246.132,0,.131-.1.163-.279.163-.525,0-1.231-.049-1.739-.049-.181,0-1.083.049-1.937.049-.213,0-.312-.032-.312-.163,0-.1.066-.132.2-.132a5.087,5.087,0,0,0,.509-.032c.755-.1,1.067-.657,1.4-1.477l4.119-10.306c.2-.476.295-.656.459-.656.148,0,.246.148.41.526.394.9,3.02,7.6,4.07,10.091.623,1.476,1.1,1.706,1.444,1.789a3.61,3.61,0,0,0,.689.065c.131,0,.213.017.213.132,0,.131-.147.163-.754.163-.591,0-1.789,0-3.1-.032-.295-.017-.492-.017-.492-.131s.065-.132.23-.148a.268.268,0,0,0,.147-.378l-1.313-3.479a.157.157,0,0,0-.164-.114Z" fill="#5e6264"/>
      <path id="Path_607" data-name="Path 607" d="M539.931,234.767c0,.181.033.246.148.294a4.289,4.289,0,0,0,1.247.166,1.648,1.648,0,0,0,1.165-.279,2.892,2.892,0,0,0,.968-2.462c0-2.33-1.542-3-2.51-3a3.613,3.613,0,0,0-.87.066c-.115.033-.148.1-.148.23Zm-1.936-1.3c0-2.493,0-2.952-.033-3.478-.033-.558-.164-.82-.706-.935a3.262,3.262,0,0,0-.639-.05c-.181,0-.279-.032-.279-.148s.115-.147.361-.147c.869,0,1.9.048,2.248.048.558,0,1.8-.048,2.314-.048a5.248,5.248,0,0,1,3.019.706,2.84,2.84,0,0,1,1.116,2.247c0,1.215-.509,2.331-2.166,3.676,1.46,1.837,2.592,3.3,3.56,4.315a3.263,3.263,0,0,0,1.838,1.116,2.492,2.492,0,0,0,.46.05c.131,0,.2.049.2.131,0,.132-.115.164-.312.164h-1.559a3.349,3.349,0,0,1-1.756-.311,7.941,7.941,0,0,1-2.248-2.413c-.656-.9-1.411-2.017-1.624-2.264a.345.345,0,0,0-.3-.115l-1.427-.034c-.082,0-.132.034-.132.133v.229c0,1.525,0,2.822.082,3.512.05.475.148.836.64.9a7.769,7.769,0,0,0,.8.065c.132,0,.2.049.2.131,0,.115-.115.164-.328.164-.952,0-2.166-.049-2.412-.049-.312,0-1.346.049-2,.049-.213,0-.328-.049-.328-.164,0-.082.065-.131.262-.131a2.733,2.733,0,0,0,.591-.065c.328-.067.41-.428.476-.9.082-.69.082-1.987.082-3.5Z" fill="#5e6264"/>
      <path id="Path_608" data-name="Path 608" d="M559.623,235.226c0-3.676-2.116-5.956-4.808-5.956-1.887,0-4.036,1.05-4.036,5.136,0,3.413,1.887,6.121,5.037,6.121,1.149,0,3.807-.559,3.807-5.3m-11.109-.311c0-2.807,1.854-6.433,6.777-6.433,4.086,0,6.63,2.379,6.63,6.137a6.487,6.487,0,0,1-6.794,6.728,6.25,6.25,0,0,1-6.613-6.432" fill="#5e6264"/>
      <path id="Path_609" data-name="Path 609" d="M564.613,240.92c-.263-.114-.312-.2-.312-.557,0-.9.066-1.887.082-2.15.017-.246.066-.427.2-.427.148,0,.164.148.164.279a3.472,3.472,0,0,0,.148.837,2.262,2.262,0,0,0,2.346,1.658,2,2,0,0,0,2.2-1.871c0-.8-.246-1.559-1.608-2.626l-.755-.591c-1.8-1.411-2.428-2.559-2.428-3.889,0-1.8,1.509-3.1,3.79-3.1a7.981,7.981,0,0,1,2.183.279c.147.033.23.082.23.2,0,.213-.066.689-.066,1.969,0,.361-.049.493-.181.493-.115,0-.164-.1-.164-.3a1.987,1.987,0,0,0-.427-1.083,2.075,2.075,0,0,0-1.788-.8,1.727,1.727,0,0,0-1.953,1.69c0,.755.378,1.329,1.74,2.364l.459.343c1.986,1.494,2.691,2.626,2.691,4.185a3.307,3.307,0,0,1-1.542,2.855,4.746,4.746,0,0,1-2.609.673,5.668,5.668,0,0,1-2.4-.427" fill="#5e6264"/>
      <path id="Path_610" data-name="Path 610" d="M582.04,235.276c0,1.74.017,3,.033,3.315a3.549,3.549,0,0,0,.181,1.246c.213.311.853.656,2.149.656a5.273,5.273,0,0,0,3.774-1.181c1.05-.9,1.379-2.395,1.379-4.085a5.578,5.578,0,0,0-1.575-4.1,6.5,6.5,0,0,0-4.661-1.642,4.349,4.349,0,0,0-1.066.116.3.3,0,0,0-.2.327c-.017.558-.017,1.985-.017,3.282Zm-2.051-1.806c0-2.493,0-2.952-.033-3.478-.033-.558-.164-.82-.706-.935a3.267,3.267,0,0,0-.64-.05c-.18,0-.278-.032-.278-.148s.115-.147.361-.147c.869,0,1.9.048,2.362.048.509,0,1.543-.048,2.528-.048,2.051,0,4.791,0,6.58,1.871a5.864,5.864,0,0,1,1.592,4.168,6.513,6.513,0,0,1-1.789,4.577,7.48,7.48,0,0,1-5.5,1.938c-.591,0-1.264-.05-1.887-.1s-1.2-.1-1.608-.1c-.181,0-.542,0-.936.017-.377,0-.8.032-1.132.032-.213,0-.328-.049-.328-.164,0-.082.065-.131.262-.131a2.733,2.733,0,0,0,.591-.065c.328-.067.41-.428.476-.9.082-.69.082-1.987.082-3.5Z" fill="#5e6264"/>
      <path id="Path_611" data-name="Path 611" d="M604.67,235.226c0-3.676-2.117-5.956-4.808-5.956-1.887,0-4.037,1.05-4.037,5.136,0,3.413,1.887,6.121,5.038,6.121,1.149,0,3.807-.559,3.807-5.3m-11.109-.311c0-2.807,1.854-6.433,6.777-6.433,4.086,0,6.63,2.379,6.63,6.137a6.487,6.487,0,0,1-6.794,6.728,6.25,6.25,0,0,1-6.613-6.432" fill="#5e6264"/>
      <path id="Path_612" data-name="Path 612" d="M611.087,228.777c.049-.279.148-.426.279-.426s.23.082.443.509l4.48,9.254,4.463-9.37c.131-.262.214-.393.361-.393s.246.164.3.509L622.9,239c.148,1.034.312,1.51.8,1.657a3.249,3.249,0,0,0,1.017.165c.148,0,.263.016.263.115,0,.131-.2.18-.427.18-.41,0-2.674-.049-3.331-.1-.377-.033-.476-.082-.476-.181,0-.081.066-.131.181-.181.1-.032.147-.246.082-.705l-.985-7.22h-.066l-3.576,7.45c-.378.771-.46.919-.608.919s-.311-.328-.574-.821c-.394-.754-1.69-3.265-1.887-3.724-.148-.345-1.132-2.413-1.707-3.644h-.066l-.853,6.531a6.669,6.669,0,0,0-.049.771c0,.313.213.46.492.526a3.153,3.153,0,0,0,.69.082c.131,0,.246.033.246.115,0,.147-.148.18-.394.18-.69,0-1.428-.049-1.723-.049-.312,0-1.1.049-1.624.049-.165,0-.3-.033-.3-.18,0-.082.1-.115.262-.115a2.128,2.128,0,0,0,.493-.049c.46-.1.591-.739.672-1.3Z" fill="#5e6264"/>
      <path id="Path_613" data-name="Path 613" d="M629.6,234.192h.082c.558-.607,2.954-3.052,3.43-3.61.459-.541.82-.952.82-1.23,0-.181-.065-.3-.23-.329-.147-.033-.212-.066-.212-.164,0-.115.081-.148.262-.148.344,0,1.247.049,1.69.049.509,0,1.411-.049,1.92-.049.164,0,.279.033.279.148s-.083.147-.246.147a3.2,3.2,0,0,0-.952.181,5.252,5.252,0,0,0-1.772,1.23c-.509.493-2.987,2.955-3.545,3.545.591.772,3.807,4.234,4.447,4.841a7.772,7.772,0,0,0,2.347,1.772,2.829,2.829,0,0,0,1.017.247c.115,0,.213.032.213.131,0,.115-.082.164-.393.164h-1.428c-.492,0-.787,0-1.132-.033a3.223,3.223,0,0,1-2.035-1.067c-.722-.639-3.955-4.43-4.3-4.906l-.18-.246H629.6v1.493c0,1.509,0,2.806.05,3.512.032.459.18.82.59.886a6.89,6.89,0,0,0,.8.066c.132,0,.213.048.213.131,0,.115-.131.164-.311.164-.919,0-1.953-.049-2.363-.049-.378,0-1.412.049-2.068.049-.213,0-.328-.049-.328-.164,0-.083.066-.131.262-.131a2.655,2.655,0,0,0,.591-.066c.328-.066.411-.427.476-.9.082-.69.082-1.987.082-3.5V233.47c0-2.494,0-2.953-.032-3.479-.034-.558-.165-.82-.706-.935a3.354,3.354,0,0,0-.64-.05c-.18,0-.279-.032-.279-.147s.115-.148.361-.148c.869,0,1.9.049,2.3.049s1.428-.049,1.986-.049c.23,0,.345.033.345.148s-.1.147-.23.147a2.429,2.429,0,0,0-.46.05c-.443.082-.574.361-.607.935-.033.526-.033.985-.033,3.479Z" fill="#5e6264"/>
      <path id="Path_614" data-name="Path 614" d="M640.2,233.47c0-2.493,0-2.952-.033-3.478-.033-.558-.2-.837-.558-.919a2.287,2.287,0,0,0-.59-.066c-.164,0-.263-.032-.263-.165,0-.1.131-.13.394-.13.623,0,1.657.048,2.133.048.41,0,1.378-.048,2-.048.213,0,.344.033.344.13,0,.133-.1.165-.262.165a2.671,2.671,0,0,0-.492.05c-.443.082-.575.361-.607.935-.034.526-.034.985-.034,3.478v2.888c0,1.593,0,2.888.066,3.594.049.444.164.738.657.805a7.1,7.1,0,0,0,.837.065c.18,0,.262.049.262.131,0,.115-.131.164-.312.164-1.083,0-2.117-.049-2.559-.049-.378,0-1.412.049-2.068.049-.213,0-.328-.049-.328-.164,0-.082.066-.131.262-.131a2.741,2.741,0,0,0,.591-.065c.328-.067.427-.346.476-.821.082-.69.082-1.985.082-3.578Z" fill="#5e6264"/>
      <path id="Path_615" data-name="Path 615" d="M649.554,234.767c0,.181.032.246.147.294a4.289,4.289,0,0,0,1.247.166,1.647,1.647,0,0,0,1.165-.279,2.892,2.892,0,0,0,.968-2.462c0-2.33-1.542-3-2.511-3a3.609,3.609,0,0,0-.869.066c-.115.033-.147.1-.147.23Zm-1.937-1.3c0-2.493,0-2.952-.033-3.478-.033-.558-.164-.82-.7-.935a3.279,3.279,0,0,0-.641-.05c-.18,0-.278-.032-.278-.148s.115-.147.361-.147c.869,0,1.9.048,2.248.048.558,0,1.805-.048,2.314-.048a5.248,5.248,0,0,1,3.019.706,2.84,2.84,0,0,1,1.115,2.247c0,1.215-.508,2.331-2.165,3.676,1.46,1.837,2.592,3.3,3.56,4.315a3.26,3.26,0,0,0,1.838,1.116,2.492,2.492,0,0,0,.46.05c.131,0,.2.049.2.131,0,.132-.115.164-.312.164h-1.559a3.349,3.349,0,0,1-1.756-.311,7.953,7.953,0,0,1-2.248-2.413c-.656-.9-1.411-2.017-1.624-2.264a.345.345,0,0,0-.3-.115l-1.427-.034c-.082,0-.131.034-.131.133v.229c0,1.525,0,2.822.081,3.512.05.475.148.836.64.9a7.786,7.786,0,0,0,.8.065c.131,0,.2.049.2.131,0,.115-.115.164-.328.164-.952,0-2.166-.049-2.412-.049-.312,0-1.346.049-2,.049-.213,0-.328-.049-.328-.164,0-.082.066-.131.262-.131a2.741,2.741,0,0,0,.591-.065c.328-.067.411-.428.476-.9.082-.69.082-1.987.082-3.5Z" fill="#5e6264"/>
      <path id="Path_616" data-name="Path 616" d="M662.01,234.192h.081c.558-.607,2.954-3.052,3.43-3.61.459-.541.82-.952.82-1.23,0-.181-.065-.3-.229-.329-.148-.033-.214-.066-.214-.164,0-.115.082-.148.263-.148.344,0,1.246.049,1.691.049.508,0,1.411-.049,1.919-.049.164,0,.279.033.279.148s-.083.147-.245.147a3.2,3.2,0,0,0-.953.181,5.249,5.249,0,0,0-1.771,1.23c-.51.493-2.987,2.955-3.546,3.545.591.772,3.807,4.234,4.447,4.841a7.772,7.772,0,0,0,2.347,1.772,2.83,2.83,0,0,0,1.017.247c.115,0,.214.032.214.131,0,.115-.083.164-.393.164h-1.429c-.493,0-.787,0-1.131-.033a3.221,3.221,0,0,1-2.036-1.067c-.722-.639-3.954-4.43-4.3-4.906l-.18-.246h-.081v1.493c0,1.509,0,2.806.05,3.512.031.459.18.82.589.886a6.907,6.907,0,0,0,.8.066c.133,0,.214.048.214.131,0,.115-.132.164-.312.164-.919,0-1.953-.049-2.363-.049-.377,0-1.411.049-2.068.049-.213,0-.328-.049-.328-.164,0-.083.066-.131.263-.131a2.659,2.659,0,0,0,.59-.066c.328-.066.411-.427.476-.9.083-.69.083-1.987.083-3.5V233.47c0-2.494,0-2.953-.033-3.479-.034-.558-.165-.82-.706-.935a3.343,3.343,0,0,0-.639-.05c-.182,0-.28-.032-.28-.147s.116-.148.361-.148c.87,0,1.9.049,2.3.049s1.428-.049,1.987-.049c.229,0,.344.033.344.148s-.1.147-.23.147a2.438,2.438,0,0,0-.46.05c-.443.082-.573.361-.607.935-.032.526-.032.985-.032,3.479Z" fill="#5e6264"/>
      <path id="Path_617" data-name="Path 617" d="M672.611,233.47c0-2.493,0-2.952-.033-3.478-.032-.558-.164-.82-.705-.935a3.274,3.274,0,0,0-.64-.05c-.181,0-.279-.032-.279-.148s.115-.147.361-.147c.443,0,.919.016,1.329.016.427.017.8.032,1.034.032.525,0,3.79,0,4.1-.015a7.1,7.1,0,0,0,.7-.1,1.512,1.512,0,0,1,.263-.066c.082,0,.1.066.1.147a10.549,10.549,0,0,0-.132,1.068c-.016.162-.049.885-.081,1.082-.017.083-.05.181-.165.181s-.147-.082-.147-.231a1.769,1.769,0,0,0-.1-.59c-.115-.3-.279-.492-1.1-.591-.28-.032-2-.065-2.33-.065-.083,0-.115.048-.115.164V233.9c0,.116.016.181.115.181.361,0,2.248,0,2.625-.034a1.138,1.138,0,0,0,.788-.246c.115-.131.18-.212.262-.212.066,0,.115.031.115.13s-.065.362-.131,1.2c-.017.328-.066.986-.066,1.1,0,.132,0,.313-.148.313a.131.131,0,0,1-.147-.15,4.472,4.472,0,0,0-.066-.59c-.082-.328-.312-.574-.918-.639-.312-.034-1.937-.051-2.331-.051-.082,0-.1.067-.1.164v1.3c0,.559-.017,2.069,0,2.544.032,1.133.295,1.379,1.969,1.379a4.141,4.141,0,0,0,1.542-.2c.427-.2.624-.541.739-1.213.032-.181.065-.248.18-.248.132,0,.132.133.132.3a12.883,12.883,0,0,1-.214,1.821c-.115.427-.262.427-.886.427-1.231,0-2.133-.033-2.839-.05s-1.214-.049-1.707-.049c-.18,0-.541,0-.935.017-.377,0-.8.032-1.132.032-.213,0-.328-.049-.328-.164,0-.082.066-.131.262-.131a2.74,2.74,0,0,0,.591-.065c.328-.067.41-.428.476-.9.082-.69.082-1.987.082-3.5Z" fill="#5e6264"/>
      <path id="Path_618" data-name="Path 618" d="M682.08,240.92c-.262-.114-.312-.2-.312-.557,0-.9.065-1.887.081-2.15.016-.246.067-.427.2-.427.148,0,.164.148.164.279a3.425,3.425,0,0,0,.148.837,2.261,2.261,0,0,0,2.347,1.658,1.994,1.994,0,0,0,2.2-1.871c0-.8-.245-1.559-1.609-2.626l-.754-.591c-1.806-1.411-2.429-2.559-2.429-3.889,0-1.8,1.51-3.1,3.791-3.1a7.987,7.987,0,0,1,2.183.279c.148.033.229.082.229.2,0,.213-.065.689-.065,1.969,0,.361-.049.493-.18.493-.115,0-.166-.1-.166-.3a1.988,1.988,0,0,0-.425-1.083,2.081,2.081,0,0,0-1.789-.8,1.727,1.727,0,0,0-1.953,1.69c0,.755.378,1.329,1.74,2.364l.458.343c1.987,1.494,2.692,2.626,2.692,4.185a3.306,3.306,0,0,1-1.543,2.855,4.744,4.744,0,0,1-2.608.673,5.665,5.665,0,0,1-2.4-.427" fill="#5e6264"/>
      <path id="Path_619" data-name="Path 619" d="M488.579,251.514c0,.121.022.165.1.2a2.894,2.894,0,0,0,.83.109,1.094,1.094,0,0,0,.776-.186,1.924,1.924,0,0,0,.645-1.639,1.748,1.748,0,0,0-1.672-2,2.33,2.33,0,0,0-.579.044c-.077.021-.1.065-.1.152Zm-1.289-.862c0-1.661,0-1.967-.022-2.316-.022-.372-.109-.547-.47-.624a2.239,2.239,0,0,0-.426-.032c-.12,0-.186-.022-.186-.1s.077-.1.241-.1c.579,0,1.267.033,1.5.033.371,0,1.2-.033,1.54-.033a3.488,3.488,0,0,1,2.011.47,1.892,1.892,0,0,1,.743,1.5,3.064,3.064,0,0,1-1.443,2.448c.973,1.224,1.727,2.2,2.372,2.874a2.173,2.173,0,0,0,1.224.743,1.7,1.7,0,0,0,.306.033c.087,0,.13.033.13.087,0,.088-.076.109-.207.109h-1.038a2.223,2.223,0,0,1-1.169-.207,5.268,5.268,0,0,1-1.5-1.606c-.437-.6-.94-1.345-1.082-1.508a.227.227,0,0,0-.2-.076l-.95-.023a.077.077,0,0,0-.088.088v.153c0,1.016,0,1.88.055,2.338.033.317.1.557.426.6a5.258,5.258,0,0,0,.536.044c.087,0,.131.033.131.087,0,.076-.077.109-.219.109-.634,0-1.442-.033-1.606-.033-.208,0-.9.033-1.333.033-.142,0-.219-.033-.219-.109,0-.054.044-.087.175-.087a1.845,1.845,0,0,0,.394-.044c.218-.044.273-.284.316-.6.055-.458.055-1.322.055-2.327Z" fill="#858789"/>
      <path id="Path_620" data-name="Path 620" d="M497.725,250.652c0-1.661,0-1.967-.022-2.316-.022-.372-.109-.547-.469-.624a2.258,2.258,0,0,0-.427-.032c-.12,0-.186-.022-.186-.1s.077-.1.241-.1c.3,0,.612.011.885.011s.535.022.688.022c.35,0,2.524,0,2.732-.011a4.343,4.343,0,0,0,.47-.066,1,1,0,0,1,.175-.044c.054,0,.065.044.065.1,0,.076-.054.208-.087.71-.011.109-.033.59-.055.721-.011.055-.033.12-.109.12s-.1-.054-.1-.153a1.16,1.16,0,0,0-.065-.393c-.077-.2-.186-.328-.732-.393-.186-.022-1.333-.044-1.552-.044-.054,0-.076.033-.076.109v2.765c0,.076.011.12.076.12.241,0,1.5,0,1.748-.022s.427-.054.525-.163c.076-.088.12-.143.175-.143s.076.022.076.087-.043.241-.087.8c-.011.219-.044.656-.044.733s0,.207-.1.207a.086.086,0,0,1-.1-.1,2.864,2.864,0,0,0-.044-.394c-.055-.219-.208-.382-.612-.426-.208-.022-1.289-.033-1.552-.033-.054,0-.065.044-.065.11v.863c0,.371-.011,1.376,0,1.693.022.754.2.918,1.311.918a2.773,2.773,0,0,0,1.027-.131c.284-.131.415-.36.492-.809.022-.12.043-.163.12-.163s.088.087.088.2a8.53,8.53,0,0,1-.143,1.213c-.076.284-.174.284-.59.284-.819,0-1.42-.022-1.89-.033s-.809-.033-1.136-.033c-.121,0-.361,0-.623.012s-.535.021-.754.021c-.142,0-.219-.033-.219-.109,0-.054.044-.087.175-.087a1.845,1.845,0,0,0,.394-.044c.218-.044.273-.284.316-.6.055-.458.055-1.322.055-2.327Z" fill="#858789"/>
      <path id="Path_621" data-name="Path 621" d="M506.216,255.612c-.175-.077-.208-.13-.208-.371,0-.6.044-1.257.055-1.431s.044-.284.131-.284.109.1.109.186a2.286,2.286,0,0,0,.1.556,1.5,1.5,0,0,0,1.562,1.1,1.327,1.327,0,0,0,1.464-1.246c0-.535-.164-1.037-1.07-1.747l-.5-.4c-1.2-.938-1.617-1.7-1.617-2.588,0-1.2,1.005-2.065,2.524-2.065a5.314,5.314,0,0,1,1.453.185c.1.022.153.054.153.131,0,.142-.044.46-.044,1.311,0,.241-.032.328-.12.328s-.109-.066-.109-.2a1.329,1.329,0,0,0-.284-.722,1.383,1.383,0,0,0-1.191-.536,1.15,1.15,0,0,0-1.3,1.126c0,.5.251.886,1.158,1.573l.306.231c1.322.993,1.792,1.747,1.792,2.786a2.2,2.2,0,0,1-1.028,1.9,3.162,3.162,0,0,1-1.737.448,3.793,3.793,0,0,1-1.6-.285" fill="#858789"/>
      <path id="Path_622" data-name="Path 622" d="M516.816,248.1l-1.628.044c-.634.022-.9.077-1.06.317a1.3,1.3,0,0,0-.186.382c-.021.087-.054.131-.12.131s-.1-.054-.1-.175c0-.174.208-1.169.229-1.256.033-.142.066-.208.131-.208a2.541,2.541,0,0,0,.47.132c.317.032.732.054,1.093.054h4.327a5.248,5.248,0,0,0,.754-.054,2.374,2.374,0,0,1,.295-.055c.076,0,.087.065.087.23,0,.229-.033.983-.033,1.267-.011.109-.032.175-.1.175-.087,0-.109-.055-.12-.219l-.011-.12c-.022-.284-.317-.59-1.289-.612l-1.377-.033v4.48c0,1.005,0,1.869.054,2.338.033.306.1.547.427.591a4.779,4.779,0,0,0,.557.043c.12,0,.175.033.175.087,0,.077-.088.109-.208.109-.721,0-1.409-.032-1.715-.032-.252,0-.94.032-1.377.032-.142,0-.219-.032-.219-.109,0-.054.044-.087.175-.087a1.854,1.854,0,0,0,.394-.043c.218-.044.284-.285.316-.6.055-.458.055-1.322.055-2.327Z" fill="#858789"/>
      <path id="Path_623" data-name="Path 623" d="M527.317,252.346c.055,0,.065-.033.055-.066l-.984-2.7c-.011-.044-.022-.1-.055-.1s-.054.054-.065.1l-1.005,2.688c-.011.044,0,.077.043.077Zm-2.229.546c-.055,0-.077.021-.1.087l-.589,1.563a2.1,2.1,0,0,0-.164.666c0,.2.1.339.437.339h.164c.131,0,.163.022.163.087,0,.088-.065.109-.185.109-.35,0-.82-.032-1.159-.032-.12,0-.72.032-1.289.032-.142,0-.207-.021-.207-.109,0-.065.043-.087.131-.087a3.31,3.31,0,0,0,.339-.022c.5-.066.71-.437.928-.983l2.743-6.862c.131-.317.2-.438.306-.438s.164.1.273.351c.262.6,2.01,5.059,2.71,6.719.415.984.732,1.137.961,1.191a2.384,2.384,0,0,0,.459.044c.088,0,.142.011.142.087s-.1.109-.5.109-1.19,0-2.065-.021c-.2-.011-.327-.011-.327-.088s.043-.087.153-.1a.178.178,0,0,0,.1-.251l-.874-2.316a.1.1,0,0,0-.109-.077Z" fill="#858789"/>
      <path id="Path_624" data-name="Path 624" d="M533.961,250.652c0-1.661,0-1.967-.022-2.316-.022-.372-.109-.547-.47-.624a2.239,2.239,0,0,0-.426-.032c-.12,0-.186-.022-.186-.1s.077-.1.241-.1c.579,0,1.267.033,1.595.033.262,0,.951-.033,1.344-.033.164,0,.241.022.241.1s-.066.1-.175.1a1.63,1.63,0,0,0-.317.032c-.295.055-.382.241-.4.624-.022.349-.022.655-.022,2.316v1.529c0,1.585.317,2.251.852,2.688a2.024,2.024,0,0,0,1.366.448,2.14,2.14,0,0,0,1.508-.59,3.761,3.761,0,0,0,.633-2.71v-1.365c0-1.661,0-1.967-.021-2.316-.022-.372-.11-.547-.47-.624a2.115,2.115,0,0,0-.394-.032c-.12,0-.185-.022-.185-.1s.076-.1.229-.1c.557,0,1.246.033,1.256.033.132,0,.82-.033,1.246-.033.153,0,.23.022.23.1s-.066.1-.2.1a1.63,1.63,0,0,0-.317.032c-.295.055-.382.241-.4.624-.022.349-.022.655-.022,2.316v1.169a4.136,4.136,0,0,1-1.038,3.289,3.262,3.262,0,0,1-2.273.786,3.517,3.517,0,0,1-2.425-.753,3.589,3.589,0,0,1-.973-2.9Z" fill="#858789"/>
      <path id="Path_625" data-name="Path 625" d="M547.216,251.514c0,.121.022.165.1.2a2.894,2.894,0,0,0,.83.109,1.094,1.094,0,0,0,.776-.186,1.924,1.924,0,0,0,.645-1.639,1.748,1.748,0,0,0-1.672-2,2.33,2.33,0,0,0-.579.044c-.077.021-.1.065-.1.152Zm-1.289-.862c0-1.661,0-1.967-.022-2.316-.022-.372-.109-.547-.469-.624a2.257,2.257,0,0,0-.427-.032c-.12,0-.186-.022-.186-.1s.077-.1.241-.1c.579,0,1.267.033,1.5.033.371,0,1.2-.033,1.541-.033a3.487,3.487,0,0,1,2.01.47,1.892,1.892,0,0,1,.743,1.5,3.065,3.065,0,0,1-1.442,2.448c.972,1.224,1.726,2.2,2.371,2.874a2.176,2.176,0,0,0,1.224.743,1.7,1.7,0,0,0,.3.033c.088,0,.131.033.131.087,0,.088-.076.109-.207.109H552.2a2.223,2.223,0,0,1-1.169-.207,5.268,5.268,0,0,1-1.5-1.606c-.437-.6-.94-1.345-1.082-1.508a.226.226,0,0,0-.2-.076l-.95-.023a.077.077,0,0,0-.088.088v.153c0,1.016,0,1.88.055,2.338.033.317.1.557.426.6a5.28,5.28,0,0,0,.536.044c.087,0,.131.033.131.087,0,.076-.077.109-.219.109-.634,0-1.442-.033-1.606-.033-.208,0-.9.033-1.333.033-.142,0-.219-.033-.219-.109,0-.054.044-.087.175-.087a1.846,1.846,0,0,0,.394-.044c.218-.044.273-.284.316-.6.055-.458.055-1.322.055-2.327Z" fill="#858789"/>
      <path id="Path_626" data-name="Path 626" d="M556.362,250.652c0-1.661,0-1.967-.022-2.316-.022-.372-.109-.547-.469-.624a2.257,2.257,0,0,0-.427-.032c-.12,0-.186-.022-.186-.1s.077-.1.241-.1c.295,0,.612.011.885.011s.535.022.688.022c.35,0,2.524,0,2.732-.011a4.343,4.343,0,0,0,.47-.066,1,1,0,0,1,.175-.044c.054,0,.065.044.065.1,0,.076-.054.208-.087.71-.011.109-.033.59-.055.721-.011.055-.033.12-.109.12s-.1-.054-.1-.153a1.16,1.16,0,0,0-.065-.393c-.077-.2-.186-.328-.732-.393-.186-.022-1.333-.044-1.552-.044-.054,0-.076.033-.076.109v2.765c0,.076.011.12.076.12.241,0,1.5,0,1.748-.022s.427-.054.525-.163c.076-.088.12-.143.175-.143s.076.022.076.087-.043.241-.087.8c-.011.219-.044.656-.044.733s0,.207-.1.207a.086.086,0,0,1-.1-.1,2.883,2.883,0,0,0-.044-.394c-.055-.219-.208-.382-.612-.426-.208-.022-1.289-.033-1.551-.033-.055,0-.066.044-.066.11v.863c0,.371-.011,1.376,0,1.693.022.754.2.918,1.311.918a2.773,2.773,0,0,0,1.027-.131c.284-.131.415-.36.492-.809.022-.12.043-.163.12-.163s.087.087.087.2a8.522,8.522,0,0,1-.142,1.213c-.076.284-.174.284-.59.284-.819,0-1.42-.022-1.89-.033s-.809-.033-1.136-.033c-.121,0-.361,0-.623.012s-.535.021-.754.021c-.142,0-.219-.033-.219-.109,0-.054.044-.087.175-.087a1.846,1.846,0,0,0,.394-.044c.218-.044.273-.284.316-.6.055-.458.055-1.322.055-2.327Z" fill="#858789"/>
      <path id="Path_627" data-name="Path 627" d="M566.743,251.514c0,.121.022.165.1.2a2.894,2.894,0,0,0,.83.109,1.094,1.094,0,0,0,.776-.186,1.924,1.924,0,0,0,.645-1.639,1.748,1.748,0,0,0-1.672-2,2.331,2.331,0,0,0-.579.044c-.077.021-.1.065-.1.152Zm-1.289-.862c0-1.661,0-1.967-.022-2.316-.022-.372-.109-.547-.47-.624a2.238,2.238,0,0,0-.426-.032c-.12,0-.186-.022-.186-.1s.077-.1.241-.1c.579,0,1.267.033,1.5.033.371,0,1.2-.033,1.54-.033a3.488,3.488,0,0,1,2.011.47,1.892,1.892,0,0,1,.743,1.5,3.064,3.064,0,0,1-1.443,2.448c.973,1.224,1.727,2.2,2.372,2.874a2.176,2.176,0,0,0,1.224.743,1.7,1.7,0,0,0,.305.033c.088,0,.131.033.131.087,0,.088-.076.109-.207.109h-1.038a2.223,2.223,0,0,1-1.169-.207,5.268,5.268,0,0,1-1.5-1.606c-.437-.6-.94-1.345-1.082-1.508a.227.227,0,0,0-.2-.076l-.95-.023a.077.077,0,0,0-.088.088v.153c0,1.016,0,1.88.055,2.338.033.317.1.557.426.6a5.258,5.258,0,0,0,.536.044c.087,0,.131.033.131.087,0,.076-.077.109-.219.109-.634,0-1.442-.033-1.606-.033-.208,0-.9.033-1.333.033-.142,0-.219-.033-.219-.109,0-.054.044-.087.175-.087a1.845,1.845,0,0,0,.394-.044c.218-.044.273-.284.316-.6.055-.458.055-1.322.055-2.327Z" fill="#858789"/>
      <path id="Path_628" data-name="Path 628" d="M575.89,250.652c0-1.661,0-1.967-.022-2.316-.022-.372-.131-.558-.371-.613a1.543,1.543,0,0,0-.393-.043c-.11,0-.175-.022-.175-.11,0-.065.087-.087.262-.087.415,0,1.1.033,1.42.033.273,0,.918-.033,1.333-.033.142,0,.23.022.23.087,0,.088-.066.11-.175.11a1.83,1.83,0,0,0-.328.032c-.3.055-.382.241-.4.624-.022.349-.022.655-.022,2.316v1.923c0,1.06,0,1.923.044,2.393.033.295.109.491.437.535a4.778,4.778,0,0,0,.557.044c.12,0,.175.033.175.087,0,.076-.087.109-.208.109-.721,0-1.409-.033-1.7-.033-.252,0-.94.033-1.377.033-.142,0-.219-.033-.219-.109,0-.054.044-.087.175-.087a1.845,1.845,0,0,0,.394-.044c.218-.044.284-.23.316-.546.055-.459.055-1.322.055-2.382Z" fill="#858789"/>
      <path id="Path_629" data-name="Path 629" d="M583.627,254.258c.021.852.163,1.136.381,1.213a1.756,1.756,0,0,0,.568.076c.122,0,.187.022.187.087,0,.088-.1.109-.252.109-.709,0-1.146-.032-1.355-.032-.1,0-.612.032-1.179.032-.143,0-.24-.01-.24-.109,0-.065.065-.087.174-.087a1.917,1.917,0,0,0,.491-.055c.285-.087.328-.4.34-1.355l.1-6.468c0-.218.033-.371.143-.371s.219.142.4.339c.132.142,1.791,1.922,3.387,3.506.743.743,2.219,2.317,2.4,2.492h.055l-.11-4.906c-.01-.667-.109-.874-.372-.983a1.759,1.759,0,0,0-.578-.066c-.132,0-.175-.033-.175-.1,0-.087.12-.1.284-.1.568,0,1.092.033,1.323.033.12,0,.534-.033,1.07-.033.142,0,.251.011.251.1,0,.066-.066.1-.2.1a1.181,1.181,0,0,0-.328.033c-.307.087-.393.317-.4.928l-.12,6.895c0,.24-.044.339-.143.339-.119,0-.252-.121-.37-.241-.69-.655-2.088-2.087-3.225-3.212-1.191-1.18-2.4-2.546-2.6-2.753h-.033Z" fill="#858789"/>
      <path id="Path_630" data-name="Path 630" d="M602.071,255.011c0,.295-.011.318-.142.394a6.191,6.191,0,0,1-2.633.491c-2.677,0-5.048-1.267-5.048-4.283a4.083,4.083,0,0,1,1.9-3.572,5.292,5.292,0,0,1,2.939-.711,13.09,13.09,0,0,1,1.934.175,7.323,7.323,0,0,0,.863.12c.131.011.153.055.153.131a14.815,14.815,0,0,0-.076,1.792c0,.175-.033.23-.12.23s-.1-.055-.109-.143a1.541,1.541,0,0,0-.372-.906,3.493,3.493,0,0,0-2.437-.853,3.147,3.147,0,0,0-2.163.678,3.253,3.253,0,0,0-1.006,2.677,3.793,3.793,0,0,0,3.8,4.108,2.423,2.423,0,0,0,.929-.12.389.389,0,0,0,.207-.4v-1.026c0-.547,0-.962-.01-1.29-.012-.371-.109-.546-.47-.622a2.228,2.228,0,0,0-.427-.034c-.1,0-.164-.021-.164-.086,0-.088.077-.11.23-.11.568,0,1.256.033,1.585.033s.917-.033,1.278-.033c.142,0,.218.022.218.11,0,.065-.065.086-.142.086a1.727,1.727,0,0,0-.295.034c-.295.054-.4.24-.415.622-.011.328-.011.765-.011,1.311Z" fill="#858789"/>
      <path id="Path_631" data-name="Path 631" d="M606.706,255.612c-.175-.077-.208-.13-.208-.371,0-.6.044-1.257.054-1.431s.044-.284.131-.284.11.1.11.186a2.281,2.281,0,0,0,.1.556,1.5,1.5,0,0,0,1.562,1.1,1.328,1.328,0,0,0,1.465-1.246c0-.535-.164-1.037-1.071-1.747l-.5-.4c-1.2-.938-1.617-1.7-1.617-2.588,0-1.2,1.005-2.065,2.524-2.065a5.314,5.314,0,0,1,1.453.185c.1.022.153.054.153.131,0,.142-.043.46-.043,1.311,0,.241-.033.328-.12.328s-.11-.066-.11-.2a1.329,1.329,0,0,0-.284-.722,1.383,1.383,0,0,0-1.191-.536,1.15,1.15,0,0,0-1.3,1.126c0,.5.251.886,1.158,1.573l.306.231c1.322.993,1.792,1.747,1.792,2.786a2.2,2.2,0,0,1-1.027,1.9,3.166,3.166,0,0,1-1.737.448,3.79,3.79,0,0,1-1.6-.285" fill="#858789"/>
      <path id="Path_632" data-name="Path 632" d="M618.518,252.346c.055,0,.065-.033.055-.066l-.984-2.7c-.011-.044-.022-.1-.055-.1s-.054.054-.065.1l-1.005,2.688c-.011.044,0,.077.044.077Zm-2.229.546c-.055,0-.077.021-.1.087l-.59,1.563a2.119,2.119,0,0,0-.163.666c0,.2.1.339.436.339h.165c.131,0,.164.022.164.087,0,.088-.066.109-.186.109-.35,0-.82-.032-1.158-.032-.121,0-.721.032-1.29.032-.142,0-.207-.021-.207-.109,0-.065.044-.087.131-.087a3.272,3.272,0,0,0,.338-.022c.5-.066.711-.437.929-.983l2.743-6.862c.131-.317.2-.438.3-.438s.164.1.274.351c.262.6,2.01,5.059,2.71,6.719.415.984.731,1.137.961,1.191a2.384,2.384,0,0,0,.459.044c.087,0,.142.011.142.087s-.1.109-.5.109-1.192,0-2.065-.021c-.2-.011-.328-.011-.328-.088s.043-.087.152-.1a.178.178,0,0,0,.1-.251l-.874-2.316a.1.1,0,0,0-.11-.077Z" fill="#858789"/>
      <path id="Path_633" data-name="Path 633" d="M626.976,251.514c0,.121.022.165.1.2a2.906,2.906,0,0,0,.831.109,1.094,1.094,0,0,0,.776-.186,1.927,1.927,0,0,0,.644-1.639,1.747,1.747,0,0,0-1.671-2,2.345,2.345,0,0,0-.58.044c-.076.021-.1.065-.1.152Zm-1.289-.862c0-1.661,0-1.967-.022-2.316-.022-.372-.109-.547-.47-.624a2.239,2.239,0,0,0-.426-.032c-.12,0-.186-.022-.186-.1s.076-.1.241-.1c.579,0,1.267.033,1.5.033.372,0,1.2-.033,1.541-.033a3.487,3.487,0,0,1,2.01.47,1.89,1.89,0,0,1,.744,1.5,3.064,3.064,0,0,1-1.443,2.448c.973,1.224,1.726,2.2,2.371,2.874a2.176,2.176,0,0,0,1.224.743,1.714,1.714,0,0,0,.306.033c.087,0,.131.033.131.087,0,.088-.076.109-.208.109h-1.037a2.229,2.229,0,0,1-1.17-.207,5.268,5.268,0,0,1-1.5-1.606c-.438-.6-.94-1.345-1.083-1.508a.224.224,0,0,0-.2-.076l-.95-.023a.077.077,0,0,0-.088.088v.153c0,1.016,0,1.88.055,2.338.033.317.1.557.426.6a5.264,5.264,0,0,0,.535.044c.088,0,.131.033.131.087,0,.076-.076.109-.218.109-.634,0-1.443-.033-1.607-.033-.207,0-.895.033-1.332.033-.142,0-.219-.033-.219-.109,0-.054.044-.087.175-.087a1.827,1.827,0,0,0,.393-.044c.219-.044.273-.284.317-.6.055-.458.055-1.322.055-2.327Z" fill="#858789"/>
      <path id="Path_634" data-name="Path 634" d="M638.875,251.712a1.562,1.562,0,0,0-.907-.263c-.2-.011-.3-.011-.469-.011-.044,0-.066.023-.066.076V254.1c0,.72.033.906.383,1.049a1.986,1.986,0,0,0,.8.131,1.273,1.273,0,0,0,1.322-1.4,2.6,2.6,0,0,0-1.06-2.174m-1.442-.874c0,.086.033.109.076.12a2.686,2.686,0,0,0,.514.032,1.111,1.111,0,0,0,.787-.207,1.427,1.427,0,0,0,.448-1.159c0-.732-.427-1.693-1.366-1.693a1.766,1.766,0,0,0-.361.022c-.076.022-.1.065-.1.186Zm-1.311-.186c0-1.661,0-1.967-.022-2.316-.022-.372-.109-.547-.47-.624a2.239,2.239,0,0,0-.426-.032c-.12,0-.186-.022-.186-.1s.076-.1.241-.1c.579,0,1.267.033,1.486.033.535,0,.961-.033,1.332-.033,1.978,0,2.328,1.06,2.328,1.639a2.376,2.376,0,0,1-1.115,1.912,2.662,2.662,0,0,1,1.989,2.36c0,1.169-.907,2.382-2.917,2.382-.131,0-.448-.022-.765-.033s-.656-.033-.82-.033c-.119,0-.36,0-.622.012s-.536.021-.754.021c-.142,0-.219-.033-.219-.109,0-.054.044-.087.175-.087a1.827,1.827,0,0,0,.393-.044c.219-.044.273-.284.317-.6.055-.458.055-1.322.055-2.327Z" fill="#858789"/>
      <path id="Path_635" data-name="Path 635" d="M645.815,250.652c0-1.661,0-1.967-.022-2.316-.022-.372-.109-.547-.47-.624a2.239,2.239,0,0,0-.426-.032c-.12,0-.186-.022-.186-.1s.076-.1.241-.1c.294,0,.611.011.884.011s.536.022.689.022c.35,0,2.524,0,2.732-.011a4.318,4.318,0,0,0,.469-.066,1.029,1.029,0,0,1,.176-.044c.054,0,.065.044.065.1a6.808,6.808,0,0,0-.087.71c-.012.109-.033.59-.055.721-.011.055-.033.12-.109.12s-.1-.054-.1-.153a1.16,1.16,0,0,0-.065-.393c-.077-.2-.186-.328-.733-.393-.185-.022-1.332-.044-1.551-.044-.054,0-.076.033-.076.109v2.765c0,.076.01.12.076.12.241,0,1.5,0,1.748-.022a.769.769,0,0,0,.525-.163c.076-.088.12-.143.175-.143s.076.022.076.087-.044.241-.088.8c-.01.219-.043.656-.043.733s0,.207-.1.207a.087.087,0,0,1-.1-.1,3.017,3.017,0,0,0-.043-.394c-.055-.219-.208-.382-.612-.426-.208-.022-1.29-.033-1.552-.033-.055,0-.065.044-.065.11v.863c0,.371-.012,1.376,0,1.693.022.754.2.918,1.311.918a2.774,2.774,0,0,0,1.027-.131c.284-.131.415-.36.491-.809.023-.12.044-.163.12-.163s.088.087.088.2a8.675,8.675,0,0,1-.142,1.213c-.076.284-.175.284-.59.284-.819,0-1.42-.022-1.89-.033s-.809-.033-1.137-.033c-.12,0-.36,0-.622.012s-.536.021-.754.021c-.142,0-.219-.033-.219-.109,0-.054.044-.087.175-.087a1.827,1.827,0,0,0,.393-.044c.219-.044.273-.284.317-.6.055-.458.055-1.322.055-2.327Z" fill="#858789"/>
      <path id="Path_636" data-name="Path 636" d="M654.907,250.652c0-1.661,0-1.967-.022-2.316-.022-.372-.131-.558-.372-.613a1.533,1.533,0,0,0-.393-.043c-.109,0-.175-.022-.175-.11,0-.065.088-.087.263-.087.415,0,1.1.033,1.42.033.273,0,.918-.033,1.333-.033.142,0,.23.022.23.087,0,.088-.066.11-.175.11a1.822,1.822,0,0,0-.328.032c-.295.055-.382.241-.4.624-.022.349-.022.655-.022,2.316v1.923c0,1.06,0,1.923.044,2.393.032.295.109.491.437.535a4.778,4.778,0,0,0,.557.044c.12,0,.174.033.174.087,0,.076-.087.109-.207.109-.721,0-1.41-.033-1.705-.033-.251,0-.939.033-1.376.033-.142,0-.219-.033-.219-.109,0-.054.044-.087.175-.087a1.826,1.826,0,0,0,.393-.044c.219-.044.284-.23.317-.546.055-.459.055-1.322.055-2.382Z" fill="#858789"/>
      <path id="Path_637" data-name="Path 637" d="M663.4,251.854c0,1.158.012,2,.022,2.207a2.391,2.391,0,0,0,.121.83c.142.208.568.438,1.431.438a3.508,3.508,0,0,0,2.513-.788,3.45,3.45,0,0,0,.918-2.72,3.715,3.715,0,0,0-1.049-2.732,4.328,4.328,0,0,0-3.1-1.092,2.9,2.9,0,0,0-.71.076.2.2,0,0,0-.131.219c-.012.371-.012,1.322-.012,2.185Zm-1.365-1.2c0-1.661,0-1.967-.022-2.316-.022-.372-.109-.547-.47-.624a2.239,2.239,0,0,0-.426-.032c-.12,0-.186-.022-.186-.1s.076-.1.241-.1c.579,0,1.267.033,1.573.033.339,0,1.027-.033,1.683-.033,1.365,0,3.19,0,4.381,1.246a3.9,3.9,0,0,1,1.06,2.775,4.343,4.343,0,0,1-1.191,3.049,4.983,4.983,0,0,1-3.66,1.289c-.394,0-.842-.033-1.257-.066s-.8-.066-1.071-.066c-.12,0-.36,0-.622.012s-.536.021-.754.021c-.142,0-.219-.033-.219-.109,0-.054.044-.087.175-.087a1.827,1.827,0,0,0,.393-.044c.219-.044.273-.284.317-.6.055-.458.055-1.322.055-2.327Z" fill="#858789"/>
      <path id="Path_638" data-name="Path 638" d="M674.336,250.652c0-1.661,0-1.967-.022-2.316-.022-.372-.109-.547-.47-.624a2.239,2.239,0,0,0-.426-.032c-.12,0-.186-.022-.186-.1s.076-.1.241-.1c.295,0,.611.011.884.011s.536.022.689.022c.35,0,2.524,0,2.732-.011a4.318,4.318,0,0,0,.469-.066,1.042,1.042,0,0,1,.175-.044c.055,0,.066.044.066.1a6.808,6.808,0,0,0-.087.71c-.012.109-.033.59-.055.721-.011.055-.033.12-.109.12s-.1-.054-.1-.153a1.185,1.185,0,0,0-.065-.393c-.077-.2-.186-.328-.733-.393-.186-.022-1.332-.044-1.551-.044-.055,0-.076.033-.076.109v2.765c0,.076.01.12.076.12.241,0,1.5,0,1.748-.022s.427-.054.525-.163c.076-.088.12-.143.175-.143s.076.022.076.087-.044.241-.088.8c-.01.219-.043.656-.043.733s0,.207-.1.207a.087.087,0,0,1-.1-.1,3.017,3.017,0,0,0-.043-.394c-.055-.219-.208-.382-.612-.426-.208-.022-1.29-.033-1.552-.033-.055,0-.065.044-.065.11v.863c0,.371-.012,1.376,0,1.693.021.754.2.918,1.311.918a2.773,2.773,0,0,0,1.027-.131c.284-.131.415-.36.491-.809.022-.12.044-.163.121-.163s.087.087.087.2a8.522,8.522,0,0,1-.142,1.213c-.076.284-.175.284-.59.284-.82,0-1.42-.022-1.89-.033s-.809-.033-1.137-.033c-.12,0-.36,0-.622.012s-.536.021-.754.021c-.142,0-.219-.033-.219-.109,0-.054.044-.087.175-.087a1.827,1.827,0,0,0,.393-.044c.219-.044.273-.284.317-.6.055-.458.055-1.322.055-2.327Z" fill="#858789"/>
      <path id="Path_639" data-name="Path 639" d="M684.717,251.514c0,.121.022.165.1.2a2.906,2.906,0,0,0,.831.109,1.094,1.094,0,0,0,.776-.186,1.927,1.927,0,0,0,.644-1.639,1.747,1.747,0,0,0-1.671-2,2.34,2.34,0,0,0-.58.044c-.076.021-.1.065-.1.152Zm-1.289-.862c0-1.661,0-1.967-.022-2.316-.022-.372-.109-.547-.47-.624a2.238,2.238,0,0,0-.426-.032c-.12,0-.186-.022-.186-.1s.076-.1.241-.1c.579,0,1.267.033,1.5.033.372,0,1.2-.033,1.541-.033a3.492,3.492,0,0,1,2.011.47,1.892,1.892,0,0,1,.743,1.5,3.064,3.064,0,0,1-1.443,2.448c.973,1.224,1.726,2.2,2.371,2.874a2.176,2.176,0,0,0,1.224.743,1.714,1.714,0,0,0,.306.033c.088,0,.131.033.131.087,0,.088-.077.109-.208.109H689.7a2.229,2.229,0,0,1-1.17-.207,5.268,5.268,0,0,1-1.5-1.606c-.438-.6-.94-1.345-1.083-1.508a.224.224,0,0,0-.2-.076l-.95-.023a.077.077,0,0,0-.088.088v.153c0,1.016,0,1.88.055,2.338.033.317.1.557.426.6a5.263,5.263,0,0,0,.535.044c.088,0,.131.033.131.087,0,.076-.076.109-.218.109-.634,0-1.443-.033-1.607-.033-.207,0-.9.033-1.332.033-.142,0-.219-.033-.219-.109,0-.054.044-.087.175-.087a1.827,1.827,0,0,0,.393-.044c.219-.044.273-.284.317-.6.055-.458.055-1.322.055-2.327Z" fill="#858789"/>
    </g>
    <path id="Path_640" data-name="Path 640" d="M608.739,163.974l-1.05,6.4h-4.5l-.822-5-.821,5h-.011v14.018h-5.677v-6.7H595.8l-1.263-6.045-.759,3.632-4.655-30.129-4.658,30.129-.757-3.632-1.263,6.045h-.059v6.7H576.71V170.371H576.7l-.821-5-.821,5h-4.5l-1.05-6.4-1.049,6.4v42.124h41.33V170.371Z" fill="#b72637"/>
  </g>
</svg>
