<?xml version="1.0" encoding="UTF-8"?>
<svg width="213px" height="30px" viewBox="0 0 213 30" version="1.1" xmlns="http://www.w3.org/2000/svg" xmlns:xlink="http://www.w3.org/1999/xlink">
    <!-- Generator: Sketch 42 (36781) - http://www.bohemiancoding.com/sketch -->
    <title>Page 1</title>
    <desc>Created with Sketch.</desc>
    <defs></defs>
    <g id="Page-1" stroke="none" stroke-width="1" fill="none" fill-rule="evenodd">
        <g>
            <polygon id="Fill-1" fill="#1A171B" points="0 29.2390473 29.2390473 29.2390473 29.2390473 0 0 0"></polygon>
            <path d="M13.1575953,22.1855331 C13.1575953,20.9065736 12.3171088,19.8468507 10.6361358,17.1051953 L11.8052372,14.6201953 L12.133852,15.1685264 L12.0609331,15.3513034 C11.6953791,16.1183912 12.7186426,17.4342899 14.2902372,20.1390061 C15.0942642,18.8969858 15.8987709,17.5072088 16.1544669,15.9360939 C16.4106426,14.0713845 15.1676628,12.5002696 13.5231493,12.2440939 L11.3667642,8.77181014 L4.86114932,22.4047696 L13.0846764,22.4047696 C13.1211358,22.3318507 13.1575953,22.258452 13.1575953,22.1855331" id="Fill-2" fill="#FFFFFF"></path>
            <path d="M24.37785,22.4047696 L21.8194514,16.4110264 C21.0518838,19.0783236 19.1881338,21.7106007 15.7892486,21.637202 C15.4966135,21.637202 14.9847419,21.6012223 14.5457892,21.5278236 L13.9619581,22.4047696 L24.37785,22.4047696 Z" id="Fill-3" fill="#FFFFFF"></path>
            <path d="M15.9352304,10.4532149 C17.8723791,11.4035595 18.3837709,13.0850122 18.0551561,14.9123027 C17.7260615,16.8494514 16.4466223,18.5304243 15.057325,20.7227892 C15.1676628,20.7602081 15.4967574,20.7961878 15.8623115,20.7961878 C18.8591831,20.7961878 20.2484804,19.3718703 21.6003588,15.8626473 L16.9220345,4.86148514 L14.5459331,9.97828243 C14.7291899,10.0147419 15.4238385,10.1975189 15.9352304,10.4532149" id="Fill-4" fill="#FFFFFF"></path>
            <polygon id="Fill-5" fill="#1A171B" points="45.6414865 22.4703486 45.6414865 17.7243824 41.3267973 17.7243824 41.3267973 22.4703486 38.9713243 22.4703486 38.9713243 11.4332068 41.3267973 11.4332068 41.3267973 15.7829162 45.6414865 15.7829162 45.6414865 11.4332068 47.9969595 11.4332068 47.9969595 22.4703486"></polygon>
            <path d="M59.7215541,16.9693838 C59.7215541,15.1982216 58.9650203,13.8914378 57.7273176,13.4102689 L56.4896149,20.7333432 L56.5754865,20.7333432 C58.5011216,20.7333432 59.7215541,19.2207554 59.7215541,16.9693838 L59.7215541,16.9693838 Z M56.5754865,13.2039851 C54.6498514,13.2039851 53.4294189,14.716573 53.4294189,16.9693838 C53.4294189,18.7391068 54.1859527,20.0799514 55.4409257,20.5616 L56.6958986,13.2039851 L56.5754865,13.2039851 Z M56.5754865,22.6935189 C56.4382838,22.6935189 56.3006014,22.6935189 56.1633986,22.6762486 L55.8875541,24.2756676 L54.8393446,24.0170932 L55.0969595,22.5385662 C52.5697432,21.9542554 50.9540135,19.8741473 50.9540135,16.9693838 C50.9540135,13.5134108 53.2058649,11.2438095 56.5754865,11.2438095 C56.7304392,11.2438095 56.8849122,11.2438095 57.0393851,11.2610797 L57.2629392,9.95429595 L58.260777,10.2128703 L58.0540135,11.3987622 C60.5985,11.983073 62.1969595,14.0463905 62.1969595,16.9693838 C62.1969595,20.4076068 59.9451081,22.6935189 56.5754865,22.6935189 L56.5754865,22.6935189 Z" id="Fill-6" fill="#1A171B"></path>
            <path d="M72.6147703,22.1958473 C72.0645203,22.4702527 71.2561757,22.711077 70.1561554,22.711077 C66.3053649,22.711077 64.0880541,20.4246851 64.0880541,17.0377932 C64.0880541,13.6849622 66.58025,11.2440973 70.1561554,11.2440973 C71.6001419,11.2440973 72.9927973,11.5530432 73.8352027,12.0519622 L73.8352027,14.4760365 C72.6493108,13.6336311 71.3252568,13.2383338 70.1048243,13.2383338 C68.0760473,13.2383338 66.5634595,14.7168608 66.5634595,16.9005905 C66.5634595,19.0493 67.9043041,20.7686514 70.1388851,20.7686514 C70.6718649,20.7686514 71.1875743,20.6823 71.6174122,20.5786784 L71.6174122,18.3954284 L69.485973,18.3954284 L70.1216149,16.5220838 L73.9042838,16.5220838 L73.9042838,22.711077 L72.6147703,22.1958473 Z" id="Fill-7" fill="#1A171B"></path>
            <path d="M80.3849527,22.693375 C79.3362635,22.693375 78.218973,22.6420439 77.2048243,22.2812872 L76.9812703,19.9085439 C77.8236757,20.4410439 78.9241757,20.8373007 80.2818108,20.8373007 C81.1755473,20.8373007 81.88075,20.2179696 81.88075,19.5477872 C81.88075,18.8939155 81.4854527,18.5676993 80.78025,18.2410034 L79.319473,17.5535507 C77.7718649,16.8315574 77.1534932,15.8509899 77.1534932,14.6305574 C77.1534932,12.5677196 78.8723649,11.2786858 81.2100878,11.2786858 C82.1901757,11.2786858 83.359277,11.604902 83.9608581,11.9148074 L83.9608581,14.1493885 C82.8262973,13.2724426 82.1043041,13.1179696 81.2100878,13.1179696 C80.2136892,13.1179696 79.4912162,13.5991385 79.4912162,14.3556723 C79.4912162,14.9917939 79.9896554,15.4384223 80.6430473,15.7310574 L82.3278581,16.5043818 C83.3420068,16.9692399 84.2875541,17.9315777 84.2875541,19.3242331 C84.2875541,21.3357399 82.5682027,22.693375 80.3849527,22.693375" id="Fill-8" fill="#1A171B"></path>
            <path d="M94.069723,22.4703486 L89.9781081,16.9515378 L93.9320405,11.4332068 L96.5283378,11.4332068 L92.5911959,16.6248419 L96.9404257,22.4703486 L94.069723,22.4703486 Z M87.4163514,11.4332068 L89.7718243,11.4332068 L89.7718243,22.4703486 L87.4163514,22.4703486 L87.4163514,11.4332068 Z" id="Fill-9" fill="#1A171B"></path>
            <path d="M103.765541,22.711173 C100.808486,22.711173 99.3126892,21.2671865 99.3126892,18.2410514 L99.3126892,11.4332068 L101.668162,11.4332068 L101.668162,18.1379095 C101.668162,19.7713892 102.407426,20.7855378 103.765541,20.7855378 C105.38127,20.7855378 106.000601,19.7877 106.000601,18.4300649 L106.000601,11.4332068 L108.0975,11.4332068 L108.0975,18.2065108 C108.0975,20.9572811 106.550851,22.711173 103.765541,22.711173" id="Fill-10" fill="#1A171B"></path>
            <polygon id="Fill-11" fill="#1A171B" points="117.346209 22.4703486 111.741527 22.4703486 111.741527 11.4332068 114.097 11.4332068 114.097 20.5442338 118.068682 20.5442338"></polygon>
            <polygon id="Fill-12" fill="#1A171B" points="126.836223 22.4703486 120.578149 22.4703486 120.578149 11.4332068 127.282851 11.4332068 126.64625 13.3065514 122.933622 13.3065514 122.933622 15.9546595 126.543588 15.9546595 125.924736 17.8112135 122.933622 17.8112135 122.933622 20.5442338 127.523676 20.5442338"></polygon>
            <polygon id="Fill-13" fill="#1A171B" points="138.303203 22.4703486 132.715791 15.4898014 132.715791 22.4703486 130.617932 22.4703486 130.617932 12.859923 129.466101 11.4332068 132.457696 11.4332068 137.494858 17.7939432 137.494858 11.4332068 139.609507 11.4332068 139.609507 22.4703486"></polygon>
            <polygon id="Fill-14" fill="#1A171B" points="148.188034 22.4705405 150.542547 22.4705405 150.542547 11.4333986 148.188034 11.4333986"></polygon>
            <polygon id="Fill-15" fill="#1A171B" points="163.333581 22.3832297 161.373405 22.6763446 157.677568 11.4333986 160.306966 11.4333986 162.611588 18.9805068 165.190135 11.4333986 167.424716 11.4333986"></polygon>
            <path d="M174.438845,13.2039372 C172.513209,13.2039372 171.412709,14.716525 171.412709,16.9693358 C171.412709,19.2207074 172.513209,20.7332953 174.438845,20.7332953 C176.347209,20.7332953 177.4645,19.2207074 177.4645,16.9693358 C177.4645,14.716525 176.347209,13.2039372 174.438845,13.2039372 M174.438845,22.6934709 C171.138304,22.6934709 168.937304,20.4075588 168.937304,16.9693358 C168.937304,13.5133628 171.120554,11.2442412 174.438845,11.2442412 C177.739865,11.2442412 179.939905,13.5133628 179.939905,16.9693358 C179.939905,20.4075588 177.739865,22.6934709 174.438845,22.6934709" id="Fill-16" fill="#1A171B"></path>
            <polygon id="Fill-17" fill="#1A171B" points="188.500682 22.4703486 182.89648 22.4703486 182.89648 11.4332068 185.252432 11.4332068 185.252432 20.5442338 189.222676 20.5442338"></polygon>
            <path d="M194.895959,13.1008912 L194.088574,13.1008912 L194.088574,20.6647899 C194.483872,20.7333912 194.862858,20.8197426 195.309007,20.8197426 C197.561338,20.8197426 198.884912,19.1517223 198.884912,17.0202831 C198.884912,14.5276074 197.458196,13.1008912 194.895959,13.1008912 M195.309007,22.6935669 C193.950892,22.6935669 192.850392,22.4704926 191.733101,22.1956074 L191.733101,11.6396345 C192.936743,11.4333507 193.882291,11.2611277 195.325797,11.2611277 C199.073926,11.2611277 201.360797,13.3066953 201.360797,17.0030128 C201.360797,20.3558439 198.970784,22.6935669 195.309007,22.6935669" id="Fill-18" fill="#1A171B"></path>
            <path d="M207.772385,15.2500324 L206.448811,18.8940595 L209.061899,18.8940595 L207.772385,15.2500324 Z M210.332703,22.4704446 L209.663,20.5783905 L205.84675,20.5783905 L205.176088,22.4704446 L202.838365,22.4704446 L206.723696,12.4301811 L206.311128,11.4160324 L208.872405,11.4160324 L212.894939,22.4704446 L210.332703,22.4704446 Z" id="Fill-19" fill="#1A171B"></path>
        </g>
    </g>
</svg>