<svg width="330" height="46" viewBox="0 0 330 46" fill="none" xmlns="http://www.w3.org/2000/svg">
<g style="mix-blend-mode:multiply">
<path d="M0.77061 33.4681C0.31731 31.9264 0.04533 30.294 0 28.6163C0 27.8001 0.04533 26.9386 0.13599 26.077C0.22665 25.2155 0.40797 24.3993 0.63462 23.5378C1.54122 20.1823 3.58107 17.0082 6.3462 14.6957C7.75143 13.5168 9.24732 12.5645 10.8792 11.7937C12.4657 11.0228 14.143 10.4334 15.6388 9.9346C17.3161 9.43581 19.0386 9.02772 20.8065 8.801C22.5743 8.61962 24.3422 8.52893 26.1101 8.61962C29.6458 8.801 33.0909 9.66253 36.264 10.9775C39.4371 12.2925 42.5195 14.1062 45.1487 16.3281C45.5113 16.6001 45.7833 16.8722 46.1006 17.1896L47.0525 18.0512C47.6418 18.6406 48.2311 19.2754 48.8204 19.9102C49.9083 21.2252 50.9056 22.5855 51.7668 24.0365C52.6281 25.4875 53.3534 26.9839 53.9427 28.5709C54.532 30.1126 54.9399 31.745 55.1666 33.3774C55.1666 33.5134 55.0759 33.6041 54.9399 33.6494C54.8493 33.6494 54.8039 33.6494 54.7133 33.5588C52.4921 31.1102 50.4523 28.843 48.2311 26.8025C46.0553 24.762 43.7888 22.8576 41.4316 21.2706C40.2077 20.4997 38.9838 19.7742 37.7145 19.1847L36.7626 18.7313L36.264 18.5046C36.0827 18.4139 35.9467 18.3686 35.7654 18.3232C35.0854 18.0512 34.4961 17.8244 33.7708 17.5524C31.051 16.6001 28.3312 15.9653 25.5661 15.6479C24.2062 15.5119 22.801 15.4665 21.3958 15.5119C20.0359 15.6026 18.6306 15.784 17.2707 16.056C15.7748 16.3734 14.4149 16.7362 13.1004 17.1443C11.7858 17.5977 10.5619 18.1418 9.38331 18.822C7.07148 20.1823 5.07696 22.2228 3.67173 24.7167C3.30909 25.3515 2.99178 25.9863 2.7198 26.6665C2.44782 27.3466 2.17584 28.0721 1.99452 28.7977C1.58655 30.294 1.3599 31.8357 1.22391 33.4227C1.22391 33.5588 1.08792 33.6494 0.95193 33.6494C0.86127 33.6041 0.77061 33.5588 0.77061 33.4681Z" fill="#64AFC3"/>
<g style="mix-blend-mode:multiply">
<path d="M6.8901 33.5618C6.57279 30.0703 7.07142 26.4428 8.29533 22.9967C9.47391 19.5505 11.4231 16.3311 13.8709 13.5198C16.3641 10.7538 19.4012 8.44127 22.7103 6.7182C24.3875 5.85667 26.11 5.08582 27.8779 4.49635C29.6911 3.86153 31.5949 3.45344 33.4988 3.22672C34.4507 3.09069 35.448 3 36.3999 3C37.3972 3 38.3944 3.04534 39.3917 3.18138C41.3862 3.4081 43.3807 3.95222 45.2846 4.76841C46.2365 5.17651 47.1431 5.67529 48.0044 6.26476C48.4577 6.53682 48.8657 6.85423 49.2736 7.17164C49.6816 7.48905 50.0896 7.8518 50.4069 8.1692C51.7668 9.43883 53.0813 10.8445 54.2146 12.3408C55.3478 13.8372 56.3904 15.4696 57.161 17.1926C57.3424 17.6007 57.5237 18.0542 57.705 18.4623C57.8863 18.8704 58.0223 19.2785 58.2036 19.7319C58.5209 20.5934 58.7476 21.5003 58.9743 22.4072C59.3822 24.2209 59.6089 26.0347 59.6089 27.8031C59.6089 29.6169 59.4729 31.3853 59.0196 33.1537C58.9742 33.2897 58.8383 33.3804 58.7476 33.3351C58.6569 33.3351 58.6116 33.2444 58.5663 33.199C57.297 29.8889 56.1185 26.8509 54.5772 24.0396C54.2146 23.3594 53.8066 22.6792 53.3987 21.9991C53.2173 21.6817 52.9907 21.3189 52.764 21.0015C52.5374 20.6841 52.3561 20.3214 52.1294 20.004C51.2682 18.7343 50.3616 17.51 49.3643 16.4218C48.367 15.3335 47.2338 14.2906 46.0099 13.3384C45.6926 13.0663 45.4659 12.9303 45.1486 12.7036C44.8766 12.5222 44.6046 12.3408 44.2873 12.1595C43.698 11.8421 43.1088 11.5247 42.5195 11.2979C41.2956 10.8445 39.9357 10.5271 38.5758 10.3911C37.8958 10.255 37.1705 10.255 36.4906 10.255C35.7653 10.255 35.04 10.3004 34.3147 10.3911C32.8642 10.5724 31.4136 10.7991 30.0084 11.2526C28.5578 11.6607 27.1073 12.1595 25.702 12.7943C24.2968 13.4291 22.9369 14.1093 21.6677 14.9708C20.3984 15.787 19.1292 16.6939 17.9959 17.7368C15.7294 19.7772 13.5989 22.1351 11.8311 24.8104C10.0632 27.4857 8.56731 30.4331 7.29807 33.6525C7.25274 33.7885 7.11675 33.8338 6.98076 33.7885C6.93543 33.6978 6.8901 33.6525 6.8901 33.5618Z" fill="#1A637C"/>
</g>
<path d="M61.9661 33.3611C62.6007 30.051 62.8274 26.7862 62.3287 23.7482C62.1021 22.2518 61.6941 20.7555 61.1048 19.4858C60.9688 19.1684 60.8328 18.851 60.6515 18.579C60.4702 18.2616 60.2889 17.9895 60.1076 17.6721C59.7449 17.0826 59.3369 16.5385 58.8836 15.9944C58.0224 14.9515 57.0704 14.0899 56.0279 13.4551C54.9853 12.8203 53.8973 12.4122 52.6281 12.1855C51.9935 12.0494 51.3135 12.0041 50.5429 11.9588C50.1803 11.9588 49.7723 11.9588 49.4097 11.9588C49.047 11.9588 48.5937 11.9588 48.2311 11.9588C46.7805 11.9588 45.2846 12.1855 43.8794 12.5029C42.4289 12.8203 41.0236 13.3191 39.5731 13.8632C38.8478 14.1353 38.1225 14.4527 37.3519 14.8154L36.3546 15.3142L35.3121 15.813C33.9068 16.4932 32.5469 17.264 31.2324 18.0802C29.8725 18.9417 28.5579 19.8033 27.2887 20.7555C26.654 21.2543 26.0194 21.7077 25.3848 22.2065L23.5716 23.7482C22.3477 24.7457 21.1238 25.7886 19.8999 26.8769C18.676 27.9652 17.4974 29.0534 16.2735 30.1417C15.0496 31.2753 13.8256 32.4089 12.5111 33.4971C12.4204 33.5878 12.2844 33.5425 12.1938 33.4518C12.1484 33.4064 12.1484 33.3157 12.1484 33.2704C12.6471 31.5927 13.327 30.0056 14.143 28.4639C14.9589 26.9222 15.8655 25.4712 16.9081 24.0656C17.9053 22.6599 19.0386 21.3449 20.2172 20.0753C20.5345 19.7579 20.8065 19.4405 21.1238 19.1684L22.0304 18.3069C22.665 17.7174 23.2996 17.128 23.9796 16.5838C26.654 14.3166 29.5551 12.2762 32.6829 10.6438L33.8615 10.0543L35.0401 9.46485C35.8107 9.1021 36.5813 8.73935 37.3972 8.42194C39.0291 7.74178 40.7517 7.15231 42.5649 6.69887C44.3781 6.24543 46.1912 6.01871 48.0498 5.88268C48.5484 5.83734 48.9111 5.83734 49.3643 5.83734C49.8176 5.83734 50.271 5.79199 50.7243 5.79199C51.6308 5.79199 52.6281 5.83734 53.6254 5.97337C55.6199 6.24543 57.7504 7.01628 59.4729 8.19522C61.1955 9.37416 62.646 10.9159 63.6886 12.5936C64.7312 14.2713 65.4565 16.1304 65.8191 18.0802C66.1364 19.9846 66.1364 21.8437 65.9551 23.6575C65.5471 27.285 64.2326 30.5951 62.3287 33.4518C62.2834 33.5425 62.1474 33.5878 62.0567 33.4971C62.0114 33.4971 61.9661 33.4064 61.9661 33.3611Z" fill="#000545"/>
</g>
<line x1="77.5" y1="2.21289e-08" x2="77.5" y2="45" stroke="#333333"/>
<path d="M88.76 19V4.76H90.02L99.1 16.86L98.62 16.98V4.76H100.18V19H98.9L89.84 6.92L90.3 6.78V19H88.76ZM107.242 19.14C106.282 19.14 105.442 18.9267 104.722 18.5C104.015 18.0733 103.462 17.4733 103.062 16.7C102.675 15.9133 102.482 14.9867 102.482 13.92C102.482 12.8667 102.675 11.9467 103.062 11.16C103.462 10.3733 104.015 9.76667 104.722 9.34C105.442 8.91333 106.282 8.7 107.242 8.7C108.202 8.7 109.035 8.91333 109.742 9.34C110.462 9.76667 111.015 10.3733 111.402 11.16C111.802 11.9467 112.002 12.8667 112.002 13.92C112.002 14.9867 111.802 15.9133 111.402 16.7C111.015 17.4733 110.462 18.0733 109.742 18.5C109.035 18.9267 108.202 19.14 107.242 19.14ZM107.242 17.8C108.229 17.8 108.989 17.4733 109.522 16.82C110.069 16.1533 110.342 15.1867 110.342 13.92C110.342 12.68 110.069 11.7267 109.522 11.06C108.975 10.3933 108.215 10.06 107.242 10.06C106.269 10.06 105.502 10.3933 104.942 11.06C104.395 11.7267 104.122 12.68 104.122 13.92C104.122 15.1867 104.389 16.1533 104.922 16.82C105.469 17.4733 106.242 17.8 107.242 17.8ZM114.127 19V11.76C114.127 11.2933 114.114 10.8267 114.087 10.36C114.074 9.88 114.034 9.40667 113.967 8.94H115.507L115.727 11.42L115.507 11.36C115.694 10.48 116.094 9.82 116.707 9.38C117.334 8.92667 118.034 8.7 118.807 8.7C118.981 8.7 119.141 8.71333 119.287 8.74C119.447 8.75333 119.594 8.78 119.727 8.82L119.687 10.3C119.381 10.1933 119.027 10.14 118.627 10.14C117.934 10.14 117.374 10.2933 116.947 10.6C116.534 10.9067 116.227 11.3 116.027 11.78C115.841 12.2467 115.747 12.74 115.747 13.26V19H114.127ZM125.198 23.46C123.678 23.46 122.358 23.1133 121.238 22.42L121.518 21.1C122.145 21.46 122.738 21.72 123.298 21.88C123.858 22.04 124.491 22.12 125.198 22.12C126.158 22.12 126.885 21.86 127.378 21.34C127.885 20.8333 128.138 20.0733 128.138 19.06V16.34L128.358 16.08C128.198 16.6133 127.945 17.08 127.598 17.48C127.265 17.8667 126.851 18.1667 126.358 18.38C125.865 18.5933 125.305 18.7 124.678 18.7C123.785 18.7 122.998 18.4933 122.318 18.08C121.651 17.6533 121.125 17.0667 120.738 16.32C120.365 15.5733 120.178 14.7 120.178 13.7C120.178 12.7 120.365 11.8267 120.738 11.08C121.125 10.3333 121.651 9.75333 122.318 9.34C122.998 8.91333 123.785 8.7 124.678 8.7C125.611 8.7 126.398 8.93333 127.038 9.4C127.691 9.85333 128.131 10.4933 128.358 11.32L128.118 11.1V8.94H129.738V18.92C129.738 20.4267 129.351 21.56 128.578 22.32C127.818 23.08 126.691 23.46 125.198 23.46ZM124.998 17.34C125.971 17.34 126.731 17.02 127.278 16.38C127.838 15.7267 128.118 14.8333 128.118 13.7C128.118 12.5667 127.838 11.68 127.278 11.04C126.731 10.3867 125.971 10.06 124.998 10.06C124.011 10.06 123.231 10.3867 122.658 11.04C122.098 11.68 121.818 12.5667 121.818 13.7C121.818 14.8467 122.098 15.74 122.658 16.38C123.231 17.02 124.011 17.34 124.998 17.34ZM140.688 17.8C140.248 18.2133 139.682 18.54 138.988 18.78C138.308 19.02 137.608 19.14 136.888 19.14C135.848 19.14 134.948 18.9333 134.188 18.52C133.442 18.1067 132.862 17.5133 132.448 16.74C132.048 15.9533 131.848 15.02 131.848 13.94C131.848 12.9 132.048 11.9867 132.448 11.2C132.848 10.4133 133.402 9.8 134.108 9.36C134.828 8.92 135.655 8.7 136.588 8.7C137.482 8.7 138.248 8.9 138.888 9.3C139.528 9.68667 140.015 10.2467 140.348 10.98C140.695 11.7133 140.868 12.5933 140.868 13.62V13.92H133.268V12.86H139.948L139.428 13.6C139.455 12.4267 139.222 11.5267 138.728 10.9C138.248 10.2733 137.542 9.96 136.608 9.96C135.635 9.96 134.868 10.3067 134.308 11C133.762 11.68 133.488 12.6267 133.488 13.84C133.488 15.1467 133.775 16.1333 134.348 16.8C134.935 17.4667 135.788 17.8 136.908 17.8C137.495 17.8 138.055 17.7067 138.588 17.52C139.135 17.32 139.655 17.02 140.148 16.62L140.688 17.8ZM146.327 19.14C144.634 19.14 143.294 18.7067 142.307 17.84L142.847 16.64C143.381 17.0533 143.927 17.36 144.487 17.56C145.061 17.7467 145.694 17.84 146.387 17.84C147.147 17.84 147.721 17.7133 148.107 17.46C148.507 17.1933 148.707 16.8133 148.707 16.32C148.707 15.92 148.574 15.6067 148.307 15.38C148.041 15.14 147.601 14.9467 146.987 14.8L145.287 14.4C144.447 14.2133 143.794 13.88 143.327 13.4C142.874 12.92 142.647 12.3467 142.647 11.68C142.647 11.0933 142.807 10.58 143.127 10.14C143.447 9.68667 143.894 9.33333 144.467 9.08C145.041 8.82667 145.721 8.7 146.507 8.7C147.214 8.7 147.881 8.81333 148.507 9.04C149.134 9.26667 149.661 9.59333 150.087 10.02L149.547 11.2C149.067 10.8 148.574 10.5067 148.067 10.32C147.574 10.12 147.054 10.02 146.507 10.02C145.787 10.02 145.227 10.16 144.827 10.44C144.441 10.72 144.247 11.1 144.247 11.58C144.247 11.9933 144.367 12.32 144.607 12.56C144.861 12.8 145.261 12.9867 145.807 13.12L147.507 13.54C148.454 13.74 149.147 14.0733 149.587 14.54C150.041 14.9933 150.267 15.5733 150.267 16.28C150.267 17.1467 149.914 17.84 149.207 18.36C148.501 18.88 147.541 19.14 146.327 19.14ZM157.264 19V8.94H158.884V19H157.264ZM157.104 4.68H159.084V6.52H157.104V4.68ZM161.63 19V11.76C161.63 11.2933 161.616 10.8267 161.59 10.36C161.576 9.88 161.536 9.40667 161.47 8.94H163.01L163.19 11.02L162.99 11.18C163.27 10.3667 163.736 9.75333 164.39 9.34C165.043 8.91333 165.796 8.7 166.65 8.7C169.063 8.7 170.27 10.0267 170.27 12.68V19H168.65V12.76C168.65 11.8267 168.463 11.1467 168.09 10.72C167.716 10.28 167.13 10.06 166.33 10.06C165.396 10.06 164.65 10.3467 164.09 10.92C163.53 11.4933 163.25 12.2667 163.25 13.24V19H161.63ZM176.329 19.14C174.635 19.14 173.295 18.7067 172.309 17.84L172.849 16.64C173.382 17.0533 173.929 17.36 174.489 17.56C175.062 17.7467 175.695 17.84 176.389 17.84C177.149 17.84 177.722 17.7133 178.109 17.46C178.509 17.1933 178.709 16.8133 178.709 16.32C178.709 15.92 178.575 15.6067 178.309 15.38C178.042 15.14 177.602 14.9467 176.989 14.8L175.289 14.4C174.449 14.2133 173.795 13.88 173.329 13.4C172.875 12.92 172.649 12.3467 172.649 11.68C172.649 11.0933 172.809 10.58 173.129 10.14C173.449 9.68667 173.895 9.33333 174.469 9.08C175.042 8.82667 175.722 8.7 176.509 8.7C177.215 8.7 177.882 8.81333 178.509 9.04C179.135 9.26667 179.662 9.59333 180.089 10.02L179.549 11.2C179.069 10.8 178.575 10.5067 178.069 10.32C177.575 10.12 177.055 10.02 176.509 10.02C175.789 10.02 175.229 10.16 174.829 10.44C174.442 10.72 174.249 11.1 174.249 11.58C174.249 11.9933 174.369 12.32 174.609 12.56C174.862 12.8 175.262 12.9867 175.809 13.12L177.509 13.54C178.455 13.74 179.149 14.0733 179.589 14.54C180.042 14.9933 180.269 15.5733 180.269 16.28C180.269 17.1467 179.915 17.84 179.209 18.36C178.502 18.88 177.542 19.14 176.329 19.14ZM180.933 10.22V8.94H187.393V10.22H180.933ZM187.353 17.56V18.94C187.126 19.0067 186.9 19.0533 186.673 19.08C186.46 19.12 186.22 19.14 185.953 19.14C185.02 19.14 184.273 18.8733 183.713 18.34C183.166 17.8067 182.893 17.0067 182.893 15.94V6.36L184.513 5.78V15.72C184.513 16.2533 184.586 16.6667 184.733 16.96C184.893 17.2533 185.106 17.46 185.373 17.58C185.64 17.6867 185.94 17.74 186.273 17.74C186.473 17.74 186.653 17.7267 186.813 17.7C186.973 17.6733 187.153 17.6267 187.353 17.56ZM188.945 19V8.94H190.565V19H188.945ZM188.785 4.68H190.765V6.52H188.785V4.68ZM191.891 10.22V8.94H198.351V10.22H191.891ZM198.311 17.56V18.94C198.084 19.0067 197.857 19.0533 197.631 19.08C197.417 19.12 197.177 19.14 196.911 19.14C195.977 19.14 195.231 18.8733 194.671 18.34C194.124 17.8067 193.851 17.0067 193.851 15.94V6.36L195.471 5.78V15.72C195.471 16.2533 195.544 16.6667 195.691 16.96C195.851 17.2533 196.064 17.46 196.331 17.58C196.597 17.6867 196.897 17.74 197.231 17.74C197.431 17.74 197.611 17.7267 197.771 17.7C197.931 17.6733 198.111 17.6267 198.311 17.56ZM203.463 19.14C202.263 19.14 201.356 18.8067 200.743 18.14C200.143 17.4733 199.843 16.4867 199.843 15.18V8.94H201.463V15.14C201.463 16.0467 201.65 16.7133 202.023 17.14C202.396 17.5667 202.963 17.78 203.723 17.78C204.616 17.78 205.336 17.4933 205.883 16.92C206.43 16.3467 206.703 15.58 206.703 14.62V8.94H208.323V19H206.743V16.82L206.983 16.7C206.716 17.5 206.263 18.1067 205.623 18.52C204.996 18.9333 204.276 19.14 203.463 19.14ZM214.446 19.14C212.753 19.14 211.413 18.7067 210.426 17.84L210.966 16.64C211.499 17.0533 212.046 17.36 212.606 17.56C213.179 17.7467 213.813 17.84 214.506 17.84C215.266 17.84 215.839 17.7133 216.226 17.46C216.626 17.1933 216.826 16.8133 216.826 16.32C216.826 15.92 216.693 15.6067 216.426 15.38C216.159 15.14 215.719 14.9467 215.106 14.8L213.406 14.4C212.566 14.2133 211.913 13.88 211.446 13.4C210.993 12.92 210.766 12.3467 210.766 11.68C210.766 11.0933 210.926 10.58 211.246 10.14C211.566 9.68667 212.013 9.33333 212.586 9.08C213.159 8.82667 213.839 8.7 214.626 8.7C215.333 8.7 215.999 8.81333 216.626 9.04C217.253 9.26667 217.779 9.59333 218.206 10.02L217.666 11.2C217.186 10.8 216.693 10.5067 216.186 10.32C215.693 10.12 215.173 10.02 214.626 10.02C213.906 10.02 213.346 10.16 212.946 10.44C212.559 10.72 212.366 11.1 212.366 11.58C212.366 11.9933 212.486 12.32 212.726 12.56C212.979 12.8 213.379 12.9867 213.926 13.12L215.626 13.54C216.573 13.74 217.266 14.0733 217.706 14.54C218.159 14.9933 218.386 15.5733 218.386 16.28C218.386 17.1467 218.033 17.84 217.326 18.36C216.619 18.88 215.659 19.14 214.446 19.14ZM217.908 21.84C218.108 21.8933 218.288 21.9333 218.448 21.96C218.594 21.9867 218.741 22 218.888 22C219.194 22 219.474 21.94 219.728 21.82C219.994 21.7133 220.201 21.5133 220.348 21.22C220.494 20.94 220.568 20.5333 220.568 20V8.94H222.188V20.2C222.188 21.28 221.921 22.08 221.388 22.6C220.854 23.1333 220.134 23.4 219.228 23.4C219.014 23.4 218.794 23.3867 218.568 23.36C218.341 23.3333 218.121 23.2867 217.908 23.22V21.84ZM220.388 4.68H222.368V6.52H220.388V4.68ZM229.093 19.14C228.133 19.14 227.293 18.9267 226.573 18.5C225.867 18.0733 225.313 17.4733 224.913 16.7C224.527 15.9133 224.333 14.9867 224.333 13.92C224.333 12.8667 224.527 11.9467 224.913 11.16C225.313 10.3733 225.867 9.76667 226.573 9.34C227.293 8.91333 228.133 8.7 229.093 8.7C230.053 8.7 230.887 8.91333 231.593 9.34C232.313 9.76667 232.867 10.3733 233.253 11.16C233.653 11.9467 233.853 12.8667 233.853 13.92C233.853 14.9867 233.653 15.9133 233.253 16.7C232.867 17.4733 232.313 18.0733 231.593 18.5C230.887 18.9267 230.053 19.14 229.093 19.14ZM229.093 17.8C230.08 17.8 230.84 17.4733 231.373 16.82C231.92 16.1533 232.193 15.1867 232.193 13.92C232.193 12.68 231.92 11.7267 231.373 11.06C230.827 10.3933 230.067 10.06 229.093 10.06C228.12 10.06 227.353 10.3933 226.793 11.06C226.247 11.7267 225.973 12.68 225.973 13.92C225.973 15.1867 226.24 16.1533 226.773 16.82C227.32 17.4733 228.093 17.8 229.093 17.8ZM235.979 19V11.76C235.979 11.2933 235.965 10.8267 235.939 10.36C235.925 9.88 235.885 9.40667 235.819 8.94H237.359L237.539 11.02L237.339 11.18C237.619 10.3667 238.085 9.75333 238.739 9.34C239.392 8.91333 240.145 8.7 240.999 8.7C243.412 8.7 244.619 10.0267 244.619 12.68V19H242.999V12.76C242.999 11.8267 242.812 11.1467 242.439 10.72C242.065 10.28 241.479 10.06 240.679 10.06C239.745 10.06 238.999 10.3467 238.439 10.92C237.879 11.4933 237.599 12.2667 237.599 13.24V19H235.979ZM250.673 10.22V8.94H256.713V10.22H250.673ZM256.993 5.76C256.619 5.65333 256.273 5.6 255.953 5.6C255.633 5.6 255.339 5.66 255.073 5.78C254.819 5.88667 254.619 6.08667 254.473 6.38C254.326 6.67333 254.253 7.08 254.253 7.6V19H252.633V7.4C252.633 6.32 252.899 5.52 253.433 5C253.966 4.46667 254.699 4.2 255.633 4.2C255.859 4.2 256.086 4.21333 256.313 4.24C256.539 4.26667 256.766 4.31333 256.993 4.38V5.76ZM262.493 19.14C261.533 19.14 260.693 18.9267 259.973 18.5C259.267 18.0733 258.713 17.4733 258.313 16.7C257.927 15.9133 257.733 14.9867 257.733 13.92C257.733 12.8667 257.927 11.9467 258.313 11.16C258.713 10.3733 259.267 9.76667 259.973 9.34C260.693 8.91333 261.533 8.7 262.493 8.7C263.453 8.7 264.287 8.91333 264.993 9.34C265.713 9.76667 266.267 10.3733 266.653 11.16C267.053 11.9467 267.253 12.8667 267.253 13.92C267.253 14.9867 267.053 15.9133 266.653 16.7C266.267 17.4733 265.713 18.0733 264.993 18.5C264.287 18.9267 263.453 19.14 262.493 19.14ZM262.493 17.8C263.48 17.8 264.24 17.4733 264.773 16.82C265.32 16.1533 265.593 15.1867 265.593 13.92C265.593 12.68 265.32 11.7267 264.773 11.06C264.227 10.3933 263.467 10.06 262.493 10.06C261.52 10.06 260.753 10.3933 260.193 11.06C259.647 11.7267 259.373 12.68 259.373 13.92C259.373 15.1867 259.64 16.1533 260.173 16.82C260.72 17.4733 261.493 17.8 262.493 17.8ZM269.379 19V11.76C269.379 11.2933 269.365 10.8267 269.339 10.36C269.325 9.88 269.285 9.40667 269.219 8.94H270.759L270.979 11.42L270.759 11.36C270.945 10.48 271.345 9.82 271.959 9.38C272.585 8.92667 273.285 8.7 274.059 8.7C274.232 8.7 274.392 8.71333 274.539 8.74C274.699 8.75333 274.845 8.78 274.979 8.82L274.939 10.3C274.632 10.1933 274.279 10.14 273.879 10.14C273.185 10.14 272.625 10.2933 272.199 10.6C271.785 10.9067 271.479 11.3 271.279 11.78C271.092 12.2467 270.999 12.74 270.999 13.26V19H269.379ZM88.56 41V33.76C88.56 33.2933 88.5467 32.8267 88.52 32.36C88.5067 31.88 88.4667 31.4067 88.4 30.94H89.94L90.12 33.02L89.92 33.16C90.16 32.3733 90.5733 31.7667 91.16 31.34C91.76 30.9133 92.4667 30.7 93.28 30.7C94.2533 30.7 95.0067 30.94 95.54 31.42C96.0867 31.9 96.4333 32.6333 96.58 33.62L96.1 33.36C96.3133 32.5467 96.74 31.9 97.38 31.42C98.0333 30.94 98.8133 30.7 99.72 30.7C100.827 30.7 101.66 31.0333 102.22 31.7C102.78 32.3533 103.06 33.3467 103.06 34.68V41H101.44V34.76C101.44 33.8267 101.273 33.1467 100.94 32.72C100.607 32.28 100.08 32.06 99.36 32.06C98.52 32.06 97.8533 32.3467 97.36 32.92C96.88 33.4933 96.64 34.2733 96.64 35.26V41H95.02V34.76C95.02 33.8267 94.8467 33.1467 94.5 32.72C94.1667 32.28 93.64 32.06 92.92 32.06C92.0667 32.06 91.3933 32.3467 90.9 32.92C90.42 33.4933 90.18 34.2733 90.18 35.26V41H88.56ZM114.278 39.8C113.838 40.2133 113.271 40.54 112.578 40.78C111.898 41.02 111.198 41.14 110.478 41.14C109.438 41.14 108.538 40.9333 107.778 40.52C107.031 40.1067 106.451 39.5133 106.038 38.74C105.638 37.9533 105.438 37.02 105.438 35.94C105.438 34.9 105.638 33.9867 106.038 33.2C106.438 32.4133 106.991 31.8 107.698 31.36C108.418 30.92 109.245 30.7 110.178 30.7C111.071 30.7 111.838 30.9 112.478 31.3C113.118 31.6867 113.605 32.2467 113.938 32.98C114.285 33.7133 114.458 34.5933 114.458 35.62V35.92H106.858V34.86H113.538L113.018 35.6C113.045 34.4267 112.811 33.5267 112.318 32.9C111.838 32.2733 111.131 31.96 110.198 31.96C109.225 31.96 108.458 32.3067 107.898 33C107.351 33.68 107.078 34.6267 107.078 35.84C107.078 37.1467 107.365 38.1333 107.938 38.8C108.525 39.4667 109.378 39.8 110.498 39.8C111.085 39.8 111.645 39.7067 112.178 39.52C112.725 39.32 113.245 39.02 113.738 38.62L114.278 39.8ZM116.817 41V33.76C116.817 33.2933 116.804 32.8267 116.777 32.36C116.764 31.88 116.724 31.4067 116.657 30.94H118.197L118.377 33.02L118.177 33.18C118.457 32.3667 118.924 31.7533 119.577 31.34C120.23 30.9133 120.984 30.7 121.837 30.7C124.25 30.7 125.457 32.0267 125.457 34.68V41H123.837V34.76C123.837 33.8267 123.65 33.1467 123.277 32.72C122.904 32.28 122.317 32.06 121.517 32.06C120.584 32.06 119.837 32.3467 119.277 32.92C118.717 33.4933 118.437 34.2667 118.437 35.24V41H116.817ZM128.416 41V33.76C128.416 33.2933 128.403 32.8267 128.376 32.36C128.363 31.88 128.323 31.4067 128.256 30.94H129.796L129.976 33.02L129.776 33.18C130.056 32.3667 130.523 31.7533 131.176 31.34C131.83 30.9133 132.583 30.7 133.436 30.7C135.85 30.7 137.056 32.0267 137.056 34.68V41H135.436V34.76C135.436 33.8267 135.25 33.1467 134.876 32.72C134.503 32.28 133.916 32.06 133.116 32.06C132.183 32.06 131.436 32.3467 130.876 32.92C130.316 33.4933 130.036 34.2667 130.036 35.24V41H128.416ZM148.255 39.8C147.815 40.2133 147.249 40.54 146.555 40.78C145.875 41.02 145.175 41.14 144.455 41.14C143.415 41.14 142.515 40.9333 141.755 40.52C141.009 40.1067 140.429 39.5133 140.015 38.74C139.615 37.9533 139.415 37.02 139.415 35.94C139.415 34.9 139.615 33.9867 140.015 33.2C140.415 32.4133 140.969 31.8 141.675 31.36C142.395 30.92 143.222 30.7 144.155 30.7C145.049 30.7 145.815 30.9 146.455 31.3C147.095 31.6867 147.582 32.2467 147.915 32.98C148.262 33.7133 148.435 34.5933 148.435 35.62V35.92H140.835V34.86H147.515L146.995 35.6C147.022 34.4267 146.789 33.5267 146.295 32.9C145.815 32.2733 145.109 31.96 144.175 31.96C143.202 31.96 142.435 32.3067 141.875 33C141.329 33.68 141.055 34.6267 141.055 35.84C141.055 37.1467 141.342 38.1333 141.915 38.8C142.502 39.4667 143.355 39.8 144.475 39.8C145.062 39.8 145.622 39.7067 146.155 39.52C146.702 39.32 147.222 39.02 147.715 38.62L148.255 39.8ZM154.194 41.14C152.501 41.14 151.161 40.7067 150.174 39.84L150.714 38.64C151.248 39.0533 151.794 39.36 152.354 39.56C152.928 39.7467 153.561 39.84 154.254 39.84C155.014 39.84 155.588 39.7133 155.974 39.46C156.374 39.1933 156.574 38.8133 156.574 38.32C156.574 37.92 156.441 37.6067 156.174 37.38C155.908 37.14 155.468 36.9467 154.854 36.8L153.154 36.4C152.314 36.2133 151.661 35.88 151.194 35.4C150.741 34.92 150.514 34.3467 150.514 33.68C150.514 33.0933 150.674 32.58 150.994 32.14C151.314 31.6867 151.761 31.3333 152.334 31.08C152.908 30.8267 153.588 30.7 154.374 30.7C155.081 30.7 155.748 30.8133 156.374 31.04C157.001 31.2667 157.528 31.5933 157.954 32.02L157.414 33.2C156.934 32.8 156.441 32.5067 155.934 32.32C155.441 32.12 154.921 32.02 154.374 32.02C153.654 32.02 153.094 32.16 152.694 32.44C152.308 32.72 152.114 33.1 152.114 33.58C152.114 33.9933 152.234 34.32 152.474 34.56C152.728 34.8 153.128 34.9867 153.674 35.12L155.374 35.54C156.321 35.74 157.014 36.0733 157.454 36.54C157.908 36.9933 158.134 37.5733 158.134 38.28C158.134 39.1467 157.781 39.84 157.074 40.36C156.368 40.88 155.408 41.14 154.194 41.14ZM167.396 41L161.916 35.86L166.976 30.96H169.036L163.436 36.32L163.496 35.3L169.516 41H167.396ZM160.616 41V26.28H162.236V41H160.616ZM178.873 39.8C178.433 40.2133 177.867 40.54 177.173 40.78C176.493 41.02 175.793 41.14 175.073 41.14C174.033 41.14 173.133 40.9333 172.373 40.52C171.627 40.1067 171.047 39.5133 170.633 38.74C170.233 37.9533 170.033 37.02 170.033 35.94C170.033 34.9 170.233 33.9867 170.633 33.2C171.033 32.4133 171.587 31.8 172.293 31.36C173.013 30.92 173.84 30.7 174.773 30.7C175.667 30.7 176.433 30.9 177.073 31.3C177.713 31.6867 178.2 32.2467 178.533 32.98C178.88 33.7133 179.053 34.5933 179.053 35.62V35.92H171.453V34.86H178.133L177.613 35.6C177.64 34.4267 177.407 33.5267 176.913 32.9C176.433 32.2733 175.727 31.96 174.793 31.96C173.82 31.96 173.053 32.3067 172.493 33C171.947 33.68 171.673 34.6267 171.673 35.84C171.673 37.1467 171.96 38.1333 172.533 38.8C173.12 39.4667 173.973 39.8 175.093 39.8C175.68 39.8 176.24 39.7067 176.773 39.52C177.32 39.32 177.84 39.02 178.333 38.62L178.873 39.8ZM181.412 41V33.76C181.412 33.2933 181.399 32.8267 181.372 32.36C181.359 31.88 181.319 31.4067 181.252 30.94H182.792L183.012 33.42L182.792 33.36C182.979 32.48 183.379 31.82 183.992 31.38C184.619 30.9267 185.319 30.7 186.092 30.7C186.266 30.7 186.426 30.7133 186.572 30.74C186.732 30.7533 186.879 30.78 187.012 30.82L186.972 32.3C186.666 32.1933 186.312 32.14 185.912 32.14C185.219 32.14 184.659 32.2933 184.232 32.6C183.819 32.9067 183.512 33.3 183.312 33.78C183.126 34.2467 183.032 34.74 183.032 35.26V41H181.412ZM196.603 39.8C196.163 40.2133 195.596 40.54 194.903 40.78C194.223 41.02 193.523 41.14 192.803 41.14C191.763 41.14 190.863 40.9333 190.103 40.52C189.356 40.1067 188.776 39.5133 188.363 38.74C187.963 37.9533 187.763 37.02 187.763 35.94C187.763 34.9 187.963 33.9867 188.363 33.2C188.763 32.4133 189.316 31.8 190.023 31.36C190.743 30.92 191.57 30.7 192.503 30.7C193.396 30.7 194.163 30.9 194.803 31.3C195.443 31.6867 195.93 32.2467 196.263 32.98C196.61 33.7133 196.783 34.5933 196.783 35.62V35.92H189.183V34.86H195.863L195.343 35.6C195.37 34.4267 195.136 33.5267 194.643 32.9C194.163 32.2733 193.456 31.96 192.523 31.96C191.55 31.96 190.783 32.3067 190.223 33C189.676 33.68 189.403 34.6267 189.403 35.84C189.403 37.1467 189.69 38.1333 190.263 38.8C190.85 39.4667 191.703 39.8 192.823 39.8C193.41 39.8 193.97 39.7067 194.503 39.52C195.05 39.32 195.57 39.02 196.063 38.62L196.603 39.8ZM197.663 32.22V30.94H204.123V32.22H197.663ZM204.083 39.56V40.94C203.857 41.0067 203.63 41.0533 203.403 41.08C203.19 41.12 202.95 41.14 202.683 41.14C201.75 41.14 201.003 40.8733 200.443 40.34C199.897 39.8067 199.623 39.0067 199.623 37.94V28.36L201.243 27.78V37.72C201.243 38.2533 201.317 38.6667 201.463 38.96C201.623 39.2533 201.837 39.46 202.103 39.58C202.37 39.6867 202.67 39.74 203.003 39.74C203.203 39.74 203.383 39.7267 203.543 39.7C203.703 39.6733 203.883 39.6267 204.083 39.56ZM204.614 32.22V30.94H211.074V32.22H204.614ZM211.034 39.56V40.94C210.808 41.0067 210.581 41.0533 210.354 41.08C210.141 41.12 209.901 41.14 209.634 41.14C208.701 41.14 207.954 40.8733 207.394 40.34C206.848 39.8067 206.574 39.0067 206.574 37.94V28.36L208.194 27.78V37.72C208.194 38.2533 208.268 38.6667 208.414 38.96C208.574 39.2533 208.788 39.46 209.054 39.58C209.321 39.6867 209.621 39.74 209.954 39.74C210.154 39.74 210.334 39.7267 210.494 39.7C210.654 39.6733 210.834 39.6267 211.034 39.56ZM212.926 41V30.94H214.546V41H212.926ZM212.766 26.68H214.746V28.52H212.766V26.68ZM222.012 45.46C220.492 45.46 219.172 45.1133 218.052 44.42L218.332 43.1C218.959 43.46 219.552 43.72 220.112 43.88C220.672 44.04 221.305 44.12 222.012 44.12C222.972 44.12 223.699 43.86 224.192 43.34C224.699 42.8333 224.952 42.0733 224.952 41.06V38.34L225.172 38.08C225.012 38.6133 224.759 39.08 224.412 39.48C224.079 39.8667 223.665 40.1667 223.172 40.38C222.679 40.5933 222.119 40.7 221.492 40.7C220.599 40.7 219.812 40.4933 219.132 40.08C218.465 39.6533 217.939 39.0667 217.552 38.32C217.179 37.5733 216.992 36.7 216.992 35.7C216.992 34.7 217.179 33.8267 217.552 33.08C217.939 32.3333 218.465 31.7533 219.132 31.34C219.812 30.9133 220.599 30.7 221.492 30.7C222.425 30.7 223.212 30.9333 223.852 31.4C224.505 31.8533 224.945 32.4933 225.172 33.32L224.932 33.1V30.94H226.552V40.92C226.552 42.4267 226.165 43.56 225.392 44.32C224.632 45.08 223.505 45.46 222.012 45.46ZM221.812 39.34C222.785 39.34 223.545 39.02 224.092 38.38C224.652 37.7267 224.932 36.8333 224.932 35.7C224.932 34.5667 224.652 33.68 224.092 33.04C223.545 32.3867 222.785 32.06 221.812 32.06C220.825 32.06 220.045 32.3867 219.472 33.04C218.912 33.68 218.632 34.5667 218.632 35.7C218.632 36.8467 218.912 37.74 219.472 38.38C220.045 39.02 220.825 39.34 221.812 39.34ZM229.562 41V26.28H231.182V32.98L230.922 33.18C231.202 32.3667 231.669 31.7533 232.322 31.34C232.976 30.9133 233.729 30.7 234.582 30.7C236.996 30.7 238.202 32.0267 238.202 34.68V41H236.582V34.76C236.582 33.8267 236.396 33.1467 236.022 32.72C235.649 32.28 235.062 32.06 234.262 32.06C233.329 32.06 232.582 32.3467 232.022 32.92C231.462 33.4933 231.182 34.2667 231.182 35.24V41H229.562ZM249.402 39.8C248.962 40.2133 248.395 40.54 247.702 40.78C247.022 41.02 246.322 41.14 245.602 41.14C244.562 41.14 243.662 40.9333 242.902 40.52C242.155 40.1067 241.575 39.5133 241.162 38.74C240.762 37.9533 240.562 37.02 240.562 35.94C240.562 34.9 240.762 33.9867 241.162 33.2C241.562 32.4133 242.115 31.8 242.822 31.36C243.542 30.92 244.368 30.7 245.302 30.7C246.195 30.7 246.962 30.9 247.602 31.3C248.242 31.6867 248.728 32.2467 249.062 32.98C249.408 33.7133 249.582 34.5933 249.582 35.62V35.92H241.982V34.86H248.662L248.142 35.6C248.168 34.4267 247.935 33.5267 247.442 32.9C246.962 32.2733 246.255 31.96 245.322 31.96C244.348 31.96 243.582 32.3067 243.022 33C242.475 33.68 242.202 34.6267 242.202 35.84C242.202 37.1467 242.488 38.1333 243.062 38.8C243.648 39.4667 244.502 39.8 245.622 39.8C246.208 39.8 246.768 39.7067 247.302 39.52C247.848 39.32 248.368 39.02 248.862 38.62L249.402 39.8ZM250.462 32.22V30.94H256.922V32.22H250.462ZM256.882 39.56V40.94C256.655 41.0067 256.429 41.0533 256.202 41.08C255.989 41.12 255.749 41.14 255.482 41.14C254.549 41.14 253.802 40.8733 253.242 40.34C252.695 39.8067 252.422 39.0067 252.422 37.94V28.36L254.042 27.78V37.72C254.042 38.2533 254.115 38.6667 254.262 38.96C254.422 39.2533 254.635 39.46 254.902 39.58C255.169 39.6867 255.469 39.74 255.802 39.74C256.002 39.74 256.182 39.7267 256.342 39.7C256.502 39.6733 256.682 39.6267 256.882 39.56ZM267.014 39.8C266.574 40.2133 266.007 40.54 265.314 40.78C264.634 41.02 263.934 41.14 263.214 41.14C262.174 41.14 261.274 40.9333 260.514 40.52C259.767 40.1067 259.187 39.5133 258.774 38.74C258.374 37.9533 258.174 37.02 258.174 35.94C258.174 34.9 258.374 33.9867 258.774 33.2C259.174 32.4133 259.727 31.8 260.434 31.36C261.154 30.92 261.981 30.7 262.914 30.7C263.807 30.7 264.574 30.9 265.214 31.3C265.854 31.6867 266.341 32.2467 266.674 32.98C267.021 33.7133 267.194 34.5933 267.194 35.62V35.92H259.594V34.86H266.274L265.754 35.6C265.781 34.4267 265.547 33.5267 265.054 32.9C264.574 32.2733 263.867 31.96 262.934 31.96C261.961 31.96 261.194 32.3067 260.634 33C260.087 33.68 259.814 34.6267 259.814 35.84C259.814 37.1467 260.101 38.1333 260.674 38.8C261.261 39.4667 262.114 39.8 263.234 39.8C263.821 39.8 264.381 39.7067 264.914 39.52C265.461 39.32 265.981 39.02 266.474 38.62L267.014 39.8ZM269.553 41V33.76C269.553 33.2933 269.54 32.8267 269.513 32.36C269.5 31.88 269.46 31.4067 269.393 30.94H270.933L271.153 33.42L270.933 33.36C271.12 32.48 271.52 31.82 272.133 31.38C272.76 30.9267 273.46 30.7 274.233 30.7C274.406 30.7 274.566 30.7133 274.713 30.74C274.873 30.7533 275.02 30.78 275.153 30.82L275.113 32.3C274.806 32.1933 274.453 32.14 274.053 32.14C273.36 32.14 272.8 32.2933 272.373 32.6C271.96 32.9067 271.653 33.3 271.453 33.78C271.266 34.2467 271.173 34.74 271.173 35.26V41H269.553Z" fill="#333333"/>
</svg>
