<?xml version="1.0" encoding="UTF-8" standalone="no"?>
<svg
   xmlns:dc="http://purl.org/dc/elements/1.1/"
   xmlns:cc="http://creativecommons.org/ns#"
   xmlns:rdf="http://www.w3.org/1999/02/22-rdf-syntax-ns#"
   xmlns:svg="http://www.w3.org/2000/svg"
   xmlns="http://www.w3.org/2000/svg"
   xmlns:sodipodi="http://sodipodi.sourceforge.net/DTD/sodipodi-0.dtd"
   xmlns:inkscape="http://www.inkscape.org/namespaces/inkscape"
   sodipodi:docname="Nærøysund_komm-1.svg"
   inkscape:version="1.0 (4035a4fb49, 2020-05-01)"
   id="svg8"
   version="1.1"
   viewBox="0 0 227.77913 266.64615"
   height="266.64615mm"
   width="227.77913mm">
  <defs
     id="defs2" />
  <sodipodi:namedview
     showguides="false"
     inkscape:document-rotation="0"
     fit-margin-bottom="0"
     fit-margin-right="0"
     fit-margin-left="0"
     fit-margin-top="0"
     inkscape:window-maximized="0"
     inkscape:window-y="2"
     inkscape:window-x="-7"
     inkscape:window-height="1011"
     inkscape:window-width="1669"
     showgrid="false"
     inkscape:current-layer="g842"
     inkscape:document-units="mm"
     inkscape:cy="594.39134"
     inkscape:cx="430.44875"
     inkscape:zoom="0.49497475"
     inkscape:pageshadow="2"
     inkscape:pageopacity="0.0"
     borderopacity="1.0"
     bordercolor="#666666"
     pagecolor="#ffffff"
     id="base" />
  <metadata
     id="metadata5">
    <rdf:RDF>
      <cc:Work
         rdf:about="">
        <dc:format>image/svg+xml</dc:format>
        <dc:type
           rdf:resource="http://purl.org/dc/dcmitype/StillImage" />
        <dc:title></dc:title>
      </cc:Work>
    </rdf:RDF>
  </metadata>
  <g
     transform="translate(424.7306,-4.136333)"
     id="layer1"
     inkscape:groupmode="layer"
     inkscape:label="Layer 1">
    <g
       transform="translate(-418.00954,-18.708867)"
       id="g842">
      <path
         id="path844-3"
         d="M 98.685754,282.60379 C 68.770484,256.26599 40.694924,218.87003 23.428764,182.36334 9.7624943,153.46804 0.4918743,121.91132 -3.8461857,89.52072 c -2.18208,-16.29267 -3.03594,-40.54687 -2.85017,-54.30078 l 0.16713,-12.37474 113.6202357,0.20335 c 106.96554,0.19144 113.84745,0.30092 113.84745,0.30092 0,0 0.14063,12.93714 0.11693,26.01663 -0.0362,19.8511 -0.61204,25.68779 -1.76885,37.0358 -6.31813,61.97939 -31.62433,115.96284 -71.01419,163.16371 -12.74522,15.27261 -38.01796,39.99166 -40.81995,39.92565 -0.53332,-0.0127 -4.47833,-3.11193 -8.766688,-6.88747 z"
         style="fill:#ffffff;fill-opacity:1;stroke:#000000;stroke-width:0.78;stroke-miterlimit:4;stroke-dasharray:none;stroke-opacity:1" />
      <path
         sodipodi:nodetypes="ccsscsscccccccccscc"
         inkscape:connector-curvature="0"
         id="path860"
         d="m 218.37441,90.458989 c -4.61958,-2.034886 -9.86764,-2.305525 -13.48056,-2.964759 -9.60262,-1.749272 -37.12865,1.841949 -46.16092,3.414076 -13.86058,2.412532 -25.42097,2.645932 -37.22401,9.198304 -3.73675,2.07443 -13.09428,5.96995 -13.34245,5.93924 -0.2482,-0.0307 -5.7776,-3.13161 -11.409161,-5.97021 C 86.592317,94.951944 74.439189,90.595063 64.166516,88.392292 49.14346,85.170892 28.677894,85.017377 10.985321,87.993208 6.4482231,88.698163 2.1172988,89.113887 -2.3030867,90.01071 c 4.8736099,36.71881 16.1281637,71.83996 33.7040497,104.31176 4.14502,-1.0431 7.527492,-1.13417 11.542071,-1.42514 20.387496,-1.41664 37.038143,-5.86645 54.368355,-14.52914 l 10.965321,-5.48074 10.06758,5.10124 c 18.03387,9.13811 46.94462,14.27424 57.41129,14.46186 5.8468,0.26372 6.98665,4.7e-4 9.82479,-0.0538 13.27277,-24.94715 22.99343,-51.64839 28.77027,-79.47424 1.8679,-8.99729 3.14824,-15.870786 4.0238,-22.4631 z"
         style="fill:#76b568;stroke-width:0.76110768" />
      <path
         sodipodi:nodetypes="sssscsccssccsccccsssccsscccscssscssscccsccsscscc"
         inkscape:connector-curvature="0"
         id="path844"
         d="M 98.685745,282.60378 C 68.770475,256.26598 40.694915,218.87002 23.428765,182.36333 9.7624855,153.46803 0.49186546,121.91131 -3.8461945,89.520714 -6.0282745,73.228044 -6.8821297,48.973849 -6.696364,35.219948 L -6.5292257,22.8452 107.091,23.048554 c 106.96554,0.191444 113.84745,0.300924 113.84745,0.300924 0,0 0.14063,12.937136 0.11693,26.016616 -0.0362,19.8511 -0.61204,25.687788 -1.76885,37.03581 -6.31813,61.979376 -31.62433,115.962826 -71.01419,163.163696 -12.74522,15.27261 -38.01796,39.99165 -40.81995,39.92563 -0.53332,-0.0126 -4.47833,-3.11191 -8.766685,-6.88745 z m 19.469365,-3.97091 c 18.47334,-16.59625 36.70399,-38.21184 51.33147,-60.5192 6.97036,-10.98977 14.3756,-23.87183 19.43003,-34.29184 7.5935,-15.71845 18.88551,-49.40046 18.88551,-49.40046 0,0 -4.91197,1.62875 -8.68754,2.39999 -15.10415,3.08563 -31.17866,2.45596 -43.90049,-1.71968 -8.01018,-2.62915 -19.23601,-8.87043 -28.90491,-16.0704 -4.90083,-3.64941 -10.98783,-8.06407 -13.52666,-9.81036 l -4.61605,-3.17507 1.8871,-1.55708 c 2.96277,-2.44464 19.87132,-10.326536 27.68231,-12.904076 20.13571,-6.64454 45.87564,-8.15258 69.27792,-4.05882 5.22206,0.9135 10.00275,1.639822 10.00275,1.639822 0,0 2.40234,-17.708142 2.46139,-39.409752 0.0338,-12.43623 -0.16465,-24.978071 -0.16465,-24.978071 0,0 -6.89653,-0.362217 -111.54099,-0.362217 -97.652705,0 -112.4240331,0.240127 -112.4240331,0.240127 0,0 -0.5352931,4.987458 -0.1609831,25.479938 0.26431,14.4699 1.5027262,29.458847 1.7591357,31.836342 2.32461143,21.554387 7.778216,42.731677 11.380176,54.540677 l 2.0080695,6.58343 2.46154,-0.52011 c 8.13162,-1.71816 12.98117,-2.17835 22.73378,-2.15731 9.17903,0.0198 12.15638,0.34566 18.71283,2.04796 12.27238,3.18636 24.883969,9.0036 38.228869,19.46223 2.57301,2.01652 6.351393,4.71474 9.031616,6.51576 2.68023,1.80104 6.77346,4.44275 6.77346,4.44275 0,0 -22.070605,11.56077 -33.909405,15.20851 -10.609,3.26881 -29.535851,6.29736 -40.922491,6.40034 -0.75046,0.007 -1.831045,0.1 -1.831045,0.1 0,0 10.240876,18.47168 15.490566,26.30406 6.07546,9.06441 16.1594,22.3635 22.78764,30.05323 13.19265,15.30542 35.372255,36.47692 37.786165,36.06872 0.77148,-0.13046 5.48611,-3.9057 10.47697,-8.38944 z"
         style="fill:#2a3368;stroke-width:0.77970129" />
    </g>
  </g>
</svg>
