<?xml version="1.0" encoding="UTF-8" standalone="no"?>
<svg
   xmlns:dc="http://purl.org/dc/elements/1.1/"
   xmlns:cc="http://creativecommons.org/ns#"
   xmlns:rdf="http://www.w3.org/1999/02/22-rdf-syntax-ns#"
   xmlns:svg="http://www.w3.org/2000/svg"
   xmlns="http://www.w3.org/2000/svg"
   xmlns:sodipodi="http://sodipodi.sourceforge.net/DTD/sodipodi-0.dtd"
   xmlns:inkscape="http://www.inkscape.org/namespaces/inkscape"
   id="svg"
   version="1.1"
   width="398.42844"
   height="514.06653"
   viewBox="0 0 398.42844 514.06655"
   sodipodi:docname="tk3.svg"
   inkscape:version="0.92.4 (5da689c313, 2019-01-14)">
  <metadata
     id="metadata10">
    <rdf:RDF>
      <cc:Work
         rdf:about="">
        <dc:format>image/svg+xml</dc:format>
        <dc:type
           rdf:resource="http://purl.org/dc/dcmitype/StillImage" />
        <dc:title></dc:title>
      </cc:Work>
    </rdf:RDF>
  </metadata>
  <defs
     id="defs8" />
  <sodipodi:namedview
     pagecolor="#ffffff"
     bordercolor="#666666"
     borderopacity="1"
     objecttolerance="10"
     gridtolerance="10"
     guidetolerance="10"
     inkscape:pageopacity="0"
     inkscape:pageshadow="2"
     inkscape:window-width="1920"
     inkscape:window-height="1027"
     id="namedview6"
     showgrid="false"
     inkscape:zoom="1.39"
     inkscape:cx="134.74422"
     inkscape:cy="256.80881"
     inkscape:window-x="-8"
     inkscape:window-y="-8"
     inkscape:window-maximized="1"
     inkscape:current-layer="svg"
     fit-margin-top="0"
     fit-margin-left="0"
     fit-margin-right="0"
     fit-margin-bottom="0" />
  <g
     id="svgg"
     transform="translate(0.10017897,0.06652262)">
    <path
       style="display:inline;fill:#fbfbfb;fill-rule:evenodd;stroke:none"
       d="m 7.654,6.135 c -5.5475308,88.644388 1.9539141,178.41465 25.390281,264.20711 14.617001,4.92501 22.78468,-26.8406 36.954053,-33.24526 31.307916,-34.4696 64.592556,-69.96972 80.660136,-114.47162 7.08657,-31.468422 -23.29833,-62.302931 -54.772501,-58.03787 -30.491245,2.302366 -52.559615,40.92051 -33.632172,66.84882 17.170565,25.49633 64.144963,8.50964 56.390093,-22.14751 -4.39245,-14.372523 -23.947438,-15.576543 -15.70127,2.70872 -2.05333,17.75906 -29.654245,37.9156 -30.922905,8.20208 C 63.166854,94.35248 98.997694,71.15051 119.72891,88.226247 143.41157,106.01883 135.61373,147.67041 107.40025,156.40156 78.464059,168.23395 43.134912,147.41061 38.163512,116.77379 28.009206,75.609039 67.812208,34.819164 108.85234,38.459729 c 40.62319,0.620162 75.43891,39.026439 71.00979,79.694211 -3.25216,42.13784 -31.11619,76.51968 -43.23639,116.0964 -22.37572,62.62397 -33.9554,134.27654 -8.54661,197.79531 8.25027,23.41083 27.43795,39.46749 45.73077,54.94328 9.44409,9.49317 30.07691,27.69491 24.20083,2.00206 C 198.57675,328.02811 198.76056,167.06337 198.284,6.1 134.74444,5.2462812 71.193249,5.2588194 7.654,6.135 Z M 283.2,39.014 c -46.93905,3.172912 -79.6242,57.732873 -61.98076,100.99061 14.77863,45.30692 41.84352,86.01187 51.31832,133.20272 14.7081,57.35315 18.10387,121.82492 -11.39219,175.24901 7.176,0.44116 25.83262,-29.0465 36.53375,-38.95433 20.43215,-24.15117 14.26622,-57.41779 12.79128,-86.39023 -5.08353,-57.85943 -28.5417,-111.68906 -53.59065,-163.33636 -10.9493,-25.00888 -19.66863,-60.251998 3.65983,-81.126627 15.73742,-14.354727 40.95732,-18.609968 59.65275,-7.563934 -23.25265,10.322317 -11.20636,37.829461 -17.97334,54.981201 -10.18436,18.29913 -50.98969,-8.96538 -30.34652,17.20478 21.1478,25.9856 67.79124,19.59085 81.41116,-11.11595 C 371.65298,98.74339 351.75359,52.312911 314.83231,42.541719 304.71462,39.08308 293.83346,37.800607 283.2,39.014 Z"
       id="path0"
       inkscape:connector-curvature="0"
       sodipodi:nodetypes="cccccccccccccccccccccccccccccccccc" />
    <path
       style="display:inline;fill:#4c7bb2;fill-rule:evenodd;stroke:none"
       d="M 0.944,0.601 C 0.25287379,43.625462 -1.5851034,87.44164 2.29,130 c 0.6384792,15.78741 3.1411056,32.03748 4.913,48.806 1.6861544,10.85165 4.643792,27.39808 5.491,34.994 4.177178,16.75683 6.320687,33.84014 12.083,50.677 1.232167,8.93536 5.679798,19.48679 7.791,28.523 5.428767,15.94919 11.665412,32.41212 17.814,46.525 2.775276,5.20826 5.348876,11.70394 9.357625,18.41763 2.695585,6.61457 5.230098,9.73899 7.874375,14.85737 1.9266,2.84445 5.88707,9.92925 9.586,15.838 4.323318,5.74466 8.129049,12.54244 13.3,18.559 2.567033,4.93222 9.53625,12.52766 13.8,18.732 8.10481,9.30045 12.94667,15.13487 19.524,21.968 4.82341,6.449 6.15275,6.31107 11.47587,12.71975 10.70703,10.37198 21.22573,20.77592 32.09613,30.17725 2.22716,0.86656 10.08742,8.92047 13.804,11.132 4.63988,4.03477 10.67062,9.15073 16.152,12.074 9.76881,-1.89318 15.87801,-11.02324 23.448,-15.6 8.86107,-7.61962 20.43189,-17.02143 29.416,-26.5 11.05522,-10.30212 22.09596,-21.98973 32.505,-33.9 3.42692,-4.96194 8.99066,-10.28804 11.479,-14.005 3.03593,-3.86426 9.40308,-11.47609 13.67,-17.905 3.45982,-4.49172 6.42887,-8.86733 10.154,-14.49 1.90928,-2.58076 4.11861,-6.85981 7.309,-11.6 6.79624,-9.96794 11.83394,-21.24871 16.856,-30.418 2.84157,-7.83481 8.97941,-17.71224 11.461,-27.176 4.88112,-10.10281 7.3319,-20.17447 11.4265,-30.32875 1.3229,-5.0016 4.33766,-16.23687 6.8015,-23.41825 2.03995,-8.56443 3.01112,-12.13281 5.704,-22.198 2.84122,-16.60528 7.8539,-32.1633 9.072,-49.059 2.48971,-9.4844 2.72597,-16.44992 4.573,-27.052 0.44614,-5.87384 1.48027,-18.7905 2.873,-26.488 1.54414,-12.30042 1.30657,-25.97233 2.91,-36.995 C 397.42,81.781535 399.00492,55.398262 398,31.224 397.11851,21.153354 396.9669,9.9615559 396.491,0 264.645,0.25090225 132.76533,-0.61277354 0.944,0.601 Z M 198.284,6.1 c 0.46195,166.63061 0.33733,333.27034 -0.379,499.9 -21.30502,-15.65049 -41.98156,-33.01519 -59.19411,-53.16658 -35.23062,-58.4075 -28.04039,-130.75204 -10.45994,-193.71769 11.43777,-43.36031 36.41656,-81.51497 49.5215,-124.17807 C 187.8821,99.154916 169.40236,57.220309 133.79834,44.202 96.952337,28.205153 46.406829,48.261874 38.464636,89.611436 29.188738,122.55214 55.261411,161.84794 90.910015,159.73834 120.58383,160.55484 145.43141,125.57408 129.12679,98.909639 119.13574,78.609903 88.325017,76.474093 76.939125,96.582375 61.064803,105.018 78.025561,156.15831 92.48725,129.118 c 13.93231,-8.54253 5.807724,-24.11289 12.19262,-32.941277 22.43223,5.448297 15.04641,42.173127 -5.521229,46.540137 C 71.968129,152.60233 46.28301,120.59664 57.699564,95.222404 67.582161,61.508628 115.10238,55.208275 137.64867,79.641125 156.78255,97.477044 153.74848,127.2385 140.16937,147.37256 112.46502,195.78473 71.116615,233.80164 35.433719,275.97983 18.068922,222.2337 10.996615,165.124 7.3577864,108.75161 5.7394821,74.59968 4.5953676,40.215415 7.654,6.135 71.179032,5.2588493 134.75878,5.2463069 198.284,6.1 Z m 98.747,32.717 c 39.64451,1.613705 74.11481,43.284575 60.71233,82.41149 -7.68197,32.66557 -50.46125,50.24693 -77.76237,29.77048 -10.58557,-4.21267 -23.77866,-34.90344 -3.78678,-18.14489 26.04633,8.90711 35.30284,-22.45541 27.7685,-41.598934 -1.11886,-13.325369 30.89292,-19.823489 5.75999,-24.560265 -31.05823,-9.705411 -67.55752,16.388305 -64.06478,49.900959 3.41177,40.33206 28.72049,74.18926 41.65428,111.67836 18.38377,47.44502 27.70027,99.13392 24.22825,150.00264 -2.90623,27.07556 -27.97287,44.85029 -43.21953,65.61473 -9.08151,11.4274 -10.95555,9.33123 -3.4359,-2.7017 29.79078,-60.70085 19.35022,-131.58545 0.54707,-193.89056 -12.45309,-40.24102 -36.42864,-76.05312 -46.9743,-116.85855 -6.97628,-32.240939 7.66364,-68.110334 37.81334,-83.075586 12.38146,-6.688108 26.71302,-9.903762 40.7599,-8.548174 z"
       id="path1"
       inkscape:connector-curvature="0" />
  </g>
</svg>
