<svg xmlns="http://www.w3.org/2000/svg" viewBox="0 0 136 46"><g id="Design" stroke="none" stroke-width="1" fill-rule="evenodd"><g id="Menu---Desktop" transform="translate(-150.000000, -39.000000)" fill-rule="nonzero"><g id="logo_neg-copy" transform="translate(150.000000, 39.000000)"><polygon id="Path" points="4.16029412 8.52352941 14.2397059 18.5691176 0 18.5691176 0 24.725 14.2397059 24.725 4.16029412 34.7705882 8.52352941 39.1338235 18.5691176 29.0544118 18.5691176 43.2941176 24.725 43.2941176 24.725 29.0544118 34.7705882 39.1338235 39.1338235 34.7705882 8.52352941 4.16029412"/><polygon id="Rectangle" transform="translate(34.760008, 8.579832) rotate(-45.000000) translate(-34.760008, -8.579832) " points="31.6820966 5.5019204 37.8379199 5.5019204 37.8379199 11.6577437 31.6820966 11.6577437"/><rect id="Rectangle" x="18.5691176" y="0" width="6.15588235" height="6.15588235"/><rect id="Rectangle" x="37.0705882" y="18.5691176" width="6.15588235" height="6.15588235"/><path d="M59.4279412,1.55588235 L63.0808824,1.55588235 L69.1691176,18.0617647 L65.8882353,18.0617647 L64.4676471,14.1720588 L57.9058824,14.1720588 L56.4852941,18.0617647 L53.3058824,18.0617647 L59.4279412,1.55588235 Z M63.6220588,11.6352941 L61.1867647,4.83676471 L58.7514706,11.6352941 L63.6220588,11.6352941 Z" id="Shape"/><path d="M72.8897059,5.98676471 L73.4308824,8.86176471 L72.7205882,8.18529412 C73.1264706,7.50882353 73.7014706,6.93382353 74.3779412,6.49411765 C76.3735294,5.44558824 78.775,5.71617647 80.5,7.17058824 C81.4132353,8.05 81.8529412,9.47058824 81.8529412,11.4661765 L81.8529412,18.0617647 L78.9441176,18.0617647 L78.9441176,11.6014706 C78.9441176,10.4852941 78.7073529,9.67352941 78.2676471,9.09852941 C77.7602941,8.52352941 77.0161765,8.18529412 76.2382353,8.25294118 C75.6632353,8.25294118 75.0882353,8.38823529 74.6147059,8.69264706 C74.1411765,8.99705882 73.8029412,9.43676471 73.5661765,9.94411765 C73.3294118,10.5867647 73.1941176,11.2632353 73.2279412,11.9397059 L73.2279412,18.0617647 L70.3529412,18.0617647 L70.3529412,5.98676471 L72.8897059,5.98676471 Z" id="Path"/><path d="M95.8558824,1.55588235 L95.8558824,18.0617647 L93.3529412,18.0617647 L92.7779412,14.9838235 L93.4882353,15.6264706 C93.0823529,16.3705882 92.5073529,17.0132353 91.7970588,17.4867647 C91.0191176,17.9941176 90.1058824,18.2308824 89.1926471,18.1970588 C88.1779412,18.2308824 87.1632353,17.9602941 86.25,17.4529412 C85.4044118,16.9455882 84.6941176,16.2014706 84.2205882,15.3220588 C83.7132353,14.3073529 83.4764706,13.1573529 83.4764706,12.0073529 C83.4426471,10.8911765 83.7132353,9.775 84.2205882,8.79411765 C84.6602941,7.88088235 85.3705882,7.13676471 86.25,6.62941176 C87.1294118,6.12205882 88.1441176,5.85147059 89.1588235,5.85147059 C90.0720588,5.81764706 90.9852941,6.05441176 91.7970588,6.52794118 C92.5073529,6.93382353 93.0485294,7.57647059 93.4205882,8.28676471 L92.9808824,8.96323529 L92.9808824,1.55588235 L95.8558824,1.55588235 Z M88.0088235,8.69264706 C87.5014706,9.03088235 87.0955882,9.50441176 86.8588235,10.0455882 C86.5882353,10.6544118 86.4529412,11.3308824 86.4529412,12.0073529 C86.4529412,12.6838235 86.5882353,13.3602941 86.8588235,14.0029412 C87.0955882,14.5441176 87.5014706,15.0176471 88.0088235,15.3558824 C88.5161765,15.6941176 89.125,15.8632353 89.7338235,15.8294118 C90.9852941,15.8632353 92.1014706,15.1529412 92.6088235,14.0367647 C92.8794118,13.4279412 93.0485294,12.7176471 93.0147059,12.0411765 C93.0147059,11.3647059 92.8794118,10.6882353 92.6088235,10.0455882 C92.3720588,9.50441176 91.9661765,9.03088235 91.4588235,8.69264706 C90.4102941,8.05 89.0911765,8.05 88.0088235,8.69264706 L88.0088235,8.69264706 Z" id="Shape"/><path d="M98.4941176,8.79411765 C99.0014706,7.88088235 99.7455882,7.13676471 100.658824,6.62941176 C101.673529,6.08823529 102.789706,5.85147059 103.905882,5.85147059 C105.055882,5.81764706 106.172059,6.08823529 107.186765,6.62941176 C108.133824,7.13676471 108.877941,7.88088235 109.385294,8.79411765 C109.926471,9.775 110.197059,10.8911765 110.163235,12.0411765 C110.197059,13.1573529 109.926471,14.2735294 109.385294,15.2544118 C108.877941,16.1676471 108.1,16.9117647 107.186765,17.4191176 C106.172059,17.9602941 105.055882,18.2308824 103.905882,18.1970588 C102.755882,18.2308824 101.639706,17.9602941 100.658824,17.4191176 C99.7455882,16.9117647 99.0014706,16.1676471 98.4941176,15.2544118 C97.9529412,14.2735294 97.6823529,13.1573529 97.7161765,12.0411765 C97.6823529,10.8911765 97.9529412,9.775 98.4941176,8.79411765 Z M110.197059,7.17058824 L99.1029412,18.1970588 L97.7161765,16.8441176 L108.810294,5.85147059 L110.197059,7.17058824 Z M106.95,10.0117647 C106.713235,9.43676471 106.273529,8.96323529 105.766176,8.65882353 C105.225,8.32058824 104.582353,8.15147059 103.939706,8.18529412 C102.654412,8.15147059 101.504412,8.89558824 100.997059,10.0455882 C100.726471,10.6882353 100.557353,11.3647059 100.591176,12.0411765 C100.591176,12.7176471 100.726471,13.4279412 100.997059,14.0367647 C101.233824,14.5779412 101.639706,15.0514706 102.180882,15.3897059 C102.722059,15.7279412 103.330882,15.8970588 103.973529,15.8632353 C104.616176,15.8632353 105.225,15.6941176 105.766176,15.3897059 C106.307353,15.0514706 106.713235,14.6117647 106.983824,14.0367647 C107.254412,13.3941176 107.423529,12.7176471 107.389706,12.0411765 C107.355882,11.3308824 107.220588,10.6544118 106.95,10.0117647 L106.95,10.0117647 Z" id="Shape"/><path d="M113.444118,5.98676471 L116.623529,15.0514706 L119.769118,5.98676471 L122.847059,5.98676471 L117.435294,19.8544118 C117.232353,20.4294118 116.961765,21.0044118 116.657353,21.5455882 C116.420588,21.9176471 116.116176,22.2220588 115.710294,22.425 C115.270588,22.6279412 114.763235,22.7632353 114.289706,22.7294118 L111.380882,22.7294118 L111.380882,20.2941176 L113.173529,20.2941176 C113.444118,20.2941176 113.680882,20.2602941 113.917647,20.1926471 C114.086765,20.125 114.255882,20.0235294 114.357353,19.8544118 C114.492647,19.6514706 114.627941,19.3808824 114.729412,19.1441176 L115.135294,18.1294118 L110.433824,5.98676471 L113.444118,5.98676471 Z" id="Path"/><path d="M131.302941,6.52794118 C132.013235,7.00147059 132.588235,7.64411765 132.926471,8.42205882 L132.25,8.99705882 L132.791176,5.98676471 L135.327941,5.98676471 L135.327941,18.0617647 L132.791176,18.0617647 L132.283824,14.95 L132.960294,15.5926471 C132.554412,16.3367647 131.979412,17.0132353 131.269118,17.4867647 C130.491176,17.9941176 129.577941,18.2308824 128.664706,18.2308824 C127.65,18.2647059 126.635294,17.9941176 125.722059,17.4867647 C124.876471,16.9794118 124.166176,16.2352941 123.692647,15.3558824 C123.185294,14.3411765 122.948529,13.1911765 122.948529,12.0411765 C122.914706,10.925 123.185294,9.80882353 123.692647,8.82794118 C124.132353,7.91470588 124.842647,7.17058824 125.722059,6.66323529 C126.601471,6.15588235 127.616176,5.88529412 128.630882,5.88529412 C129.577941,5.78382353 130.525,6.05441176 131.302941,6.52794118 Z M127.514706,8.72647059 C127.007353,9.06470588 126.601471,9.50441176 126.364706,10.0794118 C126.094118,10.6882353 125.925,11.3647059 125.958824,12.0411765 C125.958824,12.7176471 126.094118,13.3941176 126.364706,14.0029412 C126.601471,14.5441176 127.007353,15.0176471 127.514706,15.3558824 C128.022059,15.6941176 128.630882,15.8632353 129.239706,15.8294118 C130.491176,15.8632353 131.607353,15.1529412 132.114706,14.0367647 C132.385294,13.4279412 132.554412,12.7514706 132.520588,12.075 C132.520588,11.3985294 132.385294,10.7220588 132.114706,10.0794118 C131.877941,9.53823529 131.472059,9.06470588 130.964706,8.72647059 C129.882353,8.08382353 128.563235,8.08382353 127.514706,8.72647059 Z" id="Shape"/><path d="M57.2632353,40.5882353 C56.3161765,40.1485294 55.5044118,39.4720588 54.8955882,38.6264706 C54.3205882,37.7808824 54.0161765,36.7661765 54.0161765,35.7514706 L56.9926471,35.7852941 C57.0264706,36.6308824 57.4323529,37.4426471 58.075,37.9838235 C58.8191176,38.5588235 59.7661765,38.8632353 60.7132353,38.7955882 C61.525,38.8294118 62.3029412,38.6264706 62.9794118,38.1867647 C63.5544118,37.8147059 63.8588235,37.1720588 63.825,36.4955882 C63.8588235,36.0558824 63.6897059,35.6161765 63.3514706,35.3117647 C62.9794118,34.9735294 62.5058824,34.7367647 62.0323529,34.6352941 C61.2205882,34.4323529 60.4088235,34.2294118 59.5970588,34.0941176 L59.4955882,34.0602941 C58.5823529,33.925 57.6691176,33.6544118 56.8235294,33.2823529 C56.1132353,32.9779412 55.5044118,32.4705882 55.0308824,31.8617647 C54.5235294,31.1176471 54.2867647,30.2720588 54.3205882,29.3926471 C54.3205882,28.4794118 54.5573529,27.6 55.0985294,26.8220588 C55.6397059,26.0441176 56.3838235,25.4352941 57.2294118,25.0632353 C58.2102941,24.6235294 59.225,24.4205882 60.3073529,24.4544118 C61.4235294,24.4205882 62.5397059,24.6573529 63.5205882,25.1308824 C64.4,25.5367647 65.1779412,26.1794118 65.7191176,26.9573529 C66.2602941,27.7352941 66.5647059,28.6485294 66.5985294,29.5955882 L63.6220588,29.5955882 C63.5205882,28.8514706 63.1485294,28.175 62.5735294,27.7014706 C61.9308824,27.1941176 61.1191176,26.9235294 60.2735294,26.9573529 C59.5294118,26.9235294 58.7852941,27.1264706 58.1764706,27.5323529 C57.6691176,27.9044118 57.3647059,28.5132353 57.3985294,29.1558824 C57.3647059,29.5955882 57.5338235,30.0352941 57.8720588,30.3058824 C58.2441176,30.6102941 58.6838235,30.8470588 59.1573529,30.9485294 C59.9352941,31.1514706 60.7470588,31.3205882 61.5588235,31.4558824 L61.5926471,31.4558824 C62.5397059,31.625 63.4867647,31.8955882 64.3661765,32.2338235 C65.1102941,32.5382353 65.7529412,33.0117647 66.2264706,33.6544118 C66.7338235,34.3647059 66.9705882,35.2441176 66.9367647,36.1235294 C66.9367647,37.0705882 66.6661765,37.9838235 66.125,38.7617647 C65.55,39.5397059 64.7720588,40.1823529 63.8926471,40.5544118 C62.8779412,40.9941176 61.7617647,41.2308824 60.6794118,41.1970588 C59.4955882,41.3323529 58.3455882,41.0955882 57.2632353,40.5882353 Z" id="Path"/><path d="M78.4367647,29.6970588 C79.3161765,30.2044118 80.0264706,30.9485294 80.4661765,31.8279412 C80.9735294,32.8426471 81.2441176,33.9926471 81.2102941,35.1426471 C81.2441176,36.2588235 80.9735294,37.375 80.4661765,38.3897059 C79.9926471,39.3029412 79.3161765,40.0470588 78.4367647,40.5544118 C77.5573529,41.0617647 76.5426471,41.3323529 75.5279412,41.3323529 C74.6147059,41.3661765 73.7014706,41.1294118 72.8897059,40.6558824 C72.1794118,40.2161765 71.6382353,39.6073529 71.2661765,38.8632353 L71.7058824,38.1867647 L71.7058824,45.8985294 L68.8308824,45.8985294 L68.8308824,29.0882353 L71.3338235,29.0882353 L71.875,32.1661765 L71.1985294,31.5235294 C71.6044118,30.7794118 72.1794118,30.1367647 72.8558824,29.6632353 C73.6338235,29.1558824 74.5470588,28.9191176 75.4602941,28.9529412 C76.5426471,28.9529412 77.5573529,29.1897059 78.4367647,29.6970588 Z M73.2279412,31.7941176 C72.7205882,32.1323529 72.3485294,32.5720588 72.0779412,33.1132353 C71.8073529,33.7220588 71.6720588,34.3985294 71.6720588,35.075 C71.6720588,35.7514706 71.8073529,36.4617647 72.0779412,37.0705882 C72.8558824,38.6602941 74.75,39.3705882 76.3735294,38.5926471 C76.475,38.525 76.5764706,38.4911765 76.6779412,38.4235294 C77.1852941,38.0852941 77.5911765,37.6117647 77.8279412,37.0705882 C78.0985294,36.4617647 78.2676471,35.7852941 78.2338235,35.075 C78.2338235,34.3985294 78.0985294,33.7220588 77.8279412,33.1132353 C77.5911765,32.5720588 77.1852941,32.0985294 76.6779412,31.7602941 C75.6294118,31.1514706 74.3102941,31.1514706 73.2279412,31.7941176 Z" id="Shape"/><path d="M90.8838235,29.6294118 C91.5941176,30.1029412 92.1691176,30.7455882 92.5073529,31.5235294 L91.8308824,32.0985294 L92.3720588,29.0882353 L94.9088235,29.0882353 L94.9088235,41.1632353 L92.3720588,41.1632353 L91.8647059,38.0514706 L92.5411765,38.6941176 C92.1352941,39.4382353 91.5602941,40.1147059 90.85,40.5882353 C90.0720588,41.0955882 89.1588235,41.3323529 88.2455882,41.3323529 C87.2308824,41.3661765 86.2161765,41.0955882 85.3029412,40.5882353 C84.4573529,40.0808824 83.7470588,39.3367647 83.2735294,38.4573529 C82.7661765,37.4426471 82.5294118,36.2926471 82.5294118,35.1426471 C82.4955882,34.0264706 82.7661765,32.9102941 83.2735294,31.9294118 C83.7132353,31.0161765 84.4235294,30.2720588 85.3029412,29.7647059 C86.1823529,29.2573529 87.1970588,28.9867647 88.2117647,28.9867647 C89.1588235,28.8852941 90.1058824,29.1558824 90.8838235,29.6294118 Z M87.0955882,31.8279412 C86.5882353,32.1661765 86.1823529,32.6058824 85.9455882,33.1808824 C85.4044118,34.4323529 85.4044118,35.8529412 85.9455882,37.1044118 C86.1823529,37.6455882 86.5882353,38.1191176 87.0955882,38.4573529 C87.6029412,38.7955882 88.2117647,38.9647059 88.8205882,38.9308824 C90.0720588,38.9647059 91.1882353,38.2544118 91.6955882,37.1382353 C91.9661765,36.5294118 92.1352941,35.8529412 92.1014706,35.1764706 C92.1014706,34.5 91.9661765,33.8235294 91.6955882,33.1808824 C91.4588235,32.6397059 91.0529412,32.1661765 90.5455882,31.8279412 C89.4632353,31.1852941 88.1441176,31.1852941 87.0955882,31.8279412 Z" id="Shape"/><path d="M106.713235,40.0808824 C105.732353,40.8926471 104.447059,41.2985294 102.857353,41.2985294 C101.741176,41.3323529 100.625,41.0617647 99.6441176,40.5205882 C98.7308824,40.0132353 97.9867647,39.2691176 97.5132353,38.3558824 C97.0058824,37.3411765 96.7352941,36.225 96.7691176,35.1088235 C96.7352941,33.9926471 97.0058824,32.8764706 97.5470588,31.8617647 C98.0205882,30.9485294 98.7647059,30.2044118 99.6779412,29.6970588 C100.692647,29.1897059 101.775,28.9191176 102.925,28.9529412 C104.277941,28.8852941 105.630882,29.325 106.747059,30.1367647 C107.761765,30.9485294 108.438235,32.1323529 108.607353,33.4514706 L105.630882,33.4514706 C105.495588,32.8426471 105.157353,32.3014706 104.65,31.8955882 C104.142647,31.5235294 103.533824,31.3205882 102.891176,31.3205882 C102.316176,31.3205882 101.741176,31.4897059 101.233824,31.7941176 C100.726471,32.1323529 100.354412,32.5720588 100.117647,33.1132353 C99.5764706,34.3647059 99.5764706,35.7852941 100.117647,37.0367647 C100.354412,37.5779412 100.760294,38.0514706 101.233824,38.3897059 C102.316176,39.0661765 103.669118,39.0323529 104.717647,38.2882353 C105.225,37.8823529 105.563235,37.3411765 105.664706,36.6985294 L108.607353,36.6985294 C108.370588,38.0514706 107.727941,39.2352941 106.713235,40.0808824 Z" id="Path"/><path d="M112.733824,40.5544118 C111.786765,40.0808824 111.008824,39.3367647 110.535294,38.3897059 C109.994118,37.4088235 109.723529,36.2926471 109.757353,35.1426471 C109.723529,33.9926471 109.994118,32.8764706 110.501471,31.8617647 C110.975,30.9485294 111.719118,30.2044118 112.598529,29.6970588 C113.545588,29.1897059 114.627941,28.9191176 115.710294,28.9191176 C116.792647,28.8852941 117.875,29.1220588 118.855882,29.6294118 C119.735294,30.0691176 120.479412,30.7794118 120.986765,31.6588235 C121.527941,32.6058824 121.798529,33.6544118 121.798529,34.7367647 C121.798529,34.9058824 121.798529,35.075 121.764706,35.2441176 C121.730882,35.4132353 121.730882,35.6161765 121.697059,35.7852941 L112.733824,35.7852941 L112.733824,35.8867647 C112.767647,36.4617647 112.936765,37.0367647 113.207353,37.5441176 C113.444118,38.0176471 113.816176,38.3897059 114.289706,38.6264706 C115.405882,39.1676471 116.691176,39.1338235 117.773529,38.525 C118.280882,38.1867647 118.619118,37.6794118 118.788235,37.0705882 L121.629412,37.0705882 C121.494118,37.8485294 121.155882,38.5926471 120.682353,39.2352941 C120.175,39.8779412 119.532353,40.3852941 118.788235,40.7573529 C117.942647,41.1294118 117.063235,41.3323529 116.15,41.2985294 C114.932353,41.3323529 113.782353,41.0617647 112.733824,40.5544118 Z M114.391176,31.4897059 C113.951471,31.6926471 113.579412,31.9970588 113.342647,32.4029412 C113.072059,32.8088235 112.869118,33.2823529 112.801471,33.7897059 L118.889706,33.7897059 C118.822059,33.0455882 118.483824,32.3691176 117.908824,31.8617647 C117.3,31.3882353 116.555882,31.1514706 115.811765,31.1852941 C115.338235,31.1514706 114.830882,31.2529412 114.391176,31.4897059 Z" id="Shape"/></g></g></g></svg>