<?xml version="1.0" encoding="UTF-8" standalone="no"?>
<svg
   xmlns:dc="http://purl.org/dc/elements/1.1/"
   xmlns:cc="http://creativecommons.org/ns#"
   xmlns:rdf="http://www.w3.org/1999/02/22-rdf-syntax-ns#"
   xmlns:svg="http://www.w3.org/2000/svg"
   xmlns="http://www.w3.org/2000/svg"
   viewBox="0 0 188.97333 188.97333"
   height="188.97333"
   width="188.97333"
   xml:space="preserve"
   id="svg2"
   version="1.1"><metadata
     id="metadata8"><rdf:RDF><cc:Work
         rdf:about=""><dc:format>image/svg+xml</dc:format><dc:type
           rdf:resource="http://purl.org/dc/dcmitype/StillImage" /></cc:Work></rdf:RDF></metadata><defs
     id="defs6" /><g
     transform="matrix(1.3333333,0,0,-1.3333333,0,188.97333)"
     id="g10"><g
       transform="scale(0.1)"
       id="g12"><path
         id="path14"
         style="fill:#ed1c24;fill-opacity:1;fill-rule:nonzero;stroke:none"
         d="M 708.613,1410.78 C 320.906,1410.78 6.55859,1096.37 6.55859,708.633 6.55859,320.898 320.906,6.53906 708.613,6.53906 c 387.807,0 702.157,314.35894 702.157,702.09394 0,387.737 -314.35,702.147 -702.157,702.147" /><path
         id="path16"
         style="fill:#ffffff;fill-opacity:1;fill-rule:nonzero;stroke:none"
         d="m 41.1445,708.633 c 0,-184.336 74.7145,-351.172 195.5155,-471.973 v 0 C 357.465,115.84 524.297,41.1289 708.617,41.1289 v 0 C 892.973,41.1484 1059.83,115.84 1180.65,236.66 v 0 c 120.81,120.801 195.51,287.637 195.51,471.973 v 0 c 0,184.316 -74.7,351.187 -195.51,472.007 v 0 c -120.82,120.81 -287.681,195.55 -472.033,195.55 v 0 c -207.347,0 -392.597,-94.58 -515.043,-242.96 v 0 H 193.57 C 98.3477,1017.81 41.1445,869.922 41.1445,708.633 Z m -10.0664,0 C 31.0703,872.32 89.1445,1022.52 185.801,1139.64 v 0 c 124.258,150.61 312.359,246.61 522.816,246.61 v 0 c 374.263,0 677.623,-303.43 677.623,-677.617 v 0 c 0,-374.184 -303.36,-677.5744 -677.623,-677.5744 v 0 C 334.441,31.0586 31.0781,334.449 31.0781,708.633 v 0" /><path
         id="path18"
         style="fill:#ffffff;fill-opacity:1;fill-rule:nonzero;stroke:none"
         d="m 179.949,433.77 c 0.114,8.847 7.364,15.937 16.223,15.82 8.851,-0.098 15.957,-7.344 15.848,-16.211 -0.102,-8.867 -7.368,-15.957 -16.219,-15.859 -8.86,0.117 -15.942,7.382 -15.852,16.25" /><path
         id="path20"
         style="fill:#ffffff;fill-opacity:1;fill-rule:nonzero;stroke:none"
         d="m 1199.76,424.199 c 0.1,8.848 7.36,15.938 16.22,15.821 8.85,-0.098 15.95,-7.344 15.84,-16.211 -0.1,-8.848 -7.37,-15.957 -16.21,-15.84 -8.86,0.121 -15.96,7.359 -15.85,16.23" /><path
         id="path22"
         style="fill:#ffffff;fill-opacity:1;fill-rule:nonzero;stroke:none"
         d="M 1162.84,516.738 C 1138,458.223 1102.61,405.66 1057.44,360.469 1012.29,315.371 959.742,279.898 901.195,255.121 878.152,245.352 854.586,237.461 830.566,231.41 l -0.562,9.781 c 0,5.899 -6.676,8.848 -10.324,8.848 l -21.145,-0.328 c 0,0 -6.504,1.578 -7.289,1.828 -0.793,0.242 -0.598,1.082 -0.465,1.231 1.485,1.8 1.567,4.402 0.117,6.289 l -16.125,21.043 0.52,14.957 c 47.41,1.152 82.32,19.16 98.609,31.031 16.008,11.859 17.039,29.969 17.071,35.34 0,0.781 -0.028,1.308 -0.032,1.539 l -0.488,42.011 c 0.152,0.079 0.309,0.098 0.461,0.18 l -0.008,0.02 44.934,25.211 c 1.726,0.976 2.719,2.851 2.558,4.843 l -29.503,328.711 c 1.285,0.43 5.464,1.875 10.171,3.633 5.739,2.207 11.793,4.551 15.375,6.895 3.231,2.265 16.758,13.652 20.028,17.031 2.851,3.047 3.926,6.934 3.894,10.41 -0.047,5.41 -2.133,10.215 -4.238,14.024 -1.859,3.203 -4.406,5.839 -7.176,8.105 6.196,13.789 9.336,29.102 9.324,44.898 0.012,27.575 -6.585,49.27 -12.945,69.793 -6.379,20.563 -12.492,39.942 -12.492,63.816 0,44.3 0.465,70.61 0.465,70.66 0.015,1.35 -0.5,2.65 -1.446,3.62 -0.937,0.97 -2.238,1.51 -3.593,1.51 -14.875,0.05 -24.114,-4.87 -29.176,-10.35 -2.379,-2.56 -3.828,-5.1 -4.715,-7.17 h -90.902 c -0.895,2.28 -2.371,5.21 -4.828,8.2 -4.911,6.08 -14.141,11.92 -28.555,11.85 -1.344,0 -2.625,-0.53 -3.574,-1.49 -0.953,-0.95 -1.477,-2.25 -1.469,-3.6 0,-0.08 0.281,-33.42 0.273,-80.163 0.024,-3.683 -0.156,-7.316 -0.464,-10.914 -1.856,2.938 -3.868,5.867 -5.997,8.66 -5.625,7.217 -11.535,13.567 -18.832,15.957 -6.582,2.01 -16.335,5.05 -27.765,8.53 -4.188,1.33 -5.922,3.25 -7.11,5.36 -0.683,1.25 -1.07,2.65 -1.277,3.95 l 5.57,-0.11 h 0.274 c 5.027,0.17 9.305,0.84 12.965,2.34 3.601,1.45 6.91,4.16 8.125,8.19 0.629,2.05 0.828,4.03 0.828,5.78 -0.004,1.98 -0.246,3.7 -0.5,4.96 l 2.383,4.2 c 0.785,1.37 0.871,2.99 0.297,4.39 1.093,1.01 1.679,2.5 1.585,4.02 l -0.351,5.17 c 0.246,0.04 0.492,0.09 0.754,0.13 1.531,0.29 3.129,0.65 4.777,1.4 0.824,0.39 1.727,0.87 2.656,1.8 0.918,0.88 1.918,2.56 1.907,4.51 -0.02,1.37 -0.305,4.59 -0.735,9.65 -1.082,12.41 -3.07,33.45 -3.679,39.99 2.054,2.77 5.593,8.44 5.75,15.83 0.019,4.76 -1.372,10.36 -5.711,14.75 -4.231,4.28 -10.797,6.78 -19.606,6.89 -3.902,1.03 -24.234,6.43 -30.121,7.31 -4.371,0.62 -10.226,1.64 -17.129,1.64 -11.754,0.04 -26.629,-3.13 -42.765,-15.62 -20.86,-16.43 -22.567,-45.86 -22.707,-58.95 0,-2.52 0.085,-4.48 0.156,-5.63 -0.699,-2.09 -1.754,-6.43 -1.754,-13.34 0,-3.8 0.316,-8.35 1.176,-13.75 2.035,-13.08 10.117,-20.96 17.25,-25.03 3.621,-2.08 7.039,-3.33 9.578,-4.07 v -9.58 c -3.953,-1.99 -29.098,-13.04 -53.266,-29.69 -0.496,-0.469 -2.492,-1.602 -4.363,-3.723 -0.055,-0.047 -0.113,-0.074 -0.156,-0.117 L 303.406,715.82 c -0.957,-0.957 -1.488,-2.304 -1.453,-3.672 0.039,-1.367 0.637,-2.675 1.645,-3.593 0.05,-0.039 18.722,-17.032 39.445,-35.996 5.164,-4.727 10.453,-9.551 15.613,-14.297 l -49.793,-68.301 c -4.199,-5.352 -6.89,-13.086 -6.871,-23.398 0.063,-20.84 10.379,-52.5 42.016,-101.778 36.094,-56.094 63.742,-81.976 73.93,-90.465 l -13.149,-15.101 c -0.437,-0.469 -4.652,-4.938 -8.996,-10.68 -2.277,-2.988 -4.594,-6.328 -6.406,-9.711 -0.442,-0.84 -0.856,-1.656 -1.242,-2.5 -8.903,7.711 -17.571,15.762 -25.981,24.16 -45.125,45.172 -80.543,97.735 -105.269,156.25 -25.7,60.528 -38.696,124.942 -38.696,191.407 0,66.308 12.996,130.664 38.696,191.242 24.726,58.644 60.144,111.173 105.269,156.353 45.231,45.1 97.719,80.56 156.293,105.35 60.645,25.59 124.949,38.54 191.41,38.54 66.34,0 130.703,-12.95 191.328,-38.54 58.547,-24.79 111.095,-60.25 156.245,-105.35 45.19,-45.18 80.56,-97.709 105.41,-156.334 25.57,-60.597 38.55,-124.953 38.55,-191.261 0,-66.465 -12.98,-130.879 -38.56,-191.407 z M 707.68,216.539 c 28.804,4.961 54.25,14.402 72.863,27.82 l 15.828,-4.55 c 0.567,-0.161 1.18,-0.239 1.777,-0.219 0,0 14.727,0.801 15.95,0.898 4.195,0.25 6.074,-2.226 6.113,-3.109 0.023,-0.879 0.121,-1.969 0.121,-1.969 0,0 0.18,-2.621 -1.539,-4.32 -1.57,-1.559 -12.934,-4.699 -17.074,-6.012 -30.063,-5.68 -60.739,-8.578 -91.852,-8.578 -0.726,0 -1.461,0.039 -2.187,0.039 z M 418.145,350.27 c 1.812,-0.032 3.835,-0.051 6.101,-0.071 40.008,0.02 146.567,9.199 224.211,100.719 63.91,75.859 79.938,220.645 82.438,245.977 l 20.019,1.425 c -0.715,-10.371 -2.484,-34.922 -5.601,-68.125 -4.168,-44.531 -10.723,-104.433 -20.235,-166.054 -9.527,-61.621 -20.984,-122.672 -30.066,-168.34 -6.719,-33.77 -12.121,-59.02 -14.481,-69.922 -0.218,-0.981 -1.449,-2.789 -3.801,-2.789 -5.539,0 -11.132,-0.512 -16.789,-0.488 -18.394,-0.024 -37.359,1.718 -56.093,5.328 -9.805,2.172 -19.547,4.59 -29.207,7.359 -69.453,21.902 -109.762,52.84 -132.754,77.871 -11.528,12.578 -18.699,23.738 -22.969,31.699 -0.695,1.289 -1.301,2.461 -1.844,3.563 -0.586,1.187 0.071,1.887 1.071,1.848 z m 2.421,11.718 c 1.27,1.453 137.09,157.387 137.09,157.387 0.496,0.566 0.856,1.25 1.055,1.973 0,0 40.18,148.3 40.461,149.336 0.277,1.054 1.324,1.328 1.324,1.328 0,0 71.238,19.492 73.977,20.293 2.754,0.781 6.699,1.113 6.699,1.113 l 39.551,2.773 c -0.469,-4.609 -1.285,-12.031 -2.586,-21.562 -6.735,-50.117 -27.242,-158.281 -77.371,-217.188 -74.614,-88.16 -177.856,-97.191 -216.52,-97.171 -0.855,0 -1.672,0 -2.469,0.019 -1.468,0 -2.48,0.242 -1.211,1.699 z m 398.872,664.882 v -39.347 c -3.383,-1.878 -5.985,-3.515 -7.407,-4.367 -4.551,-2.898 -10.691,-8.39 -11.863,-9.422 l -0.031,-0.027 c 1.765,13.434 3.031,30.363 3.199,53.163 z m 22.886,0 v -30.077 c -4.402,-0.949 -8.785,-2.48 -12.812,-4.238 v 34.315 z m 22.125,0 v -30.968 c -3.633,1.356 -7.691,1.809 -12.047,1.864 v 29.104 z m 19.227,-64.827 c -0.571,1.797 -1.703,4.48 -5.16,5.648 -0.895,0.258 -1.844,0.497 -2.75,0.7 -0.024,3.172 -0.059,7.601 -0.059,11.054 0.059,2.422 -0.371,4.746 -1.18,6.86 v 40.565 h 15.817 c 0.261,-41.569 3.89,-66.233 7.511,-84.12 3.809,-18.648 7.348,-29.371 7.336,-44.273 0.008,-16.02 -6.171,-31.297 -16.32,-42.45 -4.18,-4.601 -9.012,-8.468 -14.344,-11.476 v 98.023 c 0.36,0.043 0.739,0.094 1.055,0.121 0.488,0.035 0.922,0.094 1.242,0.121 0.317,0.032 0.434,0.016 0.434,0.032 1.879,0 3.211,0.918 3.879,1.562 2.144,2.387 2.105,3.785 2.672,5.746 0.386,1.875 0.609,3.985 0.621,6.11 -0.012,1.929 -0.16,3.82 -0.754,5.777 z M 852.402,837.949 v 101.192 c 4.641,1.136 8.676,2.168 10.18,2.539 h 1.867 V 840.195 c -3.847,-1.211 -7.871,-1.972 -12.047,-2.246 z m -22.89,2.559 v 94.367 c 0.898,0.051 1.765,0.082 2.457,0.082 2.074,0.043 4.179,0.523 7.371,1.152 0.941,0.204 1.937,0.43 2.984,0.664 v -98.628 c -4.386,0.39 -8.668,1.191 -12.812,2.363 z m -42.11,45.504 c 11.774,14.441 24.75,32.168 32.036,42.254 V 844.18 c -5.04,2.324 -9.719,5.254 -13.836,8.75 -9.489,8.136 -16.168,19.117 -18.2,33.082 z m 1.973,-184.41 3.668,0.742 c 2.332,0.488 4.012,2.558 4.023,4.922 l 0.168,65.371 c 13.442,-5.43 29.09,-8.555 46.891,-8.555 0.059,0 0.113,0 0.168,0 11.43,-0.019 22.055,1.27 31.879,3.535 l 4.691,-404.918 0.016,-0.258 c 0,0 0.019,-0.269 0.019,-1.011 0.032,-4.141 -1.074,-18.66 -12.937,-27.192 -14.723,-10.758 -47.719,-27.91 -92.324,-29.097 z M 620.906,818.145 c -7.953,10.918 -31.105,43.371 -38.937,102.503 0.547,-0.617 1.094,-1.234 1.644,-1.82 8.391,-8.777 17.887,-14.613 23.559,-17.527 50.484,-27.059 131.558,-58.977 131.641,-59.016 0.054,0 0.113,-0.019 0.164,-0.039 0.714,-3.379 1.652,-6.699 2.726,-10.019 l -76.062,-4.649 c 0,0 -8.926,-0.39 -15.368,-2.226 -7.777,-2.188 -25.562,-7.247 -26.757,-7.637 -1.489,-0.488 -2.348,0.058 -2.61,0.43 z M 589.938,690.938 c 0,0 32.781,113.261 33.222,114.785 0.434,1.523 1.957,1.953 1.957,1.953 0,0 23.985,6.719 27.809,7.969 3.816,1.23 10.094,1.699 10.094,1.699 l 82.441,5.039 c 4.309,-9.649 10.207,-18.789 17.82,-26.817 6.68,-7.05 14.664,-13.203 23.903,-18.203 0,0 -0.176,-62.695 -0.176,-63.886 0,-1.192 -0.582,-2.52 -3.223,-2.754 -2.648,-0.215 -82.926,-5.821 -102.926,-7.246 -2.847,-0.176 -6.242,-0.684 -9.3,-1.524 -3.051,-0.859 -72.95,-20 -72.95,-20 0,0 -2.394,-0.371 -3.589,0.547 -1.192,0.957 -1.821,1.465 -3.965,3.164 -2.149,1.719 -1.117,5.274 -1.117,5.274 z M 765.676,275.391 c 0,0 13.074,-16.93 13.57,-17.692 0.512,-0.769 0.109,-1.64 -0.254,-1.937 -19.777,-16.153 -51.84,-27.442 -88.508,-31.481 5.782,26.641 28.051,131.539 44.555,238.336 17.004,110.117 24.555,214.668 26.02,236.406 0,0 13.234,0.879 15.546,1.094 2.305,0.235 2.606,-1.133 2.551,-2.539 -0.051,-1.426 -14.515,-418.949 -14.515,-418.949 -0.039,-1.168 0.324,-2.301 1.035,-3.238 z m 162.25,163.691 c 0,0 0.176,-1.465 -1,-2.148 -1.188,-0.664 -36.61,-20.543 -36.61,-20.543 l -4.101,354 c 4.015,1.308 7.871,2.832 11.574,4.511 z m -14.801,349.785 c -2.727,3.848 -3.613,6.446 -3.582,8.145 0,0.586 0.082,1.113 0.266,1.738 h 0.027 c 0.383,0.938 3.402,4.18 6.098,6.465 2.718,2.383 5.156,4.219 5.164,4.238 1.422,0.86 2.324,3.145 2.218,4.492 -0.086,2.012 -0.605,2.715 -0.918,3.496 -0.347,0.723 -0.71,1.329 -0.976,1.895 -0.344,0.762 -0.563,2.441 0.957,3.945 1.715,1.739 4.125,1.035 4.637,0.801 1.847,-0.742 4.937,-2.148 7.894,-3.906 4.391,-2.559 8.813,-6.172 10.442,-9.199 1.644,-2.832 2.988,-6.543 2.929,-9.063 -0.023,-1.68 -0.699,-2.949 -1.519,-3.867 -1.617,-1.856 -16.418,-14.277 -17.946,-15.215 -1.574,-1.133 -7.921,-3.828 -13.289,-5.82 -1.574,-0.586 -3.086,-1.133 -4.441,-1.621 -1.848,-0.782 -2.141,0.449 -2.141,0.449 0,0 -0.371,1.094 0.356,1.797 0.851,0.683 1.707,1.484 2.515,2.363 0.895,1.172 2.2,2.266 2.399,5.43 0.015,1.054 -0.328,2.383 -1.09,3.437 z M 773.18,1067.79 c 0,2.22 0.769,2.58 1.14,2.53 7.692,-1.22 11.856,-4.54 14.551,-7.71 1.649,-2 2.652,-4.02 3.231,-5.5 0.285,-0.75 0.472,-1.36 0.574,-1.74 0.051,-0.2 0.078,-0.33 0.094,-0.41 l 0.003,-0.01 c 0.411,-2.42 2.524,-4.19 4.977,-4.19 h 98.301 c 2.5,0 4.613,1.81 4.984,4.29 0.102,0.49 0.879,3.66 4.031,6.69 2.633,2.47 6.965,5.16 14.813,6.14 1.066,0.23 1.25,-0.82 1.25,-1.75 0,-10.41 -0.367,-32.09 -0.367,-63.58 0,-25.655 6.609,-46.327 12.953,-66.796 6.351,-20.516 12.48,-40.856 12.48,-66.813 0,-13.882 -2.64,-27.164 -7.761,-39.195 -4.524,2.52 -8.305,4.063 -10.403,4.649 -0.718,0.195 -1.429,0.273 -2.097,0.273 -3.993,-0.176 -6.555,-1.934 -9.086,-3.691 -2.485,-2.012 -4.375,-3.418 -5.801,-6.524 -0.399,-1.035 -0.563,-2.109 -0.563,-3.086 0.063,-2.754 0.996,-4.648 1.723,-6.113 -1.047,-0.859 -2.266,-1.875 -3.531,-3.008 -1.633,-1.465 -3.344,-3.066 -4.824,-4.746 -1.485,-1.719 -2.817,-3.262 -3.653,-5.762 -0.488,-1.523 -0.734,-3.125 -0.73,-4.726 0.011,-3.086 0.867,-5.938 2.289,-8.77 -15.242,-8.847 -34.375,-14.062 -57.465,-14.082 -33.625,0.02 -57.715,11.563 -73.703,28.34 -11.891,12.52 -19.266,28.105 -22.25,44.238 4.961,4.2 13.668,11.867 24.723,22.961 1.878,1.895 3.933,4.114 6.101,6.559 3.547,-12.633 10.645,-23.153 19.902,-30.985 12.907,-10.976 29.825,-16.894 47.344,-17.421 0.313,-0.059 0.625,-0.098 0.953,-0.098 0.133,0 0.266,0.019 0.395,0.039 0.406,-0.02 0.812,-0.059 1.222,-0.059 37.86,0.118 66.219,33.625 66.293,70.743 -0.019,16.671 -3.91,28.312 -7.535,46.285 -3.656,18.023 -7.34,43.039 -7.34,87.148 0,1.32 -0.535,2.61 -1.476,3.55 -0.934,0.95 -2.234,1.47 -3.563,1.47 h -97.046 c -1.336,0 -2.633,-0.52 -3.571,-1.46 -0.929,-0.95 -1.48,-2.24 -1.48,-3.56 -0.004,-31.56 -2.024,-51.824 -4.641,-66.949 l -22.793,-17.313 c 1.813,6.551 3.442,13.204 4.715,20 0.086,0.293 0.145,0.571 0.176,0.868 1.609,8.754 2.636,17.757 2.676,27.101 0,33.113 -0.137,59.553 -0.215,72.173 z M 615.297,990.965 c 7.699,0.027 14.582,-2.219 18.586,-6.277 6.543,-6.543 13.613,-15.45 18.969,-22.676 5.371,-7.231 9.007,-12.723 9.023,-12.739 0.367,-0.566 0.828,-1.027 1.379,-1.394 l 60.383,-40.656 c 1.789,-1.227 4.136,-1.153 5.867,0.152 l 76.883,58.43 0.328,0.273 c 0,0 1.699,1.539 3.93,3.406 2.214,1.852 5.015,4.067 6.75,5.145 3.996,2.641 20.968,12.695 31.753,13 0.954,0.043 1.872,0.07 2.747,0.07 5.199,0.031 9.035,-0.871 10.937,-2.136 1.832,-1.313 2.656,-2.36 2.797,-6.118 0,-6.148 0.101,-15.234 0.101,-15.234 0.028,-2.441 1.782,-4.07 4.18,-4.484 1.903,0 4.442,-0.551 4.442,-3.461 0,-3.336 -2.282,-3.828 -3.356,-3.965 -1.84,-0.227 -3.562,-0.446 -4.273,-0.547 l -4.746,0.016 -1.274,-0.157 c -0.015,0 -6.484,-1.687 -13.457,-3.351 -3.476,-0.828 -7.074,-1.672 -9.988,-2.282 -1.453,-0.3 -2.746,-0.566 -3.735,-0.73 -0.476,-0.074 -0.89,-0.148 -1.187,-0.176 -0.289,-0.043 -0.367,-0.027 -0.367,-0.043 -4.449,-0.015 -11.332,-0.773 -11.442,-0.789 -1.429,-0.16 -2.738,-0.929 -3.562,-2.097 -0.027,-0.032 -8.524,-12.11 -19.199,-26.36 -10.657,-14.242 -23.578,-30.715 -31.828,-38.984 -8.579,-8.586 -15.708,-15.09 -20.665,-19.406 -1.546,-1.348 -2.878,-2.473 -3.98,-3.391 -0.563,-0.488 -1.938,-1.094 -3.367,-0.508 -7.383,3.039 -23.129,9.344 -42.086,17.453 -26.465,11.309 -59.184,25.989 -84,39.278 -4.942,2.527 -13.688,7.921 -20.926,15.55 -0.785,0.821 -1.539,1.684 -2.281,2.547 -0.235,0.281 -0.473,0.574 -0.703,0.84 -0.559,0.684 -1.094,1.379 -1.614,2.078 -0.398,0.539 -0.785,1.098 -1.164,1.645 -0.328,0.476 -0.64,0.953 -0.953,1.445 -0.351,0.551 -0.699,1.129 -1.039,1.703 -0.129,0.246 -0.262,0.492 -0.387,0.723 -0.671,1.222 -1.289,2.48 -1.835,3.765 -0.079,0.18 -0.153,0.352 -0.235,0.528 -0.297,0.762 -0.59,1.512 -0.844,2.269 0,0.016 0,0.016 0,0.016 -0.011,0.019 -0.011,0.027 -0.015,0.043 -0.457,1.351 -0.813,2.73 -1.11,4.152 -0.121,0.606 -0.242,1.211 -0.339,1.824 -0.071,0.465 -0.133,0.934 -0.18,1.391 -0.129,1.184 -0.223,2.34 -0.223,3.551 0,0.793 0.039,1.598 0.094,2.398 0.055,0.664 0.129,1.352 0.219,2.032 0.011,0.117 0.019,0.218 0.031,0.336 0.234,1.613 0.57,3.261 1.039,4.945 0,0.015 0,0.015 0,0.015 l 0.004,0.02 c 0.277,1.012 0.609,2.051 0.988,3.109 0.024,0.067 0.039,0.106 0.059,0.164 0.355,0.961 0.75,1.965 1.191,2.957 0.063,0.149 0.121,0.29 0.184,0.43 0.422,0.918 0.89,1.867 1.379,2.824 0.117,0.2 0.215,0.414 0.328,0.629 0.613,1.133 1.281,2.285 2.015,3.473 v 0 c 4.567,7.66 17.719,13.465 29.774,13.336 z m 49.312,-9.645 c 0.895,-0.699 1.985,-1.062 3.11,-1.062 0.109,0 0.226,0 0.332,0 l 58.648,3.992 c 1.918,0.133 3.598,1.336 4.321,3.133 0.734,1.781 0.375,3.808 -0.903,5.246 l -10.551,11.821 c 6.133,-1.88 11.418,-3.52 15.5,-4.766 3.141,-0.793 8.899,-5.864 13.778,-12.438 4.617,-6.031 8.851,-13.172 11.629,-18.945 -2.075,-10.399 -5.059,-20.653 -8.215,-30.977 l -25.992,-19.746 -56.571,38.117 c -2.863,4.231 -16.019,23.403 -28.683,36.114 -6.715,6.64 -16.215,9.221 -25.715,9.241 -1.75,-0.02 -3.512,-0.12 -5.274,-0.3 2.481,1.36 4.961,2.68 7.383,3.96 3.688,1.95 7.227,3.79 10.371,5.42 z m 58.411,83.64 c 0,0 0.078,-1.57 -1.258,-2.31 -1.336,-0.75 -2.25,-2.07 -2.5,-3.58 -0.242,-1.51 0.41,-2.94 1.222,-4.18 0.196,-0.3 0.243,-0.94 -0.101,-1.55 -0.34,-0.61 -0.992,-1.75 -0.992,-1.75 -0.707,-1.23 -0.856,-2.7 -0.414,-4.05 0,0 0,0 0.054,-0.2 0.168,-0.59 0.535,-2.25 0.524,-3.98 0,-0.98 -0.782,-3.8 -2.746,-4.65 -1.875,-0.82 -5.063,-1.44 -9.231,-1.58 l -10.629,0.21 c -2.461,0.06 -4.609,-1.7 -5.047,-4.12 -0.043,-0.24 -0.285,-1.6 -0.285,-3.67 0.004,-2.77 0.403,-6.89 2.656,-11.1 0.844,-1.63 2.02,-3.22 3.497,-4.69 0.023,-0.01 0.027,-0.05 0.05,-0.07 h -0.007 l 17.929,-20.092 -46.449,-3.157 -31.625,24.749 c 1.551,0.77 2.453,1.23 2.453,1.23 1.727,0.85 2.805,2.58 2.805,4.51 v 14.61 l 20.304,20.36 c 1.25,1.25 1.754,3.1 1.325,4.8 -0.438,1.72 -1.762,3.09 -3.446,3.59 v 0.01 c -0.921,0.64 -7.007,2.58 -7.207,15.02 0.067,2.04 0.567,2.31 1.004,2.78 0.168,0.13 0.348,0.25 0.492,0.32 l 13.207,0.12 c 1.555,0.01 3.028,0.74 3.973,1.98 0,0 21.137,27.94 22.598,29.75 1.449,1.84 3.664,1.97 3.664,1.97 l 28.637,3.13 c 0,0 1.461,0.08 1.683,-1.69 0.242,-2.66 0.547,-5.85 0.867,-9.34 0.067,-1.47 -0.902,-2.02 -1.453,-2.03 -3.64,-0.11 -7.429,-0.22 -11.469,-0.38 -4.234,-0.16 -8.847,-2.09 -11.89,-4.66 -2.262,-1.9 -2.34,-5.43 -0.235,-7.46 1.157,-1.12 3.672,-1.49 6.422,-2.33 3.477,-1.04 7.332,-2.36 9.274,-1.75 2.461,0.79 3.39,2.98 3.562,5.36 0.188,2.66 1.782,4.48 4.469,4.48 1.137,0 1.824,-0.93 1.93,-1.89 0.511,-5.02 1.426,-11.37 1.734,-14.97 0.149,-1.77 0.301,-3.41 0.402,-4.79 0.043,-1.79 -1.527,-1.94 -2.335,-2.02 -1.668,-0.22 -2.989,-0.26 -2.989,-0.27 -1.359,-0.06 -2.621,-0.67 -3.527,-1.69 -0.91,-1.02 -1.363,-2.32 -1.262,-3.69 z m -77.047,38.5 c -0.895,2.58 -3.645,3.97 -6.223,3.18 2.199,1.96 4.375,3.85 6.48,5.65 l 21.637,2.82 c 2.758,0.38 4.696,2.91 4.336,5.67 -0.355,2.75 -2.89,4.69 -5.656,4.34 l -3.293,-0.44 c 6.762,3.98 13.687,7.2 19.398,9.56 3.856,1.59 7.157,2.8 9.477,3.61 2.32,0.78 3.594,1.17 3.598,1.17 2.668,0.79 4.191,3.59 3.406,6.27 -0.805,2.66 -3.606,4.18 -6.274,3.39 -0.156,-0.06 -8.574,-2.54 -19.457,-7.47 1.582,2.28 1.036,5.42 -1.234,7.01 -2.273,1.6 -5.414,1.05 -7.016,-1.22 l -11.578,-16.46 c -1.035,-0.68 -2.082,-1.37 -3.094,-2.07 -1.492,-1.06 -3.125,-2.28 -4.859,-3.66 l 1.176,2.3 c 1.269,2.48 0.293,5.53 -2.172,6.78 -2.48,1.28 -5.523,0.31 -6.781,-2.18 l -12.699,-24.68 c -3.149,-2.91 -6.079,-5.68 -8.582,-8.06 0.394,13.19 3.945,36.38 18.734,47.43 14.539,11.12 26.582,13.49 36.613,13.53 5.918,0 11.113,-0.89 15.719,-1.55 2.184,-0.29 9.934,-2.16 16.664,-3.87 6.801,-1.74 12.902,-3.36 12.914,-3.38 l 1.309,-0.15 c 7.441,-0.03 11.117,-1.94 13.101,-3.93 1.981,-1.99 2.77,-4.68 2.781,-7.64 0.032,-2.54 -1.062,-5.4 -2.308,-7.56 -0.445,-0.79 -0.863,-1.42 -1.254,-1.96 l -37.617,-4.13 c -1.371,-0.16 -2.629,-0.86 -3.473,-1.95 l -23.695,-31.22 -11.594,-0.08 -1.051,-0.13 c -0.468,-0.12 -2.586,-0.59 -4.937,-2.54 -2.379,-1.89 -4.719,-5.67 -4.645,-10.52 -0.039,-9.41 3.192,-15.87 6.766,-19.61 0.371,-0.41 0.738,-0.77 1.105,-1.11 l -15.433,-15.47 c -2.407,0.64 -6.297,1.99 -9.953,4.55 -4.684,3.3 -8.95,8.14 -10.34,16.62 -0.781,4.9 -1.059,8.94 -1.059,12.16 0.008,3.4 0.301,5.86 0.617,7.58 0.059,0.05 0.125,0.08 0.188,0.13 0.004,0.01 2.269,2.23 5.812,5.62 l 21.305,7.28 c 2.629,0.91 4.039,3.77 3.141,6.39 z M 381.469,575.605 c 2.828,-0.546 5.484,-0.8 7.957,-0.8 8.879,-0.039 15.347,3.359 19.289,6.816 3.973,3.438 5.609,6.817 5.816,7.227 l 0.016,0.039 c 0.008,0.019 0.016,0.039 0.016,0.039 0.027,0.058 0.062,0.137 0.121,0.273 l 0.281,0.664 153.348,358.633 c 0.324,-2.387 1.027,-7.039 1.687,-9.273 2.379,-40.282 11.621,-68.496 21.348,-90.16 5.617,-12.54 11.34,-22.129 15.816,-28.868 2.246,-3.379 4.176,-6.074 5.613,-8.007 0.481,-0.665 0.914,-1.25 1.266,-1.719 L 578.285,686.934 c -0.566,-1.954 0.11,-4.082 1.695,-5.352 l 8.52,-6.758 c 0,0 1.078,-0.996 0.57,-2.851 -0.496,-1.856 -39.777,-146.856 -39.777,-146.856 L 424.563,381.91 c -9.219,7.66 -36.301,32.719 -72.079,88.324 -31.183,48.399 -40.488,78.926 -40.421,96.329 0.011,8.671 2.171,13.925 4.722,17.187 0.039,0.039 0.078,0.078 0.113,0.117 l 0.122,0.176 c 0.148,0.176 0.308,0.391 0.46,0.566 2.856,3.164 6.36,4.258 9,4.258 0.333,0 0.653,0 0.961,-0.058 13.883,-1.602 33.477,-9.121 54.028,-13.204 z M 314.273,712.48 563.656,964.648 414.148,613.652 c -2.218,5.86 -6.16,12.266 -12.718,18.594 -13.981,13.555 -71.602,66.055 -87.157,80.234 z m 80.141,-87.46 c 10.27,-10.059 12.109,-18.79 12.164,-24.688 0,-2.383 -0.344,-4.297 -0.664,-5.566 -0.156,-0.625 -0.312,-1.094 -0.418,-1.387 -0.027,-0.078 -0.043,-0.137 -0.066,-0.176 -0.457,-0.683 -4.477,-8.32 -16.004,-8.32 -1.785,0 -3.778,0.176 -6.02,0.625 -19.511,3.789 -38.781,11.347 -54.715,13.32 -0.261,0.039 -0.57,0.02 -0.855,0.059 l 38.293,52.5 c 12.492,-11.504 23.324,-21.582 28.285,-26.367 z m 4.172,-297.481 c -0.754,0.621 -2.039,2.75 -1.391,4.371 0.278,0.668 0.649,1.391 1.051,2.129 2.168,4.051 5.695,8.731 8.633,12.289 5.223,-11.226 17.789,-32.969 44.348,-56.43 -18.329,11.372 -35.899,23.911 -52.641,37.641 z m 773.544,575.793 c -25.34,59.813 -61.49,113.438 -107.57,159.538 -46.05,46 -99.701,82.2 -159.455,107.51 -61.863,26.1 -127.585,39.33 -195.238,39.33 -67.758,0 -133.461,-13.23 -195.347,-39.33 -59.754,-25.31 -113.352,-61.53 -159.469,-107.51 -46.043,-46.1 -82.207,-99.725 -107.434,-159.554 -26.222,-61.812 -39.492,-127.535 -39.492,-195.171 0,-67.793 13.27,-133.555 39.496,-195.332 25.223,-59.708 61.387,-113.403 107.418,-159.454 46.129,-46.039 99.727,-82.25 159.477,-107.519 18.73,-7.93 37.808,-14.649 57.183,-20.18 0.172,-0.051 0.321,-0.109 0.496,-0.172 9.723,-3.047 19.602,-5.449 29.528,-7.398 35.257,-7.738 71.39,-11.66 108.144,-11.66 22.379,0 44.547,1.48 66.438,4.351 0.058,0 0.105,0 0.16,0 12.754,0.739 21.738,2.68 27.656,4.489 34.547,6.57 68.32,16.742 100.984,30.57 59.754,25.269 113.405,61.48 159.455,107.519 l -3.56,3.551 3.56,-3.551 c 46.09,46.051 82.23,99.746 107.56,159.454 26.11,61.777 39.35,127.539 39.35,195.332 0,67.636 -13.24,133.359 -39.34,195.187" /><path
         id="path24"
         style="fill:#ffffff;fill-opacity:1;fill-rule:nonzero;stroke:none"
         d="m 135.195,665.938 c 5.778,0.761 10.739,0.703 14.868,-0.157 4.148,-0.879 7.64,-2.578 10.503,-5.078 2.868,-2.539 5.137,-5.898 6.817,-10.117 1.676,-4.18 2.898,-9.238 3.676,-15.176 0.656,-5.058 0.726,-9.746 0.207,-14.023 -0.528,-4.297 -1.797,-8.067 -3.832,-11.367 -2.024,-3.262 -4.852,-5.977 -8.473,-8.106 -3.633,-2.109 -12.258,-3.945 -12.258,-3.945 -0.828,-0.176 -2.176,-0.391 -3.004,-0.508 l -44.4568,-5.82 c -0.8242,-0.098 -1.543,-0.86 -1.5899,-1.719 l -0.375,-6.543 c -0.0546,-0.84 -0.7695,-1.621 -1.6093,-1.738 l -1.961,-0.235 c -0.832,-0.117 -1.5937,0.469 -1.7148,1.309 l -3.9102,29.941 c -0.1054,0.84 0.4883,1.602 1.3243,1.719 l 1.957,0.254 c 0.8359,0.098 1.7226,-0.469 1.9922,-1.25 l 2.0273,-6.133 c 0.2578,-0.801 1.1602,-1.348 1.9961,-1.25 l 49.7621,6.504 c 6.086,0.801 10.652,3.242 13.703,7.344 3.043,4.101 4.097,9.746 3.156,16.933 -0.973,7.422 -3.496,12.578 -7.578,15.469 -4.074,2.891 -16.465,2.793 -16.465,2.793 -0.84,0 -2.203,-0.117 -3.027,-0.215 l -45.1683,-5.918 c -0.8359,-0.097 -1.5547,-0.859 -1.5976,-1.718 l -0.3828,-6.524 c -0.0508,-0.859 -0.7618,-1.621 -1.6016,-1.738 l -1.957,-0.254 c -0.836,-0.117 -1.6055,0.488 -1.711,1.328 l -3.5039,26.836 c -0.1133,0.84 0.4727,1.602 1.3008,1.719 l 1.9648,0.254 c 0.8282,0.117 1.7227,-0.45 1.9922,-1.25 l 2.0508,-6.25 c 0.2578,-0.782 1.1563,-1.348 1.9805,-1.25 l 44.8981,5.879" /><path
         id="path26"
         style="fill:#ffffff;fill-opacity:1;fill-rule:nonzero;stroke:none"
         d="m 81.5195,735.566 c 0.0625,0.84 0.7071,1.875 1.4258,2.286 l 62.8007,37.421 -52.5507,3.868 c -0.8359,0.058 -1.707,-0.547 -1.9258,-1.348 l -1.6953,-6.23 c -0.2148,-0.801 -1.082,-1.407 -1.9179,-1.348 l -1.9727,0.137 c -0.832,0.078 -1.4688,0.8 -1.4023,1.64 l 1.9531,25.821 c 0.0703,0.839 0.7969,1.464 1.6406,1.406 l 1.9688,-0.156 c 0.8398,-0.059 1.5976,-0.801 1.6914,-1.622 l 0.7343,-6.523 c 0.0938,-0.84 0.8555,-1.563 1.6914,-1.641 l 74.4221,-5.644 c 0.832,-0.059 1.472,-0.801 1.414,-1.641 l -0.563,-7.324 c -0.07,-0.84 -0.703,-1.875 -1.429,-2.305 l -72.555,-42.539 61.137,-4.629 c 0.832,-0.078 1.695,0.528 1.918,1.348 l 1.695,6.211 c 0.215,0.82 1.078,1.426 1.918,1.348 l 1.977,-0.137 c 0.828,-0.059 1.464,-0.781 1.41,-1.621 l -1.965,-25.84 c -0.063,-0.82 -0.805,-1.465 -1.637,-1.406 l -1.969,0.156 c -0.843,0.059 -1.605,0.801 -1.699,1.641 l -0.73,6.523 c -0.086,0.82 -0.856,1.562 -1.684,1.621 l -66.8983,5.078 c -0.8399,0.059 -1.7071,-0.547 -1.9219,-1.367 l -1.7188,-6.328 c -0.2109,-0.801 -1.0742,-1.426 -1.914,-1.348 l -1.9649,0.137 c -0.8476,0.059 -1.4726,0.801 -1.4101,1.641 l 1.7265,22.714" /><path
         id="path28"
         style="fill:#ffffff;fill-opacity:1;fill-rule:nonzero;stroke:none"
         d="m 107.305,874.941 c 0.82,-0.203 1.441,-1.054 1.394,-1.882 l -0.347,-6.446 c -0.051,-0.847 0.574,-1.711 1.39,-1.906 l 65.098,-16.25 c 0.812,-0.215 1.765,0.254 2.117,0.996 l 2.715,5.86 c 0.351,0.761 1.305,1.222 2.125,1.015 l 1.926,-0.476 c 0.808,-0.227 1.316,-1.047 1.101,-1.848 l -7.312,-29.316 c -0.207,-0.801 -1.043,-1.309 -1.844,-1.094 l -1.93,0.488 c -0.808,0.195 -1.437,1.055 -1.39,1.895 l 0.351,6.425 c 0.043,0.84 -0.586,1.68 -1.394,1.895 l -65.098,16.25 c -0.809,0.215 -1.758,-0.234 -2.113,-0.996 l -2.727,-5.86 c -0.351,-0.742 -1.304,-1.211 -2.1209,-1.015 l -1.918,0.508 c -0.8086,0.175 -1.3125,0.996 -1.1054,1.816 l 7.3123,29.297 c 0.203,0.832 1.039,1.312 1.852,1.113 l 1.918,-0.469" /><path
         id="path30"
         style="fill:#ffffff;fill-opacity:1;fill-rule:nonzero;stroke:none"
         d="m 209.309,924.348 c 0.593,-0.59 0.824,-1.7 0.492,-2.477 l -3.531,-8.305 c -0.332,-0.765 -1.282,-1.347 -2.122,-1.304 l -79.015,5.34 c -0.836,0.058 -1.934,-0.457 -2.418,-1.122 l -2.906,-3.984 c -0.496,-0.68 -1.524,-0.969 -2.297,-0.641 l -1.828,0.786 c -0.762,0.308 -1.133,1.218 -0.801,1.992 l 10.84,25.476 c 0.328,0.766 1.226,1.125 1.992,0.801 l 1.824,-0.777 c 0.777,-0.313 1.281,-1.262 1.129,-2.09 l -0.934,-5.078 c -0.144,-0.836 0.403,-1.547 1.243,-1.621 l 63.464,-4.918 -46.605,44.601 c -0.602,0.563 -1.484,0.457 -1.961,-0.222 l -3.492,-5.129 c -0.469,-0.699 -1.485,-1 -2.262,-0.676 l -1.824,0.777 c -0.77,0.328 -1.133,1.235 -0.801,2 l 9.766,22.942 c 0.328,0.769 1.23,1.133 2,0.804 l 1.816,-0.781 c 0.777,-0.332 1.27,-1.258 1.09,-2.078 l -1.234,-5.976 c -0.172,-0.805 0.179,-1.969 0.785,-2.547 l 57.59,-55.793" /><path
         id="path32"
         style="fill:#ffffff;fill-opacity:1;fill-rule:nonzero;stroke:none"
         d="m 368.063,1141.19 c 1.902,0.51 3.878,1.25 5.937,2.23 2.055,0.96 3.719,1.94 5.004,2.88 4.547,3.37 7.383,6.97 8.508,10.83 1.109,3.85 0.316,7.61 -2.391,11.26 -1.605,2.18 -3.473,3.69 -5.57,4.53 -2.102,0.81 -4.324,1.25 -6.692,1.28 -2.351,0.05 -4.796,-0.16 -7.316,-0.64 -2.52,-0.47 -5.047,-0.89 -7.539,-1.26 -3.793,-0.51 -7.223,-0.96 -10.305,-1.36 -3.082,-0.4 -5.898,-0.44 -8.445,-0.14 -2.555,0.29 -4.899,1.07 -7.059,2.3 -2.152,1.22 -4.199,3.16 -6.144,5.8 -2.133,2.88 -3.414,5.88 -3.824,9 -0.43,3.1 -0.082,6.24 1.015,9.38 1.098,3.15 2.906,6.25 5.442,9.32 2.546,3.06 5.707,5.99 9.492,8.79 1.402,1.06 3,2.09 4.777,3.09 1.774,1.03 3.59,1.99 5.442,2.92 1.847,0.9 3.679,1.76 5.507,2.5 1.821,0.75 3.5,1.28 3.5,1.28 0.805,0.24 1.621,0.31 1.836,0.14 0.211,-0.17 0.723,-0.91 1.133,-1.63 l 6.359,-11.19 c 0.411,-0.74 0.188,-1.75 -0.48,-2.25 l -4.184,-3.09 c -0.664,-0.48 -1.753,-0.46 -2.394,0.08 l -7.797,6.53 c -1.371,-0.02 -2.984,-0.4 -4.828,-1.12 -1.848,-0.72 -3.863,-1.88 -6.047,-3.49 -3.91,-2.9 -6.348,-6.11 -7.293,-9.64 -0.957,-3.53 -0.25,-6.91 2.129,-10.11 1.512,-2.07 3.148,-3.48 4.922,-4.26 1.762,-0.77 3.637,-1.17 5.633,-1.19 2,-0.01 4.074,0.2 6.214,0.65 2.145,0.44 4.364,0.87 6.641,1.28 3.152,0.43 6.438,0.94 9.871,1.55 3.41,0.59 6.746,0.82 9.977,0.68 3.219,-0.14 6.258,-0.8 9.113,-1.98 2.844,-1.16 5.293,-3.27 7.344,-6.32 2.617,-3.92 4.094,-7.67 4.437,-11.23 0.356,-3.56 -0.121,-6.97 -1.433,-10.21 -1.313,-3.25 -3.41,-6.4 -6.274,-9.42 -2.879,-3.01 -6.242,-5.94 -10.078,-8.79 -3.473,-2.55 -7.09,-4.76 -10.879,-6.62 -3.773,-1.86 -8.695,-3.86 -8.695,-3.86 -0.777,-0.3 -1.57,-0.41 -1.738,-0.2 -0.192,0.16 -0.688,0.94 -1.102,1.65 l -6.43,11.13 c -0.425,0.73 -0.214,1.74 0.457,2.23 l 4.192,3.1 c 0.668,0.51 1.754,0.46 2.387,-0.08 l 7.668,-6.33" /><path
         id="path34"
         style="fill:#ffffff;fill-opacity:1;fill-rule:nonzero;stroke:none"
         d="m 428.203,1264.9 c 0.395,-0.74 0.188,-1.78 -0.453,-2.31 l -5.016,-4.06 c -0.632,-0.54 -0.855,-1.58 -0.453,-2.3 l 31.762,-59.12 c 0.398,-0.74 1.379,-1.12 2.172,-0.88 l 6.164,1.93 c 0.805,0.24 1.777,-0.15 2.176,-0.89 l 0.933,-1.74 c 0.403,-0.74 0.117,-1.67 -0.617,-2.07 l -26.601,-14.29 c -0.735,-0.4 -1.665,-0.12 -2.063,0.62 l -0.934,1.75 c -0.41,0.72 -0.191,1.76 0.457,2.3 l 4.997,4.07 c 0.664,0.53 0.867,1.55 0.468,2.3 l -31.769,59.09 c -0.387,0.75 -1.375,1.15 -2.168,0.89 l -6.16,-1.91 c -0.793,-0.26 -1.782,0.15 -2.176,0.88 l -0.938,1.74 c -0.394,0.74 -0.117,1.68 0.614,2.07 l 26.601,14.31 c 0.739,0.38 1.672,0.1 2.067,-0.64 l 0.937,-1.74" /><path
         id="path36"
         style="fill:#ffffff;fill-opacity:1;fill-rule:nonzero;stroke:none"
         d="m 461.246,1284.21 c 0.18,0.49 0.973,1.11 1.75,1.4 l 62.094,22.58 c 0.793,0.29 1.762,0.42 2.16,0.27 0.395,-0.13 0.977,-0.87 1.297,-1.65 l 5.348,-13.29 c 0.32,-0.77 -0.071,-1.63 -0.864,-1.92 l -4.996,-1.83 c -0.789,-0.28 -1.82,0.05 -2.289,0.75 l -4.367,6.47 c -0.473,0.7 -1.512,1.07 -2.313,0.83 l -6.5,-1.93 c -0.796,-0.23 -2.097,-0.66 -2.886,-0.94 l -6.313,-2.29 23.309,-64.18 c 0.297,-0.77 1.199,-1.32 2.031,-1.17 l 6.367,1.01 c 0.832,0.14 1.739,-0.39 2.028,-1.19 l 0.679,-1.86 c 0.289,-0.8 -0.125,-1.67 -0.91,-1.95 L 508.492,1213 c -0.793,-0.29 -1.672,0.13 -1.953,0.92 l -0.676,1.87 c -0.293,0.77 0.067,1.77 0.778,2.19 l 5.547,3.32 c 0.718,0.43 1.074,1.43 0.781,2.21 l -23.344,64.17 -6.297,-2.32 c -0.793,-0.28 -2.062,-0.79 -2.84,-1.14 l -6.211,-2.7 c -0.769,-0.32 -1.332,-1.29 -1.246,-2.13 l 0.813,-7.75 c 0.097,-0.84 -0.481,-1.75 -1.27,-2.04 l -5,-1.81 c -0.793,-0.28 -1.644,0.13 -1.906,0.94 l -4.266,13.16 c -0.254,0.79 -0.324,1.84 -0.156,2.32" /><path
         id="path38"
         style="fill:#ffffff;fill-opacity:1;fill-rule:nonzero;stroke:none"
         d="m 593.113,1311.97 -6.351,-35.3 23.383,4.41 z m 20.168,-36.51 -27.738,-5.25 -4.277,-25.41 c -0.137,-0.81 0.429,-1.51 1.269,-1.53 l 5.746,-0.1 c 0.84,-0.02 1.657,-0.71 1.801,-1.54 l 0.379,-1.94 c 0.144,-0.82 -0.402,-1.62 -1.215,-1.78 l -24.273,-4.59 c -0.825,-0.14 -1.621,0.41 -1.774,1.23 l -0.367,1.95 c -0.16,0.82 0.344,1.76 1.117,2.08 l 4.961,2.12 c 0.781,0.32 1.535,1.26 1.695,2.07 l 15.313,79.8 c 0.16,0.82 0.969,1.63 1.781,1.79 l 10.641,2 c 0.824,0.14 1.836,-0.31 2.246,-1.05 l 39.488,-69.38 c 0.41,-0.73 1.442,-1.36 2.274,-1.37 l 5.269,-0.17 c 0.852,-0.03 1.66,-0.72 1.809,-1.54 l 0.371,-1.95 c 0.152,-0.82 -0.395,-1.63 -1.223,-1.77 l -27.781,-5.26 c -0.82,-0.14 -1.633,0.39 -1.789,1.2 l -0.356,1.96 c -0.164,0.84 0.34,1.77 1.114,2.1 l 4.968,2.11 c 0.774,0.32 1.083,1.19 0.676,1.92 l -12.125,22.3" /><path
         id="path40"
         style="fill:#ffffff;fill-opacity:1;fill-rule:nonzero;stroke:none"
         d="m 690.105,1258.36 c 1.833,-0.71 3.872,-1.29 6.106,-1.7 2.227,-0.43 4.144,-0.65 5.738,-0.63 5.664,0.01 10.078,1.25 13.262,3.7 3.172,2.45 4.754,5.93 4.738,10.48 -0.011,2.72 -0.625,5.04 -1.824,6.93 -1.207,1.93 -2.75,3.59 -4.633,5.02 -1.871,1.43 -3.972,2.68 -6.297,3.81 -2.3,1.1 -4.593,2.25 -6.824,3.44 -3.355,1.82 -6.394,3.48 -9.109,4.99 -2.711,1.49 -5.024,3.12 -6.899,4.87 -1.879,1.75 -3.324,3.75 -4.328,6.03 -1.008,2.27 -1.523,5.03 -1.539,8.31 -0.016,3.59 0.734,6.76 2.234,9.52 1.5,2.76 3.625,5.08 6.375,6.97 2.735,1.9 6.032,3.33 9.899,4.29 3.859,0.98 8.141,1.47 12.851,1.5 1.75,0 3.641,-0.1 5.68,-0.33 2.043,-0.23 4.074,-0.53 6.106,-0.88 2.043,-0.35 4.011,-0.76 5.922,-1.22 1.914,-0.48 3.589,-1.05 3.589,-1.05 0.786,-0.27 1.493,-0.71 1.567,-0.96 0.054,-0.27 0.035,-1.16 -0.059,-2.01 l -1.492,-12.78 c -0.094,-0.83 -0.859,-1.52 -1.695,-1.52 l -5.211,-0.01 c -0.832,-0.02 -1.684,0.66 -1.883,1.46 l -2.434,9.89 c -1.121,0.79 -2.644,1.43 -4.558,1.95 -1.914,0.51 -4.227,0.77 -6.934,0.75 -4.875,-0.02 -8.73,-1.18 -11.59,-3.46 -2.859,-2.29 -4.281,-5.42 -4.265,-9.42 0.015,-2.55 0.5,-4.66 1.465,-6.34 0.96,-1.66 2.242,-3.09 3.847,-4.28 1.602,-1.2 3.395,-2.25 5.391,-3.15 1.996,-0.92 4.039,-1.89 6.117,-2.92 2.801,-1.49 5.75,-3.02 8.875,-4.57 3.109,-1.53 5.926,-3.32 8.445,-5.34 2.52,-2.02 4.586,-4.35 6.188,-6.99 1.605,-2.61 2.332,-5.76 2.187,-9.43 -0.215,-4.71 -1.23,-8.6 -3.05,-11.68 -1.821,-3.09 -4.215,-5.55 -7.196,-7.4 -2.98,-1.86 -6.527,-3.13 -10.633,-3.88 -4.101,-0.73 -8.55,-1.11 -13.332,-1.12 -4.304,-0.03 -8.531,0.33 -12.679,1.08 -4.145,0.73 -9.297,2.02 -9.297,2.02 -0.801,0.22 -1.504,0.59 -1.531,0.86 -0.04,0.24 0.011,1.15 0.101,1.99 l 1.391,12.78 c 0.093,0.83 0.855,1.52 1.683,1.52 l 5.211,0.02 c 0.84,0 1.696,-0.66 1.895,-1.46 l 2.429,-9.65" /><path
         id="path42"
         style="fill:#ffffff;fill-opacity:1;fill-rule:nonzero;stroke:none"
         d="m 914.441,1284.7 c -2.211,7.01 -7.07,11.73 -14.578,14.17 -7.59,2.45 -14.328,1.56 -20.215,-2.65 -5.878,-4.21 -10.753,-12.24 -14.585,-24.08 -3.895,-11.99 -4.75,-21.49 -2.575,-28.48 2.18,-7 7.059,-11.73 14.637,-14.18 7.582,-2.46 14.32,-1.59 20.215,2.63 5.887,4.23 10.758,12.25 14.594,24.09 3.882,11.98 4.722,21.49 2.507,28.5 z m -7.531,-60.29 c -9.121,-4.89 -19.906,-5.31 -32.34,-1.28 -6,1.95 -11.058,4.55 -15.199,7.83 -4.137,3.26 -7.281,7.14 -9.43,11.61 -2.152,4.47 -3.265,9.5 -3.339,15.11 -0.063,5.6 0.964,11.71 3.109,18.3 2.23,6.91 5.113,12.68 8.633,17.34 3.511,4.64 7.531,8.16 12.043,10.56 4.5,2.42 9.453,3.72 14.843,3.94 5.391,0.21 11.04,-0.62 16.961,-2.55 5.918,-1.91 10.961,-4.51 15.133,-7.8 4.176,-3.27 7.356,-7.17 9.535,-11.71 2.18,-4.51 3.313,-9.61 3.414,-15.26 0.094,-5.64 -0.949,-11.8 -3.105,-18.48 -4.371,-13.52 -11.129,-22.72 -20.258,-27.61" /><path
         id="path44"
         style="fill:#ffffff;fill-opacity:1;fill-rule:nonzero;stroke:none"
         d="m 956.105,1199.8 c 1.262,-1.51 2.774,-3 4.524,-4.44 1.754,-1.45 3.324,-2.55 4.73,-3.31 4.973,-2.7 9.45,-3.75 13.407,-3.13 3.961,0.61 7.031,2.93 9.203,6.92 1.293,2.39 1.875,4.7 1.738,6.96 -0.137,2.25 -0.691,4.45 -1.644,6.62 -0.969,2.15 -2.196,4.27 -3.692,6.35 -1.512,2.09 -2.953,4.18 -4.344,6.3 -2.062,3.21 -3.922,6.14 -5.586,8.75 -1.652,2.63 -2.894,5.16 -3.699,7.61 -0.808,2.44 -1.109,4.88 -0.898,7.37 0.211,2.47 1.097,5.14 2.652,8.01 1.715,3.14 3.895,5.6 6.543,7.27 2.637,1.71 5.613,2.73 8.93,3.06 3.32,0.33 6.894,0 10.754,-1 3.857,-1.01 7.847,-2.63 11.977,-4.87 1.55,-0.84 3.16,-1.84 4.82,-3.02 1.69,-1.18 3.32,-2.43 4.94,-3.7 1.61,-1.3 3.15,-2.61 4.6,-3.93 1.45,-1.33 2.65,-2.64 2.65,-2.64 0.55,-0.62 0.97,-1.34 0.89,-1.61 -0.06,-0.26 -0.51,-1.03 -1,-1.72 l -7.45,-10.48 c -0.49,-0.69 -1.5,-0.92 -2.23,-0.53 l -4.57,2.5 c -0.73,0.39 -1.16,1.38 -0.95,2.2 l 2.62,9.83 c -0.6,1.23 -1.62,2.54 -3.05,3.9 -1.43,1.36 -3.34,2.7 -5.72,4 -4.28,2.3 -8.219,3.16 -11.832,2.52 -3.605,-0.63 -6.355,-2.7 -8.262,-6.2 -1.218,-2.24 -1.804,-4.33 -1.765,-6.25 0.043,-1.94 0.472,-3.81 1.3,-5.62 0.84,-1.81 1.911,-3.59 3.219,-5.36 1.32,-1.75 2.645,-3.57 3.965,-5.48 1.727,-2.66 3.586,-5.42 5.57,-8.27 1.995,-2.86 3.615,-5.77 4.845,-8.76 1.23,-2.99 1.92,-6.02 2.08,-9.09 0.14,-3.08 -0.74,-6.2 -2.63,-9.35 -2.46,-4.01 -5.217,-6.93 -8.299,-8.77 -3.074,-1.81 -6.375,-2.81 -9.871,-3.01 -3.5,-0.19 -7.23,0.39 -11.187,1.72 -3.945,1.32 -8.024,3.13 -12.227,5.41 -3.785,2.05 -7.308,4.4 -10.59,7.05 -3.293,2.65 -7.171,6.25 -7.171,6.25 -0.618,0.58 -1.04,1.24 -0.938,1.49 0.094,0.24 0.555,1.01 1.039,1.69 l 7.367,10.55 c 0.485,0.67 1.481,0.9 2.223,0.51 l 4.57,-2.48 c 0.739,-0.41 1.168,-1.39 0.953,-2.2 l -2.504,-9.62" /><path
         id="path46"
         style="fill:#ffffff;fill-opacity:1;fill-rule:nonzero;stroke:none"
         d="m 1043.27,1144.8 c -0.53,-0.66 -0.4,-1.62 0.26,-2.14 l 10.31,-8.09 c 0.66,-0.52 1.77,-1.34 2.46,-1.8 l 5.47,-3.77 c 0.7,-0.47 1.79,-0.43 2.45,0.08 l 6.71,5.42 c 0.65,0.53 1.73,0.53 2.38,0.02 l 4.19,-3.3 c 0.66,-0.5 0.77,-1.45 0.22,-2.09 l -8.91,-10.59 c -0.55,-0.63 -1.22,-1.39 -1.52,-1.65 -0.3,-0.28 -1.08,-0.07 -1.74,0.44 l -44.66,35.01 c -0.67,0.52 -0.78,1.48 -0.26,2.14 l 1.22,1.55 c 0.52,0.67 1.56,0.9 2.3,0.51 l 5.73,-2.95 c 0.75,-0.38 1.79,-0.16 2.3,0.5 l 41.4,52.8 c 0.51,0.66 0.49,1.72 -0.06,2.35 l -4.24,4.88 c -0.54,0.63 -0.58,1.69 -0.06,2.36 l 1.22,1.53 c 0.52,0.66 1.48,0.79 2.14,0.28 l 23.67,-18.57 c 0.66,-0.52 0.78,-1.48 0.27,-2.13 l -1.24,-1.56 c -0.51,-0.66 -1.54,-0.89 -2.29,-0.5 l -5.73,2.94 c -0.75,0.39 -1.79,0.16 -2.3,-0.5 l -41.69,-53.17" /><path
         id="path48"
         style="fill:#ffffff;fill-opacity:1;fill-rule:nonzero;stroke:none"
         d="m 1179.54,1098.84 c 1.68,7.15 -0.1,13.7 -5.33,19.61 -5.26,5.97 -11.51,8.65 -18.73,8.03 -7.21,-0.63 -15.49,-5.06 -24.83,-13.28 -9.45,-8.36 -15.02,-16.09 -16.71,-23.21 -1.7,-7.12 0.08,-13.68 5.36,-19.67 5.27,-5.97 11.52,-8.65 18.73,-8.03 7.22,0.64 15.5,5.06 24.83,13.29 9.46,8.35 15.02,16.09 16.68,23.26 z m -37.19,-48.04 c -10.34,0.44 -19.84,5.57 -28.48,15.39 -4.16,4.72 -7.2,9.53 -9.09,14.46 -1.89,4.92 -2.63,9.84 -2.2,14.78 0.42,4.96 2.03,9.86 4.82,14.72 2.8,4.85 6.8,9.58 12,14.16 5.45,4.82 10.87,8.33 16.26,10.52 5.39,2.21 10.65,3.19 15.75,2.96 5.1,-0.23 10.03,-1.63 14.79,-4.18 4.75,-2.56 9.18,-6.17 13.29,-10.84 4.12,-4.65 7.13,-9.47 9.05,-14.4 1.92,-4.96 2.66,-9.94 2.24,-14.94 -0.43,-5 -2.04,-9.96 -4.84,-14.88 -2.8,-4.91 -6.83,-9.67 -12.1,-14.34 -10.65,-9.37 -21.14,-13.85 -31.49,-13.41" /><path
         id="path50"
         style="fill:#ffffff;fill-opacity:1;fill-rule:nonzero;stroke:none"
         d="m 1213.84,998.16 c 0.63,0.531 0.8,1.563 0.38,2.3 l -9.09,15.44 -29.9,-18.017 9.77,-16.461 c 0.43,-0.711 1.17,-1.867 1.64,-2.559 l 3.75,-5.5 c 0.47,-0.707 1.5,-1.047 2.3,-0.793 l 8.17,2.707 c 0.79,0.25 1.8,-0.121 2.22,-0.843 l 2.78,-4.676 c 0.42,-0.715 0.18,-1.641 -0.56,-2.039 l -12.14,-6.66 c -0.73,-0.395 -1.64,-0.844 -2.02,-0.989 -0.37,-0.144 -1.03,0.336 -1.45,1.047 l -31.43,52.903 c -0.42,0.71 -0.18,1.66 0.54,2.09 l 1.7,1.02 c 0.72,0.43 1.76,0.27 2.32,-0.37 l 4.28,-4.83 c 0.56,-0.62 1.61,-0.78 2.32,-0.35 l 57.69,34.26 c 0.72,0.43 1.07,1.42 0.8,2.21 l -2.2,6.07 c -0.28,0.79 0.09,1.78 0.8,2.21 l 1.7,1.01 c 0.73,0.43 1.66,0.2 2.09,-0.52 l 29.96,-50.44 c 0.43,-0.72 0.75,-1.67 0.7,-2.14 -0.04,-0.43 -0.65,-1.17 -1.36,-1.61 l -12.05,-7.732 c -0.7,-0.46 -1.63,-0.246 -2.06,0.493 l -2.73,4.574 c -0.42,0.715 -0.27,1.775 0.34,2.335 l 6.52,6.17 c 0.61,0.58 0.8,1.66 0.42,2.41 l -3.1,6.03 c -0.38,0.74 -1.05,1.94 -1.48,2.66 l -8.81,14.92 -26.44,-15.78 9.12,-15.37 c 0.42,-0.71 1.41,-1.07 2.19,-0.77 l 6.03,2.27 c 0.79,0.29 1.78,-0.07 2.21,-0.8 l 2.29,-3.84 c 0.42,-0.735 0.18,-1.665 -0.53,-2.098 l -19.5,-11.579 c -0.73,-0.429 -1.66,-0.187 -2.1,0.528 l -2.28,3.851 c -0.43,0.719 -0.26,1.77 0.38,2.301 l 5.82,4.957" /><path
         id="path52"
         style="fill:#ffffff;fill-opacity:1;fill-rule:nonzero;stroke:none"
         d="m 225.227,1033.91 c -0.77,0.33 -1.782,0.02 -2.239,-0.68 l -9.847,-14.97 29.371,-18.877 10.449,16.037 c 0.453,0.7 1.16,1.88 1.578,2.61 l 3.281,5.77 c 0.422,0.74 0.278,1.83 -0.316,2.41 l -6.016,6.16 c -0.593,0.58 -0.691,1.65 -0.242,2.35 l 2.977,4.57 c 0.461,0.69 1.386,0.88 2.082,0.4 l 11.324,-7.97 c 0.684,-0.48 1.476,-1.09 1.781,-1.37 0.293,-0.26 0.156,-1.07 -0.305,-1.78 l -33.593,-51.547 c -0.457,-0.683 -1.41,-0.89 -2.106,-0.429 l -1.664,1.078 c -0.695,0.461 -1.015,1.465 -0.695,2.234 l 2.437,5.989 c 0.317,0.769 0,1.777 -0.707,2.242 l -56.207,36.633 c -0.703,0.45 -1.75,0.32 -2.328,-0.26 l -4.476,-4.65 c -0.59,-0.6 -1.641,-0.72 -2.348,-0.25 l -1.66,1.08 c -0.692,0.46 -0.895,1.4 -0.442,2.11 l 32.039,49.13 c 0.454,0.7 1.168,1.41 1.594,1.57 0.414,0.16 1.344,-0.07 2.063,-0.5 l 12.258,-7.4 c 0.714,-0.44 0.929,-1.37 0.468,-2.07 l -2.902,-4.46 c -0.461,-0.69 -1.481,-1.03 -2.262,-0.74 l -8.414,3.13 c -0.781,0.3 -1.832,-0.01 -2.332,-0.69 l -4.039,-5.43 c -0.504,-0.68 -1.285,-1.8 -1.742,-2.5 l -9.512,-14.5 25.844,-16.76 9.769,14.97 c 0.457,0.69 0.329,1.74 -0.277,2.3 l -4.695,4.42 c -0.61,0.57 -0.731,1.62 -0.281,2.32 l 2.453,3.76 c 0.457,0.7 1.41,0.9 2.109,0.44 l 19.008,-12.38 c 0.703,-0.46 0.906,-1.41 0.449,-2.11 l -2.457,-3.77 c -0.457,-0.7 -1.461,-0.99 -2.23,-0.65 l -7,3.03" /><path
         id="path54"
         style="fill:#ffffff;fill-opacity:1;fill-rule:nonzero;stroke:none"
         d="m 1294.27,932.227 c 0.27,-0.782 0.09,-1.993 -0.4,-2.672 l -42.83,-59.317 49.83,17.36 c 0.79,0.281 1.35,1.183 1.22,2.011 l -0.92,6.387 c -0.12,0.84 0.44,1.731 1.22,2.004 l 1.88,0.637 c 0.79,0.293 1.67,-0.145 1.93,-0.942 l 8.46,-24.453 c 0.29,-0.789 -0.15,-1.668 -0.93,-1.957 l -1.87,-0.625 c -0.79,-0.273 -1.79,0.082 -2.21,0.809 l -3.26,5.715 c -0.42,0.711 -1.41,1.093 -2.2,0.816 l -70.54,-24.406 c -0.79,-0.274 -1.66,0.156 -1.94,0.937 l -2.4,6.965 c -0.27,0.801 -0.1,1.996 0.4,2.68 l 49.7,67.914 -57.98,-20.074 c -0.79,-0.282 -1.33,-1.18 -1.22,-2.008 l 0.92,-6.391 c 0.12,-0.844 -0.43,-1.73 -1.22,-2.004 l -1.87,-0.636 c -0.79,-0.297 -1.67,0.14 -1.94,0.921 l -8.46,24.485 c -0.28,0.777 0.14,1.668 0.93,1.941 l 1.88,0.625 c 0.79,0.293 1.78,-0.082 2.19,-0.808 l 3.27,-5.7 c 0.42,-0.726 1.41,-1.097 2.21,-0.824 l 63.4,21.938 c 0.79,0.265 1.34,1.16 1.22,1.996 l -0.95,6.492 c -0.12,0.828 0.43,1.738 1.22,2.012 l 1.87,0.664 c 0.79,0.258 1.67,-0.164 1.93,-0.953 l 7.46,-21.539" /><path
         id="path56"
         style="fill:#ffffff;fill-opacity:1;fill-rule:nonzero;stroke:none"
         d="m 1250.24,803.906 c -0.44,-1.894 -0.73,-3.984 -0.85,-6.269 -0.11,-2.266 -0.05,-4.199 0.17,-5.782 0.81,-5.585 2.64,-9.785 5.5,-12.597 2.87,-2.832 6.56,-3.906 11.06,-3.262 2.68,0.391 4.88,1.309 6.61,2.793 1.73,1.445 3.17,3.203 4.32,5.254 1.15,2.051 2.12,4.316 2.9,6.758 0.77,2.441 1.59,4.863 2.46,7.246 1.34,3.574 2.57,6.816 3.68,9.707 1.12,2.91 2.41,5.391 3.88,7.519 1.48,2.09 3.27,3.809 5.38,5.118 2.1,1.289 4.78,2.187 8.01,2.656 3.55,0.508 6.8,0.215 9.75,-0.899 2.93,-1.093 5.54,-2.89 7.78,-5.332 2.24,-2.461 4.12,-5.527 5.61,-9.218 1.51,-3.692 2.6,-7.871 3.26,-12.539 0.25,-1.739 0.41,-3.614 0.45,-5.645 0.06,-2.051 0.06,-4.101 -0.01,-6.172 -0.07,-2.07 -0.21,-4.082 -0.41,-6.035 -0.2,-1.973 -0.54,-3.711 -0.54,-3.711 -0.14,-0.82 -0.49,-1.582 -0.73,-1.68 -0.26,-0.097 -1.15,-0.214 -1.99,-0.214 l -12.86,-0.293 c -0.84,-0.02 -1.62,0.644 -1.75,1.484 l -0.73,5.137 c -0.12,0.84 0.41,1.758 1.2,2.09 l 9.44,3.769 c 0.63,1.211 1.07,2.793 1.31,4.766 0.24,1.972 0.17,4.297 -0.22,6.992 -0.69,4.805 -2.37,8.476 -5.02,10.996 -2.67,2.52 -5.98,3.477 -9.92,2.91 -2.53,-0.371 -4.55,-1.133 -6.08,-2.324 -1.52,-1.191 -2.76,-2.656 -3.72,-4.395 -0.95,-1.738 -1.74,-3.691 -2.37,-5.781 -0.62,-2.09 -1.3,-4.258 -2.03,-6.445 -1.1,-2.988 -2.21,-6.133 -3.3,-9.414 -1.1,-3.301 -2.47,-6.328 -4.13,-9.121 -1.66,-2.774 -3.68,-5.137 -6.06,-7.09 -2.38,-1.953 -5.39,-3.125 -9.05,-3.477 -4.69,-0.449 -8.69,0.02 -11.99,1.407 -3.3,1.386 -6.07,3.417 -8.32,6.113 -2.24,2.695 -4.02,6.035 -5.3,10 -1.3,3.945 -2.29,8.301 -2.97,13.027 -0.61,4.258 -0.84,8.496 -0.68,12.715 0.15,4.219 0.73,9.473 0.73,9.473 0.09,0.839 0.37,1.601 0.63,1.66 0.25,0.078 1.14,0.137 1.99,0.176 l 12.84,0.371 c 0.84,0.039 1.62,-0.625 1.74,-1.446 l 0.74,-5.156 c 0.13,-0.84 -0.42,-1.777 -1.18,-2.09 l -9.23,-3.75" /><path
         id="path58"
         style="fill:#ffffff;fill-opacity:1;fill-rule:nonzero;stroke:none"
         d="m 1330.79,690.879 c -0.85,0 -1.67,0.664 -1.82,1.484 l -1.26,6.348 c -0.16,0.801 -0.98,1.484 -1.81,1.484 l -67.09,-0.293 c -0.85,0 -1.66,-0.683 -1.82,-1.504 l -1.18,-6.347 c -0.16,-0.821 -0.97,-1.504 -1.81,-1.504 l -1.97,-0.02 c -0.85,0 -1.54,0.684 -1.54,1.524 l -0.13,30.195 c -0.01,0.84 0.68,1.543 1.52,1.543 h 1.97 c 0.85,0 1.66,-0.664 1.82,-1.484 l 1.25,-6.348 c 0.16,-0.801 0.98,-1.484 1.82,-1.465 l 67.09,0.274 c 0.84,0 1.66,0.683 1.81,1.504 l 1.18,6.347 c 0.16,0.84 0.97,1.504 1.81,1.504 l 1.98,0.02 c 0.85,0 1.53,-0.684 1.53,-1.524 l 0.14,-30.195 c 0,-0.84 -0.68,-1.524 -1.52,-1.524 l -1.97,-0.019" /><path
         id="path60"
         style="fill:#ffffff;fill-opacity:1;fill-rule:nonzero;stroke:none"
         d="m 1254.01,639.785 c -0.99,-1.699 -1.88,-3.613 -2.66,-5.762 -0.77,-2.128 -1.29,-3.984 -1.54,-5.566 -0.87,-5.586 -0.35,-10.137 1.56,-13.672 1.9,-3.515 5.1,-5.644 9.6,-6.347 2.69,-0.43 5.06,-0.196 7.14,0.703 2.07,0.859 3.96,2.148 5.67,3.75 1.71,1.64 3.3,3.496 4.76,5.605 1.46,2.129 2.95,4.18 4.48,6.211 2.34,3.008 4.46,5.742 6.38,8.203 1.92,2.442 3.89,4.434 5.92,6.016 2.02,1.601 4.23,2.695 6.64,3.32 2.4,0.645 5.21,0.703 8.44,0.195 3.56,-0.546 6.57,-1.796 9.05,-3.711 2.49,-1.933 4.45,-4.394 5.87,-7.402 1.42,-3.008 2.32,-6.504 2.66,-10.469 0.35,-3.964 0.15,-8.281 -0.58,-12.91 -0.27,-1.738 -0.69,-3.594 -1.23,-5.566 -0.54,-1.992 -1.16,-3.945 -1.83,-5.879 -0.67,-1.973 -1.4,-3.828 -2.16,-5.664 -0.77,-1.817 -1.6,-3.36 -1.6,-3.36 -0.39,-0.742 -0.94,-1.367 -1.2,-1.406 -0.28,-0.019 -1.16,0.156 -1.97,0.371 l -12.38,3.516 c -0.8,0.234 -1.35,1.094 -1.23,1.914 l 0.81,5.156 c 0.14,0.801 0.92,1.543 1.77,1.621 l 10.13,0.821 c 0.96,0.976 1.84,2.382 2.65,4.179 0.81,1.817 1.42,4.063 1.85,6.739 0.76,4.804 0.23,8.789 -1.58,11.992 -1.79,3.183 -4.66,5.097 -8.62,5.703 -2.51,0.41 -4.67,0.254 -6.48,-0.43 -1.81,-0.683 -3.43,-1.718 -4.85,-3.105 -1.43,-1.387 -2.75,-3.008 -3.97,-4.824 -1.21,-1.817 -2.5,-3.692 -3.85,-5.586 -1.92,-2.52 -3.9,-5.196 -5.92,-8.028 -2.02,-2.832 -4.23,-5.332 -6.62,-7.5 -2.4,-2.148 -5.02,-3.808 -7.88,-4.98 -2.84,-1.172 -6.07,-1.387 -9.67,-0.664 -4.62,0.976 -8.3,2.597 -11.05,4.863 -2.75,2.305 -4.8,5.078 -6.15,8.301 -1.35,3.242 -2.07,6.933 -2.14,11.113 -0.07,4.16 0.27,8.613 1.01,13.34 0.67,4.258 1.7,8.379 3.09,12.344 1.38,3.965 3.48,8.847 3.48,8.847 0.33,0.782 0.82,1.387 1.09,1.387 0.26,0 1.15,-0.195 1.96,-0.41 l 12.39,-3.418 c 0.8,-0.215 1.36,-1.074 1.23,-1.914 l -0.81,-5.137 c -0.13,-0.84 -0.91,-1.562 -1.75,-1.64 l -9.91,-0.86" /><path
         id="path62"
         style="fill:#ffffff;fill-opacity:1;fill-rule:nonzero;stroke:none"
         d="m 348.574,207.719 c 0.758,-0.34 1.762,-0.078 2.231,0.621 l 34.543,49.629 -64.313,-36.43 c -0.73,-0.41 -1.859,-0.309 -2.515,0.223 l -2.567,2.09 c -0.648,0.527 -1.012,1.636 -0.797,2.437 l 18.61,69.449 -39.047,-42.539 c -0.598,-0.578 -0.688,-1.621 -0.192,-2.301 l 3.914,-5.308 c 0.504,-0.692 0.442,-1.738 -0.136,-2.371 l -1.332,-1.418 c -0.578,-0.61 -1.547,-0.672 -2.153,-0.063 l -19.039,17.731 c -0.617,0.57 -0.648,1.531 -0.082,2.152 l 1.352,1.449 c 0.566,0.602 1.617,0.739 2.328,0.309 l 5.488,-3.481 c 0.715,-0.429 1.778,-0.308 2.363,0.282 l 44.165,49 c 0.558,0.629 0.562,1.66 0.027,2.308 l -4.18,4.961 c -0.539,0.641 -0.547,1.699 -0.023,2.36 l 1.242,1.519 c 0.523,0.652 1.496,0.742 2.148,0.223 l 19.914,-16.172 c 0.649,-0.551 1.008,-1.641 0.793,-2.449 l -15.828,-61.129 54.496,29.687 c 0.735,0.41 1.875,0.293 2.516,-0.238 l 19.082,-15.5 c 0.648,-0.531 0.746,-1.488 0.227,-2.129 l -1.25,-1.551 c -0.524,-0.64 -1.571,-0.851 -2.297,-0.461 l -5.719,3.082 c -0.734,0.411 -1.75,0.18 -2.254,-0.492 l -37.66,-53.527 c -0.473,-0.684 -0.387,-1.742 0.184,-2.383 l 4.429,-4.75 c 0.567,-0.609 0.629,-1.66 0.129,-2.34 l -1.16,-1.59 c -0.496,-0.679 -1.449,-0.82 -2.125,-0.328 l -24.484,17.949 c -0.672,0.489 -0.825,1.45 -0.325,2.11 l 1.161,1.601 c 0.496,0.688 1.527,0.938 2.277,0.59 l 5.859,-2.812" /><path
         id="path64"
         style="fill:#ffffff;fill-opacity:1;fill-rule:nonzero;stroke:none"
         d="m 506.273,176.68 c 0.829,4.629 0.723,8.808 -0.316,12.558 -1.051,3.75 -3.027,7.114 -5.918,10.063 -2.906,2.969 -10.098,7.258 -10.098,7.258 -0.722,0.453 -1.914,1.101 -2.668,1.472 l -7.609,3.938 -32.34,-63.258 7.254,-3.75 c 3.496,-1.781 6.875,-3.223 10.141,-4.313 3.265,-1.078 6.402,-1.589 9.406,-1.507 4.801,0.39 9.488,2.289 14.094,5.648 4.597,3.371 8.824,8.82 12.66,16.34 2.758,5.73 4.559,10.922 5.394,15.551 z m -13.636,35.308 c 5.914,-3 11.074,-6.398 15.492,-10.187 4.406,-3.75 7.73,-7.992 9.973,-12.68 2.242,-4.672 3.226,-9.859 2.961,-15.582 -0.27,-5.73 -2.172,-12 -5.68,-18.891 -3.297,-6.449 -7.16,-11.578 -11.582,-15.386 -4.438,-3.832 -9.238,-6.371 -14.43,-7.66 -5.195,-1.274 -10.726,-1.383 -16.59,-0.372 -5.851,1.04 -16.691,5.7 -16.691,5.7 -0.774,0.34 -2.004,0.898 -2.766,1.289 l -29.039,14.871 c -0.746,0.371 -1.039,1.308 -0.664,2.051 l 0.895,1.738 c 0.382,0.742 1.351,1.191 2.156,0.93 L 432.906,156 c 0.805,-0.262 1.778,0.172 2.157,0.91 l 30.464,59.59 c 0.379,0.75 0.153,1.781 -0.511,2.309 l -5.118,3.98 c -0.664,0.512 -0.894,1.551 -0.511,2.289 l 0.894,1.762 c 0.395,0.738 1.313,1.051 2.047,0.66 l 30.309,-15.512" /><path
         id="path66"
         style="fill:#ffffff;fill-opacity:1;fill-rule:nonzero;stroke:none"
         d="m 635.727,153.09 c -0.184,2.808 -0.098,3.301 -0.184,5.289 -0.117,2.441 -0.898,3.359 -3.352,4.941 -0.964,0.61 -2.046,1.11 -3.171,1.602 -1.801,0.816 -3.852,1.449 -6.133,1.859 -4.176,0.758 -8.102,0.719 -11.739,-0.121 -3.66,-0.82 -6.949,-2.461 -9.878,-4.941 -2.926,-2.457 -5.43,-5.739 -7.532,-9.84 -2.082,-4.129 -3.648,-9.051 -4.683,-14.75 -2.2,-12.149 -1.34,-21.598 2.593,-28.379 3.938,-6.801 10.754,-11.0703 20.446,-12.8086 2.84,-0.5312 5.91,-0.7226 9.23,-0.6133 2.84,0.1211 6.102,0.5117 9.824,0.9805 1.942,0.2305 2.129,-1.168 2.129,-1.168 l 0.203,-1.5312 c 0,0 0.196,-1.7696 -1.273,-2.3203 -3.266,-1.2305 -6.996,-2.1094 -11.191,-2.6797 -4.844,-0.6602 -10.137,-0.461 -15.887,0.5703 -5.512,1.0195 -10.551,2.6797 -15.074,5.0391 -4.535,2.3828 -8.278,5.5312 -11.227,9.4532 -2.953,3.93 -4.973,8.687 -6.07,14.34 -1.086,5.597 -0.961,12.168 0.41,19.707 1.379,7.57 3.684,13.922 6.926,19 3.246,5.062 7.164,9.019 11.742,11.871 4.586,2.859 9.734,4.648 15.449,5.398 5.707,0.742 11.746,0.524 18.137,-0.629 4.324,-0.8 8.312,-1.929 11.949,-3.437 2.527,-1.051 4.902,-2.133 7.149,-3.223 3.101,-1.539 2.281,-4.16 2.281,-4.16 l -3.317,-11 c 0,0 -0.793,-2.398 -2.921,-2.051 -1.891,0.332 -3.028,0.551 -3.028,0.551 0,0 -1.621,0.231 -1.808,3.051" /><path
         id="path68"
         style="fill:#ffffff;fill-opacity:1;fill-rule:nonzero;stroke:none"
         d="m 763.238,150.238 c -0.843,2.672 -0.871,3.184 -1.425,5.09 -0.7,2.332 -1.676,3.051 -4.434,3.992 -1.07,0.371 -2.242,0.621 -3.461,0.84 -1.949,0.371 -4.09,0.469 -6.398,0.328 -4.243,-0.238 -8.04,-1.207 -11.383,-2.886 -3.348,-1.68 -6.153,-4.063 -8.422,-7.133 -2.27,-3.09 -3.914,-6.879 -4.977,-11.367 -1.058,-4.493 -1.414,-9.633 -1.066,-15.43 0.726,-12.301 3.812,-21.313 9.242,-26.9728 5.426,-5.6406 13.055,-8.1797 22.895,-7.5976 2.879,0.1797 5.914,0.707 9.105,1.6172 2.731,0.7695 5.809,1.9414 9.316,3.2812 1.825,0.6914 2.356,-0.6602 2.356,-0.6602 l 0.551,-1.4296 c 0,0 0.605,-1.6602 -0.684,-2.5508 -2.89,-1.9805 -6.305,-3.711 -10.242,-5.2578 -4.547,-1.7813 -9.742,-2.8516 -15.578,-3.2032 -5.598,-0.3281 -10.875,0.1016 -15.84,1.3321 -4.961,1.2304 -9.352,3.4179 -13.141,6.5195 -3.793,3.1289 -6.879,7.2891 -9.277,12.461 -2.395,5.238 -3.828,11.641 -4.281,19.277 -0.453,7.692 0.289,14.391 2.242,20.102 1.937,5.68 4.812,10.469 8.594,14.308 3.777,3.852 8.363,6.821 13.734,8.891 5.367,2.07 11.289,3.32 17.766,3.691 4.39,0.27 8.539,0.098 12.425,-0.511 2.704,-0.43 5.278,-0.899 7.704,-1.418 3.379,-0.762 3.211,-3.52 3.211,-3.52 l -0.633,-11.461 c 0,0 -0.192,-2.539 -2.344,-2.679 -1.922,-0.141 -3.07,-0.153 -3.07,-0.153 0,0 -1.629,-0.179 -2.485,2.5" /><path
         id="path70"
         style="fill:#ffffff;fill-opacity:1;fill-rule:nonzero;stroke:none"
         d="m 887.602,176.488 c -1.395,2.461 -1.524,2.922 -2.465,4.66 -1.176,2.172 -2.285,2.641 -5.16,2.993 -1.137,0.16 -2.332,0.14 -3.571,0.097 -1.976,-0.058 -4.093,-0.386 -6.328,-1.019 -4.086,-1.129 -7.598,-2.867 -10.512,-5.207 -2.925,-2.352 -5.175,-5.242 -6.738,-8.731 -1.574,-3.5 -2.394,-7.562 -2.484,-12.152 -0.094,-4.609 0.633,-9.731 2.191,-15.328 3.293,-11.879 8.192,-20.02 14.688,-24.422 6.504,-4.391 14.492,-5.27 23.988,-2.629 2.773,0.762 5.621,1.93 8.562,3.469 2.508,1.351 5.278,3.133 8.418,5.16 1.645,1.07 2.446,-0.141 2.446,-0.141 l 0.832,-1.289 c 0,0 0.941,-1.48 -0.129,-2.629 -2.402,-2.519 -5.383,-4.941 -8.914,-7.269 -4.071,-2.731 -8.918,-4.86 -14.551,-6.422 -5.41,-1.488 -10.656,-2.168 -15.766,-2 -5.117,0.16 -9.859,1.332 -14.222,3.601 -4.364,2.258 -8.258,5.68 -11.692,10.25 -3.441,4.59 -6.175,10.571 -8.211,17.93 -2.078,7.418 -2.746,14.141 -2.043,20.141 0.715,5.969 2.516,11.23 5.403,15.777 2.886,4.57 6.738,8.442 11.554,11.602 4.821,3.129 10.356,5.59 16.61,7.32 4.238,1.18 8.324,1.879 12.246,2.09 2.738,0.16 5.355,0.238 7.84,0.219 3.457,-0.02 3.875,-2.739 3.875,-2.739 l 1.789,-11.34 c 0,0 0.332,-2.519 -1.738,-3.128 -1.844,-0.532 -2.957,-0.801 -2.957,-0.801 0,0 -1.563,-0.512 -2.961,1.937" /><path
         id="path72"
         style="fill:#ffffff;fill-opacity:1;fill-rule:nonzero;stroke:none"
         d="m 991.105,196.781 -36.933,16.739 c -0.766,0.351 -2.047,0.429 -2.844,0.191 l -5.547,-1.723 c -0.804,-0.25 -1.797,0.141 -2.218,0.864 l -0.965,1.718 c -0.414,0.739 -0.16,1.66 0.566,2.09 l 26.582,15.121 c 0.723,0.43 1.66,0.149 2.086,-0.551 l 0.965,-1.742 c 0.418,-0.718 0.246,-1.769 -0.363,-2.34 l -3.301,-3.027 c -0.621,-0.562 -0.5,-1.332 0.254,-1.68 l 26.316,-12.519 3.242,29.379 c 0.094,0.84 -0.488,1.328 -1.285,1.07 l -4.597,-1.441 c -0.805,-0.258 -1.797,0.109 -2.211,0.859 l -0.969,1.699 c -0.426,0.742 -0.16,1.672 0.562,2.082 l 21.045,12 c 0.73,0.41 1.66,0.149 2.08,-0.57 l 0.97,-1.719 c 0.42,-0.722 0.24,-1.781 -0.38,-2.34 l -4.8,-4.222 c -0.64,-0.547 -1.23,-1.68 -1.31,-2.52 l -4.09,-37.359 40.92,-19.051 c 0.76,-0.348 2.04,-0.43 2.84,-0.168 l 5.66,1.758 c 0.79,0.25 1.79,-0.141 2.2,-0.859 l 0.97,-1.719 c 0.42,-0.731 0.16,-1.66 -0.57,-2.071 l -26.67,-15.218 c -0.74,-0.391 -1.66,-0.153 -2.08,0.59 l -0.98,1.699 c -0.42,0.738 -0.24,1.789 0.39,2.34 l 3.58,3.218 c 0.62,0.571 0.52,1.332 -0.24,1.68 l -30.734,14.731 -3.734,-34.372 c -0.098,-0.839 0.488,-1.308 1.281,-1.078 l 4.387,1.328 c 0.8,0.25 1.8,-0.136 2.22,-0.859 l 0.98,-1.719 c 0.41,-0.718 0.15,-1.64 -0.58,-2.07 l -21.148,-12.051 c -0.722,-0.41 -1.66,-0.16 -2.078,0.571 l -0.969,1.699 c -0.421,0.742 -0.242,1.769 0.379,2.34 l 4.813,4.242 c 0.629,0.539 1.223,1.679 1.32,2.5 l 4.988,42.48" /><path
         id="path74"
         style="fill:#ffffff;fill-opacity:1;fill-rule:nonzero;stroke:none"
         d="m 1082.63,309.078 c 0.55,-0.637 0.59,-1.699 0.08,-2.34 l -3.98,-5.136 c -0.51,-0.661 -0.47,-1.743 0.08,-2.364 l 44.26,-50.179 c 0.55,-0.618 1.6,-0.797 2.33,-0.368 l 5.58,3.297 c 0.71,0.434 1.76,0.282 2.31,-0.367 l 1.31,-1.461 c 0.55,-0.629 0.49,-1.601 -0.13,-2.148 l -22.76,-20.082 c -0.64,-0.551 -1.6,-0.508 -2.16,0.14 l -1.3,1.461 c -0.55,0.629 -0.58,1.699 -0.07,2.348 l 3.98,5.133 c 0.51,0.668 0.47,1.718 -0.08,2.367 l -44.26,50.172 c -0.55,0.629 -1.6,0.801 -2.32,0.371 l -5.59,-3.301 c -0.73,-0.43 -1.77,-0.25 -2.32,0.367 l -1.31,1.473 c -0.55,0.641 -0.49,1.598 0.14,2.148 l 22.76,20.071 c 0.63,0.57 1.6,0.492 2.15,-0.129 l 1.3,-1.473" /><path
         id="path76"
         style="fill:#ffffff;fill-opacity:1;fill-rule:nonzero;stroke:none"
         d="m 276.211,1103.96 c -0.574,-0.62 -1.012,-1 -1.012,-1 l -24.16,22.86 4.328,4.48 c 0.578,0.62 1.543,1.59 2.145,2.17 0,0 2.633,2.58 4.492,3.95 1.848,1.37 3.75,2.26 5.684,2.68 1.937,0.4 3.929,0.27 5.98,-0.41 2.047,-0.68 4.168,-2.08 6.367,-4.16 4.793,-4.57 7.07,-9.02 6.805,-13.34 -0.258,-4.32 -5.75,-11.83 -5.75,-11.83 -0.492,-0.68 -1.379,-1.73 -1.949,-2.33 z m 51.641,-8.5 c 0.82,-0.14 1.968,0.22 2.543,0.84 l 12.656,13.29 c 0.57,0.62 0.554,1.57 -0.059,2.15 l -1.426,1.37 c -0.613,0.59 -1.668,0.66 -2.355,0.19 l -4.82,-3.35 c -0.684,-0.49 -1.926,-0.77 -2.754,-0.63 l -37.774,6.14 c -0.832,0.14 -1.218,0.86 -0.867,1.63 0,0 4.633,9.96 4.445,15.15 -0.191,5.19 -2.507,9.9 -6.957,14.14 -3.183,3.01 -6.382,4.77 -9.609,5.27 -3.234,0.48 -6.379,0.14 -9.453,-1.01 -3.078,-1.13 -6.035,-2.85 -8.887,-5.16 -2.851,-2.29 -6.89,-6.27 -6.89,-6.27 -0.59,-0.58 -1.563,-1.56 -2.137,-2.17 l -22.223,-23.34 c -0.57,-0.62 -0.555,-1.59 0.055,-2.16 l 1.43,-1.36 c 0.609,-0.58 1.664,-0.66 2.347,-0.17 l 5.336,3.83 c 0.68,0.49 1.735,0.41 2.34,-0.16 l 48.602,-46.26 c 0.601,-0.58 0.73,-1.62 0.285,-2.33 l -3.567,-5.52 c -0.461,-0.7 -0.332,-1.75 0.278,-2.33 l 1.433,-1.38 c 0.61,-0.57 1.571,-0.54 2.153,0.07 l 20.82,21.87 c 0.578,0.6 0.555,1.58 -0.047,2.16 l -1.441,1.38 c -0.61,0.56 -1.657,0.64 -2.344,0.14 l -5.242,-3.74 c -0.692,-0.48 -1.746,-0.42 -2.352,0.17 l -22.391,21.3 3.317,3.5 c 0.578,0.59 1.726,0.97 2.551,0.81 l 43.004,-8.06" /></g></g></svg>