<?xml version="1.0" encoding="utf-8"?>
<!DOCTYPE svg PUBLIC "-//W3C//DTD SVG 1.1//EN" "http://www.w3.org/Graphics/SVG/1.1/DTD/svg11.dtd">
<svg width="175px" height="30px" viewBox="0 0 175 30" version="1.1" xmlns="http://www.w3.org/2000/svg" xmlns:xlink="http://www.w3.org/1999/xlink" xml:space="preserve" x="0px" y="0px">
    <g stroke="none" stroke-width="1" fill="#000" fill-rule="evenodd">
        <g class="text" transform="translate(35.882353, 6.470588)">
            <path d="M6.60705882,13.1935294 L6.60705882,8.56294118 L2.75529412,8.56294118 L2.75529412,13.1935294 L0.322352941,13.1935294 L0.322352941,2.06058824 L2.75529412,2.06058824 L2.75529412,6.33588235 L6.60705882,6.33588235 L6.60705882,2.06058824 L9.03882353,2.06058824 L9.03882353,13.1929412 L6.60705882,13.1929412 L6.60705882,13.1935294 L6.60705882,13.1935294 Z"></path>
            <path d="M14.5264706,13.3752941 C14.2941176,13.3752941 14.0276471,13.3429412 13.8264706,13.31 L13.2023529,14.9770588 L11.8917647,14.5494118 L12.4864706,12.93 C11.3929412,12.3205882 10.8011765,11.0847059 10.8011765,9.28529412 C10.8011765,6.55 12.5476471,4.82 14.9011765,4.82 C15.0588235,4.82 15.2611765,4.82 15.4629412,4.85294118 L16.0252941,3.31647059 L17.3505882,3.72882353 L16.8041176,5.21294118 C17.8188235,5.77294118 18.6123529,6.86058824 18.6123529,8.92235294 C18.6129412,11.5982353 16.8505882,13.3752941 14.5264706,13.3752941 L14.5264706,13.3752941 L14.5264706,13.3752941 Z M14.3411765,6.87882353 C13.6711765,7.04352941 13.0452941,7.60529412 13.0452941,9.00470588 C13.0452941,9.61470588 13.14,10.2270588 13.3735294,10.5670588 L14.73,6.84705882 C14.6070588,6.83058824 14.4647059,6.84764706 14.3411765,6.87882353 L14.3411765,6.87882353 L14.3411765,6.87882353 Z M15.9623529,7.43882353 L14.5441176,11.3023529 C14.6829412,11.3176471 14.8394118,11.33 14.9941176,11.3176471 C15.7441176,11.1976471 16.3817647,10.5229412 16.3817647,9.08588235 C16.3823529,8.36294118 16.2429412,7.86882353 15.9623529,7.43882353 L15.9623529,7.43882353 L15.9623529,7.43882353 Z"></path>
            <path d="M23.2911765,17.2829412 C21.1705882,17.2829412 19.9217647,16.4770588 19.9217647,14.8417647 C19.9217647,14.0676471 20.4529412,13.2635294 21.0441176,12.9305882 C20.5941176,12.7041176 20.2976471,12.2382353 20.2976471,11.6605882 C20.2976471,11.0011765 20.7023529,10.3747059 21.2470588,10.1464706 C20.5458824,9.74647059 20.0782353,8.99 20.0782353,7.93588235 C20.0782353,6.25529412 21.2470588,4.80176471 23.6035294,4.80176471 C24.1329412,4.80176471 24.5235294,4.88294118 24.9588235,5 L27.5941176,5 L27.5941176,6.97823529 L26.7064706,6.97823529 C26.8452941,7.14647059 26.9241176,7.40647059 26.9241176,7.70176471 C26.9241176,9.48411765 25.8029412,10.64 23.5705882,10.64 C23.4011765,10.64 23.2764706,10.6205882 23.1047059,10.5888235 C22.9164706,10.6870588 22.8235294,10.87 22.8235294,11.0005882 C22.8235294,11.3476471 23.0582353,11.3958824 23.9305882,11.4288235 L24.9758824,11.4788235 C26.6435294,11.5476471 27.6405882,12.2711765 27.6405882,13.9205882 C27.6411765,15.7011765 25.9576471,17.2829412 23.2911765,17.2829412 L23.2911765,17.2829412 L23.2911765,17.2829412 Z M24.3188235,13.39 L23.0905882,13.3594118 C22.9958824,13.3435294 22.8729412,13.3594118 22.7923529,13.3435294 C22.4494118,13.6394118 22.2458824,14.0035294 22.2458824,14.3688235 C22.2458824,14.9770588 22.7617647,15.3847059 23.6364706,15.3847059 C24.7429412,15.3847059 25.3029412,14.8935294 25.3029412,14.2476471 C25.3023529,13.7905882 25.0376471,13.4247059 24.3188235,13.39 L24.3188235,13.39 L24.3188235,13.39 Z M23.5094118,6.61294118 C22.7770588,6.61294118 22.3570588,7.09647059 22.3570588,7.76705882 C22.3570588,8.49705882 22.7464706,8.94 23.5258824,8.94 C24.2429412,8.94 24.68,8.51235294 24.68,7.80176471 C24.68,7.09647059 24.2888235,6.61294118 23.5094118,6.61294118 L23.5094118,6.61294118 L23.5094118,6.61294118 Z"></path>
            <path d="M30.7923529,13.3752941 C30.1829412,13.3752941 29.5747059,13.2935294 29.0764706,13.1447059 L29.2029412,11.1011765 C29.6705882,11.3176471 30.2452941,11.4282353 30.8229412,11.4282353 C31.4147059,11.4282353 31.7741176,11.1817647 31.7741176,10.7858824 C31.7741176,9.58529412 28.92,10.2582353 28.92,7.53705882 C28.92,6.03588235 29.9805882,4.80117647 32.35,4.80117647 C32.7694118,4.80117647 33.2711765,4.86529412 33.7064706,4.94705882 L33.63,6.91058824 C33.2388235,6.76411765 32.7405882,6.69882353 32.2876471,6.69882353 C31.6805882,6.69882353 31.4,6.94647059 31.4,7.32352941 C31.4,8.41529412 34.3011765,7.95352941 34.3011765,10.5682353 C34.3011765,12.3047059 32.8964706,13.3752941 30.7923529,13.3752941 L30.7923529,13.3752941 L30.7923529,13.3752941 Z"></path>
            <path d="M40.5835294,13.1935294 L38.48,9.25235294 L38.48,13.1935294 L36.1094118,13.1935294 L36.1094118,1.15529412 L38.48,1.15529412 L38.48,8.29470588 L40.4435294,4.99941176 L43.3605882,4.99941176 L40.8029412,8.75823529 L43.5470588,13.1929412 L40.5835294,13.1929412 L40.5835294,13.1935294 L40.5835294,13.1935294 Z"></path>
            <path d="M47.8817647,13.3752941 C45.6364706,13.3752941 44.1558824,12.2052941 44.1558824,9.28529412 C44.1558824,6.61294118 45.8870588,4.82 48.2558824,4.82 C50.6105882,4.82 51.9676471,6.20411765 51.9676471,8.92235294 C51.9676471,11.5776471 50.2205882,13.3752941 47.8817647,13.3752941 L47.8817647,13.3752941 L47.8817647,13.3752941 Z M48.0994118,6.96058824 C47.3505882,6.96058824 46.6182353,7.57352941 46.6182353,9.00529412 C46.6182353,10.5070588 47.0711765,11.1988235 48.0541176,11.1988235 C48.9117647,11.1988235 49.5023529,10.4417647 49.5023529,9.07 C49.5029412,7.67117647 49.0823529,6.96058824 48.0994118,6.96058824 L48.0994118,6.96058824 L48.0994118,6.96058824 Z"></path>
            <path d="M53.7305882,13.1935294 L53.7305882,1.15529412 L56.0994118,1.15529412 L56.0994118,13.1929412 L53.7305882,13.1929412 L53.7305882,13.1935294 L53.7305882,13.1935294 Z"></path>
            <path d="M64.9123529,9.73 L60.2952941,9.73 C60.3111765,10.8052941 60.9347059,11.4288235 62.2129412,11.4288235 C62.9605882,11.4288235 63.7411765,11.2682353 64.4894118,10.9194118 L64.7223529,12.8123529 C63.8329412,13.1935294 62.7747059,13.3758824 61.8223529,13.3758824 C59.2941176,13.3758824 57.8923529,12.0723529 57.8923529,9.18588235 C57.8923529,6.66529412 59.2176471,4.80176471 61.6194118,4.80176471 C63.96,4.80176471 64.9882353,6.46764706 64.9882353,8.60882353 C64.9882353,8.95588235 64.9570588,9.31882353 64.9123529,9.73 L64.9123529,9.73 L64.9123529,9.73 Z M61.5576471,6.63411765 C60.8723529,6.63411765 60.3729412,7.20941176 60.2952941,8.06823529 L62.65,8.06823529 C62.6805882,7.12529412 62.2452941,6.63411765 61.5576471,6.63411765 L61.5576471,6.63411765 L61.5576471,6.63411765 Z"></path>
            <path d="M71.4594118,13.1935294 L71.4594118,7.98529412 C71.4594118,7.32352941 71.2858824,6.93117647 70.7423529,6.93117647 C69.8988235,6.93117647 69.1970588,8.03411765 69.1970588,9.22 L69.1970588,13.1935294 L66.8282353,13.1935294 L66.8282353,5 L69.0423529,5 C69.0423529,5.31235294 69.0270588,5.89058824 68.9464706,6.28647059 L68.9647059,6.30117647 C69.4464706,5.44 70.3047059,4.82 71.5370588,4.82 C73.2652941,4.82 73.8288235,6.00529412 73.8288235,7.42529412 L73.8288235,13.1935294 L71.4594118,13.1935294 L71.4594118,13.1935294 Z"></path>
            <path d="M81.0488235,4.04117647 C80.2552941,4.04117647 79.5982353,3.38294118 79.5982353,2.55588235 C79.5982353,1.75058824 80.2552941,1.07647059 81.0488235,1.07647059 C81.8588235,1.07647059 82.5164706,1.73352941 82.5164706,2.55588235 C82.5164706,3.38294118 81.8588235,4.04117647 81.0488235,4.04117647 L81.0488235,4.04117647 L81.0488235,4.04117647 Z M79.8647059,13.1935294 L79.8647059,5 L82.2352941,5 L82.2352941,13.1935294 L79.8647059,13.1935294 L79.8647059,13.1935294 Z"></path>
            <path d="M92.62,13.4076471 C92.3405882,13.4076471 92.1052941,13.39 91.8552941,13.3435294 L91.34,14.9470588 L89.5941176,14.3694118 L90.0952941,12.8329412 C88.5188235,11.9582353 87.7829412,10.1111765 87.7829412,7.76823529 C87.7829412,4.14352941 90.11,1.85 93.0094118,1.85 C93.2123529,1.85 93.4152941,1.87 93.6335294,1.90176471 L94.1152941,0.381764706 L95.88,0.946470588 L95.4117647,2.37647059 C96.8758824,3.13823529 97.8594118,4.73529412 97.8594118,7.47352941 C97.8594118,11.1347059 95.5823529,13.4076471 92.62,13.4076471 L92.62,13.4076471 L92.62,13.4076471 Z M92.1688235,4.24294118 C91.0923529,4.52352941 90.2517647,5.62588235 90.2517647,7.55764706 C90.2517647,8.75882353 90.4847059,9.66588235 90.9358824,10.1758824 L92.9305882,4.14294118 C92.6811765,4.14235294 92.4335294,4.15941176 92.1688235,4.24294118 L92.1688235,4.24294118 L92.1688235,4.24294118 Z M94.5994118,4.90117647 L92.5582353,11.1023529 C92.7441176,11.1352941 92.93,11.1352941 93.1323529,11.1170588 C94.2723529,10.9541176 95.3964706,9.92823529 95.3964706,7.62352941 C95.3964706,6.43588235 95.1294118,5.42705882 94.5994118,4.90117647 L94.5994118,4.90117647 L94.5994118,4.90117647 Z"></path>
            <path d="M101.087647,13.3752941 C100.478824,13.3752941 99.8729412,13.2935294 99.3723529,13.1447059 L99.4970588,11.1011765 C99.9641176,11.3176471 100.541176,11.4282353 101.117059,11.4282353 C101.712353,11.4282353 102.068824,11.1817647 102.068824,10.7858824 C102.068824,9.58529412 99.2152941,10.2582353 99.2152941,7.53705882 C99.2152941,6.03588235 100.277059,4.80117647 102.646471,4.80117647 C103.067059,4.80117647 103.567647,4.86529412 104.002353,4.94705882 L103.924118,6.91058824 C103.535294,6.76411765 103.037647,6.69882353 102.584706,6.69882353 C101.975882,6.69882353 101.694706,6.94647059 101.694706,7.32352941 C101.694706,8.41529412 104.595882,7.95352941 104.595882,10.5682353 C104.595294,12.3047059 103.194118,13.3752941 101.087647,13.3752941 L101.087647,13.3752941 L101.087647,13.3752941 Z"></path>
            <path d="M109.15,13.3752941 C107.357059,13.3752941 106.779412,12.7476471 106.779412,10.7388235 L106.779412,6.93117647 L105.611176,6.93117647 L105.611176,5 L106.779412,5 L106.779412,2.57705882 L109.165294,1.90058824 L109.165294,5 L110.833529,5 L110.833529,6.93117647 L109.165294,6.93117647 L109.165294,10.1623529 C109.165294,11.0011765 109.368824,11.2811765 109.96,11.2811765 C110.239412,11.2811765 110.505294,11.2347059 110.771176,11.1664706 L110.911176,13.1294118 C110.381176,13.2782353 109.710588,13.3752941 109.15,13.3752941 L109.15,13.3752941 L109.15,13.3752941 Z"></path>
            <path d="M117.352353,3.18588235 C117.072353,3.08647059 116.76,3.03588235 116.495294,3.03588235 C115.776471,3.03588235 115.447647,3.39882353 115.447647,4.27588235 L115.447647,5 L117.037647,5 L117.037647,6.93117647 L115.447647,6.93117647 L115.447647,13.1935294 L113.078824,13.1935294 L113.078824,6.93117647 L111.894118,6.93117647 L111.894118,5 L113.078824,5 L113.078824,4.29117647 C113.078824,2.11470588 113.997647,1.01 116.26,1.01 C116.662941,1.01 117.104706,1.04529412 117.506471,1.14058824 L117.352353,3.18588235 L117.352353,3.18588235 Z"></path>
            <path d="M121.654118,13.3752941 C119.410588,13.3752941 117.928824,12.2052941 117.928824,9.28529412 C117.928824,6.61294118 119.658824,4.82 122.032353,4.82 C124.386471,4.82 125.741765,6.20411765 125.741765,8.92235294 C125.741176,11.5776471 123.994118,13.3752941 121.654118,13.3752941 L121.654118,13.3752941 L121.654118,13.3752941 Z M121.874706,6.96058824 C121.126471,6.96058824 120.395882,7.57352941 120.395882,9.00529412 C120.395882,10.5070588 120.846471,11.1988235 121.83,11.1988235 C122.685882,11.1988235 123.28,10.4417647 123.28,9.07 C123.279412,7.67117647 122.858235,6.96058824 121.874706,6.96058824 L121.874706,6.96058824 L121.874706,6.96058824 Z"></path>
            <path d="M127.505294,13.1935294 L127.505294,1.15529412 L129.872941,1.15529412 L129.872941,13.1929412 L127.505294,13.1929412 L127.505294,13.1935294 L127.505294,13.1935294 Z"></path>
            <path d="M136.795294,13.1935294 C136.795294,12.8464706 136.814118,12.4358824 136.878235,12.0252941 L136.845882,12.0252941 C136.424706,12.8123529 135.645294,13.39 134.490588,13.39 C132.619412,13.39 131.667647,11.8894118 131.667647,9.54882353 C131.667647,6.86117647 133.181765,4.83470588 135.832941,4.83470588 C136.097059,4.83470588 136.361765,4.85294118 136.610588,4.88294118 L136.610588,1.15588235 L138.981765,1.15588235 L138.981765,13.1935294 L136.795294,13.1935294 L136.795294,13.1935294 Z M136.610588,6.93117647 C136.345882,6.86117647 136.08,6.83117647 135.800588,6.83117647 C134.879412,6.83117647 134.175882,7.45705882 134.175882,9.28588235 C134.175882,10.6576471 134.520588,11.3035294 135.253529,11.3035294 C136.049412,11.3035294 136.610588,10.3117647 136.610588,8.94058824 L136.610588,6.93117647 L136.610588,6.93117647 Z"></path>
        </g>
        <g class="circle">
            <path d="M8.02,19.6358824 L11.4947059,19.6358824 L16.2870588,6.55529412 L12.8117647,6.55529412 L8.02,19.6358824 L8.02,19.6358824 Z"></path>
            <path d="M21.5982353,1.68294118 L20.4682353,4.75117647 C23.9341176,6.73588235 26.2717647,10.47 26.2717647,14.7505882 C26.2717647,21.1111765 21.1135294,26.2729412 14.7505882,26.2729412 C8.38764706,26.2729412 3.22941176,21.1117647 3.22941176,14.7505882 C3.22941176,8.38882353 8.38764706,3.22823529 14.7505882,3.22823529 C15.6758824,3.22823529 16.5741176,3.34117647 17.4358824,3.54823529 L18.5594118,0.497058824 C17.3441176,0.174705882 16.0682353,0 14.75,0 C6.60470588,0 0,6.60294118 0,14.7505882 C0,22.8982353 6.60470588,29.5011765 14.75,29.5011765 C22.8976471,29.5011765 29.5011765,22.8976471 29.5011765,14.7505882 C29.5011765,9.07705882 26.2976471,4.15235294 21.5982353,1.68294118 L21.5982353,1.68294118 L21.5982353,1.68294118 Z"></path>
            <path d="M15.0358824,19.6358824 L18.5105882,19.6358824 L21.5017647,11.4458824 L18.0270588,11.4458824 L15.0358824,19.6358824 L15.0358824,19.6358824 Z"></path>
        </g>
    </g>
</svg>
