<svg xmlns="http://www.w3.org/2000/svg" id="logo_nsm" viewBox="0 0 408.9 60.9"><path class="logo_nsm_part2" id="logo_nsm_part2" d="M9.1,55.3l4,1.9V30.4h-4Zm9.2,4.5,1.9,1,2-1V30.4H18.3Zm9.1-2.6,4-1.9V30.4h-4Zm9.2-26.8V52.7l3.9-2V30.4ZM0,50.7l3.9,2V30.4H0Z" transform="translate(0 0)"/><path class="logo_nsm_part1" id="logo_nsm_part1" d="M173.4,48.6a4.359,4.359,0,0,1-.6-.7,5.494,5.494,0,0,1-.6-.8l-2-2.9a2.644,2.644,0,0,0-.5-.6,4.2,4.2,0,0,0-.7-.5l1.9-3a5.248,5.248,0,0,1,.8-1.1,2.1,2.1,0,0,1,.8-.6,1.6,1.6,0,0,1,.8-.3,1.7,1.7,0,0,1,.7-.1V36.7h-4.8v1.5l1.3-.1-.3.3c-.1.2-.2.3-.3.5a2.092,2.092,0,0,0-.4.6,2.092,2.092,0,0,0-.4.6l-1.5,2.6h-1.7V39.9a2.214,2.214,0,0,1,.1-.9,2.191,2.191,0,0,1,.3-.5.517.517,0,0,1,.4-.2,1.261,1.261,0,0,1,.6-.1V36.9h-5.7v1.5l1.5-.1v9.3a2.214,2.214,0,0,1-.1.9,2.191,2.191,0,0,1-.3.5c-.1.1-.2.1-.4.2a1.261,1.261,0,0,1-.6.1v1.3h5.7V49.1l-1.5.1V44.5h.7l.3.3.3.3c.1.1.2.3.3.4s.2.3.3.4l1.9,2.8c.2.2.3.4.5.6l.6.6c.2.2.3.4.5.5s.3.2.4.2h3.1V49.3a1.448,1.448,0,0,1-.7-.2A4.2,4.2,0,0,1,173.4,48.6ZM163.2,21.8a2.933,2.933,0,0,0,.4-1.6,5.028,5.028,0,0,0-.2-1.2,3.131,3.131,0,0,0-.5-1,3.044,3.044,0,0,0-.8-.8,6.084,6.084,0,0,0-1-.7,9.143,9.143,0,0,0-1-.5c-.3-.1-.7-.3-1-.4-.5-.2-1-.4-1.4-.6a8.88,8.88,0,0,1-1-.6,1.9,1.9,0,0,1-.8-1.5,1.448,1.448,0,0,1,.2-.7c.1-.2.3-.3.5-.5a1.622,1.622,0,0,1,.7-.4,1.941,1.941,0,0,1,.8-.1,3.371,3.371,0,0,1,2.3.8,4.208,4.208,0,0,1,1.2,2.5h1.3V9.9h-1.5l.1.8a4.291,4.291,0,0,0-.7-.4l-.9-.3c-.3-.1-.6-.1-.9-.2a2.21,2.21,0,0,0-.8-.1,7.767,7.767,0,0,0-1.6.2,3.357,3.357,0,0,0-1.2.4,2.179,2.179,0,0,0-.9.7,2.106,2.106,0,0,0-.6.8l-.3.9a1.941,1.941,0,0,0-.1.8,4.677,4.677,0,0,0,.3,1.7,3.806,3.806,0,0,0,.9,1.3,7.082,7.082,0,0,0,1.4,1c.6.3,1.2.5,1.8.8a7.691,7.691,0,0,1,1.1.4,3.131,3.131,0,0,1,1,.5,2.336,2.336,0,0,1,.7.7,1.617,1.617,0,0,1,.3.9,1.866,1.866,0,0,1-.2.7,2.644,2.644,0,0,1-.5.6,3,3,0,0,1-.8.4,3.066,3.066,0,0,1-1,.1c-.5,0-.9-.1-1.1-.1a2.376,2.376,0,0,1-1.1-.6,2.725,2.725,0,0,1-.8-1,3.806,3.806,0,0,1-.5-1.5h-1.3V24h1.5l-.1-.8a5.971,5.971,0,0,0,.8.4l.9.3a2.93,2.93,0,0,0,.9.2,2.21,2.21,0,0,0,.8.1,6.639,6.639,0,0,0,2.1-.3,4.019,4.019,0,0,0,1.6-.8A4.124,4.124,0,0,0,163.2,21.8ZM157,48.6a4.359,4.359,0,0,1-.6-.7,5.494,5.494,0,0,1-.6-.8l-2-2.9a2.644,2.644,0,0,0-.5-.6,4.2,4.2,0,0,0-.7-.5l1.9-3a5.248,5.248,0,0,1,.8-1.1,2.1,2.1,0,0,1,.8-.6,1.6,1.6,0,0,1,.8-.3,1.7,1.7,0,0,1,.7-.1V36.7h-4.8v1.5l1.3-.1-.3.3c-.1.2-.2.3-.3.5a2.092,2.092,0,0,0-.4.6,2.092,2.092,0,0,0-.4.6l-1.5,2.6h-1.8V39.9a2.214,2.214,0,0,1,.1-.9,2.191,2.191,0,0,1,.3-.5.517.517,0,0,1,.4-.2,1.261,1.261,0,0,1,.6-.1V36.9h-5.7v1.5l1.5-.1v9.3a2.214,2.214,0,0,1-.1.9,2.191,2.191,0,0,1-.3.5c-.1.1-.2.1-.4.2a1.261,1.261,0,0,1-.6.1v1.3h5.7V49.1l-1.5.1V44.5h.7l.3.3.3.3c.1.1.2.3.3.4s.2.3.3.4l2,2.8c.2.2.3.4.5.6l.6.6c.2.2.3.4.5.5s.3.2.4.2h3.1V49.3a1.448,1.448,0,0,1-.7-.2A4.2,4.2,0,0,1,157,48.6Zm30.6-1.1a2.4,2.4,0,0,1-1.4,1.4,2.79,2.79,0,0,1-.9.1h-2.7V44l.4.1h.8a1.419,1.419,0,0,1,.6.2,1,1,0,0,1,.4.5,2.954,2.954,0,0,1,.2,1h1.2V41h-1.5l.1,1.7h-2.3v-3a2.214,2.214,0,0,1,.1-.9,2.191,2.191,0,0,1,.3-.5c.1-.1.2-.1.4-.2a1.261,1.261,0,0,1,.6-.1h.7a2.487,2.487,0,0,1,.8.1,2.013,2.013,0,0,1,.8.4,2.407,2.407,0,0,1,.6.8,4.442,4.442,0,0,1,.2,1.3h1.5l-.1-3.8h-9.9v1.5l1.5-.1v9.3a2.214,2.214,0,0,1-.1.9,2.191,2.191,0,0,1-.3.5.517.517,0,0,1-.4.2,1.261,1.261,0,0,1-.6.1v1.3H189l.1-4.4h-1.3A5.216,5.216,0,0,1,187.6,47.5Zm3-34.1a5.986,5.986,0,0,0-.9-1.5,15.369,15.369,0,0,0-1.3-1.2,6.726,6.726,0,0,0-1.7-.8,7.828,7.828,0,0,0-2.2-.3,7.078,7.078,0,0,0-2.1.3,8.911,8.911,0,0,0-1.7.8,4.89,4.89,0,0,0-1.3,1.2,12.95,12.95,0,0,0-1,1.5,5.773,5.773,0,0,0-.6,1.7,9.824,9.824,0,0,0-.2,1.7,9.652,9.652,0,0,1,0,1.7,8.461,8.461,0,0,0,.5,1.7,5.986,5.986,0,0,0,.9,1.5,7.436,7.436,0,0,0,1.3,1.2,7.46,7.46,0,0,0,1.8.8,8.544,8.544,0,0,0,2.3.3,7.078,7.078,0,0,0,2.1-.3,8.911,8.911,0,0,0,1.7-.8,4.89,4.89,0,0,0,1.3-1.2,12.95,12.95,0,0,0,1-1.5,5.773,5.773,0,0,0,.6-1.7,11.169,11.169,0,0,0,.2-1.7,9.824,9.824,0,0,0-.2-1.7A8.461,8.461,0,0,0,190.6,13.4Zm-2.3,5.2-.3,1.2c-.2.4-.3.7-.5,1.1a7.162,7.162,0,0,1-.7.9,3.485,3.485,0,0,1-.9.6,3.739,3.739,0,0,1-1.2.2,2.768,2.768,0,0,1-1.3-.3,2.28,2.28,0,0,1-1-.7,10.431,10.431,0,0,1-.7-1.1,6.941,6.941,0,0,1-.5-1.3c-.1-.5-.2-.9-.3-1.4a5.724,5.724,0,0,1-.1-1.3,1.966,1.966,0,0,1,.1-.9c.1-.5.2-.9.3-1.3.2-.4.3-.8.5-1.2a3.592,3.592,0,0,1,.7-1,3.065,3.065,0,0,1,1-.7,3.739,3.739,0,0,1,1.2-.2,3.374,3.374,0,0,1,1.7.5,3.739,3.739,0,0,1,1.2,1.3,6.894,6.894,0,0,1,.7,1.9,19.546,19.546,0,0,1,.2,2.5A4.881,4.881,0,0,1,188.3,18.6Zm220.5,18v-.1H396.9l-.1,4.5h1.3a3.808,3.808,0,0,1,.7-2.4,2.343,2.343,0,0,1,1.8-.8h.9v9.5a2.214,2.214,0,0,1-.1.9,2.191,2.191,0,0,1-.3.5.517.517,0,0,1-.4.2,1.261,1.261,0,0,1-.6.1v1.3h5.8V48.8l-1.6.1v-11h.9a2.2,2.2,0,0,1,1.8.8,4.266,4.266,0,0,1,.6,2.4h1.3ZM167,23.4c.3.1.6.3.9.4a3.586,3.586,0,0,0,1.1.2,4.846,4.846,0,0,0,1.8-.3,3.047,3.047,0,0,0,1.3-.9,4.471,4.471,0,0,0,.8-1.7,7.818,7.818,0,0,0,.3-2.4V13a2.214,2.214,0,0,1,.1-.9,2.191,2.191,0,0,1,.3-.5.517.517,0,0,1,.4-.2,1.261,1.261,0,0,1,.6-.1V10h-5.7v1.5l1.5-.1V21c0,.6,0,1-.2,1.2a.755.755,0,0,1-.7.4h-.1c-.1-.1-.1-.1-.2-.1s-.1-.1-.2-.1c0-.1-.1-.1-.1-.2s.1-.2.1-.3v-.3a.9.9,0,0,0-.1-.5.762.762,0,0,0-.2-.4,1.369,1.369,0,0,0-.4-.3,1.854,1.854,0,0,0-1.2,0,1,1,0,0,0-.5.4,2.191,2.191,0,0,0-.3.5,1.273,1.273,0,0,0-.1.6,2.36,2.36,0,0,0,.2.8A1.342,1.342,0,0,0,167,23.4ZM80.4,60.9h1.2V0H80.4ZM392.3,47.5a2.4,2.4,0,0,1-1.4,1.4,2.79,2.79,0,0,1-.9.1h-2.7V44l.2.1h.8a1.423,1.423,0,0,1,.6.2.7.7,0,0,1,.4.5,2.954,2.954,0,0,1,.2,1h1.3V41h-1.5l.1,1.7h-2.3v-3a2.214,2.214,0,0,1,.1-.9,2.191,2.191,0,0,1,.3-.5c.1-.1.2-.1.4-.2a1.261,1.261,0,0,1,.6-.1h.7a2.487,2.487,0,0,1,.8.1,2.013,2.013,0,0,1,.8.4,2.407,2.407,0,0,1,.6.8,4.442,4.442,0,0,1,.2,1.3h1.3l-.1-3.8h-9.9v1.5l1.5-.1v9.3a2.214,2.214,0,0,1-.1.9,2.191,2.191,0,0,1-.3.5.517.517,0,0,1-.4.2,1.261,1.261,0,0,1-.6.1v1.3h10.7l.1-4.4h-1.3A2.964,2.964,0,0,1,392.3,47.5ZM145,22.4v1.1h5.4V22l-1.1.1c0-.2-.1-.3-.1-.5-.1-.2-.1-.4-.2-.6s-.1-.3-.2-.5c0-.2-.1-.3-.1-.4L144.5,9.3h-1.4l-3.9,10.6-.3.9a4.291,4.291,0,0,1-.4.7,1.205,1.205,0,0,1-.5.5,1.448,1.448,0,0,1-.7.2v1.4h4.2V22l-1.4.1c.1-.1.1-.3.2-.4s.1-.2.2-.4a.762.762,0,0,0,.2-.4c0-.1.1-.2.1-.3l.3-.9,4.3-.1.2,1c.1.2.2.3.2.5a1.078,1.078,0,0,1,.1.5.843.843,0,0,1-.2.6A.959.959,0,0,1,145,22.4Zm-3.4-4.2.9-2.6c.2-.6.4-1.2.5-1.6a8.715,8.715,0,0,1,.2-1c.1.4.2.8.3,1.3.2.4.3.9.5,1.4l.9,2.5ZM131.2,44.8a3.044,3.044,0,0,0-.8-.8,6.084,6.084,0,0,0-1-.7,9.143,9.143,0,0,0-1-.5c-.3-.1-.7-.3-1-.4-.5-.2-1-.4-1.4-.6a8.88,8.88,0,0,1-1-.6,1.9,1.9,0,0,1-.8-1.5,1.448,1.448,0,0,1,.2-.7c.1-.2.3-.3.5-.5a1.622,1.622,0,0,1,.7-.4,1.941,1.941,0,0,1,.8-.1,3.371,3.371,0,0,1,2.3.8,4.208,4.208,0,0,1,1.2,2.5h1.3V36.7h-1.5l.1.8a4.291,4.291,0,0,0-.7-.4l-.9-.3a2.93,2.93,0,0,0-.9-.2,2.21,2.21,0,0,0-.8-.1,7.767,7.767,0,0,0-1.6.2,3.357,3.357,0,0,0-1.2.4,3.1,3.1,0,0,0-.9.7,2.106,2.106,0,0,0-.6.8l-.3.9a1.941,1.941,0,0,0-.1.8,4.677,4.677,0,0,0,.3,1.7,3.806,3.806,0,0,0,.9,1.3,7.082,7.082,0,0,0,1.4,1c.6.3,1.2.5,1.8.8a7.691,7.691,0,0,1,1.1.4,3.131,3.131,0,0,1,1,.5,2.336,2.336,0,0,1,.7.7,1.617,1.617,0,0,1,.3.9,1.866,1.866,0,0,1-.2.7,2.644,2.644,0,0,1-.5.6,3,3,0,0,1-.8.4,3.066,3.066,0,0,1-1,.1c-.5,0-.9-.1-1.1-.1a2.376,2.376,0,0,1-1.1-.6,2.725,2.725,0,0,1-.8-1,3.8,3.8,0,0,1-.5-1.5H122v4.6h1.5l-.1-.8a5.971,5.971,0,0,0,.8.4l.9.3a2.93,2.93,0,0,0,.9.2,2.21,2.21,0,0,0,.8.1,6.639,6.639,0,0,0,2.1-.3,4.019,4.019,0,0,0,1.6-.8,4.124,4.124,0,0,0,1-1.3,2.933,2.933,0,0,0,.4-1.6,5.028,5.028,0,0,0-.2-1.2A3.131,3.131,0,0,0,131.2,44.8Zm-.6-33.2,1.5-.1v8a5.494,5.494,0,0,1-.6-.8c-.2-.3-.5-.7-.8-1.1l-6-7.6h-3.1v1.5l1.5-.1v9.3a2.214,2.214,0,0,1-.1.9,2.191,2.191,0,0,1-.3.5.517.517,0,0,1-.4.2,1.261,1.261,0,0,1-.6.1v1.1h4.5V22l-1.5.1V14.3c.4.6.8,1.1,1.1,1.5l6.3,8.1h1.6V13.1a2.214,2.214,0,0,1,.1-.9,2.191,2.191,0,0,1,.3-.5.517.517,0,0,1,.4-.2,1.261,1.261,0,0,1,.6-.1V10.1h-4.5Zm9.1,28a2.214,2.214,0,0,1,.1-.9,2.191,2.191,0,0,1,.3-.5c.1-.1.2-.1.4-.2a1.261,1.261,0,0,1,.6-.1V36.6h-5.7v1.5l1.5-.1v9.3a2.214,2.214,0,0,1-.1.9,2.191,2.191,0,0,1-.3.5.517.517,0,0,1-.4.2,1.261,1.261,0,0,1-.6.1v1.3h5.7V48.8l-1.5.1Zm96.2,7.9a2.4,2.4,0,0,1-1.4,1.4,2.79,2.79,0,0,1-.9.1h-2.7V44l.5.1h.8a1.419,1.419,0,0,1,.6.2,1,1,0,0,1,.4.5,2.954,2.954,0,0,1,.2,1h1.3V41h-1.5l.1,1.7H231v-3a2.214,2.214,0,0,1,.1-.9,2.191,2.191,0,0,1,.3-.5c.1-.1.2-.1.4-.2a1.261,1.261,0,0,1,.6-.1h.7a2.487,2.487,0,0,1,.8.1,2.013,2.013,0,0,1,.8.4,2.407,2.407,0,0,1,.6.8,4.442,4.442,0,0,1,.2,1.3h1.3l-.1-3.8h-9.9v1.5l1.5-.1v9.3a2.214,2.214,0,0,1-.1.9,2.191,2.191,0,0,1-.3.5.517.517,0,0,1-.4.2,1.261,1.261,0,0,1-.6.1v1.3h10.4l.1-4.4h-1.3A2.964,2.964,0,0,1,235.9,47.5Zm49.3-.3-.3-7.6a2.214,2.214,0,0,1,.1-.9,2.191,2.191,0,0,1,.3-.5c.2-.1.3-.2.5-.2a1.261,1.261,0,0,1,.6-.1V36.6h-4.6l-3.1,8.2a6.941,6.941,0,0,0-.5,1.3c-.2.4-.3.8-.5,1.3a3.84,3.84,0,0,0-.2-.6,6.868,6.868,0,0,1-.3-.8l-.3-.9a6.868,6.868,0,0,0-.3-.8l-3-7.7h-4.4v1.5l1.5-.1v1.7l-.1,7.6a2.214,2.214,0,0,1-.1.9,2.191,2.191,0,0,1-.3.5.517.517,0,0,1-.4.2,1.261,1.261,0,0,1-.6.1v1.3h4.5V48.8l-1.5.1V39.6c.1.5.2.9.3,1.4s.3.9.4,1.3a7.691,7.691,0,0,1,.4,1.1,4.915,4.915,0,0,0,.3.7l2.7,6.5h1.8l4-10.8c0,.3,0,.7.2.8v2.5l.2,4.2a2.214,2.214,0,0,1-.1.9,2.191,2.191,0,0,1-.3.5c-.2.1-.3.2-.5.2a1.261,1.261,0,0,1-.6.1v1.3h5.7V48.8l-1.5.1Zm-20.1-2.4a3.044,3.044,0,0,0-.8-.8,6.084,6.084,0,0,0-1-.7,9.143,9.143,0,0,0-1-.5c-.3-.1-.7-.3-1-.4-.5-.2-1-.4-1.4-.6a8.88,8.88,0,0,1-1-.6,1.9,1.9,0,0,1-.8-1.5,1.448,1.448,0,0,1,.2-.7c.1-.2.3-.3.5-.5a1.622,1.622,0,0,1,.7-.4,1.941,1.941,0,0,1,.8-.1,3.371,3.371,0,0,1,2.3.8,4.208,4.208,0,0,1,1.2,2.5h1.3V36.7h-1.5l.1.8a4.291,4.291,0,0,0-.7-.4l-.9-.3a2.93,2.93,0,0,0-.9-.2,2.21,2.21,0,0,0-.8-.1,7.767,7.767,0,0,0-1.6.2,3.357,3.357,0,0,0-1.2.4,3.1,3.1,0,0,0-.9.7,2.106,2.106,0,0,0-.6.8l-.3.9a1.941,1.941,0,0,0-.1.8A4.677,4.677,0,0,0,256,42a3.806,3.806,0,0,0,.9,1.3,7.082,7.082,0,0,0,1.4,1c.6.3,1.2.5,1.8.8a7.691,7.691,0,0,1,1.1.4,3.131,3.131,0,0,1,1,.5,2.336,2.336,0,0,1,.7.7,1.617,1.617,0,0,1,.3.9,1.866,1.866,0,0,1-.2.7,2.644,2.644,0,0,1-.5.6,3,3,0,0,1-.8.4,3.066,3.066,0,0,1-1,.1c-.5,0-.9-.1-1.1-.1a2.376,2.376,0,0,1-1.1-.6,2.725,2.725,0,0,1-.8-1,3.8,3.8,0,0,1-.5-1.5h-1.3v4.6h1.5l-.1-.8a5.971,5.971,0,0,0,.8.4l.9.3a2.924,2.924,0,0,0,.9.2,2.21,2.21,0,0,0,.8.1,6.643,6.643,0,0,0,2.1-.3,4.026,4.026,0,0,0,1.6-.8,4.124,4.124,0,0,0,1-1.3,2.933,2.933,0,0,0,.4-1.6,5.028,5.028,0,0,0-.2-1.2,3.131,3.131,0,0,0-.5-1Zm-61,3.9c-.2-.2-.3-.4-.5-.6a5.494,5.494,0,0,1-.6-.8l-1.2-1.5a3.746,3.746,0,0,0-.6-.7,3.038,3.038,0,0,0-.7-.5,5.214,5.214,0,0,0,1.5-.7,5.314,5.314,0,0,0,1.1-.9,3.885,3.885,0,0,0,.6-1.1,5.894,5.894,0,0,0,.2-1.3,3.812,3.812,0,0,0-.4-1.9,2.369,2.369,0,0,0-1.1-1.3,4.838,4.838,0,0,0-1.8-.7,15.141,15.141,0,0,0-2.3-.2h-5.6V38l1.5-.1v9.3a2.214,2.214,0,0,1-.1.9,2.191,2.191,0,0,1-.3.5.517.517,0,0,1-.4.2,1.261,1.261,0,0,1-.6.1v1.3h5.9V48.7l-1.7.1c.1-.1.1-.4.1-.7V45h1.1c.1.2.3.3.4.5a4.2,4.2,0,0,1,.5.7l1.4,2.4c.3.4.6.8.8,1.1a4.633,4.633,0,0,0,.7.7h3.2V49.1a1.261,1.261,0,0,1-.6-.1c-.2,0-.3-.2-.5-.3Zm-4.5-5.2a5.863,5.863,0,0,1-1.4.2,1.261,1.261,0,0,1-.6-.1h-.5V39.5a1.941,1.941,0,0,1,.1-.8,2.191,2.191,0,0,1,.3-.5.517.517,0,0,1,.4-.2H199a1.261,1.261,0,0,1,.6.1l.6.3c.2.1.3.3.5.5a1.622,1.622,0,0,1,.4.7,3.77,3.77,0,0,1,.1,1.1A5.068,5.068,0,0,1,201,42a2.622,2.622,0,0,1-.5.9,1.457,1.457,0,0,1-.9.6Zm52.7-7H240.4l-.1,4.5h1.3a3.808,3.808,0,0,1,.7-2.4,2.343,2.343,0,0,1,1.8-.8h.9v9.5a2.214,2.214,0,0,1-.1.9,2.191,2.191,0,0,1-.3.5.517.517,0,0,1-.4.2,1.261,1.261,0,0,1-.6.1v1.3h5.8V48.8l-1.6.1v-11h.9a2.2,2.2,0,0,1,1.8.8,4.266,4.266,0,0,1,.6,2.4h1.3l-.1-4.5Zm62.1,1.7,1.5-.1v8a5.494,5.494,0,0,1-.6-.8c-.2-.3-.5-.7-.8-1.1l-6-7.6h-3.1v1.5l1.5-.1v9.3a2.214,2.214,0,0,1-.1.9,2.191,2.191,0,0,1-.3.5.517.517,0,0,1-.4.2,1.261,1.261,0,0,1-.6.1v1.3H310V48.8l-1.5.1V41.1c.4.6.8,1.1,1.1,1.5l6.3,8.1h1.6v-11a2.214,2.214,0,0,1,.1-.9,2.191,2.191,0,0,1,.3-.5.517.517,0,0,1,.4-.2,1.261,1.261,0,0,1,.6-.1V36.7h-4.5Zm20.8,2a4.5,4.5,0,0,0-1-1.4,8.252,8.252,0,0,0-1.5-1.1,6.388,6.388,0,0,0-1.9-.8,8.718,8.718,0,0,0-2.4-.3h-6v1.6l1.5-.1v9.3a2.214,2.214,0,0,1-.1.9,2.191,2.191,0,0,1-.3.5.517.517,0,0,1-.4.2,1.261,1.261,0,0,1-.6.1v1.3h5.7a9.534,9.534,0,0,0,2.5-.3,9.225,9.225,0,0,0,2-.8,4.419,4.419,0,0,0,1.5-1.2,12.95,12.95,0,0,0,1-1.5,4.423,4.423,0,0,0,.6-1.6,8.709,8.709,0,0,0,.2-1.6,9.9,9.9,0,0,0-.2-1.6,4.423,4.423,0,0,0-.6-1.6Zm-2.6,5.3a4.352,4.352,0,0,1-.7,1.7,4.89,4.89,0,0,1-1.3,1.2,4.066,4.066,0,0,1-1.9.4h-1.8V39.5a2.214,2.214,0,0,1,.1-.9,2.191,2.191,0,0,1,.3-.5c.2-.1.3-.2.5-.2h.6a12.361,12.361,0,0,0,1.8.2,4.856,4.856,0,0,1,1.4,1.1,5.081,5.081,0,0,1,.9,1.8,9.779,9.779,0,0,1,.3,2.6,6.148,6.148,0,0,1-.2,1.9Zm24.1.2,1.5-.1v3.5c-.1.1-.4.1-.6.2a1.448,1.448,0,0,1-.7.2c-.3,0-.6.1-.8.1h-.7a3.426,3.426,0,0,1-1.8-.4,3.739,3.739,0,0,1-1.3-1.2,6.388,6.388,0,0,1-.8-1.9,9.293,9.293,0,0,1-.3-2.4,7.5,7.5,0,0,1,.2-2.1,4.838,4.838,0,0,1,.7-1.8,4.017,4.017,0,0,1,1.3-1.3,3.451,3.451,0,0,1,1.8-.5,5.068,5.068,0,0,1,1.3.2,2.376,2.376,0,0,1,1.1.6,2.725,2.725,0,0,1,.8,1,3.806,3.806,0,0,1,.5,1.5h1.3V36.7h-1.5l.1.8c-.3-.1-.6-.3-.9-.4s-.7-.2-1-.3a3.561,3.561,0,0,0-1-.2,3.1,3.1,0,0,0-.9-.1,6.639,6.639,0,0,0-2.1.3,5.292,5.292,0,0,0-1.7.8,4.89,4.89,0,0,0-1.3,1.2,7.807,7.807,0,0,0-1,1.5,4.928,4.928,0,0,0-.6,1.7,11,11,0,0,0-.2,1.8,8.6,8.6,0,0,0,.4,2.8,6.1,6.1,0,0,0,1.3,2.2,8,8,0,0,0,2.1,1.5,8.815,8.815,0,0,0,2.9.5,7.767,7.767,0,0,0,1.6-.2c.5-.1,1-.2,1.4-.3L359,50a3.586,3.586,0,0,1,1.1-.2h.6V47.2a2.214,2.214,0,0,1,.1-.9.767.767,0,0,1,.2-.5.517.517,0,0,1,.4-.2,1.261,1.261,0,0,1,.6-.1V44.2h-5.3Zm-58.8-7.4,1.5-.1a1.382,1.382,0,0,0-.3.4c-.1.2-.2.3-.3.5s-.2.3-.3.5-.1.3-.2.4l-1,2a6.659,6.659,0,0,1-.6,1.2,2.386,2.386,0,0,1-.3.7,1.679,1.679,0,0,0-.2-.5l-.3-.6c-.1-.2-.2-.3-.3-.5-.1-.1-.2-.2-.2-.3l-1.5-2.5a1.97,1.97,0,0,1-.3-.8.6.6,0,0,1,.3-.6,2,2,0,0,1,.9-.2h.2V36.6h-5.8v1.5l1-.1c0,.1.1.2.1.4.1.2.1.3.2.5,0,.2.1.3.2.5s.2.3.3.5l3.7,5.7v1.7a2.214,2.214,0,0,1-.1.9,2.191,2.191,0,0,1-.3.5.517.517,0,0,1-.4.2,1.261,1.261,0,0,1-.6.1v1.3h5.8V48.8l-1.6.1V45l2.7-4.8a4.085,4.085,0,0,1,.5-.9c.2-.2.3-.4.5-.6a1,1,0,0,1,.5-.4,1.423,1.423,0,0,1,.6-.2V36.8h-4.4ZM203.5,11.6l1.5-.1v8a5.567,5.567,0,0,1-.6-.8c-.2-.3-.5-.7-.8-1.1l-6-7.6h-3.1v1.5l1.5-.1v9.3a2.214,2.214,0,0,1-.1.9,2.191,2.191,0,0,1-.3.5c-.1.1-.2.1-.4.2a1.261,1.261,0,0,1-.6.1v1.1h4.5V22l-1.5.1V14.3c.4.6.8,1.1,1.1,1.5l6.3,8.1h1.6V13.1a2.214,2.214,0,0,1,.1-.9,2.191,2.191,0,0,1,.3-.5.517.517,0,0,1,.4-.2,1.261,1.261,0,0,1,.6-.1V10.1h-4.5Zm31.9,9.9a2.2,2.2,0,0,1-1.8.8h-2.7V13a2.214,2.214,0,0,1,.1-.9,2.191,2.191,0,0,1,.3-.5.517.517,0,0,1,.4-.2,1.261,1.261,0,0,1,.6-.1V10h-5.7v1.5l1.5-.1v9.3a2.214,2.214,0,0,1-.1.9,2.191,2.191,0,0,1-.3.5c-.1.1-.2.1-.4.2a1.261,1.261,0,0,1-.6.1v1.4h10.6l.1-4.7h-1.3A4.03,4.03,0,0,1,235.4,21.5ZM221.1,39.6a2.214,2.214,0,0,1,.1-.9,2.191,2.191,0,0,1,.3-.5c.1-.1.2-.1.4-.2a1.261,1.261,0,0,1,.6-.1V36.6h-5.7v1.5l1.5-.1v4.6h-5.4V39.5a2.214,2.214,0,0,1,.1-.9,2.191,2.191,0,0,1,.3-.5c.1-.1.2-.1.4-.2a1.261,1.261,0,0,1,.6-.1V36.5h-5.7V38l1.5-.1v9.3a2.214,2.214,0,0,1-.1.9,2.191,2.191,0,0,1-.3.5.517.517,0,0,1-.4.2,1.261,1.261,0,0,1-.6.1v1.3h5.7V48.7l-1.5.1V44.2l5.4-.1v3.2a2.214,2.214,0,0,1-.1.9,2.191,2.191,0,0,1-.3.5.517.517,0,0,1-.4.2,1.261,1.261,0,0,1-.6.1v1.3h5.7V48.8l-1.5.1Zm1.3-18c-.1-.2-.1-.4-.2-.6s-.1-.3-.2-.5c0-.2-.1-.3-.1-.4L217.7,9.3h-1.4l-3.9,10.6-.3.9a4.291,4.291,0,0,1-.4.7,1.205,1.205,0,0,1-.5.5,1.448,1.448,0,0,1-.7.2v1.4h4.2V22l-1.4.1c.1-.1.1-.3.2-.4s.1-.2.2-.4a.762.762,0,0,0,.2-.4c0-.1.1-.2.1-.3l.3-.9,4.3-.1.3,1c.1.2.2.3.2.5a1.078,1.078,0,0,1,.1.5.843.843,0,0,1-.2.6.959.959,0,0,1-.7.2v1.1h5.3V22l-1.1.1c0-.2-.1-.3-.1-.5Zm-7.6-3.4.9-2.6c.2-.6.4-1.2.5-1.6a8.715,8.715,0,0,1,.2-1c.1.4.2.8.3,1.3.2.4.3.9.5,1.4l.9,2.5ZM343.2,39.6a2.214,2.214,0,0,1,.1-.9,2.191,2.191,0,0,1,.3-.5.517.517,0,0,1,.4-.2,1.261,1.261,0,0,1,.6-.1V36.6h-5.7v1.5l1.5-.1v9.3a2.214,2.214,0,0,1-.1.9,2.191,2.191,0,0,1-.3.5.517.517,0,0,1-.4.2,1.261,1.261,0,0,1-.6.1v1.3h5.7V48.8l-1.5.1Zm34.5,0a2.214,2.214,0,0,1,.1-.9,2.191,2.191,0,0,1,.3-.5.517.517,0,0,1,.4-.2,1.261,1.261,0,0,1,.6-.1V36.6h-5.7v1.5l1.5-.1v4.6h-5.4V39.5a2.214,2.214,0,0,1,.1-.9,2.191,2.191,0,0,1,.3-.5.517.517,0,0,1,.4-.2,1.261,1.261,0,0,1,.6-.1V36.5h-5.7V38l1.5-.1v9.3a2.214,2.214,0,0,1-.1.9,2.191,2.191,0,0,1-.3.5.517.517,0,0,1-.4.2,1.261,1.261,0,0,1-.6.1v1.3H371V48.7l-1.5.1V44.2l5.4-.1v3.2a2.214,2.214,0,0,1-.1.9,2.191,2.191,0,0,1-.3.5.517.517,0,0,1-.4.2,1.261,1.261,0,0,1-.6.1v1.3h5.7V48.8l-1.5.1ZM9.1,30.4h4V3.5l-4,2ZM18.3.9V30.4h3.9V.9l-2-.9Zm9.1,29.5h4V5.5l-4-2ZM36.6,8V30.4h3.9V10l-.4-.2ZM0,10V30.4H3.9V8L.4,9.8Z" transform="translate(0 0)"/></svg>