<svg id="Lager_1" data-name="Lager 1" xmlns="http://www.w3.org/2000/svg" viewBox="0 0 547.87 94.57"><defs><style>.cls-1{fill:#fdeb65;}.cls-2{fill:#e5464a;}.cls-3{fill:#fff;}.cls-4{fill:#f7e026;}.cls-5{isolation:isolate;}</style></defs><title>Gjen_logo</title><g id="Group_33" data-name="Group 33"><path id="Path_294" data-name="Path 294" d="M53.9,26.21a35.39,35.39,0,0,0-5.25-.06L48.3,28.8a16,16,0,0,1,7.19,3.07,1.48,1.48,0,0,1,.5-1c.16-.77.31-1.57.42-2.35a5.2,5.2,0,0,0,.09-1.11,1.24,1.24,0,0,0-.64-.76,7,7,0,0,0-2-.48m-36-.13a6.27,6.27,0,0,0-2.12.55,1,1,0,0,0-.55.86c.11,1.11.28,2.21.5,3.31a1.34,1.34,0,0,1,.5.94,15.94,15.94,0,0,1,7.11-3v0c-.12-.85-.21-1.73-.35-2.63a41.16,41.16,0,0,0-5.09,0Zm24.58-.62a43.06,43.06,0,0,0-5.18.62l-.07,1.7a64.82,64.82,0,0,1,8.36.52c.07-.44.12-.89.15-1.34a1.15,1.15,0,0,0,0-.58,2.07,2.07,0,0,0-2-.92c-.4,0-.8.05-1.17,0Zm-13.35,0a5.21,5.21,0,0,0-2.68.31,1.13,1.13,0,0,0-.58.9L26,28.17l0,.08a63.39,63.39,0,0,1,8.37-.47l0-1.67,0-.05a40.92,40.92,0,0,0-5.18-.63ZM37.1,9.05v2.36h2.33v2.36H37.07V17c.13.11.32.11.46.21a4.09,4.09,0,0,1,2.4,3.9,4.18,4.18,0,0,1-1.46,3,50.64,50.64,0,0,1,6.15-.49,7.58,7.58,0,0,1,3.28.69c.68,0,1.28-.09,2-.11a24,24,0,0,1,7.46.67,2.31,2.31,0,0,1,1.75,1.67,9.12,9.12,0,0,1-.3,2.32c-.1.61-.27,1.19-.38,1.79.23.11.51.13.75.24.07.06.32,0,.19.21a83.76,83.76,0,0,0-2.55,11.07h5.58c0,1.25-.1,2.49-.12,3.72-.12,3.07-.29,6.16-.53,9.22l-.32,3.74c-1,9.41-2.61,18.7-7.43,26.6a55,55,0,0,1-8,9.81,59,59,0,0,1-10.25,8.39,52.27,52.27,0,0,1-4.37-3.17,69.49,69.49,0,0,1-8.66-8.32,42.12,42.12,0,0,1-7.09-10.62,53.42,53.42,0,0,1-3.63-11.17l-.63-3.19-.45-2.91-.48-3.94-.31-3.24c-.16-1.88-.27-3.72-.39-5.64l-.24-5L9.3,42h5.56s.07,0,0,0c-.23-1.63-.54-3.24-.88-4.82l-.77-3.25c-.26-1-.55-2.05-.84-3.07a6.36,6.36,0,0,1,1-.32c-.25-1.2-.52-2.43-.67-3.66a1.9,1.9,0,0,1,.93-1.76,11.61,11.61,0,0,1,4.31-1,39.82,39.82,0,0,1,5.88.11c2-1,4.47-.63,6.68-.49.93.1,1.85.24,2.76.35A4.16,4.16,0,0,1,32,19.57,4.32,4.32,0,0,1,34.64,17l0-.06v-3.2h-2.3c0-.73,0-1.53,0-2.33h2.33V9.05Z" transform="translate(-9.3 -9.05)"/><path id="Path_295" data-name="Path 295" class="cls-1" d="M36.77,9.41c0,.75,0,1.58,0,2.36H39.1V13.4H36.75v3.53c-.32,0-.69-.06-1-.06A5.35,5.35,0,0,0,35,17V13.41H32.74V11.76c.71,0,1.53,0,2.29,0V9.4h1.74" transform="translate(-9.3 -9.05)"/><path id="Path_296" data-name="Path 296" class="cls-1" d="M36.76,17.27c-.09.23-.25.44-.36.67V20.8h3.19a5.79,5.79,0,0,1-.07.92H32.24a5.79,5.79,0,0,1-.07-.92H35.3V17.91a5,5,0,0,1-.33-.65,4,4,0,0,1,1.79,0" transform="translate(-9.3 -9.05)"/><path id="Path_297" data-name="Path 297" class="cls-1" d="M35.08,18.06v2.47c-.94,0-1.94,0-2.87,0a3.79,3.79,0,0,1,2.28-3.08c.09,0,.22-.19.26,0l.34.65" transform="translate(-9.3 -9.05)"/><path id="Path_298" data-name="Path 298" class="cls-1" d="M39.51,20.15l.07.4c-1,0-2,0-2.94,0V18l.39-.64a3.78,3.78,0,0,1,2.47,2.79" transform="translate(-9.3 -9.05)"/><path id="Path_299" data-name="Path 299" class="cls-1" d="M39.43,22a3.74,3.74,0,0,1-2.76,2.62A3.69,3.69,0,0,1,32.33,22h7.1" transform="translate(-9.3 -9.05)"/><path id="Path_300" data-name="Path 300" class="cls-1" d="M34.38,24.72c0,.35,0,.67,0,1a32.29,32.29,0,0,0-7-.64,2.1,2.1,0,0,0-1.74,1.06,4.49,4.49,0,0,0,0,1.37l.23,2.36A2.91,2.91,0,0,0,24,30.2l0-.07c-.19-1.42-.45-2.82-.61-4.25a1.43,1.43,0,0,1,.7-1.28c1.22-.77,2.89-.66,4.33-.63a35.55,35.55,0,0,1,6,.75" transform="translate(-9.3 -9.05)"/><path id="Path_301" data-name="Path 301" class="cls-1" d="M46.17,24.14a3.5,3.5,0,0,1,1.65.65,1.46,1.46,0,0,1,.51,1.45l-.61,4.07c-.15-.06-.27-.15-.4-.21A3.26,3.26,0,0,0,45.8,30c.09-1.17.26-2.27.32-3.44,0-.68-.71-1.12-1.3-1.3a8,8,0,0,0-2-.13,39.92,39.92,0,0,0-5.55.61c-.06-.13,0-.31,0-.49s0-.35,0-.51A33.52,33.52,0,0,1,45.38,24c.25,0,.54.06.79.11" transform="translate(-9.3 -9.05)"/><path id="Path_302" data-name="Path 302" class="cls-1" d="M23.44,24.64a1.94,1.94,0,0,0-.39,1.11c-1.38-.05-2.76-.12-4.16-.05a11,11,0,0,0-2.79.42,1.59,1.59,0,0,0-1.16,1.15,13.94,13.94,0,0,0,.33,2.48l.14.8a3,3,0,0,0-1.58-.16c-.28-1.18-.51-2.42-.68-3.62a1.78,1.78,0,0,1,1.18-1.53,14.81,14.81,0,0,1,5-.78c1.4,0,2.72.07,4.09.18" transform="translate(-9.3 -9.05)"/><path id="Path_303" data-name="Path 303" class="cls-1" d="M57,25.19c.71.2,1.62.74,1.67,1.58a4.83,4.83,0,0,1-.12,1.08c-.16.92-.37,1.81-.56,2.72a3,3,0,0,0-1.6.13c.17-1.06.43-2.12.51-3.21a1.6,1.6,0,0,0-1.23-1.25,20.8,20.8,0,0,0-6.29-.43l-.69,0a1.93,1.93,0,0,0-.38-1.11,28.07,28.07,0,0,1,7.82.23l.87.24" transform="translate(-9.3 -9.05)"/><path id="Path_304" data-name="Path 304" class="cls-1" d="M37,24.84c.06.4,0,.8,0,1.25,0,1.18-.09,2.35-.18,3.53a3.39,3.39,0,0,0-1.92,0c-.13-1.62-.17-3.2-.15-4.81a4.8,4.8,0,0,0,2.26,0" transform="translate(-9.3 -9.05)"/><path id="Path_305" data-name="Path 305" class="cls-1" d="M37.4,30.55c.58,1.07-.49,1.9-.95,2.75a4.48,4.48,0,0,0,.32.56c.33-.23.57-.56.94-.78a1.72,1.72,0,0,1,1.48-.49A2.09,2.09,0,0,1,40,34.71a1.57,1.57,0,0,1-.87,1.37c-1,.25-1.68-.65-2.32-1.25l-.17-.15a3.27,3.27,0,0,0-.39.58,16.51,16.51,0,0,0,1.7,3,5.06,5.06,0,0,0,2,.48,16.41,16.41,0,0,0,2.89,0,3.43,3.43,0,0,0,1.43-.42,11.28,11.28,0,0,0,1.22-2.14l.31-.68c-.13-.19-.25-.41-.39-.61a3,3,0,0,1-2.1,1.32,1,1,0,0,1-.79-.46,3.06,3.06,0,0,1-.12-2.39,1.17,1.17,0,0,1,1.16-.7A5.06,5.06,0,0,1,45.51,34h0l.27-.64c-.52-.76-1.46-1.61-.85-2.61a2,2,0,0,1,2-.48,1.35,1.35,0,0,1,1,.89,2.64,2.64,0,0,1-1,2.18l.28.67h.06c.72-.57,1.48-1.31,2.46-1.06a1.94,1.94,0,0,1,.41,2.72,2.07,2.07,0,0,1-.67.58c-.94.32-1.57-.58-2.17-1.18a1.37,1.37,0,0,0-.19-.23,4.45,4.45,0,0,0-.38.58,20.18,20.18,0,0,0,1.55,2.71,2.25,2.25,0,0,0,1.44.56,12.38,12.38,0,0,0,4.58-.13c.24-.1.54-.13.69-.38a20.45,20.45,0,0,0,1.38-2.29,4.83,4.83,0,0,0-.32-.59h-.06a4.55,4.55,0,0,1-1.87,1.13,1.26,1.26,0,0,1-1.26-.56,2.87,2.87,0,0,1,.1-2.57A1.27,1.27,0,0,1,54.49,33a4.24,4.24,0,0,1,1.7,1.41c.17-.17.33-.35.49-.54-.49-.69-1.15-1.55-.69-2.43.48-.72,1.5-.66,2.23-.48a5.73,5.73,0,0,1,.7.23l-.66,2.19-.9,3.49c-.41,1.74-.74,3.49-1,5.23h-41c-.09-.43-.14-.94-.22-1.35A73.54,73.54,0,0,0,12.84,31c.86-.31,2-.6,2.75.09a1.12,1.12,0,0,1,.31,1,3.72,3.72,0,0,1-.85,1.59l.46.57h0a4.89,4.89,0,0,1,1.63-1.4,1.42,1.42,0,0,1,1.19.09A2.35,2.35,0,0,1,19,35a1.33,1.33,0,0,1-1.32,1.34,1.29,1.29,0,0,1-.76-.24,6.19,6.19,0,0,1-1.27-1h0l-.36.57a23.75,23.75,0,0,0,1.25,2.19c.23.51.8.5,1.22.63a11.7,11.7,0,0,0,4.93-.12c.78-.22,1-1.07,1.44-1.66l.75-1.38c-.1-.22-.24-.41-.35-.61-.66.66-1.34,1.64-2.36,1.43a1.75,1.75,0,0,1-1.06-1.58,2.06,2.06,0,0,1,.61-1.69,1.5,1.5,0,0,1,1.21,0,8,8,0,0,1,1.46,1l0,0,.26-.64c-.58-.69-1.35-1.58-.83-2.51a2,2,0,0,1,2.07-.57,1.18,1.18,0,0,1,.85.58,1.29,1.29,0,0,1,.05,1.07,7.85,7.85,0,0,1-1,1.44,5,5,0,0,0,.29.67,6.07,6.07,0,0,1,1.78-1.36,1.6,1.6,0,0,1,.72.07c.74.3.8,1.16.78,1.89a1.6,1.6,0,0,1-.75,1.47c-1,.36-1.81-.51-2.43-1.24h0l-.38.62a24.29,24.29,0,0,0,1.33,2.65,1.71,1.71,0,0,0,1,.5,12.66,12.66,0,0,0,5.2-.15c.58-.2.72-.87,1-1.32l.91-1.84c-.11-.21-.24-.4-.36-.59-.66.62-1.35,1.56-2.36,1.42a1.56,1.56,0,0,1-1-1.43,2.12,2.12,0,0,1,.8-2.06c.54-.25,1.09.13,1.53.45s.6.54.92.8a3.23,3.23,0,0,0,.31-.58c-.5-.87-1.57-1.83-.8-2.89A2.17,2.17,0,0,1,36.73,30a1.61,1.61,0,0,1,.67.57" transform="translate(-9.3 -9.05)"/><path id="Path_306" data-name="Path 306" class="cls-2" d="M34.42,28.19l0,0c0,.55,0,1,.07,1.56a1.75,1.75,0,0,0-.73,1.62,5.29,5.29,0,0,0,1,1.85s0,.09-.06.12a4,4,0,0,0-1.92-1.18,1.22,1.22,0,0,0-1.14.65,2.88,2.88,0,0,0-.08,2.83,1.38,1.38,0,0,0,1.1.77c.87,0,1.52-.73,2.15-1.29,0,0,.06.09.1.13a20,20,0,0,1-1.35,2.55c-.28.39-.78.34-1.19.47a11.84,11.84,0,0,1-4.4-.08c-.81-.13-1-1-1.34-1.59l-.54-1.26a.26.26,0,0,1,.07-.11,2.58,2.58,0,0,0,2.32,1.13,1.73,1.73,0,0,0,1.11-1.52,2.37,2.37,0,0,0-.84-2.45,1.4,1.4,0,0,0-1.4.07,7.54,7.54,0,0,0-1.22,1c-.17-.15,0-.24.09-.36.49-.66,1.12-1.4.82-2.26a1.47,1.47,0,0,0-.88-.88c-.07-.06,0-.16-.06-.23,0-.36-.07-.76-.09-1.14a56.64,56.64,0,0,1,8.23-.48h.11" transform="translate(-9.3 -9.05)"/><path id="Path_307" data-name="Path 307" class="cls-2" d="M45.59,28.71a10.3,10.3,0,0,1-.14,1.35,1.64,1.64,0,0,0-1,1c-.19,1,.54,1.67,1,2.38,0,0,0,.1-.06.13-.74-.67-1.59-1.67-2.66-1.13-.91.54-.9,1.7-.78,2.66a1.64,1.64,0,0,0,1,1.31,2.63,2.63,0,0,0,2.37-1.1.16.16,0,0,1,0,.23,21.91,21.91,0,0,1-1.08,2.17c-.28.5-.84.55-1.34.65a13.8,13.8,0,0,1-2.87.08A6.87,6.87,0,0,1,38.22,38a9.34,9.34,0,0,1-1.21-2l-.37-.79a.23.23,0,0,1,.09-.14c.77.63,1.59,1.64,2.67,1.17a2.28,2.28,0,0,0,.94-2.1,2.17,2.17,0,0,0-1.05-2,2.49,2.49,0,0,0-2,.78l-.35.34-.09-.12c.55-.75,1.34-1.55,1.05-2.58a2.28,2.28,0,0,0-.69-.88c0-.52.07-1.06.08-1.6,1.25-.06,2.5,0,3.72.06,1.51.09,3.13.26,4.62.45" transform="translate(-9.3 -9.05)"/><path id="Path_308" data-name="Path 308" class="cls-2" d="M23.66,30.43A1.48,1.48,0,0,0,23.38,32a4.06,4.06,0,0,0,.94,1.41l-.07.17c-.72-.58-1.61-1.35-2.6-1a2.35,2.35,0,0,0-.85,2.19c0,.13,0,.25.06.38a1.72,1.72,0,0,0,1,1.27c1.06.46,1.93-.49,2.59-1.22.06,0,0,.09.08.13A13.52,13.52,0,0,1,23,37.86a3.25,3.25,0,0,1-1.54.49,13.3,13.3,0,0,1-3.51-.07c-.44-.12-1-.14-1.25-.63s-.73-1.24-1.07-1.87c0-.07,0-.11.07-.17h.05a2.61,2.61,0,0,0,2.33,1,1.56,1.56,0,0,0,1.12-1.14,3.53,3.53,0,0,0-.17-2.2,1.48,1.48,0,0,0-1.46-.79,3.55,3.55,0,0,0-2,1.35c-.05,0-.05-.06-.09-.1a5.76,5.76,0,0,0,.76-1.4,14.48,14.48,0,0,1,7.23-3.18l.21,1.32" transform="translate(-9.3 -9.05)"/><path id="Path_309" data-name="Path 309" class="cls-2" d="M55.49,32.4a5.8,5.8,0,0,0,.79,1.42.19.19,0,0,1-.07.11c-.69-.72-1.53-1.62-2.6-1.33a2.22,2.22,0,0,0-.59.31,3,3,0,0,0-.5,2.69,1.56,1.56,0,0,0,1.07,1.1,3,3,0,0,0,2.45-1c.16.12,0,.27,0,.39a9.23,9.23,0,0,1-1.29,2,6.67,6.67,0,0,1-2.58.43,9.08,9.08,0,0,1-3.31-.44,4.81,4.81,0,0,1-1.05-1.48l-.62-1.17.06-.18c.64.7,1.4,1.64,2.42,1.31A1.79,1.79,0,0,0,50.84,35,2.3,2.3,0,0,0,50,32.69c-1-.4-1.87.32-2.59.93-.23-.25.24-.43.31-.64a2.18,2.18,0,0,0,.58-1.9,1.62,1.62,0,0,0-.31-.54c.06-.44.15-.9.23-1.32a14.88,14.88,0,0,1,7.25,3.2" transform="translate(-9.3 -9.05)"/><path id="Path_310" data-name="Path 310" class="cls-2" d="M62,42.43S61.19,61,59.45,69.7a46.52,46.52,0,0,1-7.53,18.13,72.89,72.89,0,0,1-13,13.1,34.58,34.58,0,0,1-3.25,2.23c-1.1-.61-2.1-1.5-3.14-2.21A66.9,66.9,0,0,1,23,92a42.25,42.25,0,0,1-6.75-9.84,60.89,60.89,0,0,1-5.15-18.66l-.46-4c-.58-5.67-.83-11.5-1-17.13H62" transform="translate(-9.3 -9.05)"/><path id="Path_311" data-name="Path 311" d="M37.49,44.28a.84.84,0,0,1,.89,0,.85.85,0,0,1,.28.78.78.78,0,0,1-.46.51.65.65,0,0,1-.31,0,.51.51,0,0,0,.22.44,4.61,4.61,0,0,0,1.16.24.64.64,0,0,0,.38-.24c-.14-.17-.38-.24-.48-.45a.81.81,0,0,1,.19-.86.91.91,0,0,1,.77-.06,1,1,0,0,1,.64-.3.85.85,0,0,1,.7.37c.09.11,0,.36.27.31a.61.61,0,0,1,.43.3.76.76,0,0,1-.32,1l-.09,0c-.1.07-.34-.11-.32.12.09.45.61.33.93.46s.48.12.63-.12v0a.76.76,0,0,1-.34-.74.78.78,0,0,1,.25-.49.83.83,0,0,1,.78-.09c.13.09.19.24.31.3a1.66,1.66,0,0,1,1.14,0l0,.09c-.5.73-1,1.48-1.51,2.23a3.8,3.8,0,0,1,.77.54c0,.48.08,1.06-.36,1.38l-.53.59a14,14,0,0,1-1.68,6.63l-1.6,2.86a4.56,4.56,0,0,0-.46,2.12c-.25-.08-.46-.24-.72-.3,0,.84-.07,1.61-.07,2.43l-.08,3.37c0,1.44,0,2.8-.07,4.27a8.24,8.24,0,0,1,1.36,2.23l1.35,3a28.86,28.86,0,0,0,3.33,6,4,4,0,0,0,2.9,1.1,3.93,3.93,0,0,0,3.19-2c.81-1.89-.38-3.65-1.2-5.23l-2.29-3.89c-1.19-2.27-2.63-5.15-1.17-7.72a13.37,13.37,0,0,1,3.36-3.39l4.7-3.61c1.7-1.37,3.24-3.16,3.22-5.42a4.19,4.19,0,0,0-1-3,3.56,3.56,0,0,0-3.31-1,2.74,2.74,0,0,0-2,2,2.21,2.21,0,0,0,.1.76,6.27,6.27,0,0,1,1.48.3,6.53,6.53,0,0,1,1.11,2.24,13.37,13.37,0,0,1-.57,3.55,1.36,1.36,0,0,1-.4,0c0-.23,0-.49,0-.73a3.45,3.45,0,0,0-.75-2A3.64,3.64,0,0,1,52,57.11a9.4,9.4,0,0,1-1.78,1.61,24.75,24.75,0,0,0-4.65,4l-.1.14a2,2,0,0,1-.42,0,7.73,7.73,0,0,1,1.1-2.73A45.29,45.29,0,0,1,49.23,56a2.42,2.42,0,0,0-.1-.75l-.05,0a9.41,9.41,0,0,0-1.79,1.72A.85.85,0,0,1,47,57a13.84,13.84,0,0,1,2.12-4.41A4.81,4.81,0,0,1,50,49.38a5.16,5.16,0,0,1,4.47-2,5,5,0,0,1,4.31,3.17,7.69,7.69,0,0,1,0,5.12,11.43,11.43,0,0,1-2.21,3.64v0l-.12.08a41.37,41.37,0,0,0-3.6,3.91l0,0,.75-.09c.73.1,1.41.25,2.13.36.43,0,.86-.09,1.3-.11a.55.55,0,0,1,.07.28L53.3,65.64c-.75.37-1.51.75-2.25,1.08a.71.71,0,0,0-.12.37c.58-.09,1.17-.24,1.78-.31l2.17.44,1-.07a1,1,0,0,1,.11.3c-.42.22-.86.42-1.29.64-1.34.63-2.67,1.34-4,1.92-.06.09,0,.2,0,.31l.06,0,.8-.09,2,.46,1-.11c.11.06.12.2.13.32L51,72.69l0,.06a27.84,27.84,0,0,0,1.37,4.5c.65,1.89.95,4.19-.1,6a5.88,5.88,0,0,1-5.23,2.8,6.67,6.67,0,0,1-4.93-3l-2.58-3.76,0,0c0,1.1.06,2.21.11,3.31a13.12,13.12,0,0,0,.51,3.3l.62.82A5.73,5.73,0,0,1,40.45,89c-.11.2-.38.29-.42.53a51.14,51.14,0,0,0-.43,6.69,5.06,5.06,0,0,0,.15,1l-.42.34,0,0a4.69,4.69,0,0,0-1-.83c-.19-.09-.35.06-.5.12a3.29,3.29,0,0,0-.85.73c.18.46.31,1,.46,1.41-.1.22-.32.29-.46.44l-.55.36a3.5,3.5,0,0,0,.21,1.57,1,1,0,0,1-.51-.07,4.68,4.68,0,0,1-1-2.38c.05-.5.17-1,.27-1.51v0a12.55,12.55,0,0,1-1.36,1.27A1.83,1.83,0,0,1,32.88,98a2.49,2.49,0,0,0-1.28.6h0l-.07-.44A5.81,5.81,0,0,1,33,96.46c.65-.14,1.3-.25,2-.33-.6-.41-1.31-.62-1.92-1a4.4,4.4,0,0,1,.16-1.44,4.07,4.07,0,0,0-1.2-1l.49-.26a4.56,4.56,0,0,1,2.26,1,14,14,0,0,1,1,1.86c.09.19.33,0,.48,0A2,2,0,0,0,36.9,95a29.31,29.31,0,0,0-.65-7.82,20.51,20.51,0,0,0-1.59-2c-.67-.75-1.34-1.56-2-2.23a9.07,9.07,0,0,0-1.36,2c0,.29,0,.61,0,.91a8.65,8.65,0,0,1-2.24.94c-.39-.27-.75-.58-1.15-.85-1.87-.37-3.62-.88-5.49-1.25a2.75,2.75,0,0,0-1.07.1.88.88,0,0,1-.28-.47,4.84,4.84,0,0,0,.76-.74,2.51,2.51,0,0,0-.58-1.38c-.37.06-.69.27-1.06.35a5,5,0,0,1-2.4-.55l-.09-.44a3,3,0,0,0,1.11.06c.21-.12.19-.37.28-.56s.1-.32.28-.37l1.14,0,.5,0v0A11.33,11.33,0,0,0,19,79.73a1.58,1.58,0,0,1,.29-1c-.1-.25-.36-.38-.57-.54L17.9,78a1.12,1.12,0,0,1,.32-.39l1.55.09a5.15,5.15,0,0,1,1.26.64c.41.53.7,1.06,1.06,1.6l0-.09a15.37,15.37,0,0,1,.21-1.66,2.61,2.61,0,0,1,.94-.24,2.06,2.06,0,0,0,.24-1.55,1.25,1.25,0,0,1,.48.26,4.17,4.17,0,0,1,.11,3A12.86,12.86,0,0,1,23.06,81a15.15,15.15,0,0,0,.38,1.51c.45.06,1,.09,1.45.14l3.28.29c-.1-.4-.4-.77-.37-1.2a25.32,25.32,0,0,1,1.25-5.9,18.8,18.8,0,0,1,4.28-2.07l0,0a19.1,19.1,0,0,0-.62-3.08,14.5,14.5,0,0,0-1.68-2c-.23-.47-.43-1-.64-1.45l-.58.63-3.19,3.64c-.43.54-.91,1-1.3,1.6a.9.9,0,0,1-.38-.29,1.65,1.65,0,0,0,0-.88,3.42,3.42,0,0,0-1.31-.68A8.93,8.93,0,0,1,22,73.05a3.47,3.47,0,0,0-.55-.08l0,0-.09,3.37-.06,0a12.71,12.71,0,0,1-1.38,0c0-1.06,0-2.14,0-3.16a7.47,7.47,0,0,0-.77.59h-.05l-.17-.37a5.64,5.64,0,0,1,.48-1.1l.56-.67c0-.58,0-1.17,0-1.76a2.2,2.2,0,0,0-.44-.12l-.46-1.16a2.91,2.91,0,0,0-1.06,0,1.09,1.09,0,0,1-.25,0,4.51,4.51,0,0,1,.17-.52,5.06,5.06,0,0,1,1.15-.55H20l0,0,.06-3.23c0-.95,0-1.95.05-2.92L20.19,58v0c-.2.09-.36.23-.55.32a2.76,2.76,0,0,1-.85-.4,1.86,1.86,0,0,0-.76.51l-.24.39h0l-.19-.41a5.06,5.06,0,0,1,1-2,7,7,0,0,1,1.61-.81,1.36,1.36,0,0,0,0-.4c-.49-.12-1.11,0-1.5-.37l-.37-1A3.42,3.42,0,0,0,17,53.65a1.76,1.76,0,0,1,.33-.49,3.78,3.78,0,0,1,1.51-.38,6.23,6.23,0,0,1,1.42.26l0-.06V50.35a5.44,5.44,0,0,0-1.8.09,6.71,6.71,0,0,0-2.43,1.82c-.39.43-.81.88-1.2,1.35a15.43,15.43,0,0,1-2-5.2,15.06,15.06,0,0,1-.21-4.29v0c2.26,1.65,4.46,3.61,7.44,3.48.09,0,.2,0,.25,0v-1h.19c.43,0,.87,0,1.31,0a5.26,5.26,0,0,1,0,1l.05.05.55,0c0,.87,0,1.83,0,2.71l-.61,0c0,1.12,0,2.12,0,3.28.17-.36.26-.8.45-1.17s.61-.21.91-.31a6,6,0,0,0,.39-.81l.06-.64.38.35a5.31,5.31,0,0,1,0,2.38c-.32.49-.69,1-1,1.41a1.77,1.77,0,0,0,.45.3,1,1,0,0,0,.71.17c.14,0,.27,0,.39,0a3.46,3.46,0,0,1,.19.54c1.29.7,2.61,1.33,3.94,2,.11-.12.14-.32.27-.46a21.58,21.58,0,0,1,4.55-3.69,9.08,9.08,0,0,1,2.47-.87l1.67-.3c.11-.08.11-.21.14-.33l-.07-.05c-.86-.06-1.69-.07-2.55-.19.24-.4.47-.84.72-1.27a8.55,8.55,0,0,1-.77-1.12L35,48.21c.57-.53,1.18-1,1.78-1.5,0-1-.15-1.93-.16-2.88a2.92,2.92,0,0,1,.92.45" transform="translate(-9.3 -9.05)"/><path id="Path_312" data-name="Path 312" class="cls-1" d="M37.4,44.59c.11,0,.17-.14.27-.16a.62.62,0,0,1,.61.16.54.54,0,0,1,.09.46.83.83,0,0,1-.33.34.53.53,0,0,1-.39-.06c-.06,0-.08.06-.1.1a1.66,1.66,0,0,0,.3.8,4.44,4.44,0,0,0,1.62.31,3.12,3.12,0,0,0,.7-.66s0-.12,0-.15a.48.48,0,0,1-.45,0,.56.56,0,0,1-.28-.53c.08-.18.21-.37.42-.37a1,1,0,0,1,.4.14.71.71,0,0,1,.62-.35.67.67,0,0,1,.48.43s0,.12,0,.14c.2,0,.43-.05.55.16a.55.55,0,0,1,.06.51.68.68,0,0,1-.42.33.55.55,0,0,1-.48-.27S41,46,41,46.06a2.56,2.56,0,0,0,.27.85,4.72,4.72,0,0,0,1.52.38c.3,0,.51-.32.76-.48,0,0,0-.06,0-.1s-.21,0-.29-.06a.45.45,0,0,1-.29-.31A.71.71,0,0,1,43,46c.16-.13.27-.27.49-.25a.6.6,0,0,1,.45.41c.12,0,.22-.1.32-.11a.71.71,0,0,1,.43,0c-.41.68-.88,1.38-1.36,2a4.85,4.85,0,0,0-1.21.38c0,.09.13.15.2.22.4-.06.74-.37,1.16-.2.21.17.63.25.58.61.13.67-.51,1-.86,1.47A15.15,15.15,0,0,1,40.44,59a6.27,6.27,0,0,0-1,2.76c-.25-.07-.47-.25-.71-.31-.1,3.71-.14,7.12-.22,10.78,1.11,1.12,1.5,2.56,2.15,3.87l1.56,3.28a21.73,21.73,0,0,0,2.28,3.9A4,4,0,0,0,49,84.3a3.63,3.63,0,0,0,2.38-2.6,4.29,4.29,0,0,0,0-.88l-.07-.5c-.38-2-1.66-3.64-2.6-5.41a22.57,22.57,0,0,1-2.65-5.51A7.2,7.2,0,0,1,46,67.8c.05-.15,0-.35.05-.51.27-2.42,2.69-4,4.42-5.45l3.15-2.42c1.61-1.25,3.4-2.75,4-4.74a5.75,5.75,0,0,0-.27-4.06,3.7,3.7,0,0,0-3.73-1.9,3.27,3.27,0,0,0-2.53,2,2.48,2.48,0,0,0,0,1.35,6.9,6.9,0,0,1,1.68.36,5.23,5.23,0,0,1,1,2.23,18.49,18.49,0,0,1-.47,3,4.43,4.43,0,0,0-1.08-3,.87.87,0,0,0-.36,0v.06a4.67,4.67,0,0,1,0,2.29,15.08,15.08,0,0,1-3,2.53,18,18,0,0,0-3.32,3A14.13,14.13,0,0,1,48,58.08c.48-.69,1-1.34,1.53-2a3.26,3.26,0,0,0-.13-1.35,7.35,7.35,0,0,0-1.9,1.66,11.72,11.72,0,0,1,2-3.77,4.09,4.09,0,0,1,1.38-3.73A4.83,4.83,0,0,1,55.69,48a4.55,4.55,0,0,1,2.82,2.75,7.34,7.34,0,0,1-.1,5,12.83,12.83,0,0,1-3.21,4.53,20.55,20.55,0,0,0-3.08,3.5c.46,0,.93-.17,1.37-.21a23.39,23.39,0,0,1,2.5.46l-.79.37-4.38,2.08a3.69,3.69,0,0,0-.27,1c.69-.1,1.4-.33,2.11-.4l.27,0,2.18.47-4.72,2.26a2.27,2.27,0,0,0,0,.82c.4,0,.77-.17,1.21-.07.7.14,1.38.31,2.09.46-1,.5-2,1-3,1.46a4,4,0,0,0,.13.91c.54,2.47,1.87,4.62,1.85,7.29a5.14,5.14,0,0,1-2.82,4.4,5.53,5.53,0,0,1-4.83.15,7.07,7.07,0,0,1-2.85-2.57c-.89-1.34-1.82-2.62-2.66-4a15.52,15.52,0,0,0-.4-3.9,2.9,2.9,0,0,0-.25-.61h0l-.19.4c.59,1.56.43,3.52.54,5.21a31.9,31.9,0,0,0,.39,5.69,3.31,3.31,0,0,0,.82,1.4,7.84,7.84,0,0,1-.15,1.68c-.11.29-.38.46-.55.7-.2,1.76-.29,3.44-.45,5.22a15,15,0,0,0,.08,2.59,3.46,3.46,0,0,0-1.31-.82,6.51,6.51,0,0,0-1.51,1v.16c.12.49.35.92.44,1.4a3.13,3.13,0,0,1-1,.65,5.34,5.34,0,0,0,0,1.13A3.41,3.41,0,0,1,35.35,99a12.35,12.35,0,0,1,.24-1.6c-.09-.15-.24-.38-.46-.34a15.23,15.23,0,0,1-1.21,1.2,1.93,1.93,0,0,1-1-.61,3.28,3.28,0,0,0-.86.31,3.35,3.35,0,0,1,1.2-1.25,15.58,15.58,0,0,1,1.79-.31.92.92,0,0,0,.07-.54c-.56-.32-1.17-.55-1.7-.92a3.82,3.82,0,0,1,.19-1.34,4.28,4.28,0,0,0-.85-.85,3.36,3.36,0,0,1,1.86.9c.36.63.69,1.27,1.06,1.9l.07.07a3.33,3.33,0,0,0,1.38-.43l.07-.12a30.64,30.64,0,0,0-.63-8,3.56,3.56,0,0,0-.59-.86L32.33,82a4.53,4.53,0,0,1-.76-1.2,12.82,12.82,0,0,1-.27-3.33C32.3,76,34.05,75,35,73.46a4.09,4.09,0,0,0,.53-1.19c-.08-.07-.21,0-.33-.06-.09.14-.11.33-.19.49-.75,1.78-2.58,2.75-3.76,4.24l-.31.47a15.86,15.86,0,0,0,.26,3.3,5.41,5.41,0,0,0,1.12,1.91c-.45.72-1,1.41-1.38,2.16a3.46,3.46,0,0,0-.05.91,3.09,3.09,0,0,1-.83.42,8.21,8.21,0,0,1-1,.33,6.38,6.38,0,0,1-.94-.78l-1.61-.33-3.69-.89a2.69,2.69,0,0,0-1.38,0c.27-.32.7-.53.71-1a6.41,6.41,0,0,0-.78-1.6c-.51,0-.93.43-1.47.43A4.65,4.65,0,0,1,18.4,82a3.78,3.78,0,0,0,.74-.17c.13-.24.12-.5.25-.74A11.08,11.08,0,0,1,21,80.92a3.32,3.32,0,0,0,.25-.54c-.58-.37-1.26-.52-1.86-.88a1.26,1.26,0,0,1,.36-.81,2.29,2.29,0,0,0-.55-.48c-.09,0-.16-.15-.25-.2L19,78a2.53,2.53,0,0,1,1,.17l.7.43a9,9,0,0,1,1.16,1.66,1.29,1.29,0,0,0,.55-.07c.16-.56.06-1.15.21-1.7a3.8,3.8,0,0,1,.93-.17l.08-.08.22-.78a3,3,0,0,1-.06,2.06,9.49,9.49,0,0,1-1.13,1.4,13.93,13.93,0,0,1,.45,1.8c.48.07.92.1,1.42.14,1.4.12,2.73.27,4.1.37l0,0a5.32,5.32,0,0,1-.5-1.4A21.53,21.53,0,0,1,29.37,76a24.75,24.75,0,0,1,4.32-2,1.82,1.82,0,0,0,0-.77A17.66,17.66,0,0,0,33,70.36a16.12,16.12,0,0,0-1.66-2,8.34,8.34,0,0,1-.59-1.53l0-.07,3.12-3.53.32-.38c0-.11-.16-.19-.22-.28l-.09.09L29.7,67.43l-4.24,4.95-.08.09,0,0a1.3,1.3,0,0,0-.31-1,7,7,0,0,0-1.52-.63,8.43,8.43,0,0,1-1.61,1.92,6.6,6.6,0,0,1-.77-.17l-.07,3.58h-.88c0-1.15,0-2.22,0-3.38a1,1,0,0,0-.46.16c-.15.1-.29.21-.43.32.09-.56.58-.94.92-1.38,0-.57,0-1.14,0-1.7,0-.14,0-.32,0-.46l-.48-.11c-.2-.39-.31-.85-.52-1.24a4.6,4.6,0,0,0-.91-.09,5.24,5.24,0,0,1,.92-.31c.37,0,.68,0,1,0l0-.06V66.17l.09-4.34c0-1.57,0-2.92.07-4.45h-.06l-.83.56a5.26,5.26,0,0,1-.85-.44,2.47,2.47,0,0,0-.77.55,5.9,5.9,0,0,1,.8-1.4,6.22,6.22,0,0,1,1.71-.9,3.38,3.38,0,0,0,0-.84,4.67,4.67,0,0,1-1.44-.23,2.8,2.8,0,0,1-.4-1.11c-.09-.07-.22-.06-.35-.1l-.61-.13a2.69,2.69,0,0,1,.88-.25,3,3,0,0,1,1.9.51l0,0c0-1.07.07-2.15.07-3.2h.86c0,1.2,0,2.46-.05,3.75a.53.53,0,0,0,.35,0c.27-.48.45-1,.68-1.49a6.83,6.83,0,0,1,.81-.17,4.28,4.28,0,0,0,.45-.81c.2.4,0,.87,0,1.32l-.11.43c-.38.51-.72,1-1.14,1.5V55c.36.22.74.43,1.12.62.21,0,.43,0,.65,0l.18.44c1.33.75,2.71,1.37,4.05,2.1-.21,1-.29,2-.43,3l-.53-.39-4.11-3.23a5.75,5.75,0,0,0-.83,0,.39.39,0,0,1-.2-.18,5.07,5.07,0,0,0,.27-.68,5.06,5.06,0,0,0-.91-.51,1.82,1.82,0,0,0-.34.34l0,.45,0,3.2c-.06,2.58-.09,5.46-.13,8.07a8.88,8.88,0,0,0,1.17.74c.12-.14.47-.18.37-.43l-.5-1.32a2,2,0,0,1,.59-1,3,3,0,0,0-.17-.89,2.67,2.67,0,0,1,.89,1.25l.05.18c0,.85,0,1.74.08,2.54a10.69,10.69,0,0,0,1.23.69l.46-.69,2.51-4,1.84-2.92v0a9.3,9.3,0,0,1-1.58.08c.36-1.44.36-3.07.85-4.46a10.93,10.93,0,0,1,2.93-2.74,9.85,9.85,0,0,1,3.32-1.84c.84-.18,1.71-.32,2.55-.48a.83.83,0,0,0,.21-.28,5.56,5.56,0,0,0,.19-.7l-.06,0a18.54,18.54,0,0,1-2.47-.19l.5-.94c-.27-.39-.52-.81-.78-1.2l0-.37c.14-.13.32-.26.47-.4a.43.43,0,0,0-.16-.19l-.35.23a1.19,1.19,0,0,1,0-.46c.54-.47,1.12-1,1.71-1.38l1.3.27,3.39.77a2.6,2.6,0,0,0,.47-.16l-.07-.05c-1.72-.35-3.34-.76-5.05-1.11,0-.84-.11-1.62-.12-2.45a1,1,0,0,1,.49.37" transform="translate(-9.3 -9.05)"/><path id="Path_313" data-name="Path 313" class="cls-3" d="M19.38,47.84c.91,0,1.85,0,2.78.09h0c0,.66,0,1.43-.06,2.11H18.89c-1.36.17-2.26,1.25-3.25,2.2-.25.28-.48.55-.74.8A15.85,15.85,0,0,1,13,46.62a10.26,10.26,0,0,1,0-1.92c2,1.4,3.9,3,6.41,3.14" transform="translate(-9.3 -9.05)"/><path id="Path_314" data-name="Path 314" class="cls-4" d="M21.54,46.82a6.09,6.09,0,0,1,0,.74h-.89c0-.24,0-.48,0-.72l0,0,.86,0" transform="translate(-9.3 -9.05)"/><path id="Path_315" data-name="Path 315" d="M40.28,48.18v.33l-1.44-.39a.93.93,0,0,1-.33.63,2,2,0,0,1-.91,0c-.28-.19-.23-.56-.35-.86a1.42,1.42,0,0,0-.65.26.23.23,0,0,1-.15-.21l.62-.45c1.1.13,2.13.46,3.21.68" transform="translate(-9.3 -9.05)"/><path id="Path_316" data-name="Path 316" class="cls-2" d="M38.51,48.06a.79.79,0,0,1-.1.4.48.48,0,0,1-.68-.06.47.47,0,0,1-.08-.47s.09,0,.12,0l.74.17" transform="translate(-9.3 -9.05)"/><path id="Path_317" data-name="Path 317" d="M43.47,49.08c.1.31-.17.51-.37.69a3.28,3.28,0,0,1-.11-.45L42.64,49c0-.08.14-.05.2-.09l.25-.06a.74.74,0,0,1,.38.2" transform="translate(-9.3 -9.05)"/><path id="Path_318" data-name="Path 318" d="M33.19,50l2,.19.22.34a5.36,5.36,0,0,1-.7-.05l-1.91-.18a2.9,2.9,0,0,1-.82-.42.26.26,0,0,1,.07-.24.16.16,0,0,1,.2,0,1.66,1.66,0,0,0,.93.35" transform="translate(-9.3 -9.05)"/><path id="Path_319" data-name="Path 319" d="M38.88,50a5.66,5.66,0,0,1,.21,1l-2.49-.15-.27-1s0-.07,0-.11c.82.09,1.67.11,2.53.2" transform="translate(-9.3 -9.05)"/><path id="Path_320" data-name="Path 320" class="cls-2" d="M38.54,50.27a.89.89,0,0,1,.12.38c-.64,0-1.14-.07-1.78-.09l-.12-.36,0-.05,1.75.12" transform="translate(-9.3 -9.05)"/><path id="Path_321" data-name="Path 321" d="M34.84,56.35a1,1,0,0,1-.07.31l-2.69.42c-.37.09-.57.45-.76.74L30,59.93c-.09,0-.16-.1-.27-.12l1.6-2.57c.46-.62,1.27-.52,1.92-.67s1.07-.14,1.6-.22" transform="translate(-9.3 -9.05)"/><path id="Path_322" data-name="Path 322" class="cls-2" d="M22.28,56.81c0,.22-.2.39-.26.59s.3.29.43.47h.76c.92.61,1.71,1.31,2.59,2L28,61.6a8.29,8.29,0,0,1-.26,1.12l0,.05c.41,0,.88,0,1.28-.05-.4.74-.86,1.44-1.3,2.15l-2.13,3.41c-.28.4-.5.82-.79,1.2a3.15,3.15,0,0,1-.8-.4l-.1-2.48a5,5,0,0,0-.61-1.19l-.72-.65-.43,0,0,0a3.07,3.07,0,0,1,.4,1.17,2.51,2.51,0,0,0-.61,1.19v.13c.2.45.38.92.56,1.38-.31-.21-.66-.41-.93-.63l0-3.56c0-2.49.09-5.31.12-7.86l.13-.06.44.22" transform="translate(-9.3 -9.05)"/><path id="Path_323" data-name="Path 323" d="M22.29,70a1.71,1.71,0,0,1,.09.55v.06l-1.2.7c0-.48,0-.91,0-1.41l0,0c.38,0,.73.09,1.09.12" transform="translate(-9.3 -9.05)"/><path id="Path_324" data-name="Path 324" class="cls-2" d="M22,70.24a.39.39,0,0,1,0,.28c-.17.09-.33.18-.5.25a5.61,5.61,0,0,1,0-.58l.05,0,.47.08" transform="translate(-9.3 -9.05)"/></g><g id="Kommisjonen_for_gjenopptakelse_av_straffesaker" data-name="Kommisjonen for gjenopptakelse av straffesaker" class="cls-5"><g class="cls-5"><path class="cls-3" d="M78.34,64.14H75V43.54h3.34v9.29l3.07-.24,4.21-9.05h3.82L84.36,53.89l5.29,10.25H85.77l-4.36-8.6-3.07.21Z" transform="translate(-9.3 -9.05)"/><path class="cls-3" d="M106.21,62c-1.23,1.68-3.4,2.53-6.51,2.53s-5.28-.85-6.53-2.55-1.86-4.35-1.86-8,.62-6.33,1.88-8.09,3.42-2.65,6.51-2.65,5.25.88,6.5,2.63,1.86,4.46,1.86,8.11S107.45,60.26,106.21,62ZM95.79,59.78c.68,1.19,2,1.78,3.91,1.78s3.22-.58,3.9-1.75,1-3.11,1-5.85a13,13,0,0,0-1-6c-.7-1.24-2-1.86-3.87-1.86s-3.18.62-3.88,1.86a12.7,12.7,0,0,0-1,5.94Q94.77,58,95.79,59.78Z" transform="translate(-9.3 -9.05)"/><path class="cls-3" d="M111.94,64.14V43.54h5.81l4.6,16.09L127,43.54h5.84v20.6h-3.37V47.24H129L124.09,63.3h-3.48l-4.88-16.06h-.45v16.9Z" transform="translate(-9.3 -9.05)"/><path class="cls-3" d="M137.51,64.14V43.54h5.81l4.6,16.09,4.6-16.09h5.84v20.6H155V47.24h-.46L149.66,63.3h-3.49L141.3,47.24h-.45v16.9Z" transform="translate(-9.3 -9.05)"/><path class="cls-3" d="M163.08,64.14V43.54h3.34v20.6Z" transform="translate(-9.3 -9.05)"/><path class="cls-3" d="M177.21,46.13c-2.54,0-3.82.89-3.82,2.67a2.15,2.15,0,0,0,.91,2,16.72,16.72,0,0,0,4,1.45,10.6,10.6,0,0,1,4.35,2A5,5,0,0,1,183.89,58,6.1,6.1,0,0,1,182,62.87a7.42,7.42,0,0,1-5,1.61,30,30,0,0,1-5.65-.61l-1.08-.21L170.6,61a50.77,50.77,0,0,0,6.19.54q3.74,0,3.73-3.31a2.21,2.21,0,0,0-.84-1.91A12.78,12.78,0,0,0,175.89,55a10.33,10.33,0,0,1-4.39-2,5.23,5.23,0,0,1-1.44-4.09,5,5,0,0,1,1.82-4.22,8,8,0,0,1,5-1.43,33.16,33.16,0,0,1,5.48.54l1.05.18-.27,2.71C180.36,46.29,178.38,46.13,177.21,46.13Z" transform="translate(-9.3 -9.05)"/><path class="cls-3" d="M185.52,66.28v-3a3.59,3.59,0,0,0,2.18-.48,2.78,2.78,0,0,0,.58-2.13V43.54h3.31l0,17.42c0,2.14-.45,3.57-1.35,4.27S187.78,66.28,185.52,66.28Z" transform="translate(-9.3 -9.05)"/><path class="cls-3" d="M210.23,62c-1.24,1.68-3.41,2.53-6.52,2.53s-5.28-.85-6.52-2.55-1.87-4.35-1.87-8,.63-6.33,1.88-8.09,3.43-2.65,6.51-2.65,5.26.88,6.5,2.63,1.87,4.46,1.87,8.11S211.46,60.26,210.23,62ZM199.8,59.78c.68,1.19,2,1.78,3.91,1.78s3.23-.58,3.9-1.75,1-3.11,1-5.85a12.93,12.93,0,0,0-1-6q-1-1.86-3.87-1.86c-1.88,0-3.17.62-3.88,1.86a12.7,12.7,0,0,0-1.05,5.94Q198.78,58,199.8,59.78Z" transform="translate(-9.3 -9.05)"/><path class="cls-3" d="M216,64.14V43.54h5.83l6.26,17.66h.45V43.54h3.34v20.6h-5.72l-6.4-17.68h-.42V64.14Z" transform="translate(-9.3 -9.05)"/><path class="cls-3" d="M236.59,64.14V43.54h13v2.92h-9.65v5.83h7.85v2.89h-7.85v6h9.65v2.94Z" transform="translate(-9.3 -9.05)"/><path class="cls-3" d="M253.22,64.14V43.54h5.84l6.26,17.66h.45V43.54h3.34v20.6h-5.72L257,46.46h-.42V64.14Z" transform="translate(-9.3 -9.05)"/><path class="cls-3" d="M280.47,64.14V43.54h12.79v2.92h-9.45v6.95h7.85v2.91h-7.85v7.82Z" transform="translate(-9.3 -9.05)"/><path class="cls-3" d="M310.27,62c-1.23,1.68-3.41,2.53-6.51,2.53s-5.29-.85-6.53-2.55-1.87-4.35-1.87-8,.63-6.33,1.88-8.09,3.43-2.65,6.52-2.65,5.25.88,6.49,2.63,1.87,4.46,1.87,8.11S311.5,60.26,310.27,62Zm-10.42-2.17c.68,1.19,2,1.78,3.91,1.78s3.22-.58,3.89-1.75,1-3.11,1-5.85a12.93,12.93,0,0,0-1-6c-.69-1.24-2-1.86-3.86-1.86s-3.18.62-3.88,1.86a12.55,12.55,0,0,0-1.06,5.94Q298.82,58,299.85,59.78Z" transform="translate(-9.3 -9.05)"/><path class="cls-3" d="M319.34,56.81v7.33H316V43.54h7.82q7,0,7,6.56c0,2.93-1.13,4.91-3.37,5.95l3.4,8.09h-3.67l-3-7.33Zm8-6.68c0-2.47-1.19-3.7-3.55-3.7h-4.48v7.49h4.54a3.24,3.24,0,0,0,2.65-1A4.24,4.24,0,0,0,327.37,50.13Z" transform="translate(-9.3 -9.05)"/></g><g class="cls-5"><path class="cls-3" d="M83.4,87.63V84.68h5.86V95.15A26.42,26.42,0,0,1,86,95.6c-1.66.16-2.85.24-3.6.24-3.12,0-5.28-.86-6.46-2.58s-1.78-4.43-1.78-8.11.61-6.36,1.82-8.05,3.32-2.52,6.3-2.52a33.74,33.74,0,0,1,6,.6l1.05.21L89.14,78a50.34,50.34,0,0,0-6.53-.48c-1.92,0-3.24.54-4,1.62s-1.07,3.09-1.07,6,.34,4.94,1,6.06,2,1.67,4.07,1.67A14.62,14.62,0,0,0,86,92.66v-5Z" transform="translate(-9.3 -9.05)"/><path class="cls-3" d="M91.52,97.65v-3a3.59,3.59,0,0,0,2.18-.48,2.79,2.79,0,0,0,.59-2.14V74.91h3.3l0,17.42c0,2.14-.45,3.56-1.35,4.27S93.78,97.65,91.52,97.65Z" transform="translate(-9.3 -9.05)"/><path class="cls-3" d="M102.23,95.51V74.91h13v2.92h-9.66v5.83h7.86v2.89h-7.86v6h9.66v2.94Z" transform="translate(-9.3 -9.05)"/><path class="cls-3" d="M118.86,95.51V74.91h5.84L131,92.57h.45V74.91h3.34v20.6H129l-6.41-17.68h-.42V95.51Z" transform="translate(-9.3 -9.05)"/><path class="cls-3" d="M153.5,93.32q-1.86,2.52-6.52,2.52c-3.1,0-5.28-.84-6.52-2.54s-1.87-4.35-1.87-8,.63-6.33,1.88-8.1,3.43-2.64,6.51-2.64,5.26.88,6.5,2.63,1.87,4.46,1.87,8.11S154.73,91.63,153.5,93.32Zm-10.43-2.17c.68,1.19,2,1.78,3.91,1.78s3.23-.59,3.9-1.75,1-3.11,1-5.85a12.88,12.88,0,0,0-1-6q-1-1.86-3.87-1.86c-1.88,0-3.17.62-3.88,1.86a12.64,12.64,0,0,0-1,5.94Q142.05,89.38,143.07,91.15Z" transform="translate(-9.3 -9.05)"/><path class="cls-3" d="M166.78,89.11h-4.22v6.4h-3.33V74.91h7.55q7,0,7,6.92A7.56,7.56,0,0,1,172,87.24,6.84,6.84,0,0,1,166.78,89.11Zm-4.22-2.89h4.19c2.4,0,3.61-1.47,3.61-4.39a4.48,4.48,0,0,0-.88-3.07,3.51,3.51,0,0,0-2.73-1h-4.19Z" transform="translate(-9.3 -9.05)"/><path class="cls-3" d="M184.55,89.11h-4.21v6.4H177V74.91h7.55q7,0,7,6.92a7.61,7.61,0,0,1-1.76,5.41A6.85,6.85,0,0,1,184.55,89.11Zm-4.21-2.89h4.18c2.41,0,3.61-1.47,3.61-4.39a4.49,4.49,0,0,0-.87-3.07,3.52,3.52,0,0,0-2.74-1h-4.18Z" transform="translate(-9.3 -9.05)"/><path class="cls-3" d="M192.79,77.89v-3h15v3H202V95.51h-3.37V77.89Z" transform="translate(-9.3 -9.05)"/><path class="cls-3" d="M207.59,95.51l5.09-20.6h6.64l5.12,20.6h-3.37L220,91.09H212l-1.11,4.42Zm7.67-17.8-2.55,10.43h6.58l-2.52-10.43Z" transform="translate(-9.3 -9.05)"/><path class="cls-3" d="M230.72,95.51h-3.33V74.91h3.33V84.2l3.07-.24,4.21-9h3.82l-5.08,10.35L242,95.51h-3.88l-4.36-8.6-3.07.21Z" transform="translate(-9.3 -9.05)"/><path class="cls-3" d="M244.92,95.51V74.91h13v2.92h-9.66v5.83h7.85v2.89h-7.85v6h9.66v2.94Z" transform="translate(-9.3 -9.05)"/><path class="cls-3" d="M273.11,95.51H261.56V74.91h3.33V92.53h8.22Z" transform="translate(-9.3 -9.05)"/><path class="cls-3" d="M281.89,77.5q-3.83,0-3.82,2.67a2.16,2.16,0,0,0,.9,2,17.13,17.13,0,0,0,4,1.45,10.62,10.62,0,0,1,4.34,2,4.9,4.9,0,0,1,1.27,3.75,6.09,6.09,0,0,1-1.85,4.85,7.4,7.4,0,0,1-5,1.61,30,30,0,0,1-5.66-.6L274.94,95l.33-2.68a49.35,49.35,0,0,0,6.2.55c2.48,0,3.73-1.11,3.73-3.31a2.21,2.21,0,0,0-.84-1.91,13.25,13.25,0,0,0-3.79-1.36,10.25,10.25,0,0,1-4.4-2,5.23,5.23,0,0,1-1.44-4.09A5,5,0,0,1,276.55,76a7.91,7.91,0,0,1,5-1.43,33.05,33.05,0,0,1,5.47.54l1.06.18L287.84,78C285,77.66,283.05,77.5,281.89,77.5Z" transform="translate(-9.3 -9.05)"/><path class="cls-3" d="M292.18,95.51V74.91h13v2.92h-9.66v5.83h7.85v2.89h-7.85v6h9.66v2.94Z" transform="translate(-9.3 -9.05)"/><path class="cls-3" d="M313.65,95.51l5.09-20.6h6.64l5.12,20.6h-3.37L326,91.09H318.1L317,95.51Zm7.67-17.8-2.55,10.43h6.58l-2.52-10.43Z" transform="translate(-9.3 -9.05)"/><path class="cls-3" d="M344,74.91h3.49l-5.05,20.6h-6.56l-5.05-20.6h3.49l4.09,17.66h1.5Z" transform="translate(-9.3 -9.05)"/><path class="cls-3" d="M363.13,77.5c-2.54,0-3.82.89-3.82,2.67a2.16,2.16,0,0,0,.9,2,17.33,17.33,0,0,0,4,1.45,10.74,10.74,0,0,1,4.35,2,4.94,4.94,0,0,1,1.26,3.75A6.09,6.09,0,0,1,368,94.23a7.37,7.37,0,0,1-5,1.61,29.9,29.9,0,0,1-5.65-.6L356.18,95l.33-2.68a49.5,49.5,0,0,0,6.2.55c2.49,0,3.73-1.11,3.73-3.31a2.21,2.21,0,0,0-.84-1.91,13.13,13.13,0,0,0-3.79-1.36,10.15,10.15,0,0,1-4.39-2A5.2,5.2,0,0,1,356,80.2,5,5,0,0,1,357.79,76a8,8,0,0,1,5-1.43,33.26,33.26,0,0,1,5.48.54l1.05.18L369.09,78C366.28,77.66,364.3,77.5,363.13,77.5Z" transform="translate(-9.3 -9.05)"/><path class="cls-3" d="M371.43,77.89v-3h15v3h-5.8V95.51H377.3V77.89Z" transform="translate(-9.3 -9.05)"/><path class="cls-3" d="M392.58,88.17v7.34h-3.34V74.91h7.82q7,0,7,6.56c0,2.92-1.12,4.91-3.37,6l3.4,8.09H400.4l-3-7.34Zm8-6.67q0-3.7-3.55-3.7h-4.48v7.49h4.54a3.22,3.22,0,0,0,2.65-1A4.24,4.24,0,0,0,400.61,81.5Z" transform="translate(-9.3 -9.05)"/><path class="cls-3" d="M405.84,95.51l5.09-20.6h6.65l5.11,20.6h-3.37l-1.11-4.42H410.3l-1.12,4.42Zm7.68-17.8L411,88.14h6.59L415,77.71Z" transform="translate(-9.3 -9.05)"/><path class="cls-3" d="M425.64,95.51V74.91h12.78v2.92H429v6.94h7.85v2.92H429v7.82Z" transform="translate(-9.3 -9.05)"/><path class="cls-3" d="M441.55,95.51V74.91h12.78v2.92h-9.44v6.94h7.85v2.92h-7.85v7.82Z" transform="translate(-9.3 -9.05)"/><path class="cls-3" d="M457.46,95.51V74.91h13v2.92H460.8v5.83h7.85v2.89H460.8v6h9.65v2.94Z" transform="translate(-9.3 -9.05)"/><path class="cls-3" d="M480.14,77.5q-3.83,0-3.82,2.67a2.16,2.16,0,0,0,.9,2,17.13,17.13,0,0,0,4,1.45,10.62,10.62,0,0,1,4.34,2,4.9,4.9,0,0,1,1.27,3.75A6.09,6.09,0,0,1,485,94.23a7.4,7.4,0,0,1-5,1.61,30.08,30.08,0,0,1-5.66-.6L473.19,95l.33-2.68a49.35,49.35,0,0,0,6.2.55c2.49,0,3.73-1.11,3.73-3.31a2.21,2.21,0,0,0-.84-1.91,13.25,13.25,0,0,0-3.79-1.36,10.25,10.25,0,0,1-4.4-2A5.23,5.23,0,0,1,473,80.2,5,5,0,0,1,474.8,76a7.91,7.91,0,0,1,5-1.43,33.05,33.05,0,0,1,5.47.54l1.06.18L486.1,78Q481.89,77.5,480.14,77.5Z" transform="translate(-9.3 -9.05)"/><path class="cls-3" d="M488.38,95.51l5.09-20.6h6.64l5.12,20.6h-3.37l-1.11-4.42h-7.92l-1.11,4.42Zm7.67-17.8L493.5,88.14h6.58l-2.52-10.43Z" transform="translate(-9.3 -9.05)"/><path class="cls-3" d="M511.51,95.51h-3.34V74.91h3.34V84.2l3.07-.24,4.21-9h3.82l-5.08,10.35,5.29,10.25h-3.88l-4.36-8.6-3.07.21Z" transform="translate(-9.3 -9.05)"/><path class="cls-3" d="M525.71,95.51V74.91h13v2.92h-9.66v5.83h7.85v2.89h-7.85v6h9.66v2.94Z" transform="translate(-9.3 -9.05)"/><path class="cls-3" d="M545.68,88.17v7.34h-3.34V74.91h7.83q7,0,7,6.56c0,2.92-1.12,4.91-3.37,6l3.4,8.09H553.5l-3-7.34Zm8-6.67q0-3.7-3.54-3.7h-4.49v7.49h4.55a3.2,3.2,0,0,0,2.64-1A4.24,4.24,0,0,0,553.71,81.5Z" transform="translate(-9.3 -9.05)"/></g></g></svg>