<svg id="Group_5" data-name="Group 5" xmlns="http://www.w3.org/2000/svg" width="216" height="40.177" viewBox="0 0 216 40.177">
  <path id="Path_24" data-name="Path 24" d="M32.638,8.559A9.54,9.54,0,0,1,36.915,2.4C39.071,1.1,43.064,0,47.964,0,58.951,0,62.791,3.246,62.791,11.565v23.2a12.56,12.56,0,0,0,.909,4.193H52.853l-.77-3.382c-2.8,2.977-5.178,4.6-9.586,4.6-6.3,0-10.219-4.125-10.219-10.145,0-8.431,4.829-11.3,9.727-12.852,4.83-1.556,9.659-2.24,9.659-6.087,0-1.915-1.327-2.533-3.566-2.533Zm19.026,12c-2.239,1.15-4.2,1.759-5.6,2.773a5.4,5.4,0,0,0-2.59,4.869,3.81,3.81,0,0,0,4.129,4.059c3.288,0,3.989-3.314,4.059-5.749Z" transform="translate(8.716 0.001)" fill="#fff"/>
  <path id="Path_25" data-name="Path 25" d="M4.584,5.027C4.584,1.813,0,.876,0,.876V.658H17.321l8.474,15.734h0L25.789.658H37.476V38.739H25.788l-9.5-19.258h0l-.02,19.258H4.584Z" transform="translate(0 0.178)" fill="#fff"/>
  <path id="Path_26" data-name="Path 26" d="M96.367,0a10.01,10.01,0,0,0-8.118,5h-.141c-1.259-3.176-4.3-5-8.258-5a9.989,9.989,0,0,0-8.328,5.475h-.145V.807H56.442v.218s4.584.938,4.584,4.154V38.916H72.152l-.005-27.025c0-1.726.839-3.125,2.979-3.125s2.969,1.4,2.969,3.125L78.1,38.916H89.223V11.891c0-1.726.845-3.125,2.985-3.125s2.963,1.4,2.963,3.125V38.916H106.3V7.9C106.3,2.77,101.616,0,96.367,0Z" transform="translate(15.241 0)" fill="#fff"/>
  <path id="Path_27" data-name="Path 27" d="M135.96,0a10.01,10.01,0,0,0-8.118,5h-.14c-1.26-3.176-4.3-5-8.259-5a9.989,9.989,0,0,0-8.328,5.475h-.145V.807H96.035v.218s4.584.938,4.584,4.154V38.916h11.127l-.005-27.025c0-1.726.839-3.125,2.979-3.125s2.969,1.4,2.969,3.125l.005,27.025h11.122V11.891c0-1.726.845-3.125,2.985-3.125s2.963,1.4,2.963,3.125V38.916H145.9V7.9C145.9,2.77,141.207,0,135.96,0Z" transform="translate(25.932 0)" fill="#fff"/>
  <path id="Path_28" data-name="Path 28" d="M137.344,20.089C137.344,9,146.65,0,158.128,0S178.913,9,178.913,20.089s-9.307,20.087-20.785,20.087S137.344,31.183,137.344,20.089Zm22.791-5.833H143.857V25.924h16.278c8.284,0,15-2.612,15-5.834S168.419,14.257,160.135,14.257Z" transform="translate(37.087 0.001)" fill="#fff"/>
</svg>
