<svg xmlns="http://www.w3.org/2000/svg" viewBox="0 0 410.17 487.77"><path fill="currentColor" d="M252.86 164.51c-23.54-35.72-50-72.12-50-72.12s-26.49 36.4-50.05 72.12c-18.57 28.19-36.61 57.85-43.43 69.18h187c-6.81-11.33-24.85-41-43.44-69.18M152.8 323.27c23.54 35.71 50 72.11 50 72.11s26.49-36.4 50-72.11c18.57-28.2 36.61-57.86 43.42-69.19h-187c6.82 11.33 24.86 41 43.45 69.19M316.69 254.08h93.48v233.69h-93.48zM316.69 0h93.48v233.69h-93.48zM0 144.73v89h89a89 89 0 00-89-89zM0 343v-89h89a89 89 0 01-89 89z"/></svg>