<?xml version="1.0" encoding="UTF-8" standalone="no"?>
<!-- Created with Inkscape (http://www.inkscape.org/) -->

<svg
   xmlns:dc="http://purl.org/dc/elements/1.1/"
   xmlns:cc="http://creativecommons.org/ns#"
   xmlns:rdf="http://www.w3.org/1999/02/22-rdf-syntax-ns#"
   xmlns:svg="http://www.w3.org/2000/svg"
   xmlns="http://www.w3.org/2000/svg"
   xmlns:sodipodi="http://sodipodi.sourceforge.net/DTD/sodipodi-0.dtd"
   xmlns:inkscape="http://www.inkscape.org/namespaces/inkscape"
   width="233.93399mm"
   height="234.10333mm"
   viewBox="0 0 233.93399 234.10333"
   version="1.1"
   id="svg3760"
   inkscape:version="0.92.4 (5da689c313, 2019-01-14)"
   sodipodi:docname="FosenIKT_Logo Sirkel2.svg">
  <defs
     id="defs3754" />
  <sodipodi:namedview
     id="base"
     pagecolor="#ffffff"
     bordercolor="#666666"
     borderopacity="1.0"
     inkscape:pageopacity="0.0"
     inkscape:pageshadow="2"
     inkscape:zoom="0.35"
     inkscape:cx="47.794266"
     inkscape:cy="819.54286"
     inkscape:document-units="mm"
     inkscape:current-layer="layer1"
     showgrid="false"
     fit-margin-top="0"
     fit-margin-left="0"
     fit-margin-right="0"
     fit-margin-bottom="0"
     inkscape:window-width="2560"
     inkscape:window-height="1377"
     inkscape:window-x="3992"
     inkscape:window-y="1410"
     inkscape:window-maximized="1" />
  <metadata
     id="metadata3757">
    <rdf:RDF>
      <cc:Work
         rdf:about="">
        <dc:format>image/svg+xml</dc:format>
        <dc:type
           rdf:resource="http://purl.org/dc/dcmitype/StillImage" />
        <dc:title></dc:title>
      </cc:Work>
    </rdf:RDF>
  </metadata>
  <g
     inkscape:label="Layer 1"
     inkscape:groupmode="layer"
     id="layer1"
     transform="translate(-93.187767,-131.56738)">
    <path
       style="fill:#607d8d;stroke-width:0.08466666"
       d="m 205.41343,365.5782 c -27.87392,-1.15458 -53.97188,-11.98323 -74.50666,-30.91456 -1.8656,-1.71992 -5.76851,-5.65355 -7.37356,-7.4316 -16.53529,-18.31749 -26.842151,-41.12757 -29.534473,-65.36266 -0.477693,-4.29998 -0.638094,-6.97086 -0.699146,-11.64167 -0.07059,-5.40013 0.135315,-9.77509 0.695329,-14.77433 4.237924,-37.83195 26.71069,-71.24315 60.27984,-89.62058 14.03509,-7.6835 29.95128,-12.46338 45.93167,-13.794 3.755,-0.31266 4.67235,-0.3444 9.94833,-0.34426 5.26712,1.4e-4 6.26486,0.0346 9.94833,0.34316 15.31941,1.28346 30.76989,5.77235 44.09599,12.81138 0.96305,0.50871 2.33345,1.23312 3.04533,1.60981 1.68932,0.89391 4.73665,2.80945 5.85599,3.68105 1.86123,1.44931 3.9399,3.65836 5.14119,5.46369 0.88553,1.3308 1.66452,3.60748 2.032,5.93877 0.21688,1.37589 0.2179,5.14756 0.002,6.77031 -0.20644,1.55038 -0.6657,3.7912 -1.06895,5.21563 -0.18322,0.64719 -2.80766,7.84421 -5.83211,15.99337 -13.56713,36.55583 -25.9732,69.85039 -26.72125,71.71267 -2.14742,5.34604 -4.50276,9.07128 -8.05033,12.73256 -6.20786,6.40684 -14.44522,10.25567 -23.41034,10.93827 -1.6256,0.12378 -5.10954,0.0571 -6.68866,-0.12792 -10.82545,-1.2687 -20.34704,-7.12809 -26.29995,-16.18443 -3.17096,-4.8241 -5.0321,-10.00349 -5.76258,-16.03682 -0.20981,-1.73292 -0.20941,-6.37392 6.8e-4,-8.14488 0.94951,-8.00291 4.05869,-14.84307 9.42477,-20.73434 3.50225,-3.84503 8.37221,-7.2104 13.15438,-9.0903 2.74591,-1.07944 42.13505,-17.7186 42.84134,-18.09748 3.5917,-1.92672 5.81263,-3.98133 6.37256,-5.89536 0.23589,-0.80633 0.23344,-2.08944 -0.005,-2.74403 -0.44168,-1.21133 -1.28216,-2.0686 -2.9187,-2.97699 -12.91295,-7.16763 -27.59401,-10.25003 -42.35288,-8.89234 -14.60616,1.34364 -28.57862,7.13353 -39.83567,16.50707 -3.68864,3.07146 -7.27834,6.70615 -10.24097,10.36932 -8.74463,10.81239 -14.26477,23.98654 -15.78702,37.67667 -0.36818,3.31112 -0.42911,4.51118 -0.42777,8.42433 0.002,4.39367 0.15105,6.58327 0.72219,10.57476 1.19813,8.37316 3.98317,16.74962 8.07842,24.29711 2.98251,5.49672 7.11414,11.17747 11.17735,15.36817 4.449,4.5886 11.73533,9.6831 17.06113,11.92891 13.454,5.67336 26.24796,7.83846 37.846,6.40463 9.95059,-1.23015 19.27265,-5.21434 27.37407,-11.69948 7.71133,-6.17287 14.48075,-14.70258 19.40167,-24.44677 1.51653,-3.00297 2.12646,-4.48779 4.05175,-9.86366 5.01111,-13.99221 11.27078,-31.42243 11.64556,-32.42733 0.23445,-0.62865 4.35133,-12.2427 9.14863,-25.809 4.90563,-13.87262 8.83839,-24.86878 8.98752,-25.12942 0.97447,-1.70321 2.56223,-3.25177 4.06498,-3.96462 1.07806,-0.51139 1.87775,-0.66662 3.16382,-0.61411 1.30508,0.0533 1.9686,0.2221 3.24295,0.82513 3.43489,1.62541 7.13014,5.45971 10.47174,10.8658 3.49875,5.66032 6.9428,13.25597 9.05984,19.98092 4.14768,13.17549 5.73488,28.54269 4.48728,43.44563 -1.6857,20.13606 -8.05298,38.46459 -18.95664,54.56766 -6.73533,9.94709 -14.04553,18.08336 -22.80762,25.38498 -18.80257,15.66852 -41.8883,24.96753 -66.35055,26.72622 -3.93666,0.28303 -9.23937,0.36585 -13.12333,0.20496 z"
       id="path3775"
       inkscape:connector-curvature="0" />
  </g>
</svg>
