<?xml version="1.0" encoding="UTF-8" standalone="no"?>
<svg
   xmlns:dc="http://purl.org/dc/elements/1.1/"
   xmlns:cc="http://creativecommons.org/ns#"
   xmlns:rdf="http://www.w3.org/1999/02/22-rdf-syntax-ns#"
   xmlns:svg="http://www.w3.org/2000/svg"
   xmlns="http://www.w3.org/2000/svg"
   xmlns:sodipodi="http://sodipodi.sourceforge.net/DTD/sodipodi-0.dtd"
   xmlns:inkscape="http://www.inkscape.org/namespaces/inkscape"
   width="400"
   height="581.32953"
   viewBox="0 0 30.840961 44.821902"
   version="1.1"
   id="svg1097"
   sodipodi:docname="Drammen komm.svg"
   inkscape:version="1.0 (4035a4fb49, 2020-05-01)">
  <metadata
     id="metadata1103">
    <rdf:RDF>
      <cc:Work
         rdf:about="">
        <dc:format>image/svg+xml</dc:format>
        <dc:type
           rdf:resource="http://purl.org/dc/dcmitype/StillImage" />
      </cc:Work>
    </rdf:RDF>
  </metadata>
  <defs
     id="defs1101" />
  <sodipodi:namedview
     inkscape:document-rotation="0"
     pagecolor="#ffffff"
     bordercolor="#666666"
     borderopacity="1"
     objecttolerance="10"
     gridtolerance="10"
     guidetolerance="10"
     inkscape:pageopacity="0"
     inkscape:pageshadow="2"
     inkscape:window-width="1920"
     inkscape:window-height="1000"
     id="namedview1099"
     showgrid="false"
     inkscape:zoom="0.23023397"
     inkscape:cx="292.18336"
     inkscape:cy="-21.059083"
     inkscape:window-x="-11"
     inkscape:window-y="-11"
     inkscape:window-maximized="1"
     inkscape:current-layer="svg1097" />
  <g
     style="stroke-width:3.92105"
     fill-rule="evenodd"
     clip-rule="evenodd"
     id="g1095"
     transform="matrix(0.25503362,0,0,0.25503362,-9.1590224,-2.1685509)"
     inkscape:label="Drammen">
    <path
       d="m 96.377,184.252 c 10.791,0 20.67,-2.402 29.33,-7.11 6.643,-3.631 12.457,-8.527 17.305,-14.579 8.648,-10.813 13.83,-25.119 13.83,-38.27 h -3.559 c 0,1.174 -0.049,2.366 -0.127,3.546 l -2.359,0.013 c 0.09,-1.192 0.146,-2.385 0.146,-3.559 h -2.854 c 0,11.222 -4.439,23.478 -11.896,32.796 -6.734,8.399 -19.092,18.423 -39.816,18.423 -20.737,0 -33.1,-10.023 -39.814,-18.423 -7.454,-9.318 -11.915,-21.574 -11.915,-32.796 h -2.835 c 0,1.174 0.037,2.366 0.128,3.559 l -2.348,-0.013 a 47.856,47.856 0 0 1 -0.128,-3.546 h -3.552 c 0,13.15 5.161,27.456 13.825,38.27 4.838,6.052 10.668,10.948 17.292,14.579 8.682,4.708 18.554,7.11 29.347,7.11 z"
       fill="#236bb3"
       id="path1075"
       style="fill:#004899;fill-opacity:1;stroke-width:3.92105" />
    <path
       d="m 131.121,55.347 a 47.964,47.964 0 0 0 -1.93,-0.977 c -0.473,-0.216 -2.334,-1.088 -2.814,-1.311 -0.475,-0.195 -2.379,-1.01 -2.871,-1.189 -0.385,-0.137 -1.605,-0.596 -2.402,-0.876 -0.238,-0.094 -0.439,-0.155 -0.535,-0.194 -0.439,-0.158 -2.16,-0.675 -2.816,-0.873 h -0.08 l -0.084,-0.04 c -0.486,-0.137 -5.785,-1.512 -7.969,-1.907 -1.922,-0.356 -3.867,-0.614 -5.789,-0.83 -0.5,-0.043 -2.58,-0.219 -3.115,-0.259 -0.316,-0.018 -0.613,-0.018 -0.912,-0.018 -0.158,0 -0.297,-0.021 -0.438,-0.042 H 99.17 c -0.535,-0.04 -2.601,-0.058 -3.133,-0.058 -0.518,0 -2.579,0.018 -3.114,0.058 h -0.216 c -0.122,0.021 -0.28,0.042 -0.417,0.042 -0.279,0 -0.596,0 -0.912,0.018 -0.517,0.04 -2.6,0.216 -3.114,0.259 a 92.49,92.49 0 0 0 -5.79,0.83 c -2.181,0.395 -7.475,1.77 -7.974,1.907 -0.514,0.158 -2.497,0.754 -2.975,0.913 -0.514,0.176 -2.457,0.894 -2.91,1.07 -0.499,0.179 -2.424,0.994 -2.896,1.189 l -2.837,1.311 c -0.319,0.14 -1.211,0.597 -1.925,0.977 z M 67.468,38.946 c -0.237,-1.25 -0.654,-3.327 -1.049,-5.31 -0.395,-2.04 -0.809,-4.121 -1.085,-5.565 -0.064,-0.319 -0.122,-0.635 -0.183,-0.912 -0.158,-0.812 -0.259,-1.387 -0.295,-1.563 -0.14,-0.772 -0.675,-1.29 -1.445,-1.29 -0.122,0 -0.258,0 -0.417,0.04 -0.833,0.155 -1.21,0.754 -1.21,1.445 0,0.14 0,0.298 0.042,0.435 0.036,0.222 0.215,1.013 0.453,2.123 0.083,0.396 0.18,0.83 0.277,1.289 0.396,1.88 1.01,4.556 1.524,6.854 0.261,1.168 0.596,2.512 0.775,3.324 z m 57.436,-0.259 c 0.656,0.219 1.898,0.657 2.615,0.873 0.121,-0.553 0.273,-1.268 0.475,-2.08 0.553,-2.455 1.309,-5.745 1.781,-7.94 0.141,-0.675 0.275,-1.271 0.396,-1.785 l 0.34,-1.624 c 0.037,-0.14 0.037,-0.301 0.037,-0.438 0,-0.69 -0.377,-1.286 -1.211,-1.444 -0.152,-0.04 -0.291,-0.04 -0.414,-0.04 -0.771,0 -1.301,0.514 -1.447,1.29 -0.035,0.176 -0.139,0.751 -0.291,1.563 -0.061,0.277 -0.121,0.593 -0.184,0.912 -0.133,0.733 -0.297,1.603 -0.492,2.576 -0.517,2.791 -1.167,6.24 -1.605,8.137 z M 94.65,34.107 a 69.222,69.222 0 0 1 2.809,0 c 0.018,-2.02 0.061,-6.201 0.102,-9.388 0.037,-2.418 0.055,-4.379 0.055,-4.717 0,-0.93 -0.551,-1.603 -1.539,-1.603 -1.031,0 -1.569,0.69 -1.569,1.603 0,0.319 0.024,1.825 0.042,3.768 0,0.77 0.021,1.603 0.04,2.451 0.017,2.64 0.06,6.165 0.06,7.886 z m 37.864,21.227 h 11.227 v 69.092 c 0,11.532 -5.656,27.857 -18.902,37.923 -16.551,12.815 -43.229,11.764 -57.68,-0.401 C 54.264,151.851 48.757,135.801 48.757,124.427 V 55.334 h 10.842 l -0.968,-3.513 -0.082,-0.337 -0.039,-0.076 0.417,-0.222 c 0.04,-0.019 0.082,-0.043 0.137,-0.061 0.261,-0.14 0.599,-0.316 0.976,-0.493 l -0.812,-3.218 -0.119,0.061 c -0.422,0.201 -0.775,0.374 -0.937,0.457 l -0.334,0.158 -0.1,-0.356 -1.07,-3.929 -0.08,-0.237 0.237,-0.122 c 0.24,-0.118 0.736,-0.377 1.207,-0.614 L 51.35,17.81 51.289,17.53 51.547,17.433 c 0.617,-0.256 1.213,-0.517 1.825,-0.754 a 29.504,29.504 0 0 1 1.605,-0.636 c 0.079,-0.036 0.162,-0.058 0.244,-0.1 l 0.332,-0.119 0.082,0.337 0.833,3.412 c 0.496,-0.176 0.97,-0.377 1.469,-0.55 a 17.16,17.16 0 0 1 1.049,-0.38 c 0.176,-0.058 0.337,-0.119 0.514,-0.176 l -0.754,-3.513 -0.061,-0.258 0.258,-0.082 a 72.135,72.135 0 0 1 1.889,-0.632 33.362,33.362 0 0 1 1.922,-0.618 l 0.316,-0.079 0.061,0.319 0.675,3.434 c 0.176,-0.061 0.356,-0.097 0.514,-0.162 0.337,-0.097 0.672,-0.197 1.034,-0.298 0.274,-0.1 0.572,-0.176 0.87,-0.255 0.234,-0.058 0.475,-0.14 0.715,-0.198 l -0.599,-3.512 -0.055,-0.28 0.274,-0.061 a 32.488,32.488 0 0 1 1.946,-0.514 c 0.337,-0.079 0.632,-0.158 0.952,-0.24 0.319,-0.079 0.633,-0.155 0.97,-0.237 l 0.316,-0.079 0.064,0.337 1.645,11.094 c 4.4,-1.031 9.139,-1.907 14.156,-2.424 L 85.995,9.276 85.977,8.981 86.272,8.939 c 0.675,-0.037 3.315,-0.237 3.987,-0.258 l 0.316,-0.019 0.021,0.319 0.137,3.51 c 0.198,0 0.459,-0.021 0.754,-0.021 a 70.635,70.635 0 0 1 2.497,-0.079 L 93.944,8.839 V 8.522 h 1.311 c 0.316,0 0.654,-0.019 0.992,-0.019 0.316,0 0.653,0.019 0.992,0.019 h 1.287 v 0.316 l -0.043,3.552 c 0.604,0 1.631,0.042 2.465,0.079 0.314,0 0.613,0.021 0.832,0.021 l 0.115,-3.51 0.025,-0.319 0.316,0.019 c 0.674,0.021 3.309,0.222 3.982,0.258 l 0.299,0.042 -0.017,0.296 -0.639,10.933 c 4.938,0.518 9.641,1.348 13.982,2.363 l 1.643,-11.133 0.061,-0.335 0.316,0.076 0.979,0.24 c 0.316,0.079 0.633,0.161 0.967,0.237 0.658,0.158 1.291,0.322 1.947,0.514 l 0.273,0.063 -0.055,0.28 -0.602,3.509 c 0.236,0.058 0.48,0.137 0.717,0.198 0.299,0.079 0.596,0.162 0.877,0.256 0.352,0.1 0.668,0.201 1.01,0.301 0.158,0.061 0.334,0.097 0.51,0.161 l 0.676,-3.437 0.061,-0.316 0.316,0.079 c 0.662,0.179 1.289,0.398 1.922,0.614 0.621,0.201 1.271,0.419 1.893,0.636 l 0.254,0.079 -0.061,0.279 -0.76,3.491 c 0.182,0.058 0.346,0.119 0.518,0.177 0.357,0.119 0.699,0.24 1.057,0.38 0.494,0.177 0.992,0.374 1.484,0.551 l 0.834,-3.412 0.078,-0.332 0.342,0.116 c 0.078,0.04 0.158,0.061 0.23,0.098 0.541,0.201 1.076,0.398 1.611,0.635 0.598,0.237 1.188,0.499 1.807,0.757 l 0.256,0.098 -0.061,0.279 -6.684,25.004 c 0.516,0.234 1.033,0.471 1.531,0.729 l 0.232,0.122 -0.08,0.237 -1.186,4.285 -0.342,-0.158 a 59.686,59.686 0 0 1 -0.93,-0.457 l -0.334,-0.18 -0.871,3.452 c 0.354,0.18 0.688,0.338 0.906,0.438 l 0.42,0.197 -0.121,0.438 -0.973,3.494 v 0.022 z"
       fill="#236bb3"
       id="path1077"
       style="fill:#004899;fill-opacity:1;stroke-width:3.92105" />
    <path
       d="m 96.307,38.186 c -0.572,0 -2.771,0.058 -3.324,0.079 -0.517,0.018 -1.031,0.04 -1.562,0.061 H 91.32 c -0.554,0.04 -2.773,0.213 -3.309,0.274 a 240.93,240.93 0 0 0 -4.848,0.617 c -1.682,0.258 -3.349,0.593 -5.012,0.949 -1.064,0.24 -4.294,1.049 -4.83,1.207 -0.532,0.158 -2.648,0.791 -3.184,0.973 -0.514,0.158 -2.594,0.894 -3.129,1.07 a 254.58,254.58 0 0 0 -3.069,1.226 c -0.514,0.219 -2.533,1.089 -3.05,1.308 -0.313,0.161 -1.265,0.636 -2.034,0.992 -0.259,0.14 -0.496,0.258 -0.679,0.337 l -0.945,-3.47 c 0.316,-0.155 0.632,-0.292 0.967,-0.453 0.119,-0.061 0.24,-0.116 0.377,-0.198 0.496,-0.237 2.552,-1.171 3.065,-1.372 0.539,-0.213 2.615,-1.085 3.13,-1.287 0.535,-0.194 3.19,-1.146 3.208,-1.146 0.536,-0.177 2.673,-0.87 3.208,-1.028 0.536,-0.161 2.713,-0.754 3.285,-0.912 a 86.718,86.718 0 0 1 13.345,-2.339 c 0.553,-0.039 2.828,-0.219 3.385,-0.255 0.553,-0.018 1.067,-0.064 1.621,-0.082 h 0.101 c 0.55,-0.018 1.128,-0.037 1.682,-0.037 h 0.854 c 0.277,-0.021 0.572,-0.021 0.849,-0.021 0.255,0 0.535,0 0.833,0.021 h 0.83 c 0.58,0 1.145,0.019 1.705,0.037 0.57,0.018 1.148,0.064 1.703,0.082 0.57,0.037 2.828,0.216 3.381,0.255 a 88.267,88.267 0 0 1 13.387,2.339 c 0.535,0.14 2.707,0.751 3.26,0.912 0.535,0.158 2.678,0.831 3.205,1.028 0.324,0.097 2.678,0.952 3.213,1.146 0.475,0.18 2.195,0.895 2.932,1.192 0.078,0.04 0.158,0.058 0.193,0.094 0.512,0.201 2.574,1.134 3.066,1.372 0.463,0.219 0.912,0.435 1.35,0.651 l -0.967,3.47 c -0.182,-0.079 -0.42,-0.197 -0.676,-0.319 -0.754,-0.374 -1.695,-0.849 -2.043,-1.01 a 401.38,401.38 0 0 0 -3.023,-1.308 123.61,123.61 0 0 0 -3.09,-1.226 c -0.516,-0.176 -2.615,-0.912 -3.125,-1.07 -0.535,-0.183 -2.652,-0.815 -3.17,-0.973 a 164.26,164.26 0 0 0 -4.834,-1.207 107.923,107.923 0 0 0 -5.025,-0.949 c -0.492,-0.082 -3.715,-0.496 -4.834,-0.617 a 171.62,171.62 0 0 0 -3.297,-0.274 l -1.666,-0.061 a 177.94,177.94 0 0 0 -3.309,-0.078 z"
       fill="#e4e4e5"
       id="path1079"
       style="fill:#ffffff;fill-opacity:1;stroke-width:3.92105" />
    <path
       d="m 96.055,46.244 c -0.514,0 -2.594,0.037 -3.129,0.058 -0.216,0.021 -0.414,0.021 -0.632,0.04 -0.298,0 -0.633,0.021 -0.949,0.04 -0.517,0.04 -2.594,0.198 -3.129,0.258 a 70.342,70.342 0 0 0 -5.821,0.83 c -2.217,0.398 -7.523,1.764 -8.038,1.922 -0.514,0.137 -2.494,0.772 -2.987,0.931 -0.52,0.183 -2.476,0.895 -2.953,1.071 -0.493,0.198 -2.433,0.991 -2.907,1.208 -0.496,0.197 -2.375,1.089 -2.853,1.308 a 97.94,97.94 0 0 0 -2.533,1.308 l -0.952,-3.485 c 0.653,-0.316 2.259,-1.113 2.694,-1.326 0.496,-0.241 2.436,-1.113 2.907,-1.308 0.496,-0.219 2.497,-1.013 2.971,-1.189 0.514,-0.198 2.537,-0.934 3.032,-1.092 a 192.14,192.14 0 0 1 4.629,-1.387 68.466,68.466 0 0 1 3.107,-0.748 74.849,74.849 0 0 1 4.24,-0.854 33.24,33.24 0 0 1 1.524,-0.219 c 0.197,-0.04 0.371,-0.061 0.571,-0.079 a 63.843,63.843 0 0 1 3.19,-0.396 c 0.532,-0.061 4.275,-0.337 4.811,-0.356 0.551,-0.018 2.67,-0.058 3.206,-0.058 0.514,0 2.672,0.04 3.207,0.058 0.529,0.019 4.293,0.295 4.811,0.356 1.07,0.101 2.135,0.24 3.205,0.396 0.178,0.018 0.377,0.04 0.555,0.079 0.516,0.061 1.01,0.137 1.525,0.219 1.424,0.237 2.836,0.532 4.24,0.854 1.047,0.234 2.074,0.472 3.119,0.748 0.5,0.14 4.105,1.21 4.617,1.387 0.498,0.177 2.518,0.895 3.004,1.092 0.518,0.176 2.5,0.97 2.975,1.189 0.512,0.194 2.451,1.067 2.926,1.308 0.463,0.213 2.062,1.01 2.719,1.326 l -0.973,3.485 c -0.693,-0.374 -2.135,-1.11 -2.537,-1.308 -0.475,-0.219 -2.354,-1.11 -2.852,-1.308 -0.475,-0.216 -2.391,-1.01 -2.883,-1.208 -0.5,-0.176 -2.482,-0.888 -2.951,-1.071 a 144.37,144.37 0 0 0 -2.834,-0.891 c -0.061,-0.018 -0.121,-0.04 -0.158,-0.04 -0.51,-0.158 -5.838,-1.523 -8.035,-1.922 a 71.92,71.92 0 0 0 -5.838,-0.83 c -0.518,-0.061 -2.598,-0.219 -3.133,-0.258 -0.316,-0.018 -0.633,-0.04 -0.949,-0.04 -0.199,-0.018 -0.412,-0.018 -0.613,-0.04 A 157.6,157.6 0 0 0 96.055,46.244 Z M 78.2,125.425 75.804,123.108 119.223,79.646 c 0.529,-0.533 1.084,-0.593 1.461,-0.593 v 0.097 c 0,0.359 -0.061,0.873 -0.555,1.39 z M 97.811,68.761 c 0.16,-0.14 0.297,-0.298 0.414,-0.453 0.182,-0.258 -0.117,-0.477 -0.314,-0.219 0,0 -0.02,0 -0.02,0.015 a 1.986,1.986 0 0 1 -1.624,0.876 2.004,2.004 0 0 1 -1.645,-0.891 v -0.021 c -0.195,-0.276 -0.493,-0.018 -0.277,0.259 0,0.018 0.019,0.018 0.019,0.036 0.064,0.122 0.162,0.222 0.259,0.319 -0.971,1.384 -1.64,4.197 -1.64,6.952 0,0.554 0.019,1.128 0.101,1.685 0.095,0.913 0.389,1.804 0.669,2.573 0.219,0.657 0.414,1.231 0.493,1.724 -0.316,0 -0.83,0 -1.308,-0.018 -0.255,0 -0.471,-0.019 -0.651,-0.019 h -0.158 c -0.514,-0.793 -1.563,-2.798 -1.94,-4.477 -0.316,-1.429 -0.435,-3.111 -0.536,-4.674 -0.079,-1.132 -0.155,-2.223 -0.316,-3.035 -0.158,-0.849 -0.711,-1.94 -1.505,-1.94 0.794,0.772 0.04,2.178 -1.186,2.117 -0.395,0 -0.809,-0.076 -1.204,-0.195 -0.56,-0.158 -1.031,-0.654 -1.372,-1.286 -0.569,-1.092 -0.551,-2.439 0.2,-3.427 0.654,-0.873 1.722,-1.387 2.871,-1.387 2.512,0 4.276,2.256 4.373,4.635 0.28,-1.445 0.733,-2.476 1.469,-3.248 1.74,-1.846 4.828,-1.782 6.589,-0.019 a 4.529,4.529 0 0 1 1.326,3.248 l -0.02,-0.024 c 0.42,-2.08 1.43,-3.406 2.572,-4.078 1.424,-0.836 3.291,-0.773 4.453,0.453 0.463,0.478 0.773,1.131 0.834,1.864 0,0.076 0.018,0.176 0.018,0.277 0,1.031 -0.432,2.001 -1.07,2.576 -0.748,0.672 -1.879,0.952 -2.725,0.334 a 1.336,1.336 0 0 1 -0.365,-1.821 c -0.863,-0.058 -1.363,1.073 -1.521,1.922 -0.158,0.854 -0.23,1.903 -0.314,3.035 -0.098,1.563 -0.221,3.245 -0.555,4.674 -0.395,1.743 -1.326,3.583 -1.861,4.477 -0.256,0 -0.826,0 -1.344,-0.021 -0.256,0 -0.518,-0.019 -0.691,-0.019 h -0.043 c 0.08,-0.459 0.242,-0.973 0.418,-1.547 0.23,-0.791 0.518,-1.722 0.633,-2.674 0.061,-0.538 0.078,-1.088 0.078,-1.645 0,-2.692 -0.674,-5.489 -1.584,-6.913 z m -1.89,-6.149 H 84.027 v -3.385 h 23.811 v 3.385 z M 68.025,38.788 C 67.532,36.27 66.462,30.863 65.89,27.971 c -0.241,-1.287 -0.435,-2.235 -0.478,-2.476 -0.176,-0.97 -0.891,-1.743 -1.977,-1.743 -0.158,0 -0.337,0.021 -0.517,0.062 -1.11,0.219 -1.663,1.049 -1.663,1.977 0,0.179 0.021,0.38 0.061,0.556 0.061,0.298 0.355,1.645 0.73,3.409 0.654,3.047 1.825,8.138 2.299,10.3 l -0.572,0.255 -1.192,0.514 c -0.474,0.219 -0.931,0.398 -1.125,0.478 -0.277,0.118 -0.992,0.435 -1.682,0.751 L 58.545,42.593 51.974,17.85 c 0.535,-0.222 1.086,-0.459 1.621,-0.672 0.535,-0.219 1.067,-0.419 1.582,-0.617 l 0.876,3.485 0.061,0.259 0.252,-0.097 c 0.578,-0.219 1.192,-0.457 1.782,-0.675 0.356,-0.137 0.696,-0.255 1.05,-0.374 0.258,-0.101 0.513,-0.177 0.772,-0.28 l 0.201,-0.061 -0.04,-0.213 -0.772,-3.567 c 0.554,-0.197 1.107,-0.38 1.679,-0.556 0.556,-0.176 1.092,-0.377 1.645,-0.535 l 0.697,3.528 0.037,0.255 0.258,-0.079 c 0.274,-0.076 0.553,-0.158 0.831,-0.258 l 1.027,-0.295 c 0.28,-0.082 0.557,-0.158 0.854,-0.237 0.335,-0.101 0.672,-0.198 0.985,-0.28 l 0.223,-0.058 -0.04,-0.219 -0.614,-3.585 a 41.184,41.184 0 0 1 1.721,-0.435 l 0.952,-0.237 c 0.234,-0.058 0.49,-0.119 0.73,-0.177 l 3.78,25.114 c -0.791,0.2 -2.57,0.696 -3.065,0.836 -0.498,0.156 -2.338,0.706 -3.034,0.968 z m 59.897,1.231 c 0.48,-2.123 1.684,-7.271 2.342,-10.343 0.369,-1.761 0.668,-3.111 0.729,-3.406 0.043,-0.183 0.061,-0.377 0.061,-0.554 0,-0.937 -0.553,-1.761 -1.666,-1.986 a 2.52,2.52 0 0 0 -0.51,-0.055 c -1.09,0 -1.807,0.772 -1.984,1.743 -0.035,0.237 -0.236,1.189 -0.475,2.476 -0.57,2.895 -1.641,8.299 -2.141,10.799 a 53.786,53.786 0 0 0 -2.73,-0.854 c -0.578,-0.155 -2.75,-0.754 -3.303,-0.891 -0.023,0 -0.043,-0.021 -0.061,-0.021 l 3.777,-25.135 0.734,0.176 c 0.316,0.079 0.641,0.161 0.955,0.237 0.59,0.137 1.145,0.28 1.717,0.438 l -0.609,3.583 -0.043,0.219 0.221,0.061 c 0.314,0.079 0.65,0.18 0.99,0.277 0.293,0.08 0.572,0.159 0.852,0.237 0.354,0.098 0.688,0.198 1.027,0.298 0.281,0.101 0.555,0.176 0.828,0.258 l 0.262,0.076 0.043,-0.255 0.688,-3.528 c 0.559,0.158 1.088,0.359 1.648,0.535 0.57,0.179 1.125,0.356 1.678,0.557 l -0.771,3.564 -0.037,0.219 0.193,0.061 c 0.262,0.097 0.518,0.176 0.773,0.274 0.359,0.119 0.693,0.24 1.053,0.377 0.596,0.219 1.203,0.459 1.781,0.675 l 0.256,0.097 0.061,-0.258 0.869,-3.485 c 0.512,0.201 1.047,0.396 1.582,0.614 0.535,0.219 1.094,0.457 1.631,0.672 l -6.576,24.724 c -0.797,-0.374 -2.195,-0.988 -2.615,-1.167 a 1.312,1.312 0 0 1 -0.201,-0.082 c -0.729,-0.295 -2.475,-1.028 -2.943,-1.208 -0.026,0 -0.063,-0.019 -0.086,-0.019 z m -21.119,116.845 a 4.286,4.286 0 0 0 -2.65,-0.931 4.282,4.282 0 0 0 -3.947,2.651 c -0.391,-1.939 -2.115,-3.43 -4.171,-3.43 -2.062,0 -3.784,1.49 -4.179,3.43 a 4.269,4.269 0 0 0 -3.938,-2.651 c -0.909,0 -1.764,0.292 -2.454,0.79 v -5.012 h 21.34 v 5.153 z m -11.211,-54.169 -1.207,1.21 -0.854,-0.876 -18.904,-19.607 1.228,-1.229 18.901,19.651 z m -6.83,46.377 h 15.281 c 1.963,0 2.754,0.358 2.754,1.095 0,0.748 -0.791,1.083 -2.754,1.083 h -7.796 -7.779 c -1.98,0 -2.752,-0.335 -2.752,-1.083 0,-0.736 0.772,-1.095 2.752,-1.095 z M 97.998,34.174 c 0.02,-3.293 0.184,-13.298 0.201,-14.107 v -0.04 c 0,-1.149 -0.777,-2.123 -2.099,-2.123 -1.39,0 -2.119,0.995 -2.119,2.162 0,0.435 0.039,3.211 0.079,6.222 0.039,2.731 0.039,6.255 0.039,7.904 -0.97,0.036 -1.922,0.079 -2.892,0.155 -0.514,0.042 -2.415,0.161 -3.185,0.24 L 86.572,9.511 C 87.387,9.45 89.267,9.31 90.078,9.271 l 0.137,3.585 v 0.237 l 0.24,-0.018 c 0.198,0 0.596,-0.021 1.07,-0.04 1.025,-0.018 2.375,-0.082 2.81,-0.082 h 0.237 v -0.237 l -0.04,-3.601 c 0.234,0 0.496,0 0.751,-0.024 h 1.961 c 0.256,0.024 0.518,0.024 0.752,0.024 l -0.018,3.601 v 0.237 h 0.219 c 0.43,0 1.719,0.04 2.748,0.082 0.498,0.019 0.93,0.04 1.148,0.04 l 0.238,0.018 v -0.237 l 0.121,-3.585 c 0.832,0.04 2.707,0.179 3.521,0.24 l -1.406,25.077 c -0.809,-0.079 -2.615,-0.198 -3.125,-0.24 a 99.104,99.104 0 0 0 -3.444,-0.174 z m 5.283,114.527 H 89.164 c -1.779,0 -2.494,-0.334 -2.494,-1.089 0,-0.735 0.714,-1.07 2.494,-1.07 h 14.117 c 1.764,0 2.494,0.335 2.494,1.07 0,0.755 -0.73,1.089 -2.494,1.089 z m -13.695,-34.912 6.846,-7.353 1.25,1.247 4.943,5.132 1.271,33.241 H 88.455 Z M 72.553,23.083 c 4.358,-1.049 9.108,-1.922 14.098,-2.414 l 0.791,13.925 a 85.121,85.121 0 0 0 -12.849,2.257 z m 24.122,83.067 1.17,-1.241 1.385,1.381 12.396,12.876 c -0.219,0.164 -0.42,0.341 -0.639,0.56 -0.219,0.219 -0.414,0.413 -0.59,0.633 L 97.938,107.44 Z m 9.204,-85.466 c 4.914,0.472 9.604,1.348 13.916,2.357 l -2.031,13.746 a 86.267,86.267 0 0 0 -12.676,-2.196 z m -23.856,71.062 -6.967,6.74 -3.048,-3.173 2.099,-2.019 1.819,1.9 1.289,-1.247 -1.84,-1.9 2.296,-2.22 -1.229,-1.265 -2.296,2.235 -1.842,-1.901 -1.262,1.229 1.821,1.904 -2.101,2.019 -3.051,-3.191 6.971,-6.732 z m 18.649,-9.671 c 1.807,0 2.336,0.414 2.336,1.128 0,0.532 -0.291,0.87 -1.186,1.028 H 90.62 c -0.891,-0.158 -1.21,-0.496 -1.21,-1.028 0,-0.714 0.554,-1.128 2.336,-1.128 z m 1.308,14.263 -6.096,6.101 -0.83,-0.857 -4.908,-5.086 0.414,-11.927 10.969,0.018 z m -1.168,-54.035 a 26.888,26.888 0 0 0 -1.52,-0.097 c -0.537,-0.021 -2.694,-0.079 -3.229,-0.079 -0.535,0 -2.673,0.058 -3.224,0.079 -0.183,0 -0.678,0.036 -1.29,0.076 l -0.1,-3.367 h 0.018 c 0.517,-0.04 1.031,-0.058 1.548,-0.076 0.55,-0.021 2.75,-0.064 3.303,-0.064 0.539,0 2.735,0.043 3.288,0.064 0.414,0.018 0.871,0.036 1.309,0.058 z m 27.967,6.758 c -0.518,-0.234 -0.992,-0.432 -1.211,-0.532 -0.492,-0.198 -2.475,-1.01 -2.992,-1.189 -0.518,-0.198 -2.531,-0.913 -3.041,-1.089 a 20.44,20.44 0 0 0 -1.156,-0.359 l 0.553,-3.445 a 36.3,36.3 0 0 1 1.375,0.438 c 0.529,0.158 2.609,0.891 3.102,1.067 0.543,0.201 2.574,0.992 3.09,1.208 0.195,0.079 0.652,0.277 1.15,0.496 z m -56.81,-3.242 c -0.675,0.198 -1.229,0.374 -1.408,0.435 -0.496,0.158 -2.533,0.894 -3.047,1.088 -0.475,0.179 -2.497,0.992 -2.993,1.189 -0.176,0.079 -0.532,0.237 -0.949,0.438 l -0.831,-3.211 c 0.593,-0.255 1.147,-0.496 1.384,-0.596 0.496,-0.215 2.537,-1.006 3.05,-1.207 0.517,-0.18 2.594,-0.913 3.108,-1.068 0.198,-0.082 0.654,-0.222 1.15,-0.358 z m 51.943,73.17 a 3.596,3.596 0 0 0 -0.656,0.535 c -0.098,0.098 -0.201,0.177 -0.273,0.28 -1.07,-0.791 -2.336,-1.253 -3.285,-1.253 -0.475,0 -0.893,0.061 -1.289,0.177 -0.613,0.182 -1.148,0.498 -1.508,0.857 -0.414,0.413 -0.615,1.186 -0.256,1.581 0.018,-0.554 0.34,-0.949 0.852,-0.949 0.279,0 0.639,0.22 0.693,0.755 0.018,0.079 0.018,0.14 0.018,0.194 0,0.499 -0.352,0.857 -0.844,0.991 a 1.522,1.522 0 0 1 -0.543,0.079 c -0.535,0 -1.064,-0.237 -1.307,-0.675 a 2.409,2.409 0 0 1 -0.293,-1.149 c 0,-1.223 1.047,-2.336 2.652,-2.811 0.518,-0.183 1.107,-0.262 1.703,-0.262 1.309,0.002 3.029,0.616 4.336,1.65 z m -12.455,15.413 c 0.219,-0.141 0.438,-0.316 0.656,-0.542 0.098,-0.097 0.201,-0.17 0.273,-0.273 1.07,0.791 2.342,1.247 3.291,1.247 0.475,0 0.889,-0.061 1.289,-0.177 0.609,-0.176 1.145,-0.499 1.502,-0.852 0.414,-0.413 0.615,-1.191 0.256,-1.587 -0.018,0.56 -0.334,0.954 -0.852,0.954 -0.273,0 -0.627,-0.219 -0.693,-0.754 -0.018,-0.079 -0.018,-0.14 -0.018,-0.2 0,-0.493 0.357,-0.846 0.852,-0.985 0.158,-0.061 0.34,-0.086 0.535,-0.086 0.535,0 1.07,0.244 1.307,0.676 0.213,0.396 0.293,0.791 0.293,1.149 0,1.229 -1.047,2.342 -2.646,2.81 -0.518,0.183 -1.113,0.262 -1.709,0.262 -1.307,0 -3.029,-0.614 -4.336,-1.642 z"
       fill="#e4e4e5"
       id="path1081"
       style="fill:#ffffff;fill-opacity:1;stroke-width:3.92105" />
    <path
       d="m 99.773,160.27 a 4.283,4.283 0 0 0 -3.664,2.652 c -0.374,-1.861 -1.998,-3.327 -3.959,-3.425 v -0.078 c 0,-2.117 1.743,-3.869 3.862,-3.869 2.117,0 3.863,1.752 3.863,3.869 0,0.297 -0.041,0.571 -0.102,0.851 z m 8.143,0.711 a 4.33,4.33 0 0 0 -3.697,2.676 c -0.377,-1.843 -2.002,-3.29 -3.941,-3.388 v -0.079 c 0,-2.123 1.74,-3.868 3.861,-3.868 2.117,0 3.857,1.745 3.857,3.868 0,0.281 -0.019,0.536 -0.08,0.791 z m 8.072,0.737 a 4.26,4.26 0 0 0 -3.656,2.67 c -0.377,-1.861 -2,-3.327 -3.965,-3.425 v -0.079 c 0,-2.122 1.744,-3.868 3.861,-3.868 2.117,0 3.863,1.746 3.863,3.868 0.001,0.299 -0.042,0.578 -0.103,0.834 z m -28.29,2.542 v 0.28 a 4.26,4.26 0 0 0 -3.935,3.395 4.312,4.312 0 0 0 -3.705,-2.683 A 1.253,1.253 0 0 1 80,164.863 v -0.024 c -0.018,-0.122 -0.018,-0.237 -0.018,-0.359 0,-2.116 1.74,-3.862 3.856,-3.862 a 3.89,3.89 0 0 1 3.841,3.388 c 0.001,0.077 0.001,0.156 0.019,0.254 z"
       fill="#e4e4e5"
       id="path1083"
       style="fill:#ffffff;fill-opacity:1;stroke-width:3.92105" />
    <path
       d="m 95.793,163.487 v 0.28 c -1.959,0.098 -3.583,1.545 -3.957,3.431 a 4.308,4.308 0 0 0 -3.661,-2.658 2.297,2.297 0 0 1 -0.082,-0.432 v -0.104 c -0.019,-0.097 -0.019,-0.194 -0.019,-0.298 0,-2.116 1.74,-3.862 3.859,-3.862 a 3.893,3.893 0 0 1 3.841,3.388 c 0.001,0.079 0.001,0.158 0.019,0.255 z m 24.603,1.351 c -0.492,-1.728 -2.037,-3.035 -3.898,-3.133 v -0.079 c 0,-2.116 1.734,-3.862 3.857,-3.862 2.121,0 3.855,1.746 3.855,3.862 0,0.262 -0.018,0.499 -0.072,0.736 a 41.144,41.144 0 0 1 -3.742,2.476 z"
       fill="#e4e4e5"
       id="path1085"
       style="fill:#ffffff;fill-opacity:1;stroke-width:3.92105" />
    <path
       d="m 98.525,170.98 c -0.75,0.019 -1.5,0.037 -2.258,0.037 -0.948,0 -1.879,-0.019 -2.788,-0.055 a 3.877,3.877 0 0 1 -1.329,-2.914 c 0,-2.116 1.743,-3.862 3.862,-3.862 2.117,0 3.863,1.746 3.863,3.862 a 3.891,3.891 0 0 1 -1.35,2.932 z m -30.716,-9.068 c 0,-0.019 0.019,-0.256 0.019,-0.28 0,-2.116 1.743,-3.861 3.862,-3.861 1.879,0 3.482,1.41 3.801,3.192 -1.94,0.122 -3.564,1.563 -3.938,3.425 -0.678,-0.432 -1.587,-0.967 -2.381,-1.503 -0.451,-0.316 -0.91,-0.596 -1.363,-0.973 z m 23.881,-2.415 a 4.3,4.3 0 0 0 -3.944,3.425 4.287,4.287 0 0 0 -3.72,-2.652 v -0.079 c 0,-2.123 1.743,-3.868 3.859,-3.868 1.884,-0.001 3.483,1.393 3.805,3.174 z m 12.667,5.042 c 0.354,-1.764 1.936,-3.132 3.803,-3.132 2.117,0 3.855,1.745 3.855,3.862 a 4.272,4.272 0 0 0 -3.74,2.664 c -0.371,-1.849 -1.982,-3.272 -3.918,-3.394 z M 83.614,160.27 c -1.94,0.116 -3.564,1.545 -3.938,3.388 a 4.333,4.333 0 0 0 -3.74,-2.676 v -0.079 a 3.877,3.877 0 0 1 3.859,-3.862 c 1.899,-0.001 3.502,1.429 3.819,3.229 z"
       fill="#e4e4e5"
       id="path1087"
       style="fill:#ffffff;fill-opacity:1;stroke-width:3.92105" />
    <path
       d="m 96.392,163.335 a 3.845,3.845 0 0 1 3.29,-2.7 c 0.133,-0.019 0.256,-0.019 0.389,-0.019 a 3.891,3.891 0 0 1 3.844,3.388 c 0,0.079 0,0.158 0.02,0.256 v 0.28 a 4.303,4.303 0 0 0 -3.717,2.658 c -0.377,-1.861 -1.986,-3.314 -3.922,-3.431 0.018,-0.097 0.04,-0.219 0.079,-0.315 -0.001,-0.044 0.017,-0.08 0.017,-0.117 z m -5.197,7.494 c -2.475,-0.237 -4.832,-0.615 -7.092,-1.168 a 5.72,5.72 0 0 1 -0.076,-0.81 c 0,-2.122 1.743,-3.862 3.859,-3.862 2.12,0 3.859,1.74 3.859,3.862 a 3.82,3.82 0 0 1 -0.55,1.978 z"
       fill="#e4e4e5"
       id="path1089"
       style="fill:#ffffff;fill-opacity:1;stroke-width:3.92105" />
    <path
       d="m 107.873,169.795 a 50.81,50.81 0 0 1 -7.023,1.07 3.95,3.95 0 0 1 -0.572,-2.02 c 0,-2.123 1.74,-3.868 3.861,-3.868 2.117,0 3.857,1.745 3.857,3.868 0,0.311 -0.037,0.628 -0.123,0.95 z m -35.956,-5.079 c 0.259,-1.879 1.882,-3.346 3.822,-3.346 a 3.88,3.88 0 0 1 3.838,3.389 c 0,0.079 0,0.158 0.021,0.255 v 0.274 a 4.225,4.225 0 0 0 -3.205,1.746 39.799,39.799 0 0 1 -4.476,-2.318 z m 43.901,2.481 a 4.327,4.327 0 0 0 -3.309,-1.91 c 0.023,-0.115 0.035,-0.212 0.084,-0.31 0,-0.043 0.018,-0.061 0.018,-0.098 0.434,-1.447 1.74,-2.578 3.303,-2.736 0.141,-0.019 0.256,-0.019 0.396,-0.019 a 3.908,3.908 0 0 1 3.77,2.95 41.065,41.065 0 0 1 -4.262,2.123 z M 76.385,127.128 c -2.752,2.955 -4.89,4.415 -6.198,4.993 a 2.445,2.445 0 0 0 -1.01,-0.974 c 0.532,-1.362 1.922,-3.539 4.753,-6.355 z m -2.613,-5.438 1.445,1.429 4.534,4.337 -1.25,1.289 -5.979,-5.79 z m 59.726,44.206 c 0.457,-0.401 0.529,-0.748 0.164,-1.144 -0.182,-0.213 -0.553,-0.432 -1.064,0.019 l -1.064,0.961 0.975,1.083 z m -3.369,-0.17 2.062,-1.88 c 1.082,-0.973 2,-0.377 2.311,-0.036 0.395,0.45 0.523,1.028 0.23,1.533 0.469,-0.165 0.762,-0.22 1.449,0.541 0.535,0.578 0.662,0.724 0.906,0.639 l 0.102,0.085 -0.953,0.87 c -0.221,-0.146 -0.451,-0.311 -0.816,-0.73 -0.504,-0.535 -0.723,-0.718 -1.35,-0.158 l -0.889,0.81 1.424,1.557 -0.826,0.755 z"
       fill="#e4e4e5"
       id="path1091"
       style="fill:#ffffff;fill-opacity:1;stroke-width:3.92105" />
    <path
       d="m 115.398,167.301 a 46.2,46.2 0 0 1 -7.031,2.317 v -0.115 a 3.878,3.878 0 0 1 3.861,-3.862 c 1.309,0 2.477,0.669 3.17,1.66 z m -57.926,-4.884 -1.931,-2.184 -0.845,0.76 1.766,2.008 -0.702,0.632 -1.791,-2.007 -1.044,0.925 2.041,2.293 -0.727,0.626 -2.777,-3.12 4.024,-3.595 2.71,3.035 z m 26.169,7.073 c -2.457,-0.614 -4.756,-1.387 -6.912,-2.335 a 3.83,3.83 0 0 1 3.05,-1.509 c 2.116,0 3.862,1.746 3.862,3.844 z m -17.882,0.196 -2.348,-1.716 -0.684,0.9 2.181,1.588 -0.578,0.772 -2.163,-1.582 -0.812,1.138 2.455,1.788 -0.56,0.779 -3.373,-2.463 3.172,-4.368 3.285,2.384 z m -26.19,-30.801 5.109,-1.788 0.398,1.034 -2.712,3.388 3.442,-1.236 0.338,1.059 -5.109,1.776 -0.396,-1.089 2.753,-3.308 -3.482,1.228 z m 4.333,11.173 4.912,-2.324 1.664,3.565 -0.791,0.377 -1.226,-2.53 -1.189,0.571 1.01,2.141 -0.794,0.395 -1.031,-2.177 -2.114,1.01 z m 5.335,7.839 0.575,0.834 c 0.432,0.613 1.146,0.79 2.156,0.121 0.575,-0.396 0.831,-0.797 0.913,-1.131 0.137,-0.396 0.119,-0.754 -0.28,-1.271 l -0.435,-0.633 z m -1.448,-0.394 4.477,-3.133 1.362,1.922 c 0.657,0.931 0.517,2.396 -0.967,3.424 -1.426,0.992 -2.849,0.657 -3.485,-0.297 z m 99.899,-9.757 c 1.26,0.633 1.424,1.697 0.811,2.926 -0.238,0.469 -0.67,1.083 -1.369,1.283 -0.438,0.128 -0.869,0.037 -1.355,-0.2 l -3.213,-1.588 0.523,-1.064 3.139,1.569 c 0.67,0.341 1.174,0.092 1.404,-0.396 0.348,-0.705 0.172,-1.155 -0.426,-1.466 l -3.18,-1.569 0.521,-1.064 z M 113.477,44.027 c -1.352,-0.298 -2.695,-0.596 -4.045,-0.815 -0.512,-0.079 -1.029,-0.158 -1.539,-0.234 -0.098,-0.021 -0.201,-0.021 -0.316,-0.043 l 0.236,-3.388 c 0.736,0.101 1.309,0.183 1.504,0.201 1.537,0.255 3.047,0.535 4.566,0.848 z M 84.763,42.924 a 6.236,6.236 0 0 1 -0.572,0.079 c -0.514,0.079 -1.031,0.158 -1.526,0.237 a 73.244,73.244 0 0 0 -3.819,0.754 l -0.393,-3.309 a 96.559,96.559 0 0 1 4.79,-0.913 c 0.179,-0.018 0.65,-0.097 1.265,-0.179 z m 65.292,102.049 0.4,-1.046 c 0.322,-0.888 -0.438,-1.502 -1.283,-1.807 -1.484,-0.56 -1.879,0.128 -2.037,0.59 l -0.4,1.034 z m -4.563,-0.583 0.846,-2.3 c 0.65,-1.728 2.238,-1.551 3.199,-1.204 1.082,0.414 2.488,1.424 1.855,3.12 l -0.834,2.238 z m -5.262,18.592 -0.759,0.864 -3.338,-2.919 -1.108,1.234 -0.718,-0.626 2.945,-3.376 0.723,0.633 -1.088,1.265 z m 5.397,-7.286 -0.615,0.979 -3.752,-2.365 -0.883,1.404 -0.815,-0.504 2.385,-3.808 0.809,0.504 -0.883,1.424 z m 6.732,-18.028 c 0.141,-0.596 0,-1.532 -1.484,-1.892 -1.459,-0.364 -2.037,0.396 -2.178,0.985 -0.15,0.614 0,1.558 1.473,1.916 1.467,0.366 2.043,-0.395 2.189,-1.009 z m -4.586,-1.186 c 0.164,-0.7 0.943,-2.488 3.395,-1.874 2.463,0.608 2.293,2.543 2.109,3.248 -0.158,0.706 -0.936,2.494 -3.387,1.892 -2.456,-0.608 -2.292,-2.542 -2.117,-3.266 z M 97.764,81.683 h -3.05 c -0.058,-0.596 -0.295,-1.25 -0.536,-1.943 -0.255,-0.772 -0.553,-1.605 -0.654,-2.476 a 14.206,14.206 0 0 1 -0.097,-1.627 c 0,-2.673 0.672,-5.364 1.542,-6.654 0.021,0.021 0.039,0.021 0.061,0.04 0.355,0.219 0.772,0.337 1.229,0.337 0.432,0 0.828,-0.119 1.169,-0.337 0.828,1.308 1.5,4.021 1.5,6.657 0,0.532 -0.037,1.07 -0.092,1.603 -0.104,0.894 -0.365,1.767 -0.619,2.597 -0.199,0.632 -0.375,1.246 -0.453,1.803 z m 31.853,90.211 c 0.5,-0.359 1.01,-1.174 0.141,-2.396 -0.889,-1.247 -1.807,-1.047 -2.311,-0.693 -0.506,0.371 -1.01,1.18 -0.146,2.408 0.869,1.239 1.806,1.045 2.316,0.681 z m -2.754,-3.796 c 0.596,-0.42 2.348,-1.283 3.801,0.791 1.467,2.074 0.061,3.431 -0.535,3.85 -0.602,0.432 -2.33,1.277 -3.789,-0.803 -1.467,-2.075 -0.072,-3.425 0.523,-3.838 z M 84.949,179.69 c -0.311,1.393 -1.299,1.788 -2.655,1.502 -0.486,-0.109 -1.21,-0.396 -1.569,-1.033 -0.216,-0.378 -0.234,-0.828 -0.128,-1.369 l 0.779,-3.491 1.134,0.256 -0.757,3.437 c -0.161,0.718 0.197,1.137 0.724,1.265 0.775,0.158 1.174,-0.128 1.317,-0.767 l 0.775,-3.479 1.137,0.249 z m -39.006,-25.277 4.854,-2.458 0.493,1.01 -4.851,2.457 z m -7.244,-18.186 5.185,-1.606 0.32,1.07 -5.167,1.624 z m 71.061,-3.693 c -0.955,-1.283 -1.393,-2.791 -1.393,-4.057 0,-0.614 0.084,-1.21 0.236,-1.745 0.518,-1.643 1.666,-2.737 2.889,-2.737 0.402,0 0.803,0.104 1.236,0.365 0.395,0.237 0.631,0.729 0.631,1.24 0,0.201 -0.041,0.377 -0.078,0.561 -0.08,0.23 -0.201,0.449 -0.359,0.607 -0.352,0.341 -0.869,0.359 -1.266,0.104 -0.236,-0.158 -0.357,-0.396 -0.357,-0.571 0,-0.518 0.438,-0.834 0.996,-0.852 -0.838,-0.243 -1.154,-0.079 -1.551,0.134 a 3.906,3.906 0 0 0 -0.984,1.642 c -0.121,0.42 -0.201,0.852 -0.201,1.332 0,0.906 0.402,2.062 1.107,3.108 a 5.282,5.282 0 0 0 -0.906,0.869 z m 15.849,-11.659 c 0.949,1.29 1.387,2.792 1.387,4.058 0,0.619 -0.084,1.216 -0.236,1.745 -0.512,1.642 -1.666,2.737 -2.889,2.737 -0.402,0 -0.791,-0.104 -1.23,-0.359 -0.4,-0.237 -0.639,-0.736 -0.639,-1.253 0,-0.188 0.049,-0.371 0.086,-0.548 0.08,-0.242 0.201,-0.455 0.354,-0.613 a 1.02,1.02 0 0 1 1.271,-0.098 c 0.236,0.152 0.352,0.395 0.352,0.571 0,0.517 -0.432,0.833 -0.984,0.852 0.832,0.237 1.143,0.079 1.545,-0.14 0.395,-0.377 0.791,-0.967 0.984,-1.643 0.121,-0.42 0.195,-0.852 0.195,-1.326 0,-0.912 -0.389,-2.062 -1.107,-3.113 0.322,-0.237 0.632,-0.535 0.911,-0.87 z m -13.478,57.732 1.352,-0.396 -1.248,-1.86 z m -0.104,2.246 -1.174,0.34 0.414,-5.741 1.277,-0.358 3.346,4.658 -1.191,0.341 -0.645,-0.974 -1.953,0.561 z m -45.264,-5.59 -0.992,-0.578 2.217,-3.85 -1.442,-0.827 0.488,-0.833 3.88,2.256 -0.49,0.834 -1.442,-0.846 z m 76.546,-15.911 -0.688,0.93 -4.33,-3.218 0.688,-0.924 z m -19.397,16.689 -1.01,0.56 -2.584,-4.75 3.45,-1.88 0.472,0.851 -2.443,1.314 0.576,1.071 2.137,-1.162 0.449,0.857 -2.129,1.157 z m -19.408,6.313 -1.137,0.146 -0.523,-4.428 -1.643,0.201 -0.127,-0.955 4.457,-0.529 0.112,0.961 -1.668,0.201 z m -16.977,-1.897 c -0.04,0.292 0.052,0.888 1.046,0.997 0.541,0.049 1.17,0 1.226,-0.56 0.055,-0.438 -0.341,-0.578 -0.922,-0.778 l -0.556,-0.219 c -0.87,-0.286 -1.697,-0.597 -1.572,-1.771 0.073,-0.59 0.526,-1.605 2.29,-1.411 1.679,0.183 2.007,1.326 1.953,1.971 l -1.101,-0.127 c 0,-0.231 -0.036,-0.81 -1.028,-0.919 -0.435,-0.055 -0.976,0.036 -1.031,0.523 -0.052,0.419 0.289,0.56 0.526,0.632 l 1.28,0.475 c 0.742,0.268 1.39,0.645 1.28,1.605 -0.18,1.624 -1.88,1.563 -2.363,1.515 -1.986,-0.237 -2.202,-1.404 -2.132,-2.062 z m -9.031,-1.71 c -0.365,1.077 -1.123,1.424 -2.168,1.064 -1.734,-0.577 -1.372,-1.66 -1.049,-2.639 l 1.031,0.34 c -0.271,0.803 -0.362,1.217 0.237,1.411 0.556,0.201 0.721,-0.146 0.848,-0.541 l 1.226,-3.631 1.101,0.364 z m 11.2,-70.188 0.319,-8.613 3.209,3.345 0.866,0.87 z m 5.513,74.227 -1.152,-0.018 0.106,-4.44 -1.663,-0.043 0.021,-0.954 4.477,0.097 -0.022,0.955 -1.657,-0.036 z m 6.912,-82.408 0.315,8.691 -2.907,-3.029 -1.39,-1.404 z m 8.149,22.042 a 0.68,0.68 0 0 1 -0.176,-0.475 c 0,-0.474 0.371,-1.186 1.186,-1.958 0.773,-0.755 1.484,-1.132 1.984,-1.132 0.188,0 0.352,0.062 0.492,0.201 0.115,0.14 0.176,0.273 0.176,0.475 0,0.474 -0.377,1.21 -1.186,1.982 -0.773,0.729 -1.484,1.107 -1.959,1.107 a 0.741,0.741 0 0 1 -0.517,-0.2 z m 18.941,-73.128 0.889,-3.406 a 65.092,65.092 0 0 1 2.633,1.207 l -0.852,3.467 c -0.572,-0.273 -1.125,-0.553 -1.363,-0.672 -0.219,-0.101 -0.754,-0.359 -1.307,-0.596 z M 62.347,46.01 63.18,49.218 c -0.636,0.28 -1.268,0.575 -1.526,0.693 -0.198,0.101 -0.651,0.316 -1.125,0.554 l -0.815,-3.23 c 0.596,-0.298 1.21,-0.593 1.451,-0.711 0.19,-0.1 0.668,-0.298 1.182,-0.514 z m 54.79,-1.128 0.494,-3.366 c 0.705,0.179 1.324,0.337 1.52,0.395 0.219,0.061 0.754,0.219 1.309,0.377 l -0.555,3.427 c -1.016,-0.298 -2.219,-0.675 -2.768,-0.833 z m 0.025,-3.427 -0.5,3.367 a 65.867,65.867 0 0 0 -2.65,-0.633 l 0.412,-3.406 c 0.572,0.121 1.728,0.395 2.738,0.672 z M 75.74,44.727 75.263,41.479 a 96.17,96.17 0 0 1 2.734,-0.693 l 0.392,3.309 c -0.888,0.197 -1.776,0.413 -2.649,0.632 z m -0.924,-3.126 0.471,3.251 c -0.353,0.101 -1.621,0.496 -2.77,0.83 l -0.533,-3.29 c 0.633,-0.195 1.284,-0.393 1.542,-0.45 0.18,-0.065 0.675,-0.183 1.29,-0.341 z m 47.977,80.229 a 0.608,0.608 0 0 1 -0.182,-0.456 c 0,-0.396 0.299,-0.955 0.912,-1.545 0.615,-0.597 1.15,-0.852 1.545,-0.852 0.195,0 0.354,0.061 0.498,0.2 a 0.69,0.69 0 0 1 0.172,0.469 c 0,0.377 -0.273,0.937 -0.889,1.526 -0.609,0.597 -1.168,0.876 -1.562,0.876 a 0.597,0.597 0 0 1 -0.494,-0.218 z m -10.199,9.768 c 0.121,0.116 0.176,0.28 0.176,0.456 0,0.396 -0.297,0.949 -0.906,1.545 -0.619,0.597 -1.148,0.852 -1.545,0.852 a 0.673,0.673 0 0 1 -0.498,-0.2 0.72,0.72 0 0 1 -0.176,-0.475 c 0,-0.377 0.273,-0.931 0.893,-1.526 0.609,-0.59 1.168,-0.87 1.564,-0.87 a 0.584,0.584 0 0 1 0.492,0.218 z m -8.145,-89.028 0.141,-3.388 c 0.59,0.062 1.764,0.201 2.811,0.338 l -0.256,3.388 c -0.913,-0.118 -1.784,-0.237 -2.696,-0.338 z m -16.623,-3.357 0.14,3.327 c -0.891,0.098 -1.785,0.219 -2.694,0.338 l -0.255,-3.327 c 0.969,-0.118 2.094,-0.261 2.809,-0.338 z m -19.491,95.299 c -0.854,0 -1.545,-0.693 -1.545,-1.545 0,-0.852 0.711,-1.563 1.545,-1.563 0.87,0 1.56,0.712 1.56,1.563 0,0.851 -0.69,1.545 -1.56,1.545 z m 35.798,-95.353 -0.182,3.367 c -0.5,-0.037 -1.625,-0.119 -2.652,-0.177 l 0.098,-3.427 c 0.535,0.039 1.933,0.161 2.736,0.237 z m -15.72,3.336 -0.18,-3.327 c 0.593,-0.058 1.979,-0.177 2.731,-0.24 l 0.1,3.388 c -0.949,0.06 -2.04,0.142 -2.651,0.179 z m 32.898,89.279 a 1.242,1.242 0 0 1 -1.248,-1.253 c 0,-0.675 0.553,-1.223 1.248,-1.223 0.691,0 1.229,0.529 1.229,1.223 a 1.24,1.24 0 0 1 -1.229,1.253 z m -8.418,-8.898 c 0.043,-0.675 0.578,-1.192 1.229,-1.192 h 0.061 a 1.264,1.264 0 0 1 1.203,1.253 v 0.037 a 1.24,1.24 0 0 1 -1.246,1.21 h -0.037 a 1.281,1.281 0 0 1 -1.209,-1.265 v -0.043 z m -3.838,58.736 -1.139,0.219 -1.016,-5.31 1.125,-0.212 z M 73.25,81.585 a 0.844,0.844 0 0 1 -0.852,-0.849 c 0,-0.48 0.374,-0.854 0.852,-0.854 0.474,0 0.849,0.374 0.849,0.854 a 0.844,0.844 0 0 1 -0.849,0.849 z m 2.268,0.38 -1.146,1.153 -0.575,-1.21 c 0.237,-0.143 0.417,-0.316 0.553,-0.538 z m 24.296,100.766 -1.13,0.055 -0.254,-5.4 1.16,-0.037 z m -8.172,-11.884 a 4.31,4.31 0 0 0 0.438,-1.191 c 0.194,0.48 0.471,0.894 0.809,1.271 -0.413,-0.026 -0.83,-0.062 -1.247,-0.08 z m 7.522,0.109 c 0.354,-0.371 0.627,-0.809 0.828,-1.289 0.078,0.438 0.236,0.833 0.455,1.21 -0.437,0.037 -0.851,0.061 -1.283,0.079 z"
       fill="#e4e4e5"
       id="path1093"
       style="fill:#ffffff;fill-opacity:1;stroke-width:3.92105" />
  </g>
</svg>
