<svg xmlns="http://www.w3.org/2000/svg" width="796" height="189" viewBox="0 0 796 189">
    <g fill="#355D98" fill-rule="evenodd">
        <path d="M147.573 126.45c.481.584 1.097 1.627 1.375 2.33l4.581 11.672c.78 2 .291 2.29-1.094.648L98.736 77.28c-.64-.746-1.67-.739-2.299.01l-50.945 60.716c.397-.32-5.885 7.554-11.38 2.347-5.864-5.558-4.444-15.946-.028-21.237l53.571-63.773c.63-.753 1.66-.757 2.3-.015l57.618 71.121zm-7.963-71.122l47.217 58.282a94.755 94.755 0 0 0 1.96-19.216c0-52.133-42.26-94.395-94.394-94.395C42.261 0 0 42.261 0 94.394c0 52.131 42.261 94.392 94.393 94.392 42.957 0 79.206-28.696 90.638-67.962l-36.64-43.543c-.639-.747-1.67-.74-2.298.01l-15.995 19.062-13.372-16.505 20.584-24.505c.63-.753 1.66-.757 2.3-.015zM778.746 81.838c6.171 0 8.635 5.488 8.942 9.68h-18.514c.302-3.22 1.857-9.964 9.572-9.68m13.055 20.6c1.521 0 3.138 1.273 3.138 3.63 0 3.907-8.569 8.53-15.808 8.53-13.272 0-17.981-10.74-17.981-19.94 0-9.909 6.056-19.94 17.629-19.94 10.598 0 16.932 9.676 16.932 19.03 0 2.86-1.377 4.19-4.332 4.19h-22.196c.382 5.731 4.284 9.54 10.016 9.54 5.04 0 7.593-1.994 9.456-3.45 1.092-.854 2.034-1.59 3.146-1.59zm-546.196-35.71c0-2.843 1.525-4.61 3.98-4.61s3.98 1.767 3.98 4.61v43.26c0 2.845-1.525 4.61-3.98 4.61s-3.98-1.765-3.98-4.61v-18.14h-21.207v18.14c0 2.845-1.525 4.61-3.98 4.61s-3.98-1.765-3.98-4.61v-43.26c0-2.843 1.525-4.61 3.98-4.61s3.98 1.767 3.98 4.61v18h21.207v-18zm100.17 19.39c0-7.404 6.991-11.4 13.57-11.4 5.418 0 13.29 2.914 13.29 7.48 0 1.649-1.159 3.42-3.702 3.42-1.37 0-2.35-.74-3.388-1.522-1.4-1.059-2.987-2.258-6.2-2.258-2.589 0-5.612.994-5.612 3.791 0 2.23 3.645 3.636 7.504 5.127 5.514 2.13 12.376 4.78 12.376 11.463 0 8.552-7.272 12.38-14.48 12.38-8.39 0-14.899-4.285-14.899-7.97 0-2.076 1.502-3.7 3.42-3.7 1.346 0 2.471.784 3.773 1.692 1.825 1.273 4.096 2.858 7.917 2.858 3.95 0 6.31-2.105 6.31-4.14 0-2.72-3.924-4.35-8.077-6.076-5.532-2.302-11.803-4.907-11.803-11.145zm35.767-23.59c0-2.505 1.6-4.19 3.98-4.19s3.98 1.685 3.98 4.19V86.85l11.942-10.013c1.626-1.445 2.928-2.118 4.098-2.118 2.022 0 3.49 1.527 3.49 3.63 0 1.315-.6 2.387-1.882 3.367l-13.2 10.428 15.52 15.319c1.28 1.28 1.732 2.27 1.732 3.786 0 1.816-1.598 3.35-3.49 3.35-1.859 0-2.709-.656-4.22-2.168l-13.99-14.62v12.598c0 2.506-1.6 4.19-3.98 4.19s-3.98-1.684-3.98-4.19v-47.88zm74.97 0c0-2.505 1.6-4.19 3.98-4.19s3.98 1.685 3.98 4.19v47.88c0 2.507-1.6 4.19-3.98 4.19s-3.98-1.683-3.98-4.19v-47.88zm76.01 12.19c6.893 0 13.85 4.65 13.85 15.042v20.649c0 2.506-1.6 4.19-3.982 4.19-2.38 0-3.98-1.684-3.98-4.19v-20.3c0-5.713-3.872-8.27-7.709-8.27-3.838 0-7.709 2.557-7.709 8.27v20.3c0 2.506-1.6 4.19-3.98 4.19-2.383 0-3.982-1.684-3.982-4.19v-31.5c0-2.506 1.6-4.19 3.981-4.19 2.25 0 3.753 1.533 3.917 3.814 2.542-2.43 5.848-3.814 9.593-3.814zm35.57-7.919c0-2.58 2.1-4.68 4.68-4.68a4.685 4.685 0 0 1 4.679 4.68 4.684 4.684 0 0 1-4.68 4.68 4.685 4.685 0 0 1-4.68-4.68zm.699 12.11c0-2.507 1.6-4.19 3.98-4.19s3.98 1.684 3.98 4.19v31.5c0 2.505-1.6 4.19-3.98 4.19s-3.98-1.684-3.98-4.19v-31.5zm66.539-12.931c.808-2.67 2.455-3.86 5.342-3.86 1.769 0 4.864.707 5.718 5.44l6.787 40.033c.224 1.267.364 2.203.364 2.957 0 2.499-1.444 4.05-3.77 4.05-2.479 0-3.887-1.158-4.181-3.43l-5.266-36.3-10.834 36.578c-.666 2.15-1.94 3.153-4.01 3.153-2.067 0-3.341-1.002-4.011-3.164l-10.83-36.567-5.266 36.3.002-.014c-.296 2.286-1.704 3.445-4.184 3.445-2.325 0-3.769-1.552-3.769-4.051 0-.754.139-1.69.362-2.95l6.791-40.048c.852-4.725 3.946-5.431 5.716-5.431 2.887 0 4.534 1.19 5.345 3.868l9.845 33.746 9.849-33.755zm67.16-3.45c0-2.505 1.6-4.19 3.98-4.19 2.381 0 3.981 1.685 3.981 4.19v47.88c0 2.507-1.6 4.19-3.98 4.19s-3.98-1.683-3.98-4.19v-47.88zm-423.085 44.95c-2.041 0-3.8-.64-5.181-1.799l13.639-16.454c.519 1.62.862 3.392.862 5.433 0 5.914-2.441 12.82-9.32 12.82m-9.32-12.82c0-5.914 2.44-12.82 9.32-12.82 2.04 0 3.798.642 5.18 1.8l-13.63 16.444c-.521-1.66-.87-3.464-.87-5.424m26.248-15.59c.7-.856 1.192-1.548 1.192-2.75 0-1.603-1.35-2.86-3.07-2.86-1.54 0-2.543 1.256-2.873 1.668l-2.332 2.845c-2.76-2.099-6.122-3.253-9.845-3.253-11.344 0-17.28 10.031-17.28 19.94 0 4.601 1.217 8.814 3.372 12.023l-2.743 3.291c-.927 1.07-1.47 1.913-1.47 3.026 0 1.55 1.375 2.86 3 2.86 1.14 0 2.108-.553 2.96-1.69-.016.022 1.53-1.857 2.377-2.883 2.722 2.138 6.063 3.313 9.784 3.313 11.344 0 17.28-10.03 17.28-19.94 0-4.428-1.167-8.57-3.315-12.072l2.963-3.518m24.581 28.41c-6.879 0-9.32-6.906-9.32-12.82 0-5.914 2.441-12.82 9.32-12.82 6.879 0 9.32 6.906 9.32 12.82 0 5.914-2.441 12.82-9.32 12.82m12.88-32.76c-2.409 0-3.962 1.404-4.127 3.565-2.108-1.909-5.377-3.565-8.753-3.565-11.344 0-17.28 10.031-17.28 19.94 0 9.91 5.936 19.94 17.28 19.94 3.467 0 6.497-1.382 8.69-3.78v.781c0 3.181-.901 10.58-9.25 10.58-3.778 0-6.225-1.508-8.191-2.72-1.413-.87-2.632-1.62-3.989-1.62-2.411 0-3.49 1.893-3.49 3.77 0 3.96 8.552 7.69 15.18 7.69 10.752 0 17.7-7.333 17.7-18.68v-31.99c0-2.54-1.942-3.91-3.77-3.91m97.23 32.76c-6.88 0-9.32-6.907-9.32-12.82 0-5.915 2.44-12.82 9.32-12.82 6.878 0 9.32 6.905 9.32 12.82 0 5.913-2.442 12.82-9.32 12.82m0-32.76c-11.345 0-17.28 10.03-17.28 19.94 0 9.908 5.935 19.94 17.28 19.94 11.343 0 17.28-10.032 17.28-19.94 0-9.91-5.937-19.94-17.28-19.94m59.115 7.12c6.17 0 8.634 5.487 8.94 9.68h-18.513c.303-3.222 1.858-9.964 9.573-9.68m13.054 20.6c-1.112 0-2.054.735-3.146 1.588-1.863 1.457-4.416 3.451-9.455 3.451-5.732 0-9.634-3.809-10.016-9.54h22.195c2.955 0 4.332-1.33 4.332-4.19 0-9.354-6.333-19.03-16.931-19.03-11.574 0-17.63 10.031-17.63 19.94 0 9.2 4.71 19.94 17.98 19.94 7.24 0 15.809-4.623 15.809-8.53 0-2.357-1.617-3.63-3.138-3.63m173.809 5.04c-6.88 0-9.32-6.906-9.32-12.82 0-5.914 2.44-12.82 9.32-12.82 6.878 0 9.318 6.906 9.318 12.82 0 5.914-2.44 12.82-9.318 12.82m0-32.76c-11.345 0-17.281 10.031-17.281 19.94 0 9.91 5.936 19.94 17.28 19.94 11.345 0 17.28-10.03 17.28-19.94 0-9.909-5.935-19.94-17.28-19.94m59.29 32.76c-6.88 0-9.32-6.906-9.32-12.82 0-5.914 2.44-12.82 9.32-12.82 6.878 0 9.318 6.906 9.318 12.82 0 5.914-2.44 12.82-9.318 12.82m12.67-49.14c-2.381 0-3.981 1.684-3.981 4.19V78.42a13.165 13.165 0 0 0-9.18-3.702c-11.023 0-16.79 10.031-16.79 19.94 0 9.91 5.767 19.94 16.79 19.94 4.12 0 7.202-1.235 9.283-3.58.254 2.143 1.709 3.58 3.878 3.58 2.38 0 3.98-1.683 3.98-4.19v-47.88c0-2.506-1.6-4.19-3.98-4.19M705.478 157.66c-.899 0-1.322-.327-2.016-1.02l-5.979-6.25v5.21c0 1.233-.789 2.06-1.964 2.06-1.176 0-1.966-.827-1.966-2.06v-21.487c0-1.232.79-2.059 1.966-2.059 1.175 0 1.964.827 1.964 2.059v10.532l5.074-4.257c.764-.675 1.366-.983 1.946-.983 1.011 0 1.746.76 1.746 1.808 0 .65-.293 1.175-.92 1.656l-5.76 4.55 6.82 6.73c.615.617.831 1.094.831 1.83 0 .91-.797 1.68-1.742 1.68m-233.826-14.702c-2.956 0-4.006 3.003-4.006 5.576 0 2.57 1.05 5.575 4.006 5.575 2.955 0 4.004-3.004 4.004-5.575 0-2.573-1.05-5.576-4.004-5.576m-.473 21.3c-2.76 0-6.99-1.626-6.99-3.63 0-.901.546-1.87 1.743-1.87.66 0 1.228.35 1.885.755.908.559 1.938 1.193 3.582 1.193 3.485 0 3.948-3.017 3.972-4.45-.985.906-2.28 1.405-3.72 1.405-5.208 0-7.934-4.592-7.934-9.127 0-4.536 2.726-9.127 7.935-9.127 1.432 0 2.813.613 3.787 1.393.218-.852.963-1.393 1.992-1.393.907 0 1.87.677 1.87 1.932v14.357c0 5.2-3.188 8.562-8.122 8.562zM225.29 157.66c-1.497 0-1.923-1.237-2.153-1.9l-6.814-19.032c-.157-.472-.223-.847-.223-1.264 0-.844.675-1.714 1.807-1.714 1.475 0 1.866 1.107 2.211 2.083l5.172 14.91 5.136-14.811c.381-1.075.772-2.181 2.246-2.181 1.132 0 1.807.87 1.807 1.713 0 .418-.065.793-.217 1.251l-6.823 19.05c-.226.659-.652 1.895-2.149 1.895zm13.797-19.353a2.28 2.28 0 0 1-2.278-2.279 2.28 2.28 0 0 1 2.278-2.278 2.282 2.282 0 0 1 2.279 2.278 2.282 2.282 0 0 1-2.28 2.28m0 19.351c-1.174 0-1.963-.827-1.963-2.059v-14.136c0-1.232.789-2.059 1.964-2.059 1.175 0 1.965.827 1.965 2.06V155.6c0 1.232-.79 2.06-1.965 2.06zm9.146 0c-1.176 0-1.964-.826-1.964-2.058v-12.456h-.55c-1.211 0-1.964-.68-1.964-1.776 0-1.095.753-1.775 1.964-1.775h.55v-3.03c0-1.232.788-2.06 1.964-2.06 1.174 0 1.963.828 1.963 2.06v3.03h.55c1.212 0 1.964.68 1.964 1.775 0 1.096-.752 1.776-1.964 1.776h-.55v12.456c0 1.232-.79 2.059-1.963 2.059zm37.83 0c-1.174 0-1.963-.826-1.963-2.058v-9.11c0-2.609-1.768-3.535-3.282-3.535-1.515 0-3.282.927-3.282 3.535v9.11c0 1.232-.79 2.059-1.965 2.059s-1.964-.827-1.964-2.06v-14.136c0-1.232.789-2.059 1.964-2.059.977 0 1.688.571 1.899 1.474 1.134-.957 2.574-1.474 4.165-1.474 3.182 0 6.393 2.143 6.393 6.928v9.268c0 1.232-.79 2.059-1.964 2.059zm12.1 0c-3.591 0-6.865-1.79-6.865-3.754 0-1.031.753-1.84 1.714-1.84.659 0 1.212.387 1.795.792.84.587 1.792 1.251 3.452 1.251 1.638 0 2.654-.871 2.654-1.68 0-1.101-1.709-1.811-3.517-2.564-2.534-1.053-5.406-2.246-5.406-5.165 0-3.438 3.23-5.294 6.269-5.294 2.565 0 6.142 1.345 6.142 3.535 0 .826-.577 1.714-1.84 1.714-.674 0-1.159-.368-1.627-.721-.606-.457-1.294-.976-2.675-.976-.39 0-2.341.073-2.341 1.523 0 .877 1.58 1.489 3.255 2.135 2.524.975 5.668 2.19 5.668 5.31 0 3.94-3.462 5.734-6.678 5.734zm21.933 0c-.897 0-1.32-.326-2.013-1.018l-5.98-6.25v5.21c0 1.232-.79 2.059-1.965 2.059s-1.966-.827-1.966-2.06v-21.487c0-1.232.791-2.059 1.966-2.059 1.174 0 1.964.827 1.964 2.059v10.532l5.076-4.257c.761-.675 1.365-.983 1.944-.983 1.011 0 1.745.76 1.745 1.808 0 .65-.293 1.177-.92 1.656l-5.76 4.55 6.82 6.73c.616.618.833 1.094.833 1.83 0 .91-.798 1.68-1.744 1.68zm11.691-14.702c-2.956 0-4.004 3.003-4.004 5.576 0 2.57 1.048 5.575 4.004 5.575 2.956 0 4.004-3.004 4.004-5.575 0-2.573-1.048-5.576-4.004-5.576m5.907 14.703c-.852 0-1.713-.557-1.851-1.626-1.132 1.069-2.512 1.626-4.056 1.626-5.208 0-7.934-4.592-7.934-9.127 0-4.536 2.726-9.127 7.934-9.127 1.54 0 2.833.479 4.07 1.529.176-1.006 1.012-1.53 1.837-1.53.906 0 1.869.678 1.869 1.933v14.389c0 1.254-.963 1.933-1.869 1.933m13.985-14.703c-2.956 0-4.005 3.003-4.005 5.576 0 2.57 1.049 5.575 4.005 5.575s4.005-3.004 4.005-5.575c0-2.573-1.05-5.576-4.005-5.576m-5.686 21.3c-1.175 0-1.964-.828-1.964-2.06v-20.733c0-1.231.789-2.058 1.964-2.058.934 0 1.623.522 1.868 1.353.958-.9 2.31-1.353 4.038-1.353 5.064 0 7.714 4.59 7.714 9.127 0 4.535-2.65 9.127-7.714 9.127a6.11 6.11 0 0 1-3.943-1.433v5.97c0 1.232-.788 2.06-1.963 2.06m20.203-17.312h7.933c-.195-1.78-1.279-3.988-3.815-3.988l-.225-.004c-2.97 0-3.716 2.45-3.893 3.992m4.274 10.715c-6.087 0-8.247-4.917-8.247-9.127 0-4.536 2.778-9.127 8.091-9.127 4.867 0 7.776 4.433 7.776 8.718 0 1.385-.694 2.059-2.122 2.059h-9.788c.234 2.37 1.912 3.926 4.322 3.926 2.2 0 3.318-.874 4.134-1.512.516-.403.961-.751 1.521-.751.77 0 1.587.634 1.587 1.807 0 1.873-3.875 4.007-7.274 4.007m-111.868-10.715h7.933c-.194-1.78-1.279-3.988-3.815-3.988l-.225-.004c-2.97 0-3.716 2.45-3.893 3.992m4.274 10.715c-6.087 0-8.247-4.917-8.247-9.127 0-4.536 2.78-9.127 8.091-9.127 4.867 0 7.775 4.433 7.775 8.718 0 1.385-.694 2.059-2.12 2.059h-9.789c.234 2.37 1.912 3.926 4.322 3.926 2.2 0 3.318-.874 4.134-1.512.515-.403.961-.751 1.521-.751.77 0 1.587.634 1.587 1.807 0 1.873-3.875 4.007-7.274 4.007zm120.511 0c-1.175 0-1.964-.827-1.964-2.06v-21.487c0-1.232.79-2.059 1.964-2.059 1.175 0 1.964.827 1.964 2.059V155.6c0 1.232-.789 2.059-1.964 2.059zm8.265-19.353a2.281 2.281 0 0 1-2.28-2.279 2.28 2.28 0 0 1 2.28-2.278 2.28 2.28 0 0 1 2.278 2.278 2.28 2.28 0 0 1-2.278 2.28m0 19.351c-1.175 0-1.965-.827-1.965-2.059v-14.136c0-1.232.79-2.059 1.965-2.059s1.964.827 1.964 2.06V155.6c0 1.232-.79 2.06-1.964 2.06m13.51-14.703c-2.955 0-4.003 3.003-4.003 5.576 0 2.57 1.048 5.575 4.004 5.575 2.955 0 4.005-3.004 4.005-5.575 0-2.573-1.05-5.576-4.005-5.576m-.473 21.3c-2.76 0-6.99-1.626-6.99-3.63 0-.901.546-1.87 1.745-1.87.659 0 1.226.35 1.884.755.907.559 1.938 1.193 3.582 1.193 3.483 0 3.949-3.017 3.973-4.45-.987.906-2.28 1.405-3.721 1.405-5.209 0-7.934-4.592-7.934-9.127 0-4.536 2.726-9.127 7.934-9.127 1.431 0 2.813.613 3.786 1.393.22-.852.965-1.393 1.994-1.393.906 0 1.87.677 1.87 1.932v14.357c0 5.2-3.188 8.562-8.123 8.562m219.239-22.7c-2.956 0-4.006 3.003-4.006 5.575s1.05 5.575 4.006 5.575c2.953 0 4.003-3.003 4.003-5.575s-1.05-5.575-4.003-5.575m-.474 21.3c-2.76 0-6.99-1.627-6.99-3.631 0-.9.548-1.869 1.744-1.869.66 0 1.229.35 1.886.754.907.56 1.938 1.194 3.58 1.194 3.486 0 3.949-3.017 3.974-4.449-.987.905-2.28 1.403-3.72 1.403-5.21 0-7.933-4.592-7.933-9.127 0-4.535 2.723-9.127 7.933-9.127 1.434 0 2.812.614 3.786 1.394.22-.852.965-1.394 1.993-1.394.906 0 1.869.677 1.869 1.933v14.357c0 5.201-3.186 8.562-8.122 8.562zm-184.01-5.197c-1.175 0-1.965-.827-1.965-2.06v-9.11c0-2.608-1.768-3.534-3.28-3.534-1.516 0-3.283.927-3.283 3.535v9.11c0 1.232-.79 2.059-1.964 2.059-1.176 0-1.966-.827-1.966-2.06v-21.487c0-1.232.79-2.059 1.966-2.059 1.174 0 1.964.827 1.964 2.059v6.71c1.123-.922 2.54-1.418 4.098-1.418 3.183 0 6.394 2.143 6.394 6.928v9.268c0 1.232-.789 2.059-1.964 2.059zm13.513-2.97c-1.225 0-2.2-.44-2.89-1.163l6.848-8.262c.472 1.037.629 2.2.629 3.267 0 2.828-1.193 6.157-4.587 6.157zm-4.586-6.158c0-2.827 1.193-6.158 4.586-6.158 1.227 0 2.2.44 2.89 1.163L449 151.8c-.44-1.005-.628-2.168-.628-3.267zm12.326-6.889l-1.241 1.473c.939 1.576 1.435 3.44 1.435 5.416 0 4.536-2.725 9.127-7.934 9.127-1.648 0-3.15-.482-4.38-1.399l-.951 1.155c-.402.538-.884.81-1.454.81-.826 0-1.525-.67-1.525-1.462 0-.556.26-.964.708-1.48l1.124-1.348c-.941-1.457-1.455-3.355-1.455-5.403 0-4.535 2.726-9.127 7.933-9.127 1.65 0 3.16.473 4.405 1.374l.926-1.13c.157-.196.648-.809 1.424-.809.873 0 1.556.641 1.556 1.46 0 .597-.248.948-.571 1.343zm28.933 16.017c-3.593 0-6.865-1.791-6.865-3.755 0-1.031.752-1.84 1.713-1.84.66 0 1.211.387 1.794.792.84.587 1.793 1.251 3.452 1.251 1.64 0 2.654-.871 2.654-1.68 0-1.101-1.707-1.811-3.515-2.564-2.535-1.053-5.407-2.246-5.407-5.165 0-3.438 3.23-5.294 6.268-5.294 2.565 0 6.142 1.345 6.142 3.535 0 .826-.575 1.714-1.839 1.714-.675 0-1.159-.368-1.627-.721-.607-.457-1.294-.976-2.676-.976-.39 0-2.34.073-2.34 1.523 0 .877 1.58 1.489 3.254 2.135 2.525.975 5.668 2.19 5.668 5.31 0 3.94-3.46 5.734-6.676 5.734zm21.931 0c-.896 0-1.32-.327-2.014-1.02l-5.98-6.25v5.21c0 1.233-.79 2.06-1.965 2.06s-1.964-.827-1.964-2.06v-21.487c0-1.232.79-2.059 1.964-2.059 1.175 0 1.964.827 1.964 2.059v10.532l5.077-4.257c.762-.675 1.366-.983 1.943-.983 1.01 0 1.745.76 1.745 1.808 0 .65-.29 1.177-.919 1.656l-5.759 4.55 6.82 6.73c.616.618.834 1.095.834 1.83 0 .91-.8 1.68-1.746 1.68zm11.692-14.703c-2.956 0-4.004 3.003-4.004 5.576 0 2.57 1.048 5.575 4.004 5.575 2.955 0 4.006-3.004 4.006-5.575 0-2.573-1.051-5.576-4.006-5.576m0 14.703c-5.208 0-7.933-4.592-7.933-9.127 0-4.536 2.725-9.127 7.933-9.127s7.933 4.59 7.933 9.127c0 4.535-2.725 9.127-7.933 9.127m81.78-14.703c-2.958 0-4.007 3.003-4.007 5.576 0 2.57 1.05 5.575 4.006 5.575 2.953 0 4.003-3.004 4.003-5.575 0-2.573-1.05-5.576-4.003-5.576m0 14.703c-5.208 0-7.935-4.592-7.935-9.127 0-4.536 2.727-9.127 7.935-9.127 5.207 0 7.932 4.59 7.932 9.127 0 4.535-2.725 9.127-7.932 9.127zm-68.265 0c-1.177 0-1.966-.827-1.966-2.06v-21.487c0-1.232.79-2.059 1.966-2.059 1.175 0 1.963.827 1.963 2.059V155.6c0 1.232-.788 2.059-1.963 2.059zm9.268-10.715h7.933c-.195-1.78-1.279-3.988-3.817-3.988l-.224-.004c-2.97 0-3.718 2.45-3.892 3.992m4.273 10.715c-6.086 0-8.247-4.917-8.247-9.127 0-4.536 2.78-9.127 8.09-9.127 4.868 0 7.778 4.433 7.778 8.718 0 1.385-.695 2.059-2.123 2.059h-9.789c.236 2.37 1.914 3.926 4.324 3.926 2.201 0 3.318-.874 4.133-1.512.516-.403.961-.751 1.521-.751.769 0 1.588.634 1.588 1.807 0 1.873-3.875 4.007-7.275 4.007m22.627-19.353a2.28 2.28 0 0 1 0-4.557 2.279 2.279 0 0 1 0 4.557m0 19.352c-1.176 0-1.965-.827-1.965-2.059v-14.136c0-1.232.79-2.059 1.965-2.059 1.176 0 1.964.827 1.964 2.06V155.6c0 1.232-.788 2.06-1.964 2.06zm17.974 0c-1.176 0-1.964-.826-1.964-2.058v-21.488c0-1.232.788-2.059 1.964-2.059 1.175 0 1.964.827 1.964 2.059V155.6c0 1.232-.789 2.059-1.964 2.059zm46.35-19.352a2.28 2.28 0 0 1-2.276-2.279 2.28 2.28 0 0 1 2.277-2.278 2.28 2.28 0 0 1 2.279 2.278 2.281 2.281 0 0 1-2.28 2.28m0 19.351c-1.174 0-1.964-.827-1.964-2.059v-14.136c0-1.232.79-2.059 1.965-2.059 1.176 0 1.964.827 1.964 2.06V155.6c0 1.232-.788 2.06-1.964 2.06zm12.098 0c-3.593 0-6.867-1.79-6.867-3.754 0-1.031.755-1.84 1.715-1.84.661 0 1.212.387 1.795.792.84.587 1.791 1.251 3.452 1.251 1.638 0 2.653-.871 2.653-1.68 0-1.101-1.707-1.811-3.516-2.564-2.534-1.053-5.407-2.246-5.407-5.165 0-3.438 3.23-5.294 6.27-5.294 2.564 0 6.141 1.345 6.141 3.535 0 .826-.574 1.714-1.839 1.714-.675 0-1.159-.368-1.627-.721-.607-.457-1.294-.976-2.675-.976-.393 0-2.34.073-2.34 1.523 0 .877 1.58 1.489 3.252 2.135 2.527.975 5.67 2.19 5.67 5.31 0 3.94-3.462 5.734-6.677 5.734zm12.855 0c-1.177 0-1.966-.826-1.966-2.058v-12.456h-.55c-1.211 0-1.963-.68-1.963-1.776 0-1.095.752-1.775 1.963-1.775h.55v-3.03c0-1.232.789-2.06 1.966-2.06 1.175 0 1.963.828 1.963 2.06v3.03h.549c1.212 0 1.965.68 1.965 1.775 0 1.096-.753 1.776-1.965 1.776h-.55v12.456c0 1.232-.787 2.059-1.962 2.059zm9.142-19.352a2.28 2.28 0 0 1 0-4.557 2.28 2.28 0 0 1 2.28 2.278 2.281 2.281 0 0 1-2.28 2.28m0 19.351c-1.176 0-1.965-.827-1.965-2.059v-14.136c0-1.232.79-2.059 1.965-2.059 1.176 0 1.963.827 1.963 2.06V155.6c0 1.232-.787 2.06-1.963 2.06zm18.224 0c-.896 0-1.32-.326-2.013-1.018l-5.981-6.25v5.21c0 1.232-.788 2.059-1.965 2.059-1.175 0-1.964-.827-1.964-2.06v-21.487c0-1.232.789-2.059 1.964-2.059 1.177 0 1.965.827 1.965 2.059v10.532l5.077-4.257c.76-.675 1.363-.983 1.944-.983 1.011 0 1.744.76 1.744 1.808 0 .65-.292 1.175-.92 1.656l-5.76 4.55 6.82 6.73c.615.617.833 1.094.833 1.83 0 .91-.797 1.68-1.744 1.68z"/>
    </g>
</svg>
