<?xml version="1.0" encoding="UTF-8" standalone="no"?>
<svg
   xmlns:dc="http://purl.org/dc/elements/1.1/"
   xmlns:cc="http://creativecommons.org/ns#"
   xmlns:rdf="http://www.w3.org/1999/02/22-rdf-syntax-ns#"
   xmlns:svg="http://www.w3.org/2000/svg"
   xmlns="http://www.w3.org/2000/svg"
   height="500"
   width="400"
   id="svg44"
   xml:space="preserve"
   viewBox="0 0 400.00001 500.00002"
   y="0px"
   x="0px"
   version="1.1"><metadata
     id="metadata50"><rdf:RDF><cc:Work
         rdf:about=""><dc:format>image/svg+xml</dc:format><dc:type
           rdf:resource="http://purl.org/dc/dcmitype/StillImage" /><dc:title></dc:title></cc:Work></rdf:RDF></metadata><defs
     id="defs48" /><style
     id="style2"
     type="text/css">
	.st0{fill:#1A953C;}
	.st1{fill:#FFFFFF;}
</style><g
     transform="matrix(0.46625467,0,0,0.46625467,-114.33957,-41.810078)"
     id="GRØNN"><path
       style="fill:#1a953c"
       id="path4"
       d="m 571.23,655.37 c 1.18,0.33 2.3,0.64 3.34,0.92 16.67,4.53 32.23,7.69 45.87,9.91 6.28,0.38 11.14,-0.07 13.55,-1.8 9.19,-6.58 8.23,-44.59 8.09,-45.82 -0.14,-1.23 0.41,-43.76 -39.37,-72.3 -39.78,-28.54 -40.33,-37.04 -39.92,-38.69 0.41,-1.65 4.25,-8.23 32.38,-10.56 28.12,-2.33 79.02,45.12 79.02,45.12 v 0.19 c 0.59,-0.55 51.04,-47.43 79,-45.11 28.12,2.33 31.97,8.92 32.38,10.56 0.41,1.65 -0.14,10.15 -39.92,38.69 -39.79,28.54 -39.24,71.06 -39.37,72.3 -0.13,1.24 -1.1,39.24 8.09,45.82 2.17,1.56 6.34,2.08 11.74,1.89 14.06,-2.23 30.26,-5.47 47.68,-10.2 1.04,-0.28 2.16,-0.59 3.34,-0.92 17.04,-4.75 48.76,-13.58 97.35,-8.15 40.91,4.58 85.78,18.47 133.95,41.41 110.16,-298.77 89.4,-584.51 89.4,-584.51 H 674.18 674.17 250.53 c 0,0 -20.76,285.74 89.4,584.51 48.17,-22.95 93.04,-36.84 133.95,-41.41 48.59,-5.43 80.31,3.41 97.35,8.15 z M 703.66,460.38 c -3.79,27.23 -9.95,37.96 -13.87,43.03 -3.92,5.07 -9.79,7.09 -18.29,1.37 -8.49,-5.72 -50.08,-22.49 -34.38,-78.46 0,0 4.7,-15.05 6.9,-20.79 4.47,-11.67 9.41,-12.75 12.14,-11.71 2.73,1.05 51.29,39.33 47.5,66.56 z m 61.77,-9.35 c -25.45,6.5 -37.17,4.94 -43.07,3.31 -5.9,-1.63 -9.82,-6.09 -7.83,-15.68 1.99,-9.59 1.76,-52.43 56.94,-58.8 0,0 15.01,-1.29 20.88,-1.42 11.94,-0.27 14.68,3.71 14.75,6.49 0.06,2.8 -16.22,59.59 -41.67,66.1 z m 94.83,-12.36 c 0,0 11.59,5.65 15.95,8.13 8.88,5.05 9.15,9.17 7.97,11.24 -1.18,2.07 -38.07,36.62 -59.61,30.21 -21.54,-6.4 -29.46,-12.69 -33.07,-16.48 -3.62,-3.79 -4.53,-8.78 1.14,-14.95 5.67,-6.16 24.32,-37.71 67.62,-18.15 z m -91.68,-85.89 c 1.07,-6.31 -0.12,-34.31 35.79,-39.81 0,0 9.78,-1.21 13.61,-1.43 7.79,-0.46 9.69,2.07 9.79,3.89 0.1,1.82 -9.15,39.33 -25.63,44.2 -16.48,4.87 -24.17,4.13 -28.07,3.21 -3.89,-0.93 -6.55,-3.75 -5.49,-10.06 z m -38.2,-64.34 c 11.53,-5.73 16.04,-3.11 17.37,-0.42 1.34,2.69 11.48,65.6 -10.39,83.62 -21.87,18.02 -34.02,21.86 -40.53,22.98 -6.51,1.11 -12.38,-1.45 -14.83,-11.71 -2.45,-10.26 -22.31,-51.99 28.64,-83.5 0.01,-0.02 14.07,-8.16 19.74,-10.97 z m -78.44,-76.27 c 0,0 10.67,-12.11 15.11,-16.56 9.04,-9.04 14.11,-8 16.22,-5.89 2.11,2.11 31.56,58.13 16.67,82.01 -14.89,23.88 -25.11,31.34 -30.89,34.45 -5.78,3.11 -12.11,2.55 -17.67,-6.34 -5.55,-8.88 -37.45,-41.89 0.56,-87.67 z m -81.45,74.3 c 2.76,-0.36 60.97,9.79 70.14,34.41 9.17,24.62 8.86,36.43 7.87,42.48 -1,6.04 -5.02,10.41 -14.76,9.45 -9.74,-0.96 -52.32,3.81 -64.51,-50.38 0,0 -2.88,-14.79 -3.63,-20.61 -1.54,-11.84 2.12,-14.99 4.89,-15.35 z m -26.12,93.16 c 0.65,-11.92 4.82,-14.36 7.6,-14.21 2.78,0.15 58.17,20.72 62.71,46.6 4.54,25.88 2.09,37.44 0.01,43.2 -2.08,5.76 -6.83,9.32 -16.23,6.61 -9.4,-2.71 -52.14,-5.77 -54.27,-61.27 0,-0.01 -0.13,-15.07 0.18,-20.93 z m -80.34,96.09 c 1.13,-2.01 36.57,-35.55 57.41,-29.47 20.83,6.08 28.5,12.11 32.02,15.75 3.51,3.64 4.42,8.46 -1.02,14.44 -5.44,5.98 -23.29,36.53 -65.2,17.86 0,0 -11.22,-5.39 -15.44,-7.77 -8.62,-4.82 -8.9,-8.8 -7.77,-10.81 z"
       class="st0" /><path
       style="fill:#1a953c"
       id="path6"
       d="m 868.04,919.85 c -34.01,-3.81 -54.84,2 -68.62,5.84 -1.35,0.38 -2.63,0.73 -3.83,1.06 -64.35,17.47 -114.28,17.69 -119.37,17.72 -0.11,0 -0.23,0 -0.35,0 -9,0 -57.02,-0.85 -119.13,-17.71 -1.21,-0.33 -2.49,-0.68 -3.85,-1.06 -13.79,-3.84 -34.62,-9.65 -68.6,-5.84 -8.39,0.94 -17.09,2.41 -26.06,4.41 55.93,84.16 126.63,163.19 215.95,230.19 v 0 c 0,0 0,0 0,0 0,0 0,0 0,0 v 0 c 89.59,-67.19 160.43,-146.49 216.44,-230.92 -7.74,-1.63 -15.28,-2.87 -22.58,-3.69 z"
       class="st0" /><path
       style="fill:#1a953c"
       id="path8"
       d="m 783.83,705.48 c -1.22,0.34 -2.37,0.66 -3.44,0.95 -58.82,15.97 -103.48,15.69 -103.93,15.69 l -0.5,-0.01 -0.23,0.01 c -5.37,-0.01 -48.14,-0.58 -103.79,-15.69 -1.08,-0.29 -2.22,-0.61 -3.48,-0.96 -15.89,-4.42 -45.45,-12.66 -90.62,-7.61 -36.62,4.1 -77.02,16.22 -120.21,36.02 7.32,17.71 15.12,35.41 23.44,53.05 37.83,-17.42 72.52,-28 103.22,-31.43 33.98,-3.81 54.82,2 68.6,5.84 1.36,0.38 2.64,0.74 3.85,1.06 62.11,16.86 110.14,17.71 119.13,17.71 0.12,0 0.24,0 0.35,0 5.09,0 55.02,-0.25 119.37,-17.72 1.2,-0.33 2.48,-0.68 3.83,-1.06 13.78,-3.84 34.61,-9.65 68.62,-5.84 29.81,3.33 63.39,13.41 99.96,29.95 8.29,-17.66 16.07,-35.37 23.37,-53.08 -41.94,-18.9 -81.2,-30.52 -116.88,-34.51 -45.2,-5.04 -74.77,3.2 -90.66,7.63 z"
       class="st0" /><path
       style="fill:#1a953c"
       id="path10"
       d="m 783.83,705.48 c -1.22,0.34 -2.37,0.66 -3.44,0.95 -58.82,15.97 -103.48,15.69 -103.93,15.69 l -0.5,-0.01 -0.23,0.01 c -5.37,-0.01 -48.14,-0.58 -103.79,-15.69 -1.08,-0.29 -2.22,-0.61 -3.48,-0.96 -15.89,-4.42 -45.45,-12.66 -90.62,-7.61 -36.62,4.1 -77.02,16.22 -120.21,36.02 7.32,17.71 15.12,35.41 23.44,53.05 37.83,-17.42 72.52,-28 103.22,-31.43 33.98,-3.81 54.82,2 68.6,5.84 1.36,0.38 2.64,0.74 3.85,1.06 62.11,16.86 110.14,17.71 119.13,17.71 0.12,0 0.24,0 0.35,0 5.09,0 55.02,-0.25 119.37,-17.72 1.2,-0.33 2.48,-0.68 3.83,-1.06 13.78,-3.84 34.61,-9.65 68.62,-5.84 29.81,3.33 63.39,13.41 99.96,29.95 8.29,-17.66 16.07,-35.37 23.37,-53.08 -41.94,-18.9 -81.2,-30.52 -116.88,-34.51 -45.2,-5.04 -74.77,3.2 -90.66,7.63 z"
       class="st0" /><path
       style="fill:#1a953c"
       id="path12"
       d="m 874.48,809.03 c -45.2,-5.05 -74.76,3.19 -90.66,7.62 -1.22,0.34 -2.37,0.66 -3.44,0.95 -58.82,15.97 -103.48,15.69 -103.93,15.69 l -0.5,-0.01 -0.23,0.01 c -5.37,-0.01 -48.14,-0.58 -103.79,-15.69 -1.08,-0.29 -2.22,-0.61 -3.48,-0.96 -15.89,-4.42 -45.45,-12.66 -90.62,-7.61 -24.04,2.69 -49.71,8.85 -76.72,18.35 9.01,17.29 18.54,34.48 28.63,51.52 19.3,-6.23 37.53,-10.33 54.54,-12.23 33.98,-3.81 54.82,2 68.6,5.84 1.36,0.38 2.64,0.74 3.85,1.06 62.11,16.86 110.14,17.71 119.13,17.71 0.12,0 0.24,0 0.35,0 5.09,-0.02 55.02,-0.25 119.37,-17.72 1.2,-0.33 2.48,-0.68 3.83,-1.06 13.78,-3.84 34.61,-9.65 68.62,-5.84 16.02,1.79 33.13,5.54 51.2,11.18 10.09,-17.08 19.61,-34.31 28.62,-51.64 -25.79,-8.83 -50.33,-14.59 -73.37,-17.17 z"
       class="st0" /></g><g
     transform="matrix(0.46625467,0,0,0.46625467,-114.33957,-41.810078)"
     id="HVIT"><g
       id="g41"><path
         style="fill:#ffffff"
         id="path15"
         d="m 799.41,761.35 c -1.35,0.38 -2.63,0.73 -3.83,1.06 -64.35,17.47 -114.28,17.72 -119.37,17.72 -0.11,0 -0.23,0 -0.35,0 -9,0 -57.02,-0.85 -119.13,-17.71 -1.21,-0.33 -2.49,-0.68 -3.85,-1.06 -13.79,-3.84 -34.62,-9.65 -68.6,-5.84 -30.7,3.43 -65.39,14.01 -103.22,31.43 6.38,13.52 13.06,27.01 20.05,40.44 27.01,-9.5 52.68,-15.66 76.72,-18.35 45.17,-5.05 74.73,3.18 90.62,7.61 1.26,0.35 2.41,0.67 3.48,0.96 55.66,15.11 98.42,15.68 103.79,15.69 l 0.23,-0.01 0.5,0.01 c 0.45,0 45.11,0.28 103.93,-15.69 1.07,-0.29 2.22,-0.61 3.44,-0.95 15.9,-4.43 45.46,-12.67 90.66,-7.62 23.04,2.58 47.58,8.34 73.36,17.18 7.03,-13.53 13.74,-27.13 20.15,-40.76 -36.57,-16.54 -70.14,-26.61 -99.96,-29.95 -34.01,-3.81 -54.83,2 -68.62,5.84 z"
         class="st1" /><path
         style="fill:#ffffff"
         id="path17"
         d="m 471.78,486.54 c 4.23,2.37 15.44,7.77 15.44,7.77 41.91,18.67 59.76,-11.89 65.2,-17.86 5.44,-5.98 4.53,-10.8 1.02,-14.44 -3.51,-3.64 -11.18,-9.68 -32.02,-15.75 -20.83,-6.08 -56.28,27.46 -57.41,29.47 -1.11,2 -0.83,5.98 7.77,10.81 z"
         class="st1" /><path
         style="fill:#ffffff"
         id="path19"
         d="m 598.47,461.83 c 9.4,2.71 14.15,-0.85 16.23,-6.61 2.08,-5.76 4.53,-17.32 -0.01,-43.2 -4.54,-25.88 -59.93,-46.45 -62.71,-46.6 -2.78,-0.15 -6.96,2.28 -7.6,14.21 -0.32,5.86 -0.18,20.93 -0.18,20.93 2.13,55.5 44.86,58.55 54.27,61.27 z"
         class="st1" /><path
         style="fill:#ffffff"
         id="path21"
         d="m 874.47,647.22 c -48.59,-5.43 -80.31,3.4 -97.35,8.15 -1.18,0.33 -2.3,0.64 -3.34,0.92 -17.41,4.73 -33.62,7.97 -47.68,10.2 -5.4,0.19 -9.56,-0.33 -11.74,-1.89 -9.19,-6.59 -8.23,-44.59 -8.09,-45.82 0.14,-1.23 -0.41,-43.76 39.37,-72.3 39.79,-28.54 40.33,-37.04 39.92,-38.69 -0.41,-1.65 -4.25,-8.23 -32.38,-10.56 -27.96,-2.32 -78.41,44.56 -79,45.11 v -0.19 c 0,0 -50.89,-47.45 -79.02,-45.12 -28.12,2.33 -31.97,8.92 -32.38,10.56 -0.41,1.64 0.14,10.15 39.92,38.69 39.78,28.54 39.24,71.06 39.37,72.3 0.14,1.23 1.1,39.24 -8.09,45.82 -2.41,1.73 -7.27,2.18 -13.55,1.8 -13.64,-2.22 -29.2,-5.38 -45.87,-9.91 -1.04,-0.28 -2.16,-0.59 -3.34,-0.92 -17.04,-4.75 -48.76,-13.59 -97.35,-8.15 -40.91,4.58 -85.78,18.46 -133.94,41.41 5.55,15.06 11.44,30.16 17.68,45.26 43.2,-19.8 83.59,-31.92 120.21,-36.02 45.17,-5.05 74.73,3.18 90.62,7.61 1.26,0.35 2.41,0.67 3.48,0.96 55.66,15.11 98.42,15.68 103.79,15.69 l 0.23,-0.01 0.5,0.01 c 0.45,0 45.11,0.28 103.93,-15.69 1.07,-0.29 2.22,-0.61 3.44,-0.95 15.9,-4.43 45.46,-12.67 90.66,-7.62 35.68,3.99 74.94,15.6 116.88,34.51 l 17.06,-43.74 C 960.25,665.69 915.38,651.8 874.47,647.22 Z"
         class="st1" /><path
         style="fill:#ffffff"
         id="path23"
         d="m 799.41,872.51 c -1.35,0.38 -2.63,0.73 -3.83,1.06 -64.35,17.47 -114.28,17.69 -119.37,17.72 -0.11,0 -0.23,0 -0.35,0 -9,0 -57.02,-0.85 -119.13,-17.71 -1.21,-0.33 -2.49,-0.68 -3.85,-1.06 -13.79,-3.84 -34.62,-9.65 -68.6,-5.84 -17,1.9 -35.23,6 -54.54,12.23 l 28.48,45.36 c 8.97,-2 17.67,-3.47 26.06,-4.41 33.98,-3.81 54.82,2 68.6,5.84 1.36,0.38 2.64,0.74 3.85,1.06 62.11,16.86 110.14,17.71 119.13,17.71 0.12,0 0.24,0 0.35,0 5.09,-0.02 55.02,-0.25 119.37,-17.72 1.2,-0.33 2.48,-0.68 3.83,-1.06 13.78,-3.84 34.61,-9.65 68.62,-5.84 7.3,0.82 14.84,2.06 22.58,3.68 l 28.61,-45.68 c -18.07,-5.63 -35.18,-9.38 -51.19,-11.18 -34.01,-3.8 -54.83,2 -68.62,5.84 z"
         class="st1" /><path
         style="fill:#ffffff"
         id="path25"
         d="m 919.23,877.85 c 0.15,-0.25 0.29,-0.51 0.44,-0.76 -0.14,0.25 -0.29,0.5 -0.44,0.76 0,0 0,0 0,0 z"
         class="st1" /><path
         style="fill:#ffffff"
         id="path27"
         d="m 774.08,362.84 c 3.9,0.92 11.59,1.66 28.07,-3.21 16.48,-4.87 25.74,-42.38 25.63,-44.2 -0.11,-1.82 -2,-4.35 -9.79,-3.89 -3.83,0.23 -13.61,1.43 -13.61,1.43 -35.91,5.5 -34.72,33.5 -35.79,39.81 -1.07,6.31 1.59,9.13 5.49,10.06 z"
         class="st1" /><path
         style="fill:#ffffff"
         id="path29"
         d="m 792.64,456.82 c -5.67,6.16 -4.75,11.16 -1.14,14.95 3.62,3.79 11.53,10.08 33.07,16.48 21.54,6.4 58.43,-28.14 59.61,-30.21 1.18,-2.07 0.91,-6.2 -7.97,-11.24 -4.36,-2.48 -15.95,-8.13 -15.95,-8.13 -43.3,-19.56 -61.95,11.99 -67.62,18.15 z"
         class="st1" /><path
         style="fill:#ffffff"
         id="path31"
         d="m 669.05,306.18 c 5.78,-3.11 16,-10.57 30.89,-34.45 14.89,-23.88 -14.56,-79.89 -16.67,-82.01 -2.11,-2.12 -7.18,-3.15 -16.22,5.89 -4.44,4.44 -15.11,16.56 -15.11,16.56 -38,45.78 -6.11,78.78 -0.56,87.67 5.56,8.9 11.89,9.45 17.67,6.34 z"
         class="st1" /><path
         style="fill:#ffffff"
         id="path33"
         d="m 569.22,322.43 c 12.19,54.19 54.77,49.42 64.51,50.38 9.74,0.96 13.76,-3.41 14.76,-9.45 1,-6.04 1.3,-17.86 -7.87,-42.48 -9.17,-24.62 -67.37,-34.77 -70.14,-34.41 -2.76,0.36 -6.42,3.51 -4.89,15.35 0.76,5.82 3.63,20.61 3.63,20.61 z"
         class="st1" /><path
         style="fill:#ffffff"
         id="path35"
         d="m 682,382.9 c 2.45,10.27 8.32,12.83 14.83,11.71 6.51,-1.11 18.66,-4.96 40.53,-22.98 21.87,-18.02 11.72,-80.93 10.39,-83.62 -1.34,-2.69 -5.84,-5.31 -17.37,0.42 -5.67,2.82 -19.73,10.96 -19.73,10.96 -50.95,31.51 -31.1,73.24 -28.65,83.51 z"
         class="st1" /><path
         style="fill:#ffffff"
         id="path37"
         d="m 792.35,378.44 c -5.87,0.13 -20.88,1.42 -20.88,1.42 -55.18,6.37 -54.96,49.21 -56.94,58.8 -1.98,9.59 1.93,14.04 7.83,15.68 5.9,1.63 17.62,3.19 43.07,-3.31 25.45,-6.5 41.73,-63.3 41.67,-66.09 -0.07,-2.79 -2.81,-6.76 -14.75,-6.5 z"
         class="st1" /><path
         style="fill:#ffffff"
         id="path39"
         d="m 656.16,393.83 c -2.72,-1.04 -7.66,0.04 -12.14,11.71 -2.2,5.73 -6.9,20.79 -6.9,20.79 -15.71,55.97 25.88,72.74 34.38,78.46 8.49,5.72 14.37,3.7 18.29,-1.37 3.92,-5.07 10.08,-15.8 13.87,-43.03 3.79,-27.24 -44.77,-65.52 -47.5,-66.56 z"
         class="st1" /></g></g></svg>