<svg xmlns="http://www.w3.org/2000/svg" xmlns:xlink="http://www.w3.org/1999/xlink" viewBox="0 0 155 50.206"><defs><clipPath id="clip-path"><rect id="Rectangle_2" data-name="Rectangle 2" width="155" height="50.206" fill="none"/></clipPath></defs><g id="Group_17" data-name="Group 17" transform="translate(-224.21 -199.348)"><g id="Group_16" data-name="Group 16" transform="translate(224.21 199.348)" clip-path="url(#clip-path)"><path id="Path_719" data-name="Path 719" d="M552.174,240.971l-.175.1-.39.224a6.05,6.05,0,0,0-2.687,2.82,3.086,3.086,0,0,0-.128.916,7.375,7.375,0,0,0,.689,2.833l.281.595.54,1.153,1.1-.64.565-.326a5.942,5.942,0,0,0,2.6-2.766,3.128,3.128,0,0,0,.122-.914,7.563,7.563,0,0,0-.729-2.935h0l-.191-.407-.106-.226c-.005-.012-.02-.04-.039-.075a.829.829,0,0,0-.782-.552,1.419,1.419,0,0,0-.634.169l-.017.01Z" transform="translate(-425.161 -224.995)" fill="#89a199"/><path id="Path_720" data-name="Path 720" d="M530.372,219.221a4.69,4.69,0,0,0-1.4-.193h-.011a10.893,10.893,0,0,0-4.222,1.03l-.879.412-1.824.859,1.012,1.743.482.835c1.023,1.7,2.6,3.421,4.157,3.9a4.656,4.656,0,0,0,1.383.19,11.317,11.317,0,0,0,4.381-1.085l.6-.284.987-.465.007,0c.067-.032.11-.045.208-.1a2.391,2.391,0,0,1,.846-.247l-1.5-2.57h0c-1.027-1.725-2.643-3.535-4.231-4.021" transform="translate(-408.596 -211.532)" fill="#375172"/><path id="Path_721" data-name="Path 721" d="M565.169,213.179a3.306,3.306,0,0,0-1.18-.191,7.652,7.652,0,0,0-2.6.529,1.488,1.488,0,0,1-.418.083.668.668,0,0,1-.678-.675.691.691,0,0,1,.341-.581c.037-.025,1.094-.631,1.1-.633,1.756-.922,3.57-2.4,4.138-3.918a5.117,5.117,0,0,0,.281-1.773,11.906,11.906,0,0,0-.835-4.039l-.248-.615-.809-2.019-1.941.975-.592.3c-1.786.921-3.687,2.427-4.266,3.986a5.034,5.034,0,0,0-.289,1.786,11.476,11.476,0,0,0,.789,3.882l.361.9.451,1.136,1.459,3.185.23.457a5.928,5.928,0,0,0,2.607,2.762,3.342,3.342,0,0,0,1.171.185,8.08,8.08,0,0,0,2.7-.558l.418-.171,1.284-.512-.622-1.233-.2-.4a6.067,6.067,0,0,0-2.655-2.846" transform="translate(-430.348 -199.348)" fill="#375172"/><path id="Path_722" data-name="Path 722" d="M229.208,257.628h-5V255h6.535L247.8,278.906V257.628h-3.626V255h10.121v2.63h-3.626v25.821H247.72L230.7,259.661Z" transform="translate(-224.21 -233.801)" fill="#375172"/><path id="Path_723" data-name="Path 723" d="M227.836,264.841h.765l2.1,2.88v19.191h3.666v2.63H224.21v-2.63h3.626Z" transform="translate(-224.21 -239.895)" fill="#375172"/><path id="Path_724" data-name="Path 724" d="M302.354,284.786a10.958,10.958,0,1,1,10.958,10.878,10.969,10.969,0,0,1-10.958-10.878m19.286-.04a8.328,8.328,0,1,0-8.328,8.328,8.316,8.316,0,0,0,8.328-8.328" transform="translate(-272.589 -245.459)" fill="#375172"/><path id="Path_725" data-name="Path 725" d="M367.281,279.034c.956-2.909,3.706-4.144,6.694-4.263v2.47c-4.622.4-6.694,3.108-6.694,7.571v8.408h3.507v2.471h-9.643V293.22h3.507V277.241h-3.507v-2.47h6.136Z" transform="translate(-308.987 -246.043)" fill="#375172"/><path id="Path_726" data-name="Path 726" d="M433.091,279.748V261.3h-6.136v2.471h3.507v8.886c0,2.152-.08,3.666-1.514,5.379a6.642,6.642,0,0,1-4.7,2.271,5.456,5.456,0,0,1-5.021-2.232c-1.275-1.673-1.315-3.546-1.315-5.5V261.3H406.234v-.678c.04-1.634.04-3.148,1.474-4.224a5.164,5.164,0,0,1,2.909-1.036v-2.351A7.9,7.9,0,0,0,405.6,254.8c-1.913,1.714-1.952,3.666-2.032,6.017v.478h-3.507v2.473H403.6v15.976h-3.546v2.47h9.762v-2.47h-3.586V263.772h9.045v9.8a9.676,9.676,0,0,0,1.076,5.14,8.745,8.745,0,0,0,7.133,4.065,7.743,7.743,0,0,0,6.973-4.065v3.507h6.176v-2.47Z" transform="translate(-333.078 -232.571)" fill="#375172"/><path id="Path_727" data-name="Path 727" d="M505.575,277.853a7.782,7.782,0,0,1,7.013-4.025c2.351,0,5.858,1.275,7.213,4.025a12.392,12.392,0,0,1,1.155,5.459v9.324h3.507v2.47H514.82v-2.47h3.507v-8.368a10.032,10.032,0,0,0-1-5.3c-1.116-1.953-3.467-2.55-5.459-2.55a6.553,6.553,0,0,0-4.9,2.191c-1.355,1.594-1.395,3.387-1.395,5.34v8.687h3.507v2.47h-9.643v-2.47h3.507V276.657h-3.507v-2.47h6.136Z" transform="translate(-394.605 -245.459)" fill="#375172"/><path id="Path_728" data-name="Path 728" d="M583.557,279.026a9.749,9.749,0,0,1-8.567,4.981,11.368,11.368,0,0,1-8.965-4.981,11.843,11.843,0,0,1-1.833-6.017A10.923,10.923,0,0,1,574.87,262.17a9.671,9.671,0,0,1,8.687,5.181v-9.882h-3.506V255h6.136v25.98h3.506v2.47h-6.136Zm.08-6.017a8.359,8.359,0,0,0-8.369-8.328,8.428,8.428,0,1,0,8.369,8.328" transform="translate(-434.694 -233.801)" fill="#375172"/></g></g></svg>