<?xml version="1.0" encoding="UTF-8"?>
<svg width="213px" height="50px" viewBox="0 0 213 50" version="1.1" xmlns="http://www.w3.org/2000/svg" xmlns:xlink="http://www.w3.org/1999/xlink">
    <!-- Generator: Sketch 46.2 (44496) - http://www.bohemiancoding.com/sketch -->
    <title>Page 1</title>
    <desc>Created with Sketch.</desc>
    <defs>
        <polygon id="path-1" points="0 50 212.612 50 212.612 0 0 0"></polygon>
    </defs>
    <g id="Symbols" stroke="none" stroke-width="1" fill="none" fill-rule="evenodd">
        <g id="NIB-logo-blue">
            <g id="Page-1">
                <polygon id="Fill-1" fill="#165788" points="20.8305 16.2419 20.8305 30.2419 7.9045 16.2419 -0.0005 16.2419 -0.0005 47.2949 9.5385 47.2949 9.5385 33.2999 22.4225 47.2949 30.3745 47.2949 30.3745 16.2419"></polygon>
                <g id="Group-87">
                    <path d="M48.2759,16.2417 L65.8799,16.2417 C74.1279,16.2417 77.9359,19.2007 77.9359,24.3737 C77.9359,27.6327 75.5769,30.3447 71.9859,31.2317 L71.9859,31.3147 C76.2199,32.0747 78.8519,35.2637 78.8519,38.9537 C78.8519,42.9397 77.7929,47.2947 67.1849,47.2947 L48.2759,47.2947 L48.2759,16.2417 Z M58.6889,28.5657 L62.9219,28.5657 C65.5719,28.5657 67.5219,27.8667 67.5219,25.2397 C67.5219,22.6907 65.4279,21.9117 62.9219,21.9117 L58.6889,21.9117 L58.6889,28.5657 Z M58.6889,41.6277 L63.4999,41.6277 C66.0549,41.6277 67.8589,40.6387 67.8589,38.1727 C67.8589,35.3837 66.4399,34.7257 63.4999,34.7257 L58.6889,34.7257 L58.6889,41.6277 Z" id="Fill-2" fill="#165788"></path>
                    <polygon id="Fill-4" fill="#165788" points="45.6992 13.6001 33.4812 13.6001 33.4812 0.0001"></polygon>
                    <polygon id="Fill-6" fill="#165788" points="33.4805 16.2417 33.4805 16.3237 45.2545 29.4427 33.4805 29.4427 33.4805 47.2947 45.3795 47.2947 45.3795 16.2417"></polygon>
                    <path d="M102.0772,22.9179 C102.0772,23.0029 102.0512,23.0449 101.9582,23.0449 L101.6362,23.0449 C101.5772,23.0449 101.5432,23.0289 101.5172,22.9849 L99.2712,19.0029 C99.0852,18.6809 98.9922,18.4789 98.9842,18.4519 L98.9842,22.9179 C98.9842,23.0029 98.9502,23.0449 98.8652,23.0449 L98.5442,23.0449 C98.4502,23.0449 98.4172,23.0029 98.4172,22.9179 L98.4172,17.4089 C98.4172,17.3249 98.4502,17.2829 98.5442,17.2829 L98.8652,17.2829 C98.9242,17.2829 98.9502,17.3009 98.9672,17.3339 L101.2642,21.3739 C101.3312,21.4959 101.5172,21.8839 101.5172,21.8839 L101.5172,17.4089 C101.5172,17.3249 101.5512,17.2829 101.6362,17.2829 L101.9582,17.2829 C102.0512,17.2829 102.0772,17.3249 102.0772,17.4089 L102.0772,22.9179 Z" id="Fill-8" fill="#165788"></path>
                    <path d="M103.7276,18.4516 C103.7276,17.7736 104.1686,17.2146 105.5586,17.2146 C106.9646,17.2146 107.3976,17.7736 107.3976,18.4516 L107.3976,21.8746 C107.3976,22.5536 106.9646,23.1136 105.5586,23.1136 C104.1686,23.1136 103.7276,22.5536 103.7276,21.8746 L103.7276,18.4516 Z M106.7956,18.5456 C106.7956,18.0536 106.4566,17.7316 105.5586,17.7316 C104.6686,17.7316 104.3296,18.0536 104.3296,18.5456 L104.3296,21.7836 C104.3296,22.2736 104.6686,22.5956 105.5586,22.5956 C106.4566,22.5956 106.7956,22.2736 106.7956,21.7836 L106.7956,18.5456 Z" id="Fill-10" fill="#165788"></path>
                    <path d="M109.6421,20.6977 L109.6421,22.9187 C109.6421,23.0037 109.6161,23.0447 109.5231,23.0447 L109.1671,23.0447 C109.0821,23.0447 109.0491,23.0037 109.0491,22.9187 L109.0491,17.4087 C109.0491,17.3247 109.0821,17.2827 109.1581,17.2827 L110.8361,17.2827 C112.2431,17.2827 112.6751,17.8417 112.6751,18.5187 L112.6751,19.4687 C112.6751,19.9937 112.4121,20.4527 111.6241,20.6207 L112.7261,22.9187 C112.7601,22.9937 112.7011,23.0447 112.6071,23.0447 L112.2511,23.0447 C112.1581,23.0447 112.1421,22.9937 112.0991,22.9187 L111.0481,20.6977 L110.8361,20.6977 L109.6421,20.6977 Z M109.6421,17.8007 L109.6421,20.1887 L110.8361,20.1887 C111.7431,20.1887 112.0741,19.8677 112.0741,19.3667 L112.0741,18.6127 C112.0741,18.1207 111.7431,17.8007 110.8361,17.8007 L109.6421,17.8007 Z" id="Fill-12" fill="#165788"></path>
                    <path d="M114.3516,23.0449 C114.2756,23.0449 114.2506,23.0029 114.2506,22.9179 L114.2506,17.4089 C114.2506,17.3249 114.2836,17.2829 114.3606,17.2829 L116.0716,17.2829 C117.4706,17.2829 117.9106,17.8419 117.9106,18.5209 L117.9106,21.8069 C117.9106,22.4849 117.4706,23.0449 116.0716,23.0449 L114.3516,23.0449 Z M114.8426,17.7999 L114.8426,22.5279 L116.0716,22.5279 C116.9786,22.5279 117.3096,22.2049 117.3096,21.7139 L117.3096,18.6119 C117.3096,18.1209 116.9786,17.7999 116.0716,17.7999 L114.8426,17.7999 Z" id="Fill-14" fill="#165788"></path>
                    <path d="M120.1563,22.9179 C120.1563,23.0029 120.1293,23.0449 120.0363,23.0449 L119.6803,23.0449 C119.5963,23.0449 119.5623,23.0029 119.5623,22.9179 L119.5623,17.4089 C119.5623,17.3249 119.5963,17.2829 119.6803,17.2829 L120.0363,17.2829 C120.1293,17.2829 120.1563,17.3249 120.1563,17.4089 L120.1563,22.9179 Z" id="Fill-16" fill="#165788"></path>
                    <path d="M125.3838,21.875 C125.3838,22.552 124.9928,23.113 123.5948,23.113 C122.1968,23.113 121.8068,22.552 121.8068,21.875 L121.8068,18.452 C121.8068,17.774 122.1968,17.214 123.5948,17.214 C124.9928,17.214 125.3838,17.774 125.3838,18.452 L125.3838,18.884 C125.3838,18.978 125.3498,19.02 125.2648,19.02 L124.9258,19.02 C124.8328,19.02 124.7978,18.978 124.7978,18.884 L124.7978,18.545 C124.7978,18.053 124.5018,17.732 123.6038,17.732 C122.7058,17.732 122.4088,18.053 122.4088,18.545 L122.4088,21.783 C122.4088,22.273 122.7058,22.595 123.6038,22.595 C124.5018,22.595 124.7978,22.273 124.7978,21.783 L124.7978,21.334 C124.7978,21.249 124.8328,21.206 124.9258,21.206 L125.2648,21.206 C125.3498,21.206 125.3838,21.249 125.3838,21.334 L125.3838,21.875 Z" id="Fill-18" fill="#165788"></path>
                    <path d="M99.0186,33.0854 C99.0186,33.1684 98.9926,33.2114 98.8986,33.2114 L98.5436,33.2114 C98.4576,33.2114 98.4246,33.1684 98.4246,33.0854 L98.4246,27.5774 C98.4246,27.4924 98.4576,27.4484 98.5436,27.4484 L98.8986,27.4484 C98.9926,27.4484 99.0186,27.4924 99.0186,27.5774 L99.0186,33.0854 Z" id="Fill-20" fill="#165788"></path>
                    <path d="M104.4155,33.0854 C104.4155,33.1684 104.3895,33.2114 104.2955,33.2114 L103.9735,33.2114 C103.9155,33.2114 103.8815,33.1944 103.8565,33.1524 L101.6095,29.1694 C101.4235,28.8484 101.3315,28.6444 101.3215,28.6194 L101.3215,33.0854 C101.3215,33.1684 101.2885,33.2114 101.2035,33.2114 L100.8815,33.2114 C100.7885,33.2114 100.7545,33.1684 100.7545,33.0854 L100.7545,27.5774 C100.7545,27.4924 100.7885,27.4484 100.8815,27.4484 L101.2035,27.4484 C101.2625,27.4484 101.2885,27.4664 101.3045,27.5004 L103.6015,31.5424 C103.6685,31.6614 103.8565,32.0504 103.8565,32.0504 L103.8565,27.5774 C103.8565,27.4924 103.8895,27.4484 103.9735,27.4484 L104.2955,27.4484 C104.3895,27.4484 104.4155,27.4924 104.4155,27.5774 L104.4155,33.0854 Z" id="Fill-22" fill="#165788"></path>
                    <path d="M107.2871,33.0854 L105.6001,27.5774 C105.5751,27.4924 105.6091,27.4484 105.6931,27.4484 L106.0831,27.4484 C106.1681,27.4484 106.2021,27.4924 106.2281,27.5774 L107.4381,31.5514 C107.5241,31.8384 107.6171,32.3634 107.6351,32.4414 C107.6431,32.3984 107.7271,31.9154 107.8371,31.5674 L109.0581,27.5774 C109.0831,27.4924 109.1171,27.4484 109.2021,27.4484 L109.5581,27.4484 C109.6501,27.4484 109.6851,27.4924 109.6591,27.5774 L107.9651,33.0854 C107.9391,33.1684 107.8971,33.2114 107.8121,33.2114 L107.4471,33.2114 C107.3551,33.2114 107.3121,33.1684 107.2871,33.0854" id="Fill-24" fill="#165788"></path>
                    <path d="M110.9463,33.2119 C110.8693,33.2119 110.8363,33.1689 110.8363,33.0859 L110.8363,27.5769 C110.8363,27.4919 110.8693,27.4489 110.9543,27.4489 L113.8443,27.4489 C113.9283,27.4489 113.9713,27.4839 113.9713,27.5769 L113.9713,27.8399 C113.9713,27.9319 113.9283,27.9669 113.8443,27.9669 L111.4283,27.9669 L111.4283,29.9409 L113.6913,29.9409 C113.7863,29.9409 113.8183,29.9759 113.8183,30.0669 L113.8183,30.3139 C113.8183,30.4049 113.7863,30.4419 113.6913,30.4419 L111.4283,30.4419 L111.4283,32.6949 L113.9463,32.6949 C114.0303,32.6949 114.0723,32.7279 114.0723,32.8149 L114.0723,33.0859 C114.0723,33.1779 114.0303,33.2119 113.9463,33.2119 L110.9463,33.2119 Z" id="Fill-26" fill="#165788"></path>
                    <path d="M117.1485,27.8901 C116.2585,27.8901 115.9785,28.2031 115.9785,28.6951 L115.9785,28.9511 C115.9785,29.3631 116.2585,29.5251 116.4695,29.6101 L118.0625,30.2121 C118.5205,30.3821 118.9435,30.7211 118.9435,31.3141 L118.9435,32.0431 C118.9435,32.7211 118.5035,33.2791 117.1315,33.2791 C115.7585,33.2791 115.3175,32.7211 115.3175,32.0431 L115.3175,31.5761 C115.3175,31.4831 115.3525,31.4481 115.4355,31.4481 L115.7845,31.4481 C115.8685,31.4481 115.9025,31.4831 115.9025,31.5761 L115.9025,31.9661 C115.9025,32.4571 116.2245,32.7711 117.1225,32.7711 C118.0285,32.7711 118.3515,32.4571 118.3515,31.9661 L118.3515,31.4401 C118.3515,30.9991 117.9795,30.8221 117.6485,30.6951 L116.1315,30.1111 C115.7755,29.9751 115.3945,29.6191 115.3945,29.0941 L115.3945,28.6191 C115.3945,27.9411 115.7925,27.3821 117.1395,27.3821 C118.4875,27.3821 118.9025,27.9411 118.9025,28.6191 L118.9025,29.0181 C118.9025,29.1011 118.8685,29.1441 118.7745,29.1441 L118.4275,29.1441 C118.3425,29.1441 118.3095,29.1011 118.3095,29.0181 L118.3095,28.6951 C118.3095,28.2031 118.0285,27.8901 117.1485,27.8901" id="Fill-28" fill="#165788"></path>
                    <path d="M123.4776,27.4487 C123.5606,27.4487 123.6036,27.4837 123.6036,27.5767 L123.6036,27.8397 C123.6036,27.9317 123.5606,27.9667 123.4776,27.9667 L122.0186,27.9667 L122.0186,33.0857 C122.0186,33.1687 121.9856,33.2117 121.9006,33.2117 L121.5366,33.2117 C121.4426,33.2117 121.4096,33.1687 121.4096,33.0857 L121.4096,27.9667 L119.9526,27.9667 C119.8596,27.9667 119.8246,27.9317 119.8246,27.8397 L119.8246,27.5767 C119.8246,27.4837 119.8596,27.4487 119.9526,27.4487 L123.4776,27.4487 Z" id="Fill-30" fill="#165788"></path>
                    <path d="M129.3648,33.0854 C129.3648,33.1684 129.3318,33.2114 129.2378,33.2114 L128.8988,33.2114 C128.8048,33.2114 128.7728,33.1684 128.7728,33.0854 L128.7728,28.7114 C128.7378,28.8564 128.6618,29.1024 128.6018,29.2384 L127.3738,32.2044 C127.3408,32.2894 127.2888,32.3314 127.2048,32.3314 L126.8908,32.3314 C126.8058,32.3314 126.7638,32.2894 126.7308,32.2044 L125.4508,29.1604 C125.4168,29.0844 125.3568,28.9074 125.3078,28.7194 L125.3078,33.0854 C125.3078,33.1684 125.2718,33.2114 125.1878,33.2114 L124.8658,33.2114 C124.7728,33.2114 124.7388,33.1684 124.7388,33.0854 L124.7388,27.5774 C124.7388,27.4924 124.7728,27.4484 124.8658,27.4484 L125.1878,27.4484 C125.2468,27.4484 125.2818,27.4764 125.2968,27.5174 L126.8998,31.2634 C126.9838,31.4654 127.0438,31.6614 127.0518,31.6934 C127.0598,31.6694 127.1438,31.4314 127.2128,31.2714 L128.7808,27.5174 C128.7978,27.4664 128.8398,27.4484 128.8988,27.4484 L129.2378,27.4484 C129.3318,27.4484 129.3648,27.4924 129.3648,27.5774 L129.3648,33.0854 Z" id="Fill-32" fill="#165788"></path>
                    <path d="M131.2114,33.2119 C131.1334,33.2119 131.1014,33.1689 131.1014,33.0859 L131.1014,27.5769 C131.1014,27.4919 131.1334,27.4489 131.2194,27.4489 L134.1094,27.4489 C134.1934,27.4489 134.2354,27.4839 134.2354,27.5769 L134.2354,27.8399 C134.2354,27.9319 134.1934,27.9669 134.1094,27.9669 L131.6944,27.9669 L131.6944,29.9409 L133.9564,29.9409 C134.0494,29.9409 134.0844,29.9759 134.0844,30.0669 L134.0844,30.3139 C134.0844,30.4049 134.0494,30.4419 133.9564,30.4419 L131.6944,30.4419 L131.6944,32.6949 L134.2114,32.6949 C134.2964,32.6949 134.3374,32.7279 134.3374,32.8149 L134.3374,33.0859 C134.3374,33.1779 134.2964,33.2119 134.2114,33.2119 L131.2114,33.2119 Z" id="Fill-34" fill="#165788"></path>
                    <path d="M139.4038,33.0854 C139.4038,33.1684 139.3798,33.2114 139.2858,33.2114 L138.9638,33.2114 C138.9038,33.2114 138.8708,33.1944 138.8448,33.1524 L136.5998,29.1694 C136.4128,28.8484 136.3198,28.6444 136.3108,28.6194 L136.3108,33.0854 C136.3108,33.1684 136.2778,33.2114 136.1928,33.2114 L135.8708,33.2114 C135.7778,33.2114 135.7428,33.1684 135.7428,33.0854 L135.7428,27.5774 C135.7428,27.4924 135.7778,27.4484 135.8708,27.4484 L136.1928,27.4484 C136.2528,27.4484 136.2778,27.4664 136.2938,27.5004 L138.5918,31.5424 C138.6578,31.6614 138.8448,32.0504 138.8448,32.0504 L138.8448,27.5774 C138.8448,27.4924 138.8798,27.4484 138.9638,27.4484 L139.2858,27.4484 C139.3798,27.4484 139.4038,27.4924 139.4038,27.5774 L139.4038,33.0854 Z" id="Fill-36" fill="#165788"></path>
                    <path d="M144.1904,27.4487 C144.2744,27.4487 144.3184,27.4837 144.3184,27.5767 L144.3184,27.8397 C144.3184,27.9317 144.2744,27.9667 144.1904,27.9667 L142.7324,27.9667 L142.7324,33.0857 C142.7324,33.1687 142.6994,33.2117 142.6134,33.2117 L142.2504,33.2117 C142.1574,33.2117 142.1234,33.1687 142.1234,33.0857 L142.1234,27.9667 L140.6664,27.9667 C140.5734,27.9667 140.5384,27.9317 140.5384,27.8397 L140.5384,27.5767 C140.5384,27.4837 140.5734,27.4487 140.6664,27.4487 L144.1904,27.4487 Z" id="Fill-38" fill="#165788"></path>
                    <path d="M98.544,43.3779 C98.458,43.3779 98.425,43.3359 98.425,43.2519 L98.425,37.7419 C98.425,37.6589 98.458,37.6169 98.544,37.6169 L100.001,37.6169 C101.4,37.6169 101.831,38.1329 101.831,38.8019 L101.831,39.3609 C101.831,39.8189 101.628,40.1759 101.068,40.3619 C101.755,40.5139 102.068,40.8869 102.068,41.4039 L102.068,42.1569 C102.068,42.8359 101.637,43.3779 100.23,43.3779 L98.544,43.3779 Z M99.019,38.1159 L99.019,40.1759 L100.086,40.1759 C100.908,40.1759 101.238,39.8439 101.238,39.3529 L101.238,38.8969 C101.238,38.3979 100.899,38.1159 100.001,38.1159 L99.019,38.1159 Z M99.019,40.6499 L99.019,42.8789 L100.23,42.8789 C101.136,42.8789 101.466,42.5559 101.466,42.0649 L101.466,41.4369 C101.466,40.9719 101.136,40.6499 100.23,40.6499 L99.019,40.6499 Z" id="Fill-40" fill="#165788"></path>
                    <path d="M105.3213,37.7422 L107.0173,43.2502 C107.0423,43.3362 107.0083,43.3782 106.9143,43.3782 L106.5503,43.3782 C106.4653,43.3782 106.4233,43.3362 106.3973,43.2502 L105.9313,41.7422 L103.9913,41.7422 L103.5333,43.2502 C103.5083,43.3362 103.4733,43.3782 103.3893,43.3782 L103.0503,43.3782 C102.9663,43.3782 102.9323,43.3362 102.9573,43.2502 L104.6433,37.7422 C104.6683,37.6592 104.7113,37.6172 104.8043,37.6172 L105.1693,37.6172 C105.2533,37.6172 105.2953,37.6592 105.3213,37.7422 L105.3213,37.7422 Z M105.1853,39.2772 C105.1013,39.0062 104.9903,38.3462 104.9733,38.2522 C104.9653,38.3102 104.8643,38.9382 104.7613,39.2582 L104.1353,41.2602 L105.8043,41.2602 L105.1853,39.2772 Z" id="Fill-42" fill="#165788"></path>
                    <path d="M111.8457,43.2505 C111.8457,43.3355 111.8197,43.3775 111.7257,43.3775 L111.4037,43.3775 C111.3437,43.3775 111.3107,43.3605 111.2847,43.3185 L109.0397,39.3365 C108.8527,39.0135 108.7607,38.8115 108.7527,38.7855 L108.7527,43.2505 C108.7527,43.3355 108.7177,43.3775 108.6327,43.3775 L108.3117,43.3775 C108.2187,43.3775 108.1837,43.3355 108.1837,43.2505 L108.1837,37.7425 C108.1837,37.6585 108.2187,37.6155 108.3117,37.6155 L108.6327,37.6155 C108.6927,37.6155 108.7177,37.6315 108.7347,37.6665 L111.0317,41.7085 C111.0987,41.8265 111.2847,42.2165 111.2847,42.2165 L111.2847,37.7425 C111.2847,37.6585 111.3197,37.6155 111.4037,37.6155 L111.7257,37.6155 C111.8197,37.6155 111.8457,37.6585 111.8457,37.7425 L111.8457,43.2505 Z" id="Fill-44" fill="#165788"></path>
                    <path d="M117.3091,43.2505 C117.3611,43.3095 117.3271,43.3775 117.2501,43.3775 L116.7751,43.3775 C116.6821,43.3775 116.6311,43.3185 116.5801,43.2505 L114.4551,40.7265 L114.1911,40.7265 L114.1911,43.2505 C114.1911,43.3355 114.1651,43.3775 114.0721,43.3775 L113.7171,43.3775 C113.6231,43.3775 113.5901,43.3355 113.5901,43.2505 L113.5901,37.7425 C113.5901,37.6585 113.6231,37.6155 113.7171,37.6155 L114.0721,37.6155 C114.1651,37.6155 114.1911,37.6585 114.1911,37.7425 L114.1911,40.2685 L114.4551,40.2685 L116.4121,37.7345 C116.4631,37.6665 116.5291,37.6155 116.6221,37.6155 L117.0131,37.6155 C117.0981,37.6155 117.1311,37.6665 117.0721,37.7425 L114.9621,40.4545 L117.3091,43.2505 Z" id="Fill-46" fill="#165788"></path>
                    <path d="M175.9287,17.2827 C176.0727,17.2827 176.1407,17.3337 176.1407,17.4857 L176.1407,18.0197 C176.1407,18.1717 176.0727,18.2327 175.9287,18.2327 L173.7677,18.2327 L173.7677,19.6027 L175.7847,19.6027 C175.9367,19.6027 175.9957,19.6557 175.9957,19.8087 L175.9957,20.3507 C175.9957,20.5037 175.9367,20.5617 175.7847,20.5617 L173.7677,20.5617 L173.7677,22.8247 C173.7677,22.9777 173.7177,23.0447 173.5637,23.0447 L172.8267,23.0447 C172.6737,23.0447 172.6237,22.9777 172.6237,22.8247 L172.6237,17.5037 C172.6237,17.3497 172.6737,17.2827 172.8267,17.2827 L175.9287,17.2827 Z" id="Fill-48" fill="#165788"></path>
                    <path d="M178.3677,22.8247 C178.3677,22.9777 178.3167,23.0447 178.1637,23.0447 L177.4277,23.0447 C177.2737,23.0447 177.2237,22.9777 177.2237,22.8247 L177.2237,17.5037 C177.2237,17.3517 177.2737,17.2827 177.4277,17.2827 L178.1637,17.2827 C178.3167,17.2827 178.3677,17.3517 178.3677,17.5037 L178.3677,22.8247 Z" id="Fill-50" fill="#165788"></path>
                    <path d="M183.875,22.8325 C183.875,22.9775 183.824,23.0445 183.671,23.0445 L183.002,23.0445 C182.892,23.0445 182.849,23.0205 182.806,22.9425 L181.172,20.1385 C180.943,19.7575 180.841,19.4785 180.833,19.4505 L180.833,22.8325 C180.833,22.9775 180.783,23.0445 180.629,23.0445 L179.959,23.0445 C179.808,23.0445 179.756,22.9775 179.756,22.8325 L179.756,17.4945 C179.756,17.3515 179.808,17.2825 179.959,17.2825 L180.629,17.2825 C180.723,17.2825 180.773,17.3085 180.807,17.3675 L182.511,20.2905 C182.655,20.5365 182.798,20.8845 182.798,20.8845 L182.798,17.4945 C182.798,17.3515 182.849,17.2825 183.002,17.2825 L183.671,17.2825 C183.824,17.2825 183.875,17.3515 183.875,17.4945 L183.875,22.8325 Z" id="Fill-52" fill="#165788"></path>
                    <path d="M187.3814,17.2827 C187.5334,17.2827 187.6114,17.3497 187.6534,17.4937 L189.2284,22.8327 C189.2724,22.9697 189.2204,23.0447 189.0764,23.0447 L188.3144,23.0447 C188.1704,23.0447 188.1114,22.9697 188.0684,22.8327 L187.7724,21.7997 L186.1954,21.7997 L185.8994,22.8327 C185.8564,22.9697 185.7974,23.0447 185.6454,23.0447 L184.9594,23.0447 C184.8064,23.0447 184.7544,22.9697 184.7984,22.8327 L186.3814,17.4937 C186.4234,17.3497 186.4924,17.2827 186.6444,17.2827 L187.3814,17.2827 Z M187.2374,19.9527 C187.1284,19.6027 187.0004,18.5187 186.9924,18.4097 C186.9754,18.5187 186.8314,19.5877 186.7294,19.9437 L186.4424,20.8927 L187.5164,20.8927 L187.2374,19.9527 Z" id="Fill-54" fill="#165788"></path>
                    <path d="M194.2705,22.8325 C194.2705,22.9775 194.2195,23.0445 194.0675,23.0445 L193.3975,23.0445 C193.2875,23.0445 193.2445,23.0205 193.2045,22.9425 L191.5665,20.1385 C191.3395,19.7575 191.2365,19.4785 191.2285,19.4505 L191.2285,22.8325 C191.2285,22.9775 191.1775,23.0445 191.0245,23.0445 L190.3555,23.0445 C190.2025,23.0445 190.1525,22.9775 190.1525,22.8325 L190.1525,17.4945 C190.1525,17.3515 190.2025,17.2825 190.3555,17.2825 L191.0245,17.2825 C191.1185,17.2825 191.1685,17.3085 191.2035,17.3675 L192.9065,20.2905 C193.0495,20.5365 193.1945,20.8845 193.1945,20.8845 L193.1945,17.4945 C193.1945,17.3515 193.2445,17.2825 193.3975,17.2825 L194.0675,17.2825 C194.2195,17.2825 194.2705,17.3515 194.2705,17.4945 L194.2705,22.8325 Z" id="Fill-56" fill="#165788"></path>
                    <path d="M199.5484,21.7319 C199.5484,22.4439 199.0904,23.1129 197.5574,23.1129 C196.0234,23.1129 195.5654,22.4439 195.5654,21.7319 L195.5654,18.5959 C195.5654,17.8849 196.0234,17.2139 197.5574,17.2139 C199.0904,17.2139 199.5484,17.8849 199.5484,18.5959 L199.5484,19.0019 C199.5484,19.1549 199.4974,19.2159 199.3544,19.2159 L198.6504,19.2159 C198.4964,19.2159 198.4374,19.1549 198.4374,19.0019 L198.4374,18.7989 C198.4374,18.3759 198.1404,18.1639 197.5734,18.1639 C197.0064,18.1639 196.7174,18.3759 196.7174,18.7989 L196.7174,21.5279 C196.7174,21.9519 197.0064,22.1629 197.5734,22.1629 C198.1404,22.1629 198.4374,21.9519 198.4374,21.5279 L198.4374,21.2059 C198.4374,21.0539 198.4964,20.9939 198.6504,20.9939 L199.3544,20.9939 C199.4974,20.9939 199.5484,21.0539 199.5484,21.2059 L199.5484,21.7319 Z" id="Fill-58" fill="#165788"></path>
                    <path d="M201.8355,22.8247 C201.8355,22.9777 201.7835,23.0447 201.6315,23.0447 L200.8945,23.0447 C200.7425,23.0447 200.6915,22.9777 200.6915,22.8247 L200.6915,17.5037 C200.6915,17.3517 200.7425,17.2827 200.8945,17.2827 L201.6315,17.2827 C201.7835,17.2827 201.8355,17.3517 201.8355,17.5037 L201.8355,22.8247 Z" id="Fill-60" fill="#165788"></path>
                    <path d="M207.3433,22.8325 C207.3433,22.9775 207.2913,23.0445 207.1393,23.0445 L206.4703,23.0445 C206.3593,23.0445 206.3193,23.0205 206.2763,22.9425 L204.6393,20.1385 C204.4103,19.7575 204.3093,19.4785 204.3013,19.4505 L204.3013,22.8325 C204.3013,22.9775 204.2503,23.0445 204.0963,23.0445 L203.4283,23.0445 C203.2743,23.0445 203.2253,22.9775 203.2253,22.8325 L203.2253,17.4945 C203.2253,17.3515 203.2743,17.2825 203.4283,17.2825 L204.0963,17.2825 C204.1893,17.2825 204.2403,17.3085 204.2753,17.3675 L205.9783,20.2905 C206.1223,20.5365 206.2663,20.8845 206.2663,20.8845 L206.2663,17.4945 C206.2663,17.3515 206.3193,17.2825 206.4703,17.2825 L207.1393,17.2825 C207.2913,17.2825 207.3433,17.3515 207.3433,17.4945 L207.3433,22.8325 Z" id="Fill-62" fill="#165788"></path>
                    <path d="M212.4009,20.0205 C212.5449,20.0205 212.6119,20.0705 212.6119,20.2235 L212.6119,21.7315 C212.6119,22.4435 212.1529,23.1135 210.6199,23.1135 C209.0869,23.1135 208.6289,22.4435 208.6289,21.7315 L208.6289,18.5965 C208.6289,17.8855 209.0869,17.2145 210.6199,17.2145 C212.1529,17.2145 212.6119,17.8855 212.6119,18.5965 L212.6119,18.9355 C212.6119,19.0805 212.5619,19.1465 212.4169,19.1465 L211.7139,19.1465 C211.5609,19.1465 211.5029,19.0805 211.5029,18.9355 L211.5029,18.7995 C211.5029,18.3755 211.2059,18.1645 210.6379,18.1645 C210.0699,18.1645 209.7819,18.3755 209.7819,18.7995 L209.7819,21.5285 C209.7819,21.9515 210.0699,22.1635 210.6379,22.1635 C211.2059,22.1635 211.5029,21.9515 211.5029,21.5365 L211.5029,20.9695 L210.6709,20.9695 C210.5199,20.9695 210.4509,20.9185 210.4509,20.7665 L210.4509,20.2235 C210.4509,20.0705 210.5199,20.0205 210.6709,20.0205 L212.4009,20.0205 Z" id="Fill-64" fill="#165788"></path>
                    <path d="M175.8941,27.4487 C176.0391,27.4487 176.1061,27.4997 176.1061,27.6527 L176.1061,28.1857 C176.1061,28.3387 176.0391,28.3997 175.8941,28.3997 L174.6911,28.3997 L174.6911,32.9917 C174.6911,33.1437 174.6411,33.2117 174.4881,33.2117 L173.7511,33.2117 C173.5981,33.2117 173.5381,33.1437 173.5381,32.9917 L173.5381,28.3997 L172.3351,28.3997 C172.1831,28.3997 172.1241,28.3387 172.1241,28.1857 L172.1241,27.6527 C172.1241,27.4997 172.1831,27.4487 172.3351,27.4487 L175.8941,27.4487 Z" id="Fill-66" fill="#165788"></path>
                    <path d="M178.148,29.7797 L179.978,29.7797 L179.978,27.6707 C179.978,27.5177 180.029,27.4487 180.181,27.4487 L180.919,27.4487 C181.07,27.4487 181.122,27.5177 181.122,27.6707 L181.122,32.9917 C181.122,33.1437 181.07,33.2117 180.919,33.2117 L180.181,33.2117 C180.029,33.2117 179.978,33.1437 179.978,32.9917 L179.978,30.7297 L178.148,30.7297 L178.148,32.9917 C178.148,33.1437 178.097,33.2117 177.944,33.2117 L177.208,33.2117 C177.054,33.2117 177.003,33.1437 177.003,32.9917 L177.003,27.6707 C177.003,27.5177 177.054,27.4487 177.208,27.4487 L177.944,27.4487 C178.097,27.4487 178.148,27.5177 178.148,27.6707 L178.148,29.7797 Z" id="Fill-68" fill="#165788"></path>
                    <path d="M182.7222,33.2119 C182.5702,33.2119 182.5182,33.1439 182.5182,32.9919 L182.5182,27.6699 C182.5182,27.5179 182.5702,27.4489 182.7222,27.4489 L185.6202,27.4489 C185.7642,27.4489 185.8332,27.4999 185.8332,27.6519 L185.8332,28.1859 C185.8332,28.3389 185.7642,28.3999 185.6202,28.3999 L183.6632,28.3999 L183.6632,29.7709 L185.4762,29.7709 C185.6282,29.7709 185.6972,29.8219 185.6972,29.9759 L185.6972,30.4829 C185.6972,30.6269 185.6282,30.6859 185.4762,30.6859 L183.6632,30.6859 L183.6632,32.2619 L185.7052,32.2619 C185.8582,32.2619 185.9162,32.3129 185.9162,32.4669 L185.9162,32.9989 C185.9162,33.1519 185.8582,33.2119 185.7052,33.2119 L182.7222,33.2119 Z" id="Fill-70" fill="#165788"></path>
                    <path d="M175.9287,37.6152 C176.0727,37.6152 176.1407,37.6682 176.1407,37.8192 L176.1407,38.3532 C176.1407,38.5052 176.0727,38.5642 175.9287,38.5642 L173.7677,38.5642 L173.7677,39.9382 L175.7847,39.9382 C175.9367,39.9382 175.9957,39.9892 175.9957,40.1412 L175.9957,40.6822 C175.9957,40.8362 175.9367,40.8942 175.7847,40.8942 L173.7677,40.8942 L173.7677,43.1572 C173.7677,43.3092 173.7177,43.3782 173.5637,43.3782 L172.8267,43.3782 C172.6737,43.3782 172.6237,43.3092 172.6237,43.1572 L172.6237,37.8362 C172.6237,37.6842 172.6737,37.6152 172.8267,37.6152 L175.9287,37.6152 Z" id="Fill-72" fill="#165788"></path>
                    <path d="M178.3247,41.8603 C178.3247,42.2853 178.6647,42.4973 179.2317,42.4973 C179.7997,42.4973 180.1557,42.2853 180.1557,41.8603 L180.1557,37.8363 C180.1557,37.6843 180.2057,37.6153 180.3597,37.6153 L181.0957,37.6153 C181.2487,37.6153 181.2907,37.6843 181.2907,37.8363 L181.2907,42.0643 C181.2907,42.7773 180.7657,43.4453 179.2317,43.4453 C177.6997,43.4453 177.1727,42.7773 177.1727,42.0643 L177.1727,37.8363 C177.1727,37.6843 177.2317,37.6153 177.3857,37.6153 L178.1217,37.6153 C178.2667,37.6153 178.3247,37.6843 178.3247,37.8363 L178.3247,41.8603 Z" id="Fill-74" fill="#165788"></path>
                    <path d="M185.916,37.6152 C186.06,37.6152 186.128,37.6682 186.128,37.8192 L186.128,38.3532 C186.128,38.5052 186.06,38.5642 185.916,38.5642 L184.714,38.5642 L184.714,43.1572 C184.714,43.3092 184.663,43.3782 184.509,43.3782 L183.772,43.3782 C183.62,43.3782 183.56,43.3092 183.56,43.1572 L183.56,38.5642 L182.358,38.5642 C182.205,38.5642 182.146,38.5052 182.146,38.3532 L182.146,37.8192 C182.146,37.6682 182.205,37.6152 182.358,37.6152 L185.916,37.6152 Z" id="Fill-76" fill="#165788"></path>
                    <path d="M188.1279,41.8603 C188.1279,42.2853 188.4669,42.4973 189.0339,42.4973 C189.6019,42.4973 189.9579,42.2853 189.9579,41.8603 L189.9579,37.8363 C189.9579,37.6843 190.0089,37.6153 190.1609,37.6153 L190.8989,37.6153 C191.0509,37.6153 191.0939,37.6843 191.0939,37.8363 L191.0939,42.0643 C191.0939,42.7773 190.5679,43.4453 189.0339,43.4453 C187.5009,43.4453 186.9759,42.7773 186.9759,42.0643 L186.9759,37.8363 C186.9759,37.6843 187.0349,37.6153 187.1869,37.6153 L187.9239,37.6153 C188.0689,37.6153 188.1279,37.6843 188.1279,37.8363 L188.1279,41.8603 Z" id="Fill-78" fill="#165788"></path>
                    <path d="M193.5918,41.1836 L193.5918,43.1576 C193.5918,43.3086 193.5418,43.3776 193.3868,43.3776 L192.6508,43.3776 C192.4988,43.3776 192.4468,43.3086 192.4468,43.1576 L192.4468,37.8356 C192.4468,37.6836 192.4988,37.6176 192.6508,37.6176 L194.4318,37.6176 C195.9638,37.6176 196.4808,38.2856 196.4808,38.9976 L196.4808,39.8036 C196.4808,40.3026 196.2258,40.7766 195.5488,41.0226 L196.4638,43.1576 C196.5238,43.2926 196.4228,43.3776 196.2688,43.3776 L195.5248,43.3776 C195.4048,43.3776 195.3708,43.2926 195.3118,43.1576 L194.4818,41.1836 L194.4318,41.1836 L193.5918,41.1836 Z M193.5918,38.5656 L193.5918,40.2346 L194.4318,40.2346 C194.9978,40.2346 195.3458,40.0236 195.3458,39.5986 L195.3458,39.2006 C195.3458,38.7766 194.9978,38.5656 194.4318,38.5656 L193.5918,38.5656 Z" id="Fill-80" fill="#165788"></path>
                    <path d="M197.9473,43.3779 C197.7943,43.3779 197.7423,43.3089 197.7423,43.1569 L197.7423,37.8359 C197.7423,37.6839 197.7943,37.6169 197.9473,37.6169 L200.8443,37.6169 C200.9893,37.6169 201.0553,37.6659 201.0553,37.8189 L201.0553,38.3529 C201.0553,38.5049 200.9893,38.5659 200.8443,38.5659 L198.8863,38.5659 L198.8863,39.9389 L200.6993,39.9389 C200.8513,39.9389 200.9203,39.9889 200.9203,40.1409 L200.9203,40.6499 C200.9203,40.7929 200.8513,40.8539 200.6993,40.8539 L198.8863,40.8539 L198.8863,42.4289 L200.9283,42.4289 C201.0813,42.4289 201.1403,42.4809 201.1403,42.6329 L201.1403,43.1659 C201.1403,43.3199 201.0813,43.3779 200.9283,43.3779 L197.9473,43.3779 Z" id="Fill-82" fill="#165788"></path>
                    <mask id="mask-2" fill="white">
                        <use xlink:href="#path-1"></use>
                    </mask>
                    <g id="Clip-85"></g>
                    <polygon id="Fill-84" fill="#165788" mask="url(#mask-2)" points="87.87 50 88.998 50 88.998 13.534 87.87 13.534"></polygon>
                    <polygon id="Fill-86" fill="#165788" mask="url(#mask-2)" points="162.033 50 163.161 50 163.161 13.534 162.033 13.534"></polygon>
                </g>
            </g>
        </g>
    </g>
</svg>