<svg id="Layer_1" data-name="Layer 1" xmlns="http://www.w3.org/2000/svg" viewBox="0 0 217.69 57.95"><defs><style>.cls-1{fill:#181716;}.cls-2{fill:#3a86a3;}.cls-3{fill:#fff;}.cls-4{fill:#9acaeb;opacity:0.67;}</style></defs><title>Logo_BM_liggende_RGB</title><path class="cls-1" d="M133.6,83.64H132a.84.84,0,0,1-.95-.58l-3.44-7.8c0-.09-.09-.12-.14-.12s-.07,0-.07.12v8a.31.31,0,0,1-.3.33h-1.32a.32.32,0,0,1-.31-.33V72.38a.63.63,0,0,1,.62-.64h1.68c.32,0,.49.1.68.51l3.61,8.23c0,.08.08.13.13.13s.07,0,.07-.14V72.05a.3.3,0,0,1,.3-.31h1.33a.3.3,0,0,1,.3.31V83A.63.63,0,0,1,133.6,83.64Z" transform="translate(-58.18 -58.11)"/><path class="cls-1" d="M142.56,83.64h-1.32a.32.32,0,0,1-.31-.33v-.25a4.08,4.08,0,0,1-2.19.7,2.4,2.4,0,0,1-2.68-2.67V81c0-1.83,1.09-2.77,3.78-2.77h1v-.71c0-1-.45-1.29-1.36-1.29a25.2,25.2,0,0,0-2.53.12h-.08c-.15,0-.28,0-.28-.27v-1a.33.33,0,0,1,.3-.34,12.9,12.9,0,0,1,2.59-.25c2.2,0,3.41,1,3.41,3v5.76A.32.32,0,0,1,142.56,83.64Zm-1.74-4h-1c-1.41,0-1.72.46-1.72,1.36v.06c0,.78.34,1,1.12,1a3.26,3.26,0,0,0,1.58-.45Z" transform="translate(-58.18 -58.11)"/><path class="cls-1" d="M147.72,83.76a12.54,12.54,0,0,1-2.78-.32.36.36,0,0,1-.29-.36v-1a.26.26,0,0,1,.26-.25H145c.74.09,2.14.17,2.6.17,1,0,1.1-.33,1.1-.76s-.19-.5-.68-.82l-2.13-1.34a2.68,2.68,0,0,1-1.3-2.21c0-1.6,1-2.4,3-2.4a11,11,0,0,1,2.76.32.34.34,0,0,1,.28.36v.93c0,.19-.1.31-.25.31h-.06a20.8,20.8,0,0,0-2.56-.2c-.75,0-1.07.18-1.07.68,0,.25.23.41.62.65l2,1.28a2.6,2.6,0,0,1,1.49,2.44C150.76,82.66,149.75,83.76,147.72,83.76Z" transform="translate(-58.18 -58.11)"/><path class="cls-1" d="M152.26,86.84a5.26,5.26,0,0,1-1-.1c-.2,0-.3-.13-.3-.29v-1c0-.16.13-.25.33-.25h.7c.49,0,.54-.21.54-.85V74.93a.31.31,0,0,1,.31-.32h1.43a.31.31,0,0,1,.31.32v9.38C154.56,86.26,153.7,86.84,152.26,86.84Zm2-13.43h-1.49a.32.32,0,0,1-.31-.32V71.68a.31.31,0,0,1,.31-.32h1.49a.32.32,0,0,1,.32.32v1.41A.33.33,0,0,1,154.28,73.41Z" transform="translate(-58.18 -58.11)"/><path class="cls-1" d="M160.06,83.76c-2.43,0-3.7-1.69-3.7-4v-1.3c0-2.29,1.27-4,3.7-4s3.71,1.69,3.71,4v1.3C163.77,82.07,162.49,83.76,160.06,83.76Zm1.66-5.28c0-1.31-.57-2.16-1.66-2.16s-1.66.85-1.66,2.16v1.3c0,1.31.58,2.16,1.66,2.16s1.66-.85,1.66-2.16Z" transform="translate(-58.18 -58.11)"/><path class="cls-1" d="M172.37,83.64h-1.43a.34.34,0,0,1-.31-.34V78.08c0-1.39-.12-1.79-1.31-1.79a3.92,3.92,0,0,0-1.76.57V83.3a.34.34,0,0,1-.31.34h-1.42a.34.34,0,0,1-.31-.34V74.93a.31.31,0,0,1,.31-.32h1.35a.31.31,0,0,1,.31.32v.33A3.92,3.92,0,0,1,170,74.5c2.23,0,2.68,1.55,2.68,3.58V83.3A.34.34,0,0,1,172.37,83.64Z" transform="translate(-58.18 -58.11)"/><path class="cls-1" d="M180.87,83.64h-1.32a.32.32,0,0,1-.31-.33v-.25a4.08,4.08,0,0,1-2.19.7,2.4,2.4,0,0,1-2.68-2.67V81c0-1.83,1.09-2.77,3.78-2.77h1v-.71c0-1-.45-1.29-1.36-1.29a25.2,25.2,0,0,0-2.53.12h-.08c-.15,0-.28,0-.28-.27v-1a.33.33,0,0,1,.3-.34,12.9,12.9,0,0,1,2.59-.25c2.2,0,3.41,1,3.41,3v5.76A.32.32,0,0,1,180.87,83.64Zm-1.74-4h-1c-1.41,0-1.72.46-1.72,1.36v.06c0,.78.34,1,1.12,1a3.26,3.26,0,0,0,1.58-.45Z" transform="translate(-58.18 -58.11)"/><path class="cls-1" d="M185,83.64h-1.44a.34.34,0,0,1-.31-.34V71.77a.32.32,0,0,1,.31-.32H185a.31.31,0,0,1,.3.32V83.3A.33.33,0,0,1,185,83.64Z" transform="translate(-58.18 -58.11)"/><path class="cls-1" d="M192,83.65a5.61,5.61,0,0,1-1.06.11c-1.75,0-2.46-.4-2.46-2.54v-5L187,76a.34.34,0,0,1-.31-.32v-.72a.31.31,0,0,1,.31-.32h1.46V73.29a.35.35,0,0,1,.31-.32l1.44-.25h.06a.23.23,0,0,1,.25.24v1.65h1.4a.31.31,0,0,1,.31.32v.94a.31.31,0,0,1-.31.32h-1.4v5c0,.8.05.89.61.89H192c.2,0,.32.08.32.24v1C192.29,83.52,192.2,83.62,192,83.65Z" transform="translate(-58.18 -58.11)"/><path class="cls-1" d="M204.39,83.64h-1.9a.63.63,0,0,1-.44-.33l-2.44-3.64V83.3a.34.34,0,0,1-.31.34h-1.43a.34.34,0,0,1-.31-.34V71.77a.32.32,0,0,1,.31-.32h1.43a.32.32,0,0,1,.31.32v6.68l2.65-3.65a.49.49,0,0,1,.36-.19h1.73c.16,0,.24.06.24.17a.29.29,0,0,1-.06.16l-3.12,4,3.15,4.41a.22.22,0,0,1,0,.13A.21.21,0,0,1,204.39,83.64Z" transform="translate(-58.18 -58.11)"/><path class="cls-1" d="M207.91,83.64h-1.45a.34.34,0,0,1-.31-.34V71.77a.32.32,0,0,1,.31-.32h1.45a.3.3,0,0,1,.29.32V83.3A.32.32,0,0,1,207.91,83.64Z" transform="translate(-58.18 -58.11)"/><path class="cls-1" d="M216.46,83.64h-1.31a.32.32,0,0,1-.31-.33v-.25a4.13,4.13,0,0,1-2.19.7A2.39,2.39,0,0,1,210,81.09V81c0-1.83,1.08-2.77,3.78-2.77h1v-.71c0-1-.45-1.29-1.37-1.29a25.14,25.14,0,0,0-2.52.12h-.08c-.16,0-.28,0-.28-.27v-1a.33.33,0,0,1,.29-.34,12.9,12.9,0,0,1,2.59-.25c2.2,0,3.41,1,3.41,3v5.76A.32.32,0,0,1,216.46,83.64Zm-1.73-4h-1c-1.41,0-1.72.46-1.72,1.36v.06c0,.78.34,1,1.12,1a3.29,3.29,0,0,0,1.58-.45Z" transform="translate(-58.18 -58.11)"/><path class="cls-1" d="M226.15,76.06l-.51.21a2.07,2.07,0,0,1,.39,1.28v.12c0,2-1.33,2.91-3.68,2.91a4.62,4.62,0,0,1-1.68-.27.5.5,0,0,0-.27.41c0,.32.17.45.53.53l1.83.45c2.11.51,3.47.85,3.47,2.56v.11c0,1.63-1.16,2.52-3.8,2.52s-3.84-1-3.84-2.66v-.15a2.44,2.44,0,0,1,.79-1.76,1.84,1.84,0,0,1-.7-1.47v0a1.57,1.57,0,0,1,.62-1.29,2.53,2.53,0,0,1-.63-1.87v-.12c0-1.6,1-2.94,3.68-2.94H226a.42.42,0,0,1,.42.43v.67C226.4,76,226.34,76,226.15,76.06Zm-2,8.2c0-.35-.2-.56-1.83-1L221,83a1.64,1.64,0,0,0-.38,1.12v.15c0,.65.38,1,1.84,1s1.75-.33,1.75-.91ZM224,77.59c0-.77-.32-1.37-1.66-1.37s-1.67.61-1.67,1.37v.12c0,.6.23,1.27,1.67,1.27,1.29,0,1.66-.47,1.66-1.27Z" transform="translate(-58.18 -58.11)"/><path class="cls-1" d="M234.68,79.86h-5.05v0a1.78,1.78,0,0,0,1.86,2c1.13,0,2.2-.1,2.85-.16h0a.24.24,0,0,1,.27.24v1.06c0,.25,0,.36-.32.41a13.51,13.51,0,0,1-3,.27c-1.55,0-3.75-.86-3.75-4V78.56c0-2.5,1.35-4.06,3.72-4.06S235,76.18,235,78.56v.9C235,79.71,234.9,79.86,234.68,79.86Zm-1.75-1.57c0-1.25-.67-2-1.63-2s-1.66.7-1.66,2v.06h3.29Z" transform="translate(-58.18 -58.11)"/><path class="cls-1" d="M240.18,83.76c-2.43,0-3.7-1.69-3.7-4v-1.3c0-2.29,1.27-4,3.7-4s3.71,1.69,3.71,4v1.3C243.89,82.07,242.62,83.76,240.18,83.76Zm1.66-5.28c0-1.31-.57-2.16-1.66-2.16s-1.66.85-1.66,2.16v1.3c0,1.31.58,2.16,1.66,2.16s1.66-.85,1.66-2.16Z" transform="translate(-58.18 -58.11)"/><path class="cls-1" d="M249.83,76.29a4.29,4.29,0,0,0-2.14.57V83.3a.34.34,0,0,1-.31.34H246a.34.34,0,0,1-.31-.34V74.93a.31.31,0,0,1,.31-.32h1.35a.31.31,0,0,1,.31.32v.33a3.58,3.58,0,0,1,2.22-.76.31.31,0,0,1,.31.32V76A.32.32,0,0,1,249.83,76.29Z" transform="translate(-58.18 -58.11)"/><path class="cls-1" d="M258.52,76.06l-.51.21a2.07,2.07,0,0,1,.39,1.28v.12c0,2-1.33,2.91-3.67,2.91a4.73,4.73,0,0,1-1.69-.27.5.5,0,0,0-.27.41c0,.32.17.45.53.53l1.83.45c2.11.51,3.47.85,3.47,2.56v.11c0,1.63-1.16,2.52-3.8,2.52s-3.84-1-3.84-2.66v-.15a2.44,2.44,0,0,1,.79-1.76,1.87,1.87,0,0,1-.7-1.47v0a1.57,1.57,0,0,1,.62-1.29,2.53,2.53,0,0,1-.63-1.87v-.12c0-1.6,1-2.94,3.69-2.94h3.62a.42.42,0,0,1,.42.43v.67C258.77,76,258.71,76,258.52,76.06Zm-2,8.2c0-.35-.21-.56-1.83-1L253.35,83a1.6,1.6,0,0,0-.39,1.12v.15c0,.65.39,1,1.84,1s1.76-.33,1.76-.91Zm-.17-6.67c0-.77-.33-1.37-1.66-1.37s-1.68.61-1.68,1.37v.12c0,.6.24,1.27,1.68,1.27,1.28,0,1.66-.47,1.66-1.27Z" transform="translate(-58.18 -58.11)"/><path class="cls-1" d="M266.39,83.64h-1.32a.32.32,0,0,1-.31-.33v-.25a4.1,4.1,0,0,1-2.19.7,2.39,2.39,0,0,1-2.68-2.67V81c0-1.83,1.08-2.77,3.78-2.77h1v-.71c0-1-.45-1.29-1.37-1.29a25.14,25.14,0,0,0-2.52.12h-.08c-.16,0-.28,0-.28-.27v-1c0-.18.09-.29.3-.34a12.87,12.87,0,0,1,2.58-.25c2.21,0,3.42,1,3.42,3v5.76A.32.32,0,0,1,266.39,83.64Zm-1.74-4h-1c-1.41,0-1.72.46-1.72,1.36v.06c0,.78.34,1,1.12,1a3.26,3.26,0,0,0,1.58-.45Z" transform="translate(-58.18 -58.11)"/><path class="cls-1" d="M275.56,83.64h-1.42a.34.34,0,0,1-.31-.34V78.08c0-1.39-.13-1.79-1.32-1.79a3.84,3.84,0,0,0-1.75.57V83.3a.34.34,0,0,1-.31.34H269a.34.34,0,0,1-.31-.34V74.93a.31.31,0,0,1,.31-.32h1.35a.31.31,0,0,1,.31.32v.33a3.94,3.94,0,0,1,2.51-.76c2.23,0,2.68,1.55,2.68,3.58V83.3A.34.34,0,0,1,275.56,83.64Z" transform="translate(-58.18 -58.11)"/><path class="cls-1" d="M129.92,89.86h-.7c-.74,0-.91.18-.91,1v.79h1.49a.31.31,0,0,1,.31.32v1a.3.3,0,0,1-.31.3h-1.49v7.11a.34.34,0,0,1-.31.34h-1.41a.36.36,0,0,1-.33-.34V93.19L124.88,93c-.17,0-.31-.13-.31-.31v-.73a.31.31,0,0,1,.31-.32h1.38v-.79c0-2.06,1.07-2.56,2.68-2.56a4.09,4.09,0,0,1,.93.13c.13,0,.28.11.28.26v.94A.24.24,0,0,1,129.92,89.86Z" transform="translate(-58.18 -58.11)"/><path class="cls-1" d="M134.53,100.76c-2.44,0-3.71-1.69-3.71-4v-1.3c0-2.29,1.27-4,3.71-4s3.7,1.69,3.7,4v1.3C138.23,99.07,137,100.76,134.53,100.76Zm1.65-5.28c0-1.31-.57-2.16-1.65-2.16s-1.66.85-1.66,2.16v1.3c0,1.31.57,2.16,1.66,2.16s1.65-.85,1.65-2.16Z" transform="translate(-58.18 -58.11)"/><path class="cls-1" d="M144.17,93.29a4.29,4.29,0,0,0-2.14.57v6.44a.34.34,0,0,1-.31.34h-1.43a.34.34,0,0,1-.31-.34V91.93a.31.31,0,0,1,.31-.32h1.35a.31.31,0,0,1,.31.32v.33a3.58,3.58,0,0,1,2.22-.76.31.31,0,0,1,.31.32V93A.32.32,0,0,1,144.17,93.29Z" transform="translate(-58.18 -58.11)"/><path class="cls-1" d="M156.53,100.64H155.1a.34.34,0,0,1-.31-.34V95c0-1.39-.23-1.74-1.27-1.74a3.94,3.94,0,0,0-1.8.54v6.47a.34.34,0,0,1-.31.34H150a.34.34,0,0,1-.31-.34V88.77a.32.32,0,0,1,.31-.32h1.43a.32.32,0,0,1,.31.32v3.32a4,4,0,0,1,2.34-.59c2.14,0,2.78,1.56,2.78,3.53v5.27A.34.34,0,0,1,156.53,100.64Z" transform="translate(-58.18 -58.11)"/><path class="cls-1" d="M165.69,96.86h-5.06v0a1.79,1.79,0,0,0,1.86,2c1.14,0,2.21-.1,2.86-.16h0c.16,0,.28.08.28.24v1c0,.26,0,.37-.32.42a13.51,13.51,0,0,1-3,.27c-1.55,0-3.75-.86-3.75-4V95.56c0-2.5,1.35-4.06,3.72-4.06S166,93.18,166,95.56v.9C166,96.71,165.91,96.86,165.69,96.86Zm-1.75-1.57c0-1.25-.67-2-1.63-2s-1.66.7-1.66,2v.06h3.29Z" transform="translate(-58.18 -58.11)"/><path class="cls-1" d="M169.58,100.64h-1.44a.34.34,0,0,1-.31-.34V88.77a.32.32,0,0,1,.31-.32h1.44a.3.3,0,0,1,.29.32V100.3A.32.32,0,0,1,169.58,100.64Z" transform="translate(-58.18 -58.11)"/><path class="cls-1" d="M174.81,100.76a12.47,12.47,0,0,1-2.78-.32.35.35,0,0,1-.29-.37v-1a.26.26,0,0,1,.26-.25h.06c.75.09,2.14.17,2.61.17,1,0,1.1-.33,1.1-.76s-.19-.5-.69-.82L173,96.1a2.63,2.63,0,0,1-1.3-2.2c0-1.6,1-2.4,2.94-2.4a10.93,10.93,0,0,1,2.76.32.33.33,0,0,1,.28.36v.93c0,.19-.09.31-.25.31h-.06a20.47,20.47,0,0,0-2.56-.2c-.74,0-1.07.18-1.07.68,0,.25.24.41.62.65l2,1.28a2.58,2.58,0,0,1,1.49,2.44C177.84,99.66,176.84,100.76,174.81,100.76Z" transform="translate(-58.18 -58.11)"/><path class="cls-1" d="M186.39,96.86h-5.06v0a1.78,1.78,0,0,0,1.86,2c1.13,0,2.2-.1,2.85-.16h.05c.16,0,.28.08.28.24v1c0,.26-.05.37-.33.42a13.42,13.42,0,0,1-3,.27c-1.55,0-3.75-.86-3.75-4V95.56c0-2.5,1.34-4.06,3.72-4.06s3.69,1.68,3.69,4.06v.9C186.7,96.71,186.6,96.86,186.39,96.86Zm-1.76-1.57c0-1.25-.66-2-1.62-2s-1.66.7-1.66,2v.06h3.28Z" transform="translate(-58.18 -58.11)"/><path class="cls-1" d="M192.73,100.65a5.79,5.79,0,0,1-1.06.11c-1.75,0-2.46-.4-2.46-2.54v-5L187.75,93a.34.34,0,0,1-.31-.32v-.72a.31.31,0,0,1,.31-.32h1.46V90.3a.35.35,0,0,1,.31-.33l1.44-.25H191a.23.23,0,0,1,.25.24v1.65h1.39a.31.31,0,0,1,.31.32v.94a.31.31,0,0,1-.31.32h-1.39v5c0,.8,0,.89.6.89h.83c.2,0,.32.08.32.24v1C193,100.52,192.93,100.62,192.73,100.65Z" transform="translate(-58.18 -58.11)"/><path class="cls-1" d="M194.22,103.84a6.19,6.19,0,0,1-1-.1c-.2,0-.29-.13-.29-.29v-1c0-.16.12-.25.32-.25h.7c.5,0,.54-.21.54-.85V91.93a.31.31,0,0,1,.31-.32h1.43a.31.31,0,0,1,.31.32v9.38C196.51,103.26,195.66,103.84,194.22,103.84Zm2-13.43h-1.49a.32.32,0,0,1-.31-.32V88.68a.31.31,0,0,1,.31-.32h1.49a.33.33,0,0,1,.33.32v1.41A.34.34,0,0,1,196.23,90.41Z" transform="translate(-58.18 -58.11)"/><path class="cls-1" d="M205.41,96.86h-5.06v0a1.79,1.79,0,0,0,1.87,2c1.13,0,2.2-.1,2.85-.16h0c.16,0,.28.08.28.24v1c0,.26,0,.37-.32.42a13.51,13.51,0,0,1-3,.27c-1.55,0-3.75-.86-3.75-4V95.56c0-2.5,1.35-4.06,3.72-4.06s3.69,1.68,3.69,4.06v.9C205.72,96.71,205.63,96.86,205.41,96.86Zm-1.75-1.57c0-1.25-.67-2-1.63-2s-1.66.7-1.66,2v.06h3.29Z" transform="translate(-58.18 -58.11)"/><path class="cls-1" d="M214.32,100.64H212.9a.34.34,0,0,1-.31-.34V95.08c0-1.39-.13-1.79-1.32-1.79a3.84,3.84,0,0,0-1.75.57v6.44a.34.34,0,0,1-.31.34h-1.43a.34.34,0,0,1-.31-.34V91.93a.31.31,0,0,1,.31-.32h1.35a.31.31,0,0,1,.31.32v.33A3.94,3.94,0,0,1,212,91.5c2.23,0,2.68,1.55,2.68,3.58v5.22A.34.34,0,0,1,214.32,100.64Z" transform="translate(-58.18 -58.11)"/><path class="cls-1" d="M223.49,96.86h-5.06v0a1.78,1.78,0,0,0,1.86,2c1.13,0,2.2-.1,2.86-.16h0c.16,0,.28.08.28.24v1c0,.26-.05.37-.32.42a13.57,13.57,0,0,1-3,.27c-1.55,0-3.75-.86-3.75-4V95.56c0-2.5,1.34-4.06,3.72-4.06s3.69,1.68,3.69,4.06v.9C223.8,96.71,223.7,96.86,223.49,96.86Zm-1.76-1.57c0-1.25-.66-2-1.62-2s-1.66.7-1.66,2v.06h3.28Z" transform="translate(-58.18 -58.11)"/><path class="cls-1" d="M228.39,100.76a12.47,12.47,0,0,1-2.78-.32.36.36,0,0,1-.29-.37v-1a.26.26,0,0,1,.26-.25h.06c.75.09,2.14.17,2.61.17,1,0,1.1-.33,1.1-.76s-.19-.5-.68-.82l-2.13-1.35a2.63,2.63,0,0,1-1.3-2.2q0-2.4,2.94-2.4a10.93,10.93,0,0,1,2.76.32.33.33,0,0,1,.28.36v.93c0,.19-.09.31-.25.31h-.06a20.47,20.47,0,0,0-2.56-.2c-.74,0-1.06.18-1.06.68,0,.25.23.41.62.65l2,1.28a2.6,2.6,0,0,1,1.49,2.44C231.43,99.66,230.42,100.76,228.39,100.76Z" transform="translate(-58.18 -58.11)"/><path class="cls-1" d="M237.56,100.65a5.6,5.6,0,0,1-1.05.11c-1.75,0-2.46-.4-2.46-2.54v-5L232.59,93a.34.34,0,0,1-.31-.32v-.72a.31.31,0,0,1,.31-.32h1.46V90.3a.34.34,0,0,1,.31-.33l1.44-.25h.06a.23.23,0,0,1,.25.24v1.65h1.39a.31.31,0,0,1,.31.32v.94a.31.31,0,0,1-.31.32h-1.39v5c0,.8,0,.89.6.89h.82c.21,0,.33.08.33.24v1C237.86,100.52,237.77,100.62,237.56,100.65Z" transform="translate(-58.18 -58.11)"/><path class="cls-1" d="M246.09,96.86H241v0a1.78,1.78,0,0,0,1.86,2c1.13,0,2.2-.1,2.85-.16h.05a.25.25,0,0,1,.28.24v1c0,.26-.05.37-.33.42a13.51,13.51,0,0,1-3,.27c-1.55,0-3.75-.86-3.75-4V95.56c0-2.5,1.35-4.06,3.72-4.06s3.69,1.68,3.69,4.06v.9C246.4,96.71,246.31,96.86,246.09,96.86Zm-1.75-1.57c0-1.25-.67-2-1.63-2s-1.66.7-1.66,2v.06h3.29Z" transform="translate(-58.18 -58.11)"/><path class="cls-1" d="M255,100.64h-1.43a.34.34,0,0,1-.31-.34V95.08c0-1.39-.12-1.79-1.32-1.79a3.88,3.88,0,0,0-1.75.57v6.44a.34.34,0,0,1-.31.34h-1.43a.34.34,0,0,1-.31-.34V91.93a.31.31,0,0,1,.31-.32h1.35a.31.31,0,0,1,.31.32v.33a3.94,3.94,0,0,1,2.51-.76c2.24,0,2.69,1.55,2.69,3.58v5.22A.34.34,0,0,1,255,100.64Z" transform="translate(-58.18 -58.11)"/><path class="cls-2" d="M106.11,66.6a27.48,27.48,0,0,0-39.71,0,29.65,29.65,0,0,0,0,41,27.46,27.46,0,0,0,39.71,0A29.63,29.63,0,0,0,106.11,66.6ZM86.91,99.88a10.63,10.63,0,0,1-.87,1,9.59,9.59,0,0,1-13.86,0,10.35,10.35,0,0,1,0-14.3,10.06,10.06,0,0,1,1.47-1.24A9.56,9.56,0,0,1,86,86.6,10.35,10.35,0,0,1,86.91,99.88ZM104,95a17.87,17.87,0,0,1-6.7,4.37,18.23,18.23,0,0,0-2.58-21.76,16.83,16.83,0,0,0-19.82-3.37,18.27,18.27,0,0,1,3.66-5.48,17.6,17.6,0,0,1,25.44,0A19,19,0,0,1,104,95Z" transform="translate(-58.18 -58.11)"/><path class="cls-3" d="M97.33,99.37a17.5,17.5,0,0,1-10.42.51A10.35,10.35,0,0,0,86,86.6a9.56,9.56,0,0,0-12.39-1.24,19.06,19.06,0,0,1,1.28-11.12,16.83,16.83,0,0,1,19.82,3.37A18.23,18.23,0,0,1,97.33,99.37Z" transform="translate(-58.18 -58.11)"/><path class="cls-4" d="M94.75,77.61a16.83,16.83,0,0,0-19.82-3.37,17,17,0,0,0-4.57,3.37,18.2,18.2,0,0,0,0,25.16,16.87,16.87,0,0,0,24.39,0,17.83,17.83,0,0,0,2.58-3.4A18.23,18.23,0,0,0,94.75,77.61ZM86,100.9a9.59,9.59,0,0,1-13.86,0,10.35,10.35,0,0,1,0-14.3,10.06,10.06,0,0,1,1.47-1.24A9.56,9.56,0,0,1,86,86.6a10.35,10.35,0,0,1,.87,13.28A10.63,10.63,0,0,1,86,100.9Z" transform="translate(-58.18 -58.11)"/></svg>
