<svg xmlns="http://www.w3.org/2000/svg" viewBox="0 0 268 74.74">
  <defs>
    <style>
      .cls-1 {
        fill: #007fbb;
      }

      .cls-1, .cls-2 {
        fill-rule: evenodd;
      }

      .cls-2 {
        fill: #eeee92;
      }

      .cls-3 {
        fill: #505355;
      }
    </style>
  </defs>
  <g id="Group_6535" data-name="Group 6535" transform="translate(0.03)">
    <g id="Group_263" data-name="Group 263" transform="translate(-0.03)">
      <path id="Path_468" data-name="Path 468" class="cls-1" d="M29.361,74.74C60,51.571,59.071,27.654,58.323,0H.213C-.535,27.654-1.469,51.571,29.361,74.74Z" transform="translate(0.03)"/>
      <path id="Path_469" data-name="Path 469" class="cls-2" d="M21.311,27.485V16.274h7.474V14.406H21.311V8.8H19.443v5.419H11.969v1.869h7.474V27.3A12.836,12.836,0,0,1,10.1,39.63h0a10.277,10.277,0,0,0,20.554,0h0A12.614,12.614,0,0,1,21.311,27.485Z" transform="translate(8.827 7.643)"/>
      <path id="Path_470" data-name="Path 470" class="cls-2" d="M14.011,20.885V9.674h7.474V7.806H14.011V2.2H12.143V7.619H4.669V9.487h7.474V20.7A12.836,12.836,0,0,1,2.8,33.03h0A10.368,10.368,0,0,0,13.077,43.307,10.368,10.368,0,0,0,23.354,33.03h0A12.451,12.451,0,0,1,14.011,20.885Z" transform="translate(2.487 1.911)"/>
      <path id="Path_471" data-name="Path 471" class="cls-2" d="M26.843,20.885V9.674H19.369V7.806h7.474V2.2h1.869V7.619h7.474V9.487H28.711V20.7A12.836,12.836,0,0,0,38.054,33.03h0a10.277,10.277,0,1,1-20.554,0h0A12.451,12.451,0,0,0,26.843,20.885Z" transform="translate(15.254 1.911)"/>
    </g>
    <g id="Group_264" data-name="Group 264" transform="translate(77.382 8.595)">
      <path id="Path_472" data-name="Path 472" class="cls-3" d="M57.348,21.082V10.619l.187-2.242L52.49,21.269H49.127L44.642,8.376l.187,2.055V21.269H42.4V5.2h3.363l5.045,14.2L56.414,5.2H59.59V21.082H57.348Z" transform="translate(-40.531 -4.079)"/>
      <path id="Path_473" data-name="Path 473" class="cls-3" d="M64.324,9.316a7.352,7.352,0,0,1,.934,4.3c0,4.3-2.616,6.353-5.979,6.353a5.929,5.929,0,0,1-3.737-1.121L54.421,20.34,53.3,19.406l1.495-1.682a6.727,6.727,0,0,1-.934-4.111c0-4.3,2.429-6.54,5.792-6.54A5.929,5.929,0,0,1,63.39,8.195L64.7,6.7l1.121.934Zm-4.858-.374c-2.8,0-3.363,2.429-3.363,4.671a5.129,5.129,0,0,0,.374,2.429L61.9,9.876A3.228,3.228,0,0,0,59.466,8.942Zm3.176,2.242-5.419,6.166a3.228,3.228,0,0,0,2.429.934c2.8,0,3.363-2.242,3.363-4.484A11.028,11.028,0,0,0,62.643,11.184Z" transform="translate(-31.065 -2.776)"/>
      <path id="Path_474" data-name="Path 474" class="cls-3" d="M68.613,9.242a3.212,3.212,0,0,0-1.495-.187,3.627,3.627,0,0,0-3.176,1.682v8.782H61.7V7.187h2.242V8.869A4.105,4.105,0,0,1,67.306,7c.747,0,1.308,0,1.495.187Z" transform="translate(-23.769 -2.516)"/>
      <path id="Path_475" data-name="Path 475" class="cls-3" d="M68.242,14c0,3.363,1.869,3.924,4.3,3.924a16.456,16.456,0,0,0,3.176-.374l.374,1.869a22.04,22.04,0,0,1-4.111.374c-3.737,0-5.979-1.308-5.979-6.166C66,8.582,68.429,6.9,71.792,6.9c3.176,0,4.671,2.242,4.671,6.166v.747H68.242Zm3.176-5.232c-1.495,0-2.99,1.121-3.176,3.55h5.606C74.035,10.076,73.1,8.769,71.419,8.769Z" transform="translate(-20.035 -2.602)"/>
      <path id="Path_476" data-name="Path 476" class="cls-3" d="M81.106,19.793c-3.55,0-5.606-2.242-5.606-6.353,0-4.3,2.429-6.54,5.792-6.54,3.924,0,5.792,2.242,5.792,6.54S84.469,19.793,81.106,19.793Zm.187-11.024c-2.8,0-3.363,2.429-3.363,4.671,0,2.429.747,4.484,3.55,4.484s3.363-2.242,3.363-4.484C84.656,11.2,84.1,8.769,81.292,8.769Z" transform="translate(-11.784 -2.602)"/>
      <path id="Path_477" data-name="Path 477" class="cls-3" d="M88.232,24.751a18.352,18.352,0,0,1-4.3-.561l.374-1.869a18.513,18.513,0,0,0,3.363.374c2.055,0,3.55-.374,3.55-2.99v-.934a4.465,4.465,0,0,1-2.616.934c-2.616,0-5.606-.747-5.606-6.353C83,9.242,85.8,7,88.979,7a39.533,39.533,0,0,1,4.484.374V20.08C93.651,23.443,90.661,24.751,88.232,24.751Zm2.99-15.7c-.561,0-1.308-.187-2.242-.187-2.8,0-3.737,2.055-3.737,4.484,0,3.176,1.308,4.484,3.55,4.484a4.806,4.806,0,0,0,2.616-.934V9.055Z" transform="translate(-5.27 -2.516)"/>
      <path id="Path_478" data-name="Path 478" class="cls-3" d="M106.606,21.269c-1.495,0-2.99-.747-4.484-2.8l-2.8-3.55h-2.99V20.9H93.9V5.2h5.419c3.363,0,5.419,1.495,5.419,4.858a4.586,4.586,0,0,1-2.99,4.484l2.242,2.616a7.092,7.092,0,0,0,3.176,2.242Zm-7.848-14.2H96.142v6.353H98.2c2.429,0,3.924-.934,3.924-3.176S101.187,7.069,98.758,7.069Z" transform="translate(4.197 -4.079)"/>
      <path id="Path_479" data-name="Path 479" class="cls-3" d="M107.506,19.793c-3.55,0-5.606-2.242-5.606-6.353,0-4.3,2.429-6.54,5.792-6.54,3.924,0,5.792,2.242,5.792,6.54C113.3,17.737,110.869,19.793,107.506,19.793Zm0-11.024c-2.8,0-3.363,2.429-3.363,4.671,0,2.429.747,4.484,3.55,4.484s3.363-2.242,3.363-4.484S110.308,8.769,107.506,8.769Z" transform="translate(11.145 -2.602)"/>
      <path id="Path_480" data-name="Path 480" class="cls-3" d="M125.509,19.606V11.945c0-1.869-.374-3.176-2.242-3.176a7.926,7.926,0,0,0-3.363,1.308v9.343h-2.242V11.945c0-1.869-.374-2.99-2.242-2.99a6.274,6.274,0,0,0-3.176,1.308v9.343H110V7.274h2.242V8.582c.934-.561,2.055-1.682,3.924-1.682s2.99.747,3.363,1.869a7.065,7.065,0,0,1,4.3-1.869c3.737,0,3.924,2.616,3.924,4.858v7.848Z" transform="translate(18.18 -2.602)"/>
      <path id="Path_481" data-name="Path 481" class="cls-3" d="M125.124,19.793a14.674,14.674,0,0,1-3.924-.561l.374-1.869a20.589,20.589,0,0,0,3.363.374c1.869,0,2.8-.561,2.8-1.495,0-2.429-6.166-1.308-6.166-5.792,0-2.429,2.055-3.55,4.484-3.55a11.1,11.1,0,0,1,3.363.561l-.374,1.869a11.71,11.71,0,0,0-2.99-.374c-1.495,0-2.055.561-2.055,1.495,0,2.616,6.166,1.682,6.166,5.792C129.982,19.045,127.179,19.793,125.124,19.793Z" transform="translate(27.907 -2.602)"/>
      <path id="Path_482" data-name="Path 482" class="cls-3" d="M135.421,21.6V20.482a4.926,4.926,0,0,1-2.99,1.308c-2.242,0-5.232-.934-5.232-6.353a5.932,5.932,0,0,1,6.166-6.353,7.7,7.7,0,0,1,2.242.187V4.6h2.242v17h-2.429Zm0-10.464a7.7,7.7,0,0,0-2.242-.187c-2.8,0-3.737,2.055-3.737,4.484,0,3.176,1.495,4.3,3.176,4.3a5.528,5.528,0,0,0,2.8-1.121Z" transform="translate(33.118 -4.6)"/>
      <path id="Path_483" data-name="Path 483" class="cls-3" d="M145.237,19.706c-1.308,0-2.99-.187-3.176-1.495a5.939,5.939,0,0,1-3.924,1.495c-2.242,0-3.737-1.308-3.737-3.55,0-2.99,2.8-3.55,4.858-3.737h2.8V10.924c0-1.869-.934-2.055-2.99-2.055a12.2,12.2,0,0,0-3.176.561l-.374-1.682A10.731,10.731,0,0,1,139.632,7c2.429,0,4.671.561,4.671,3.363V16.9c0,.747.561.934,1.121.934ZM142.061,14.1l-2.616.187c-2.055.187-2.8.747-2.8,1.869a1.676,1.676,0,0,0,1.869,1.869c1.121,0,3.363-1.308,3.55-1.308Z" transform="translate(39.372 -2.516)"/>
      <path id="Path_484" data-name="Path 484" class="cls-3" d="M142.2,21.6V4.6h2.242v17H142.2Z" transform="translate(46.146 -4.6)"/>
      <path id="Path_485" data-name="Path 485" class="cls-3" d="M50.182,21.042a19.672,19.672,0,0,0-2.242-.187c-1.682,0-2.429.561-2.429,2.242v.934h2.616V25.9H45.511V36.551H43.269V25.9H41.4V24.032h1.869V23.1c0-3.55,2.429-4.3,4.858-4.3a9.739,9.739,0,0,1,2.616.374Z" transform="translate(-41.4 7.733)"/>
      <path id="Path_486" data-name="Path 486" class="cls-3" d="M51.806,38.89H49.563l1.682-4.858h-.934L46.2,21.7h2.429l2.616,8.408.561,2.242.747-2.055,2.8-8.408h2.429Z" transform="translate(-37.231 10.252)"/>
      <path id="Path_487" data-name="Path 487" class="cls-3" d="M53.8,36.1v-17h2.242v17Z" transform="translate(-30.63 7.993)"/>
      <path id="Path_488" data-name="Path 488" class="cls-3" d="M57.4,36.1v-17h2.242v17Zm9.9.187a5.1,5.1,0,0,1-4.111-2.242l-3.363-4.484,5.045-5.792H67.49l-5.232,5.792,2.429,2.8a5.926,5.926,0,0,0,2.99,2.242Z" transform="translate(-27.504 7.993)"/>
      <path id="Path_489" data-name="Path 489" class="cls-3" d="M66.042,28.5c0,3.363,1.869,3.924,4.3,3.924a16.455,16.455,0,0,0,3.176-.374l.374,1.869a22.04,22.04,0,0,1-4.111.374c-3.737,0-5.979-1.308-5.979-6.166,0-5.045,2.429-6.727,5.792-6.727,3.176,0,4.671,2.242,4.671,6.166v.747H66.042Zm3.176-5.232c-1.495,0-2.99,1.121-3.176,3.55h5.606C71.835,24.576,70.9,23.269,69.219,23.269Z" transform="translate(-21.945 9.991)"/>
      <path id="Path_490" data-name="Path 490" class="cls-3" d="M74.524,34.293a14.675,14.675,0,0,1-3.924-.561l.374-1.869a20.589,20.589,0,0,0,3.363.374c1.869,0,2.8-.561,2.8-1.495,0-2.429-6.166-1.308-6.166-5.792,0-2.429,2.055-3.55,4.484-3.55a11.1,11.1,0,0,1,3.363.561l-.374,1.869a11.71,11.71,0,0,0-2.99-.374c-1.495,0-2.055.561-2.055,1.495,0,2.616,6.166,1.682,6.166,5.792C79.2,33.545,76.579,34.293,74.524,34.293Z" transform="translate(-16.039 9.991)"/>
      <path id="Path_491" data-name="Path 491" class="cls-3" d="M77,36.1v-17h2.242v17Zm9.9.187a5.1,5.1,0,0,1-4.111-2.242l-3.363-4.484,5.045-5.792H87.09l-5.045,5.792,2.429,2.8a5.925,5.925,0,0,0,2.99,2.242Z" transform="translate(-10.481 7.993)"/>
      <path id="Path_492" data-name="Path 492" class="cls-3" d="M89.006,34.393c-3.55,0-5.606-2.242-5.606-6.353,0-4.3,2.429-6.54,5.792-6.54,3.924,0,5.792,2.242,5.792,6.54C94.985,32.151,92.369,34.393,89.006,34.393Zm.187-11.211c-2.8,0-3.363,2.429-3.363,4.671,0,2.429.747,4.484,3.55,4.484s3.363-2.242,3.363-4.484C92.556,25.611,92,23.182,89.192,23.182Z" transform="translate(-4.923 10.078)"/>
      <path id="Path_493" data-name="Path 493" class="cls-3" d="M107.009,34.193V26.532c0-1.869-.374-3.176-2.242-3.176a7.926,7.926,0,0,0-3.363,1.308v9.343H99.161V26.345c0-1.869-.374-2.99-2.242-2.99a6.274,6.274,0,0,0-3.176,1.308v9.343H91.5V21.674h2.242v1.308c.934-.561,2.055-1.682,3.924-1.682s2.99.747,3.363,1.869a7.065,7.065,0,0,1,4.3-1.869c3.737,0,3.924,2.616,3.924,4.858v7.848h-2.242Z" transform="translate(2.112 9.904)"/>
      <path id="Path_494" data-name="Path 494" class="cls-3" d="M118.909,34.193V26.532c0-1.869-.374-3.176-2.242-3.176a7.926,7.926,0,0,0-3.363,1.308v9.343h-2.242V26.345c0-1.869-.374-2.99-2.242-2.99a6.274,6.274,0,0,0-3.176,1.308v9.343H103.4V21.674h2.242v1.308c.934-.561,2.055-1.682,3.924-1.682s2.99.747,3.363,1.869a7.065,7.065,0,0,1,4.3-1.869c3.737,0,3.924,2.616,3.924,4.858v7.848h-2.242Z" transform="translate(12.448 9.904)"/>
      <path id="Path_495" data-name="Path 495" class="cls-3" d="M123.321,34.019V32.524a8.3,8.3,0,0,1-4.3,1.682c-3.55,0-3.924-2.429-3.924-4.858V21.5h2.242v7.474c0,1.869.187,3.176,2.242,3.176a9.783,9.783,0,0,0,3.737-1.495V21.5h2.242V33.832h-2.242Z" transform="translate(22.609 10.078)"/>
      <path id="Path_496" data-name="Path 496" class="cls-3" d="M131.235,34.193V26.532c0-1.869-.374-3.176-2.242-3.176-1.308,0-2.99,1.121-3.55,1.308v9.343H123.2V21.674h2.242v1.308a7.668,7.668,0,0,1,4.3-1.682c3.737,0,3.924,2.429,3.924,4.858v7.848h-2.429Z" transform="translate(29.644 9.904)"/>
      <path id="Path_497" data-name="Path 497" class="cls-3" d="M132.742,28.5c0,3.363,1.868,3.924,4.3,3.924a16.456,16.456,0,0,0,3.176-.374l.374,1.869a20.458,20.458,0,0,1-4.111.374c-3.737,0-5.979-1.308-5.979-6.166,0-5.045,2.429-6.727,5.792-6.727,3.176,0,4.671,2.242,4.671,6.166v.747h-8.221Zm3.176-5.232c-1.495,0-2.99,1.121-3.176,3.55h5.606C138.535,24.576,137.414,23.269,135.919,23.269Z" transform="translate(35.984 9.991)"/>
    </g>
  </g>
</svg>
