<?xml version="1.0" encoding="utf-8"?>
<!-- Generator: Adobe Illustrator 24.1.0, SVG Export Plug-In . SVG Version: 6.00 Build 0)  -->
<svg version="1.1" id="Layer_1" xmlns="http://www.w3.org/2000/svg" xmlns:xlink="http://www.w3.org/1999/xlink" x="0px" y="0px"
	 viewBox="0 0 1024 1280" style="enable-background:new 0 0 1024 1280;" xml:space="preserve">
<style type="text/css">
	.st0{fill:#FFFFFF;}
	.st1{fill:#0099CC;}
</style>
<path class="st0" d="M38,257.7c0,128.7,0.8,237.1,1.7,255.8c6.3,121.2,31.7,222.1,81.6,324.6c34,70.1,71.8,127.2,124,187.7
	c25.4,29.2,77.9,81.3,106.3,105c47.7,39.7,101.5,76.9,146.7,101.3l12,6.5l15.9-8.2c65.4-33.9,149.2-98.5,214.4-165.7
	c128.8-132.2,207.9-290,233.6-465.6c8.2-56.1,8.3-63.7,8.3-322.2V34.6H510.2H38V257.7z"/>
<g transform="translate(0.000000,721.000000) scale(0.100000,-0.100000)">
	<path class="st1" d="M376.1,4628.9c0-1286.6,8.3-2371.3,16.7-2558.2c63.4-1211.5,317.1-2221.1,816-3245.7
		c340.4-700.9,717.6-1271.6,1239.9-1877.3c253.6-292,779.3-812.7,1063-1049.6c477.3-397.2,1014.6-769.3,1466.8-1012.9l120.1-65.1
		l158.5,81.8c654.1,338.8,1491.9,984.6,2144.3,1657.1C8689.8-2119.5,9480.7-540.9,9737.7,1214.6c81.8,560.7,83.4,637.5,83.4,3222.3
		v2423H5098.6H376.1V4628.9z M4235.9,5550c328.7-85.1,550.7-318.7,620.8-652.5c50.1-237,21.7-585.7-75.1-952.9
		c-108.5-405.5-272-807.7-629.1-1548.6c-315.4-654.1-358.8-755.9-423.9-1004.6c-93.4-363.8-80.1-659.2,38.4-844.4
		c43.4-68.4,90.1-111.8,118.5-111.8c5,0,45.1,61.7,88.4,138.5c206.9,362.1,502.3,764.3,1024.6,1396.7
		c727.6,881.1,937.8,1216.5,1012.9,1610.3c16.7,85.1,21.7,175.2,15,252c-16.7,208.6-56.7,298.7-275.3,622.4
		c-111.8,165.2-201.9,312.1-201.9,327.1s15,56.7,33.4,91.8l33.4,66.7h171.9c507.3-1.7,814.3-232,931.2-700.9
		c50.1-195.2,38.4-560.7-23.4-809.3c-121.8-477.3-385.5-1064.7-964.5-2144.3C5500.8,854.2,5399,645.6,5399,597.2
		c0-20,13.3-20,96.8-1.7c675.8,161.9,1458.5,223.6,1880.7,150.2c300.4-53.4,524-165.2,620.8-313.7c41.7-61.7,46.7-86.8,51.7-237
		c20-532.3-173.5-1118.1-522.3-1582c-136.8-181.9-462.2-493.9-655.8-630.8c-350.4-247-782.6-440.5-1196.5-535.7
		c-287-65.1-725.9-60.1-1002.9,11.7c-140.2,35-532.3,195.2-704.2,285.4c-343.8,180.2-695.9,452.2-934.5,724.2
		C2455.3-878,2246.7-98.7,2405.3,815.8c103.5,600.7,393.8,1206.5,966.2,2022.5c609.1,867.7,755.9,1163.1,772.6,1543.6
		c11.7,292-16.7,370.5-262,734.2l-198.6,293.7l33.4,81.8c28.4,68.4,41.7,83.4,86.8,90.1C3892.1,5593.4,4134.1,5576.7,4235.9,5550z"
		/>
	<path class="st1" d="M3963.9,5373.1c0-8.3,68.4-115.1,150.2-235.3c190.2-278.7,218.6-358.8,230.3-657.5
		c6.7-185.2,1.7-238.6-28.4-362.1c-88.4-347.1-240.3-625.8-722.6-1318.3c-327.1-472.3-499-745.9-630.8-1004.6
		c-200.2-390.5-323.7-762.6-375.5-1126.4c-33.4-235.3-31.7-652.5,1.7-852.7c108.5-635.8,473.9-1204.8,1049.6-1632
		c73.4-55.1,135.2-96.8,136.8-95.1c3.3,3.3-20,60.1-51.7,128.5c-138.5,298.7-183.6,524-183.6,899.5c0,380.5,55.1,647.5,225.3,1061.3
		c20,51.7,18.4,53.4-75.1,145.2c-262,257-297,719.2-100.1,1313.3c53.4,161.9,125.2,318.7,445.6,984.6
		c665.8,1385.1,807.7,2154.4,470.6,2548.2c-71.8,83.4-258.7,181.9-372.1,196.9c-43.4,5-98.5,13.4-123.5,16.7
		C3983.9,5388.2,3963.9,5383.2,3963.9,5373.1z"/>
	<path class="st1" d="M5816.2,4730.7c0-5,65.1-105.1,143.5-220.3c163.5-235.3,206.9-327.1,247-499c50.1-220.3,26.7-465.6-65.1-722.6
		c-126.8-347.1-335.4-657.5-936.2-1386.7c-458.9-557.4-664.2-826-866.1-1133.1c-201.9-305.4-262-408.8-247-423.9
		c20-20,333.7-10,473.9,15c76.8,13.3,240.3,53.4,363.8,88.4l223.6,63.4l38.4,120.1c55.1,170.2,110.1,283.7,345.4,722.6
		c614.1,1151.4,826,1623.7,956.2,2127.7c41.7,158.5,46.7,213.6,48.4,423.9c0,282-25,395.5-126.8,550.7
		c-78.4,121.8-203.6,208.6-360.4,252C5944.7,4739,5816.2,4750.7,5816.2,4730.7z"/>
	<path class="st1" d="M6792.4,573.8c-360.4-16.7-779.3-73.4-1188.1-163.5c-290.4-63.4-278.7-55.1-265.3-180.2
		c15-146.8,90.1-292,198.6-387.1c297-258.7,932.8-390.5,1894-392.2h303.7l16.7,41.7c38.4,98.5,86.8,397.2,95.1,575.7
		c8.3,156.9,5,201.9-16.7,245.3c-33.4,63.4-165.2,150.2-292,188.6C7373.1,553.8,7039.4,585.5,6792.4,573.8z"/>
	<path class="st1" d="M4906.7,233.4c-300.4-88.4-512.3-111.8-876.1-93.4c-56.7,3.3-58.4,1.7-113.5-126.8
		c-135.2-312.1-203.6-752.6-170.2-1084.7c43.4-443.9,173.5-740.9,425.5-976.2c156.9-146.8,308.7-226.9,555.7-290.4
		c176.9-46.7,220.3-51.7,462.2-53.4c201.9-1.7,302,6.7,408.8,30c382.1,81.8,831,280.3,1151.4,507.3
		c198.6,140.2,530.7,468.9,655.8,649.1c96.8,138.5,245.3,398.8,245.3,432.2c0,13.3-136.8,21.7-437.2,28.4c-242,5-534,21.7-649.1,35
		C5651-597.6,5203.7-313.9,5138.7,198.4C5125.3,301.8,5133.7,300.2,4906.7,233.4z"/>
</g>
<polygon class="st0" points="-943,-400 -881,-318 -863,-293 "/>
<path class="st0" d="M-756,418"/>
</svg>
