<?xml version="1.0" encoding="utf-8"?>
<!-- Generator: Adobe Illustrator 23.0.2, SVG Export Plug-In . SVG Version: 6.00 Build 0)  -->
<svg version="1.1" id="Layer_1" xmlns="http://www.w3.org/2000/svg" xmlns:xlink="http://www.w3.org/1999/xlink" x="0px" y="0px"  height="169" width="584" 
	 viewBox="0 0 584.45 169.65" style="enable-background:new 0 0 584.45 169.65;" xml:space="preserve">
<style type="text/css">
	.st0{fill:#009D4F;}
	.st1{fill:#FFFFFF;}
</style>
<g>
	<path class="st0" d="M25.44,38.16"/>
	<g>
		<path class="st0" d="M0,0c0,0,0,45.8,0,86.01c0,56.74,67.48,83.64,67.48,83.64l0,0c0.07-0.03,67.48-26.93,67.48-83.64
			c0-40.21,0-86.01,0-86.01L0,0z"/>
		<g>
			<polygon class="st1" points="89.02,52.78 95.55,46.24 67.48,18.16 39.4,46.24 45.94,52.78 67.48,31.24 			"/>
			<g>
				<polygon class="st1" points="22.42,42.34 9.25,55.51 9.25,68.59 22.42,55.42 54.39,87.39 60.93,80.85 				"/>
			</g>
			<g>
				<path class="st1" d="M125.71,55.52l-13.18-13.18l-60.61,60.61l0,0c-4.3,4.11-6.98,9.9-6.98,16.31
					c0,12.43,10.11,22.54,22.54,22.54c12.43,0,22.54-10.11,22.54-22.54c0-6.33-2.63-12.06-6.85-16.16l0.01-0.01l-2.62-2.62
					l-6.54,6.54l2.85,2.87c2.41,2.4,3.9,5.72,3.9,9.38c0,7.33-5.96,13.29-13.29,13.29c-7.33,0-13.29-5.96-13.29-13.29
					c0-3.69,1.52-7.04,3.96-9.45l0,0l54.39-54.39l0,0l13.18,13.18V55.52z"/>
			</g>
		</g>
	</g>
	<g>
		<rect x="180.08" y="18.15" width="9.93" height="59.38"/>
		<path d="M245.79,77.53V50.1c0-5.83-1.56-10.29-4.67-13.38c-3.11-3.08-7.19-4.63-12.24-4.63c-3.08,0-5.96,0.79-8.62,2.36
			c-2.66,1.57-4.75,3.73-6.27,6.48v-8.16h-9.42v44.76h9.42V53.3c0-4.15,1.21-7.31,3.62-9.47c2.41-2.16,5.24-3.24,8.5-3.24
			c6.84,0,10.26,4.12,10.26,12.37v24.57H245.79z"/>
		<path d="M268.34,53.3c0-4.15,1.21-7.31,3.62-9.47c2.41-2.16,5.24-3.24,8.5-3.24c6.84,0,10.26,4.12,10.26,12.37v24.57h9.42V50.1
			c0-5.83-1.56-10.29-4.67-13.38c-3.11-3.08-7.19-4.63-12.24-4.63c-3.08,0-5.96,0.79-8.62,2.36c-2.66,1.57-4.75,3.73-6.27,6.48
			v-8.16h-9.42v44.76h9.42V53.3z"/>
		<path d="M335.99,74.51l-4.12-6.9c-0.84,1.4-2.25,2.1-4.21,2.1c-3.37,0-5.05-2.24-5.05-6.73V18.33h-9.42v45.75
			c0,4.71,1.22,8.27,3.66,10.68c2.44,2.41,5.68,3.62,9.72,3.62C330.6,78.38,333.74,77.09,335.99,74.51z"/>
		<path d="M376.47,36.09c-3.34-2.66-7.64-4-12.92-4c-6.9,0-13.07,2.16-18.51,6.48l4.2,5.89c4.49-3.03,8.8-4.54,12.96-4.54
			c6.62,0,9.93,2.97,9.93,8.92v1.68h-12.2c-5.55,0-9.96,1.1-13.21,3.28c-3.25,2.19-4.88,5.48-4.88,9.88c0,4.41,1.53,7.93,4.58,10.56
			c3.06,2.64,6.91,3.95,11.57,3.95c6.23,0,11.19-2.22,14.89-6.65v5.97h8.58V48.67C381.48,42.95,379.81,38.76,376.47,36.09z
			 M372.05,60.87c0,2.86-1.12,5.13-3.37,6.82c-2.24,1.68-4.86,2.52-7.86,2.52c-3,0-5.34-0.58-7.03-1.73
			c-1.68-1.15-2.52-2.82-2.52-5.01c0-4.26,3.39-6.39,10.18-6.39h10.6V60.87z"/>
		<path d="M419.51,32.1c-3.08,0-5.96,0.79-8.62,2.36c-2.66,1.57-4.75,3.73-6.27,6.48v-8.16h-9.42v44.76h9.42V53.3
			c0-4.15,1.21-7.31,3.62-9.47c2.41-2.16,5.24-3.24,8.5-3.24c6.84,0,10.26,4.12,10.26,12.37v24.57h9.42V50.1
			c0-5.83-1.56-10.29-4.67-13.38C428.64,33.64,424.56,32.1,419.51,32.1z"/>
		<path d="M492.27,77.53V14.54h-9.42v25.13c-3.65-5.05-8.46-7.57-14.43-7.57c-5.97,0-11.12,2.07-15.44,6.23
			c-4.32,4.15-6.48,9.7-6.48,16.66c0,6.95,2.1,12.56,6.31,16.83c4.21,4.26,9.14,6.4,14.81,6.4c6.67,0,11.75-2.47,15.23-7.4v6.73
			H492.27z M479.15,65.79c-2.58,2.72-5.72,4.08-9.42,4.08s-6.93-1.35-9.67-4.04c-2.75-2.69-4.12-6.18-4.12-10.48
			c0-4.29,1.35-7.87,4.04-10.73c2.69-2.86,5.92-4.29,9.67-4.29c3.76,0,6.93,1.43,9.51,4.29c2.58,2.86,3.87,6.42,3.87,10.68
			C483.02,59.58,481.73,63.07,479.15,65.79z"/>
		<path d="M525.07,78.2c7.74,0,14.02-2.5,18.85-7.49l-5.39-5.89c-2.92,3.53-7.18,5.3-12.79,5.3c-3.54,0-6.68-0.99-9.42-2.99
			s-4.23-4.61-4.46-7.87h35.08V52.8c0-6.45-2.13-11.51-6.39-15.19c-4.26-3.67-9.44-5.51-15.52-5.51c-6.09,0-11.37,2.07-15.86,6.23
			c-4.49,4.15-6.73,9.75-6.73,16.78c0,7.04,2.2,12.65,6.6,16.83C513.44,76.11,518.78,78.2,525.07,78.2z M515.98,43.33
			c2.75-2.11,5.85-3.16,9.29-3.16c3.45,0,6.35,1.01,8.71,3.03c2.36,2.02,3.53,4.91,3.53,8.66h-25.66
			C511.86,48.28,513.23,45.43,515.98,43.33z"/>
		<path d="M558.96,62.81c0,4.71,1.41,8.46,4.25,11.23c2.83,2.78,6.25,4.17,10.26,4.17c4.01,0,7.67-1.49,10.98-4.46l-3.87-6.64
			c-1.85,1.96-3.79,2.94-5.81,2.94s-3.59-0.63-4.71-1.89c-1.12-1.26-1.68-2.96-1.68-5.09V40.34h12.18v-7.57h-12.18V18.15h-9.42
			v14.62h-5.64v7.57h5.64V62.81z"/>
		<path d="M188.28,95.52c-1.45,0-2.82,0.36-4.07,1.07c-1.26,0.71-2.27,1.75-3.01,3.08c-0.74,1.33-1.11,2.88-1.11,4.62v2.11h-3.24
			v3.37h3.24v22.77h4.04v-22.77h6.18v-3.37h-6.18v-2.5c0-1.45,0.41-2.58,1.26-3.44c0.85-0.86,1.87-1.28,3.12-1.28
			c1.03,0,2.1,0.29,3.19,0.87l0.43,0.23l1.06-3.39l-0.29-0.16C191.49,95.92,189.93,95.52,188.28,95.52z"/>
		<path d="M206.96,127.45l-8.32-20.8l-0.1-0.25h-4.31l10.66,25.6l-1,2.45c-0.52,1.22-1.18,2.16-1.96,2.8
			c-0.77,0.62-1.61,0.92-2.55,0.92c-1.2,0-2.34-0.37-3.4-1.09l-0.36-0.25l-1.85,3.2l0.28,0.22c1.58,1.21,3.42,1.82,5.47,1.82
			c1.73,0,3.28-0.53,4.62-1.58c1.32-1.04,2.4-2.58,3.2-4.57l11.93-29.52h-4.21L206.96,127.45z"/>
		<polygon points="262.98,106.39 257.99,106.39 244.92,119.64 244.92,95.85 240.88,95.85 240.88,132.54 244.92,132.54 
			244.92,124.95 250.17,119.57 259.01,132.54 263.9,132.54 253.02,116.66 		"/>
		<path d="M280.49,106.3c-2.44,0-4.67,0.56-6.63,1.67c-1.96,1.11-3.51,2.69-4.63,4.7c-1.11,2-1.67,4.29-1.67,6.8
			c0,2.54,0.56,4.84,1.67,6.82c1.11,1.99,2.67,3.56,4.63,4.67c1.95,1.11,4.22,1.67,6.73,1.67c2.11,0,4.07-0.38,5.84-1.12
			c1.77-0.74,3.31-1.81,4.56-3.17l0.26-0.28l-2.4-2.41l-0.29,0.3c-0.96,1.02-2.12,1.81-3.44,2.37c-1.33,0.56-2.79,0.84-4.34,0.84
			c-2.49,0-4.61-0.8-6.3-2.38c-1.59-1.49-2.54-3.46-2.83-5.85h21.07l0.02-0.39c0.16-4.3-0.83-7.79-2.95-10.35
			C287.66,107.61,284.53,106.3,280.49,106.3z M271.66,117.61c0.31-2.29,1.24-4.17,2.77-5.59c1.63-1.5,3.68-2.26,6.11-2.26
			c2.46,0,4.47,0.75,5.98,2.23c1.43,1.4,2.26,3.29,2.48,5.62H271.66z"/>
		<path d="M315.08,118.88c-1.11-0.5-2.56-1.02-4.31-1.54c-1.39-0.41-2.49-0.78-3.27-1.12c-0.74-0.31-1.36-0.73-1.85-1.24
			c-0.46-0.47-0.68-1.08-0.68-1.85c0-1.12,0.42-1.94,1.29-2.49c0.91-0.58,2.14-0.88,3.67-0.88c1.12,0,2.27,0.17,3.42,0.49
			c1.15,0.33,2.2,0.79,3.14,1.38l0.37,0.24l1.63-3.19l-0.31-0.2c-1.09-0.69-2.35-1.25-3.73-1.64c-1.39-0.4-2.84-0.6-4.32-0.6
			c-2.55,0-4.72,0.59-6.44,1.76c-1.77,1.2-2.67,3-2.67,5.36c0,1.57,0.41,2.87,1.2,3.85c0.78,0.97,1.74,1.71,2.85,2.22
			c1.08,0.49,2.49,1,4.21,1.52c1.46,0.46,2.57,0.84,3.37,1.17c0.76,0.31,1.4,0.75,1.91,1.3c0.48,0.53,0.71,1.19,0.71,2.03
			c0,1.22-0.47,2.12-1.44,2.76c-1.01,0.66-2.34,1-3.96,1c-1.49,0-2.98-0.28-4.42-0.84c-1.45-0.56-2.71-1.33-3.77-2.29l-0.37-0.34
			l-1.71,3.03l0.22,0.22c1.2,1.16,2.69,2.07,4.45,2.7c1.74,0.63,3.57,0.94,5.46,0.94c2.68,0,4.96-0.63,6.76-1.88
			c1.85-1.28,2.78-3.16,2.78-5.58c0-1.63-0.42-2.98-1.25-4C317.22,120.18,316.23,119.41,315.08,118.88z"/>
		<polygon points="349.31,106.39 344.32,106.39 331.26,119.64 331.26,95.85 327.21,95.85 327.21,132.54 331.26,132.54 
			331.26,124.95 336.51,119.57 345.34,132.54 350.24,132.54 339.36,116.66 		"/>
		<path d="M373.63,107.97c-1.99-1.11-4.27-1.67-6.77-1.67c-2.5,0-4.78,0.56-6.77,1.67c-1.99,1.11-3.57,2.69-4.7,4.67
			c-1.13,1.99-1.7,4.27-1.7,6.78c0,2.54,0.57,4.84,1.7,6.84c1.13,2.01,2.71,3.59,4.7,4.7c1.99,1.11,4.26,1.67,6.77,1.67
			c2.51,0,4.79-0.56,6.77-1.67c1.99-1.11,3.57-2.69,4.7-4.7c1.12-2,1.69-4.3,1.69-6.84c0-2.51-0.57-4.79-1.7-6.78
			C377.2,110.65,375.62,109.08,373.63,107.97z M374.81,124.5c-0.76,1.44-1.85,2.57-3.23,3.37c-1.38,0.8-2.97,1.2-4.73,1.2
			s-3.35-0.41-4.73-1.2c-1.38-0.8-2.47-1.93-3.23-3.37c-0.77-1.45-1.16-3.14-1.16-5.03c0-1.86,0.39-3.53,1.16-4.99
			c0.77-1.44,1.86-2.57,3.23-3.37c1.38-0.8,2.97-1.2,4.73-1.2c1.76,0,3.35,0.41,4.73,1.2c1.38,0.8,2.47,1.93,3.23,3.37
			c0.77,1.45,1.16,3.13,1.16,4.99C375.98,121.36,375.59,123.05,374.81,124.5z"/>
		<path d="M420.16,106.3c-2.59,0.04-4.8,0.64-6.57,1.81c-1.5,0.98-2.66,2.38-3.47,4.18c-0.61-1.71-1.61-3.09-2.98-4.12
			c-1.66-1.24-3.77-1.87-6.27-1.87c-2.45,0.04-4.56,0.57-6.27,1.61c-1.27,0.77-2.33,1.83-3.14,3.16v-4.67h-4.05v26.14h4.05v-12.88
			c0-2.85,0.75-5.17,2.23-6.89c1.46-1.7,3.51-2.6,6.08-2.66c2.16,0,3.88,0.63,5.1,1.88c1.22,1.26,1.84,3.06,1.84,5.35v15.2h4.09
			v-12.88c0-2.85,0.74-5.17,2.2-6.89c1.45-1.71,3.49-2.6,6.05-2.66c2.16,0,3.88,0.63,5.1,1.88c1.22,1.26,1.84,3.06,1.84,5.35v15.2
			h4.09v-15.97c0-3.19-0.88-5.72-2.63-7.53C425.72,107.22,423.26,106.3,420.16,106.3z"/>
		<path d="M471.95,106.3c-2.59,0.04-4.8,0.64-6.57,1.81c-1.5,0.98-2.66,2.38-3.47,4.18c-0.61-1.71-1.61-3.09-2.98-4.12
			c-1.66-1.24-3.77-1.87-6.27-1.87c-2.45,0.04-4.56,0.57-6.27,1.61c-1.27,0.77-2.33,1.83-3.14,3.16v-4.67h-4.05v26.14h4.05v-12.88
			c0-2.85,0.75-5.17,2.23-6.89c1.46-1.7,3.51-2.6,6.08-2.66c2.16,0,3.88,0.63,5.1,1.88c1.22,1.26,1.84,3.06,1.84,5.35v15.2h4.09
			v-12.88c0-2.85,0.74-5.17,2.2-6.89c1.45-1.71,3.49-2.6,6.05-2.66c2.16,0,3.88,0.63,5.1,1.88c1.22,1.26,1.84,3.06,1.84,5.35v15.2
			h4.09v-15.97c0-3.19-0.88-5.72-2.63-7.53C477.51,107.22,475.05,106.3,471.95,106.3z"/>
		<path d="M510.01,119.22c0,2.85-0.75,5.18-2.22,6.92c-1.46,1.72-3.51,2.61-6.08,2.64c-2.17,0-3.88-0.63-5.1-1.88
			c-1.23-1.25-1.85-3.04-1.85-5.3v-15.2h-4.09v15.97c0,3.16,0.89,5.68,2.65,7.51c1.76,1.83,4.23,2.76,7.33,2.76
			c2.42-0.03,4.51-0.59,6.23-1.66c1.27-0.79,2.32-1.86,3.13-3.2v4.76h4.1v-26.14h-4.1V119.22z"/>
		<path d="M545.54,109.05c-1.79-1.83-4.29-2.75-7.42-2.75c-2.48,0.04-4.62,0.57-6.36,1.6c-1.31,0.78-2.4,1.84-3.24,3.18v-4.68h-4.05
			v26.14h4.05l0-14c0.21-2.57,1.08-4.63,2.57-6.13c1.48-1.5,3.49-2.27,5.98-2.3c2.23,0,3.99,0.64,5.22,1.91
			c1.24,1.27,1.87,3.06,1.87,5.33v15.2h4.09v-15.97C548.25,113.41,547.34,110.88,545.54,109.05L545.54,109.05z"/>
		<path d="M568.3,106.3c-2.44,0-4.67,0.56-6.63,1.67c-1.96,1.11-3.51,2.69-4.63,4.7c-1.11,2-1.67,4.29-1.67,6.8
			c0,2.54,0.56,4.84,1.67,6.82c1.11,1.99,2.67,3.56,4.63,4.67c1.95,1.11,4.22,1.67,6.73,1.67c2.11,0,4.07-0.38,5.84-1.12
			c1.77-0.74,3.31-1.81,4.56-3.17l0.26-0.28l-2.4-2.41l-0.29,0.3c-0.96,1.02-2.11,1.81-3.44,2.37c-1.33,0.56-2.79,0.84-4.34,0.84
			c-2.49,0-4.61-0.8-6.3-2.38c-1.59-1.49-2.54-3.46-2.83-5.85h21.07l0.02-0.39c0.16-4.3-0.83-7.79-2.95-10.35
			C575.47,107.61,572.34,106.3,568.3,106.3z M559.46,117.61c0.31-2.29,1.24-4.17,2.77-5.59c1.63-1.5,3.68-2.26,6.11-2.26
			c2.46,0,4.47,0.75,5.98,2.23c1.43,1.4,2.26,3.29,2.48,5.62H559.46z"/>
		<path d="M232.56,128c-0.77,0.56-1.52,0.88-2.23,0.88c-0.89,0-2.06-0.29-2.06-2.79V95.85h-4.05v30.57c0,1.96,0.49,3.51,1.46,4.6
			c0.98,1.1,2.3,1.66,3.93,1.66c1.37,0,2.84-0.56,4.39-1.67l0.23-0.17l-0.03-0.11L232.56,128z"/>
	</g>
	<path class="st0" d="M26.34,38.07"/>
</g>
<g>
</g>
<g>
</g>
<g>
</g>
<g>
</g>
<g>
</g>
<g>
</g>
</svg>
