<?xml version="1.0" encoding="utf-8"?>
<!-- Generator: Adobe Illustrator 23.1.1, SVG Export Plug-In . SVG Version: 6.00 Build 0)  -->
<svg version="1.1" id="Layer_1" xmlns="http://www.w3.org/2000/svg" xmlns:xlink="http://www.w3.org/1999/xlink" x="0px" y="0px"
	 viewBox="0 0 307 344" style="enable-background:new 0 0 307 344;" xml:space="preserve">
<style type="text/css">
	.st0{fill:#FFFFFF;}
	.st1{fill:#0099CC;}
</style>
<g>
	<circle class="st0" cx="153.3" cy="130.1" r="112.9"/>
	<g transform="translate(0.000000,344.000000) scale(0.100000,-0.100000)">
		<path class="st1" d="M83.1,3354.4c0-47.8,5.6-161.2,11.1-253.4c60-931.4,390.1-1808.4,934.8-2484.2
			c95.6-117.8,304.5-326.8,401.2-399l63.4-47.8l70,53.4c184.5,138.9,469,464.6,644.7,738c426.8,663.6,686.9,1537.2,686.9,2309.7
			V3440h-1406H83.1V3354.4z M1855.9,2959.8c-22.2-68.9-43.3-153.4-46.7-187.8c-5.6-53.4-2.2-66.7,17.8-86.7
			c31.1-31.1,30-35.6-12.2-75.6c-46.7-43.3-103.4-72.2-134.5-67.8c-37.8,5.6-66.7,67.8-67.8,146.7l-1.1,67.8h37.8
			c51.1,0,95.6,54.5,176.7,212.3c34.5,68.9,64.5,123.4,66.7,121.2C1894.8,3087.7,1878.2,3029.9,1855.9,2959.8z M1262.4,2802
			c32.2-36.7,48.9-45.6,77.8-45.6h37.8l-1.1-62.2c-1.1-76.7-33.3-147.8-67.8-152.3c-31.1-4.4-103.4,32.2-146.7,76.7l-35.6,34.5
			l28.9,26.7c17.8,15.6,27.8,37.8,27.8,57.8c0,38.9-46.7,223.4-71.1,282.3c-37.8,90-14.4,63.4,46.7-51.1
			C1193.5,2902,1240.2,2827.6,1262.4,2802z M1529.2,2652c13.3-74.5,46.7-123.4,83.4-123.4c40,0-22.2-122.3-86.7-171.2l-31.1-22.2
			l-30,22.2c-32.2,23.3-103.4,132.3-103.4,156.7c0,7.8,10,14.4,21.1,14.4c53.4,0,85.6,91.1,96.7,271.2
			c8.9,142.3,17.8,152.3,27.8,28.9C1512.5,2770.9,1522.5,2690.9,1529.2,2652z M1069,2583c108.9-91.1,160.1-115.6,205.6-100
			c45.6,15.6,57.8,2.2,75.6-84.5c24.5-113.4-14.4-152.3-125.6-126.7c-33.3,6.7-70,20-81.1,27.8c-17.8,13.3-18.9,18.9-6.7,45.6
			c12.2,27.8,11.1,37.8-13.3,87.8c-15.6,31.1-60,93.4-97.8,138.9c-38.9,44.5-77.8,92.3-86.7,105.6
			C920.1,2704.2,930.1,2696.4,1069,2583z M2002.7,2615.3c-134.5-154.5-172.3-229-142.3-285.7c8.9-16.7,4.4-23.3-26.7-37.8
			c-52.2-25.6-141.2-35.6-171.2-20c-18.9,11.1-23.3,23.3-23.3,73.4c0,60,26.7,150.1,45.6,150.1c4.4,0,21.1-5.6,36.7-12.2
			c38.9-17.8,103.4,15.6,230.1,122.3c57.8,47.8,106.7,85.6,108.9,83.4S2037.1,2654.2,2002.7,2615.3z M666.6,2484.1
			c61.1-20,142.3-37.8,178.9-41.1c58.9-5.6,71.1-3.3,92.3,17.8c12.2,12.2,27.8,23.3,33.3,23.3c31.1,0,120-152.3,107.8-184.5
			c-10-27.8-96.7-60-158.9-60h-58.9v36.7c0,60-38.9,93.4-216.7,185.6c-104.5,53.4-143.4,77.8-105.6,64.5
			C547.7,2523,605.5,2504.1,666.6,2484.1z M2356.1,2469.7c-197.8-104.5-246.8-147.8-231.2-206.7c5.6-21.1,1.1-23.3-53.4-23.3
			c-64.5,0-150.1,32.2-161.2,60c-10,26.7,15.6,88.9,57.8,138.9c44.5,51.1,58.9,55.6,81.1,22.2c13.3-22.2,21.1-23.3,87.8-17.8
			c41.1,3.3,126.7,23.3,191.2,44.5c64.5,21.1,122.3,38.9,127.8,40C2462.8,2527.5,2417.2,2501.9,2356.1,2469.7z M1191.3,2221.8
			c25.6-14.4,57.8-42.2,71.1-61.1c24.5-34.5,24.5-34.5,2.2-63.4c-27.8-37.8-100-87.8-136.7-96.7c-23.3-4.4-30,0-44.5,30
			c-14.4,32.2-25.6,38.9-88.9,54.5c-40,10-124.5,22.2-187.8,26.7c-63.4,4.4-108.9,12.2-100,16.7c8.9,4.4,66.7,11.1,128.9,15.6
			c151.2,8.9,225.6,33.3,247.9,81.1C1102.3,2266.3,1114.6,2265.2,1191.3,2221.8z M1899.3,2234c4.4-15.6,18.9-35.6,34.5-45.6
			c32.2-21.1,175.6-47.8,266.8-48.9c121.2-2.2,117.8-17.8-5.6-26.7c-194.5-13.3-269-35.6-289-85.6c-15.6-36.7-20-37.8-71.1-16.7
			c-53.4,22.2-117.8,83.4-117.8,111.1c0,30,70,100,122.3,122.3C1890.4,2266.3,1891.5,2266.3,1899.3,2234z M991.2,2000.6
			c77.8-23.3,97.8-47.8,81.1-98.9c-6.7-22.2-33.3-63.4-60-91.1l-46.7-52.2l-30,30c-28.9,28.9-35.6,30-88.9,23.3
			c-32.2-4.4-111.1-24.5-175.6-45.6s-122.3-37.8-127.8-37.8s42.2,27.8,106.7,62.2c157.8,84.5,211.2,127.8,211.2,175.6
			c0,20,3.3,40,7.8,43.3C881.2,2021.7,931.2,2018.4,991.2,2000.6z M2112.7,2008.4c7.8-4.4,13.3-22.2,13.3-41.1
			c-1.1-45.6,62.2-97.8,205.6-173.4c64.5-32.2,115.6-61.1,113.4-63.4c-2.2-2.2-57.8,13.3-124.5,34.5
			c-65.6,21.1-145.6,42.2-176.7,46.7c-50,6.7-60,4.4-90-21.1l-34.5-28.9l-27.8,22.2c-30,24.5-85.6,125.6-85.6,157.8
			C1906,1982.8,2070.5,2036.2,2112.7,2008.4z M1351.3,1953.9c12.2-33.3,4.4-98.9-20-161.2c-16.7-42.2-30-51.1-42.2-31.1
			c-3.3,6.7-23.3,11.1-43.3,11.1c-41.1,0-124.5-53.4-237.9-152.3c-38.9-34.5-71.1-60-73.4-57.8s35.6,51.1,83.4,108.9
			c106.7,126.7,140,191.2,122.3,230.1c-6.7,15.6-12.2,32.2-12.2,36.7c0,18.9,84.5,44.5,147.8,44.5
			C1335.8,1983.9,1340.2,1981.7,1351.3,1953.9z M1827,1960.6c37.8-16.7,46.7-24.5,36.7-34.5c-40-40,6.7-136.7,134.5-286.8
			c34.5-38.9,60-73.4,57.8-75.6c-2.2-3.3-35.6,23.3-74.5,58.9c-103.4,92.3-193.4,150.1-237.9,150.1c-20,0-40-4.4-43.3-11.1
			c-13.3-21.1-25.6-11.1-43.3,33.3c-21.1,54.5-24.5,173.4-3.3,181.2C1687,1990.6,1781.5,1981.7,1827,1960.6z M1536.9,1888.4
			c26.7-17.8,91.1-122.3,91.1-146.7c0-7.8-14.4-20-32.2-25.6c-22.2-7.8-37.8-24.5-48.9-53.4c-15.6-36.7-34.5-174.5-44.5-306.8
			c-4.4-65.6-14.4-17.8-27.8,140c-14.4,154.5-32.2,206.7-80,222.3c-17.8,6.7-33.3,14.4-33.3,16.7c0,23.3,42.2,95.6,75.6,130
			C1481.4,1910.6,1499.2,1915,1536.9,1888.4z M1354.7,1663.8c11.1-22.2,23.3-70,25.6-104.5l6.7-64.5h-42.2
			c-56.7,0-97.8-46.7-180.1-205.6c-35.6-70-65.6-124.5-67.8-122.3c-2.2,2.2,13.3,58.9,35.6,125.6c22.2,67.8,43.3,150.1,46.7,183.4
			c6.7,56.7,4.4,63.4-22.2,91.1l-30,30l31.1,33.3c45.6,47.8,134.5,90,165.6,78.9C1330.2,1707.2,1344.7,1686.1,1354.7,1663.8z
			 M1788.1,1665c64.5-46.7,72.2-63.4,41.1-96.7c-23.3-25.6-25.6-35.6-20-92.3c4.4-35.6,24.5-118.9,45.6-186.7
			c22.2-66.7,40-124.5,40-127.8s-27.8,46.7-61.1,110c-96.7,182.3-131.2,223.4-191.2,223.4c-35.6,0-36.7,1.1-36.7,45.6
			c0,58.9,20,125.6,45.6,153.4c16.7,17.8,26.7,20,56.7,11.1C1728.1,1699.4,1764.8,1681.6,1788.1,1665z"/>
	</g>
</g>
</svg>
