<svg viewBox="0 0 167 334" version="1.1" xmlns="http://www.w3.org/2000/svg" xmlns:xlink="http://www.w3.org/1999/xlink"><title>NHH</title><g class="fill" stroke="none"><g class="logoName"><path d="M6.801,84.79 C6.801,84.977 6.648,85.13 6.459,85.13 L0.342,85.13 C0.152,85.13 0,84.977 0,84.79 L0,0.99 L0.59,0.99 L33.682,54.348 C35.934,58.184 40.15,65.953 40.15,65.953 C40.15,65.901 39.691,56.016 39.691,52.275 L39.695,2.36 C39.695,2.175 39.848,2.02 40.037,2.02 L46.156,2.02 C46.342,2.02 46.494,2.175 46.494,2.36 L46.494,86.159 L45.904,86.159 L12.813,31.642 C10.566,27.81 6.346,20.043 6.346,20.043 C6.346,20.092 6.807,29.977 6.807,33.721 L6.801,84.79"/><path d="M99.443,53.628 L99.426,84.79 C99.426,84.977 99.578,85.13 99.768,85.13 L106.164,85.13 C106.35,85.13 106.504,84.977 106.504,84.79 L106.504,2.36 C106.504,2.175 106.35,2.02 106.164,2.02 L99.768,2.02 C99.578,2.02 99.426,2.175 99.426,2.36 L99.443,47.339 L67.715,47.339 L67.73,2.36 C67.73,2.175 67.58,2.02 67.391,2.02 L60.992,2.02 C60.805,2.02 60.652,2.175 60.652,2.36 L60.652,84.79 C60.652,84.977 60.805,85.13 60.992,85.13 L67.391,85.13 C67.58,85.13 67.73,84.977 67.73,84.79 L67.715,53.628 L99.443,53.628"/><path d="M159.447,53.628 L159.436,84.79 C159.436,84.977 159.586,85.13 159.773,85.13 L166.172,85.13 C166.359,85.13 166.51,84.977 166.51,84.79 L166.51,2.36 C166.51,2.175 166.359,2.02 166.172,2.02 L159.773,2.02 C159.586,2.02 159.436,2.175 159.436,2.36 L159.447,47.341 L127.723,47.341 L127.736,2.36 C127.736,2.175 127.586,2.02 127.398,2.02 L121,2.02 C120.814,2.02 120.662,2.175 120.662,2.36 L120.662,84.79 C120.662,84.977 120.814,85.13 121,85.13 L127.398,85.13 C127.586,85.13 127.736,84.977 127.736,84.79 L127.723,53.628 L159.447,53.628"/></g><g transform="translate(0, 167)"><path d="M61.813,58.313 C63.264,59.76 63.264,62.098 61.813,63.547 C60.354,64.99 58.016,64.99 56.568,63.547 L42.301,49.307 L28.053,63.547 C26.604,64.99 24.25,64.99 22.809,63.547 C21.361,62.098 21.361,59.76 22.809,58.313 L37.057,44.06 L25.547,32.559 L14.852,43.406 L14.928,31.034 L31.209,14.765 C31.209,14.765 32.197,13.577 33.152,14.553 C34.104,15.531 36.754,18.124 37.428,18.809 C38.207,19.609 37.584,20.385 37.584,20.385 L30.758,27.299 L42.301,38.829 L54.059,27.089 L47.164,20.465 C47.164,20.465 46.428,19.609 47.279,18.719 L51.326,14.692 C52.436,13.562 53.377,14.735 53.377,14.735 L69.687,31.034 L69.74,42.195 L59.402,32.232 L47.557,44.06 L61.813,58.313 L61.813,58.313 Z M0.002,81.224 L81.129,81.224 L81.129,0.097 L0.002,0.097 L0.002,81.224 Z"/></g><g transform="translate(0, 252)"><path d="M67.094,52.23 C67.094,56.83 62.848,61.743 56.506,61.743 L45.232,61.743 L45.232,63.861 C45.127,66.359 43.695,68.373 41.41,70.038 C39.148,68.373 37.688,66.359 37.576,63.861 L37.576,61.743 L26.648,61.743 C20.32,61.743 16.072,56.83 16.072,52.23 L16.072,44.445 C16.072,41.45 19.283,39.185 19.283,39.185 C19.283,39.185 22.484,41.605 22.484,44.445 L22.484,52.23 C22.484,53.323 23.922,55.336 26.648,55.336 L37.576,55.336 C37.584,48.086 37.584,37.537 37.584,29.195 L28.666,29.195 C27.961,29.195 27.375,28.61 27.375,27.902 L27.375,22.901 C27.375,22.179 27.961,21.602 28.666,21.602 L37.584,21.602 L37.584,16.037 C37.584,13.93 39.281,12.202 41.41,12.202 C43.516,12.202 45.223,13.84 45.223,15.947 L45.223,21.602 L53.98,21.602 C54.703,21.602 55.275,22.179 55.275,22.901 L55.275,27.902 C55.275,28.61 54.703,29.195 53.98,29.195 L45.223,29.195 L45.232,55.336 L56.506,55.336 C59.244,55.336 60.68,53.323 60.68,52.23 L60.68,44.445 C60.68,41.222 63.885,39.185 63.885,39.185 C63.885,39.185 67.094,41.372 67.094,44.445 L67.094,52.23 L67.094,52.23 Z M0,81.998 L81.129,81.998 L81.129,0.875 L0,0.875 L0,81.998 Z"/></g><g transform="translate(85, 252)"><path d="M67.496,49.639 L60,42.854 C57.408,44.877 53.984,46.848 49.523,48.029 L55.904,54.405 L60.865,49.459 L60.865,62.818 L47.477,62.818 L52.436,57.869 L43.568,49.006 C43.053,49.041 42.52,49.054 41.988,49.078 C41.416,49.111 40.861,49.165 40.291,49.165 C39.154,49.165 38.064,49.095 36.973,48.99 C36.23,48.934 35.535,48.871 34.842,48.791 L25.752,57.877 L30.715,62.831 L17.326,62.831 L17.326,49.463 L22.279,54.415 L29.047,47.651 C23.936,46.115 20.051,43.282 14.855,38.721 C18.381,35.038 21.947,32.603 25.545,31.02 L15.963,21.448 L19.436,17.977 L30.729,29.266 C33.375,28.64 36.016,28.369 38.646,28.32 C39.188,28.283 39.727,28.269 40.291,28.269 C42.822,28.269 45.299,28.533 47.695,29.027 L58.75,17.984 L62.225,21.448 L53.066,30.595 C53.236,30.652 53.393,30.781 53.525,30.957 C56.176,32.082 58.311,33.346 60.133,34.361 L67.414,27.779 C69.416,33.212 65.67,38.839 65.67,38.839 C65.67,38.839 69.82,42.777 67.496,49.639 L67.496,49.639 Z M0.781,82 L81.904,82 L81.904,0.876 L0.781,0.876 L0.781,82 Z"/></g><g transform="translate(85, 167)"><path d="M57.168,66.626 C49.959,66.626 44.088,60.765 44.088,53.555 L44.285,52.794 L55.82,32.534 L58.512,32.534 L70.057,52.794 L70.256,53.555 C70.256,60.765 64.377,66.626 57.168,66.626 L57.168,66.626 Z M37.594,34.033 C37.594,33.997 37.594,32.059 37.605,29.471 L19.863,29.471 C19.158,29.471 18.598,28.9 18.598,28.212 L18.598,23.446 C18.598,22.753 19.158,22.181 19.863,22.181 L37.605,22.181 C37.605,18.842 37.615,16.099 37.615,16.099 C37.615,14.108 39.227,12.496 41.209,12.496 C43.203,12.496 44.809,14.108 44.809,16.099 L44.809,22.181 L62.623,22.181 C63.314,22.181 63.881,22.753 63.881,23.446 L63.881,28.212 C63.881,28.9 63.314,29.471 62.623,29.471 L44.809,29.471 L44.809,34.125 C44.785,36.545 41.193,40.314 41.193,40.314 C41.193,40.314 37.594,36.498 37.594,34.033 L37.594,34.033 Z M25.381,66.626 C18.174,66.626 12.301,60.765 12.301,53.555 L12.506,52.794 L24.031,32.534 L26.73,32.534 L38.264,52.794 L38.471,53.555 C38.471,60.765 32.596,66.626 25.381,66.626 L25.381,66.626 Z M0.781,81.223 L81.906,81.223 L81.906,0.096 L0.781,0.096 L0.781,81.223 Z M48.297,52.009 L66.041,52.009 C63.797,48.092 58.789,39.275 57.17,36.421 C55.539,39.275 50.535,48.092 48.297,52.009 Z M16.508,52.009 L34.256,52.009 C32.025,48.092 27.012,39.275 25.381,36.421 C23.766,39.275 18.746,48.092 16.508,52.009 Z"/></g></g></svg>