<svg id="Layer_1" data-name="Layer 1" xmlns="http://www.w3.org/2000/svg" viewBox="0 0 700 148"><defs><style>.cls-1{fill:#00a1e0;}.cls-2{fill:#9adff3;}.cls-3{fill:#03477f;}</style></defs><title>Artboard 7</title><path class="cls-1" d="M150.82,25.07c-22.22,8.74-43.16,18.46-68.34,43.29a1.91,1.91,0,0,1-1.31.51C41.4,69.47,3.45,74.47,1,85.31-1,94.68,23,101.47,29.57,103.13c-.58-1.27-1.12-2.57-1.64-3.88C22.69,97.62,6.29,92,8.42,86.83c2.34-5.77,22.4-6.34,30.9-6.28h0c1.07,0,2.12,0,3.17.06h.26c.66,0,1.26,0,1.8,0,43,.1,83.62,16.16,110.74,33.72a72.25,72.25,0,0,0-4.49-89.31Z"/><path class="cls-2" d="M137.82,14.18A73.67,73.67,0,0,0,112.68,3,74.54,74.54,0,0,0,98.31,1c-34-1.33-65.38,20.93-73.64,54.56-.38,1.58-.71,3.14-1,4.71a.57.57,0,0,0,.13-.08C55.6,35.41,101.32,19,137.82,14.18Z"/><path class="cls-3" d="M70.71,100.24h0a1.2,1.2,0,0,0-1,.56,195.79,195.79,0,0,0-17.91,30.81A69.32,69.32,0,0,0,83,145.78c23.32,4.3,41.07-2.47,55.38-12.07-18.66-14.11-36.41-24.49-67.28-33.42A1.1,1.1,0,0,0,70.71,100.24Z"/><path class="cls-3" d="M294.14,62.69l.06,31.17h-7.39l-.06-31.17h-4.2V57.77h4.2V52.12c0-5.3,3.16-10.24,10-10.25h4.64v5.58h-3.26c-2.75,0-4.06,1.6-4.05,4.29v6h7.32v4.93Z"/><path class="cls-3" d="M343.79,62.59l.06,31.17h-7.4l-.06-31.17h-4.2V57.68h4.2V52c0-5.3,3.18-10.23,10.06-10.25h4.64v5.58h-3.25c-2.76,0-4.06,1.61-4.06,4.29v6h7.32v4.94Z"/><path class="cls-3" d="M401.94,79.11l0,14.54h-7.4l0-14.54V67.8c0-5.29,3.17-10.22,10.06-10.23h4.64v5.63H406c-2.76,0-4.06,1.6-4.05,4.28V79.11Z"/><path class="cls-3" d="M369,94.11c-4.57,0-7.62-1.26-9.87-3.5a11.25,11.25,0,0,1-2.92-7.89c0-6.15,4.26-10.59,12.67-10.61l9.71,0V69.48c0-4.64-2.33-6.88-8.06-6.87-4.06,0-6,1-8,3.57l-4.88-4.56c3.47-4,7.1-5.31,13.19-5.32,10.08,0,15.16,4.25,15.17,12.59l0,24a153.55,153.55,0,0,1-17,1.23m9.62-6.73V77.24H370c-4.34,0-6.59,2-6.58,5.3s2.2,5.22,6.76,5.21,8.47-.39,8.47-.39"/><path class="cls-3" d="M453.76,94c-6,0-11.1-1-15.46-5.26l4.85-4.86c3,3,7,3.82,10.6,3.81,4.49,0,8-1.61,8-5.09,0-2.46-1.37-4.07-4.92-4.34L451,77.75c-6.88-.58-10.87-3.68-10.89-10.13,0-7.18,6.14-11.26,13.83-11.27,5.51,0,10.22,1.14,13.64,4.11l-4.64,4.72c-2.32-2-5.57-2.66-9.06-2.66-4.42,0-6.66,2-6.66,4.72,0,2.18,1.16,3.84,5.08,4.18l5.8.52c6.9.55,10.95,3.81,11,10.33C469,90,462.52,94,453.76,94"/><rect class="cls-3" x="501.61" y="57.32" width="7.4" height="36.12" transform="translate(-0.15 0.98) rotate(-0.11)"/><path class="cls-3" d="M529.32,93.4c-7,0-10.09-4.69-10.1-10.13l-.08-41.47h7.39l.08,41.75c0,2.83,1,4.29,4,4.28h1.43v5.57Z"/><path class="cls-3" d="M224.92,94c-7,0-10.1-4.69-10.11-10.13l-.08-41.47h7.4l.08,41.75c0,2.83,1,4.29,4,4.28l14.55,0V94Z"/><path class="cls-3" d="M552.6,93.79c-6,0-11.1-1-15.45-5.26L542,83.66c3,3,7,3.83,10.58,3.82,4.5,0,8.06-1.61,8-5.09,0-2.46-1.4-4.07-5-4.35l-5.87-.48c-6.88-.58-10.88-3.68-10.89-10.13,0-7.18,6.13-11.26,13.83-11.27,5.5,0,10.21,1.14,13.63,4.11L561.75,65c-2.33-2-5.59-2.67-9.07-2.66-4.42,0-6.66,2-6.65,4.72,0,2.18,1.16,3.83,5.08,4.18l5.8.52c6.87.55,11,3.81,11,10.33,0,7.68-6.51,11.69-15.27,11.71"/><path class="cls-3" d="M651.2,76.93c0,6.3,3.35,10.28,9.36,10.27,4.15,0,6.31-1.18,8.93-3.79l4.71,4.41c-3.76,3.78-7.31,5.75-13.77,5.76-9.2,0-16.53-4.83-16.55-18.82C643.85,62.87,650,56,659.43,56c9.85,0,15.58,7.22,15.6,17.66v3.27Zm15.5-10.19a7.59,7.59,0,0,0-7.26-4.62,7.7,7.7,0,0,0-7.33,4.65,11.88,11.88,0,0,0-.92,5l16.53,0a11.54,11.54,0,0,0-1-5"/><path class="cls-3" d="M323.88,88.22c-3,0-4-1.45-4-4.28l0-21.3,7.12,0V57.69h-7.12l0-9.71-7.4,0,0,9.7h-4.19v4.94h4.19l0,21c0,5.44,3.07,10.15,10.1,10.13h4.56V88.22Z"/><path class="cls-3" d="M429.93,88c-3,0-4-1.45-4-4.28l0-21.31H433V57.48h-7.13l0-9.7h-7.4l0,9.71h-4.17v4.93h4.17l0,21c0,5.44,3.07,10.15,10.1,10.14h4.57V88Z"/><path class="cls-3" d="M489.7,87.9c-3,0-4-1.45-4-4.28l0-21.31h7.14V57.36l-7.14,0,0-9.71-7.38,0v9.7h-4.18v4.94h4.18l.05,21c0,5.44,3.06,10.14,10.08,10.13H493V87.89Z"/><path class="cls-3" d="M695.71,87.5c-3,0-4-1.45-4-4.28l0-21.67,7.12,0V57l-7.12,0,0-9.71-7.39,0,0,9.7H680.1v4.57h4.17L684.33,83c0,5.43,3.06,10.14,10.09,10.13H699V87.49Z"/><path class="cls-3" d="M260.84,94.31c-12.46,0-15-7.61-15-12.71l0-23.75,7.75,0s-.05,18.82,0,22,.62,8.5,7.32,8.49,7.29-5.32,7.28-8.52-.12-22-.12-22h7.75l0,23.75c0,5.11-2.48,12.75-14.94,12.77"/><path class="cls-3" d="M623.77,56c12.46,0,15,7.62,15,12.73l0,24.45H631.1l0-22.71c0-3.2-.57-8.51-7.28-8.5s-7.25,5.33-7.24,8.52l0,22.72-7.71,0,0-24.45c0-5.11,2.49-12.77,14.95-12.79"/><path class="cls-3" d="M588.2,99.15a11.55,11.55,0,0,1-2.64,4.5,10.06,10.06,0,0,1-7.4,2.64h-2.92V99.74h1.86c3.06,0,4.12-.93,5.19-3.86l1.62-4.33L571.22,57.16h7.69l8.68,25.42,8.34-25.45,7.77,0Z"/><path class="cls-3" d="M509.59,45.75a4.34,4.34,0,1,0-4.34,4.36,4.34,4.34,0,0,0,4.34-4.36"/></svg>