<?xml version="1.0" encoding="utf-8"?>
<!-- Generator: Adobe Illustrator 24.0.0, SVG Export Plug-In . SVG Version: 6.00 Build 0)  -->
<svg version="1.1" id="Layer_1" xmlns="http://www.w3.org/2000/svg" xmlns:xlink="http://www.w3.org/1999/xlink" x="0px" y="0px"
	 viewBox="0 0 283.46 41.54" style="enable-background:new 0 0 283.46 41.54;" xml:space="preserve">
<style type="text/css">
	.st0{fill:#E42313;}
	.st1{fill:#FFDF43;}
	.st2{fill:#AD8A30;}
</style>
<g>
	<g>
		<path d="M85.08,8.47V2h-2.37V0.59h6.38V2h-2.37v6.47H85.08z"/>
		<path d="M89.63,2.45h1.54v0.96h0.1c0.04-0.15,0.11-0.29,0.2-0.42c0.1-0.13,0.21-0.24,0.35-0.34c0.13-0.09,0.29-0.17,0.46-0.22
			c0.17-0.05,0.35-0.08,0.54-0.08c0.11,0,0.22,0.01,0.34,0.02c0.12,0.01,0.21,0.03,0.28,0.06v1.45c-0.03-0.01-0.08-0.02-0.13-0.04
			c-0.06-0.01-0.12-0.02-0.19-0.03c-0.07-0.01-0.14-0.02-0.21-0.02c-0.08-0.01-0.15-0.01-0.21-0.01c-0.22,0-0.42,0.03-0.6,0.09
			c-0.18,0.06-0.33,0.15-0.46,0.27c-0.13,0.12-0.23,0.26-0.3,0.43c-0.07,0.17-0.11,0.36-0.11,0.57v3.34h-1.59V2.45z"/>
		<path d="M96.95,8.6c-0.46,0-0.88-0.07-1.25-0.21c-0.37-0.14-0.68-0.35-0.93-0.62c-0.25-0.27-0.45-0.6-0.58-0.99
			c-0.13-0.39-0.2-0.83-0.2-1.32c0-0.49,0.07-0.93,0.21-1.31s0.33-0.72,0.59-0.99c0.26-0.27,0.57-0.48,0.93-0.62
			c0.37-0.14,0.78-0.22,1.24-0.22c0.46,0,0.87,0.07,1.24,0.22c0.37,0.14,0.68,0.35,0.93,0.62c0.26,0.27,0.45,0.6,0.59,0.99
			c0.13,0.39,0.2,0.83,0.2,1.31c0,0.49-0.07,0.93-0.2,1.32c-0.13,0.39-0.33,0.72-0.58,0.99c-0.26,0.27-0.57,0.48-0.94,0.62
			C97.83,8.53,97.41,8.6,96.95,8.6z M96.95,7.3c0.43,0,0.75-0.16,0.99-0.48c0.23-0.32,0.35-0.78,0.35-1.36
			c0-0.29-0.03-0.55-0.09-0.78s-0.15-0.42-0.26-0.58c-0.12-0.16-0.25-0.28-0.42-0.36c-0.16-0.08-0.35-0.13-0.56-0.13
			c-0.21,0-0.4,0.04-0.56,0.13c-0.17,0.08-0.31,0.2-0.42,0.36c-0.11,0.16-0.2,0.35-0.26,0.58c-0.06,0.23-0.09,0.49-0.09,0.78
			c0,0.59,0.12,1.05,0.34,1.37C96.19,7.14,96.52,7.3,96.95,7.3z"/>
		<path d="M101.34,2.45h1.54v0.98h0.1c0.06-0.17,0.15-0.33,0.25-0.46c0.11-0.14,0.23-0.26,0.38-0.35c0.14-0.1,0.3-0.17,0.48-0.22
			c0.17-0.05,0.36-0.08,0.56-0.08c0.42,0,0.78,0.1,1.06,0.29c0.28,0.19,0.48,0.47,0.6,0.82h0.1c0.07-0.17,0.16-0.32,0.28-0.46
			c0.12-0.14,0.25-0.25,0.41-0.35s0.33-0.17,0.52-0.23c0.19-0.05,0.39-0.08,0.6-0.08c0.3,0,0.57,0.05,0.81,0.14
			c0.24,0.09,0.45,0.23,0.61,0.4c0.17,0.17,0.3,0.39,0.39,0.64s0.14,0.53,0.14,0.84v4.14h-1.59V4.76c0-0.71-0.33-1.07-1-1.07
			c-0.16,0-0.31,0.03-0.44,0.08c-0.13,0.05-0.24,0.13-0.34,0.23c-0.09,0.1-0.16,0.21-0.21,0.35c-0.05,0.13-0.07,0.28-0.07,0.44v3.69
			h-1.53V4.69c0-0.32-0.09-0.57-0.26-0.74c-0.17-0.17-0.42-0.26-0.73-0.26c-0.16,0-0.3,0.03-0.43,0.09
			c-0.13,0.06-0.24,0.14-0.34,0.24c-0.1,0.1-0.17,0.22-0.22,0.37c-0.05,0.14-0.08,0.3-0.08,0.46v3.63h-1.59V2.45z"/>
		<path d="M111.66,4.22c0-0.28,0.06-0.54,0.18-0.78c0.12-0.24,0.29-0.44,0.51-0.6c0.22-0.17,0.48-0.29,0.79-0.38
			c0.31-0.09,0.65-0.14,1.02-0.14c0.77,0,1.37,0.15,1.8,0.46c0.43,0.31,0.67,0.75,0.71,1.33h-1.47c-0.04-0.2-0.15-0.35-0.33-0.46
			s-0.42-0.17-0.71-0.17c-0.14,0-0.27,0.02-0.39,0.05c-0.12,0.03-0.23,0.07-0.31,0.13s-0.16,0.12-0.21,0.2
			c-0.05,0.08-0.07,0.16-0.07,0.26c0,0.15,0.07,0.27,0.2,0.37c0.13,0.1,0.34,0.17,0.62,0.24l1.13,0.25
			c0.29,0.07,0.54,0.15,0.76,0.24c0.21,0.1,0.39,0.21,0.53,0.34c0.14,0.13,0.24,0.29,0.31,0.46c0.07,0.17,0.1,0.37,0.1,0.6
			c0,0.3-0.07,0.58-0.19,0.82c-0.13,0.24-0.31,0.45-0.54,0.63c-0.23,0.17-0.51,0.31-0.84,0.4c-0.33,0.09-0.69,0.14-1.08,0.14
			c-0.4,0-0.75-0.04-1.07-0.12c-0.32-0.08-0.59-0.2-0.81-0.35c-0.23-0.15-0.41-0.34-0.54-0.57c-0.13-0.22-0.21-0.48-0.24-0.77h1.55
			c0.06,0.21,0.19,0.37,0.38,0.48c0.19,0.11,0.44,0.17,0.76,0.17c0.15,0,0.29-0.02,0.42-0.05c0.13-0.03,0.24-0.07,0.33-0.13
			c0.09-0.06,0.16-0.12,0.21-0.2c0.05-0.08,0.08-0.17,0.08-0.26c0-0.15-0.06-0.27-0.18-0.36c-0.12-0.09-0.31-0.17-0.58-0.23
			l-1.09-0.25c-0.59-0.13-1.02-0.33-1.31-0.62C111.8,5.06,111.66,4.68,111.66,4.22z"/>
		<path d="M123.74,8.6c-0.46,0-0.88-0.07-1.25-0.21c-0.37-0.14-0.68-0.35-0.93-0.62c-0.25-0.27-0.45-0.6-0.58-0.99
			c-0.13-0.39-0.2-0.83-0.2-1.32c0-0.49,0.07-0.93,0.21-1.31c0.14-0.39,0.33-0.72,0.59-0.99c0.26-0.27,0.57-0.48,0.93-0.62
			c0.37-0.14,0.78-0.22,1.24-0.22c0.46,0,0.87,0.07,1.24,0.22c0.37,0.14,0.68,0.35,0.93,0.62c0.26,0.27,0.45,0.6,0.59,0.99
			c0.13,0.39,0.2,0.83,0.2,1.31c0,0.49-0.07,0.93-0.2,1.32c-0.13,0.39-0.33,0.72-0.58,0.99c-0.26,0.27-0.57,0.48-0.94,0.62
			C124.61,8.53,124.2,8.6,123.74,8.6z M123.74,7.3c0.43,0,0.75-0.16,0.99-0.48c0.23-0.32,0.35-0.78,0.35-1.36
			c0-0.29-0.03-0.55-0.09-0.78s-0.15-0.42-0.26-0.58c-0.12-0.16-0.25-0.28-0.42-0.36c-0.16-0.08-0.35-0.13-0.56-0.13
			c-0.21,0-0.4,0.04-0.56,0.13c-0.17,0.08-0.31,0.2-0.42,0.36c-0.11,0.16-0.2,0.35-0.26,0.58c-0.06,0.23-0.09,0.49-0.09,0.78
			c0,0.59,0.12,1.05,0.34,1.37C122.98,7.14,123.31,7.3,123.74,7.3z"/>
		<path d="M130.81,10.76c-0.4,0-0.77-0.04-1.09-0.13c-0.33-0.08-0.61-0.2-0.85-0.36c-0.24-0.15-0.43-0.34-0.57-0.56
			c-0.14-0.22-0.22-0.46-0.25-0.72h1.57c0.04,0.19,0.17,0.33,0.38,0.44c0.21,0.11,0.49,0.16,0.84,0.16c0.43,0,0.76-0.09,1-0.28
			c0.24-0.19,0.35-0.45,0.35-0.79V7.41h-0.1c-0.17,0.32-0.4,0.56-0.71,0.73c-0.31,0.16-0.67,0.25-1.1,0.25
			c-0.37,0-0.71-0.07-1.01-0.21c-0.3-0.14-0.56-0.34-0.77-0.6c-0.21-0.26-0.37-0.57-0.48-0.94c-0.11-0.37-0.17-0.78-0.17-1.23
			c0-0.47,0.06-0.89,0.17-1.26c0.11-0.38,0.27-0.7,0.49-0.96c0.21-0.27,0.47-0.47,0.78-0.61c0.31-0.14,0.65-0.22,1.03-0.22
			c0.2,0,0.4,0.02,0.58,0.07s0.36,0.12,0.52,0.21c0.16,0.09,0.3,0.2,0.42,0.34c0.12,0.13,0.23,0.28,0.31,0.45h0.1V2.45h1.54v6
			c0,0.35-0.07,0.67-0.21,0.96c-0.14,0.28-0.34,0.53-0.6,0.73c-0.26,0.2-0.57,0.35-0.94,0.46C131.67,10.7,131.26,10.76,130.81,10.76
			z M132.21,5.41c0-0.27-0.03-0.51-0.1-0.72c-0.06-0.21-0.15-0.39-0.27-0.54c-0.12-0.15-0.26-0.26-0.43-0.34
			c-0.17-0.08-0.36-0.12-0.58-0.12s-0.41,0.04-0.58,0.12c-0.17,0.08-0.31,0.19-0.42,0.34c-0.12,0.15-0.21,0.33-0.27,0.54
			c-0.06,0.21-0.09,0.45-0.09,0.71c0,0.27,0.03,0.51,0.09,0.72c0.06,0.21,0.15,0.39,0.26,0.54c0.11,0.15,0.26,0.26,0.42,0.34
			c0.17,0.08,0.36,0.12,0.58,0.12s0.41-0.04,0.58-0.12c0.17-0.08,0.31-0.19,0.43-0.34c0.12-0.15,0.21-0.33,0.27-0.54
			C132.17,5.91,132.21,5.67,132.21,5.41z"/>
		<path d="M138.46,8.47V0.59h5.16V2h-3.51v2.05h3.21V5.4h-3.21v3.07H138.46z"/>
		<path d="M145.86,1.61c-0.14,0-0.27-0.02-0.39-0.06c-0.12-0.04-0.21-0.1-0.3-0.17c-0.08-0.07-0.15-0.16-0.19-0.25
			c-0.04-0.1-0.07-0.21-0.07-0.32c0-0.12,0.02-0.23,0.07-0.33c0.04-0.1,0.11-0.18,0.19-0.25c0.08-0.07,0.18-0.13,0.3-0.16
			c0.12-0.04,0.25-0.06,0.39-0.06c0.14,0,0.27,0.02,0.38,0.06s0.21,0.09,0.29,0.16c0.08,0.07,0.15,0.16,0.19,0.25
			c0.04,0.1,0.07,0.21,0.07,0.33c0,0.12-0.02,0.22-0.07,0.32c-0.05,0.1-0.11,0.18-0.19,0.25c-0.08,0.07-0.18,0.13-0.29,0.17
			C146.13,1.59,146.01,1.61,145.86,1.61z M145.07,2.45h1.59v6.03h-1.59V2.45z"/>
		<path d="M148.38,2.45h1.54v0.97h0.1c0.14-0.34,0.36-0.61,0.66-0.81c0.3-0.2,0.67-0.29,1.12-0.29c0.67,0,1.18,0.2,1.53,0.59
			s0.53,0.95,0.53,1.67v3.9h-1.59V4.95c0-0.42-0.09-0.74-0.27-0.95c-0.18-0.21-0.46-0.32-0.84-0.32c-0.19,0-0.35,0.03-0.5,0.09
			c-0.14,0.06-0.27,0.15-0.37,0.26c-0.1,0.12-0.18,0.25-0.24,0.42C150,4.62,149.97,4.8,149.97,5v3.47h-1.59V2.45z"/>
		<path d="M155.54,2.45h1.54v0.97h0.1c0.14-0.34,0.36-0.61,0.66-0.81c0.3-0.2,0.67-0.29,1.12-0.29c0.67,0,1.18,0.2,1.53,0.59
			s0.53,0.95,0.53,1.67v3.9h-1.59V4.95c0-0.42-0.09-0.74-0.27-0.95c-0.18-0.21-0.46-0.32-0.84-0.32c-0.19,0-0.35,0.03-0.5,0.09
			c-0.15,0.06-0.27,0.15-0.37,0.26c-0.1,0.12-0.18,0.25-0.24,0.42c-0.05,0.16-0.08,0.34-0.08,0.54v3.47h-1.59V2.45z"/>
		<path d="M162.7,2.45h1.54v0.98h0.1c0.06-0.17,0.15-0.33,0.25-0.46c0.11-0.14,0.23-0.26,0.38-0.35c0.14-0.1,0.3-0.17,0.48-0.22
			c0.17-0.05,0.36-0.08,0.56-0.08c0.42,0,0.78,0.1,1.06,0.29c0.28,0.19,0.48,0.47,0.6,0.82h0.1c0.07-0.17,0.16-0.32,0.28-0.46
			c0.12-0.14,0.25-0.25,0.41-0.35c0.16-0.1,0.33-0.17,0.52-0.23c0.19-0.05,0.39-0.08,0.6-0.08c0.3,0,0.57,0.05,0.81,0.14
			c0.24,0.09,0.45,0.23,0.62,0.4c0.17,0.17,0.3,0.39,0.39,0.64s0.14,0.53,0.14,0.84v4.14h-1.59V4.76c0-0.71-0.33-1.07-1-1.07
			c-0.16,0-0.31,0.03-0.44,0.08c-0.13,0.05-0.24,0.13-0.34,0.23c-0.09,0.1-0.16,0.21-0.21,0.35c-0.05,0.13-0.07,0.28-0.07,0.44v3.69
			h-1.53V4.69c0-0.32-0.09-0.57-0.26-0.74c-0.17-0.17-0.42-0.26-0.73-0.26c-0.16,0-0.3,0.03-0.43,0.09
			c-0.13,0.06-0.24,0.14-0.34,0.24c-0.1,0.1-0.17,0.22-0.22,0.37c-0.05,0.14-0.08,0.3-0.08,0.46v3.63h-1.59V2.45z"/>
		<path d="M174.85,8.57c-0.29,0-0.56-0.04-0.8-0.13c-0.24-0.09-0.45-0.21-0.62-0.37c-0.17-0.16-0.31-0.35-0.4-0.57
			c-0.1-0.22-0.15-0.47-0.15-0.75c0-0.55,0.2-0.98,0.6-1.29c0.4-0.31,0.98-0.48,1.73-0.53l1.46-0.09V4.36
			c0-0.25-0.09-0.45-0.26-0.58c-0.17-0.14-0.43-0.2-0.76-0.2c-0.29,0-0.53,0.05-0.71,0.14c-0.19,0.09-0.31,0.23-0.38,0.41h-1.46
			c0.03-0.28,0.11-0.53,0.24-0.75c0.14-0.22,0.32-0.41,0.55-0.57c0.23-0.16,0.5-0.28,0.81-0.36c0.31-0.08,0.66-0.13,1.04-0.13
			c0.4,0,0.75,0.05,1.06,0.14c0.31,0.09,0.57,0.23,0.79,0.4c0.21,0.17,0.37,0.39,0.48,0.64c0.11,0.25,0.17,0.54,0.17,0.86v4.11
			h-1.54V7.69h-0.1c-0.16,0.28-0.39,0.49-0.7,0.65C175.59,8.49,175.24,8.57,174.85,8.57z M175.37,7.37c0.19,0,0.36-0.03,0.51-0.08
			c0.15-0.05,0.29-0.13,0.41-0.23s0.21-0.21,0.27-0.34c0.07-0.13,0.1-0.27,0.1-0.43V5.85l-1.22,0.08c-0.68,0.05-1.02,0.29-1.02,0.73
			c0,0.23,0.09,0.4,0.26,0.53C174.87,7.31,175.09,7.37,175.37,7.37z"/>
		<path d="M179.92,2.45h1.54v0.96h0.1c0.04-0.15,0.11-0.29,0.2-0.42c0.1-0.13,0.21-0.24,0.35-0.34c0.13-0.09,0.29-0.17,0.46-0.22
			c0.17-0.05,0.35-0.08,0.54-0.08c0.11,0,0.22,0.01,0.34,0.02c0.12,0.01,0.21,0.03,0.28,0.06v1.45c-0.03-0.01-0.08-0.02-0.13-0.04
			c-0.06-0.01-0.12-0.02-0.19-0.03c-0.07-0.01-0.14-0.02-0.21-0.02c-0.08-0.01-0.15-0.01-0.21-0.01c-0.22,0-0.42,0.03-0.6,0.09
			c-0.18,0.06-0.33,0.15-0.46,0.27c-0.13,0.12-0.23,0.26-0.3,0.43c-0.07,0.17-0.11,0.36-0.11,0.57v3.34h-1.59V2.45z"/>
		<path d="M188.53,2.45h1.81l-2.29,2.58l2.45,3.44h-1.88l-1.76-2.45l-0.44,0.45v2h-1.59V0.15h1.59V4.8h0.1L188.53,2.45z"/>
		<path d="M194.89,3.76h-0.97V2.51h0.97V1.92c0-0.61,0.18-1.05,0.54-1.32c0.36-0.27,0.89-0.4,1.6-0.4c0.15,0,0.29,0,0.4,0.02
			c0.11,0.01,0.23,0.03,0.34,0.04V1.4c-0.05-0.01-0.12-0.02-0.22-0.03c-0.09-0.01-0.19-0.01-0.3-0.01c-0.28,0-0.48,0.06-0.62,0.17
			c-0.13,0.11-0.19,0.29-0.19,0.54v0.44h1.28v1.25h-1.25v4.71h-1.59V3.76z"/>
		<path d="M199.97,10.66c-0.02,0-0.05,0-0.11,0c-0.06,0-0.12,0-0.19,0c-0.07,0-0.13,0-0.19-0.01c-0.06,0-0.1,0-0.11-0.01V9.37
			c0.02,0,0.04,0.01,0.07,0.01c0.03,0,0.07,0,0.11,0c0.04,0,0.07,0,0.11,0c0.03,0,0.06,0,0.08,0c0.3,0,0.54-0.05,0.71-0.15
			c0.17-0.1,0.29-0.27,0.36-0.5l0.06-0.22l-2.11-6.06h1.75l1.27,4.57h0.1l1.27-4.57h1.68l-2.08,6.12c-0.13,0.39-0.27,0.72-0.43,0.98
			c-0.16,0.27-0.35,0.48-0.57,0.65c-0.22,0.17-0.47,0.29-0.76,0.36C200.67,10.63,200.34,10.66,199.97,10.66z"/>
		<path d="M205.99,0.15h1.59v8.33h-0.8h-0.8V0.15z"/>
		<path d="M213.06,2.45h1.81l-2.29,2.58l2.45,3.44h-1.88l-1.76-2.45l-0.44,0.45v2h-1.59V0.15h1.59V4.8h0.1L213.06,2.45z"/>
		<path d="M221.22,6.76c-0.06,0.28-0.17,0.54-0.33,0.77c-0.15,0.23-0.35,0.42-0.59,0.58c-0.24,0.16-0.51,0.28-0.82,0.37
			c-0.31,0.09-0.65,0.13-1.02,0.13c-0.46,0-0.87-0.07-1.23-0.21c-0.36-0.14-0.67-0.34-0.92-0.61c-0.25-0.27-0.44-0.59-0.58-0.98
			c-0.13-0.39-0.2-0.82-0.2-1.31c0-0.49,0.07-0.93,0.2-1.32c0.13-0.39,0.32-0.72,0.58-1s0.56-0.48,0.91-0.63
			c0.36-0.15,0.76-0.22,1.21-0.22c0.44,0,0.84,0.07,1.19,0.21c0.35,0.14,0.64,0.34,0.89,0.6c0.24,0.26,0.43,0.58,0.55,0.96
			c0.13,0.38,0.19,0.8,0.19,1.28v0.49h-4.13v0.08c0,0.23,0.04,0.43,0.11,0.61c0.07,0.18,0.16,0.33,0.28,0.46
			c0.12,0.13,0.26,0.22,0.43,0.29c0.17,0.07,0.36,0.1,0.56,0.1c0.32,0,0.58-0.05,0.79-0.16c0.21-0.11,0.36-0.26,0.44-0.46H221.22z
			 M218.45,3.53c-0.19,0-0.36,0.03-0.51,0.09c-0.15,0.06-0.29,0.15-0.4,0.26c-0.12,0.11-0.21,0.25-0.28,0.41
			c-0.07,0.16-0.11,0.34-0.13,0.53h2.57c-0.02-0.4-0.14-0.72-0.36-0.95C219.12,3.65,218.82,3.53,218.45,3.53z"/>
		<path d="M222.52,4.22c0-0.28,0.06-0.54,0.18-0.78c0.12-0.24,0.29-0.44,0.51-0.6c0.22-0.17,0.48-0.29,0.79-0.38
			c0.31-0.09,0.65-0.14,1.02-0.14c0.77,0,1.37,0.15,1.8,0.46c0.43,0.31,0.67,0.75,0.72,1.33h-1.47c-0.04-0.2-0.15-0.35-0.33-0.46
			c-0.18-0.11-0.41-0.17-0.71-0.17c-0.14,0-0.27,0.02-0.39,0.05c-0.12,0.03-0.23,0.07-0.31,0.13c-0.09,0.06-0.16,0.12-0.21,0.2
			c-0.05,0.08-0.08,0.16-0.08,0.26c0,0.15,0.07,0.27,0.2,0.37c0.13,0.1,0.34,0.17,0.62,0.24L226,4.97c0.29,0.07,0.54,0.15,0.76,0.24
			c0.21,0.1,0.39,0.21,0.53,0.34c0.14,0.13,0.24,0.29,0.31,0.46c0.07,0.17,0.1,0.37,0.1,0.6c0,0.3-0.06,0.58-0.19,0.82
			c-0.13,0.24-0.31,0.45-0.54,0.63c-0.23,0.17-0.51,0.31-0.84,0.4c-0.33,0.09-0.69,0.14-1.08,0.14c-0.4,0-0.75-0.04-1.07-0.12
			s-0.59-0.2-0.81-0.35c-0.23-0.15-0.4-0.34-0.54-0.57c-0.13-0.22-0.21-0.48-0.24-0.77h1.55c0.06,0.21,0.19,0.37,0.38,0.48
			c0.19,0.11,0.44,0.17,0.77,0.17c0.15,0,0.29-0.02,0.42-0.05c0.13-0.03,0.24-0.07,0.33-0.13c0.09-0.06,0.16-0.12,0.21-0.2
			c0.05-0.08,0.08-0.17,0.08-0.26c0-0.15-0.06-0.27-0.18-0.36c-0.12-0.09-0.31-0.17-0.58-0.23l-1.09-0.25
			c-0.59-0.13-1.02-0.33-1.31-0.62C222.67,5.06,222.52,4.68,222.52,4.22z"/>
		<path d="M232.85,2.45h1.81l-2.3,2.58l2.45,3.44h-1.88l-1.76-2.45l-0.44,0.45v2h-1.59V0.15h1.59V4.8h0.1L232.85,2.45z"/>
		<path d="M238.3,8.6c-0.46,0-0.88-0.07-1.25-0.21c-0.37-0.14-0.68-0.35-0.93-0.62c-0.26-0.27-0.45-0.6-0.59-0.99
			c-0.13-0.39-0.2-0.83-0.2-1.32c0-0.49,0.07-0.93,0.21-1.31c0.13-0.39,0.33-0.72,0.59-0.99c0.26-0.27,0.57-0.48,0.93-0.62
			c0.37-0.14,0.78-0.22,1.24-0.22c0.46,0,0.87,0.07,1.24,0.22c0.37,0.14,0.68,0.35,0.93,0.62c0.26,0.27,0.45,0.6,0.59,0.99
			c0.14,0.39,0.21,0.83,0.21,1.31c0,0.49-0.07,0.93-0.2,1.32c-0.13,0.39-0.33,0.72-0.58,0.99c-0.25,0.27-0.57,0.48-0.93,0.62
			S238.77,8.6,238.3,8.6z M238.3,7.3c0.42,0,0.75-0.16,0.99-0.48c0.23-0.32,0.35-0.78,0.35-1.36c0-0.29-0.03-0.55-0.09-0.78
			c-0.06-0.23-0.15-0.42-0.26-0.58c-0.12-0.16-0.25-0.28-0.42-0.36c-0.16-0.08-0.35-0.13-0.56-0.13c-0.21,0-0.4,0.04-0.57,0.13
			c-0.17,0.08-0.31,0.2-0.42,0.36c-0.11,0.16-0.2,0.35-0.26,0.58c-0.06,0.23-0.09,0.49-0.09,0.78c0,0.59,0.12,1.05,0.35,1.37
			C237.55,7.14,237.88,7.3,238.3,7.3z"/>
		<path d="M242.69,2.45h1.54v0.98h0.1c0.06-0.17,0.15-0.33,0.25-0.46c0.11-0.14,0.23-0.26,0.38-0.35c0.14-0.1,0.3-0.17,0.48-0.22
			c0.17-0.05,0.36-0.08,0.56-0.08c0.42,0,0.78,0.1,1.06,0.29c0.28,0.19,0.48,0.47,0.6,0.82h0.1c0.07-0.17,0.16-0.32,0.28-0.46
			c0.12-0.14,0.25-0.25,0.41-0.35c0.16-0.1,0.33-0.17,0.52-0.23c0.19-0.05,0.39-0.08,0.6-0.08c0.3,0,0.57,0.05,0.81,0.14
			c0.24,0.09,0.45,0.23,0.62,0.4c0.17,0.17,0.3,0.39,0.39,0.64s0.14,0.53,0.14,0.84v4.14h-1.59V4.76c0-0.71-0.33-1.07-1-1.07
			c-0.16,0-0.31,0.03-0.44,0.08c-0.13,0.05-0.24,0.13-0.34,0.23c-0.09,0.1-0.16,0.21-0.21,0.35c-0.05,0.13-0.07,0.28-0.07,0.44v3.69
			h-1.53V4.69c0-0.32-0.09-0.57-0.26-0.74c-0.17-0.17-0.42-0.26-0.73-0.26c-0.16,0-0.3,0.03-0.43,0.09
			c-0.13,0.06-0.24,0.14-0.34,0.24c-0.1,0.1-0.17,0.22-0.22,0.37c-0.05,0.14-0.08,0.3-0.08,0.46v3.63h-1.59V2.45z"/>
		<path d="M253.21,2.45h1.54v0.98h0.1c0.06-0.17,0.15-0.33,0.25-0.46c0.11-0.14,0.23-0.26,0.38-0.35c0.14-0.1,0.3-0.17,0.48-0.22
			c0.17-0.05,0.36-0.08,0.56-0.08c0.42,0,0.78,0.1,1.06,0.29c0.28,0.19,0.48,0.47,0.6,0.82h0.1c0.07-0.17,0.16-0.32,0.28-0.46
			c0.12-0.14,0.25-0.25,0.41-0.35s0.33-0.17,0.52-0.23c0.19-0.05,0.39-0.08,0.6-0.08c0.3,0,0.57,0.05,0.81,0.14
			c0.24,0.09,0.45,0.23,0.61,0.4c0.17,0.17,0.3,0.39,0.39,0.64s0.14,0.53,0.14,0.84v4.14h-1.59V4.76c0-0.71-0.33-1.07-1-1.07
			c-0.16,0-0.31,0.03-0.44,0.08c-0.13,0.05-0.24,0.13-0.34,0.23c-0.09,0.1-0.16,0.21-0.21,0.35c-0.05,0.13-0.07,0.28-0.07,0.44v3.69
			h-1.53V4.69c0-0.32-0.09-0.57-0.26-0.74c-0.17-0.17-0.42-0.26-0.73-0.26c-0.16,0-0.3,0.03-0.43,0.09
			c-0.13,0.06-0.24,0.14-0.34,0.24s-0.17,0.22-0.22,0.37c-0.05,0.14-0.08,0.3-0.08,0.46v3.63h-1.59V2.45z"/>
		<path d="M269.17,8.47h-1.54V7.51h-0.1c-0.14,0.35-0.36,0.62-0.64,0.81c-0.29,0.19-0.66,0.28-1.12,0.28
			c-0.32,0-0.61-0.05-0.88-0.15s-0.48-0.25-0.66-0.44c-0.18-0.19-0.32-0.43-0.42-0.7c-0.1-0.28-0.15-0.59-0.15-0.94V2.45h1.59v3.52
			c0,0.84,0.37,1.26,1.11,1.26c0.4,0,0.7-0.12,0.91-0.35c0.21-0.23,0.31-0.55,0.31-0.95V2.45h1.59V8.47z"/>
		<path d="M270.88,2.45h1.54v0.97h0.1c0.14-0.34,0.36-0.61,0.66-0.81c0.3-0.2,0.67-0.29,1.12-0.29c0.67,0,1.18,0.2,1.53,0.59
			s0.53,0.95,0.53,1.67v3.9h-1.59V4.95c0-0.42-0.09-0.74-0.27-0.95c-0.18-0.21-0.46-0.32-0.84-0.32c-0.19,0-0.35,0.03-0.5,0.09
			s-0.27,0.15-0.37,0.26c-0.1,0.12-0.18,0.25-0.24,0.42c-0.05,0.16-0.08,0.34-0.08,0.54v3.47h-1.59V2.45z"/>
		<path d="M283.42,6.76c-0.06,0.28-0.17,0.54-0.33,0.77c-0.15,0.23-0.35,0.42-0.59,0.58c-0.24,0.16-0.51,0.28-0.82,0.37
			s-0.65,0.13-1.02,0.13c-0.46,0-0.87-0.07-1.23-0.21c-0.36-0.14-0.67-0.34-0.92-0.61c-0.25-0.27-0.44-0.59-0.57-0.98
			c-0.13-0.39-0.2-0.82-0.2-1.31c0-0.49,0.07-0.93,0.2-1.32c0.13-0.39,0.33-0.72,0.58-1c0.25-0.27,0.56-0.48,0.91-0.63
			c0.36-0.15,0.76-0.22,1.21-0.22c0.44,0,0.84,0.07,1.19,0.21c0.35,0.14,0.65,0.34,0.89,0.6c0.24,0.26,0.43,0.58,0.56,0.96
			c0.13,0.38,0.19,0.8,0.19,1.28v0.49h-4.13v0.08c0,0.23,0.04,0.43,0.11,0.61c0.07,0.18,0.16,0.33,0.28,0.46
			c0.12,0.13,0.26,0.22,0.43,0.29c0.17,0.07,0.35,0.1,0.56,0.1c0.32,0,0.58-0.05,0.79-0.16c0.21-0.11,0.36-0.26,0.44-0.46H283.42z
			 M280.65,3.53c-0.19,0-0.35,0.03-0.51,0.09c-0.15,0.06-0.29,0.15-0.4,0.26c-0.12,0.11-0.21,0.25-0.28,0.41
			c-0.07,0.16-0.11,0.34-0.12,0.53h2.57c-0.02-0.4-0.14-0.72-0.36-0.95C281.32,3.65,281.02,3.53,280.65,3.53z"/>
		<g>
			<path d="M86.25,14.17c0.43,0,0.81,0.07,1.15,0.2c0.34,0.13,0.61,0.31,0.81,0.54c0.2,0.22,0.35,0.48,0.45,0.76
				c0.1,0.28,0.15,0.58,0.15,0.91c0,0.61-0.15,1.1-0.44,1.47c-0.29,0.37-0.65,0.64-1.08,0.79l1.66,3.46h-1.09l-1.51-3.26h-2.05v3.26
				h-0.96v-8.12H86.25z M84.31,18.17h1.78c0.58,0,1.01-0.13,1.31-0.4c0.29-0.27,0.44-0.64,0.44-1.14c0-0.52-0.15-0.93-0.45-1.2
				c-0.3-0.28-0.72-0.42-1.25-0.42h-1.82V18.17z"/>
			<path d="M92.63,15.95c0.78,0,1.42,0.24,1.91,0.73c0.49,0.48,0.74,1.15,0.74,2v0.99c0,0.85-0.25,1.52-0.74,2
				c-0.5,0.49-1.13,0.73-1.9,0.73c-0.79,0-1.43-0.24-1.92-0.72c-0.49-0.48-0.73-1.15-0.73-2.01v-0.99c0-0.82,0.25-1.48,0.75-1.98
				C91.23,16.2,91.86,15.95,92.63,15.95z M90.91,18.78v0.78c0,0.41,0.07,0.77,0.2,1.07c0.14,0.3,0.33,0.53,0.59,0.69
				c0.26,0.16,0.57,0.25,0.92,0.25c0.54,0,0.95-0.18,1.25-0.54c0.3-0.36,0.45-0.85,0.45-1.46v-0.78c0-0.61-0.15-1.09-0.46-1.46
				c-0.31-0.36-0.72-0.54-1.24-0.54c-0.52,0-0.94,0.18-1.25,0.55C91.07,17.69,90.91,18.17,90.91,18.78z"/>
			<path d="M96.66,22.29v-6.24h0.93v0.99h0.06c0.24-0.72,0.8-1.09,1.68-1.09c0.23,0,0.45,0.03,0.64,0.09
				c0.19,0.06,0.37,0.14,0.51,0.25c0.14,0.11,0.27,0.23,0.37,0.37c0.1,0.14,0.17,0.29,0.22,0.46h0.05c0.14-0.34,0.37-0.62,0.69-0.84
				c0.32-0.22,0.72-0.33,1.21-0.33c0.65,0,1.16,0.17,1.52,0.51c0.37,0.34,0.55,0.82,0.55,1.44v4.4h-0.93v-4.17
				c0-0.41-0.12-0.74-0.35-0.98c-0.23-0.25-0.56-0.37-1-0.37c-0.42,0-0.77,0.14-1.04,0.43c-0.28,0.29-0.42,0.64-0.42,1.07v4.03
				h-0.93v-4.11c0-0.42-0.13-0.76-0.38-1.02c-0.25-0.26-0.59-0.39-1.02-0.39c-0.41,0-0.75,0.14-1.02,0.42
				c-0.27,0.28-0.4,0.64-0.4,1.07v4.04H96.66z"/>
			<path d="M106.66,17.82c0-0.62,0.22-1.08,0.65-1.4c0.44-0.32,0.98-0.48,1.62-0.48c0.32,0,0.62,0.04,0.9,0.13
				c0.27,0.09,0.5,0.21,0.69,0.36c0.19,0.15,0.34,0.33,0.44,0.54c0.1,0.21,0.15,0.44,0.15,0.69h-0.87
				c-0.02-0.16-0.07-0.31-0.16-0.45c-0.1-0.14-0.25-0.26-0.45-0.36c-0.21-0.1-0.45-0.15-0.73-0.15c-0.26,0-0.49,0.04-0.68,0.11
				c-0.2,0.08-0.35,0.19-0.47,0.35s-0.17,0.33-0.17,0.54c0,0.15,0.03,0.27,0.09,0.38c0.06,0.11,0.13,0.19,0.21,0.25
				c0.08,0.06,0.19,0.12,0.33,0.17c0.15,0.05,0.27,0.09,0.37,0.11c0.09,0.02,0.23,0.05,0.41,0.08c0.02,0,0.03,0,0.04,0.01
				c0.01,0,0.03,0.01,0.04,0.01c0.02,0,0.03,0.01,0.04,0.02c0.22,0.04,0.41,0.07,0.57,0.11c0.16,0.04,0.33,0.09,0.51,0.15
				c0.18,0.06,0.33,0.13,0.45,0.22c0.12,0.08,0.23,0.18,0.34,0.3c0.11,0.12,0.19,0.25,0.24,0.42c0.05,0.16,0.07,0.34,0.07,0.54
				c0,0.6-0.22,1.08-0.67,1.42c-0.45,0.34-1.04,0.51-1.77,0.51c-0.68,0-1.23-0.15-1.65-0.45c-0.42-0.3-0.63-0.72-0.63-1.27h0.92
				c0.09,0.62,0.56,0.93,1.41,0.93c0.34,0,0.62-0.05,0.85-0.14c0.23-0.09,0.39-0.22,0.49-0.36c0.1-0.15,0.15-0.32,0.15-0.53
				c0-0.14-0.03-0.26-0.09-0.37c-0.06-0.11-0.12-0.19-0.2-0.25c-0.08-0.06-0.2-0.12-0.36-0.18c-0.16-0.06-0.3-0.1-0.42-0.13
				c-0.12-0.03-0.29-0.06-0.5-0.11c-0.29-0.06-0.52-0.11-0.68-0.15c-0.17-0.04-0.36-0.11-0.57-0.2c-0.21-0.09-0.37-0.19-0.48-0.3
				c-0.11-0.11-0.2-0.25-0.28-0.43C106.7,18.27,106.66,18.06,106.66,17.82z"/>
			<path d="M112.61,17.82c0-0.62,0.22-1.08,0.65-1.4c0.44-0.32,0.98-0.48,1.62-0.48c0.32,0,0.62,0.04,0.9,0.13
				c0.27,0.09,0.5,0.21,0.69,0.36c0.19,0.15,0.34,0.33,0.44,0.54c0.1,0.21,0.15,0.44,0.15,0.69h-0.87
				c-0.02-0.16-0.07-0.31-0.16-0.45c-0.1-0.14-0.25-0.26-0.45-0.36c-0.21-0.1-0.45-0.15-0.73-0.15c-0.26,0-0.49,0.04-0.68,0.11
				c-0.2,0.08-0.35,0.19-0.47,0.35s-0.17,0.33-0.17,0.54c0,0.15,0.03,0.27,0.09,0.38c0.06,0.11,0.13,0.19,0.21,0.25
				c0.08,0.06,0.19,0.12,0.33,0.17c0.15,0.05,0.27,0.09,0.37,0.11c0.09,0.02,0.23,0.05,0.41,0.08c0.02,0,0.03,0,0.04,0.01
				c0.01,0,0.03,0.01,0.04,0.01c0.02,0,0.03,0.01,0.04,0.02c0.22,0.04,0.41,0.07,0.57,0.11c0.16,0.04,0.33,0.09,0.51,0.15
				c0.18,0.06,0.33,0.13,0.45,0.22c0.12,0.08,0.23,0.18,0.34,0.3c0.11,0.12,0.19,0.25,0.24,0.42c0.05,0.16,0.07,0.34,0.07,0.54
				c0,0.6-0.22,1.08-0.67,1.42c-0.45,0.34-1.04,0.51-1.77,0.51c-0.68,0-1.23-0.15-1.65-0.45c-0.42-0.3-0.63-0.72-0.63-1.27h0.92
				c0.09,0.62,0.56,0.93,1.41,0.93c0.34,0,0.62-0.05,0.85-0.14c0.23-0.09,0.39-0.22,0.49-0.36c0.1-0.15,0.15-0.32,0.15-0.53
				c0-0.14-0.03-0.26-0.09-0.37c-0.06-0.11-0.12-0.19-0.2-0.25c-0.08-0.06-0.2-0.12-0.36-0.18c-0.16-0.06-0.3-0.1-0.42-0.13
				c-0.12-0.03-0.29-0.06-0.5-0.11c-0.29-0.06-0.52-0.11-0.68-0.15c-0.17-0.04-0.36-0.11-0.57-0.2c-0.21-0.09-0.37-0.19-0.48-0.3
				c-0.11-0.11-0.2-0.25-0.28-0.43C112.65,18.27,112.61,18.06,112.61,17.82z"/>
			<path d="M120.57,22.39c-0.29,0-0.57-0.05-0.83-0.14c-0.25-0.09-0.47-0.22-0.64-0.39c-0.17-0.16-0.31-0.37-0.42-0.6
				c-0.1-0.24-0.15-0.5-0.15-0.79c0-0.36,0.08-0.68,0.25-0.95c0.16-0.27,0.41-0.48,0.75-0.64c0.33-0.15,0.73-0.23,1.19-0.23h1.67
				v-0.64c0-0.42-0.12-0.72-0.37-0.92c-0.24-0.2-0.58-0.3-1.02-0.3c-0.72,0-1.16,0.25-1.32,0.75h-0.91
				c0.05-0.52,0.28-0.92,0.67-1.19s0.93-0.4,1.6-0.4c0.67,0,1.22,0.17,1.65,0.5c0.42,0.33,0.64,0.85,0.64,1.55v4.29h-0.91v-0.84
				h-0.03C122,22.08,121.39,22.39,120.57,22.39z M120.8,21.58c0.45,0,0.83-0.14,1.13-0.41c0.31-0.27,0.46-0.61,0.46-1.02v-0.73
				h-1.65c-0.43,0-0.74,0.1-0.94,0.28c-0.2,0.19-0.3,0.44-0.3,0.75c0,0.36,0.13,0.64,0.38,0.84
				C120.14,21.49,120.44,21.58,120.8,21.58z"/>
			<path d="M128.7,16.04v6.45c0,1.36-0.54,2.04-1.63,2.04c-0.25,0-0.44-0.02-0.58-0.05v-0.76c0.11,0.02,0.24,0.03,0.4,0.03
				c0.33,0,0.55-0.1,0.68-0.3c0.13-0.2,0.19-0.52,0.19-0.96v-6.44H128.7z M127.53,14.1c0-0.2,0.07-0.37,0.2-0.51
				c0.14-0.13,0.3-0.2,0.5-0.2c0.21,0,0.38,0.07,0.51,0.2c0.13,0.13,0.2,0.3,0.2,0.51c0,0.14-0.03,0.26-0.09,0.37
				c-0.06,0.11-0.15,0.19-0.25,0.24c-0.11,0.06-0.23,0.08-0.36,0.08c-0.2,0-0.36-0.07-0.5-0.2C127.59,14.47,127.53,14.3,127.53,14.1
				z"/>
			<path d="M132.32,22.39c-0.3,0-0.57-0.05-0.83-0.14c-0.25-0.09-0.47-0.22-0.65-0.39c-0.17-0.16-0.31-0.37-0.41-0.6
				s-0.15-0.5-0.15-0.79c0-0.36,0.08-0.68,0.25-0.95c0.16-0.27,0.41-0.48,0.75-0.64c0.33-0.15,0.73-0.23,1.19-0.23h1.67v-0.64
				c0-0.42-0.12-0.72-0.36-0.92c-0.24-0.2-0.58-0.3-1.02-0.3c-0.72,0-1.16,0.25-1.32,0.75h-0.91c0.05-0.52,0.28-0.92,0.67-1.19
				c0.4-0.27,0.93-0.4,1.6-0.4c0.67,0,1.22,0.17,1.65,0.5c0.43,0.33,0.64,0.85,0.64,1.55v4.29h-0.91v-0.84h-0.03
				C133.75,22.08,133.14,22.39,132.32,22.39z M132.56,21.58c0.45,0,0.82-0.14,1.13-0.41c0.3-0.27,0.46-0.61,0.46-1.02v-0.73h-1.65
				c-0.42,0-0.74,0.1-0.94,0.28c-0.2,0.19-0.3,0.44-0.3,0.75c0,0.36,0.13,0.64,0.38,0.84C131.89,21.49,132.19,21.58,132.56,21.58z"
				/>
			<path d="M140.31,22.29h-0.96v-8.12h4.74v0.86h-3.79v2.84h3.48v0.87h-3.48V22.29z"/>
			<path d="M145.45,14.1c0-0.2,0.07-0.37,0.21-0.51c0.13-0.13,0.3-0.2,0.5-0.2c0.2,0,0.37,0.07,0.5,0.2c0.13,0.13,0.2,0.3,0.2,0.51
				c0,0.14-0.03,0.26-0.09,0.37c-0.06,0.11-0.14,0.19-0.25,0.24c-0.11,0.06-0.23,0.08-0.36,0.08c-0.2,0-0.37-0.07-0.5-0.2
				C145.52,14.47,145.45,14.3,145.45,14.1z M145.7,22.29v-6.24h0.93v6.24H145.7z"/>
			<path d="M148.64,22.29v-6.24h0.93v1.15h0.06c0.27-0.83,0.9-1.25,1.89-1.25c0.65,0,1.17,0.18,1.56,0.53
				c0.38,0.35,0.58,0.86,0.58,1.53v4.29h-0.94V18.3c0-0.5-0.12-0.88-0.37-1.14c-0.25-0.26-0.59-0.39-1.04-0.39
				c-0.57,0-1,0.19-1.3,0.57c-0.3,0.38-0.45,0.87-0.45,1.46v3.5H148.64z"/>
			<path d="M155.49,22.29v-6.24h0.93v1.15h0.06c0.27-0.83,0.9-1.25,1.9-1.25c0.65,0,1.17,0.18,1.55,0.53
				c0.38,0.35,0.58,0.86,0.58,1.53v4.29h-0.93V18.3c0-0.5-0.12-0.88-0.37-1.14c-0.25-0.26-0.59-0.39-1.04-0.39
				c-0.57,0-1,0.19-1.3,0.57s-0.44,0.87-0.44,1.46v3.5H155.49z"/>
			<path d="M162.37,22.29v-6.24h0.93v0.99h0.06c0.24-0.72,0.8-1.09,1.68-1.09c0.23,0,0.45,0.03,0.64,0.09
				c0.19,0.06,0.36,0.14,0.51,0.25c0.14,0.11,0.27,0.23,0.37,0.37c0.1,0.14,0.17,0.29,0.22,0.46h0.05c0.14-0.34,0.37-0.62,0.69-0.84
				c0.32-0.22,0.72-0.33,1.2-0.33c0.65,0,1.16,0.17,1.52,0.51c0.37,0.34,0.55,0.82,0.55,1.44v4.4h-0.93v-4.17
				c0-0.41-0.12-0.74-0.35-0.98c-0.23-0.25-0.57-0.37-1-0.37c-0.42,0-0.77,0.14-1.04,0.43c-0.28,0.29-0.42,0.64-0.42,1.07v4.03
				h-0.93v-4.11c0-0.42-0.13-0.76-0.38-1.02c-0.25-0.26-0.59-0.39-1.02-0.39c-0.41,0-0.75,0.14-1.02,0.42
				c-0.27,0.28-0.4,0.64-0.4,1.07v4.04H162.37z"/>
			<path d="M174.35,22.39c-0.29,0-0.57-0.05-0.83-0.14c-0.25-0.09-0.47-0.22-0.64-0.39c-0.17-0.16-0.31-0.37-0.42-0.6
				s-0.15-0.5-0.15-0.79c0-0.36,0.08-0.68,0.25-0.95c0.16-0.27,0.41-0.48,0.75-0.64c0.33-0.15,0.73-0.23,1.19-0.23h1.67v-0.64
				c0-0.42-0.12-0.72-0.37-0.92c-0.24-0.2-0.58-0.3-1.02-0.3c-0.72,0-1.16,0.25-1.32,0.75h-0.91c0.05-0.52,0.28-0.92,0.67-1.19
				c0.4-0.27,0.93-0.4,1.6-0.4c0.67,0,1.22,0.17,1.65,0.5c0.42,0.33,0.64,0.85,0.64,1.55v4.29h-0.91v-0.84h-0.03
				C175.77,22.08,175.17,22.39,174.35,22.39z M174.58,21.58c0.45,0,0.83-0.14,1.13-0.41c0.31-0.27,0.46-0.61,0.46-1.02v-0.73h-1.65
				c-0.43,0-0.74,0.1-0.94,0.28c-0.2,0.19-0.3,0.44-0.3,0.75c0,0.36,0.13,0.64,0.38,0.84C173.91,21.49,174.22,21.58,174.58,21.58z
				 M174.71,15.01l1.43-2.1h0.95l-1.66,2.1H174.71z"/>
			<path d="M178.97,22.29v-6.24h0.93v0.97h0.05c0.11-0.28,0.3-0.53,0.57-0.74c0.28-0.21,0.67-0.32,1.17-0.32
				c0.08,0,0.2,0.01,0.37,0.02v0.86c-0.09-0.01-0.25-0.02-0.48-0.02c-0.36,0-0.67,0.07-0.93,0.21c-0.26,0.14-0.44,0.32-0.57,0.55
				c-0.12,0.22-0.18,0.48-0.18,0.77v3.94H178.97z"/>
			<path d="M184.37,19.96v2.33h-0.93v-8.55h0.93v5.17h0.03l2.64-2.87h1.1l-2.5,2.72l2.66,3.52h-1.13l-2.21-2.93L184.37,19.96z"/>
			<path d="M190.6,19.96v2.33h-0.93v-8.55h0.93v5.17h0.03l2.64-2.87h1.1l-2.5,2.72l2.66,3.52h-1.12l-2.21-2.93L190.6,19.96z"/>
			<path d="M200.6,16.04v6.24h-0.93v-1.03h-0.06c-0.11,0.3-0.32,0.57-0.63,0.79c-0.32,0.23-0.72,0.34-1.22,0.34
				c-0.67,0-1.19-0.16-1.58-0.48c-0.38-0.32-0.58-0.82-0.58-1.5v-4.37h0.94v4.13c0,0.94,0.47,1.41,1.42,1.41
				c0.48,0,0.88-0.15,1.21-0.46c0.33-0.3,0.49-0.66,0.49-1.08v-4H200.6z"/>
			<path d="M205.34,22.29v-5.45h-1.06v-0.8h1.06v-0.62c0-0.6,0.15-1.04,0.45-1.32c0.3-0.28,0.78-0.42,1.45-0.42
				c0.24,0,0.46,0.01,0.67,0.04v0.79c-0.13-0.01-0.31-0.02-0.56-0.02c-0.39,0-0.67,0.07-0.83,0.22c-0.17,0.14-0.25,0.41-0.25,0.79
				v0.55h1.46v0.8h-1.46v5.45H205.34z"/>
			<path d="M214.41,16.04l-2.26,6.31l-0.16,0.44c-0.1,0.27-0.2,0.5-0.29,0.67c-0.09,0.17-0.21,0.36-0.37,0.55s-0.34,0.34-0.57,0.43
				c-0.23,0.09-0.49,0.14-0.79,0.14c-0.2,0-0.4-0.01-0.6-0.04v-0.79c0.11,0.02,0.26,0.03,0.45,0.03c0.35,0,0.62-0.08,0.81-0.25
				c0.19-0.17,0.33-0.43,0.43-0.78l0.1-0.35l-2.33-6.35h1.04l1.74,5.28h0.03l1.75-5.28H214.41z"/>
			<path d="M215.87,22.29v-8.55h0.94v8.55h-0.47H215.87z"/>
			<path d="M219.76,19.96v2.33h-0.93v-8.55h0.93v5.17h0.03l2.64-2.87h1.1l-2.5,2.72l2.66,3.52h-1.13l-2.21-2.93L219.76,19.96z"/>
			<path d="M225.9,19.96v2.33h-0.93v-8.55h0.93v5.17h0.03l2.64-2.87h1.1l-2.5,2.72l2.66,3.52h-1.13l-2.21-2.93L225.9,19.96z"/>
			<path d="M232.71,22.39c-0.3,0-0.57-0.05-0.83-0.14c-0.25-0.09-0.47-0.22-0.65-0.39c-0.17-0.16-0.31-0.37-0.41-0.6
				c-0.1-0.24-0.15-0.5-0.15-0.79c0-0.36,0.08-0.68,0.25-0.95c0.16-0.27,0.41-0.48,0.75-0.64c0.33-0.15,0.73-0.23,1.19-0.23h1.67
				v-0.64c0-0.42-0.12-0.72-0.36-0.92c-0.24-0.2-0.58-0.3-1.02-0.3c-0.72,0-1.16,0.25-1.32,0.75h-0.91
				c0.05-0.52,0.28-0.92,0.67-1.19c0.4-0.27,0.93-0.4,1.6-0.4c0.67,0,1.22,0.17,1.65,0.5c0.43,0.33,0.64,0.85,0.64,1.55v4.29h-0.91
				v-0.84h-0.03C234.13,22.08,233.52,22.39,232.71,22.39z M232.94,21.58c0.45,0,0.82-0.14,1.13-0.41c0.3-0.27,0.46-0.61,0.46-1.02
				v-0.73h-1.65c-0.42,0-0.74,0.1-0.94,0.28c-0.2,0.19-0.3,0.44-0.3,0.75c0,0.36,0.13,0.64,0.38,0.84
				C232.27,21.49,232.58,21.58,232.94,21.58z"/>
			<path d="M239.63,23.8c0.57,0,1-0.14,1.29-0.43c0.29-0.29,0.44-0.69,0.44-1.22V21.2h-0.06c-0.08,0.18-0.21,0.35-0.37,0.49
				c-0.16,0.15-0.37,0.26-0.61,0.35c-0.24,0.09-0.5,0.13-0.79,0.13c-0.46,0-0.88-0.1-1.26-0.31c-0.37-0.2-0.67-0.5-0.9-0.9
				c-0.22-0.4-0.34-0.85-0.34-1.37v-1.06c0-0.39,0.07-0.74,0.19-1.07c0.13-0.33,0.31-0.6,0.53-0.82c0.22-0.22,0.49-0.39,0.79-0.51
				c0.3-0.12,0.63-0.18,0.98-0.18c0.44,0,0.82,0.1,1.15,0.31c0.33,0.21,0.56,0.45,0.67,0.72h0.04v-0.93h0.88v6.1
				c0,0.83-0.24,1.45-0.71,1.87c-0.48,0.42-1.14,0.63-1.99,0.63c-0.74,0-1.31-0.16-1.71-0.47c-0.4-0.32-0.63-0.71-0.68-1.2h0.98
				c0.04,0.23,0.19,0.43,0.45,0.6C238.87,23.72,239.21,23.8,239.63,23.8z M239.72,16.78c-0.27,0-0.51,0.05-0.73,0.14
				c-0.22,0.1-0.4,0.23-0.55,0.4c-0.15,0.17-0.26,0.38-0.34,0.63c-0.08,0.25-0.12,0.52-0.12,0.81v0.61c0,0.58,0.16,1.06,0.49,1.42
				c0.33,0.36,0.75,0.55,1.26,0.55c0.5,0,0.9-0.17,1.19-0.52s0.43-0.76,0.43-1.24v-1.01c0-0.49-0.15-0.91-0.44-1.27
				C240.6,16.95,240.21,16.78,239.72,16.78z"/>
			<path d="M244.03,14.1c0-0.2,0.07-0.37,0.2-0.51c0.14-0.13,0.3-0.2,0.5-0.2c0.2,0,0.37,0.07,0.51,0.2c0.13,0.13,0.2,0.3,0.2,0.51
				c0,0.14-0.03,0.26-0.09,0.37c-0.06,0.11-0.15,0.19-0.25,0.24s-0.23,0.08-0.36,0.08c-0.2,0-0.36-0.07-0.5-0.2
				C244.1,14.47,244.03,14.3,244.03,14.1z M244.27,22.29v-6.24h0.93v6.24H244.27z"/>
			<path d="M249.56,22.39c-0.82,0-1.46-0.25-1.92-0.74c-0.46-0.49-0.69-1.15-0.69-1.99v-1.01c0-0.82,0.24-1.48,0.71-1.97
				c0.47-0.5,1.08-0.74,1.83-0.74c0.75,0,1.36,0.25,1.83,0.74c0.47,0.49,0.71,1.15,0.71,1.97v0.76h-4.14v0.32
				c0,0.53,0.15,0.96,0.44,1.31c0.29,0.34,0.7,0.51,1.23,0.51c0.37,0,0.67-0.07,0.92-0.22c0.25-0.15,0.4-0.32,0.47-0.53h0.99
				c-0.03,0.17-0.1,0.35-0.21,0.52c-0.11,0.18-0.26,0.34-0.44,0.51c-0.19,0.16-0.43,0.3-0.73,0.4
				C250.26,22.34,249.93,22.39,249.56,22.39z M247.89,18.7h3.19V18.6c0-0.36-0.07-0.68-0.2-0.96c-0.13-0.28-0.32-0.49-0.56-0.64
				c-0.24-0.15-0.52-0.22-0.84-0.22c-0.48,0-0.86,0.16-1.16,0.49c-0.29,0.33-0.44,0.77-0.44,1.32V18.7z"/>
			<path d="M253.7,22.29v-8.55h0.95v8.55h-0.47H253.7z"/>
			<path d="M258.77,15.95c0.48,0,0.88,0.1,1.19,0.3c0.31,0.2,0.52,0.44,0.63,0.72h0.04v-3.22h0.93v8.55h-0.88V21.3h-0.05
				c-0.08,0.28-0.29,0.53-0.62,0.75c-0.33,0.22-0.76,0.33-1.27,0.33c-0.72,0-1.3-0.23-1.75-0.7s-0.66-1.09-0.66-1.87v-1.29
				c0-0.76,0.22-1.38,0.66-1.86C257.43,16.18,258.03,15.95,258.77,15.95z M258.89,16.78c-0.5,0-0.9,0.17-1.2,0.52
				c-0.29,0.35-0.44,0.83-0.44,1.46v0.82c0,0.63,0.15,1.11,0.45,1.46c0.3,0.35,0.71,0.52,1.22,0.52c0.52,0,0.93-0.17,1.24-0.5
				c0.31-0.34,0.46-0.8,0.46-1.37v-1.17c0-0.5-0.16-0.91-0.49-1.24C259.82,16.94,259.4,16.78,258.89,16.78z"/>
			<path d="M265.19,22.39c-0.29,0-0.57-0.05-0.83-0.14c-0.25-0.09-0.47-0.22-0.64-0.39c-0.17-0.16-0.31-0.37-0.42-0.6
				c-0.1-0.24-0.15-0.5-0.15-0.79c0-0.36,0.08-0.68,0.25-0.95c0.16-0.27,0.41-0.48,0.75-0.64c0.33-0.15,0.73-0.23,1.19-0.23h1.67
				v-0.64c0-0.42-0.12-0.72-0.37-0.92c-0.24-0.2-0.58-0.3-1.02-0.3c-0.72,0-1.16,0.25-1.32,0.75h-0.91
				c0.05-0.52,0.28-0.92,0.67-1.19c0.4-0.27,0.93-0.4,1.6-0.4c0.67,0,1.22,0.17,1.65,0.5c0.42,0.33,0.64,0.85,0.64,1.55v4.29h-0.91
				v-0.84h-0.03C266.61,22.08,266.01,22.39,265.19,22.39z M265.42,21.58c0.45,0,0.83-0.14,1.13-0.41c0.31-0.27,0.46-0.61,0.46-1.02
				v-0.73h-1.65c-0.43,0-0.74,0.1-0.94,0.28c-0.2,0.19-0.3,0.44-0.3,0.75c0,0.36,0.13,0.64,0.38,0.84
				C264.75,21.49,265.06,21.58,265.42,21.58z"/>
		</g>
		<g>
			<path d="M86.15,36.07H85.2v-7.27h-2.49v-0.85h5.92v0.85h-2.48V36.07z"/>
			<path d="M88.98,36.07v-6.24h0.93v0.97h0.05c0.11-0.28,0.3-0.53,0.58-0.74s0.67-0.32,1.17-0.32c0.08,0,0.2,0.01,0.37,0.02v0.86
				c-0.09-0.01-0.25-0.02-0.48-0.02c-0.37,0-0.67,0.07-0.93,0.21c-0.26,0.14-0.45,0.32-0.57,0.55c-0.12,0.22-0.18,0.48-0.18,0.77
				v3.94H88.98z"/>
			<path d="M95.5,29.73c0.78,0,1.42,0.24,1.91,0.73c0.49,0.48,0.74,1.15,0.74,2v0.99c0,0.85-0.25,1.52-0.74,2s-1.13,0.73-1.9,0.73
				c-0.79,0-1.43-0.24-1.92-0.72c-0.49-0.48-0.73-1.15-0.73-2.01v-0.99c0-0.82,0.25-1.48,0.75-1.98
				C94.1,29.98,94.73,29.73,95.5,29.73z M93.78,32.56v0.78c0,0.41,0.07,0.77,0.21,1.07c0.13,0.3,0.33,0.53,0.59,0.69
				c0.26,0.16,0.57,0.25,0.92,0.25c0.54,0,0.95-0.18,1.25-0.54c0.3-0.36,0.45-0.85,0.45-1.46v-0.78c0-0.61-0.15-1.09-0.46-1.46
				c-0.31-0.36-0.72-0.54-1.24-0.54c-0.52,0-0.94,0.18-1.25,0.55C93.93,31.48,93.78,31.96,93.78,32.56z"/>
			<path d="M99.82,36.07v-6.24h0.93v0.99h0.06c0.24-0.72,0.8-1.09,1.68-1.09c0.23,0,0.45,0.03,0.64,0.09
				c0.19,0.06,0.37,0.14,0.51,0.25c0.14,0.11,0.27,0.23,0.37,0.37c0.1,0.14,0.17,0.29,0.22,0.46h0.05c0.14-0.34,0.37-0.62,0.69-0.84
				c0.32-0.22,0.72-0.33,1.21-0.33c0.65,0,1.16,0.17,1.52,0.51c0.37,0.34,0.55,0.82,0.55,1.44v4.4h-0.93V31.9
				c0-0.41-0.12-0.74-0.35-0.98c-0.23-0.25-0.56-0.37-1-0.37c-0.42,0-0.77,0.14-1.04,0.43c-0.28,0.29-0.42,0.64-0.42,1.07v4.03
				h-0.93v-4.11c0-0.42-0.13-0.76-0.38-1.02c-0.25-0.26-0.59-0.39-1.02-0.39c-0.41,0-0.75,0.14-1.02,0.42
				c-0.27,0.28-0.4,0.64-0.4,1.07v4.04H99.82z"/>
			<path d="M109.99,31.61c0-0.62,0.22-1.08,0.65-1.4c0.44-0.32,0.98-0.48,1.62-0.48c0.32,0,0.62,0.04,0.9,0.13
				c0.27,0.09,0.5,0.21,0.69,0.36c0.19,0.15,0.34,0.33,0.44,0.54c0.1,0.21,0.15,0.44,0.15,0.69h-0.87
				c-0.02-0.16-0.07-0.31-0.16-0.45c-0.1-0.14-0.25-0.26-0.45-0.36c-0.21-0.1-0.45-0.15-0.73-0.15c-0.26,0-0.49,0.04-0.68,0.11
				c-0.2,0.08-0.35,0.19-0.47,0.35s-0.17,0.33-0.17,0.54c0,0.15,0.03,0.27,0.09,0.38c0.06,0.11,0.13,0.19,0.21,0.25
				c0.08,0.06,0.19,0.12,0.33,0.17c0.15,0.05,0.27,0.09,0.37,0.11c0.09,0.02,0.23,0.05,0.41,0.08c0.02,0,0.03,0,0.04,0.01
				c0.01,0,0.03,0.01,0.04,0.01c0.02,0,0.03,0.01,0.04,0.02c0.22,0.04,0.41,0.07,0.57,0.11c0.16,0.04,0.33,0.09,0.51,0.15
				c0.18,0.06,0.33,0.13,0.45,0.22c0.12,0.08,0.23,0.18,0.34,0.3c0.11,0.12,0.19,0.25,0.24,0.42c0.05,0.16,0.07,0.34,0.07,0.54
				c0,0.6-0.22,1.08-0.67,1.42c-0.45,0.34-1.04,0.51-1.77,0.51c-0.68,0-1.23-0.15-1.65-0.45c-0.42-0.3-0.63-0.72-0.63-1.27h0.92
				c0.09,0.62,0.56,0.93,1.41,0.93c0.34,0,0.62-0.05,0.85-0.14c0.23-0.09,0.39-0.22,0.49-0.36c0.1-0.15,0.15-0.32,0.15-0.53
				c0-0.14-0.03-0.26-0.09-0.37c-0.06-0.11-0.12-0.19-0.2-0.25c-0.08-0.06-0.2-0.12-0.36-0.18c-0.16-0.06-0.3-0.1-0.42-0.13
				c-0.12-0.03-0.29-0.06-0.5-0.11c-0.29-0.06-0.52-0.11-0.68-0.15c-0.17-0.04-0.36-0.11-0.57-0.2c-0.21-0.09-0.37-0.19-0.48-0.3
				c-0.11-0.11-0.2-0.25-0.28-0.43C110.03,32.06,109.99,31.85,109.99,31.61z"/>
			<path d="M115.94,31.61c0-0.62,0.22-1.08,0.65-1.4c0.44-0.32,0.98-0.48,1.62-0.48c0.32,0,0.62,0.04,0.9,0.13
				c0.27,0.09,0.5,0.21,0.69,0.36c0.19,0.15,0.34,0.33,0.44,0.54s0.15,0.44,0.15,0.69h-0.87c-0.02-0.16-0.07-0.31-0.16-0.45
				c-0.1-0.14-0.25-0.26-0.45-0.36c-0.21-0.1-0.45-0.15-0.73-0.15c-0.26,0-0.49,0.04-0.68,0.11c-0.2,0.08-0.35,0.19-0.47,0.35
				s-0.17,0.33-0.17,0.54c0,0.15,0.03,0.27,0.09,0.38c0.06,0.11,0.13,0.19,0.21,0.25c0.08,0.06,0.19,0.12,0.33,0.17
				c0.15,0.05,0.27,0.09,0.37,0.11c0.09,0.02,0.23,0.05,0.41,0.08c0.02,0,0.03,0,0.04,0.01c0.01,0,0.03,0.01,0.04,0.01
				c0.02,0,0.03,0.01,0.04,0.02c0.22,0.04,0.41,0.07,0.57,0.11c0.16,0.04,0.33,0.09,0.51,0.15c0.18,0.06,0.33,0.13,0.45,0.22
				c0.12,0.08,0.23,0.18,0.34,0.3c0.11,0.12,0.19,0.25,0.24,0.42c0.05,0.16,0.07,0.34,0.07,0.54c0,0.6-0.22,1.08-0.67,1.42
				c-0.45,0.34-1.04,0.51-1.77,0.51c-0.68,0-1.23-0.15-1.65-0.45c-0.42-0.3-0.63-0.72-0.63-1.27h0.92c0.09,0.62,0.56,0.93,1.41,0.93
				c0.34,0,0.62-0.05,0.85-0.14c0.23-0.09,0.39-0.22,0.49-0.36c0.1-0.15,0.15-0.32,0.15-0.53c0-0.14-0.03-0.26-0.09-0.37
				c-0.06-0.11-0.12-0.19-0.2-0.25c-0.08-0.06-0.2-0.12-0.36-0.18c-0.16-0.06-0.3-0.1-0.42-0.13c-0.12-0.03-0.29-0.06-0.5-0.11
				c-0.29-0.06-0.52-0.11-0.68-0.15c-0.17-0.04-0.36-0.11-0.57-0.2c-0.21-0.09-0.37-0.19-0.48-0.3c-0.11-0.11-0.2-0.25-0.28-0.43
				C115.98,32.06,115.94,31.85,115.94,31.61z"/>
			<path d="M123.9,36.18c-0.29,0-0.57-0.05-0.83-0.14c-0.25-0.09-0.47-0.22-0.64-0.39c-0.17-0.16-0.31-0.37-0.42-0.6
				c-0.1-0.24-0.15-0.5-0.15-0.79c0-0.36,0.08-0.68,0.25-0.95c0.16-0.27,0.41-0.48,0.75-0.64c0.33-0.15,0.73-0.23,1.19-0.23h1.67
				V31.8c0-0.42-0.12-0.72-0.37-0.92c-0.24-0.2-0.58-0.3-1.02-0.3c-0.72,0-1.16,0.25-1.32,0.75h-0.91c0.05-0.52,0.28-0.92,0.67-1.19
				c0.4-0.27,0.93-0.4,1.6-0.4c0.67,0,1.22,0.17,1.65,0.5c0.42,0.33,0.64,0.85,0.64,1.55v4.29h-0.91v-0.84h-0.03
				C125.33,35.86,124.72,36.18,123.9,36.18z M124.13,35.37c0.45,0,0.83-0.14,1.13-0.41c0.31-0.27,0.46-0.61,0.46-1.02v-0.73h-1.65
				c-0.43,0-0.74,0.1-0.94,0.28c-0.2,0.19-0.3,0.44-0.3,0.75c0,0.36,0.13,0.64,0.38,0.84C123.47,35.27,123.77,35.37,124.13,35.37z"
				/>
			<path d="M128.5,36.07v-6.24h0.93v1.15h0.06c0.27-0.83,0.9-1.25,1.89-1.25c0.65,0,1.17,0.18,1.56,0.53
				c0.38,0.35,0.58,0.86,0.58,1.53v4.29h-0.94v-3.99c0-0.5-0.12-0.88-0.37-1.14c-0.25-0.26-0.59-0.39-1.04-0.39
				c-0.57,0-1,0.19-1.3,0.57c-0.3,0.38-0.45,0.87-0.45,1.46v3.5H128.5z"/>
			<path d="M138.88,29.83v6.45c0,1.36-0.54,2.04-1.63,2.04c-0.25,0-0.44-0.02-0.58-0.05v-0.76c0.11,0.02,0.24,0.03,0.4,0.03
				c0.32,0,0.55-0.1,0.68-0.3s0.19-0.52,0.19-0.96v-6.44H138.88z M137.71,27.89c0-0.2,0.07-0.37,0.21-0.51
				c0.13-0.13,0.3-0.2,0.5-0.2c0.21,0,0.38,0.07,0.51,0.2c0.13,0.13,0.2,0.3,0.2,0.51c0,0.14-0.03,0.26-0.09,0.37
				c-0.06,0.11-0.14,0.19-0.25,0.24c-0.11,0.06-0.23,0.08-0.36,0.08c-0.2,0-0.37-0.07-0.5-0.2
				C137.78,28.25,137.71,28.09,137.71,27.89z"/>
			<path d="M142.51,36.18c-0.3,0-0.57-0.05-0.83-0.14c-0.25-0.09-0.47-0.22-0.65-0.39c-0.17-0.16-0.31-0.37-0.41-0.6
				c-0.1-0.24-0.15-0.5-0.15-0.79c0-0.36,0.08-0.68,0.25-0.95c0.16-0.27,0.41-0.48,0.75-0.64c0.33-0.15,0.73-0.23,1.19-0.23h1.67
				V31.8c0-0.42-0.12-0.72-0.36-0.92c-0.24-0.2-0.58-0.3-1.02-0.3c-0.72,0-1.16,0.25-1.32,0.75h-0.91c0.05-0.52,0.28-0.92,0.67-1.19
				c0.4-0.27,0.93-0.4,1.6-0.4c0.67,0,1.22,0.17,1.65,0.5c0.43,0.33,0.64,0.85,0.64,1.55v4.29h-0.91v-0.84h-0.03
				C143.93,35.86,143.32,36.18,142.51,36.18z M142.74,35.37c0.45,0,0.82-0.14,1.13-0.41c0.3-0.27,0.46-0.61,0.46-1.02v-0.73h-1.65
				c-0.42,0-0.74,0.1-0.94,0.28c-0.2,0.19-0.3,0.44-0.3,0.75c0,0.36,0.13,0.64,0.38,0.84C142.07,35.27,142.38,35.37,142.74,35.37z"
				/>
			<path d="M150.5,36.07h-0.96v-8.12h4.74v0.86h-3.79v2.84h3.48v0.87h-3.48V36.07z"/>
			<path d="M155.67,27.89c0-0.2,0.07-0.37,0.21-0.51c0.13-0.13,0.3-0.2,0.5-0.2c0.2,0,0.37,0.07,0.5,0.2c0.13,0.13,0.2,0.3,0.2,0.51
				c0,0.14-0.03,0.26-0.09,0.37c-0.06,0.11-0.14,0.19-0.25,0.24c-0.11,0.06-0.23,0.08-0.36,0.08c-0.2,0-0.37-0.07-0.5-0.2
				C155.74,28.25,155.67,28.09,155.67,27.89z M155.91,36.07v-6.24h0.93v6.24H155.91z"/>
			<path d="M158.84,36.07v-6.24h0.93v1.15h0.06c0.27-0.83,0.9-1.25,1.9-1.25c0.65,0,1.17,0.18,1.55,0.53
				c0.38,0.35,0.58,0.86,0.58,1.53v4.29h-0.93v-3.99c0-0.5-0.12-0.88-0.37-1.14c-0.25-0.26-0.59-0.39-1.04-0.39
				c-0.57,0-1,0.19-1.3,0.57c-0.3,0.38-0.44,0.87-0.44,1.46v3.5H158.84z"/>
			<path d="M165.7,36.07v-6.24h0.93v0.99h0.06c0.24-0.72,0.8-1.09,1.68-1.09c0.23,0,0.45,0.03,0.64,0.09
				c0.19,0.06,0.36,0.14,0.51,0.25c0.14,0.11,0.27,0.23,0.37,0.37c0.1,0.14,0.17,0.29,0.22,0.46h0.05c0.14-0.34,0.37-0.62,0.69-0.84
				c0.32-0.22,0.72-0.33,1.2-0.33c0.65,0,1.16,0.17,1.52,0.51s0.55,0.82,0.55,1.44v4.4h-0.93V31.9c0-0.41-0.12-0.74-0.35-0.98
				c-0.23-0.25-0.57-0.37-1-0.37c-0.42,0-0.77,0.14-1.04,0.43c-0.28,0.29-0.42,0.64-0.42,1.07v4.03h-0.93v-4.11
				c0-0.42-0.13-0.76-0.38-1.02c-0.25-0.26-0.59-0.39-1.02-0.39c-0.41,0-0.75,0.14-1.02,0.42c-0.27,0.28-0.4,0.64-0.4,1.07v4.04
				H165.7z"/>
			<path d="M177.66,36.18c-0.3,0-0.57-0.05-0.83-0.14s-0.47-0.22-0.65-0.39c-0.17-0.16-0.31-0.37-0.41-0.6
				c-0.1-0.24-0.15-0.5-0.15-0.79c0-0.36,0.08-0.68,0.25-0.95c0.16-0.27,0.41-0.48,0.75-0.64c0.33-0.15,0.73-0.23,1.19-0.23h1.67
				V31.8c0-0.42-0.12-0.72-0.36-0.92c-0.24-0.2-0.58-0.3-1.02-0.3c-0.72,0-1.16,0.25-1.32,0.75h-0.91c0.05-0.52,0.28-0.92,0.67-1.19
				c0.4-0.27,0.93-0.4,1.6-0.4c0.67,0,1.22,0.17,1.65,0.5c0.43,0.33,0.64,0.85,0.64,1.55v4.29h-0.91v-0.84h-0.03
				C179.09,35.86,178.48,36.18,177.66,36.18z M177.89,35.37c0.45,0,0.82-0.14,1.13-0.41c0.3-0.27,0.46-0.61,0.46-1.02v-0.73h-1.65
				c-0.42,0-0.74,0.1-0.94,0.28c-0.2,0.19-0.3,0.44-0.3,0.75c0,0.36,0.13,0.64,0.38,0.84C177.23,35.27,177.53,35.37,177.89,35.37z"
				/>
			<path d="M182.36,36.07v-6.24h0.93v0.97h0.05c0.11-0.28,0.3-0.53,0.57-0.74c0.28-0.21,0.67-0.32,1.17-0.32
				c0.08,0,0.2,0.01,0.37,0.02v0.86c-0.09-0.01-0.25-0.02-0.48-0.02c-0.36,0-0.67,0.07-0.93,0.21c-0.26,0.14-0.44,0.32-0.57,0.55
				c-0.12,0.22-0.18,0.48-0.18,0.77v3.94H182.36z"/>
			<path d="M187.76,33.74v2.33h-0.93v-8.55h0.93v5.17h0.03l2.64-2.87h1.1l-2.5,2.72l2.66,3.52h-1.12l-2.21-2.93L187.76,33.74z"/>
			<path d="M197.66,29.83v6.24h-0.93v-1.03h-0.06c-0.1,0.3-0.31,0.57-0.63,0.79c-0.31,0.23-0.72,0.34-1.22,0.34
				c-0.67,0-1.19-0.16-1.58-0.48c-0.38-0.32-0.58-0.82-0.58-1.5v-4.37h0.95v4.13c0,0.94,0.47,1.41,1.42,1.41
				c0.48,0,0.88-0.15,1.21-0.46c0.33-0.3,0.49-0.66,0.49-1.08v-4H197.66z"/>
			<path d="M199.53,36.07v-6.24h0.93v1.15h0.06c0.27-0.83,0.9-1.25,1.89-1.25c0.65,0,1.17,0.18,1.56,0.53
				c0.38,0.35,0.58,0.86,0.58,1.53v4.29h-0.94v-3.99c0-0.5-0.12-0.88-0.37-1.14c-0.25-0.26-0.59-0.39-1.04-0.39
				c-0.57,0-1,0.19-1.3,0.57c-0.3,0.38-0.45,0.87-0.45,1.46v3.5H199.53z"/>
			<path d="M209.25,36.07v-5.45h-1.06v-0.8h1.06v-0.62c0-0.6,0.15-1.04,0.45-1.32c0.3-0.28,0.78-0.42,1.45-0.42
				c0.24,0,0.46,0.01,0.67,0.04v0.79c-0.13-0.01-0.31-0.02-0.56-0.02c-0.39,0-0.67,0.07-0.83,0.22c-0.17,0.14-0.25,0.41-0.25,0.79
				v0.55h1.46v0.8h-1.46v5.45H209.25z"/>
			<path d="M218.32,29.83l-2.26,6.31l-0.16,0.44c-0.1,0.27-0.2,0.5-0.29,0.67c-0.09,0.17-0.21,0.36-0.37,0.55
				c-0.15,0.19-0.34,0.34-0.57,0.43c-0.23,0.09-0.49,0.14-0.79,0.14c-0.2,0-0.4-0.01-0.6-0.04v-0.79c0.11,0.02,0.26,0.03,0.45,0.03
				c0.35,0,0.62-0.08,0.81-0.25c0.19-0.17,0.33-0.43,0.43-0.78l0.1-0.35l-2.33-6.35h1.04l1.74,5.28h0.03l1.75-5.28H218.32z"/>
			<path d="M219.78,36.07v-8.55h0.94v8.55h-0.47H219.78z"/>
			<path d="M223.67,33.74v2.33h-0.93v-8.55h0.93v5.17h0.03l2.64-2.87h1.1l-2.5,2.72l2.66,3.52h-1.13l-2.21-2.93L223.67,33.74z"/>
			<path d="M228.71,27.89c0-0.2,0.07-0.37,0.21-0.51c0.13-0.13,0.3-0.2,0.5-0.2c0.2,0,0.37,0.07,0.5,0.2c0.13,0.13,0.2,0.3,0.2,0.51
				c0,0.14-0.03,0.26-0.09,0.37c-0.06,0.11-0.14,0.19-0.25,0.24c-0.11,0.06-0.23,0.08-0.36,0.08c-0.2,0-0.37-0.07-0.5-0.2
				C228.77,28.25,228.71,28.09,228.71,27.89z M228.95,36.07v-6.24h0.93v6.24H228.95z"/>
			<path d="M231.93,36.07v-6.24h0.93v1.15h0.06c0.27-0.83,0.9-1.25,1.89-1.25c0.65,0,1.17,0.18,1.56,0.53
				c0.38,0.35,0.58,0.86,0.58,1.53v4.29h-0.94v-3.99c0-0.5-0.12-0.88-0.37-1.14c-0.25-0.26-0.59-0.39-1.04-0.39
				c-0.57,0-1,0.19-1.3,0.57c-0.3,0.38-0.45,0.87-0.45,1.46v3.5H231.93z"/>
			<path d="M239.94,33.74v2.33h-0.93v-8.55h0.93v5.17h0.03l2.64-2.87h1.1l-2.5,2.72l2.66,3.52h-1.13l-2.21-2.93L239.94,33.74z"/>
			<path d="M247.14,29.73c0.78,0,1.42,0.24,1.91,0.73c0.49,0.48,0.74,1.15,0.74,2v0.99c0,0.85-0.25,1.52-0.74,2s-1.13,0.73-1.9,0.73
				c-0.79,0-1.43-0.24-1.92-0.72c-0.49-0.48-0.73-1.15-0.73-2.01v-0.99c0-0.82,0.25-1.48,0.75-1.98
				C245.74,29.98,246.37,29.73,247.14,29.73z M245.42,32.56v0.78c0,0.41,0.07,0.77,0.21,1.07c0.13,0.3,0.33,0.53,0.59,0.69
				c0.26,0.16,0.57,0.25,0.92,0.25c0.54,0,0.95-0.18,1.25-0.54c0.3-0.36,0.45-0.85,0.45-1.46v-0.78c0-0.61-0.15-1.09-0.46-1.46
				c-0.31-0.36-0.72-0.54-1.24-0.54c-0.52,0-0.94,0.18-1.25,0.55C245.58,31.48,245.42,31.96,245.42,32.56z"/>
			<path d="M251.4,36.07v-6.24h0.93v0.99h0.06c0.24-0.72,0.8-1.09,1.68-1.09c0.23,0,0.45,0.03,0.64,0.09
				c0.19,0.06,0.36,0.14,0.51,0.25c0.14,0.11,0.27,0.23,0.37,0.37c0.1,0.14,0.17,0.29,0.22,0.46h0.05c0.14-0.34,0.37-0.62,0.69-0.84
				c0.32-0.22,0.72-0.33,1.2-0.33c0.65,0,1.16,0.17,1.52,0.51s0.55,0.82,0.55,1.44v4.4h-0.93V31.9c0-0.41-0.12-0.74-0.35-0.98
				c-0.23-0.25-0.57-0.37-1-0.37c-0.42,0-0.77,0.14-1.04,0.43s-0.42,0.64-0.42,1.07v4.03h-0.93v-4.11c0-0.42-0.13-0.76-0.38-1.02
				c-0.25-0.26-0.59-0.39-1.02-0.39c-0.41,0-0.75,0.14-1.02,0.42c-0.27,0.28-0.4,0.64-0.4,1.07v4.04H251.4z"/>
			<path d="M266.58,29.83v6.24h-0.93v-1.03h-0.06c-0.11,0.3-0.32,0.57-0.63,0.79c-0.32,0.23-0.72,0.34-1.22,0.34
				c-0.67,0-1.19-0.16-1.58-0.48c-0.38-0.32-0.58-0.82-0.58-1.5v-4.37h0.94v4.13c0,0.94,0.47,1.41,1.42,1.41
				c0.48,0,0.88-0.15,1.21-0.46c0.33-0.3,0.49-0.66,0.49-1.08v-4H266.58z"/>
			<path d="M273.35,29.83v6.24h-0.93v-1.03h-0.06c-0.1,0.3-0.31,0.57-0.63,0.79c-0.31,0.23-0.72,0.34-1.22,0.34
				c-0.67,0-1.19-0.16-1.58-0.48c-0.38-0.32-0.58-0.82-0.58-1.5v-4.37h0.95v4.13c0,0.94,0.47,1.41,1.42,1.41
				c0.48,0,0.88-0.15,1.21-0.46c0.33-0.3,0.49-0.66,0.49-1.08v-4H273.35z"/>
			<path d="M275.17,36.07v-6.24h0.93v1.15h0.06c0.27-0.83,0.9-1.25,1.9-1.25c0.65,0,1.17,0.18,1.55,0.53
				c0.38,0.35,0.58,0.86,0.58,1.53v4.29h-0.93v-3.99c0-0.5-0.12-0.88-0.37-1.14c-0.25-0.26-0.59-0.39-1.04-0.39
				c-0.57,0-1,0.19-1.3,0.57s-0.44,0.87-0.44,1.46v3.5H275.17z"/>
			<path d="M281.87,27.89c0-0.2,0.07-0.37,0.2-0.51c0.14-0.13,0.3-0.2,0.5-0.2c0.2,0,0.37,0.07,0.51,0.2c0.13,0.13,0.2,0.3,0.2,0.51
				c0,0.14-0.03,0.26-0.09,0.37c-0.06,0.11-0.15,0.19-0.25,0.24s-0.23,0.08-0.36,0.08c-0.2,0-0.36-0.07-0.5-0.2
				C281.94,28.25,281.87,28.09,281.87,27.89z M282.11,36.07v-6.24h0.93v6.24H282.11z"/>
		</g>
	</g>
	<g>
		<path class="st0" d="M0,0.19v15c0,18.62,16.54,26.36,16.54,26.36s16.54-7.74,16.54-26.36v-15L0,0.19z"/>
		<g>
			<g>
				<path class="st1" d="M29.18,10.59c-1.21,3.51-5.66,3.5-8.42,3.14c-0.62,0.09-1.92,0.24-2.43,0.29
					c-0.04,0.17-0.19,0.86-0.26,1.59c0.26,0.11,0.52,0.22,0.78,0.31c0.14-0.3,0.4-0.48,0.61-0.41c0.21,0.07,0.3,0.37,0.23,0.7
					c0.57,0.18,1.11,0.31,1.63,0.4c0.08-0.32,0.3-0.54,0.51-0.51c0.22,0.03,0.37,0.3,0.36,0.64c0.59,0.06,1.14,0.07,1.67,0.04
					c0.01-0.33,0.16-0.6,0.38-0.62c0.22-0.02,0.42,0.21,0.49,0.53c0.49-0.07,0.96-0.18,1.39-0.31c0.08-0.02,0.15-0.05,0.23-0.08
					c-0.11-0.32-0.06-0.63,0.14-0.73c0.2-0.1,0.49,0.06,0.66,0.36c0.5-0.29,0.94-0.65,1.31-1.05c-0.27-0.23-0.38-0.55-0.24-0.73
					c0.14-0.19,0.48-0.17,0.79,0.03c0.29-0.43,0.5-0.88,0.64-1.31c-0.38-0.07-0.65-0.31-0.61-0.55c0.04-0.24,0.38-0.39,0.77-0.33
					c0,0,0.01,0,0.01,0C29.87,11.33,29.67,10.79,29.18,10.59z M23.93,20.19c-1.06,1.02-3.27,2.46-4.9,0.96
					c-0.85-0.79-2.39-2.77-1.4-7.03c0-0.01,0.01-0.05,0.02-0.11c0.02-0.37-0.3-0.68-0.53-0.65c-0.24,0.04-0.43,0.38-0.38,0.77
					c-0.41,0.02-0.83,0.03-1.24,0.04c-0.03-0.36-0.23-0.64-0.47-0.64c-0.23,0.01-0.41,0.28-0.42,0.63
					c-0.69-0.02-1.32-0.06-1.84-0.16c0.48-0.03,1-0.06,1.53-0.09c0.08-0.46,0.32-0.81,0.64-0.84c0.33-0.03,0.69,0.07,0.87,0.74
					c0.18-0.01,0.37-0.03,0.56-0.04c0.08-0.46,0.39-0.76,0.72-0.79c0.41-0.03,0.77,0.24,0.89,0.65c0.5-0.05,1-0.11,1.51-0.17
					c-0.04-0.39,0.12-0.72,0.36-0.75c0.24-0.03,0.47,0.25,0.52,0.63c0.58-0.09,1.16-0.19,1.75-0.31l0,0
					c-0.08-0.38,0.04-0.73,0.28-0.78c0.24-0.06,0.5,0.21,0.59,0.58c0.61-0.16,1.18-0.34,1.71-0.56c-0.15-0.36-0.1-0.72,0.13-0.82
					c0.22-0.1,0.53,0.11,0.69,0.46c0.57-0.28,1.08-0.59,1.54-0.93c-0.24-0.3-0.29-0.66-0.11-0.82c0.19-0.16,0.54-0.05,0.79,0.25
					c0.45-0.43,0.83-0.9,1.14-1.4c-0.35-0.17-0.55-0.49-0.44-0.71c0.11-0.22,0.48-0.26,0.83-0.1c0.22-0.65,0.14-1.26-0.1-1.78
					c-0.33,0.22-0.7,0.22-0.84,0.02c-0.14-0.21,0.02-0.55,0.34-0.76c-0.44-0.49-1.01-0.82-1.44-0.88c0.39,2.88-2.67,4.16-6.44,5
					c-3.19,0.71-6.02,0.33-8.8,3.12c1.84-2.58,4.08-2.88,7.45-3.3c0.72-1.59,1.03-2.93,0.89-3.86c0.42,0.28,0.97,0.51,1.71,0.39
					c1.09-0.17,1.76-0.73,2-1.54c-1.07,0.77-2.9,0.82-3.79,0.78c-0.07-0.27-0.25-0.65-0.52-0.9c0.29-0.05,0.63,0.15,0.81,0.2
					c0.42,0.08,2.5-1.06,2.5-1.06s-2.99,0.01-3.52,0.04c-0.01,0-0.08-0.01-0.19,0.07c-0.09,0.07-0.18,0.14-0.33,0.27
					c-1.16-0.53-3.31-0.43-4.43,0.11c-1.11,0.53-1.03,1.8-1.03,1.8s0.67-0.49,1.07-0.49c0.21,0,1.44-0.01,1.95,0.17
					c0.11,0.04,0.18,0.1,0.19,0.28c-0.72-0.08-1.5-0.12-1.5-0.12s1.45,0.45,1.37,0.92c-0.23,1.32-0.31,1.62-1.76,2.12
					c-1.83,0.63-2.4,0.69-3.53,2.68c-0.45,0.8-0.83,1.7-0.83,1.7s-1.77-1.67-2.62-3.37C7.88,9.71,7.9,9.56,7.96,9.4
					c0.3-0.82,1.17-1.44,1.9-2.06c0.84-0.71,1.01-1.11,0.98-1.72c0.26-0.87-0.25-1.23-0.55-1.18c0.4,0.25,0.18,0.77-0.16,0.98
					c-0.6,0.37-0.38,0.8-0.62,1.26C9.14,7.36,8.55,7.94,8.17,8.12C8.45,6.99,9.15,6.21,9,4.94c0.2-0.5-0.22-1.02-0.79-0.84
					c0.3,0.1,0.5,0.4,0.22,0.75C8.3,5.01,7.9,5.32,7.98,5.77c0.17,0.9-0.02,1.81-0.35,2.21c-0.37-1.59-0.05-2.17-0.7-2.83
					C6.85,4.8,6.41,4.31,5.77,4.8c0.97,0.04,0.37,0.69,0.5,1.12C6.4,6.35,6.65,6.53,6.91,7.21c0.18,0.47,0.4,1.12-0.3,2.04
					c-0.85,1.12-1.51,0.67-1.68,1.29c-0.12,0.41-0.47,0.48-0.9,0.43c0.07,0.36,0.53,0.51,0.88,0.3c0.85,0.27,1.16-0.96,1.79-1.3
					c0.27-0.14,0.37,0.01,0.48,0.19c0.54,0.91,1.51,3.55,2.41,5.22c0.38-0.11,1.02-0.15,1.41-0.08c-0.03,0.21-0.06,0.63-0.05,0.95
					c-1.05,0.25-2.49,0.69-4.6,0.86c0.15-1.32,1.45-2.68,0.81-3.63c-0.03-0.62-0.34-0.86-0.77-0.8c0.32,0.13,0.31,0.62,0.27,0.75
					c-0.05,0.13-0.26,0.4-0.28,0.56c-0.08,0.45,0.4,0.56-0.33,2.58c-0.33-1.08,0.07-2.29-0.5-2.89c-0.11-0.47-0.53-0.8-1.17-0.37
					c0.28-0.09,0.81,0.15,0.58,0.67c-0.35,0.67,0.19,0.85,0.43,1.59c0.14,0.42,0.13,0.82,0.16,1.21c-0.98-1.01-0.87-1.66-1.59-1.85
					c-0.33-0.5-1-0.39-1.18-0.03c0.23-0.13,0.78,0.05,0.81,0.65c0.04,0.71,0.31,0.59,0.77,0.88c0.83,0.53,1.23,1.37,1.16,1.88
					c-0.07,0.48-0.6,0.91-0.75,1.23c-0.15,0.32,0.01,0.49,0.05,0.63c0.05,0.18-0.07,0.55-0.38,0.69C4.64,20.89,5,20.83,5.3,20.38
					c0.59-0.09,0.69-1.34,0.75-1.88c0.02-0.2,0.29-0.23,0.35-0.23c1.46-0.08,4.21-0.19,5.64-0.24c0.88-1.17,1.89-2.45,3.77-2.49
					c-1.74,0.68-2.58,1.74-3.04,2.47c0.25,1.17,2.9,2.78,2.47,5.76c-0.22-1.1-0.77-1.78-1.17-2.15c-0.49-0.13-1.66-0.32-2.22-0.07
					c-1.38,0.61,0.16,3.31,0.09,5.04c-1.17-0.05-3.11-0.4-3.12-1.68c0.37-0.97,1.35-2.13,0.77-2.86c0.09-0.49,0.02-0.91-0.43-1.04
					c0.09,0.17-0.03,0.71-0.34,0.95C8,22.26,8.78,24.14,8.11,24.08c-0.53-0.04,0.02-1.64-0.89-1.85c-0.02-0.24-0.42-0.91-1.1-0.63
					c0.36,0.05,0.53,0.62,0.48,0.9c-0.87,0.93,0.95,1.44,0.58,2.03c-0.25,0.4-1-0.69-1.82,0.08c-0.23-0.08-1.13,0.08-1.19,0.65
					c0.31-0.24,0.81-0.25,1.05-0.04c0.3,1.05,1.46,0.26,1.86,0.44c0.4,0.17,0.56,0.8,0.31,1.35c2.04,2.04,5.62,2.09,6.69,1.89
					c-0.1-1-0.05-4.05,1.28-4.08c1.69,2.74,2.69,2.64,4.28,3.24c0.8,1.24,0.2,3.91-1.06,4.17c-0.65-0.3,0.15-1.44-0.87-1.84
					c0-0.36-0.32-0.8-0.91-0.65c0.27,0.12,0.48,0.57,0.37,0.87c-0.65,0.78,0.88,1.55,0.51,2.01c-0.41,0.51-1.06-1.17-1.97-0.67
					c-0.73-0.15-1.11,0.26-1.2,0.46c0.33-0.09,0.52-0.09,0.88,0.13c-0.15,1.03,1.82,0.5,1.88,0.97c0.09,0.74-1.56,0.21-1.75,1.17
					c-0.72,0.29-0.72,1.14-0.54,1.26c0.01-0.33,0.37-0.6,0.67-0.67c0.35,0.41,0.74,0.4,1.47-0.15c0.64-0.47,2.76-1.95,3.45-1.15
					c1.64-1.87,1.71-4.31,1.94-5.54c-0.2-1.38-2.96-3.14-2.89-5.74c2.79,0.46,4.18-1.09,4.98-1.89c0.87-0.87,2.53-2.31,3.78-1.29
					c1.25,1.02-0.26,3.99-1.64,5.16c-2.54,0.54-2.74,4.02-0.99,5.49c-0.46-2.39,1.83-2.32,1.49-5.13c1.3-1.08,3.43-4.66,1.85-6.15
					C27.5,17.39,25.19,18.98,23.93,20.19z M16.42,4.56h-0.5c0-0.29,0.22-0.38,0.43-0.38c0,0,1.35,0.02,1.72,0.04
					c0.37,0.02,0.37,0.52,0.24,0.52c0-0.1-0.01-0.13-0.62-0.13c-0.15,0-0.13,0.43-0.58,0.43C16.66,5.04,16.72,4.57,16.42,4.56z"/>
			</g>
		</g>
	</g>
	<g>
		<path d="M38.6,0.19v15c0,18.62,16.54,26.36,16.54,26.36s16.54-7.74,16.54-26.36v-15L38.6,0.19z"/>
		<path class="st2" d="M62.39,16.93v2.95h-2.72V9h2.57V1.61h-2.93v4.46h-2.71V1.61h-2.93v4.46h-2.71V1.61h-2.93V9h2.57v10.88h-2.72
			v-2.95h-2.93v4.23h0.77V32.2h18.83V21.16h0.77v-4.23H62.39z M54.54,11.99v-1.25l0.74-1.18l0.74,1.18v1.25v1.8h-0.74h-0.74V11.99z
			 M56.09,28.62v2.31h-0.95h-0.95v-2.31v-2.31l0.95-1.52l0.95,1.52V28.62z"/>
	</g>
</g>
</svg>
