<svg id="Layer_1" data-name="Layer 1" xmlns="http://www.w3.org/2000/svg" viewBox="0 0 981.36 88.16"><defs><style>.cls-1{fill:#262626;stroke-width:6px;}.cls-1,.cls-3{stroke:#262626;}.cls-1,.cls-2,.cls-3{stroke-miterlimit:10;}.cls-2{fill:#67b32e;stroke:#67b32e;stroke-width:4px;}.cls-3{fill:none;stroke-width:3px;}.cls-4{fill:#65b32e;fill-rule:evenodd;}</style></defs><title>Jarlsberg_ikt_transparent-01</title><path class="cls-1" d="M137.49,112.76c0,18.35-11.51,30.78-34.54,30.78-22.34,0-33.06-12-35.68-29.87l2.28-.34c2.51,16.76,12.54,27.93,33.4,27.93,21.55,0,32.26-11.51,32.26-28.5V65h2.28Z" transform="translate(-63.86 -58.5)"/><path class="cls-1" d="M178.53,109.57l-15.62,31.24h-2.28l38.65-76.95h2.39l38.65,76.95H238l-15.62-31.24Zm22-43.43h-.11l-20.75,41.15h41.61Z" transform="translate(-63.86 -58.5)"/><path class="cls-1" d="M316.35,125.3c2.51,8.78,6.16,15.28,15.28,15.28a32.22,32.22,0,0,0,9.8-1.82v2.39a31.62,31.62,0,0,1-9.8,1.71c-10.49,0-14.71-7.18-17.44-17l-4.45-15.73H266.54v30.67h-2.28V65h45.6c21.55,0,30.89,7.87,30.89,21.66,0,10.72-9.69,23.48-26.68,23.48h-1.94Zm-49.82-17.44h47.54c15.5,0,24.4-11.51,24.4-21.2,0-12.31-8.66-19.38-28.61-19.38H266.54Z" transform="translate(-63.86 -58.5)"/><path class="cls-1" d="M434.57,140.81H370.85V65h2.28v73.53h61.45Z" transform="translate(-63.86 -58.5)"/><path class="cls-1" d="M454.07,86.54c0,11.17,17.21,12.08,34.09,12.88,19.27.8,40.24,2.17,40.24,18.13,0,19.72-21.43,26.11-38,26.11-22.57,0-37.85-7.64-40.81-22.57l2.28-.8c2.05,11.86,14.93,21.09,38.53,21.09,15.62,0,35.68-5.93,35.68-23.83,0-14.25-19.38-15-38-15.85s-36.37-1.48-36.37-15.16c0-18.58,22.34-24.28,37.16-24.28,18.13,0,34,5.93,38.53,21.32l-2.05.91c-4-12.31-15.85-19.95-36.48-19.95C475,64.54,454.07,69.78,454.07,86.54Z" transform="translate(-63.86 -58.5)"/><path class="cls-1" d="M558.72,65h49.59c15.28,0,21.77,8,21.77,16.3,0,7.07-4.56,14.25-12.65,17.21,10,2.62,14.48,10.26,14.48,18.35,0,11.51-8.89,23.94-23.26,23.94H558.72ZM561,97.6H609.9c10.72,0,17.67-8.32,17.67-16.3,0-7.18-5.7-14-19.27-14H561Zm0,40.93h47.31c13.22,0,21.32-11.29,21.32-21.66,0-8.78-5.81-17-19.38-17H561Z" transform="translate(-63.86 -58.5)"/><path class="cls-1" d="M734.62,140.81H664.85V65h67.6v2.28H667v33.63h56v2.28H667v35.34h67.6Z" transform="translate(-63.86 -58.5)"/><path class="cls-1" d="M811.79,125.3c2.51,8.78,6.16,15.28,15.28,15.28a32.23,32.23,0,0,0,9.8-1.82v2.39a31.63,31.63,0,0,1-9.8,1.71c-10.49,0-14.71-7.18-17.44-17l-4.45-15.73H762v30.67H759.7V65h45.6c21.55,0,30.89,7.87,30.89,21.66,0,10.72-9.69,23.48-26.67,23.48h-1.94ZM762,107.86h47.54c15.5,0,24.4-11.51,24.4-21.2,0-12.31-8.66-19.38-28.61-19.38H762Z" transform="translate(-63.86 -58.5)"/><path class="cls-1" d="M862.18,103.19c0,22.69,15.39,38,38.3,38,21.89,0,34.43-14,35.34-36.37H900V102.5h38.08c-.11,25.54-14.25,40.93-37.62,40.93-24.28,0-40.58-16.19-40.58-40.24,0-25.08,16.07-41,40.24-41,19.27,0,33.17,8.32,36.82,25.65l-2.05.91c-3.31-13.22-12.54-24.28-34.77-24.28C877.34,64.43,862.18,79.47,862.18,103.19Z" transform="translate(-63.86 -58.5)"/><path class="cls-2" d="M969.57,106.67v35.06a13.42,13.42,0,0,1-2.71,0v-35C968.23,106.73,969.21,106.7,969.57,106.67Z" transform="translate(-63.86 -58.5)"/><path class="cls-2" d="M990.14,124.44h-5.67v17.3a13.42,13.42,0,0,1-2.71,0v-35c1.37,0,2.35,0,2.71-.06v15.5h5.62l11.82-15.44h3.23L992.27,123l13.9,18.71-3.36.17Z" transform="translate(-63.86 -58.5)"/><path class="cls-2" d="M1043.08,109.23h-12.42v32.5a13.42,13.42,0,0,1-2.71,0V109.23h-12.57a18.89,18.89,0,0,0,.13-2.5h27.7A18.73,18.73,0,0,1,1043.08,109.23Z" transform="translate(-63.86 -58.5)"/><circle class="cls-3" cx="904.91" cy="18.5" r="17"/><line class="cls-3" x1="887.91" y1="18.5" x2="921.91" y2="18.5"/><path class="cls-3" d="M968.78,60" transform="translate(-63.86 -58.5)"/><path class="cls-3" d="M968.78,60v0Z" transform="translate(-63.86 -58.5)"/><path class="cls-3" d="M968.78,60c-17,17,0,34,0,34" transform="translate(-63.86 -58.5)"/><path class="cls-3" d="M968.78,60c17,17,0,34,0,34" transform="translate(-63.86 -58.5)"/><path class="cls-4" d="M986.24,87.43l-2.09,2.08,5.21,5.24a.65.65,0,0,1,0,.92l-2,2a.69.69,0,0,1-.95,0h0l-5.21-5.24-2.06,2L978,86.19l8.25,1.24" transform="translate(-63.86 -58.5)"/></svg>