<svg xmlns="http://www.w3.org/2000/svg" xmlns:xlink="http://www.w3.org/1999/xlink" version="1.1" id="Layer_1" x="0px" y="0px" viewBox="0 0 398.7 32.8" enable-background="new 0 0 398.7 32.8" xml:space="preserve"><path fill="#E54800" d="M30.2,23.6c0,0,2,4.6,2,5.1c0,0.4-0.4,0.8-1,0.8H15.9c-0.6,0-1-0.3-1-0.8c0-0.5,1.7-5,1.8-5H30.2z"/><path fill="#E54800" d="M67.5,17.5v10.6c0,0.7-0.5,1.3-1.3,1.3H53.9c-0.9,0-1.3-0.7-1.3-1.4V17.5H67.5z"/><path fill="#E54800" d="M90,28.3c0.3,0.2,0.4,0.4,0.4,0.6c0,0.4-0.3,0.5-0.6,0.5H76.2c-0.8,0-1.2-0.6-1.2-1.4V1.5  c0-0.7,0.5-1.4,1.4-1.4h13.7c0.3,0,0.4,0.2,0.4,0.5c0,0.3-0.2,0.5-0.4,0.6c-4.8,3.1-7.3,8.5-7.3,13.6C82.8,20,85.4,25.4,90,28.3z"/><path fill="#E54800" d="M67.5,1.5v10.2H52.6V1.5c0-0.6,0.4-1.4,1.4-1.4H66C66.9,0.2,67.5,0.8,67.5,1.5z"/><path fill="#E54800" d="M45.1,1.5v26.6c0,0.7-0.5,1.3-1.3,1.3h-2.2c-0.6,0-1-0.4-1.2-0.8l-12.1-27c-0.1-0.3-0.2-0.5-0.2-0.8  c0-0.3,0.2-0.6,0.6-0.6h14.9C44.5,0.2,45.1,0.8,45.1,1.5z"/><path fill="#E54800" d="M17.9,1.6L7.1,28.3c-0.3,0.7-0.8,1.1-1.5,1.1h-4c-0.8,0-1.4-0.6-1.4-1.3V1.6c0-0.7,0.6-1.4,1.4-1.4h15.9  c0.4,0,0.7,0.2,0.7,0.6C18.1,1.1,18,1.3,17.9,1.6z"/><path fill="#E54800" d="M122.8,0.2c0.9,0,1.4,0.6,1.4,1.4v26.6c0,0.8-0.6,1.3-1.4,1.3h-15.4c-0.3,0-0.6-0.1-0.6-0.5  c0-0.2,0.2-0.5,0.5-0.6c4.4-3,7.2-8.2,7.2-13.4c0-5.1-2.5-10.6-7.3-13.6c-0.2-0.2-0.5-0.4-0.5-0.7c0-0.2,0.2-0.5,0.4-0.5H122.8z"/><polygon fill="#E54800" points="23.2,6.7 28,18.4 18.8,18.4 "/><path fill="#E54800" d="M98.7,5.4c5.2,0,8.7,3.8,8.7,9.5c0,5.7-3.5,9.5-8.7,9.5c-5.2,0-8.7-3.8-8.7-9.5C89.9,9.2,93.4,5.4,98.7,5.4z  "/><path fill="#E54800" d="M140.2,2.4l-1.5,4.5h3.1L140.2,2.4z M143.2,11.3l-1-3.1h-4l-1,3.1h-1.6L139.3,1h1.8l3.7,10.4H143.2z"/><path fill="#E54800" d="M147.5,7.9v3.4h-1.4V3.8h1.3c0.1,0.4,0.1,0.8,0.1,1.2c0.5-0.9,1.4-1.4,2.7-1.4V5  C148.6,5,147.5,6.2,147.5,7.9z"/><polygon fill="#E54800" points="156.2,11.3 153.8,7.7 152.8,8.8 152.8,11.3 151.4,11.3 151.4,0.1 152.8,0.1 152.8,6.9 155.6,3.8   157.4,3.8 154.7,6.8 157.9,11.3 "/><path fill="#E54800" d="M159.2,11.3V3.8h1.4v7.5H159.2z M159.9,2.2c-0.6,0-1-0.4-1-1c0-0.6,0.5-0.9,1-0.9c0.5,0,1,0.4,1,0.9  C160.9,1.8,160.4,2.2,159.9,2.2z"/><path fill="#E54800" d="M165.8,11.5c-1.6,0-2.6-0.9-2.6-2.6V5.1h-1V3.8h1V1.6h1.4v2.3h2.1v1.2h-2.1v3.9c0,1,0.4,1.4,1.2,1.4  c0.4,0,0.7,0,1-0.1v1.2C166.5,11.5,166.3,11.5,165.8,11.5z"/><path fill="#E54800" d="M172,5c-1.2,0-2,1-2.1,1.8h4.2C174,5.9,173.2,5,172,5z M169.8,8c0.1,1.2,1,2.2,2.5,2.2  c0.9,0,1.4-0.1,2.3-0.4l0.4,1.2c-0.8,0.3-1.5,0.5-2.7,0.5c-2.4,0-3.9-1.8-3.9-3.9c0-2.1,1.5-3.9,3.7-3.9c2.2,0,3.7,1.8,3.7,4.3  H169.8z"/><polygon fill="#E54800" points="182.1,11.3 179.8,7.7 178.8,8.8 178.8,11.3 177.4,11.3 177.4,0.1 178.8,0.1 178.8,6.9 181.5,3.8   183.4,3.8 180.7,6.8 183.8,11.3 "/><path fill="#E54800" d="M188.2,11.5c-1.6,0-2.6-0.9-2.6-2.6V5.1h-1V3.8h1V1.6h1.4v2.3h2.1v1.2H187v3.9c0,1,0.4,1.4,1.2,1.4  c0.4,0,0.7,0,1-0.1v1.2C188.9,11.5,188.7,11.5,188.2,11.5z"/><path fill="#E54800" d="M194.2,11.5c-2,0-3.2-1.5-3.2-3.2V3.8h1.4v4.3c0,1.1,0.6,2,1.8,2c1.2,0,1.8-0.9,1.8-2V3.8h1.4v4.5  C197.4,10,196.2,11.5,194.2,11.5z"/><path fill="#E54800" d="M200.8,7.9v3.4h-1.4V3.8h1.3c0.1,0.4,0.1,0.8,0.1,1.2c0.5-0.9,1.4-1.4,2.7-1.4V5  C201.9,5,200.8,6.2,200.8,7.9z"/><rect x="204.7" y="7" fill="#E54800" width="4.9" height="1.3"/><path fill="#E54800" d="M219.8,5c-1.5,0-2.4,1.2-2.4,2.6c0,1.4,0.9,2.6,2.4,2.6c1.5,0,2.4-1.2,2.4-2.6C222.2,6.2,221.2,5,219.8,5z   M219.8,11.5c-2.3,0-3.9-1.8-3.9-3.9c0-2.2,1.6-3.9,3.9-3.9c2.3,0,3.9,1.8,3.9,3.9C223.7,9.7,222.1,11.5,219.8,11.5z"/><path fill="#E54800" d="M228.8,5c-1.5,0-2.3,1.2-2.3,2.6c0,1.4,0.9,2.6,2.3,2.6c1.5,0,2.3-1.2,2.3-2.6C231.1,6.2,230.3,5,228.8,5z   M228.8,14.4c-1,0-2-0.3-2.9-0.8l0.4-1.2c0.9,0.5,1.8,0.7,2.4,0.7c1.6,0,2.2-0.8,2.2-2.2v-0.5c-0.6,0.7-1.4,1.2-2.5,1.2  c-2,0-3.5-1.8-3.5-3.9c0-2.1,1.4-3.9,3.5-3.9c1.1,0,2,0.5,2.6,1.2c0-0.3,0.1-0.7,0.2-1h1.2V11C232.4,13.1,231,14.4,228.8,14.4z"/><path fill="#E54800" d="M242.4,5c-1.5,0-2.3,1.2-2.3,2.6c0,1.4,0.9,2.6,2.3,2.6c1.5,0,2.3-1.2,2.3-2.6C244.7,6.2,244,5,242.4,5z   M244.8,11.3c-0.1-0.3-0.1-0.7-0.2-1c-0.6,0.7-1.4,1.2-2.6,1.2c-2,0-3.5-1.8-3.5-3.9c0-2.1,1.4-3.9,3.5-3.9c1.1,0,2,0.5,2.5,1.2V0.2  h1.4v11.2H244.8z"/><path fill="#E54800" d="M251.5,5c-1.2,0-2,1-2.1,1.8h4.2C253.4,5.9,252.7,5,251.5,5z M249.2,8c0.1,1.2,1,2.2,2.5,2.2  c0.9,0,1.4-0.1,2.3-0.4l0.4,1.2c-0.8,0.3-1.5,0.5-2.7,0.5c-2.4,0-3.9-1.8-3.9-3.9c0-2.1,1.5-3.9,3.7-3.9c2.2,0,3.7,1.8,3.7,4.3  H249.2z"/><path fill="#E54800" d="M258.8,11.5c-1,0-1.9-0.4-2.5-0.8l0.5-1.2c0.8,0.4,1.4,0.7,2,0.7c0.8,0,1.2-0.4,1.2-0.9  c0-1.3-3.5-1.2-3.5-3.5c0-1.5,1.4-2.1,2.5-2.1c0.8,0,1.7,0.3,2.1,0.5l-0.4,1.2C260.2,5.1,259.4,5,259,5c-0.7,0-1,0.3-1,0.8  c0,1.2,3.4,1.2,3.4,3.5C261.5,10.8,260.1,11.5,258.8,11.5z"/><path fill="#E54800" d="M263.2,11.3V3.8h1.4v7.5H263.2z M263.9,2.2c-0.6,0-1-0.4-1-1c0-0.6,0.5-0.9,1-0.9c0.5,0,1,0.4,1,0.9  C264.9,1.8,264.4,2.2,263.9,2.2z"/><path fill="#E54800" d="M270.2,5c-1.5,0-2.3,1.2-2.3,2.6c0,1.4,0.9,2.6,2.3,2.6c1.5,0,2.3-1.2,2.3-2.6C272.5,6.2,271.7,5,270.2,5z   M270.2,14.4c-1,0-2-0.3-2.9-0.8l0.4-1.2c0.9,0.5,1.8,0.7,2.4,0.7c1.6,0,2.2-0.8,2.2-2.2v-0.5c-0.6,0.7-1.4,1.2-2.5,1.2  c-2,0-3.5-1.8-3.5-3.9c0-2.1,1.4-3.9,3.5-3.9c1.1,0,2,0.5,2.6,1.2c0-0.3,0.1-0.7,0.2-1h1.2V11C273.8,13.1,272.4,14.4,270.2,14.4z"/><path fill="#E54800" d="M281,11.3V6.7c0-1.2-0.6-1.7-1.4-1.7c-1.2,0-2.2,1.1-2.2,3v3.4H276V3.8h1.3c0.1,0.4,0.1,1,0.2,1.3  c0.6-0.9,1.4-1.5,2.5-1.5c1.6,0,2.6,1,2.6,2.9v4.8H281z"/><path fill="#E54800" d="M289.9,11.3V6.7c0-1.2-0.6-1.7-1.4-1.7c-1.2,0-2.2,1.2-2.2,3v3.4h-1.4V0.2h1.4v5c0.6-0.9,1.4-1.5,2.5-1.5  c1.6,0,2.6,1,2.6,2.8v4.8H289.9z"/><path fill="#E54800" d="M306.6,5c-1.5,0-2.3,1.2-2.3,2.6c0,1.4,0.9,2.6,2.3,2.6c1.5,0,2.3-1.2,2.3-2.6C308.9,6.2,308.1,5,306.6,5z   M306.7,14.4c-1,0-2.2-0.3-3-0.8l0.4-1.2c0.9,0.5,1.8,0.7,2.4,0.7c1.6,0,2.2-0.8,2.2-2.2v-0.5c-0.6,0.7-1.4,1.2-2.5,1.2  c-2,0-3.5-1.8-3.5-3.9c0-2.1,1.4-3.9,3.5-3.9c1.1,0,2,0.5,2.6,1.2c0-0.3,0.1-0.7,0.2-1h1.2V11C310.2,13.1,309,14.4,306.7,14.4z"/><path fill="#E54800" d="M314.2,11.5c-1,0-1.9-0.4-2.5-0.8l0.5-1.2c0.7,0.4,1.4,0.7,2,0.7c0.8,0,1.2-0.4,1.2-0.9  c0-1.3-3.5-1.2-3.5-3.5c0-1.5,1.4-2.1,2.5-2.1c0.8,0,1.7,0.3,2.1,0.5l-0.4,1.2c-0.5-0.2-1.3-0.4-1.7-0.4c-0.7,0-1,0.3-1,0.8  c0,1.2,3.4,1.2,3.4,3.5C316.9,10.8,315.4,11.5,314.2,11.5z"/><polygon fill="#E54800" points="323.3,11.3 321,7.7 320,8.8 320,11.3 318.6,11.3 318.6,0.1 320,0.1 320,6.9 322.7,3.8 324.6,3.8   321.9,6.8 325,11.3 "/><path fill="#E54800" d="M329.6,5c-1.5,0-2.4,1.2-2.4,2.6c0,1.4,0.9,2.6,2.4,2.6c1.5,0,2.4-1.2,2.4-2.6C332,6.2,331.1,5,329.6,5z   M329.6,11.5c-2.3,0-3.9-1.8-3.9-3.9c0-2.2,1.6-3.9,3.9-3.9c2.3,0,3.9,1.8,3.9,3.9C333.5,9.7,331.9,11.5,329.6,11.5z"/><path fill="#E54800" d="M337.2,11.5c-1.1,0-1.9-0.4-1.9-1.5V0.2h1.4v9.6c0,0.3,0.2,0.5,0.6,0.5L337.2,11.5z"/><path fill="#E54800" d="M342.4,5c-1.2,0-2,1-2.1,1.8h4.2C344.4,5.9,343.7,5,342.4,5z M340.2,8c0.1,1.2,1,2.2,2.5,2.2  c0.9,0,1.4-0.1,2.3-0.4l0.4,1.2c-0.8,0.3-1.5,0.5-2.7,0.5c-2.4,0-3.9-1.8-3.9-3.9c0-2.1,1.5-3.9,3.7-3.9c2.2,0,3.7,1.8,3.7,4.3  H340.2z"/><path fill="#E54800" d="M352.8,11.3V6.7c0-1.2-0.6-1.7-1.4-1.7c-1.2,0-2.2,1.1-2.2,3v3.4h-1.4V3.8h1.3c0.1,0.4,0.2,1,0.2,1.3  c0.6-0.9,1.4-1.5,2.5-1.5c1.6,0,2.6,1,2.6,2.9v4.8H352.8z"/><path fill="#E54800" d="M360.9,11.3V3.8h1.4v7.5H360.9z M361.6,2.2c-0.6,0-1-0.4-1-1c0-0.6,0.5-0.9,1-0.9c0.5,0,1,0.4,1,0.9  C362.6,1.8,362.2,2.2,361.6,2.2z"/><path fill="#E54800" d="M374.1,2.2c-2.3,0-3.8,1.8-3.8,4c0,2.2,1.5,4,3.8,4c2.3,0,3.8-1.8,3.8-4C377.9,4,376.4,2.2,374.1,2.2z   M374.1,11.5c-3.1,0-5.3-2.4-5.3-5.4c0-2.9,2.2-5.4,5.3-5.4c3.2,0,5.3,2.4,5.3,5.4C379.4,9.1,377.2,11.5,374.1,11.5z"/><path fill="#E54800" d="M383.2,11.5c-1,0-1.9-0.4-2.5-0.8l0.5-1.2c0.7,0.4,1.4,0.7,2,0.7c0.8,0,1.2-0.4,1.2-0.9  c0-1.3-3.5-1.2-3.5-3.5c0-1.5,1.4-2.1,2.4-2.1c0.8,0,1.7,0.3,2.1,0.5l-0.4,1.2c-0.5-0.2-1.3-0.4-1.7-0.4c-0.7,0-1,0.3-1,0.8  c0,1.2,3.4,1.2,3.4,3.5C385.8,10.8,384.4,11.5,383.2,11.5z"/><path fill="#E54800" d="M389.3,11.5c-1.1,0-1.9-0.4-1.9-1.5V0.2h1.4v9.6c0,0.3,0.2,0.5,0.6,0.5L389.3,11.5z"/><path fill="#E54800" d="M394.8,5c-1.5,0-2.4,1.2-2.4,2.6c0,1.4,0.9,2.6,2.4,2.6c1.5,0,2.4-1.2,2.4-2.6C397.2,6.2,396.2,5,394.8,5z   M394.8,11.5c-2.3,0-3.9-1.8-3.9-3.9c0-2.2,1.6-3.9,3.9-3.9c2.3,0,3.9,1.8,3.9,3.9C398.7,9.7,397.1,11.5,394.8,11.5z"/><polygon fill="#868680" points="139.2,21 139.2,29.2 138.2,29.2 138.2,21 135.6,21 135.6,20.1 141.7,20.1 141.7,21 "/><path fill="#868680" d="M147.5,29.2v-4.1c0-1.2-0.6-1.7-1.5-1.7c-1.2,0-2.1,1.1-2.1,2.7v3.1h-1v-9.7h1V24c0.5-0.9,1.3-1.4,2.2-1.4  c1.3,0,2.3,0.9,2.3,2.4v4.2H147.5z"/><path fill="#868680" d="M153.2,23.5c-1.1,0-1.9,0.8-2.1,1.8h4.3C155.1,24.3,154.3,23.5,153.2,23.5z M151,26.2  c0.1,1.3,0.9,2.3,2.4,2.3c0.9,0,1.3-0.1,1.9-0.4l0.3,0.8c-0.6,0.3-1.2,0.5-2.2,0.5c-2.1,0-3.4-1.5-3.4-3.4c0-1.9,1.3-3.4,3.2-3.4  c1.9,0,3.2,1.5,3.2,3.6H151z"/><path fill="#868680" d="M166.1,20.9c-2.2,0-3.6,1.7-3.6,3.8c0,2.1,1.5,3.8,3.6,3.8c2.2,0,3.6-1.7,3.6-3.8  C169.7,22.6,168.3,20.9,166.1,20.9z M166.1,29.4c-2.7,0-4.6-2.1-4.6-4.7c0-2.6,1.9-4.7,4.6-4.7c2.7,0,4.6,2.1,4.6,4.7  C170.7,27.3,168.8,29.4,166.1,29.4z"/><path fill="#868680" d="M173.9,29.4c-0.9,0-1.6-0.4-2-0.6l0.3-0.8c0.5,0.3,1.1,0.6,1.7,0.6c0.8,0,1.3-0.4,1.3-1  c0-1.3-3.1-1.2-3.1-3.2c0-1.2,1.1-1.7,2-1.7c0.7,0,1.3,0.2,1.7,0.4l-0.2,0.8c-0.5-0.2-1-0.3-1.4-0.3c-0.8,0-1.1,0.4-1.1,0.8  c0,1.3,3.1,1.2,3.1,3.2C176.1,28.8,175,29.4,173.9,29.4z"/><path fill="#868680" d="M179.1,29.4c-0.8,0-1.4-0.3-1.4-1.2v-8.6h1v8.6c0,0.3,0.1,0.5,0.5,0.5L179.1,29.4z"/><path fill="#868680" d="M183.8,23.5c-1.4,0-2.4,1.1-2.4,2.5c0,1.4,1,2.5,2.4,2.5c1.4,0,2.4-1.1,2.4-2.5  C186.1,24.6,185.2,23.5,183.8,23.5z M183.8,29.4c-2,0-3.4-1.5-3.4-3.4c0-1.9,1.4-3.4,3.4-3.4c2,0,3.4,1.5,3.4,3.4  C187.1,27.9,185.7,29.4,183.8,29.4z"/><path fill="#868680" d="M195,29.4c-1.2,0-2.1-0.4-2.6-0.7l0.3-0.8c0.5,0.3,1.4,0.6,2.3,0.6c1.2,0,2-0.6,2-1.6c0-2.2-4.4-1.8-4.4-4.7  c0-1.5,1.4-2.3,2.6-2.3c0.8,0,1.5,0.2,2.3,0.5l-0.3,0.9c-0.5-0.2-1.3-0.5-2-0.5c-1.1,0-1.7,0.7-1.7,1.4c0,2,4.4,1.8,4.4,4.7  C198,28.5,196.5,29.4,195,29.4z"/><path fill="#868680" d="M202.6,29.4c-2.2,0-3.4-1.5-3.4-3.4c0-1.9,1.2-3.4,3.4-3.4c1,0,1.5,0.2,2.2,0.4l-0.2,0.9  c-0.6-0.2-1.1-0.4-2-0.4c-1.6,0-2.5,1-2.5,2.5c0,1.5,0.9,2.5,2.5,2.5c0.9,0,1.4-0.2,2-0.4l0.2,0.8C204.2,29.2,203.6,29.4,202.6,29.4  z"/><path fill="#868680" d="M210.9,29.2v-4.1c0-1.2-0.6-1.7-1.5-1.7c-1.2,0-2.1,1.1-2.1,2.7v3.1h-1v-9.7h1V24c0.5-0.9,1.3-1.4,2.2-1.4  c1.3,0,2.3,0.9,2.3,2.4v4.2H210.9z"/><path fill="#868680" d="M216.7,23.5c-1.4,0-2.4,1.1-2.4,2.5c0,1.4,1,2.5,2.4,2.5c1.4,0,2.4-1.1,2.4-2.5  C219.1,24.6,218.2,23.5,216.7,23.5z M216.7,29.4c-2,0-3.4-1.5-3.4-3.4c0-1.9,1.4-3.4,3.4-3.4c2,0,3.4,1.5,3.4,3.4  C220.1,27.9,218.7,29.4,216.7,29.4z"/><path fill="#868680" d="M224.8,23.5c-1.4,0-2.4,1.1-2.4,2.5c0,1.4,1,2.5,2.4,2.5c1.4,0,2.4-1.1,2.4-2.5  C227.2,24.6,226.2,23.5,224.8,23.5z M224.8,29.4c-2,0-3.4-1.5-3.4-3.4c0-1.9,1.4-3.4,3.4-3.4c2,0,3.4,1.5,3.4,3.4  C228.1,27.9,226.7,29.4,224.8,29.4z"/><path fill="#868680" d="M231.2,29.4c-0.8,0-1.4-0.3-1.4-1.2v-8.6h1v8.6c0,0.3,0.1,0.5,0.5,0.5L231.2,29.4z"/><path fill="#868680" d="M239.8,23.5c-1.4,0-2.4,1.1-2.4,2.5c0,1.4,1,2.5,2.4,2.5c1.4,0,2.4-1.1,2.4-2.5  C242.1,24.6,241.2,23.5,239.8,23.5z M239.8,29.4c-2,0-3.4-1.5-3.4-3.4c0-1.9,1.4-3.4,3.4-3.4s3.4,1.5,3.4,3.4  C243.1,27.9,241.7,29.4,239.8,29.4z"/><path fill="#868680" d="M248.2,20.4c-0.2,0-0.5-0.1-0.8-0.1c-0.9,0-1.2,0.5-1.2,1.3v1.2h2.1v0.8h-2.1v5.7h-1v-5.7H244v-0.8h1.2v-1.2  c0-1.4,0.9-2.2,2.2-2.2c0.4,0,0.9,0.1,1,0.2L248.2,20.4z"/><path fill="#868680" d="M256.8,21.2l-1.6,4.3h3.1L256.8,21.2z M259.7,29.2l-1-2.8h-3.8l-1,2.8h-1.1l3.4-9.1h1.2l3.4,9.1H259.7z"/><path fill="#868680" d="M263,26.1v3.1h-1v-6.5h0.9c0.1,0.3,0.1,0.9,0.1,1.2v0c0.5-0.8,1.3-1.4,2.4-1.4v0.9  C264,23.5,263,24.6,263,26.1z"/><path fill="#868680" d="M269.7,29.4c-2.2,0-3.4-1.5-3.4-3.4c0-1.9,1.2-3.4,3.4-3.4c1,0,1.5,0.2,2.2,0.4l-0.2,0.9  c-0.6-0.2-1.1-0.4-2-0.4c-1.6,0-2.5,1-2.5,2.5c0,1.5,0.9,2.5,2.4,2.5c0.9,0,1.4-0.2,2-0.4l0.2,0.8C271.3,29.2,270.7,29.4,269.7,29.4  z"/><path fill="#868680" d="M278,29.2v-4.1c0-1.2-0.6-1.7-1.5-1.7c-1.2,0-2.1,1.1-2.1,2.7v3.1h-1v-9.7h1V24c0.5-0.9,1.3-1.4,2.2-1.4  c1.3,0,2.3,0.9,2.3,2.4v4.2H278z"/><path fill="#868680" d="M281,29.2v-6.5h1v6.5H281z M281.5,21c-0.4,0-0.7-0.3-0.7-0.7c0-0.4,0.3-0.7,0.7-0.7c0.4,0,0.7,0.3,0.7,0.7  C282.2,20.7,281.9,21,281.5,21z"/><path fill="#868680" d="M286.5,29.4c-1.3,0-2.1-0.7-2.1-2.2v-3.6h-0.9v-0.8h0.9v-2.1h1v2.1h1.9v0.8h-1.9v3.6c0,1,0.4,1.4,1.2,1.4  c0.3,0,0.5,0,0.7-0.1v0.8C287.1,29.4,286.8,29.4,286.5,29.4z"/><path fill="#868680" d="M291.6,23.5c-1.1,0-1.9,0.8-2.1,1.8h4.3C293.5,24.3,292.7,23.5,291.6,23.5z M289.4,26.2  c0.1,1.3,0.9,2.3,2.4,2.3c0.9,0,1.3-0.1,1.9-0.4l0.3,0.8c-0.6,0.3-1.2,0.5-2.2,0.5c-2.1,0-3.4-1.5-3.4-3.4c0-1.9,1.3-3.4,3.2-3.4  c1.9,0,3.2,1.5,3.2,3.6H289.4z"/><path fill="#868680" d="M299.5,29.4c-2.2,0-3.4-1.5-3.4-3.4c0-1.9,1.2-3.4,3.4-3.4c1,0,1.5,0.2,2.2,0.4l-0.2,0.9  c-0.6-0.2-1.1-0.4-2-0.4c-1.6,0-2.5,1-2.5,2.5c0,1.5,0.9,2.5,2.5,2.5c0.9,0,1.4-0.2,2-0.4l0.2,0.8C301.1,29.2,300.5,29.4,299.5,29.4  z"/><path fill="#868680" d="M305.8,29.4c-1.3,0-2.1-0.7-2.1-2.2v-3.6h-0.9v-0.8h0.9v-2.1h1v2.1h1.9v0.8h-1.9v3.6c0,1,0.4,1.4,1.2,1.4  c0.3,0,0.5,0,0.7-0.1v0.8C306.4,29.4,306.1,29.4,305.8,29.4z"/><path fill="#868680" d="M310.8,29.4c-1.7,0-2.7-1.2-2.7-2.7v-3.9h1v3.8c0,1,0.6,2,1.8,2c1.2,0,1.8-0.9,1.8-2v-3.8h1v3.9  C313.5,28.1,312.5,29.4,310.8,29.4z"/><path fill="#868680" d="M316.5,26.1v3.1h-1v-6.5h0.9c0.1,0.3,0.1,0.9,0.1,1.2v0c0.5-0.8,1.3-1.4,2.4-1.4v0.9  C317.5,23.5,316.5,24.6,316.5,26.1z"/><path fill="#868680" d="M322.9,23.5c-1.1,0-1.9,0.8-2.1,1.8h4.3C324.8,24.3,324,23.5,322.9,23.5z M320.7,26.2  c0.1,1.3,0.9,2.3,2.4,2.3c0.9,0,1.3-0.1,1.9-0.4l0.3,0.8c-0.6,0.3-1.2,0.5-2.2,0.5c-2.1,0-3.4-1.5-3.4-3.4c0-1.9,1.3-3.4,3.2-3.4  c1.9,0,3.2,1.5,3.2,3.6H320.7z"/><path fill="#868680" d="M334.5,23.5c-1.3,0-2.2,1.1-2.2,2.5c0,1.4,0.9,2.5,2.2,2.5c1.3,0,2.3-1.1,2.3-2.5S335.9,23.5,334.5,23.5z   M336.9,29.2c-0.1-0.3-0.1-0.7-0.1-1c-0.5,0.7-1.3,1.2-2.3,1.2c-1.8,0-3.1-1.5-3.1-3.4c0-1.9,1.3-3.4,3.1-3.4c1,0,1.8,0.4,2.3,1.2  v-1h1v6.5H336.9z"/><path fill="#868680" d="M344.2,29.2v-4.1c0-1.2-0.6-1.7-1.5-1.7c-1.2,0-2.1,1.1-2.1,2.7v3.1h-1v-6.5h0.8c0.1,0.3,0.1,0.9,0.1,1.2V24  c0.5-0.9,1.3-1.4,2.2-1.4c1.3,0,2.3,0.9,2.3,2.4v4.2H344.2z"/><path fill="#868680" d="M349.9,23.5c-1.3,0-2.2,1.1-2.2,2.5c0,1.4,0.9,2.5,2.2,2.5c1.3,0,2.3-1.1,2.3-2.5  C352.2,24.6,351.3,23.5,349.9,23.5z M352.3,29.2c-0.1-0.3-0.1-0.7-0.1-1c-0.5,0.7-1.3,1.2-2.3,1.2c-1.8,0-3.1-1.5-3.1-3.4  c0-1.9,1.3-3.4,3.1-3.4c1,0,1.8,0.5,2.3,1.2v-4.2h1v9.7H352.3z"/><path fill="#868680" d="M362,21h-2v7.3h2c2.6,0,3.5-1.7,3.5-3.7C365.4,22.7,364.5,21,362,21z M362.1,29.2H359v-9.2h3.1  c3,0,4.3,2.1,4.3,4.6C366.4,27.2,365,29.2,362.1,29.2z"/><path fill="#868680" d="M370.9,23.5c-1.1,0-1.9,0.8-2.1,1.8h4.3C372.8,24.3,372,23.5,370.9,23.5z M368.7,26.2  c0.1,1.3,0.9,2.3,2.4,2.3c0.9,0,1.3-0.1,1.9-0.4l0.3,0.8c-0.7,0.3-1.2,0.4-2.2,0.4c-2.1,0-3.4-1.5-3.4-3.4c0-1.9,1.3-3.4,3.2-3.4  c1.9,0,3.2,1.6,3.2,3.6H368.7z"/><path fill="#868680" d="M377.3,29.4c-0.9,0-1.6-0.4-2-0.6l0.3-0.8c0.5,0.3,1.1,0.6,1.7,0.6c0.8,0,1.3-0.4,1.3-1  c0-1.3-3.1-1.2-3.1-3.2c0-1.2,1.1-1.7,2-1.7c0.7,0,1.3,0.2,1.7,0.4l-0.2,0.8c-0.4-0.2-1-0.3-1.4-0.3c-0.8,0-1.1,0.4-1.1,0.8  c0,1.3,3.1,1.2,3.1,3.2C379.5,28.8,378.3,29.4,377.3,29.4z"/><path fill="#868680" d="M381.1,29.2v-6.5h1v6.5H381.1z M381.6,21c-0.4,0-0.7-0.3-0.7-0.7c0-0.4,0.3-0.7,0.7-0.7  c0.4,0,0.7,0.3,0.7,0.7C382.3,20.7,381.9,21,381.6,21z"/><path fill="#868680" d="M386.9,23.5c-1.3,0-2.2,1.1-2.2,2.5c0,1.4,0.9,2.5,2.2,2.5c1.3,0,2.3-1.1,2.3-2.5  C389.2,24.6,388.3,23.5,386.9,23.5z M387,32.1c-0.8,0-1.8-0.3-2.4-0.6l0.3-0.8c0.7,0.3,1.4,0.6,2.1,0.6c1.5,0,2.1-0.8,2.1-2.2v-0.7  c-0.5,0.7-1.3,1.2-2.3,1.2c-1.8,0-3.1-1.5-3.1-3.4c0-1.9,1.3-3.4,3.1-3.4c1,0,1.8,0.5,2.3,1.2c0-0.3,0.1-0.8,0.1-1h0.8v6.4  C390.1,30.9,388.9,32.1,387,32.1z"/><path fill="#868680" d="M396.6,29.2v-4.1c0-1.2-0.6-1.7-1.5-1.7c-1.2,0-2.1,1.1-2.1,2.7v3.1h-1v-6.5h0.8c0.1,0.3,0.1,0.9,0.1,1.2V24  c0.5-0.9,1.3-1.4,2.2-1.4c1.3,0,2.3,0.9,2.3,2.4v4.2H396.6z"/><path fill="#E54800" d="M297.3,10.2c-0.6,0-1-0.2-1.4-0.5l3.4-3.7c0.3,0.4,0.4,0.9,0.4,1.5C299.8,9,298.8,10.2,297.3,10.2z   M294.9,7.6c0-1.4,0.9-2.6,2.4-2.6c0.5,0,1,0.2,1.4,0.4l-3.4,3.6C295.1,8.6,294.9,8.1,294.9,7.6z M300.3,5l0.6-0.6l-0.7-0.6  l-0.6,0.6c-0.6-0.5-1.4-0.7-2.3-0.7c-2.3,0-3.9,1.8-3.9,3.9c0,1,0.3,1.8,0.9,2.5l-0.7,0.7l0.7,0.6l0.7-0.7c0.6,0.5,1.4,0.8,2.4,0.8  c2.3,0,3.9-1.8,3.9-3.9C301.3,6.6,300.9,5.7,300.3,5z"/></svg>