<?xml version="1.0" encoding="UTF-8" standalone="no"?>
<svg
   xmlns:dc="http://purl.org/dc/elements/1.1/"
   xmlns:cc="http://creativecommons.org/ns#"
   xmlns:rdf="http://www.w3.org/1999/02/22-rdf-syntax-ns#"
   xmlns:svg="http://www.w3.org/2000/svg"
   xmlns="http://www.w3.org/2000/svg"
   xmlns:sodipodi="http://sodipodi.sourceforge.net/DTD/sodipodi-0.dtd"
   xmlns:inkscape="http://www.inkscape.org/namespaces/inkscape"
   sodipodi:docname="Hustadvika_komm-1.svg"
   inkscape:version="1.0 (4035a4fb49, 2020-05-01)"
   id="svg8"
   version="1.1"
   viewBox="0 0 192.67336 234.09055"
   height="234.09055mm"
   width="192.67336mm">
  <defs
     id="defs2" />
  <sodipodi:namedview
     inkscape:document-rotation="0"
     inkscape:window-maximized="1"
     inkscape:window-y="-8"
     inkscape:window-x="-8"
     inkscape:window-height="1027"
     inkscape:window-width="1920"
     fit-margin-bottom="0"
     fit-margin-right="0"
     fit-margin-left="0"
     fit-margin-top="0"
     showgrid="false"
     inkscape:current-layer="layer1"
     inkscape:document-units="mm"
     inkscape:cy="446.69608"
     inkscape:cx="129.64289"
     inkscape:zoom="0.7"
     inkscape:pageshadow="2"
     inkscape:pageopacity="0.0"
     borderopacity="1.0"
     bordercolor="#666666"
     pagecolor="#ffffff"
     id="base" />
  <metadata
     id="metadata5">
    <rdf:RDF>
      <cc:Work
         rdf:about="">
        <dc:format>image/svg+xml</dc:format>
        <dc:type
           rdf:resource="http://purl.org/dc/dcmitype/StillImage" />
        <dc:title></dc:title>
      </cc:Work>
    </rdf:RDF>
  </metadata>
  <g
     transform="translate(82.431807,-196.09656)"
     id="layer1"
     inkscape:groupmode="layer"
     inkscape:label="Layer 1">
    <path
       style="opacity:1;vector-effect:none;fill:#ffffff;fill-opacity:1;stroke:#256596;stroke-width:0.0478017;stroke-linecap:butt;stroke-linejoin:miter;stroke-miterlimit:4;stroke-dasharray:none;stroke-dashoffset:0;stroke-opacity:1"
       d="m -82.510807,196.26192 c 1.26277,42.35314 7.12201,84.70271 19.16162,125.37515 10.19535,30.97264 29.04624,58.36072 50.56517,82.55094 8.4932101,9.00789 16.9333201,18.16991 26.47627,26.08178 2.38549,-1.1554 4.22857,-3.57422 6.32233,-5.26786 27.1663,-25.61776 51.23295,-55.41712 66.00253,-89.96564 8.04444,-19.19166 12.20008,-39.71891 16.114347,-60.07241 4.66286,-25.99389 7.46091,-52.4331 8.03112,-78.78464 H -82.431807 Z"
       id="path828-9"
       inkscape:connector-curvature="0"
       sodipodi:nodetypes="cccccccccc" />
    <path
       sodipodi:nodetypes="cccccccccccccccccccsczcccccccccccccccccccccccccccccccsccczcc"
       transform="matrix(0.26458333,0,0,0.26458333,-111.0305,190.6375)"
       inkscape:connector-curvature="0"
       id="path828"
       d="m 108.08955,20.945167 c 4.77267,160.074853 26.91782,320.136213 72.42187,473.858813 38.5336,117.06196 109.78106,220.57597 191.11242,312.00356 32.10035,34.04558 63.99997,68.6737 100.06782,98.5768 9.01602,-4.36686 15.98199,-13.50886 23.8954,-19.90999 102.6758,-96.82304 193.63635,-209.45056 249.45838,-340.02764 30.40418,-72.5354 46.11052,-150.11872 60.9046,-227.04532 17.62338,-98.24464 28.19867,-198.17235 30.3538,-297.768723 H 108.3881 Z M 738.19558,185.59918 c 2.33966,-0.20629 13.39517,1.94971 10.21763,4.6903 -23.09351,9.95381 -31.93333,28.26901 -37.90909,50.95605 -15.28401,51.52419 -19.07213,105.65679 -36.28734,156.58859 -23.44184,61.33689 -73.58127,116.00113 -138.98159,131.64063 -37.21618,8.67004 -77.60918,2.65611 -111.40624,-14.86607 -4.87489,-2.8056 3.2734,-1.51147 4.8739,-1.04852 24.42014,6.81315 50.04806,5.95635 75.10377,4.52786 50.01456,-7.55011 90.99536,-42.95209 118.81139,-83.4933 9.80005,-15.02099 22.99173,-39.23379 30.54359,-61.03282 7.84094,-22.63348 9.85819,-42.58604 9.85819,-42.58604 0,0 -5.41503,-1.22702 -18.6911,-2.61204 -13.27607,-1.38503 -38.52198,-3.42657 -61.0522,-3.62959 -7.67944,48.38513 -38.7457,91.08675 -80.19253,116.51506 -37.29407,24.83212 -82.9995,31.17294 -126.7885,32.70369 -1.73219,0.22495 -4.59076,0.1818 -4.59076,0.1818 0,0 -0.21949,4.72606 -0.43926,12.4475 -2.79618,27.57491 -0.1984,58.89865 -13.57489,84.02248 -6.77383,10.89486 -22.67708,22.59198 -35.23164,24.59892 3.53683,-7.36356 5.91285,-11.24398 9.67918,-16.57436 16.67493,-29.61349 13.63592,-64.56159 15.49547,-97.22289 0.22381,-4.83813 0.5976,-8.59854 0.5976,-8.59854 0,0 -5.80297,-0.21835 -16.31614,-0.13584 -30.0073,1.599 -56.13257,-1.58073 -77.17518,8.75506 -3.19131,0.73115 -19.63879,12.96444 -22.62406,11.4684 2.67967,-13.28392 11.68801,-25.5506 22.89898,-33.23382 21.28313,-11.77678 46.87036,-9.51704 70.29019,-12.08148 22.40803,-1.44329 22.36334,-1.41014 22.36334,-1.41014 0,0 1.19823,-41.47994 5.44652,-60.36644 7.33155,-40.99587 26.30874,-80.03352 56.30844,-109.24741 27.40234,-28.06971 67.11305,-47.32517 106.83869,-45.43876 14.23866,0.67869 28.3494,0.7685 41.57928,6.45717 -17.82207,3.16879 -37.24726,1.4318 -55.18694,6.46485 -43.16012,9.1118 -77.91956,41.0771 -98.88452,78.84683 -21.90201,37.12538 -28.05078,81.38592 -29.59484,123.52202 36.92303,-2.75484 75.10542,-5.56155 108.51842,-23.10267 39.35014,-19.3274 73.91184,-54.75884 86.49539,-97.34923 -6.14669,1.16893 -11.80593,1.26746 -23.67082,4.8137 -33.27587,7.82283 -66.91683,23.16416 -87.19399,51.85752 -6.0952,6.21846 -8.5519,15.85557 -15.21763,21.2221 -2.71707,-7.18654 0.61366,-16.06742 2.1568,-23.50169 12.04303,-36.90567 47.20965,-60.95174 82.57295,-72.87518 15.05062,-5.8737 31.17643,-8.28525 46.40585,-13.1516 1.30858,-3.61989 1.48469,-8.94026 1.73437,-12.58955 0.57946,-8.4693 0.50719,-15.09362 2.58203,-22.50531 3.52915,11.07184 5.24966,23.14207 5.87612,34.56751 27.52154,0.31422 85.28811,7.04373 85.28811,7.04373 0,0 1.40987,-7.22606 5.16267,-22.8134 3.7528,-15.58734 9.00287,-45.94903 18.1904,-67.38601 7.85023,-17.10502 26.90179,-26.08333 45.11999,-25.03907 z"
       style="opacity:1;vector-effect:none;fill:#256596;fill-opacity:1;stroke:none;stroke-width:0.18066844;stroke-linecap:butt;stroke-linejoin:miter;stroke-miterlimit:4;stroke-dasharray:none;stroke-dashoffset:0;stroke-opacity:1" />
  </g>
</svg>
