<?xml version="1.0" encoding="utf-8"?>
<!-- Generator: Adobe Illustrator 19.1.0, SVG Export Plug-In . SVG Version: 6.00 Build 0)  -->
<!DOCTYPE svg PUBLIC "-//W3C//DTD SVG 1.1//EN" "http://www.w3.org/Graphics/SVG/1.1/DTD/svg11.dtd">
<svg version="1.1" id="Layer_1" xmlns="http://www.w3.org/2000/svg" xmlns:xlink="http://www.w3.org/1999/xlink" x="0px" y="0px"
	 viewBox="0 0 352.6 138" enable-background="new 0 0 352.6 138" xml:space="preserve">
<g>
	<linearGradient id="SVGID_1_" gradientUnits="userSpaceOnUse" x1="300.6599" y1="48.2962" x2="255.1297" y2="-16.7276">
		<stop  offset="0" style="stop-color:#3A8CAA"/>
		<stop  offset="0.1565" style="stop-color:#5CACCD"/>
		<stop  offset="0.311" style="stop-color:#77C5E9"/>
		<stop  offset="0.4" style="stop-color:#81CFF4"/>
		<stop  offset="0.4875" style="stop-color:#81CFF4"/>
		<stop  offset="1" style="stop-color:#81CFF4"/>
	</linearGradient>
	<polygon fill="url(#SVGID_1_)" points="231.2,0 310.9,0 271.1,69 	"/>
	<path fill="#81CFF4" d="M231.2,138L310.9,0l38.4,66.5c0.9,1.5,0.9,3.4,0,4.9L310.9,138H231.2z"/>
</g>
<path fill="#003057" d="M0,36h13.8v26.2h25.5V36h13.8v65.6H39.4V75H13.8v26.6H0V36z"/>
<path fill="#003057" d="M59.7,77.8v-0.2c0-13.8,9.8-25.1,23.8-25.1c16.1,0,23.5,12.5,23.5,26.2c0,1.1-0.1,2.3-0.2,3.6H73.2
	c1.3,6.2,5.7,9.4,11.8,9.4c4.6,0,7.9-1.4,11.7-4.9l7.8,6.9c-4.5,5.6-11,9-19.7,9C70.4,102.7,59.7,92.5,59.7,77.8z M93.6,73.7
	c-0.8-6.1-4.4-10.2-10.2-10.2c-5.7,0-9.3,4-10.4,10.2H93.6z"/>
<path fill="#003057" d="M113.4,36h13.7v65.6h-13.7V36z"/>
<path fill="#003057" d="M140.1,65.1h-5.7V53.9h5.7v-3.1c0-5.3,1.3-9.2,3.9-11.7c2.5-2.5,6.2-3.8,11.1-3.8c4.3,0,7.2,0.5,9.7,1.3V48
	c-2-0.7-3.9-1.2-6.2-1.2c-3.1,0-4.9,1.6-4.9,5.2V54h11.1v11.1h-10.9v36.5h-13.7V65.1z"/>
<path fill="#003057" d="M165.4,77.8v-0.2c0-13.8,11.1-25.1,26.2-25.1c14.9,0,26,11.1,26,24.9v0.2c0,13.8-11.1,25.1-26.2,25.1
	C176.5,102.7,165.4,91.6,165.4,77.8z M204.1,77.8v-0.2c0-7.1-5.1-13.3-12.7-13.3c-7.8,0-12.5,6-12.5,13.1v0.2
	c0,7.1,5.1,13.3,12.7,13.3C199.4,90.9,204.1,84.9,204.1,77.8z"/>
</svg>
