<?xml version="1.0" encoding="UTF-8" standalone="no"?>
<svg
   xmlns:dc="http://purl.org/dc/elements/1.1/"
   xmlns:cc="http://creativecommons.org/ns#"
   xmlns:rdf="http://www.w3.org/1999/02/22-rdf-syntax-ns#"
   xmlns:svg="http://www.w3.org/2000/svg"
   xmlns="http://www.w3.org/2000/svg"
   xmlns:sodipodi="http://sodipodi.sourceforge.net/DTD/sodipodi-0.dtd"
   xmlns:inkscape="http://www.inkscape.org/namespaces/inkscape"
   viewBox="0 0 151.38266 94.48533"
   height="94.485329"
   width="151.38266"
   xml:space="preserve"
   id="svg2"
   version="1.1"
   sodipodi:docname="USN_logotype.svg"
   inkscape:version="0.92.2 5c3e80d, 2017-08-06"><sodipodi:namedview
     pagecolor="#ffffff"
     bordercolor="#666666"
     borderopacity="1"
     objecttolerance="10"
     gridtolerance="10"
     guidetolerance="10"
     inkscape:pageopacity="0"
     inkscape:pageshadow="2"
     inkscape:window-width="1028"
     inkscape:window-height="699"
     id="namedview12"
     showgrid="false"
     fit-margin-top="0"
     fit-margin-left="0"
     fit-margin-right="0"
     fit-margin-bottom="0"
     inkscape:zoom="0.39396621"
     inkscape:cx="69.638"
     inkscape:cy="47.242396"
     inkscape:window-x="0"
     inkscape:window-y="0"
     inkscape:window-maximized="0"
     inkscape:current-layer="svg2" /><metadata
     id="metadata8"><rdf:RDF><cc:Work
         rdf:about=""><dc:format>image/svg+xml</dc:format><dc:type
           rdf:resource="http://purl.org/dc/dcmitype/StillImage" /><dc:title></dc:title></cc:Work></rdf:RDF></metadata><defs
     id="defs6"><clipPath
       id="clipPath18"
       clipPathUnits="userSpaceOnUse"><path
         id="path16"
         d="M 0,155.905 H 189.496 V 0 H 0 Z"
         inkscape:connector-curvature="0" /></clipPath></defs><g
     transform="matrix(1.3333333,0,0,-1.3333333,-56.692665,151.1796)"
     id="g10"><g
       id="g12"><g
         clip-path="url(#clipPath18)"
         id="g14"><g
           transform="translate(42.5195,112.1817)"
           id="g20"><path
             id="path22"
             style="fill:#231f20;fill-opacity:1;fill-rule:nonzero;stroke:none"
             d="m 0,0 h 11.427 l 0.001,-42.6 c 0,-5.617 0.447,-9.741 2.87,-14.153 3.199,-5.824 8.818,-9.222 17.744,-9.222 14.396,0 18.974,7.536 18.974,13.883 0,8.622 -11.378,12.504 -22.17,17.518 -9.573,4.448 -11.72,11.721 -10.153,20.016 1.643,8.703 9.644,15.761 23.304,15.761 9.766,0 15.084,-0.967 21.322,-1.783 L 100.167,-49.129 100.168,0 113.537,-0.002 v -3.472 h -9.256 v -65.383 h -3.235 L 60.705,-15.97 v -19.909 c -1.034,1.338 -2.383,2.644 -4.112,3.938 v 21.62 c -1.349,4.343 -5.613,8.014 -14.403,8.237 -7.18,0.181 -13.489,-3.155 -14.61,-10.404 -1.473,-9.526 7.014,-11.842 18.188,-17.251 12.183,-5.899 15.181,-11.652 15.181,-18.178 0,-9.188 -10.056,-21.744 -29.001,-21.744 -10.381,0 -18.976,3.06 -24.564,8.758 C 1.287,-54.687 0,-49.44 0,-39.65 Z"
             inkscape:connector-curvature="0" /></g></g></g></g></svg>