<svg id="Layer_1" preserveAspectRatio="xMinYMid" data-name="Layer 1" xmlns="http://www.w3.org/2000/svg" viewBox="0 0 496.49043 76.90269"><title>ptil-logo-norsk-new</title><path d="M57.87416,81.92051a25.04441,25.04441,0,0,0,50.08881,0" transform="translate(-44.45815 -43.98164)" fill="currentColor" stroke="#231f20" stroke-width="3.36"/><path d="M87.4152,81.68121a4.85,4.85,0,1,1-4.85011-4.85011A4.84982,4.84982,0,0,1,87.4152,81.68121Z" transform="translate(-44.45815 -43.98164)" fill="currentColor"/><path d="M81.62682,108.22358c0-.7844.41877-1.42328.93674-1.42328h0c.52123,0,.94.63888.94,1.42328V118.4285c0,.78462-.41878,1.42384-.94,1.42384h0c-.518,0-.93674-.63922-.93674-1.42384Z" transform="translate(-44.45815 -43.98164)" fill="currentColor" stroke="#231f20" stroke-width="2.06399"/><path d="M81.62682,46.43691c0-.78439.41877-1.42327.93674-1.42327h0c.52123,0,.94.63888.94,1.42327V56.64183c0,.78462-.41878,1.42384-.94,1.42384h0c-.518,0-.93674-.63922-.93674-1.42384Z" transform="translate(-44.45815 -43.98164)" fill="currentColor" stroke="#231f20" stroke-width="2.06399"/><path d="M109.07315,82.59121c-.7844,0-1.42328-.41878-1.42328-.93674h0c0-.52124.63888-.94,1.42328-.94h10.20491c.78462,0,1.42384.41877,1.42384.94h0c0,.518-.63922.93674-1.42384.93674Z" transform="translate(-44.45815 -43.98164)" fill="currentColor" stroke="#231f20" stroke-width="2.06399"/><path d="M46.91343,82.59121c-.7844,0-1.42328-.41878-1.42328-.93674h0c0-.52124.63888-.94,1.42328-.94H57.11834c.78462,0,1.42384.41877,1.42384.94h0c0,.518-.63922.93674-1.42384.93674Z" transform="translate(-44.45815 -43.98164)" fill="currentColor" stroke="#231f20" stroke-width="2.06399"/><path d="M74.5779,81.16261a7.99162,7.99162,0,1,1,15.98324,0c0,.2074-.01559.411-.031.61441H107.963c0-13.8291-11.772-25.04277-25.6025-25.04277-13.83266,0-24.48633,11.21367-24.48633,25.04277H74.60893C74.59348,81.57359,74.5779,81.37,74.5779,81.16261Z" transform="translate(-44.45815 -43.98164)" fill="currentColor"/><path d="M107.963,81.92051a25.04441,25.04441,0,0,0-50.08881,0" transform="translate(-44.45815 -43.98164)" fill="currentColor" stroke="#231f20" stroke-width="3.36"/><path d="M157.24131,70.29839c2.12625,0,3.60079.22646,4.98977,1.44574a6.42991,6.42991,0,0,1,.36849,8.78907,6.48255,6.48255,0,0,1-4.79126,1.67276H155.4268v7.00279H151.741V70.29839Zm-1.81451,8.732h1.50249a3.77346,3.77346,0,0,0,2.41-.59524,2.82213,2.82213,0,0,0,1.02049-2.21152,2.6022,2.6022,0,0,0-1.049-2.15449,4.43684,4.43684,0,0,0-2.60825-.5958H155.4268Z" transform="translate(-44.45815 -43.98164)" fill="currentColor"/><path d="M183.975,73.47337h-6.80428V77.6982h6.52078v3.175h-6.52078v5.16H183.975v3.17554H173.485V70.29839H183.975Z" transform="translate(-44.45815 -43.98164)" fill="currentColor"/><path d="M200.10515,73.47337V89.20875h-3.686V73.47337h-4.2525v-3.175h12.19129v3.175Z" transform="translate(-44.45815 -43.98164)" fill="currentColor"/><path d="M218.7586,70.29839a6.95222,6.95222,0,0,1,4.81978,1.4175,5.37,5.37,0,0,1,1.87127,4.2525,5.1645,5.1645,0,0,1-2.21153,4.45129,5.24044,5.24044,0,0,1-2.06949.82227l5.897,7.9668H222.4729l-5.04709-7.598h-.45321v7.598h-3.68578V70.29839Zm-1.786,8.70379h1.049c.70875,0,3.629-.08527,3.629-2.8638,0-2.80676-2.892-2.835-3.57256-2.835H216.9726Z" transform="translate(-44.45815 -43.98164)" fill="currentColor"/><path d="M255.44361,79.76741c0,5.75584-4.139,9.86659-10.09305,9.86659-5.95379,0-10.09306-4.11075-10.09306-9.86659,0-5.75528,4.13927-9.89478,10.09306-9.89478C251.30462,69.87263,255.44361,74.01213,255.44361,79.76741Zm-3.79873,0a6.29813,6.29813,0,1,0-6.29432,6.52106A6.17484,6.17484,0,0,0,251.64488,79.76741Z" transform="translate(-44.45815 -43.98164)" fill="currentColor"/><path d="M269.13519,70.29839V86.03321h5.84v3.17554h-9.52571V70.29839Z" transform="translate(-44.45815 -43.98164)" fill="currentColor"/><path d="M294.62167,73.47337h-6.80423V77.6982h6.52073v3.175h-6.52073v5.16h6.80423v3.17554h-10.4903V70.29839h10.4903Z" transform="translate(-44.45815 -43.98164)" fill="currentColor"/><path d="M308.48414,70.29839V82.17772a4.11456,4.11456,0,0,0,.907,2.80677,4.1151,4.1151,0,0,0,6.01054,0,4.11456,4.11456,0,0,0,.907-2.80677V70.29839h3.68607v11.567a7.96109,7.96109,0,0,1-1.4175,5.04709,8.3794,8.3794,0,0,1-12.36162,0,7.96109,7.96109,0,0,1-1.4175-5.04709v-11.567Z" transform="translate(-44.45815 -43.98164)" fill="currentColor"/><path d="M333.45924,69.95785h2.5515l5.1318,12.36162,5.35827-12.36162h2.5515l3.17554,19.2509h-3.74254l-1.701-11.6523L341.596,89.464h-1.02049l-4.96181-11.90756-1.928,11.6523h-3.742Z" transform="translate(-44.45815 -43.98164)" fill="currentColor"/><path d="M371.47648,74.60737a3.694,3.694,0,0,0-3.09027-1.61573c-1.9845,0-2.60848,1.24752-2.60848,2.21153a1.59216,1.59216,0,0,0,.59575,1.27575,6.45138,6.45138,0,0,0,2.268,1.07753,11.00019,11.00019,0,0,1,3.82725,1.89922,5.14489,5.14489,0,0,1,1.61629,3.96957c0,3.6855-2.665,6.20876-6.57754,6.20876a7.78284,7.78284,0,0,1-6.521-3.57255l2.40975-2.29624a4.43433,4.43433,0,0,0,3.96951,2.52326,2.65236,2.65236,0,0,0,2.92027-2.60854,2.197,2.197,0,0,0-.73755-1.701,8.48,8.48,0,0,0-2.92022-1.38926,9.0864,9.0864,0,0,1-3.14679-1.64453,4.39866,4.39866,0,0,1-1.50272-3.51551c0-2.77853,1.871-5.557,6.067-5.557a7.27364,7.27364,0,0,1,5.35877,2.21147Z" transform="translate(-44.45815 -43.98164)" fill="currentColor"/><path d="M389.87466,73.47337V89.20875h-3.6855V73.47337H381.9361v-3.175h12.19163v3.175Z" transform="translate(-44.45815 -43.98164)" fill="currentColor"/><path d="M406.74235,70.29839V89.20875h-3.68607V70.29839Z" transform="translate(-44.45815 -43.98164)" fill="currentColor"/><path d="M421.342,70.29839V86.03321h5.84055v3.17554H417.656V70.29839Z" transform="translate(-44.45815 -43.98164)" fill="currentColor"/><path d="M445.63775,74.60737a3.694,3.694,0,0,0-3.09026-1.61573c-1.9845,0-2.60849,1.24752-2.60849,2.21153a1.5931,1.5931,0,0,0,.59524,1.27575,6.4598,6.4598,0,0,0,2.26851,1.07753A11.00011,11.00011,0,0,1,446.63,79.45567a5.14489,5.14489,0,0,1,1.61629,3.96957c0,3.6855-2.665,6.20876-6.57754,6.20876a7.78284,7.78284,0,0,1-6.521-3.57255l2.40975-2.29624a4.43433,4.43433,0,0,0,3.96951,2.52326,2.65237,2.65237,0,0,0,2.92028-2.60854,2.197,2.197,0,0,0-.73756-1.701,8.48,8.48,0,0,0-2.92022-1.38926,9.0864,9.0864,0,0,1-3.14679-1.64453A4.39869,4.39869,0,0,1,436.14,75.42963c0-2.77853,1.871-5.557,6.067-5.557a7.27366,7.27366,0,0,1,5.35878,2.21147Z" transform="translate(-44.45815 -43.98164)" fill="currentColor"/><path d="M462.36317,80.56143l-6.49226-10.263h4.366l4.05428,6.57754,4.05428-6.57754h4.366l-6.66225,10.263v8.64732h-3.68607Z" transform="translate(-44.45815 -43.98164)" fill="currentColor"/><path d="M481.41358,89.20875V69.87263h2.55207L495.4762,83.02822V70.29839h3.686V89.57753h-2.552L485.09965,76.42188V89.20875Z" transform="translate(-44.45815 -43.98164)" fill="currentColor"/><path d="M520.566,73.47337h-6.80457V77.6982h6.52107v3.175h-6.52107v5.16H520.566v3.17554H510.07532V70.29839H520.566Z" transform="translate(-44.45815 -43.98164)" fill="currentColor"/><path d="M536.69551,73.47337V89.20875H533.01V73.47337h-4.253v-3.175h12.19158v3.175Z" transform="translate(-44.45815 -43.98164)" fill="currentColor"/></svg>