<?xml version="1.0" encoding="UTF-8" standalone="no"?>
<svg
   xmlns:dc="http://purl.org/dc/elements/1.1/"
   xmlns:cc="http://creativecommons.org/ns#"
   xmlns:rdf="http://www.w3.org/1999/02/22-rdf-syntax-ns#"
   xmlns:svg="http://www.w3.org/2000/svg"
   xmlns="http://www.w3.org/2000/svg"
   xmlns:sodipodi="http://sodipodi.sourceforge.net/DTD/sodipodi-0.dtd"
   xmlns:inkscape="http://www.inkscape.org/namespaces/inkscape"
   id="svg2"
   height="500"
   width="382.73468"
   version="1.0"
   inkscape:version="0.91 r13725"
   sodipodi:docname="Bodø_komm.svg">
  <sodipodi:namedview
     pagecolor="#ffffff"
     bordercolor="#666666"
     borderopacity="1"
     objecttolerance="10"
     gridtolerance="10"
     guidetolerance="10"
     inkscape:pageopacity="0"
     inkscape:pageshadow="2"
     inkscape:window-width="1600"
     inkscape:window-height="1135"
     id="namedview9"
     showgrid="false"
     inkscape:zoom="0.6675088"
     inkscape:cx="-143.93255"
     inkscape:cy="403.88739"
     inkscape:window-x="1600"
     inkscape:window-y="0"
     inkscape:window-maximized="1"
     inkscape:current-layer="svg2" />
  <metadata
     id="metadata9">
    <rdf:RDF>
      <cc:Work
         rdf:about="">
        <dc:format>image/svg+xml</dc:format>
        <dc:type
           rdf:resource="http://purl.org/dc/dcmitype/StillImage" />
        <dc:title />
      </cc:Work>
    </rdf:RDF>
  </metadata>
  <defs
     id="defs5" />
  <path
     style="fill:#e00e00;fill-opacity:1;fill-rule:evenodd;stroke:none;stroke-opacity:1"
     id="path2384"
     d="m 381.09416,1.4333384 0,249.1683016 C 363.28799,394.46107 190.9717,499.26664 191.5,499.26664 c 0.52831,0 -172.032835,-104.80557 -189.8390048,-248.665 l 0,-249.1682997" />
  <path
     style="fill:#ffe000;fill-opacity:1;stroke:#000000;stroke-linecap:round;stroke-linejoin:round;stroke-opacity:1"
     id="path2390"
     d="m 204.2865,288.49814 c 3.48516,-0.70858 6.83426,-1.58003 10.11091,-2.78566 L 286.92773,385.89306 236.27,272.60956 c 2.77188,-2.4215 5.37667,-5.01625 7.73794,-7.84112 l 93.6807,34.56282 -81.40316,-55.81637 c 1.41917,-3.97034 2.40966,-8.11692 3.09518,-12.38071 l 99.56153,-11.55533 -99.6647,-11.55533 c -0.66953,-3.91232 -1.70161,-7.68627 -2.99201,-11.34898 l 100.49009,-72.83985 -113.28349,50.55457 c -2.20184,-2.57373 -4.5709,-4.9913 -7.11891,-7.22208 L 286.72138,54.296375 214.39741,154.16743 c -3.3846,-1.24741 -6.81383,-2.27578 -10.42043,-2.992 L 191.38993,29.328605 178.80288,151.17543 c -3.6066,0.71622 -7.03583,1.74459 -10.42043,2.992 L 96.058465,54.296375 146.40669,167.16718 c -2.54801,2.23078 -4.91707,4.64835 -7.11891,7.22208 L 26.004275,123.83469 126.49438,196.67454 c -1.2904,3.66271 -2.32248,7.43666 -2.99201,11.34898 l -99.664715,11.55533 99.561545,11.55533 c 0.68552,4.26379 1.67601,8.41037 3.09518,12.38071 l -81.403175,55.81637 93.680715,-34.56282 c 2.36127,2.82487 4.96606,5.41962 7.73794,7.84112 L 95.852115,385.89306 168.38245,285.71248 c 3.27665,1.20563 6.62575,2.07708 10.11091,2.78566 l 12.89657,122.36268 z" />
  <path
     id="path4139"
     d="m 381.09416,1.4333384 0,249.1683016 C 369.72744,342.5661 291.5434,433.03887 191.5,499.26664 91.456585,433.03887 13.272545,342.5661 1.9058252,250.60164 l 0,-249.1683016 z"
     style="fill:none;fill-rule:evenodd;stroke:#000000;stroke-width:1px;stroke-linecap:butt;stroke-linejoin:miter;stroke-opacity:1" />
</svg>
