<svg xmlns="http://www.w3.org/2000/svg" viewBox="0 0 308 32.8"><path fill="currentColor" d="M294.7 13.8h3.2v8.1c0 5.3 2.3 6.8 6.9 6.8 1.1 0 2.1-.1 3.2-.2v-4.2c-.7.1-1.4.2-2 .2-1.9 0-2.6-.7-2.6-2.4v-8.4h4.4v-4h-4.4V4.2h-5.5v5.5h-3.2v4.1zm-10.1-.4c2 0 3.7 1 3.7 3.9h-7.9c.4-2.8 2-3.9 4.2-3.9m3.9 8.8c-.3 1.9-1.8 2.5-3.6 2.5-2.4 0-4.2-1.1-4.5-4.3H294v-2c0-6.6-3.9-9.2-9.3-9.2-5.6 0-9.9 3.3-9.9 9.8v.1c0 6.7 4.4 9.7 10.1 9.7 4.1 0 8.1-1.7 8.9-6.7l-5.3.1zm-25.9 2.4c-2.8 0-4.7-1.6-4.7-5.5V19c0-3.9 1.8-5.5 4.7-5.5s4.7 1.6 4.7 5.5v.1c-.1 3.9-1.9 5.5-4.7 5.5m-2.1 4.3c3.2 0 5.4-1.5 6.5-4.4h.3v4.1h5.4V2.3h-5.5v11.2h-.3c-1.1-2.8-3.3-4.2-6.4-4.2-4.7 0-8.1 3.3-8.1 9.7v.1c0 6.5 3.4 9.8 8.1 9.8M250.1 9.7h-5.5v10.2c0 3.1-2 4.5-4.3 4.5s-3.5-1.3-3.5-3.5V9.7h-5.5v12.2c0 4.8 2.6 7 6.6 7 3.5 0 5.7-1.6 6.5-4.3h.3v3.9h5.3l.1-18.8zm-31.3 14.9c-2.8 0-4.7-1.6-4.7-5.5V19c0-3.9 1.8-5.5 4.7-5.5s4.7 1.6 4.7 5.5v.1c0 3.9-1.8 5.5-4.7 5.5m-10 3.9h5.4v-4.1h.3c1.1 2.9 3.3 4.4 6.5 4.4 4.7 0 8.1-3.3 8.1-9.7V19c0-6.4-3.4-9.7-8.1-9.7-3.1 0-5.3 1.4-6.4 4.2h-.3V2.3h-5.5v26.2zm-33.4 0h5.5V18.3c0-3.1 1.8-4.5 4-4.5 2.1 0 3.1 1.3 3.1 3.5v11.2h5.5V18.3c0-3.1 1.8-4.5 4-4.5 2.1 0 3.1 1.3 3.1 3.5v11.2h5.5V16.3c0-4.8-2.4-7-6.3-7-3.3 0-5.4 1.7-6.3 4.5h-.3c-.7-3.1-2.9-4.5-6-4.5-3.3 0-5.3 1.6-6.1 4.3h-.3V9.7h-5.3l-.1 18.8zm-12.5-3.9c-2.8 0-4.6-1.6-4.6-5.5V19c0-3.9 1.8-5.5 4.6-5.5s4.6 1.6 4.6 5.5v.1c0 3.9-1.8 5.5-4.6 5.5m0 4.3c5.7 0 10.2-3.3 10.2-9.7V19c0-6.4-4.4-9.7-10.2-9.7-5.7 0-10.2 3.3-10.2 9.7v.1c0 6.5 4.5 9.8 10.2 9.8m-21.2-15.5c2 0 3.7 1 3.7 3.9h-7.9c.4-2.8 2-3.9 4.2-3.9m3.8 8.8c-.3 1.9-1.8 2.5-3.6 2.5-2.4 0-4.2-1.1-4.5-4.3H151v-2c0-6.6-3.9-9.2-9.3-9.2-5.6 0-9.9 3.3-9.9 9.8v.1c0 6.7 4.4 9.7 10.1 9.7 4.1 0 8.1-1.7 8.9-6.7l-5.3.1zm-34.4 6.3h5.5V18.3c0-3.1 2-4.5 4.3-4.5s3.5 1.3 3.5 3.5v11.2h5.5V16.3c0-4.8-2.6-7-6.6-7-3.5 0-5.7 1.6-6.5 4.3h-.3V9.7h-5.3l-.1 18.8zm-13.8 0h5.4v-9.1c0-4.2 2-5.2 6.5-5.2V9.4c-3.1 0-5.9 1.2-6.4 4.8h-.3V9.7h-5.3v18.8h.1zM81.7 23c0-1.4.9-2 2.7-2.2l4.7-.5v.8c0 2.6-2.1 3.9-4.4 3.9-1.4 0-3-.5-3-2m7.1 1.8h.3v3.7h5.3V15.8c0-4.3-2.7-6.5-8.2-6.5-4.9 0-9.1 1.9-9.3 6.7h5.3c.3-2.4 2.4-2.7 3.7-2.7 2 0 3.2.7 3.2 2.5v1.1l-4.5.4c-5.9.5-8.3 2.4-8.3 6.1 0 3.9 3.3 5.6 6.8 5.6 2.7-.1 4.9-1.4 5.7-4.2m-24.1-.6h-4.3V18h4.3c3.4 0 4.6.9 4.6 3.1s-1.3 3.1-4.6 3.1M65 8.6c2.3 0 3.3 1 3.3 2.6s-.9 2.7-3.3 2.7h-4.5V8.6H65zm3.9 7.3v-.4c2.7-.1 5.1-1.9 5.1-5.1 0-3.6-2.3-6.1-8.3-6.1h-11v24.3h10.7c6.3 0 9.6-2.4 9.6-6.9.1-4.1-3.1-5.8-6.1-5.8"/><g class="open" fill="currentColor"><path d="M28.5 0c-4.1 0-7.8 2.5-9.3 6.4-2-5.1-7.7-7.7-12.8-5.7C2.5 2.1 0 5.9 0 10v18.5h1.4c-.1-4.7 3.7-8.6 8.4-8.7s8.6 3.7 8.7 8.4v.3h1.4c-.1-4.7 3.7-8.6 8.4-8.7 4.7-.1 8.6 3.7 8.7 8.4v.3h1.4V10c0-5.5-4.4-10-9.9-10"/><path d="M28.5 24.2c-2.4.1-4.2 2-4.2 4.4.1 2.3 1.9 4.1 4.2 4.2 2.4.1 4.3-1.8 4.4-4.2.1-2.4-1.8-4.3-4.2-4.4h-.2m-18.5 0c-2.4.1-4.2 2-4.2 4.4.1 2.3 1.9 4.1 4.2 4.2 2.4.1 4.3-1.8 4.4-4.2.1-2.4-1.8-4.3-4.2-4.4H10"/></g><g class="wink" fill="currentColor"><path d="M29.6 24.4c2.3 0 4.2 1.9 4.2 4.2s-1.9 4.2-4.2 4.2c-2.3 0-4.2-1.9-4.2-4.2 0-2.3 1.9-4.2 4.2-4.2zm-23 6.2l9.1-.9c0-.3.1-.6.2-1.3l-8.1-4-.6 1.2 5.9 2.9-6.7.6.2 1.5z"/><path d="M37.6 28.6c.1-4.6-3.6-8.4-8.2-8.5-4.6-.1-8.4 3.6-8.5 8.2v.3h-1.4c.1-4.6-3.6-8.4-8.2-8.5-4.6-.1-8.4 3.6-8.5 8.2v.3H1.3L0 11.9C-.4 6.5 3.6 1.8 9 1.4c4-.3 7.7 1.9 9.5 5.4 1.6-5.2 7.1-8 12.2-6.4C34.5 1.6 37.2 5 37.5 9L39 28.5h-1.4z"/></g></svg>