<svg version="1.1" id="Layer_1" xmlns="http://www.w3.org/2000/svg" x="0" y="0" viewBox="0 0 850.4 240.9" xml:space="preserve"><style>.st1{fill:#ffd523}.st2{fill:#e00034}.st3{fill:#0065bd}.st4{fill:#fff}.st5,.st6{fill-rule:evenodd;clip-rule:evenodd;fill:#fff}.st6{fill:#0065bd}</style><path d="M240.4 91.7v8.7h-2.8c-.4-1.3-.8-2.4-1.2-3.2-.4-.8-.8-1.4-1.2-1.8-.4-.4-.9-.7-1.5-.9-.6-.2-1.3-.3-2.3-.3h-8.4v15.6h5.9c.8 0 1.5-.1 2-.4.5-.3.9-.7 1.2-1.4.3-.7.6-1.7.9-3h2.7v12.1h-2.7c-.3-1.3-.6-2.3-.9-2.9-.3-.7-.7-1.1-1.2-1.4-.5-.3-1.1-.4-2-.4h-5.9v11.3c0 1.1.1 2.1.2 2.8.1.7.4 1.2.7 1.6.3.4.7.7 1.2.9.5.2 1.2.4 1.9.6v1.4h-12.7v-1.4c1.2-.3 2-.6 2.4-1 .4-.4.7-.9.8-1.6.1-.7.2-1.7.2-3.2V98.9c0-1.3-.1-2.3-.1-2.9-.1-.6-.3-1.1-.5-1.4-.2-.3-.5-.6-.9-.8-.4-.2-1-.4-1.9-.7v-1.4H240.4zM260.6 131.4c-2.3 0-4.4-.4-6.3-1.1-1.9-.8-3.5-1.9-4.9-3.5-1.3-1.6-2.4-3.6-3.1-6.1-.7-2.5-1.1-5.5-1.1-8.9 0-4.3.6-7.9 2-11 1.3-3.1 3.2-5.4 5.6-7 2.4-1.6 5.2-2.4 8.4-2.4 3.4 0 6.3.8 8.6 2.3 2.3 1.5 4.1 3.7 5.3 6.6 1.2 2.9 1.8 6.5 1.8 10.7 0 4.5-.7 8.3-2 11.3-1.3 3.1-3.2 5.4-5.7 6.9C266.7 130.6 263.9 131.4 260.6 131.4zM251.2 110.9c0 5.9.9 10.3 2.6 13.4 1.7 3.1 4.2 4.6 7.5 4.6 2.1 0 3.9-.7 5.3-2 1.5-1.3 2.5-3.3 3.3-5.8.7-2.6 1.1-5.6 1.1-9 0-4.2-.4-7.6-1.3-10.4-.9-2.7-2-4.7-3.5-6-1.5-1.2-3.2-1.9-5.1-1.9-1.7 0-3.2.4-4.4 1.2-1.2.8-2.3 1.9-3.1 3.4-.8 1.5-1.4 3.3-1.8 5.4C251.4 105.9 251.2 108.3 251.2 110.9zM292.5 113.9v9.8c0 1.4.1 2.4.2 3 .1.6.3 1.1.5 1.4.2.3.5.6.9.8.4.2 1 .4 1.9.7v1.4h-12.1v-1.4c1.2-.3 2-.6 2.4-1 .4-.4.7-.9.8-1.6.1-.7.2-1.7.2-3.2V98.9c0-1.3 0-2.3-.1-2.9-.1-.6-.3-1.1-.5-1.4-.2-.3-.5-.6-.9-.8-.4-.2-1-.4-1.9-.7v-1.4h14.2c4.5 0 7.8.8 10 2.4 2.2 1.6 3.3 4.2 3.3 7.6 0 2.6-.7 4.9-2.2 6.7-1.4 1.8-3.6 3.3-6.5 4.3v.2c1.2.5 2.2 1.2 3 2.1.8.9 1.8 2.3 2.8 4.1l2.6 4.7c.7 1.4 1.4 2.4 1.9 3.2.5.7 1.1 1.3 1.6 1.7.6.4 1.3.7 2.2.8v1.4h-8c-.7-1-1.4-2.1-2.1-3.3-.7-1.2-1.3-2.4-1.9-3.6l-2.5-4.8c-.8-1.5-1.4-2.5-1.9-3.2-.5-.7-.9-1.2-1.3-1.5-.4-.3-.9-.5-1.3-.6-.5-.1-1.2-.2-2.1-.2H292.5zM292.5 94.4v17h3.2c1.7 0 3-.1 4.1-.4 1-.2 2-.7 2.9-1.4.9-.7 1.6-1.6 2.1-2.8.5-1.2.8-2.7.8-4.4 0-1.8-.3-3.3-.9-4.5-.6-1.2-1.6-2.1-2.8-2.8-1.3-.6-3-.9-5.1-.9C295 94.3 293.6 94.3 292.5 94.4zM322 122c.4 1.7.9 3 1.6 4 .7 1 1.5 1.7 2.5 2.2 1 .5 2.4.7 4 .7 2.2 0 4-.6 5.2-1.8 1.2-1.2 1.8-2.9 1.8-5.1 0-1.4-.2-2.6-.7-3.6-.5-1-1.3-1.9-2.4-2.8-1.1-.9-2.9-1.9-5.2-3-2.2-1.1-4-2.2-5.3-3.3-1.3-1.1-2.3-2.2-2.9-3.5-.6-1.2-1-2.6-1-4.1 0-2.1.5-4 1.5-5.6 1-1.6 2.5-2.8 4.4-3.7 1.9-.9 4.2-1.3 6.7-1.3 1.5 0 2.9.1 4.3.2 1.4.2 3.1.5 5.2 1v7.8h-2.8c-.4-1.7-1-3-1.7-3.9-.7-.9-1.5-1.6-2.4-2-.9-.4-2.1-.6-3.5-.6-1.2 0-2.4.2-3.3.7-1 .5-1.8 1.2-2.3 2.1-.6.9-.9 2-.9 3.3 0 1.4.2 2.5.7 3.4.5.9 1.2 1.8 2.3 2.6 1 .8 2.6 1.7 4.6 2.7 2.5 1.2 4.3 2.4 5.7 3.4 1.4 1 2.4 2.3 3.2 3.6.8 1.4 1.1 2.9 1.1 4.7 0 2-.3 3.7-.9 5.1-.6 1.4-1.5 2.5-2.6 3.4-1.1.9-2.5 1.5-4 1.9-1.6.4-3.3.6-5.1.6-3 0-6.5-.5-10.4-1.5V122H322zM358.1 91.7v1.4c-.9.2-1.6.3-2 .6-.5.2-.8.6-1 1-.2.4-.3 1-.3 1.7 0 .7.1 1.4.2 2.1.2.8.4 1.6.7 2.5l6.7 23.4 8.2-23.6c.1-.4.2-.7.3-1.2.1-.4.2-.8.3-1.2.1-.4.1-.7.2-1 0-.3 0-.6 0-.8 0-1.2-.3-2-.8-2.5-.5-.5-1.4-.9-2.7-1.1v-1.4H380v1.4c-.8.2-1.4.5-1.9.8-.5.4-1 .9-1.4 1.8-.5.8-1 2.1-1.7 3.8L363 131.4h-3.8l-9.7-32c-.5-1.7-1-3-1.4-3.7-.4-.7-.8-1.3-1.3-1.7-.5-.4-1.1-.7-1.9-.8v-1.4H358.1zM397.8 130.9v-1.4c1-.2 1.7-.4 2.1-.6.5-.2.8-.6 1-1 .2-.4.3-1 .3-1.6 0-.6-.1-1.4-.2-2.1-.2-.8-.4-1.6-.7-2.5l-1.1-3.7H386l-1 2.8c-.5 1.4-.8 2.5-1 3.2-.2.7-.2 1.4-.2 2 0 1.1.3 2 .9 2.5.6.5 1.5.9 2.7 1.1v1.4h-12.3v-1.4c1.1-.2 2-.8 2.8-1.9.8-1.1 1.6-2.6 2.3-4.6l12-31.8h4.5l9.8 32c.5 1.5.9 2.6 1.2 3.4.4.8.8 1.4 1.3 1.8.5.4 1.2.8 2 1v1.4H397.8zM386.8 115.4h12l-5.5-18.5L386.8 115.4zM423.8 113.9v9.8c0 1.4.1 2.4.2 3 .1.6.3 1.1.5 1.4.2.3.5.6.9.8.4.2 1 .4 1.9.7v1.4h-12.1v-1.4c1.2-.3 2-.6 2.4-1 .4-.4.7-.9.8-1.6.1-.7.2-1.7.2-3.2V98.9c0-1.3 0-2.3-.1-2.9-.1-.6-.3-1.1-.5-1.4-.2-.3-.5-.6-.9-.8-.4-.2-1-.4-1.9-.7v-1.4h14.2c4.5 0 7.8.8 10 2.4 2.2 1.6 3.3 4.2 3.3 7.6 0 2.6-.7 4.9-2.2 6.7-1.4 1.8-3.6 3.3-6.5 4.3v.2c1.2.5 2.2 1.2 3 2.1.8.9 1.8 2.3 2.8 4.1l2.6 4.7c.7 1.4 1.4 2.4 1.9 3.2.5.7 1.1 1.3 1.6 1.7.6.4 1.3.7 2.2.8v1.4h-8c-.7-1-1.4-2.1-2.1-3.3-.7-1.2-1.3-2.4-1.9-3.6l-2.5-4.8c-.8-1.5-1.4-2.5-1.9-3.2-.5-.7-.9-1.2-1.3-1.5-.4-.3-.9-.5-1.3-.6-.5-.1-1.2-.2-2.1-.2H423.8zM423.8 94.4v17h3.2c1.7 0 3-.1 4.1-.4 1-.2 2-.7 2.9-1.4.9-.7 1.6-1.6 2.1-2.8.5-1.2.8-2.7.8-4.4 0-1.8-.3-3.3-.9-4.5-.6-1.2-1.6-2.1-2.8-2.8-1.3-.6-3-.9-5.1-.9C426.3 94.3 424.9 94.3 423.8 94.4zM453.4 122c.4 1.7.9 3 1.5 4 .7 1 1.5 1.7 2.5 2.2 1 .5 2.4.7 4 .7 2.2 0 4-.6 5.2-1.8 1.2-1.2 1.8-2.9 1.8-5.1 0-1.4-.2-2.6-.7-3.6-.5-1-1.3-1.9-2.4-2.8-1.1-.9-2.9-1.9-5.2-3-2.2-1.1-4-2.2-5.3-3.3-1.3-1.1-2.3-2.2-2.9-3.5-.6-1.2-1-2.6-1-4.1 0-2.1.5-4 1.5-5.6 1-1.6 2.5-2.8 4.4-3.7 1.9-.9 4.2-1.3 6.7-1.3 1.5 0 2.9.1 4.3.2 1.4.2 3.1.5 5.2 1v7.8h-2.8c-.4-1.7-1-3-1.7-3.9-.7-.9-1.5-1.6-2.4-2-.9-.4-2.1-.6-3.5-.6-1.2 0-2.4.2-3.3.7-1 .5-1.8 1.2-2.3 2.1-.6.9-.9 2-.9 3.3 0 1.4.2 2.5.7 3.4.5.9 1.3 1.8 2.3 2.6 1 .8 2.6 1.7 4.6 2.7 2.5 1.2 4.3 2.4 5.7 3.4 1.4 1 2.4 2.3 3.2 3.6.8 1.4 1.1 2.9 1.1 4.7 0 2-.3 3.7-.9 5.1-.6 1.4-1.5 2.5-2.6 3.4-1.1.9-2.5 1.5-4 1.9-1.6.4-3.3.6-5.1.6-3 0-6.5-.5-10.4-1.5V122H453.4zM520.9 93.1c-.8.2-1.4.4-1.8.6-.4.2-.7.5-.9.8-.2.3-.4.8-.5 1.4-.1.6-.2 1.6-.2 2.9v24.8c0 1.3 0 2.2.1 2.8.1.6.2 1.1.4 1.4.2.3.5.6.9.9.4.2 1 .5 1.9.7v1.4h-12v-1.4c1.1-.3 1.8-.6 2.3-.9.4-.3.7-.9.9-1.5.2-.7.2-1.8.2-3.3v-11c0-2.9 0-5.8.1-8.8.1-3 .2-5 .3-6.1h-.5l-11.4 28.5h-3.3L487 97.4h-.5c.1 1.2.2 3.3.3 6.3.1 3.1.1 6.2.1 9.4v10.5c0 1.3 0 2.2.1 2.8.1.6.2 1.1.4 1.4.2.3.5.6.9.9.4.2 1 .5 1.9.7v1.4h-10.5v-1.4c1.2-.3 2-.6 2.4-1 .4-.4.7-.9.8-1.6.1-.7.2-1.7.2-3.2V98.9c0-1.3 0-2.3-.1-2.9-.1-.6-.3-1.1-.5-1.4-.2-.3-.5-.6-.9-.8-.4-.2-1-.4-1.9-.7v-1.4H490l10.1 27.9 11.1-27.9h9.7V93.1zM547.2 130.9v-1.4c1-.2 1.7-.4 2.1-.6.5-.2.8-.6 1-1 .2-.4.3-1 .3-1.6 0-.6-.1-1.4-.2-2.1-.2-.8-.4-1.6-.7-2.5l-1.1-3.7h-13.4l-1 2.8c-.5 1.4-.8 2.5-1 3.2-.2.7-.2 1.4-.2 2 0 1.1.3 2 .9 2.5.6.5 1.5.9 2.7 1.1v1.4h-12.3v-1.4c1.1-.2 2-.8 2.8-1.9.8-1.1 1.6-2.6 2.3-4.6l12-31.8h4.5l9.8 32c.5 1.5.9 2.6 1.2 3.4.4.8.8 1.4 1.3 1.8.5.4 1.2.8 2 1v1.4H547.2zM536.2 115.4h12l-5.5-18.5L536.2 115.4zM559.5 91.7h31.1v10h-2.8c-.4-1.6-.8-2.9-1.3-3.9-.4-1-.8-1.7-1.3-2.2-.5-.5-1-.9-1.5-1.1-.5-.2-1.3-.3-2.4-.3h-3.6v29.4c0 1.1.1 2 .2 2.7.1.7.3 1.2.6 1.6.3.4.6.7 1 .9.4.2 1.1.4 2.1.6v1.4h-13.1v-1.4c.6-.1 1.1-.3 1.5-.4.4-.2.8-.3 1.1-.6.3-.2.5-.5.7-.8.2-.3.3-.8.4-1.4.1-.6.2-1.5.2-2.6V94.3h-3.6c-.9 0-1.6.1-2.2.3-.6.2-1.1.5-1.6 1.1-.5.5-1 1.3-1.4 2.3-.4 1-.8 2.3-1.2 3.8h-2.8V91.7zM622.7 91.7v8.7h-2.8c-.3-.9-.6-1.8-.9-2.5-.3-.7-.6-1.3-.9-1.8-.3-.5-.7-.9-1.1-1.1-.4-.3-.9-.5-1.4-.6-.5-.1-1.2-.2-1.9-.2h-9.1v15h6.1c.8 0 1.5-.1 2-.4.5-.2.9-.6 1.2-1.2.3-.6.6-1.5.9-2.7h2.7v11h-2.7c-.3-1.1-.6-2-.9-2.6-.3-.6-.7-1-1.2-1.2-.4-.3-1.1-.4-2-.4h-6.1v16.6h8.9c.9 0 1.7-.1 2.3-.2.6-.2 1.1-.4 1.5-.8.4-.4.8-.9 1.1-1.5.3-.6.6-1.3.8-2 .2-.7.5-1.7.9-3h2.8l-.5 10.1h-26.6v-1.4c1.2-.3 2-.6 2.4-1 .4-.4.7-.9.8-1.6.1-.7.2-1.7.2-3.2V98.9c0-1.3 0-2.3-.1-2.9-.1-.6-.3-1.1-.5-1.4-.2-.3-.5-.6-.9-.8-.4-.2-1-.4-1.9-.7v-1.4H622.7zM638.5 113.9v9.8c0 1.4.1 2.4.2 3 .1.6.3 1.1.5 1.4.2.3.5.6.9.8.4.2 1 .4 1.9.7v1.4h-12.1v-1.4c1.2-.3 2-.6 2.4-1 .4-.4.7-.9.8-1.6.1-.7.2-1.7.2-3.2V98.9c0-1.3 0-2.3-.1-2.9-.1-.6-.3-1.1-.5-1.4-.2-.3-.5-.6-.9-.8-.4-.2-1-.4-1.9-.7v-1.4h14.2c4.5 0 7.8.8 10 2.4 2.2 1.6 3.3 4.2 3.3 7.6 0 2.6-.7 4.9-2.2 6.7-1.4 1.8-3.6 3.3-6.5 4.3v.2c1.2.5 2.2 1.2 3 2.1.8.9 1.8 2.3 2.8 4.1l2.6 4.7c.7 1.4 1.4 2.4 1.9 3.2.5.7 1.1 1.3 1.6 1.7.6.4 1.3.7 2.2.8v1.4h-8c-.7-1-1.4-2.1-2.1-3.3-.7-1.2-1.3-2.4-1.9-3.6l-2.5-4.8c-.8-1.5-1.4-2.5-1.9-3.2-.5-.7-.9-1.2-1.4-1.5-.4-.3-.9-.5-1.3-.6-.5-.1-1.2-.2-2.1-.2H638.5zM638.5 94.4v17h3.2c1.7 0 3-.1 4-.4 1-.2 2-.7 2.9-1.4.9-.7 1.6-1.6 2.1-2.8.5-1.2.8-2.7.8-4.4 0-1.8-.3-3.3-.9-4.5-.6-1.2-1.6-2.1-2.8-2.8-1.3-.6-3-.9-5.1-.9C640.9 94.3 639.5 94.3 638.5 94.4zM675 123.7c0 1.3 0 2.2.1 2.8.1.6.2 1.1.4 1.4.2.3.5.6.9.9.4.2 1 .5 1.9.7v1.4h-12.1v-1.4c1.2-.3 2-.6 2.4-1 .4-.4.7-.9.8-1.6.1-.7.2-1.7.2-3.2V98.9c0-1.3 0-2.3-.1-2.9-.1-.6-.3-1.1-.5-1.4-.2-.3-.5-.6-.9-.8-.4-.2-1-.4-1.9-.7v-1.4h12.1v1.4c-.8.2-1.5.4-1.8.6-.4.2-.7.5-.9.8-.2.3-.4.8-.5 1.4-.1.6-.2 1.6-.2 2.9V123.7zM712.1 91.7v8.7h-2.8c-.3-.9-.6-1.8-.9-2.5-.3-.7-.6-1.3-.9-1.8-.3-.5-.7-.9-1.1-1.1-.4-.3-.9-.5-1.4-.6-.5-.1-1.2-.2-1.9-.2H694v15h6.1c.8 0 1.5-.1 2-.4.5-.2.9-.6 1.2-1.2.3-.6.6-1.5.9-2.7h2.7v11h-2.7c-.3-1.1-.6-2-.9-2.6-.3-.6-.7-1-1.2-1.2-.4-.3-1.1-.4-2-.4H694v16.6h8.9c.9 0 1.7-.1 2.3-.2.6-.2 1.1-.4 1.5-.8.4-.4.8-.9 1.1-1.5.3-.6.6-1.3.8-2 .2-.7.5-1.7.9-3h2.8l-.5 10.1h-26.6v-1.4c1.2-.3 2-.6 2.4-1 .4-.4.7-.9.8-1.6.1-.7.2-1.7.2-3.2V98.9c0-1.3 0-2.3-.1-2.9-.1-.6-.3-1.1-.5-1.4-.2-.3-.5-.6-.9-.8-.4-.2-1-.4-1.9-.7v-1.4H712.1zM727.8 128.3h7.5c.8 0 1.5-.1 2.1-.1.6-.1 1-.2 1.4-.4.4-.2.7-.5 1.1-.8.3-.4.6-.8.9-1.4.3-.6.6-1.3.8-2.2.3-.9.6-2.2 1-3.9h2.9l-.6 11.5h-25.8v-1.4c1.2-.3 2-.6 2.4-1 .4-.4.7-.9.8-1.6.1-.7.2-1.7.2-3.2V98.9c0-1.3 0-2.3-.1-2.9-.1-.6-.3-1.1-.5-1.4-.2-.3-.5-.6-.9-.8-.4-.2-1-.4-1.9-.7v-1.4h12.1v1.4c-.8.2-1.4.4-1.8.6-.4.2-.6.4-.9.7-.2.3-.4.8-.5 1.4-.1.6-.2 1.6-.2 3V128.3zM759.4 128.3h7.5c.8 0 1.5-.1 2.1-.1.6-.1 1-.2 1.4-.4.4-.2.7-.5 1.1-.8.3-.4.6-.8.9-1.4.3-.6.6-1.3.8-2.2.3-.9.6-2.2 1-3.9h2.9l-.6 11.5h-25.8v-1.4c1.2-.3 2-.6 2.4-1 .4-.4.7-.9.8-1.6.1-.7.2-1.7.2-3.2V98.9c0-1.3 0-2.3-.1-2.9-.1-.6-.3-1.1-.5-1.4-.2-.3-.5-.6-.9-.8-.4-.2-1-.4-1.9-.7v-1.4h12.1v1.4c-.8.2-1.4.4-1.8.6-.4.2-.6.4-.9.7-.2.3-.4.8-.5 1.4-.1.6-.2 1.6-.2 3V128.3z" fill="#202b33"/><path class="st1" d="M120.5,45.4c3.4,0.9,5.8,3.8,5.8,7.4c0,4.2-3.4,7.6-7.6,7.6c-4.2,0-7.6-3.4-7.6-7.6c0-3.6,2.5-6.6,5.8-7.4 c0-0.8,0-6,0-6h-4.2v-3.6h4.2v-4.5l3.7,0v4.5l4.2,0v3.6l-4.2,0C120.5,39.9,120.5,45.2,120.5,45.4"/><path class="st2" d="M118.6,60.6c-4.3,0-7.8-3.5-7.8-7.8c0-3.5,2.4-6.7,5.8-7.5l0-5.6h-4.2v-4h4.2v-4.5l4.1,0v4.5l4.2,0v4 l-4.2,0l0,1.7c0,1.5,0,3.4,0,4c3.5,1,5.8,4,5.8,7.5C126.5,57.1,123,60.6,118.6,60.6z M112.8,39.2h4.2l0,6.3l-0.2,0 c-3.3,0.8-5.7,3.8-5.7,7.2c0,4.1,3.3,7.4,7.4,7.4s7.4-3.3,7.4-7.4c0-3.4-2.3-6.3-5.6-7.2l-0.1,0l0-0.2c0-0.1,0-2.4,0-4.1l0-2 l4.2,0V36l-4.2,0v-4.5l-3.3,0V36h-4.2V39.2z"/><path class="st1" d="M126,50.8c0,0,0.3,1.1,0.2,1.9c0,0.7-0.2,1.8-0.2,1.8l-14.9,0c0,0-0.2-1-0.2-1.8c0-0.9,0.2-1.9,0.2-1.9 l5.6,0v-5.5c0,0,1.2-0.2,1.8-0.2c0.6,0,1.9,0.2,1.9,0.2l0,5.5L126,50.8z"/><path class="st2" d="M111,54.7l0-0.2c0,0-0.2-1.1-0.2-1.8c0-0.9,0.2-1.9,0.3-2l0-0.1l5.5,0v-5.4l0.2,0c0,0,1.2-0.2,1.9-0.2 c0.6,0,1.8,0.2,1.9,0.2l0.2,0l0,5.4l5.5,0l0,0.1c0,0,0.3,1.1,0.3,2c0,0.7-0.2,1.8-0.2,1.8l0,0.2L111,54.7z M111.4,51 c-0.1,0.3-0.2,1.1-0.2,1.7c0,0.5,0.1,1.3,0.2,1.6l14.6,0c0.1-0.3,0.2-1,0.2-1.6c0-0.7-0.1-1.4-0.2-1.7l-5.6,0l0-5.5 c-0.3-0.1-1.2-0.2-1.7-0.2c-0.5,0-1.3,0.1-1.6,0.2V51L111.4,51z"/><path class="st1" d="M116.9,69.6c1.1-0.3,2.4-0.3,3.5,0L121,60l-0.1,0c0,0-0.9,0.3-2.2,0.3c-1,0.1-2-0.3-2.3-0.3 c0,0-0.1,0-0.1,0L116.9,69.6z"/><path class="st2" d="M116.7,69.9L116,59.8l0.3,0.1c0,0,0.1,0,0.1,0c0.2,0.1,1.2,0.4,2.2,0.3c1.3,0,2.2-0.3,2.2-0.3l0.4-0.1 l-0.6,10.1l-0.2-0.1c-1-0.3-2.3-0.3-3.4,0L116.7,69.9z M116.5,60.3l0.6,9.1c1-0.2,2.1-0.3,3.1,0l0.6-9.1 c-0.3,0.1-1.1,0.3-2.2,0.3C117.8,60.6,116.9,60.4,116.5,60.3z"/><path class="st1" d="M135.9,70.3c1.1-0.3,2.5-0.3,3.5,0.1c1.8-11.8,5.1-13.5-18.4-10.3l-0.2,2.5 C138.9,60.3,137.1,60.9,135.9,70.3z"/><path class="st2" d="M139.6,70.6l-0.2-0.1c-1-0.4-2.3-0.4-3.4-0.1l-0.3,0.1l0-0.3c0.1-0.8,0.2-1.6,0.3-2.3 c0.4-2.9,0.7-4.6-0.2-5.5c-1.3-1.3-5.1-1-14.9,0.2l-0.2,0l0.2-2.9l0.2,0c12.6-1.7,17.4-2,19.1-0.2c1.2,1.3,0.8,3.5,0.2,7 c-0.2,1.1-0.4,2.4-0.6,3.8L139.6,70.6z M137.5,69.8c0.6,0,1.2,0.1,1.8,0.3c0.2-1.3,0.4-2.5,0.6-3.5c0.6-3.3,1-5.5-0.1-6.6 c-1.6-1.7-6.8-1.3-18.6,0.3l-0.1,2.1c10-1.2,13.6-1.5,15-0.1c1,1,0.7,2.8,0.3,5.8c-0.1,0.6-0.2,1.3-0.3,2 C136.5,69.9,137,69.8,137.5,69.8z"/><path class="st1" d="M82.4,72c-2.4-9.7-2-9.3,14.1-9.3c0-1.3,0.2-2.3,0.8-2.9c-20.6,0.3-22-0.3-18.7,12 C80,71.5,81.4,71.5,82.4,72z"/><path class="st2" d="M82.7,72.4l-0.4-0.2c-1-0.5-2.3-0.5-3.7-0.2l-0.2,0l0-0.2c-1.4-5.4-1.9-8.1-0.6-9.8 c1.7-2.3,6.5-2.3,16.9-2.5l3.1,0l-0.3,0.3c-0.6,0.6-0.8,1.4-0.7,2.8l0,0.2l-2,0c-7.9,0-11.5,0-12.7,1.5 c-0.9,1.2-0.4,3.4,0.6,7.6L82.7,72.4z M80.2,71.4c0.7,0,1.3,0.1,1.9,0.3c-1-4-1.4-6.2-0.4-7.5c1.3-1.7,5-1.7,13-1.7l1.6,0 c0-1.1,0.2-1.9,0.6-2.5l-2.2,0c-10.3,0.1-15,0.2-16.6,2.3c-1.1,1.5-0.7,4.1,0.6,9.2C79.2,71.4,79.7,71.4,80.2,71.4z"/><path class="st1" d="M140.6,62.7c16.4,0,16.6-0.2,14.2,9.3c1-0.5,2.4-0.6,3.8-0.2c2.9-11.3,3.3-12-18.8-12 C140.5,60.4,140.7,61.4,140.6,62.7z"/><path class="st2" d="M154.6,72.4l0.1-0.4c1-3.9,1.6-6.3,0.6-7.5c-1.2-1.6-5.1-1.6-13.5-1.6l-1.4,0l0-0.2 c0.1-1.4-0.1-2.2-0.7-2.8l-0.3-0.3h0.5c12.6,0,17.9,0.2,19.7,2.6c1.4,1.8,0.6,4.7-0.6,9.5l-0.1,0.4l-0.2,0 c-1.4-0.3-2.7-0.2-3.7,0.2L154.6,72.4z M142.8,62.5c8.1,0,11.5,0.1,12.7,1.7c1,1.3,0.5,3.7-0.4,7.5c1-0.3,2.2-0.4,3.4-0.1l0,0 c1.2-4.7,2-7.5,0.7-9.1c-1.7-2.1-7.1-2.4-19-2.4c0.4,0.6,0.6,1.4,0.5,2.5l0.9,0C142.1,62.5,142.5,62.5,142.8,62.5z"/><path class="st1" d="M155.7,92.1c0.7-4.4,3.8-17.1,4.8-19.8c-4.4-2.1-9.7-0.1-5.7,5.2l-0.4,0.4c-9.3-9.7-9.3,12,0,2.2 c0.2,0.2,0.4,0.4,0.4,0.4c-0.8,1.5-3.1,4.7-3.6,5.1c-2.5,1-5.8,1.2-8.8,0c-1.1-0.9-3-4.6-3.3-5.8c0,0,0.3-0.3,0.3-0.3 c8.6,8.6,8.6-11.1,0-2.5l-0.3-0.3c8.9-8.9-12-8.9-3.2,0c-0.1,0.1-0.3,0.3-0.3,0.3c-8.6-8.6-8.6,11.1,0,2.5 c0.1,0.1,0.3,0.3,0.3,0.3c-0.3,1.3-2.2,5-3.3,5.8c-3.1,1-5.7,1-8.8,0c-1.4-1-3.4-5.1-3.7-6.3c0.1-0.1,0.3-0.3,0.4-0.4 c9.1,10.1,9.1-12.3,0-2.2l-0.4-0.4c10.3-9.5-13-9.5-2.7,0l-0.4,0.4c-9.1-10.1-9.1,12.3,0,2.2c0.1,0.1,0.3,0.3,0.4,0.4 c-0.4,1.2-2.3,5.2-3.7,6.3c-2.7,1-5.5,1.1-8.4,0c-1.1-0.9-3.4-4.6-3.8-5.8c0.1-0.1,0.3-0.3,0.3-0.3c8.6,8.6,8.6-11.1,0-2.5 c0,0-0.2-0.2-0.3-0.3c8.8-8.9-12.1-8.9-3.2,0c-0.1,0.1-0.3,0.3-0.3,0.3c-8.6-8.6-8.6,11.1,0,2.5c0.1,0.1,0.3,0.3,0.3,0.3 c-0.3,1.3-2.2,5-3.3,5.8c-2.8,1.2-6.6,1-8.8,0c-0.5-0.4-2.9-3.6-3.6-5.1c0,0,0.3-0.3,0.4-0.4c9.3,9.8,9.3-11.9,0-2.2l-0.4-0.4 c4-5.3-1.3-7.2-5.7-5.2c1,2.7,4.1,15.4,4.8,19.8L155.7,92.1z"/><path class="st2" d="M81.6,92.3h-0.2l0-0.2c-0.7-4.2-3.8-17-4.8-19.7l-0.1-0.2l0.2-0.1c2.6-1.2,5.6-1.1,6.9,0.4 c0.6,0.7,1.2,2.2-0.8,4.9l0.2,0.2c2.6-2.6,4.3-2.7,5.2-2.3c1.2,0.5,1.9,1.9,1.9,3.7c0,1.8-0.8,3.2-1.9,3.7 c-1,0.4-2.7,0.3-5.3-2.3l-0.2,0.2c0.9,1.6,3.1,4.6,3.5,4.9c2,0.9,5.7,1.2,8.6,0c1-0.8,2.8-4.3,3.2-5.6c0,0-0.1-0.1-0.1-0.1 c-2.4,2.3-3.9,2.4-4.8,2c-1.1-0.5-1.8-1.8-1.8-3.5c0-1.7,0.7-3.1,1.8-3.5c0.9-0.4,2.5-0.3,4.8,2l0.1-0.1 c-3.1-3.1-2.2-4.9-1.4-5.7c1.5-1.5,5.1-1.5,6.6,0c0.8,0.8,1.7,2.6-1.4,5.7l0.1,0.1c2.4-2.3,3.9-2.3,4.8-2 c1.1,0.5,1.8,1.8,1.8,3.5c0,1.7-0.7,3.1-1.8,3.5c-0.9,0.4-2.5,0.3-4.8-2c0,0-0.1,0.1-0.1,0.1c0.4,1.3,2.6,4.8,3.6,5.6 c2.6,1,5.4,1,8.2,0c1.3-1,3.2-4.7,3.6-6c-0.1-0.1-0.1-0.1-0.2-0.2c-2.5,2.7-4.1,2.8-5.1,2.5c-1.2-0.5-1.9-2-1.9-3.8 s0.8-3.4,1.9-3.8c1-0.4,2.6-0.2,5.1,2.5l0.1-0.1c-2.7-2.6-2.8-4.3-2.4-5.3c0.5-1.3,2.1-2.1,4.1-2.1c2,0,3.6,0.8,4.1,2.1 c0.4,1,0.3,2.7-2.4,5.3l0.1,0.1c2.5-2.7,4.1-2.8,5.1-2.5c1.2,0.5,1.9,2,1.9,3.8c0,1.9-0.8,3.4-1.9,3.8c-1,0.4-2.6,0.2-5.1-2.5 l-0.2,0.2c0.4,1.3,2.3,5.1,3.6,6c2.9,1,5.5,1,8.6,0c1-0.8,2.8-4.3,3.2-5.6l-0.1-0.1c0,0,0,0,0,0c-1.2,1.1-3.8,3.3-5.6,1.5 c-1.4-1.4-1.4-4.6,0-6c1.8-1.8,4.4,0.3,5.6,1.5l0.1-0.1c-3-3.1-2.2-4.9-1.4-5.7c1.6-1.5,5.1-1.5,6.6,0c0.8,0.8,1.6,2.6-1.4,5.7 l0.1,0.1c2.4-2.3,3.9-2.3,4.8-2c1.1,0.5,1.8,1.8,1.8,3.5c0,1.7-0.7,3.1-1.8,3.5c-0.9,0.4-2.5,0.3-4.8-2l-0.1,0.1 c0.4,1.3,2.2,4.8,3.2,5.6c2.7,1.1,5.9,1.1,8.6,0c0.5-0.4,2.7-3.3,3.5-4.9l-0.2-0.2c-2.6,2.6-4.3,2.7-5.3,2.3 c-1.2-0.5-1.9-1.9-1.9-3.7c0-1.8,0.8-3.2,1.9-3.7c1-0.4,2.7-0.3,5.2,2.3l0.2-0.2c-2-2.7-1.3-4.2-0.8-4.9 c1.2-1.5,4.2-1.7,6.9-0.4l0.2,0.1l-0.1,0.2c-1,2.8-4.1,15.5-4.8,19.7l0,0.2L81.6,92.3z M77,72.5c1.1,3,4,15.1,4.8,19.5l73.7,0 c0.7-4.3,3.7-16.4,4.8-19.5c-2.4-1.1-5.1-0.9-6.2,0.4c-0.8,1-0.5,2.7,0.9,4.6l0.1,0.1l-0.7,0.7l-0.1-0.1c-2.5-2.6-4.1-2.7-5-2.4 c-1,0.4-1.7,1.7-1.7,3.4c0,1.6,0.7,2.9,1.7,3.3c0.9,0.4,2.5,0.2,5-2.4l0.1-0.1l0.7,0.7l-0.1,0.1c-0.8,1.5-3.2,4.8-3.7,5.2l0,0 c-2.8,1.1-6.1,1.1-8.9,0l0,0c-1.1-0.9-3.1-4.6-3.4-6l0-0.1l0.6-0.6l0.1,0.1c2.3,2.3,3.7,2.4,4.5,2c1-0.4,1.6-1.6,1.6-3.2 c0-1.5-0.6-2.8-1.6-3.2c-0.8-0.3-2.3-0.3-4.6,2l-0.1,0.1l-0.6-0.6l0.1-0.1c2.2-2.2,2.8-4.1,1.6-5.3c-1.4-1.4-4.7-1.4-6.1,0 c-1.2,1.2-0.7,3.1,1.5,5.3l0.1,0.1l-0.6,0.6l-0.1-0.1c-2.2-2.2-4-2.8-5.2-1.6c-1.2,1.2-1.2,4.2,0,5.4c1.2,1.2,3,0.6,5.2-1.6 l0.1-0.1l0.1,0.1c0,0,0.1,0.1,0.2,0.2l0.2,0.3l0,0.1c-0.3,1.4-2.3,5.1-3.4,6l-0.1,0c-3.1,1-5.9,1-8.9,0l-0.1,0 c-1.5-1.1-3.5-5.2-3.8-6.4l0-0.1l0.6-0.6l0.1,0.2c2.4,2.7,3.9,2.8,4.8,2.5c1.2-0.4,1.7-2.1,1.7-3.5c0-1.4-0.5-3-1.7-3.5 c-0.9-0.3-2.4-0.2-4.8,2.5l-0.1,0.2l-0.7-0.7l0.1-0.1c2.7-2.5,2.8-4.1,2.5-5c-0.4-1.1-1.9-1.8-3.7-1.8c-1.8,0-3.3,0.7-3.7,1.8 c-0.4,0.9-0.2,2.5,2.5,5l0.1,0.1l-0.7,0.7l-0.1-0.2c-2.4-2.7-3.9-2.8-4.8-2.5c-1.2,0.4-1.7,2.1-1.7,3.5s0.5,3,1.7,3.5 c0.9,0.3,2.4,0.2,4.8-2.5l0.1-0.2l0.1,0.1c0.1,0.1,0.3,0.3,0.4,0.4l0.1,0.1l0,0.1c-0.3,1.1-2.3,5.3-3.8,6.4l-0.1,0 c-2.9,1-5.8,1-8.5,0l-0.1,0c-1.1-0.9-3.5-4.6-3.8-6l0-0.1l0.1-0.1c0.1-0.1,0.3-0.3,0.3-0.3l0.1-0.1l0.1,0.1 c2.3,2.3,3.7,2.4,4.6,2c1-0.4,1.6-1.6,1.6-3.2c0-1.5-0.6-2.8-1.6-3.2c-0.8-0.3-2.3-0.3-4.6,2l-0.1,0.1l-0.6-0.6l0.1-0.1 c2.2-2.2,2.7-4.1,1.5-5.3c-1.4-1.4-4.7-1.4-6.1,0c-1.2,1.2-0.6,3.1,1.6,5.3l0.1,0.1l-0.6,0.6l-0.1-0.1c-2.3-2.3-3.7-2.4-4.6-2 c-1,0.4-1.6,1.6-1.6,3.2c0,1.5,0.6,2.8,1.6,3.2c0.8,0.3,2.3,0.3,4.6-2l0.1-0.1l0.1,0.1c0.1,0.1,0.3,0.3,0.3,0.3l0.1,0.1l0,0.1 c-0.3,1.4-2.3,5.1-3.4,6l0,0c-2.7,1.1-6.6,1.1-9,0c-0.6-0.4-2.9-3.7-3.7-5.2l-0.1-0.1l0.7-0.7l0.1,0.1c2.5,2.6,4.1,2.7,5,2.4 c1-0.4,1.7-1.7,1.7-3.3c0-1.6-0.7-2.9-1.7-3.4c-0.9-0.4-2.5-0.2-5,2.4l-0.1,0.1l-0.7-0.7l0.1-0.1c1.4-1.9,1.8-3.5,0.9-4.6 C82.2,71.6,79.5,71.4,77,72.5z"/><path class="st1" d="M101.3,70.2c-1.3-9.7-2.6-9.7,15.2-7.7c0-1-0.2-2.5-0.2-2.5c-22.7-2.9-20.6-2-18.6,10.4 C98.7,70,100.1,69.9,101.3,70.2"/><path class="st2" d="M97.5,70.7l0-0.2c-0.2-1-0.3-1.9-0.5-2.8c-0.7-4.2-1.2-6.7,0.1-8.1c1.8-1.9,6.7-1.5,19.2,0.2l0.2,0l0,0.2 c0,0,0.1,1.5,0.2,2.5l0,0.2l-0.9-0.1c-9.3-1.1-13.1-1.5-14.4-0.2c-0.9,0.9-0.6,2.8-0.2,5.8c0.1,0.6,0.2,1.2,0.3,1.9l0,0.3 l-0.3-0.1c-1.1-0.3-2.5-0.2-3.5,0.2L97.5,70.7z M102,58.8c-2.4,0-3.8,0.3-4.6,1.1c-1.2,1.2-0.7,3.7,0,7.7 c0.1,0.8,0.3,1.6,0.4,2.5c0.9-0.4,2.1-0.4,3.2-0.2c-0.1-0.6-0.2-1.1-0.2-1.6c-0.5-3.2-0.7-5.1,0.3-6.2c1.4-1.5,5.3-1,14.7,0 l0.5,0.1c0-0.8-0.1-1.7-0.1-2.1C109.5,59.3,105,58.8,102,58.8z"/><path class="st2" d="M97.9,79.6c-8.6,8.6-8.6-11.1,0-2.5c0,0,0.2-0.2,0.3-0.3c-3.3-3.3-2.5-5.4-0.6-6.3c0-0.2-0.4-2.3-0.5-2.7 c-5.1,1.2-9.6,3.1-13.3,6.2c0,0,0,0,0,0c0.2,1-0.2,2.2-1.4,3.7l0.4,0.4c9.3-9.7,9.3,12,0,2.2c-0.2,0.2-0.4,0.4-0.4,0.4 c0.8,1.5,3.1,4.7,3.6,5.1c2.2,1,6,1.2,8.8,0c1.1-0.9,3-4.6,3.3-5.8C98.2,79.8,98,79.6,97.9,79.6"/><path class="st2" d="M90.4 86.8c-1.6 0-3.2-.3-4.4-.9-.6-.4-2.9-3.7-3.7-5.2l-.1-.1.7-.7.1.1c2.5 2.6 4.1 2.7 5 2.4 1-.4 1.7-1.7 1.7-3.3 0-1.6-.7-2.9-1.7-3.4-.9-.4-2.5-.2-5 2.4l-.1.1-.7-.7.1-.1c1-1.4 1.5-2.6 1.3-3.6 0 0 0 0 0 0l.2 0-.1-.1c3.5-2.9 7.8-4.9 13.4-6.2l.2 0 0 .2c.1.4.4 2.5.5 2.7l0 .2-.1.1c-.6.3-1.4.8-1.5 1.7-.2 1.1.5 2.6 2.2 4.2l.1.1-.1.1C98.3 77 98 77.2 98 77.2l-.1.1-.1-.1c-2.2-2.2-4-2.8-5.2-1.6-1.2 1.2-1.2 4.2 0 5.4 1.2 1.2 3 .6 5.2-1.6l.1-.1.6.6 0 .1c-.3 1.4-2.3 5.1-3.4 6l0 0C93.6 86.5 92 86.8 90.4 86.8zM82.7 80.7c.9 1.6 3.1 4.6 3.5 4.9 2 .9 5.7 1.2 8.6 0 1-.8 2.8-4.3 3.2-5.6l-.1-.1c-1.2 1.1-3.8 3.3-5.6 1.5-1.4-1.4-1.4-4.6 0-6 1.8-1.8 4.4.3 5.6 1.5 0 0 0 0 .1-.1-1.6-1.7-2.4-3.2-2.1-4.4.2-.8.7-1.5 1.6-1.9-.1-.5-.3-1.8-.4-2.4-5.4 1.3-9.6 3.2-13 6 .1 1-.3 2.2-1.3 3.6l.2.2c2.6-2.6 4.3-2.7 5.2-2.3 1.2.5 1.9 1.9 1.9 3.7 0 1.8-.8 3.2-1.9 3.7-1 .4-2.7.3-5.3-2.3L82.7 80.7zM116.9 76.9l.4-.4c-4.2-3.9-2.8-6.2-.4-6.9 0 0-.3-3.7-.3-3.7-5.5 0-10.9.3-15.8 1.1 0 0 0 0 0 0 .1.5.4 2.9.5 3.2 2.4.6 3.9 2.8.2 6.5.1.1.3.3.3.3 8.6-8.6 8.6 11.1 0 2.5-.1.1-.3.3-.3.3.3 1.3 2.7 5 3.8 5.8 2.8 1.1 5.7 1 8.4 0 1.4-1 3.4-5.1 3.7-6.3-.1-.1-.3-.3-.4-.4C107.9 89.2 107.9 66.8 116.9 76.9"/><path class="st2" d="M109.4 86.7c-1.4 0-2.8-.3-4.2-.8l-.1 0c-1.1-.9-3.5-4.6-3.8-6l0-.1.1-.1c.1-.1.3-.3.3-.3l.1-.1.1.1c2.3 2.3 3.7 2.4 4.5 2 1-.4 1.6-1.6 1.6-3.2 0-1.5-.6-2.8-1.6-3.2-.8-.3-2.3-.3-4.5 2l-.1.1-.6-.6.1-.1c1.7-1.7 2.4-3.2 2.1-4.4-.2-.8-1-1.5-2.2-1.8l-.1 0 0-.1c0-.1-.1-.7-.2-1.4-.1-.7-.2-1.5-.3-1.8l-.1-.2.2 0c4.3-.7 9.4-1 15.9-1.1l.2 0 0 .2c.1 1.2.2 3.3.2 3.7l.1.2-.3.1c-1.1.3-1.9 1-2.1 1.8-.2.9.1 2.4 2.6 4.7l.1.1-.7.7-.1-.2c-2.4-2.7-3.9-2.8-4.8-2.5-1.2.4-1.7 2.1-1.7 3.5s.5 3 1.7 3.5c.9.3 2.4.2 4.8-2.5l.1-.2.1.1c.1.1.3.3.4.4l.1.1 0 .1c-.3 1.1-2.3 5.3-3.8 6.4l-.1 0C112.2 86.5 110.8 86.7 109.4 86.7zM105.3 85.6c2.6 1 5.4 1 8.2 0 1.3-1 3.2-4.7 3.6-6-.1-.1-.1-.1-.2-.2-2.5 2.7-4.1 2.8-5.1 2.5-1.2-.5-1.9-2-1.9-3.8s.8-3.4 1.9-3.8c1-.4 2.6-.2 5.1 2.5l.1-.1c-2.5-2.4-2.8-4-2.5-4.9.2-.9 1-1.7 2.2-2.1 0-.4-.1-1.2-.2-3.4-6.3.1-11.2.4-15.4 1.1 0 .3.1 1 .2 1.6.1.5.1 1 .2 1.3 1.2.3 2.1 1.1 2.4 2 .3.9.1 2.4-2 4.6l.1.1c2.4-2.3 3.9-2.4 4.8-2 1.1.5 1.8 1.8 1.8 3.5 0 1.7-.7 3.1-1.8 3.5-.9.4-2.5.3-4.8-2 0 0-.1.1-.1.1C102.1 81.3 104.3 84.8 105.3 85.6zM135.5 77.1c0 0 .2-.2.3-.3-3.6-3.6-2.2-5.8 0-6.5.2-1.2.3-2.3.5-3.2-4.5-.7-9.7-1-15.7-1.1l-.2 3.7c2.4.7 3.8 3-.4 6.9l.4.4c9.1-10.1 9.1 12.3 0 2.2-.1.1-.3.3-.4.4.4 1.2 2.3 5.2 3.7 6.3 3 1 5.7 1 8.8 0 1.1-.9 3-4.6 3.3-5.8-.1-.1-.3-.3-.3-.3C126.9 88.2 126.9 68.4 135.5 77.1"/><path class="st2" d="M128.1 86.7c-1.5 0-2.9-.2-4.4-.7l-.1 0c-1.5-1.1-3.5-5.2-3.8-6.4l0-.1.6-.6.1.2c2.4 2.7 3.9 2.8 4.8 2.5 1.2-.4 1.7-2.1 1.7-3.5 0-1.4-.5-3-1.7-3.5-.9-.3-2.4-.2-4.8 2.5l-.1.2-.7-.7.1-.1c2.5-2.3 2.8-3.8 2.6-4.7-.3-1.1-1.4-1.6-2.1-1.8l-.3-.1.2-.2c0-.5.2-3.6.2-3.6l0-.2.2 0c6.2.1 11.3.4 15.7 1.1l.2 0 0 .2c0 .3-.1.7-.1 1-.1.7-.2 1.4-.3 2.2l0 .1-.1 0c-1.1.3-1.8 1-2 1.8-.3 1.2.4 2.7 2.1 4.3l.1.1-.6.6-.1-.1c-2.2-2.2-4-2.8-5.2-1.6-1.2 1.2-1.2 4.2 0 5.4 1.2 1.2 3 .6 5.2-1.6l.1-.1.6.6 0 .1c-.3 1.4-2.3 5.1-3.4 6l-.1 0C131 86.5 129.5 86.7 128.1 86.7zM123.8 85.6c2.9 1 5.5 1 8.6 0 1-.8 2.8-4.3 3.2-5.6l-.1-.1c-1.2 1.1-3.8 3.3-5.6 1.5-1.4-1.4-1.4-4.6 0-6 1.8-1.8 4.4.3 5.6 1.5l.1-.1c-2.1-2.2-2.3-3.7-2-4.6.2-.9 1-1.6 2.2-2 .1-.8.2-1.5.3-2.1 0-.3.1-.6.1-.8-4.3-.6-9.3-1-15.3-1.1-.1 2.1-.2 3-.2 3.4 1.2.4 2 1.1 2.2 2.1.2 1 0 2.6-2.5 4.9l.1.1c2.5-2.7 4.1-2.8 5.1-2.5 1.2.5 1.9 2 1.9 3.8 0 1.9-.8 3.4-1.9 3.8-1 .4-2.6.2-5.1-2.5l-.2.2C120.7 80.9 122.6 84.6 123.8 85.6zM154.3 80.2c-9.3 9.8-9.3-11.9 0-2.2l.4-.4c-1.1-1.5-1.5-2.7-1.4-3.7-3.1-2.9-7.6-5-13.5-6.2-.1.8-.3 1.7-.4 2.7 2.1.8 3.1 2.9-.3 6.3l.3.3c8.6-8.6 8.6 11.1 0 2.5-.1.1-.3.3-.3.3.3 1.3 2.2 5 3.3 5.8 2.9 1.2 6.2 1 8.8 0 .5-.4 2.9-3.6 3.6-5.1C154.8 80.7 154.5 80.4 154.3 80.2"/><path class="st2" d="M146.8,86.8c-1.5,0-3.1-0.3-4.5-0.9l0,0c-1.1-0.9-3.1-4.6-3.4-6l0-0.1l0.6-0.6l0.1,0.1 c2.3,2.3,3.7,2.4,4.5,2c1-0.4,1.6-1.6,1.6-3.2c0-1.5-0.6-2.8-1.6-3.2c-0.8-0.3-2.3-0.3-4.6,2l-0.1,0.1l-0.6-0.6l0.1-0.1 c1.7-1.7,2.4-3.1,2.1-4.3c-0.2-0.8-0.8-1.4-1.7-1.7l-0.1-0.1l0-0.2c0.2-1,0.3-1.9,0.4-2.7l0-0.2l0.2,0c6,1.3,10.5,3.4,13.6,6.3 l0.1,0.1l0,0.1c-0.1,1,0.3,2.2,1.4,3.5l0.1,0.1l-0.7,0.7l-0.1-0.1c-2.5-2.6-4.1-2.7-5-2.4c-1,0.4-1.7,1.7-1.7,3.4 c0,1.6,0.7,2.9,1.7,3.3c0.9,0.4,2.5,0.2,5-2.4l0.1-0.1l0.7,0.7l-0.1,0.1c-0.8,1.5-3.2,4.8-3.7,5.2l0,0 C149.8,86.5,148.3,86.8,146.8,86.8z M142.5,85.6c2.7,1.1,5.9,1.1,8.6,0c0.5-0.4,2.7-3.3,3.5-4.9l-0.2-0.2 c-2.6,2.6-4.3,2.7-5.3,2.3c-1.2-0.5-1.9-1.9-1.9-3.7c0-1.8,0.8-3.2,1.9-3.7c1-0.4,2.7-0.3,5.2,2.3l0.2-0.2 c-1-1.3-1.4-2.5-1.3-3.6c-3.1-2.8-7.4-4.8-13.2-6.1c-0.1,0.7-0.3,1.5-0.4,2.3c1,0.4,1.6,1.1,1.8,2c0.2,0.9,0,2.4-2.1,4.5 l0.1,0.1c2.4-2.3,3.9-2.4,4.8-2c1.1,0.5,1.8,1.8,1.8,3.5c0,1.7-0.7,3.1-1.8,3.5c-0.9,0.4-2.5,0.3-4.8-2l-0.1,0.1 C139.7,81.3,141.5,84.8,142.5,85.6z"/><path class="st3" d="M68.4,91.8c5.7,0,90.4,0,100.5,0c-0.1,48.8-5.3,85.7-50.2,116C73.5,177.5,68.5,140.7,68.4,91.8z"/><path class="st4" d="M93 143L93.5 142.3 93.7 143.9 93.2 144.5z"/><path class="st4" d="M93.4 142.7l.1 1.1-.3.3-.1-1.1L93.4 142.7M93.7 141.9l-.8 1.1.2 1.8.8-.9L93.7 141.9 93.7 141.9zM93.7 148.9L94.3 148.3 94.5 149.8 94 150.4z"/><path class="st4" d="M94.2 148.6l.2 1.1-.2.3-.2-1.1L94.2 148.6M94.4 147.9l-.8.9.3 1.9.7-.8L94.4 147.9 94.4 147.9zM93.5 146.8L94 146.3 94.2 147.8 93.7 148.3z"/><path class="st4" d="M93.9 146.6l.1 1.1-.3.3-.2-1.1L93.9 146.6M94.1 146l-.8.8.3 1.9.8-.8L94.1 146 94.1 146zM93.2 145L93.8 144.4 94 145.8 93.4 146.4z"/><path class="st4" d="M93.7 144.7l.1 1-.3.3-.1-1L93.7 144.7M93.9 144l-.8.9.2 1.8.8-.9L93.9 144 93.9 144zM91.9 144.5c-.2-.2-.3-.3-.5-.4-.1-.1-.1-.1-.2-.2 0-.2 0-.9 0-1.6.1.1.2.2.2.3.2.2.3.4.3.4C91.8 143.2 91.8 144 91.9 144.5z"/><path class="st4" d="M91.4 142.7c.1.1.2.3.3.4 0 .2 0 .6.1 1-.1-.1-.1-.1-.2-.2 0 0-.1-.1-.1-.1C91.4 143.6 91.4 143.2 91.4 142.7M91.1 141.9c0 .9 0 2.1 0 2.1.2.2.7.6 1 .9 0-.2-.1-1.7-.1-1.9C91.9 142.9 91.2 142 91.1 141.9L91.1 141.9zM92 150.2L91.7 148.6 92.4 149.1 92.6 150.5z"/><path class="st4" d="M91.9 148.9l.3.2.2 1.1-.3-.2L91.9 148.9M91.6 148.3l.3 2 1 .5-.3-1.8L91.6 148.3 91.6 148.3zM91.6 148.1L91.5 146.5 92.1 147 92.3 148.6z"/><path class="st4" d="M91.7 146.8l.3.3.2 1.2-.4-.2L91.7 146.8M91.3 146.2l.2 2 1 .7-.3-1.9L91.3 146.2 91.3 146.2zM91.4 146L91.3 144.4 91.9 145 92.1 146.5z"/><path class="st4" d="M91.5 144.8l.3.3.1 1.1-.3-.2L91.5 144.8M91.1 144.1l.2 2 1 .7-.2-1.8L91.1 144.1 91.1 144.1zM91.8 142.1L92.4 140.6 93 142.1 92.4 142.9z"/><path class="st4" d="M92.4 141l.4 1-.4.6L92 142 92.4 141M92.4 140.2l-.8 1.8.8 1 .8-1L92.4 140.2 92.4 140.2zM99.9 171.5c-.7-1.5-1.5-3.1-2.1-4.7.1.1.3.1.5.2.6 1.5 1.2 2.9 1.9 4.3C100.1 171.4 100 171.5 99.9 171.5 99.9 171.5 99.9 171.5 99.9 171.5z"/><path class="st4" d="M98 167.1C98.1 167.1 98.1 167.1 98 167.1c.6 1.4 1.3 2.8 1.9 4.2l0 0C99.3 170 98.6 168.6 98 167.1M97.5 166.6c.7 1.7 1.5 3.5 2.3 5.2.2-.1.3-.3.5-.3-.7-1.5-1.4-3.1-2-4.5C98 166.8 97.7 166.7 97.5 166.6L97.5 166.6zM94.5 156.7c-1.4-5.7-2.1-10.8-2.2-13.6.1 0 .2 0 .2 0 0 0 .1 0 .1 0 0 0 0 0 .1 0l0 .2c.3 2.8.7 7.4 2.2 13.3C94.7 156.7 94.6 156.7 94.5 156.7z"/><path class="st4" d="M92.4 143.3C92.5 143.3 92.5 143.3 92.4 143.3L92.4 143.3c.3 2.8.7 7.4 2.2 13.3 0 0-.1 0-.1 0C93.2 151 92.5 146 92.4 143.3 92.4 143.3 92.4 143.3 92.4 143.3M92.4 143c-.1 0-.2 0-.4 0 .1 2.3.7 7.6 2.3 13.8.2 0 .4 0 .7 0-1.6-6.2-2-11.1-2.3-13.8C92.6 143 92.5 143 92.4 143L92.4 143zM83.5 149.9L82.5 148.7 83.4 148.9 84.3 150z"/><path class="st4" d="M82.9 148.9l.4.1.7.8-.4 0L82.9 148.9M82.1 148.5l1.4 1.6 1.2 0-1.2-1.4L82.1 148.5 82.1 148.5zM87.3 154.6L86.4 153.4 87.1 153.4 88 154.6z"/><path class="st4" d="M86.7 153.5l.4 0 .7.9-.4 0L86.7 153.5M86 153.2l1.2 1.5 1.1 0-1.1-1.5L86 153.2 86 153.2zM86 153L85.1 151.8 85.9 151.8 86.8 153z"/><path class="st4" d="M85.8 152l.7.9-.4 0-.7-.9L85.8 152M85.9 151.7l-1.2 0 1.2 1.4 1.2 0L85.9 151.7 85.9 151.7zM83.8 150.3L84.7 150.3 85.6 151.4 84.7 151.4z"/><path class="st4" d="M84.1 150.5l.5 0 .7.8-.5 0L84.1 150.5M83.5 150.2l1.1 1.4 1.2 0-1.1-1.4L83.5 150.2 83.5 150.2zM85.2 149c-.3-.4-.8-.9-1-1.1 0-.1-.1-.8-.1-.9.5.5 1 1 1.1 1.1 0 .1 0 .1 0 .2C85.2 148.6 85.2 148.8 85.2 149z"/><path class="st4" d="M84.3 147.4c.3.3.6.6.8.8 0 .1 0 .1 0 .2 0 .1 0 .2 0 .3-.3-.3-.6-.6-.7-.7C84.4 147.8 84.3 147.6 84.3 147.4M83.9 146.6c0 .2.2 1.3.2 1.4.1.1 1.2 1.2 1.3 1.4 0-.5 0-1.1 0-1.4C85.4 148.1 84.6 147.3 83.9 146.6L83.9 146.6zM88.2 152.6L88.3 151.8 89.3 153.1 89.1 153.8z"/><path class="st4" d="M88.4 152.2l.7.9-.1.4-.7-.9L88.4 152.2M88.3 151.5l-.2 1.1 1.1 1.5.3-1L88.3 151.5 88.3 151.5zM86.9 151L87 150.2 88 151.4 87.9 152.2z"/><path class="st4" d="M87.1 150.5l.8.9-.1.4-.7-.9L87.1 150.5M86.9 149.8l-.2 1.2 1.2 1.5.2-1.2L86.9 149.8 86.9 149.8zM85.6 149.5L85.6 148.6 86.6 149.8 86.5 150.6z"/><path class="st4" d="M85.7 149l.7.8 0 .4-.7-.8L85.7 149M85.5 148.2l0 1.3 1.2 1.4.1-1.2L85.5 148.2 85.5 148.2zM82.7 148.2L82.1 146.8 83.5 147.3 83.7 148.3z"/><path class="st4" d="M82.4 147l1 .4.1.7-.7-.1L82.4 147M81.8 146.5l.8 1.8 1.3.2-.2-1.3L81.8 146.5 81.8 146.5zM90.5 157.3c-2.5-4-4.9-6.7-6.1-7.9-.3-.3-.5-.6-.6-.7 0 0 0 0 0-.1.1-.1.1-.1.2-.2.2.2.4.5.8.9 1.3 1.4 3.6 3.9 6 7.7-.1 0-.1.1-.1.1L90.5 157.3z"/><path class="st4" d="M84 148.6c.2.2.4.5.7.8 1.2 1.3 3.5 3.8 5.9 7.6 0 0 0 0-.1.1l0 0c-2.5-3.9-4.9-6.5-6-7.8C84.3 149 84.1 148.8 84 148.6 84 148.6 84 148.6 84 148.6M84 148.2c-.4.3-.3.2-.5.5.4.6 3.6 3.6 6.9 8.9.1-.1.2-.2.3-.3.1-.1.1-.1.2-.2C87.6 151.7 84.4 148.8 84 148.2L84 148.2zM97.2 172.7c-.5-1.8-1-3.5-1.7-5.2.1-.1.2-.1.3-.2.6 1.7 1.2 3.5 1.6 5.3C97.4 172.6 97.4 172.6 97.2 172.7z"/><path class="st4" d="M95.8 167.5c.6 1.6 1.1 3.2 1.5 4.9C96.9 170.7 96.3 169.1 95.8 167.5 95.8 167.5 95.8 167.5 95.8 167.5M95.9 167c-.2.1-.4.3-.6.4.6 1.7 1.2 3.5 1.8 5.5.3-.1.3-.1.6-.2C97.2 170.7 96.6 168.8 95.9 167L95.9 167zM108 173.7L108.7 173.5 109.6 174.3 108.9 174.4z"/><path class="st4" d="M108.7 173.7l.6.5-.4.1-.6-.5L108.7 173.7M108.7 173.4l-1.1.2 1.2 1 1.1-.2L108.7 173.4 108.7 173.4zM103.6 170L104.3 169.9 105.2 170.6 104.5 170.7z"/><path class="st4" d="M104.3 170l.6.5-.4.1-.6-.5L104.3 170M104.4 169.7l-1.1.2 1.2 1 1.1-.2L104.4 169.7 104.4 169.7zM105 171.2L105.8 171.1 106.7 171.8 105.9 172z"/><path class="st4" d="M105.7 171.2l.6.5-.4.1-.6-.5L105.7 171.2M105.8 170.9l-1.1.2 1.2 1 1.1-.2L105.8 170.9 105.8 170.9zM106.5 172.4L107.2 172.3 108.1 173.1 107.4 173.2z"/><path class="st4" d="M107.2 172.5l.6.5-.4.1-.6-.5L107.2 172.5M107.3 172.1l-1.1.2 1.2 1 1.1-.2L107.3 172.1 107.3 172.1zM107 175.6L107 174.8 107.9 175.6 107.9 176.3z"/><path class="st4" d="M107.1 175.2l.6.5 0 .4-.6-.5L107.1 175.2M106.8 174.5l0 1.1 1.2 1 0-1.1L106.8 174.5 106.8 174.5zM102.6 171.9L102.6 171.2 103.5 171.9 103.5 172.7z"/><path class="st4" d="M102.7 171.5l.6.5 0 .4-.6-.5L102.7 171.5M102.5 170.9l0 1.1 1.2 1 0-1.1L102.5 170.9 102.5 170.9zM104.1 173.1L104.1 172.4 105 173.1 104.9 173.9z"/><path class="st4" d="M104.2 172.7l.6.5 0 .4-.6-.5L104.2 172.7M103.9 172.1l0 1.1 1.2 1 0-1.1L103.9 172.1 103.9 172.1zM105.5 174.4L105.5 173.6 106.4 174.4 106.4 175.1z"/><path class="st4" d="M105.7 173.9l.6.5 0 .4-.6-.5L105.7 173.9M105.4 173.3l0 1.1 1.2 1 0-1.1L105.4 173.3 105.4 173.3zM86.5 157l.2-.5 2.6 2.2c-.1.1-.2.2-.3.4L86.5 157z"/><path class="st4" d="M86.7 156.7l2.3 2c0 0-.1.1-.1.1l-2.3-1.9L86.7 156.7M86.6 156.3l-.3.7 2.7 2.3c.2-.2.3-.4.5-.6L86.6 156.3 86.6 156.3zM90.7 160.7c.1-.1.1-.2.1-.2 0-.1-.2-.1-.4-.1L90.7 160.7z"/><path class="st4" d="M90.4 160.4l.3.2c.1-.1.1-.2.1-.2C90.8 160.5 90.6 160.4 90.4 160.4L90.4 160.4zM98.8 167.3C98.9 167.3 98.9 167.3 98.8 167.3c.6.3 1.1.5 1.6.7l9.3 7.8-.2.4L98.8 167.3z"/><path class="st4" d="M99.8,167.9c0.2,0.1,0.4,0.2,0.6,0.3l9.2,7.7l-0.1,0.2L99.8,167.9 M97.9,166.7l11.7,9.8l0.4-0.7 l-9.5-7.9C99.6,167.5,98.6,167.1,97.9,166.7L97.9,166.7z"/><path class="st5" d="M79 150.3L86.6 154.6 84.5 154.5 86.3 156 85.9 156.7 84.2 155.2 84.7 157.2z"/><path class="st4" d="M97.4 182.9L97.4 181.8 98 182.2 98 183.4z"/><path class="st4" d="M97.5 182.1l.3.2 0 .8-.3-.2L97.5 182.1M97.3 181.4l0 1.5.9.7 0-1.5L97.3 181.4 97.3 181.4zM97.4 177.2L97.4 176 98 176.5 98 177.7z"/><path class="st4" d="M97.5 176.3l.3.2 0 .8-.3-.2L97.5 176.3M97.3 175.7l0 1.5.9.7 0-1.5L97.3 175.7 97.3 175.7zM97.4 179.1L97.4 177.9 98 178.4 98 179.6z"/><path class="st4" d="M97.5 178.2l.3.2 0 .8-.3-.2L97.5 178.2M97.3 177.6l0 1.5.9.7 0-1.5L97.3 177.6 97.3 177.6zM97.4 181L97.4 179.8 98 180.3 98 181.5z"/><path class="st4" d="M97.5 180.2l.3.2 0 .8-.3-.2L97.5 180.2M97.3 179.5l0 1.5.9.7 0-1.5L97.3 179.5 97.3 179.5zM95.3 182.2L95.9 181.8 95.9 182.9 95.3 183.4z"/><path class="st4" d="M95.7 182.1l0 .8-.3.2v-.8L95.7 182.1M96 181.4l-.9.7v1.5L96 183 96 181.4 96 181.4zM95.3 176.5L95.9 176 95.9 177.2 95.3 177.7z"/><path class="st4" d="M95.7 176.3l0 .8-.3.2 0-.8L95.7 176.3M96 175.7l-.9.7 0 1.5.9-.7L96 175.7 96 175.7zM95.3 178.4L95.9 177.9 95.9 179.1 95.3 179.6z"/><path class="st4" d="M95.7 178.2l0 .8-.3.2v-.8L95.7 178.2M96 177.6l-.9.7v1.5l.9-.7L96 177.6 96 177.6zM95.3 180.3L95.9 179.8 95.9 181 95.3 181.5z"/><path class="st4" d="M95.7,180.2l0,0.8l-0.3,0.2l0-0.8L95.7,180.2 M96,179.5l-0.9,0.7l0,1.5l0.9-0.7L96,179.5L96,179.5z"/><path class="st5" d="M96.7 138.7L98.3 147.2 97 145.6 97 147.9 96.3 148 96.3 145.8 95.1 147.5z"/><path class="st4" d="M96.4,148.5l0.5-0.1l0,8l0,0c-0.2,0-0.3,0-0.5,0.1V148.5z"/><path class="st4" d="M96.7 148.6l0 7.8c-.1 0-.1 0-.2 0v-7.8L96.7 148.6M97 148.3l-.8.1v8.3c.2 0 .4 0 .6-.1 0 0 .1.1.1.2L97 148.3 97 148.3zM96.4 166.8c.2-.2.3-.3.4-.4 0 0 .1 0 .1 0l0 18.1-.5.1V166.8z"/><path class="st4" d="M96.7 166.7l0 17.8-.2 0v-17.7C96.6 166.8 96.7 166.7 96.7 166.7M96.7 166.3C96.7 166.3 96.7 166.3 96.7 166.3c0 0-.2.2-.5.5v18.1l.8-.1 0-18.4C96.9 166.3 96.8 166.3 96.7 166.3L96.7 166.3zM103.6 180.9L103.2 179.9 103.9 180.1 104.4 181.1z"/><path class="st4" d="M103.4 180.1l.4.1.3.7-.4-.1L103.4 180.1M102.9 179.7l.6 1.4 1.1.3L104 180 102.9 179.7 102.9 179.7zM101.4 175.7L101 174.6 101.7 174.8 102.1 175.9z"/><path class="st4" d="M101.2 174.8l.4.1.3.7-.4-.1L101.2 174.8M100.7 174.4l.6 1.4 1.1.3-.6-1.4L100.7 174.4 100.7 174.4zM102.2 177.4L101.7 176.4 102.4 176.6 102.9 177.6z"/><path class="st4" d="M102 176.6l.4.1.3.7-.4-.1L102 176.6M101.4 176.1l.6 1.4 1.1.3-.6-1.4L101.4 176.1 101.4 176.1zM102.9 179.2L102.4 178.1 103.2 178.3 103.6 179.4z"/><path class="st4" d="M102.7 178.3l.3.1.3.7-.4-.1L102.7 178.3M102.2 177.9l.6 1.4 1.1.3-.6-1.4L102.2 177.9 102.2 177.9zM101.4 181.1L101.8 180.5 102.2 181.5 101.9 182.2z"/><path class="st4" d="M101.8 180.8l.3.7-.2.3-.3-.7L101.8 180.8M101.8 180.1l-.5 1 .6 1.4.5-1L101.8 180.1 101.8 180.1zM99.2 175.9L99.5 175.2 100 176.3 99.7 176.9z"/><path class="st4" d="M99.5 175.5l.3.7-.2.3-.3-.7L99.5 175.5M99.6 174.9l-.5 1 .6 1.4.5-1L99.6 174.9 99.6 174.9zM99.9 177.6L100.3 177 100.7 178 100.4 178.7z"/><path class="st4" d="M100.3 177.3l.3.7-.2.3-.3-.7L100.3 177.3M100.3 176.6l-.5 1 .6 1.4.5-1L100.3 176.6 100.3 176.6zM100.7 179.4L101 178.7 101.5 179.8 101.1 180.4z"/><path class="st4" d="M101,179.1l0.3,0.7l-0.2,0.3l-0.3-0.7L101,179.1 M101.1,178.4l-0.5,1l0.6,1.4l0.5-1L101.1,178.4 L101.1,178.4z"/><path class="st5" d="M86.5 142.5L91.3 149.7 89.5 148.7 90.7 151.5 90 151.9 88.9 149.2 88.4 151.2z"/><path class="st4" d="M90.4,152.3l0.4-0.2l2,4.7c-0.2,0-0.4,0-0.5,0L90.4,152.3z"/><path class="st4" d="M90.7 152.3l1.8 4.3c-.1 0-.1 0-.2 0l-1.8-4.2L90.7 152.3M90.9 151.9l-.7.4 2 4.6c.3 0 .5 0 .8 0L90.9 151.9 90.9 151.9zM96.5 166.7c.1-.1.2-.2.3-.3 0 0 .1 0 .2.1l6.9 16.2-.4.3L96.5 166.7z"/><path class="st4" d="M96.8,166.6L96.8,166.6l6.8,16.1l-0.2,0.1l-6.8-16C96.7,166.7,96.8,166.6,96.8,166.6 M96.7,166.3 C96.7,166.3,96.7,166.3,96.7,166.3c0,0-0.2,0.2-0.4,0.4l7,16.5l0.7-0.4l-7-16.4C96.9,166.3,96.8,166.3,96.7,166.3 L96.7,166.3z"/><path class="st5" d="M116.8,113.5l-6.3-3.8c-1.4,0-2.2-0.6-2.9-1.1l0,0c2.1,1.8,6.5,5.5,7.9,5.9 C116.4,114.8,116.8,113.5,116.8,113.5z"/><path class="st3" d="M115.8,114.7c-0.1,0-0.2,0-0.3,0c-1.6-0.5-6.5-4.7-8-6l0.2-0.2c0.6,0.5,1.4,1,2.8,1.1l0,0l0,0l6.4,3.9 l0,0.1c0,0-0.2,0.8-0.8,1C116.1,114.6,115.9,114.7,115.8,114.7z M109,109.5c2,1.7,5.4,4.4,6.6,4.8c0.2,0,0.3,0,0.4,0 c0.3-0.2,0.5-0.6,0.6-0.8l-6.1-3.8C109.9,109.8,109.5,109.7,109,109.5z"/><path class="st5" d="M107.7,108.6C107.7,108.6,107.7,108.6,107.7,108.6c-0.5-0.4-0.8-0.7-1.1-0.8c-0.1,0-0.2,0-0.3,0.1 c1.8,2.9,5.5,5.8,7.3,6.9c0.8,0.5,1.3-0.2,1.4-0.6C113.1,113.2,109.5,110.2,107.7,108.6z"/><path class="st3" d="M114.1,115.1c-0.2,0-0.4-0.1-0.6-0.2c-2-1.2-5.7-4.2-7.4-7l-0.1-0.1l0.1-0.1c0.1-0.1,0.3-0.1,0.4-0.1 c0.3,0,0.6,0.3,0.9,0.6c0.1,0.1,0.2,0.2,0.3,0.2l0,0l0,0c1.2,1,5.3,4.5,7.2,5.6l0.1,0.1l0,0.1c-0.1,0.1-0.3,0.6-0.7,0.8 C114.3,115.1,114.2,115.1,114.1,115.1z M106.4,107.9c1.7,2.7,5.2,5.5,7.2,6.7c0.2,0.1,0.5,0.2,0.7,0.1 c0.2-0.1,0.4-0.3,0.5-0.5c-2-1.2-5.9-4.5-7.2-5.6l0,0l0,0c-0.1-0.1-0.2-0.1-0.3-0.2C107,108.2,106.7,107.9,106.4,107.9 C106.5,107.9,106.5,107.9,106.4,107.9z"/><path class="st5" d="M106.2,107.8L106.2,107.8c-0.2,0.1-0.4,0.3-0.7,0.6c1.7,2.8,4.5,5.4,5.7,6.2c1,0.7,1.4,0.3,1.7-0.3 C111,113,107.8,110.4,106.2,107.8z"/><path class="st3" d="M112.1,115.1c-0.3,0-0.6-0.1-1-0.4c-1.1-0.8-3.9-3.3-5.7-6.2l-0.1-0.1l0.1-0.1c0.1-0.1,0.2-0.1,0.2-0.2 c0.2-0.2,0.4-0.3,0.5-0.4l0.1-0.1l0.1,0.1c1.7,2.7,5,5.3,6.7,6.5l0.1,0.1l-0.1,0.1c-0.2,0.3-0.4,0.6-0.8,0.7 C112.2,115.1,112.1,115.1,112.1,115.1z M105.7,108.4c1.8,2.8,4.6,5.3,5.6,6.1c0.4,0.3,0.7,0.4,0.9,0.3c0.2,0,0.4-0.2,0.5-0.4 c-1.7-1.2-4.9-3.7-6.5-6.3c-0.1,0.1-0.2,0.2-0.3,0.3C105.8,108.4,105.7,108.4,105.7,108.4z"/><path class="st5" d="M105.5,108.4L105.5,108.4c-0.2,0.2-0.5,0.4-0.8,0.5c1.5,2.5,3.8,4.9,4.8,5.8c0.6,0.5,1.2,0.3,1.6-0.1 C109.9,113.7,107.2,111.2,105.5,108.4z"/><path class="st3" d="M110.3,115.1c-0.3,0-0.6-0.1-0.9-0.4c-1.1-0.9-3.4-3.4-4.9-5.8l-0.1-0.1l0.1-0.1 c0.3-0.1,0.6-0.3,0.7-0.5l0.1-0.1l0.1,0.1c1.7,2.8,4.5,5.4,5.6,6.1l0.1,0.1l-0.1,0.1C111,114.9,110.7,115.1,110.3,115.1z M104.9,109c1.4,2.4,3.6,4.7,4.7,5.6c0.5,0.4,0.9,0.3,1.3,0.1c-1.2-0.9-3.8-3.3-5.5-6C105.3,108.7,105.1,108.9,104.9,109z"/><path class="st5" d="M104.8,108.9C104.7,108.9,104.7,108.9,104.8,108.9c-0.3,0.1-0.5,0.2-0.8,0.2c1,1.8,2.2,3.4,2.9,4.1 c0.5,0.5,1,0.4,1.4,0.1C107.1,112.2,105.8,110.6,104.8,108.9z"/><path class="st3" d="M107.6,113.8c-0.3,0-0.6-0.1-0.9-0.4c-0.7-0.7-1.9-2.4-2.9-4.1l-0.1-0.2l0.2,0c0.3,0,0.5-0.1,0.8-0.3 l0.1-0.1l0.1,0.2c1.1,1.9,2.7,3.6,3.5,4.4l0.1,0.1l-0.1,0.1C108.1,113.7,107.8,113.8,107.6,113.8z M104.1,109.3 c1,1.7,2.1,3.2,2.8,3.9c0.4,0.4,0.8,0.3,1.1,0.2c-0.8-0.9-2.2-2.5-3.3-4.3C104.5,109.2,104.3,109.2,104.1,109.3z"/><path class="st5" d="M103.6,109.2c-0.2,0-0.4,0-0.6,0c0.1,0.7,0.2,1.1,0.3,1.1c0.6,0.3,1,1.7,2.3,1.5 c-0.6-0.8-1.2-1.7-1.7-2.7C103.8,109.2,103.7,109.2,103.6,109.2z"/><path class="st3" d="M105.4,112c-0.8,0-1.3-0.6-1.6-1c-0.2-0.2-0.3-0.4-0.5-0.5c-0.1-0.1-0.2-0.3-0.3-1.1l-0.1-0.4l0.2,0 c0.2,0,0.4,0,0.6,0l0,0c0.1,0,0.2,0,0.3,0l0.1,0l0.1,0.1c0.6,1.1,1.3,2.1,1.7,2.7l0.1,0.2l-0.2,0 C105.6,112,105.5,112,105.4,112z M103.2,109.4c0.1,0.4,0.2,0.8,0.2,0.9c0.2,0.1,0.4,0.3,0.6,0.6c0.3,0.4,0.7,0.9,1.4,0.9 c0,0,0,0,0,0c-0.4-0.6-1-1.4-1.5-2.4c-0.1,0-0.1,0-0.2,0C103.5,109.4,103.4,109.4,103.2,109.4z"/><path class="st5" d="M103,109.2C103,109.2,103,109.2,103,109.2c-0.8-0.1-1.8-0.3-2.4-0.5c0.3,1.1,1.7,0.9,2.7,1.7 C103.2,110.3,103.2,109.9,103,109.2z"/><path class="st3" d="M103.3,110.5C103.2,110.5,103.2,110.4,103.3,110.5c-0.4-0.3-0.8-0.4-1.2-0.6c-0.7-0.2-1.3-0.4-1.5-1.2 l-0.1-0.3l0.3,0.1c0.6,0.2,1.6,0.4,2.3,0.5l0.5,0l-0.4,0.2l0,0.1c0.1,0.4,0.1,0.8,0.2,0.9c0,0,0,0,0,0l0,0c0,0,0,0,0,0l0,0 L103.3,110.5z M100.9,108.9c0.2,0.4,0.7,0.5,1.2,0.7c0.3,0.1,0.6,0.2,0.9,0.4c0-0.1-0.1-0.3-0.1-0.6l0-0.1 C102.3,109.3,101.5,109.1,100.9,108.9z"/><path class="st5" d="M106.3,106c-2.6-0.4-1.6,3-4.9,1.7l-0.7,1c0.8,0.3,2.2,0.6,3,0.5c1.7-0.1,2.3-1.5,2.9-1.4 c0.8,0.1,1.5,1.8,4,1.9C108.9,108.6,108.6,106.3,106.3,106z"/><path class="st3" d="M111,109.8l-0.5,0c-1.7,0-2.6-0.8-3.2-1.4c-0.3-0.3-0.6-0.5-0.8-0.5c-0.2,0-0.4,0.2-0.7,0.4 c-0.5,0.4-1.1,0.9-2.2,1c-0.8,0.1-2.3-0.3-3-0.5l-0.2-0.1l0.8-1.3l0.1,0c1.7,0.7,2.2,0.1,2.7-0.6c0.4-0.6,0.9-1.2,2.2-1.1 l0,0c1.5,0.2,2.2,1.2,2.9,2.1c0.4,0.6,0.9,1.2,1.5,1.6L111,109.8z M106.5,107.6C106.5,107.6,106.5,107.6,106.5,107.6 c0.4,0,0.7,0.3,1,0.6c0.6,0.5,1.3,1.1,2.6,1.3c-0.5-0.4-0.8-0.9-1.2-1.4c-0.7-0.9-1.3-1.8-2.7-2c-1.1-0.1-1.5,0.4-1.9,0.9 c-0.5,0.7-1.1,1.4-2.9,0.8l-0.5,0.8c0.8,0.2,2.1,0.5,2.7,0.5c1-0.1,1.6-0.6,2-1C105.9,107.8,106.2,107.6,106.5,107.6z"/><path class="st5" d="M88.5,94.8l6,4.3c0.6,1.3,1.4,1.8,2.1,2.2l0,0c-2.5-1.2-7.6-3.8-8.6-5C87.5,95.6,88.5,94.8,88.5,94.8z"/><path class="st3" d="M96.6,101.4c-1.7-0.9-7.5-3.7-8.6-5c-0.2-0.2-0.2-0.4-0.2-0.6c0-0.6,0.6-1.1,0.7-1.1l0.1-0.1l6.1,4.4 l0,0c0.5,1.2,1.3,1.8,2.1,2.1L96.6,101.4z M88.5,95c-0.1,0.1-0.5,0.5-0.5,0.8c0,0.2,0,0.3,0.1,0.4c0.8,1,4.6,3,7,4.2 c-0.3-0.3-0.6-0.7-0.8-1.2L88.5,95z"/><path class="st5" d="M96.6,101.3C96.6,101.3,96.6,101.3,96.6,101.3c0.5,0.3,1,0.4,1.2,0.7c0.1,0.1,0.1,0.2,0.1,0.3 c-3.4-0.5-7.5-2.8-9.2-4c-0.8-0.6-0.3-1.3,0-1.5C90.3,98.1,94.4,100.2,96.6,101.3z"/><path class="st3" d="M98,102.5l-0.2,0c-3.2-0.5-7.4-2.7-9.3-4.1c-0.3-0.2-0.5-0.5-0.5-0.8c0-0.5,0.3-0.9,0.5-1l0.1-0.1 l0.1,0.1c1.8,1.4,6.6,3.8,8,4.5l0,0l0,0c0.1,0.1,0.2,0.1,0.3,0.2c0.4,0.2,0.7,0.4,0.9,0.6c0.1,0.1,0.1,0.2,0.1,0.4L98,102.5 z M88.6,97c-0.2,0.2-0.3,0.4-0.3,0.6c0,0.2,0.1,0.4,0.4,0.6c1.9,1.3,5.8,3.4,9,4c0,0,0-0.1,0-0.1c-0.1-0.2-0.4-0.3-0.8-0.5 c-0.1-0.1-0.2-0.1-0.3-0.2v0C95.2,100.7,90.5,98.4,88.6,97z"/><path class="st5" d="M97.9,102.3L97.9,102.3c0,0.2-0.1,0.5-0.2,0.9c-3.2-0.5-6.7-2.1-7.9-2.8c-1-0.6-0.8-1.2-0.4-1.7 C91.2,100,94.9,101.9,97.9,102.3z"/><path class="st3" d="M97.7,103.4l-0.1,0c-3.4-0.5-6.8-2.1-8-2.8c-0.5-0.3-0.7-0.6-0.8-0.9c-0.1-0.4,0.1-0.7,0.3-1l0.1-0.1 l0.1,0.1c1.7,1.1,5.4,3.1,8.6,3.6l0.1,0l0,0.1c0,0.2-0.1,0.4-0.2,0.6c0,0.1-0.1,0.2-0.1,0.3L97.7,103.4z M89.3,98.9 c-0.1,0.2-0.2,0.4-0.2,0.7c0.1,0.2,0.3,0.5,0.7,0.7c1.1,0.7,4.5,2.2,7.8,2.8c0-0.1,0-0.1,0.1-0.2c0-0.2,0.1-0.3,0.1-0.4 C94.6,101.9,91,100,89.3,98.9z"/><path class="st5" d="M97.6,103.2L97.6,103.2c-0.1,0.3-0.1,0.6-0.2,0.9c-2.9-0.4-6-1.6-7.2-2.2c-0.7-0.3-0.8-1-0.5-1.5 C91,101.2,94.4,102.7,97.6,103.2z"/><path class="st3" d="M97.6,104.3l-0.2,0c-2.8-0.4-5.9-1.6-7.2-2.2c-0.8-0.4-0.9-1.2-0.6-1.7l0.1-0.1l0.1,0.1 c1.1,0.7,4.6,2.3,7.8,2.8l0.2,0l0,0.2c-0.1,0.2-0.1,0.5-0.2,0.9L97.6,104.3z M89.8,100.6c-0.1,0.4,0,0.9,0.5,1.1 c1.3,0.6,4.2,1.7,7,2.2c0-0.2,0.1-0.4,0.1-0.6C94.3,102.8,91.1,101.4,89.8,100.6z"/><path class="st5" d="M97.4,104.1C97.4,104.1,97.4,104.1,97.4,104.1c0,0.3,0.1,0.6,0.1,0.9c-2.1-0.2-4-0.7-4.9-1.1 c-0.6-0.2-0.8-0.8-0.7-1.3C93.4,103.2,95.5,103.8,97.4,104.1z"/><path class="st3" d="M97.7,105.1l-0.2,0c-2-0.2-4-0.7-4.9-1.1c-0.6-0.2-0.9-0.8-0.8-1.4l0-0.2l0.2,0.1 c1.1,0.4,3.2,1.2,5.4,1.5l0.2,0l0,0.1c0,0.3,0,0.5,0.1,0.8L97.7,105.1z M92.1,102.8c0,0.3,0.1,0.7,0.6,0.9 c0.9,0.3,2.7,0.8,4.7,1c0-0.2,0-0.4,0-0.6C95.2,103.9,93.2,103.2,92.1,102.8z"/><path class="st5" d="M97.6,105.2c0.1,0.2,0.1,0.3,0.2,0.5c-0.7,0.1-1.1,0.2-1.2,0.2c-0.5-0.4-2-0.2-2.3-1.6 c0.9,0.2,2,0.4,3.1,0.6C97.6,105,97.6,105.1,97.6,105.2z"/><path class="st3" d="M96.8,106.1c-0.1,0-0.2,0-0.2-0.1c-0.1-0.1-0.4-0.2-0.7-0.3c-0.6-0.2-1.5-0.4-1.7-1.4l-0.1-0.2l0.2,0.1 c0.7,0.2,1.8,0.4,3.1,0.6l0.1,0l0,0.1c0,0.1,0,0.2,0.1,0.3l0,0c0,0.1,0.1,0.3,0.2,0.5l0.1,0.2l-0.3,0.1 C97.2,106.1,97,106.1,96.8,106.1z M94.6,104.6c0.3,0.6,0.9,0.8,1.4,0.9c0.3,0.1,0.6,0.2,0.8,0.3c0,0,0,0,0,0 c0.1,0,0.5-0.1,0.8-0.2c-0.1-0.1-0.1-0.3-0.2-0.4c0-0.1,0-0.1-0.1-0.2C96.3,104.9,95.3,104.8,94.6,104.6z"/><path class="st5" d="M97.9,105.8C97.9,105.8,97.9,105.8,97.9,105.8c0.4,0.7,1,1.5,1.4,2c-1.1,0.1-1.5-1.2-2.6-1.8 C96.8,106,97.2,105.9,97.9,105.8z"/><path class="st3" d="M99.1,107.9c-0.7,0-1.1-0.5-1.5-1c-0.3-0.3-0.6-0.6-0.9-0.9c0,0,0,0-0.1,0l0.2-0.2c0,0,0,0,0,0 c0.1,0,0.5-0.1,0.9-0.2l0.3-0.1l0.1,0.1c0.4,0.7,1,1.5,1.4,2l0.2,0.2l-0.3,0C99.2,107.9,99.2,107.9,99.1,107.9z M97.1,106.1 c0.3,0.2,0.5,0.5,0.7,0.7c0.4,0.4,0.7,0.8,1.1,0.8c-0.4-0.5-0.8-1.1-1.2-1.7l0,0C97.5,106,97.3,106,97.1,106.1z"/><path class="st5" d="M99.6,101.5c1.3,2.3-2.1,2.7,0.4,5.2l-0.7,1c-0.6-0.6-1.4-1.8-1.7-2.5c-0.5-1.6,0.5-2.7,0.2-3.2 c-0.4-0.7-2.3-0.7-3.3-2.9C96.1,100.1,98.4,99.6,99.6,101.5z"/><path class="st3" d="M99.3,108l-0.1-0.1c-0.5-0.6-1.4-1.8-1.7-2.6c-0.3-1-0.1-1.8,0.1-2.4c0.1-0.3,0.2-0.6,0.1-0.8 c-0.1-0.2-0.4-0.3-0.8-0.5c-0.8-0.4-1.8-0.9-2.5-2.4l-0.2-0.5l0.4,0.3c0.6,0.4,1.3,0.6,2,0.7c1.1,0.3,2.3,0.5,3.1,1.8 c0.7,1.1,0.2,1.8-0.1,2.4c-0.4,0.8-0.8,1.4,0.5,2.7l0.1,0.1L99.3,108z M94.9,99.4c0.6,1.1,1.5,1.5,2.2,1.9 c0.4,0.2,0.7,0.4,0.9,0.6c0.2,0.3,0.1,0.6-0.1,1c-0.2,0.6-0.4,1.3-0.1,2.2c0.2,0.6,1,1.7,1.5,2.3l0.5-0.8 c-1.3-1.4-0.9-2.2-0.4-3c0.3-0.6,0.7-1.2,0.1-2.1v0c-0.7-1.2-1.8-1.4-2.9-1.7C96,99.8,95.4,99.7,94.9,99.4z"/><path class="st5" d="M105.4,100c-1.1-0.8-2.7-0.4-3.5,0.7c-0.6,0.9-0.5,2,0.1,2.9l-3.3,5l1.4,0.9l3.3-5c1,0.2,2.1-0.1,2.7-1 C106.8,102.3,106.5,100.8,105.4,100z"/><path class="st3" d="M100.1,109.7l-1.6-1.1l3.3-5c-0.6-0.9-0.6-2.1,0-3c0.4-0.6,1-1,1.7-1.1c0.7-0.1,1.4,0,2,0.4l0,0 c1.2,0.8,1.5,2.4,0.7,3.7c-0.6,0.9-1.7,1.3-2.7,1.1L100.1,109.7z M98.9,108.6l1.1,0.8l3.3-5l0.1,0c1,0.2,2-0.2,2.5-1 c0.7-1.1,0.4-2.5-0.7-3.3l0,0c-0.5-0.3-1.1-0.5-1.8-0.3c-0.6,0.1-1.1,0.5-1.5,1c-0.5,0.8-0.5,1.9,0.1,2.7l0.1,0.1L98.9,108.6z"/><path class="st5" d="M95.4 116.5L99.9 109.8 98.5 108.8 94.5 115z"/><path class="st3" d="M95.4,116.8l-1.1-1.8l0.1-0.1l4.1-6.3l1.6,1.1L95.4,116.8z M94.7,115l0.8,1.3l4.3-6.5l-1.1-0.8L94.7,115z"/><path class="st5" d="M90.2 124.4L88.5 124 87.7 125.2 88.9 126.4z"/><path class="st3" d="M88.9,126.6l-1.4-1.5l0.9-1.3l2,0.5L88.9,126.6z M87.9,125.2l1,1l1.1-1.7l-1.4-0.3L87.9,125.2z"/><path class="st5" d="M90.4 121.2L90.3 121.4 89.5 122.5 90.7 123.7 91.7 122.3 91.3 121.4z"/><path class="st3" d="M90.7,123.9l-1.4-1.5l1-1.5l1,0.2l0.5,1L90.7,123.9z M89.7,122.4l1,1l0.8-1.2l-0.3-0.8l-0.7-0.2 L89.7,122.4z"/><path class="st5" d="M86.6 126.8L86.6 126.9 87.4 128.7 88.4 127.2z"/><path class="st3" d="M87.3,129l-0.9-2.2l0.1-0.2l2,0.5L87.3,129z M86.8,127l0.6,1.4l0.7-1.1L86.8,127z"/><path class="st5" d="M79.9,138.8c-0.1-0.2-0.3-0.6-0.5-1.1l-1.9,2.9l1.4,0.9l1.2-1.9C80.1,139.4,80,139.1,79.9,138.8z"/><path class="st3" d="M79,141.7l-1.6-1.1l2.1-3.2l0.1,0.2c0.2,0.4,0.4,0.8,0.5,1.1l0,0c0.1,0.3,0.2,0.5,0.2,0.9l0,0.1L79,141.7z M77.7,140.6l1.1,0.8l1.1-1.7c-0.1-0.3-0.1-0.6-0.2-0.8c-0.1-0.2-0.2-0.5-0.4-0.8L77.7,140.6z"/><path class="st5" d="M84.6,129.9l-4.1,6.2c0.1,0.5,0.3,1.1,0.6,2c0,0,0,0.1,0,0.1l4.9-7.4c-0.1-0.3-0.3-0.5-0.4-0.8l-0.4-1 L84.6,129.9z"/><path class="st3" d="M81,138.6l-0.1-0.4c0,0,0-0.1,0-0.1c-0.2-0.7-0.3-1.2-0.5-1.6l-0.1-0.4l4.8-7.3l0.5,1.2 c0.1,0.2,0.3,0.5,0.4,0.7l0,0.1L81,138.6z M80.7,136.1l0.1,0.3c0.1,0.4,0.3,0.9,0.4,1.4l4.6-7c-0.1-0.2-0.3-0.5-0.4-0.7 l-0.3-0.7L80.7,136.1z"/><path class="st5" d="M88.7,115.5l2.4-0.9c-1.6-3.9-1.5-9,2-7l0.1,0.5l2.8,2.1l0.2-0.3l-1.5-1.3l1.6,1.2l0.2-0.3l-2.2-3.2 c-0.4-0.5-0.6-0.7-1-0.8c-5.1-2.5-7.2,3.8-4.9,9.5L88.7,115.5z"/><path class="st3" d="M88.6,115.7l-0.3-0.8c-1.4-3.6-1.1-7.7,0.7-9.4c0.8-0.7,2.2-1.4,4.4-0.3c0.4,0.2,0.7,0.4,1.1,0.9l2.3,3.3 l-0.4,0.5l0,0l-0.3,0.4l-3-2.3l-0.1-0.5c-0.9-0.5-1.6-0.5-2-0.1c-1,0.9-0.9,4.1,0.3,7l0.1,0.1L88.6,115.7z M91.1,105 c-0.8,0-1.4,0.3-2,0.8c-1.8,1.6-2,5.5-0.6,9.1l0.2,0.5l2.1-0.8c-1.1-2.6-1.4-6-0.1-7.2c0.4-0.4,1.1-0.6,2.4,0.1l0.1,0l0.1,0.5 l2.7,2l0.1-0.1l-1.4-1.2l0.2-0.2l1.5,1.1l0.1-0.1l-2.1-3.1c-0.4-0.5-0.6-0.6-1-0.8C92.5,105.1,91.8,105,91.1,105z"/><path class="st6" d="M94.8 107.7L94 107.2 94.3 106.9z"/><path class="st3" d="M94.7,107.8l-0.9-0.6l0.6-0.5l0.5,0.9L94.7,107.8z M94.3,107.1L94.3,107.1L94.3,107.1L94.3,107.1z"/><path class="st5" d="M81.1,138.1c-0.7-2.4-0.9-3-1.2-4.2c-1.3-3.6,2.3-4.1,4.7-3.9l0.5-0.8l-0.6-1.3c-5.6-0.4-8.2,2.1-6.4,6.7 c0.2,0.6,1.4,3.4,1.7,4.2c0.5,1.5,0.5,3.1,0.6,3.2C80.5,141.9,81.7,140.2,81.1,138.1z"/><path class="st3" d="M80.4,142.3l-0.1-0.3c0,0,0-0.1,0-0.2c0-0.4-0.1-1.7-0.5-3c-0.4-0.8-1.6-3.6-1.7-4.3 c-0.8-2.1-0.8-3.8,0.1-5c1.1-1.5,3.3-2.1,6.4-1.9l0.1,0l0.6,1.4l-0.6,1l-0.1,0c-1-0.1-3.4-0.1-4.4,1.1 c-0.5,0.6-0.5,1.5-0.1,2.6c0.2,0.8,0.4,1.4,0.7,2.4c0.1,0.5,0.3,1,0.5,1.8c0.6,2.2-0.6,3.9-0.6,4L80.4,142.3z M83.4,127.9 c-2.4,0-4.1,0.6-5,1.8c-0.8,1.1-0.8,2.8-0.1,4.7c0.2,0.6,1.3,3.4,1.7,4.2c0.4,1.1,0.5,2.2,0.5,2.8c0.3-0.6,0.8-1.9,0.4-3.4 l0,0c-0.2-0.7-0.4-1.3-0.5-1.8c-0.3-1-0.5-1.6-0.7-2.4c-0.4-1.2-0.3-2.1,0.2-2.8c1-1.3,3.5-1.3,4.6-1.3l0.4-0.7l-0.5-1.1 C84.1,127.9,83.7,127.9,83.4,127.9z"/><path class="st5" d="M95,124.2c0,0-2.3-7.5-3.8-8.1c-0.7-0.2-1.7-0.2-2.4-0.3l1.1,2.4l3.5,3.6l-2-0.4l1.2,2.6 c0.6,2.5-0.6,3.8-3.8,3.8l-0.7,0l-0.6,0.9l0.5,1.1c0,0.1,0.1,0.2,0.1,0.2l1,0C92.9,130.6,96.2,128.6,95,124.2z"/><path class="st3" d="M90.1,130.3c-0.4,0-0.8,0-1.1-0.1l-1.1,0l0-0.1c0,0,0-0.1-0.1-0.1c0,0,0-0.1-0.1-0.1l-0.5-1.2l0.7-1l0.8,0 c1.7,0,2.8-0.4,3.4-1.1c0.4-0.6,0.5-1.4,0.3-2.5l-1.3-2.9l1.9,0.4l-3.2-3.3l-1.2-2.7l0.2,0c0.7,0,1.7,0.1,2.4,0.3 c1.6,0.7,3.8,7.9,3.9,8.2l0,0c0.5,1.9,0.3,3.4-0.7,4.5C93.5,129.7,92,130.3,90.1,130.3z M88.1,130l0.9,0 c2.3,0.3,4.2-0.3,5.3-1.5c0.9-1,1.1-2.5,0.6-4.3c-0.6-2.1-2.5-7.5-3.7-8c-0.6-0.1-1.4-0.2-2.1-0.3l1,2.2l3.8,4l-2.2-0.5 l1.1,2.4c0.3,1.2,0.2,2.1-0.3,2.8c-0.6,0.8-1.8,1.2-3.6,1.3l-0.6,0l-0.5,0.8l0.4,1.1C88,129.8,88,129.9,88.1,130 C88,129.9,88.1,129.9,88.1,130z"/><path class="st5" d="M97.3,118.9l-0.4,0c0.6,1,1.1,1.8,1.6,2.6c6.1-0.2,11.1-4.5,6.8-8.2c-0.3-0.3-0.6-0.5-1.2-0.6l-3.8-0.8 l-0.2,0.3l1.7,1l-1.8-0.9l-0.2,0.3l3.1,1.8l0.5-0.1C106.5,116.8,101.6,119,97.3,118.9z"/><path class="st3" d="M98.4,121.6l-1.7-2.8l0.7,0c3.1,0.1,6.3-1.1,6.8-2.5c0.2-0.6-0.1-1.2-0.9-1.8l-0.5,0.1l-3.3-1.9l0.3-0.4 l0,0l0.4-0.5l3.9,0.8c0.6,0.2,0.9,0.4,1.3,0.6c1.9,1.6,1.8,3.2,1.5,4.2C105.9,119.7,102.4,121.5,98.4,121.6L98.4,121.6z M97.2,119.1l1.4,2.3c3.8-0.1,7.2-1.9,8-4.1c0.5-1.3,0-2.6-1.4-3.8c-0.3-0.3-0.6-0.4-1.1-0.6l-3.7-0.7l-0.1,0.1l1.6,0.9 l-0.1,0.3l-1.7-0.8l-0.1,0.1l2.9,1.7l0.5-0.1l0.1,0c1.2,0.9,1.2,1.7,1,2.2c-0.6,1.6-4,2.7-6.9,2.7c-0.1,0-0.1,0-0.2,0 L97.2,119.1z"/><path class="st4" d="M86.6,126.8l-2-0.5c-0.3-0.2-0.7-0.4-1.1-0.7c0.2,0.4,0.4,0.8,0.6,1.2l0.5,1.2l0.8,1.9l0.1,0.1 c0.1,0.1,0.1,0.2,0.2,0.3c0,0,0,0,0,0c0.1,0.1,0.1,0.3,0.2,0.4c0,0,0,0,0,0c1.1,2.1,2.1,5.7-1.7,5.9c-0.8,0.1-1.4,0.2-2.4,0.3 l-0.8,1.2c0,0.2,0.1,0.3,0.1,0.5c1.2,0,2.7,0,3.1-0.1c5.1-0.1,6.3-3.5,3.6-8.7L86.6,126.8z"/><path class="st3" d="M81.4,138.8c-0.1,0-0.1,0-0.2,0l-0.1,0l0-0.1c0-0.1-0.1-0.3-0.1-0.4l0-0.1l0-0.1l0.8-1.2l0.1,0 c1-0.1,1.6-0.2,2.4-0.3c1.2-0.1,2-0.5,2.3-1.1c0.8-1.4-0.3-3.8-0.7-4.5l0,0c-0.1-0.1-0.1-0.2-0.2-0.4 c-0.1-0.1-0.1-0.3-0.2-0.4l-0.1-0.1l-1.4-3c-0.2-0.4-0.4-0.8-0.6-1.2l-0.2-0.4l0.4,0.2c0.4,0.2,0.7,0.4,1.1,0.7l2,0.5l1.3,3.1 c1.5,2.9,1.8,5.3,0.9,6.8c-0.8,1.3-2.4,2-4.6,2.1C83.9,138.8,82.5,138.8,81.4,138.8z M81.3,138.5 C81.4,138.5,81.4,138.5,81.3,138.5c1.3,0,2.6,0,2.9-0.1c2.2-0.1,3.7-0.7,4.4-1.9c0.9-1.5,0.6-3.8-0.9-6.6l-1.3-3l-1.9-0.5 c-0.2-0.1-0.4-0.3-0.7-0.4c0.1,0.3,0.3,0.5,0.4,0.8l1.4,3.2c0.1,0.1,0.1,0.2,0.2,0.3c0.1,0.1,0.2,0.3,0.2,0.4 c0.5,1,1.6,3.3,0.7,4.8c-0.4,0.8-1.3,1.2-2.6,1.3c-0.8,0.1-1.3,0.2-2.3,0.3l-0.7,1C81.3,138.3,81.3,138.4,81.3,138.5z"/><path class="st4" d="M85.5 130.1L85.5 130.1 85.5 130 85.4 129.7z"/><path class="st3" d="M85.8 130.2L85.4 130.2 85.2 129.8 85.5 129.7z"/><path class="st5" d="M79.4,137.7c0-0.1-0.1-0.2-0.1-0.3c-1.8,0.5-2.7,2-2.7,2c0.1,0,1-0.4,2.2-0.6L79.4,137.7z"/><path class="st3" d="M76.3,139.5l0.2-0.3c0-0.1,0.9-1.5,2.8-2l0.1,0l0.2,0.5l-0.8,1.2l-0.1,0c-0.9,0.2-1.7,0.4-2,0.5 c-0.1,0-0.2,0.1-0.2,0.1L76.3,139.5z M79.2,137.6c-1.1,0.3-1.9,1.1-2.3,1.5c0.4-0.1,1-0.3,1.7-0.4l0.6-0.9L79.2,137.6z"/><path class="st6" d="M102.5 112.8L103.3 113.3 103.4 112.9z"/><path class="st3" d="M103.4,113.5l-0.9-0.6l0.1-0.3l1.1,0.1L103.4,113.5z M103.1,113L103.1,113l0.1,0L103.1,113z"/><path class="st5" d="M136.3,117.1c1.2,0.1,1.8-0.2,1.9-1.1c-9.4-4.1-8.7,2.9-14.7-1.7c0.3,4.6,6.7,0.9,8.3,1.1 C134.6,115.5,136,116.2,136.3,117.1z"/><path class="st4" d="M136.6,117.3c-0.1,0-0.2,0-0.3,0l-0.1,0l0-0.1c-0.3-0.9-2-1.5-4.4-1.6c-0.4,0-1.2,0.2-2.1,0.5 c-1.8,0.6-4.1,1.2-5.4,0.3c-0.6-0.4-0.9-1.1-1-2l0-0.3l0.3,0.2c2.9,2.2,4.2,1.7,5.8,1.1c1.8-0.7,4-1.5,8.9,0.6l0.1,0l0,0.1 C138.2,117.1,137.4,117.3,136.6,117.3z M136.4,117c1.1,0,1.5-0.2,1.6-0.8c-4.7-2-6.8-1.2-8.6-0.6c-1.7,0.6-3,1.1-5.8-0.9 c0.1,0.7,0.4,1.2,0.8,1.5c1.2,0.8,3.4,0.1,5.1-0.4c1-0.3,1.7-0.5,2.2-0.5C134.3,115.3,136,115.9,136.4,117z"/><path class="st5" d="M91.3,121.4l2,0.4l-5.5-1.2l3.8,4.1l-5.4-1.2l3.8,4.1l-3.2-0.7l0,0l1.5,0.4l-0.3,0.5c0.1,0,0.1,0.1,0.2,0.1 l0.4,0c3.1-0.1,4.4-1.3,3.8-3.8L91.3,121.4z"/><path class="st3" d="M88.2,128l-0.3-0.2l0.3-0.4l-1.3-0.3l0.1-0.3l2.7,0.6l-3.8-4.1l5.5,1.2l-3.8-4.1l5.9,1.3l-0.1,0.3l-1.8-0.4 l1.1,2.4c0.3,1.2,0.2,2.1-0.3,2.8c-0.4,0.5-1,0.9-1.9,1.1l0.1,0.1l-0.2-0.1c-0.5,0.1-1,0.1-1.6,0.2L88.2,128z M88.3,127.7 L88.3,127.7l0.4,0c0.3,0,0.6,0,0.8,0l-1-0.2L88.3,127.7z M86.6,123.8l3.5,3.8c0.9-0.2,1.5-0.5,1.9-1c0.4-0.6,0.5-1.4,0.3-2.5 l-1.1-2.6l-2.9-0.6l3.8,4.1L86.6,123.8z"/><path class="st5" d="M84.6 126.3L90 127.6 86.2 123.5 91.6 124.7 87.8 120.6 93.3 121.8 89.4 117.7z"/><path class="st3" d="M90.5,127.9l-6.1-1.4l1.6-2.9l-0.2-0.3l0.4,0.1l1.5-2.7l-0.2-0.3l0.4,0.1l1.7-2.9l4.3,4.6l-5.5-1.2l3.8,4.1 l-5.4-1.2L90.5,127.9z M84.8,126.2l4.8,1.1l-3.4-3.6L84.8,126.2z M86.4,123.4l4.8,1.1l-3.4-3.6L86.4,123.4z M88.1,120.5l4.8,1.1 l-3.4-3.6L88.1,120.5z"/><path class="st5" d="M136.6,175.4c-2.5-6.9-6.7-10.7-10.4-13.9c-1.9-1.7-3.6-3.2-4.9-5c-0.4,0.5-0.8,0.8-1.2,1.2l-0.4,0.4 l-0.1-0.1c-0.7-0.9-0.7-2.8-0.7-2.9l0-0.1l0,0c1.4-1.6,7.9-9.1,8.8-9.9c-0.6-2.2-1.1-4.9-0.6-6.5c-0.5,1.1-0.2,2.9,0,4.7 c0.1,0.6,0.2,1.3,0.3,1.9l0,0.1l-0.1,0c-0.1,0.1-2.4,2.6-5,5.6c-11.9,13.4-13.2,14.8-13.4,14.8c-0.7-0.1-1.3-0.2-1.8-0.2 c-1.3,0-2.1,0.3-2.6,1c-0.8,1.1-0.3,2.7-0.3,2.8l0,0.1l-0.1,0.1c-0.1,0.1-0.2,0.1-0.3,0.1c-0.8,0-3.3-1.1-5.3-2.1 c-0.9-0.4-1.9-0.9-2.1-0.9c-0.2,0.3-1.1,1.2-2.2,1.4l-0.1,0l0,0c0,0-2.6-1.7-4.9-1.7c-0.3,0-0.5,0-0.8,0.1l-0.4,0.1l2.5-2.9 l-2.7,0.1c-0.1,0-0.1,0.1-0.1,0.1H88l0,0l-0.3,0l0.2-0.2c0,0,0,0,0,0l0-0.1l0.2,0c0.5-0.4,1.9-2.1,2.4-2.6c-0.1,0-0.3,0-0.5,0 c-0.8,0-1.9,0.1-2.2,0.1l0,0l-0.1,0h0l-0.4,0.1l0.3-0.2l0-0.1l0.1,0c0.2-0.2,1.1-1.1,3-3.3c0.3-0.4,1.2-0.4,2.6-0.4 c1,0,2.3,0,3.5-0.2l0.1,0l0.1,0.1c0.2,0.3,4,5.6,4.8,7c1.3-1.7,3.5-6.2,5.5-10.2c1.7-3.5,3.4-6.8,4.2-7.8 c0-10.2,1.9-18.2,5-20.5c3.1-2.2,7.8-2.3,8.3-2.3c0-0.1-0.1-0.5-0.2-0.8c-0.3-0.7-0.6-1.5-0.1-1.7l0.1,0l0.1,0.1 c2.1,1.7,4.2,2.5,6.3,2.5c2.7,0,5-1.5,6.6-2.8c-1.1-0.9-2.3-1.3-3.6-1.3c-0.8,0-1.7,0.2-2.7,0.5l-0.1,0L131,119 c-0.5-1.1-0.5-2.3-0.2-3.2l-0.1-0.1c-2.2-2.7-1.6-5.7-1.6-6c0.1-0.2,0.3-0.3,0.6-0.3c0.5-0.1,1-0.2,1.1-1 c-0.1,0-0.3,0.1-0.5,0.1c-0.3,0.1-0.6,0.1-0.7,0.1c-0.1,0-0.2,0-0.2-0.1c0,0-0.1-0.1-0.1-0.1c0-0.7,0.4-1.4,0.6-1.7 c0.7-0.5,1.7-1,2.9-1.6c1.5-0.8,4-2.1,3.9-2.5l0-0.1l0.1-0.1c0.5-0.3,6.5-3.9,6.5-3.9l0.1,0l0.1,0c2.8,1.2,6.5,2.6,10,2.6 c0.6,0,1.3,0,1.8-0.1h0.1l0.1,0.1c0.1,0.1,0,0.3-0.2,0.9c-0.2,0.4-0.5,1.3-0.4,1.4c0,0,0.1,0,0.1,0c0.8-0.4,1.5-0.6,2.2-0.6 c0.7,0,1.4,0.3,1.8,0.8c0.4,0.5,0.6,1.1,0.6,1.7c0,1.1-0.6,2.2-1.9,2.2c-0.3,0-0.5,0-0.8-0.1c0.2,0.1,0.3,0.2,0.5,0.3 c0.6,0.4,1.1,0.7,1.3,1.2c0.4,1.2,0.3,3,0.2,4.7c-0.2,2.1-0.3,4.2,0.6,5.2c0,0.1,0.1,0.2,0.1,0.4c0,0.1-0.1,0.1-0.2,0.1 c-0.4,0-1.2-0.4-2-0.8c-0.1,1.3,0.6,1.6,1,1.8c0.2,0.1,0.4,0.2,0.4,0.4c0.6,2.2-0.1,6.3-0.7,9.7c-0.3,1.8-0.6,3.4-0.5,4.1 l0,0.2l-0.2,0c-0.7,0-1.4-0.5-1.9-1c-0.2-0.2-0.5-0.4-0.6-0.4c0,0.2,0.3,1.1,0.9,2.7c0.2,0.4-0.1,0.6-0.7,1.1 c-1.1,1-3.7,3.2-7.9,10.1l-0.1,0.1l-0.1-0.1c-0.7-0.5-0.9-1.8-1-3c-0.4,1.2-0.8,3.2-1,4.1c0,0.2-0.1,0.4-0.1,0.5l0,0.1l-0.2,0 c-1.8,0-3.6-1.3-4.6-2.2c3.8,5.4,9.7,15.6,11.3,20.5l0.1,0.2l-0.2,0c-0.1,0-0.3,0-0.4,0c-3.3,0-5,2-6.8,4.1 c-1.7,2-3.5,4.2-6.9,4.5l-0.1,0L136.6,175.4z M131.9,113.9c0,0.7,0,2.5,0.9,2.6l0.3,0.1c1.5,0.3,2.6,0.5,3.4,0.5 c0.6,0,1-0.1,1.2-0.4c0.3-0.4,0.3-1.2-0.2-2.7c-0.7-1.9-1.1-2.7-2.2-2.7c-0.8,0-2,0.5-3.9,1.4c-0.5,0.7-0.5,1.5-0.6,2.6 c0.2-0.6,0.5-1.1,0.7-1.3l0.3-0.3L131.9,113.9z"/><path class="st3" d="M143.4,98.7c2.9,1.3,6.5,2.6,10,2.6c0.6,0,1.2,0,1.9-0.1c0,0,0,0,0,0c0.2,0-1.1,2.4-0.5,2.4 c0,0,0.1,0,0.2,0c0.8-0.4,1.5-0.6,2.1-0.6c2.9,0,2.9,4.4,0.4,4.4c-0.5,0-1.1-0.2-1.7-0.6c0.8,0.9,2.2,1.4,2.5,2.1 c1,2.7-0.9,8.2,0.8,10c0.1,0.2,0.1,0.2-0.1,0.2c-0.4,0-1.7-0.7-2.1-0.9c-0.2,2.3,1.4,2,1.4,2.4c0.9,3.4-1.4,11.9-1.2,13.8 c0,0,0,0,0,0c-1,0-2.2-1.4-2.5-1.4c-0.3,0-0.1,0.7,0.8,2.9c0.4,0.8-2.2,0.8-8.6,11c-0.8-0.6-0.9-2.2-1-3.5 c-0.6,1.2-1.3,4.7-1.4,5.2c0,0,0,0-0.1,0c-2.7,0-5.4-3-5.5-3c0,0,0,0.1,0.2,0.3c3.7,4.9,10,15.9,11.8,21.2c-0.1,0-0.3,0-0.4,0 c-6.7,0-6.9,8-13.7,8.5c-3.8-10.7-11.9-13.9-15.3-19.1c-0.6,0.7-1.1,1.1-1.6,1.6c-0.7-0.9-0.7-2.8-0.7-2.8s8.6-9.8,8.9-10 c-0.6-2.1-1.4-6.1-0.1-7.4c-1.9,1-0.8,4.6-0.5,7.4c-0.2,0.1-18,20.3-18.3,20.3c0,0,0,0,0,0c-0.7-0.1-1.3-0.2-1.8-0.2 c-4.3,0-3,4-3,4c0,0-0.1,0-0.2,0c-1.2,0-7-3-7.4-3c0,0,0,0,0,0c0,0-0.9,1.2-2.1,1.4c0,0-2.6-1.7-5-1.7c-0.3,0-0.5,0-0.8,0.1 l2.5-2.8l-3.1,0.1c0.5-0.4,2.6-2.8,2.6-2.8c-0.1-0.1-0.4-0.1-0.8-0.1c-0.8,0-2,0.1-2.3,0.2c0.1-0.1,1-0.9,3-3.3 c0.5-0.6,3.1-0.2,6.1-0.6c0.3,0.4,4.5,6.2,4.9,7.1c2.3-2.8,8.1-16.2,9.9-18.3c0-9.6,1.7-18.1,5-20.4c3.1-2.2,7.7-2.3,8.2-2.3 c0.5,0-0.9-2.2-0.3-2.5c2.4,1.9,4.5,2.6,6.4,2.6c2.9,0,5.2-1.6,6.9-3c-1-0.8-2.2-1.5-3.8-1.5c-0.8,0-1.7,0.1-2.7,0.5 c-1-2.1,0.2-4.6,0.6-5.1c0,0.3-0.2,2.6,1.1,2.8c1.6,0.3,2.9,0.5,3.8,0.5c1.6,0,1.9-0.8,1.2-3.3c-0.7-2-1.2-2.8-2.4-2.8 c-0.9,0-2.1,0.5-4,1.4c-0.6,0.8-0.6,1.8-0.6,3.2c-1.9-2.4-1.7-5-1.5-5.9c0.1-0.4,1.6,0,1.7-1.5c0,0,0,0-0.1,0 c-0.3,0-1,0.3-1.3,0.3c-0.1,0-0.1,0-0.1-0.1c0-0.7,0.4-1.3,0.6-1.6c1.7-1.2,7.1-3.5,6.9-4.3 C137.4,102.2,143.4,98.7,143.4,98.7 M87.8,160.6C87.7,160.6,87.7,160.6,87.8,160.6C87.7,160.6,87.7,160.6,87.8,160.6 M88.2,163.3C88.2,163.4,88.1,163.4,88.2,163.3c-0.1,0.1-0.1,0-0.1,0L88.2,163.3 M143.4,98.3l-0.1,0.1c-0.2,0.1-6,3.6-6.5,3.9 l-0.2,0.1l0.1,0.2c-0.2,0.4-2.5,1.6-3.9,2.4c-1.2,0.6-2.3,1.2-2.9,1.6l0,0l0,0c-0.2,0.3-0.6,1-0.6,1.8c0,0.1,0,0.2,0.1,0.3 c0.1,0.1,0.3,0.1,0.3,0.1c0.2,0,0.5-0.1,0.8-0.1c0.1,0,0.2-0.1,0.3-0.1c-0.1,0.5-0.5,0.6-1,0.7c-0.3,0.1-0.6,0.1-0.7,0.4l0,0 l0,0c-0.1,0.3-0.7,3.3,1.6,6.1l0,0c-0.2,1-0.2,2.2,0.3,3.3l0.1,0.2l0.2-0.1c0.9-0.3,1.8-0.5,2.6-0.5c1.3,0,2.3,0.4,3.4,1.2 c-1.6,1.3-3.8,2.7-6.4,2.7c-2,0-4.1-0.8-6.2-2.5l-0.1-0.1l-0.2,0.1c-0.6,0.3-0.3,1.1,0,1.9c0.1,0.2,0.2,0.4,0.2,0.6 c-1,0-5.3,0.3-8.2,2.3c-3.1,2.3-5.1,10.3-5.1,20.5c-0.8,1.1-2.4,4.2-4.1,7.8c-1.9,3.9-4.1,8.3-5.4,10c-1-1.7-4.5-6.5-4.7-6.8 l-0.1-0.1l-0.2,0c-1.3,0.2-2.5,0.2-3.5,0.2c-1.5,0-2.4,0-2.7,0.5c-1.9,2.2-2.8,3.1-3,3.3c-0.1,0-0.1,0.1-0.1,0.1l-0.6,0.6 l0.9-0.1c0,0,0,0,0,0h0.1l0,0c0.3,0,1.4-0.1,2.1-0.1c0.1,0,0.2,0,0.2,0c-0.7,0.8-1.7,2-2.2,2.3l0,0l-0.2,0l-0.1,0.2l-0.5,0.4 l0.6,0l0,0l0.2,0c0.1,0,0.1,0,0.2-0.1l2.3-0.1l-2,2.3l-0.6,0.6l0.8-0.2c0.2,0,0.5-0.1,0.7-0.1c2.3,0,4.8,1.6,4.8,1.7l0.1,0.1 l0.1,0c1-0.2,1.9-1,2.2-1.4c0.3,0.1,1.2,0.5,2,0.9c2.6,1.2,4.6,2.1,5.3,2.1c0.2,0,0.3,0,0.4-0.1l0.2-0.1l-0.1-0.2 c0,0-0.5-1.6,0.2-2.6c0.5-0.6,1.3-1,2.5-1c0.5,0,1.1,0.1,1.7,0.2l0,0h0c0.2,0,0.3,0,9.7-10.6c0,0.4,0.1,2,0.7,2.9l0.2,0.3 l0.2-0.2c0.1-0.1,0.2-0.2,0.3-0.3c0.3-0.3,0.7-0.6,1.1-1c1.2,1.7,2.9,3.2,4.8,4.9c3.7,3.3,7.9,7,10.3,13.9l0.1,0.2l0.2,0 c3.5-0.3,5.3-2.4,7-4.5c1.7-2.1,3.4-4,6.7-4c0.1,0,0.3,0,0.4,0l0.4,0l-0.1-0.4c-1.4-4-6.3-13.3-10.7-19.6 c1,0.8,2.5,1.6,3.9,1.6l0.1,0l0.2,0l0.1-0.2c0-0.1,0.1-0.2,0.1-0.5c0.2-0.8,0.5-2.3,0.8-3.4c0.1,1,0.4,2,1,2.4l0.3,0.2 l0.2-0.3c4.2-6.8,6.8-9.1,7.9-10c0.6-0.5,0.9-0.8,0.7-1.3c-0.5-1.3-0.8-2-0.8-2.3c0.1,0.1,0.2,0.2,0.3,0.2c0.6,0.4,1.3,1,2,1 l0,0l0.3,0l0-0.3c-0.1-0.6,0.2-2.2,0.5-4.1c0.6-3.4,1.3-7.6,0.7-9.8c0-0.3-0.3-0.4-0.5-0.5c-0.4-0.2-0.9-0.4-0.9-1.4 c1,0.5,1.6,0.8,1.9,0.8c0.2,0,0.3-0.1,0.4-0.2c0.1-0.1,0.1-0.3,0-0.5l0,0l0,0c-0.9-0.9-0.7-3-0.5-5.1c0.1-1.7,0.3-3.5-0.2-4.8 l0,0l0,0c-0.2-0.4-0.7-0.8-1.2-1.1c0.1,0,0.1,0,0.2,0c1,0,2.1-0.7,2.1-2.3c0-1.3-0.9-2.7-2.5-2.7c-0.6,0-1.4,0.2-2.1,0.6 c0.1-0.3,0.3-0.9,0.4-1.1c0.3-0.6,0.3-0.8,0.2-1c-0.1-0.1-0.2-0.1-0.3-0.1h0l0,0c-0.6,0.1-1.2,0.1-1.8,0.1 c-3.5,0-7.1-1.4-9.9-2.6L143.4,98.3L143.4,98.3z M131.7,112.6c1.8-0.8,3-1.3,3.8-1.3c0.9,0,1.4,0.6,2.1,2.6 c0.4,1.4,0.5,2.2,0.2,2.6c-0.2,0.2-0.5,0.3-1.1,0.3c-0.8,0-1.9-0.2-3.4-0.5l-0.3-0.1l0,0l0,0c-0.8-0.1-0.8-1.9-0.8-2.4l0,0 l0-0.8l-0.5,0.6c-0.1,0.1-0.2,0.3-0.4,0.6C131.2,113.6,131.3,113.1,131.7,112.6L131.7,112.6z"/><path class="st5" d="M105.3,131.8c-1.9-1.2-7.6-6.5-7.6-6.5s0.7-2.7,0.8-3.7c-0.2-0.3-0.4-0.6-0.6-0.9l-4.3-7l-5.6,2 c0,0,1.9,0.1,3.1,0.3c1.4,0.7,3.6,7.4,3.8,8.1l0,0c0.6,2.1,0.2,3.6-0.8,4.6c1.3,0.6,2,2.2,1.9,4.4c1,1.9,5.7,10.3,6.9,12.7 c0.3-0.9,0.6-1.7,0.9-2.8c1.3,0.2,6.3,0.9,7.6,1.1c0-5.9,0.9-10.5,1.4-12.3C111.5,131.9,106.5,131.7,105.3,131.8z"/><path class="st3" d="M102.9,146.2l-0.2-0.3c-0.6-1.2-2.1-3.9-3.5-6.5c-1.5-2.7-2.9-5.2-3.4-6.2l0,0l0,0c0.2-2-0.5-3.7-1.8-4.3 l-0.2-0.1l0.2-0.1c1-1,1.3-2.6,0.8-4.4l0-0.1c-1.1-3.6-2.7-7.6-3.7-8.1c-1.1-0.2-3-0.3-3-0.3l0-0.3l5.7-2.1l4.9,8.1l0,0 c-0.1,0.9-0.7,3.2-0.8,3.6c0.6,0.6,5.7,5.3,7.4,6.4c0.8,0,2.9,0,4.7,0.1c1.2,0,2.3,0,2.9,0h0.2l-0.1,0.2 c-0.6,2.3-1.4,6.9-1.4,12.2l0,0.2l-0.2,0c-0.9-0.1-3.5-0.5-5.5-0.8c-0.8-0.1-1.6-0.2-2-0.3L102.9,146.2z M96.2,133.2 c0.5,1,1.9,3.5,3.3,6.1c1.3,2.4,2.7,4.9,3.4,6.2l0.9-2.6l0.1,0c0.4,0.1,1.2,0.2,2.1,0.3c1.8,0.3,4.3,0.6,5.3,0.7 c0-5.1,0.8-9.6,1.4-12c-0.6,0-1.6,0-2.7,0c-1.9,0-4-0.1-4.8,0l0,0l0,0c-1.9-1.2-7.4-6.3-7.6-6.5l-0.1-0.1l0-0.1 c0,0,0.7-2.6,0.8-3.6l-4.7-7.8l-4.8,1.8c0.7,0,1.6,0.1,2.4,0.3c1.3,0.6,3.1,5.7,3.9,8l0,0l0.1,0.2c0.7,2.4,0,3.8-0.7,4.6 C95.6,129.4,96.3,131.1,96.2,133.2z"/><path class="st5" d="M87.8,120.6c-1.1-0.6-2.9-1.7-3.4-1.9c-1.7,0.8-1.7,2.1-1.6,2.9c0.5,0.3,2.3,1.4,3.4,1.9 c-0.2-0.1-2.5-1.4-3.4-1.9c-1.3,0.5-1.9,2.8-1.1,3.2c1.2,0.6,2.2,1.1,2.8,1.6c0.8-1.4,4.1-7.2,4.8-8.6c-4.5-3.6-5.3-0.4-5,0.9 C84.1,118.5,87.8,120.6,87.8,120.6z"/><path class="st3" d="M84.6,126.6l-0.1-0.1c-0.8-0.6-1.7-1.1-2.8-1.5c-0.3-0.2-0.5-0.6-0.4-1.2c0.1-0.9,0.6-1.9,1.4-2.2 c-0.2-1.3,0.4-2.2,1.6-2.9c-0.1-0.7,0-1.9,0.8-2.4c0.7-0.4,2-0.5,4.4,1.4l0.1,0.1l-0.1,0.1c-0.7,1.3-4,7.1-4.8,8.6L84.6,126.6z M82.8,121.7c-0.7,0.3-1.2,1.2-1.3,2c0,0.5,0.1,0.8,0.3,0.9c1,0.5,1.9,0.9,2.7,1.5c0.3-0.5,0.8-1.5,1.5-2.6 C85,123,83.3,122,82.8,121.7z M83,121.5c0.7,0.4,2.2,1.3,2.9,1.7l0.3,0.2c0.5-0.9,1-1.8,1.5-2.6l-1.6-0.9 c-0.6-0.3-1-0.6-1.3-0.7c-0.1-0.1-0.2-0.1-0.3-0.2C83.3,119.4,82.8,120.3,83,121.5z M84.6,118.6c0.5,0.3,2.2,1.2,3.2,1.8 c0.6-1.1,1.2-2.1,1.5-2.6c-2.3-1.8-3.4-1.7-4-1.3C84.6,116.9,84.4,117.9,84.6,118.6z"/><path class="st4" d="M137.8,105.6c0.2,0,0.5,0,0.7,0c-0.2,0.1-0.4,0.3-0.5,0.3C137.9,105.8,137.9,105.7,137.8,105.6z"/><path class="st3" d="M138,106.1l-0.4-0.7l1.4,0.1l-0.6,0.3c-0.1,0.1-0.3,0.2-0.4,0.2L138,106.1z"/><path class="st4" d="M135,105.6c0.9,0,1.6,0,1.7,0c0.1,0.2,0.4,0.7,0.4,0.7l-0.1,0c-0.3-0.2-0.4-0.5-0.4-0.8"/><path class="st3" d="M137,106.6L137,106.6c-0.4-0.2-0.5-0.5-0.6-0.8c-0.2,0-0.6,0-1.1,0c-0.1,0-0.2,0-0.4,0v-0.3 c0.5,0,0.9,0,1.2,0c0.3,0,0.4,0,0.5,0l0.1,0l0,0.1c0.1,0.2,0.4,0.7,0.4,0.7l0.1,0.1L137,106.6z"/></svg>