<svg id="Layer_1" data-name="Layer 1" xmlns="http://www.w3.org/2000/svg" width="220" height="39" viewBox="0 0 220 39"><defs><style>.cls-1{fill:#00338d;}.cls-2{fill:#00bee2;}.cls-3{fill:#ff7d00;}</style></defs><title>FR nettsted logo_bokmål</title><g id="NFR_logo_symbol"><path class="cls-1" d="M29.89,34.32,20.82,18.55a.42.42,0,0,0-.35-.19.39.39,0,0,0-.35.19L11.05,34.33a.41.41,0,0,0-.08.25.41.41,0,0,0,.38.42H29.59a.4.4,0,0,0,.38-.42A.45.45,0,0,0,29.89,34.32Z"/><path class="cls-2" d="M29.59,1H11.35a.41.41,0,0,0-.38.42.44.44,0,0,0,.08.25L20.1,17.43a.43.43,0,0,0,.37.21.39.39,0,0,0,.35-.21h0L29.89,1.68A.45.45,0,0,0,30,1.42.4.4,0,0,0,29.59,1Z"/><path class="cls-3" d="M28.16,6.78h-.07a.28.28,0,0,0-.28.28.28.28,0,0,0,.18.26c4.12,1.42,6.86,3.91,6.86,6.75,0,3.53-4.25,6.53-10.14,7.59a.26.26,0,0,0-.18.38c.49,1,1.09,2.08,1.68,3.11.74,1.29,1.48,2.51,2.2,3.65a.43.43,0,0,0,.36.2l.11,0c6.5-2,11-6.15,11-11C39.86,13,35,8.68,28.16,6.78Z"/><path class="cls-3" d="M12.7,29.11h.07a.28.28,0,0,0,.27-.28.27.27,0,0,0-.18-.26C8.74,27.15,6,24.67,6,21.83c0-3.54,4.25-6.54,10.13-7.59a.27.27,0,0,0,.21-.27.2.2,0,0,0,0-.11c-.49-1-1.09-2.09-1.68-3.11-.74-1.3-1.48-2.51-2.21-3.65a.4.4,0,0,0-.35-.2H12c-6.49,2-11,6.16-11,11C1,22.91,5.81,27.2,12.7,29.11Z"/></g><g id="NFR_logo_text"><path class="cls-1" d="M178.49,18c0-2.47-1-4.06-4.69-4.06a12,12,0,0,0-4.23.8l.25,2.2a7.31,7.31,0,0,1,3.57-1c1.89,0,2.57.77,2.57,2.27v.19c-4.32,0-7.14,1.56-7.14,4.93,0,1.91,1.31,3.07,3.36,3.07a4.19,4.19,0,0,0,4-2.49l0,0-.12,2.22,3.94-.06V25s-.94-.26-1.52-.35ZM176,21a3.26,3.26,0,0,1-3,3.41,1.5,1.5,0,0,1-1.7-1.47c0-1.66.93-2.76,4.7-2.76Z"/><path class="cls-1" d="M173.53,12.13a2.25,2.25,0,0,0,2.41-2.36,2.21,2.21,0,0,0-2.27-2.47,2.34,2.34,0,0,0-2.35,2.5A2.07,2.07,0,0,0,173.53,12.13Zm.1-3.74c.67,0,1,.53,1,1.47s-.43,1.18-1,1.18-1-.4-1-1.34S173.07,8.39,173.63,8.39Z"/><polygon class="cls-1" points="49.57 26.23 52.32 26.23 52.32 17.98 58.69 17.98 58.69 15.6 52.32 15.6 52.32 10.81 59.35 10.81 59.35 8.59 49.57 8.59 49.57 26.23"/><path class="cls-1" d="M66.18,14c-3.64,0-6,2.78-6,6.4,0,4.23,2.18,6.09,5.51,6.09,3.55,0,6-2.78,6-6.48C71.67,15.77,69.4,14,66.18,14Zm-.24,10.3c-2,0-3.09-1.44-3.09-4.16s1.53-4,3.12-4c2.07,0,3.07,1.46,3.07,4C69,23,67.62,24.28,65.94,24.28Z"/><path class="cls-1" d="M85.29,17.46c0-.92.7-1.5,2.12-1.5a8.4,8.4,0,0,1,2.35.34l.07-2.1A14.64,14.64,0,0,0,87.58,14c-3.26,0-5,1.64-5,3.72,0,4.16,5.27,2.71,5.27,5.12,0,1-1,1.6-2.37,1.6A9.6,9.6,0,0,1,82.92,24l-.07,2.2a14,14,0,0,0,2.53.24c3.22,0,5.22-1.64,5.22-3.89C90.6,18.59,85.29,19.78,85.29,17.46Z"/><path class="cls-1" d="M102.66,14.22H99.5L96,19.32l-.15.05V7C94.27,7,91.73,7,91.73,7V8.29a14,14,0,0,0,1.52.41V26.23h2.59V20.14l.15.05,4,6h3.28L98.45,19.7Z"/><path class="cls-1" d="M111.69,14a4.37,4.37,0,0,0-4.15,2.61l-.05,0a16,16,0,0,0,.19-2.35c-1.47-.07-4,.12-4,.12v1.24s.94.2,1.52.3V26.23h2.56v-5.8c0-2.39,1.35-4.3,3.14-4.3,1.4,0,1.81.87,1.81,2.37v7.73h2.56V17.82C115.29,15.69,114.42,14,111.69,14Z"/><path class="cls-1" d="M117.6,14.34v1.24s.89.2,1.47.3V26.23h2.56v-12C120.06,14.15,117.6,14.34,117.6,14.34Z"/><path class="cls-1" d="M120.23,8.38A1.62,1.62,0,1,0,121.9,10,1.64,1.64,0,0,0,120.23,8.38Z"/><path class="cls-1" d="M131.89,14a4.37,4.37,0,0,0-4.16,2.61l0,0a16,16,0,0,0,.19-2.35c-1.47-.07-3.93.12-3.93.12v1.24s.89.2,1.47.3V26.23H128v-5.8c0-2.39,1.35-4.3,3.14-4.3,1.4,0,1.81.87,1.81,2.37v7.73h2.57V17.82C135.49,15.69,134.62,14,131.89,14Z"/><path class="cls-1" d="M153.3,17.46c0-.92.7-1.5,2.12-1.5a8.45,8.45,0,0,1,2.35.34l.07-2.1a14.64,14.64,0,0,0-2.25-.22c-3.26,0-5,1.64-5,3.72,0,4.16,5.26,2.71,5.26,5.12,0,1-1,1.6-2.36,1.6a9.6,9.6,0,0,1-2.61-.39l-.08,2.2a14.23,14.23,0,0,0,2.54.24c3.22,0,5.22-1.64,5.22-3.89C158.61,18.59,153.3,19.78,153.3,17.46Z"/><path class="cls-1" d="M163.92,16.88h-.11a18.53,18.53,0,0,0,.24-2.66c-1.47-.07-4.1.12-4.1.12v1.24l1.64.3V26.23h2.56V21.35c0-3.6,1.53-5.27,3.93-4.83V14A3.9,3.9,0,0,0,163.92,16.88Z"/><path class="cls-1" d="M192.27,7c-1.57-.07-4.2,0-4.2,0V8.29s1.06.31,1.64.41v5.42c-.65,0-1.23-.09-1.81-.09-3.89,0-6.28,2.54-6.28,6.67,0,3.48,1.47,5.77,4.42,5.77A4.12,4.12,0,0,0,190,24H190l-.17,2.25,4.08-.06V25s-1.06-.26-1.64-.35Zm-2.56,13c0,2.05-1.06,4.33-3,4.33-1.64,0-2.45-1.48-2.45-3.89,0-3.24,1.46-4.44,3.51-4.44a9,9,0,0,1,1.91.22Z"/><path class="cls-1" d="M200.88,14c-3.5,0-5.48,2.71-5.48,6.33,0,4.23,2,6.16,5.8,6.16a10.91,10.91,0,0,0,4.15-.77l-.24-2.06a8.17,8.17,0,0,1-3.5.78c-2.39,0-3.63-.91-3.55-3.69h7.66c0-.46.07-.87.07-1.21C205.79,16.67,204.31,14,200.88,14Zm-2.78,4.94c.27-1.93.89-3,2.69-3,1.5,0,2.71.77,2.65,3Z"/><path class="cls-1" d="M214.71,16.23v-2h-3.16V9.17l-2.56.7v4.35h-2.3v2H209v6.54c0,2.69.77,3.68,3.33,3.68a12.85,12.85,0,0,0,2.39-.27V24.05a6,6,0,0,1-1.57.2c-1.2,0-1.57-.49-1.57-2.27V16.23Z"/><path class="cls-1" d="M143.93,24.89c-.62,0-1.79,0-2.06-.4a.58.58,0,0,1,0-.52,1.66,1.66,0,0,1,1.22-.91c2.87-.62,4.77-1.66,4.77-4.77a4.26,4.26,0,0,0-.93-2.44l2-.6.1,0v-.11l0-1.17v-.15h-.15l-3.86.31a7,7,0,0,0-1.92-.25c-2.23,0-4.83,1.15-4.83,4.38,0,2.21.95,3.68,2.74,4.27a2.79,2.79,0,0,0-1.6,2.17c0,1.7,2.6,2.31,4.36,2.31s3.58.42,3.58,2.4c0,1.81-1.85,2.45-3.58,2.45s-3.58-.43-3.58-2.48a2,2,0,0,1,.28-1l.06-.1.14-.21h-2.57l0,.11a4,4,0,0,0-.16,1.15c0,3,2.06,4.56,6,4.56,2.88,0,6-1.18,6-4.51C149.86,27.3,148.83,24.89,143.93,24.89Zm-3.41-6.56A2.38,2.38,0,0,1,143.15,16c1.72,0,2.6.81,2.6,2.41a2.36,2.36,0,0,1-2.62,2.45C141.4,20.81,140.52,20,140.52,18.33Z"/><path class="cls-1" d="M77.15,16.88h-.1a20.09,20.09,0,0,0,.24-2.66c-1.47-.07-4.1.12-4.1.12v1.24l1.63.3V26.23h2.56V21.35c0-3.6,1.54-5.27,3.93-4.83V14A3.91,3.91,0,0,0,77.15,16.88Z"/></g></svg>