<svg xmlns="http://www.w3.org/2000/svg" width="388.4" height="134.7" viewBox="0 0 388.4 134.7"><linearGradient id="a" gradientUnits="userSpaceOnUse" x1="270.162" y1="69.105" x2="360.047" y2="69.105"><stop offset="0" stop-color="#FFF" stop-opacity="0"/><stop offset="1" stop-color="#532575"/></linearGradient><path fill="url(#a)" d="M302.8 134.7c-.6 0-1.3-.2-1.9-.5-.2-.1-5.4-3.1-29.7-17.1-1-.6-1.3-1.8-.7-2.8.6-1 1.8-1.3 2.8-.7 7.8 4.5 28.3 16.4 29.5 17 6.4-3.7 51.1-29.5 53.3-30.8V76.1 38.3v-.1l-.1-.1c-7.7-4.4-52.5-30.3-53.1-30.7h-.1-.1c-.4.3-16.2 9.4-29.4 17-1 .6-2.2.2-2.8-.7-.6-1-.2-2.2.7-2.8 18.3-10.6 29-16.7 29.4-17 1.3-.8 2.9-.8 4.2 0 .7.4 45.4 26.2 53.1 30.7 1.4.8 2.1 2.1 2.1 3.6V99.8c0 1.4-.8 2.7-2 3.3-.5.3-45.9 26.5-53.5 30.9-.5.5-1.1.7-1.7.7z"/><linearGradient id="b" gradientUnits="userSpaceOnUse" x1="308.964" y1="50.546" x2="378.221" y2="50.546"><stop offset="0" stop-color="#FFF" stop-opacity="0"/><stop offset="1" stop-color="#939598"/></linearGradient><path fill="url(#b)" d="M334.1 101.1c-.5 0-1-.1-1.5-.4-.2-.1-4.1-2.4-22.9-13.2-.7-.4-1-1.4-.6-2.1.4-.7 1.4-1 2.1-.6 6 3.5 21.8 12.6 22.8 13.1 5-2.9 39.4-22.7 41.1-23.7V55.9 26.8v-.1l-.1-.1c-5.9-3.4-40.4-23.3-41-23.6-.3.2-12.5 7.2-22.7 13.1-.7.4-1.7.2-2.1-.6-.4-.7-.2-1.7.6-2.1C323.9 5.3 332.1.5 332.4.3c1-.6 2.2-.6 3.2 0 .5.3 35 20.2 41 23.6 1.1.6 1.6 1.6 1.6 2.8v47.5c0 1-.6 2.1-1.5 2.6-.4.2-35.3 20.4-41.2 23.8-.4.4-.9.5-1.4.5z"/><linearGradient id="c" gradientUnits="userSpaceOnUse" x1="334.409" y1="72.499" x2="388.421" y2="72.499"><stop offset="0" stop-color="#FFF" stop-opacity="0"/><stop offset="1" stop-color="#48BEA4"/></linearGradient><path fill="url(#c)" d="M354 111.9c-.4 0-.8-.1-1.1-.3-.1-.1-3.2-1.8-17.8-10.3-.6-.3-.8-1.1-.4-1.7.3-.6 1.1-.8 1.7-.4 4.7 2.7 17 9.8 17.7 10.2 3.9-2.2 30.7-17.7 32-18.5V76.7 54h-.1c-4.6-2.7-31.5-18.2-31.9-18.4-.3.2-9.8 5.6-17.7 10.2-.6.3-1.3.1-1.7-.4-.3-.6-.1-1.3.4-1.7 11-6.3 17.4-10.1 17.6-10.2.8-.5 1.7-.5 2.5 0 .4.2 27.3 15.7 31.9 18.4.8.5 1.3 1.3 1.3 2.2v37c0 .8-.5 1.6-1.2 2-.3.2-27.6 15.9-32.2 18.6-.2.1-.6.2-1 .2z"/><g fill="#532575"><path d="M41.2 42.6c0-.7.6-1.3 1.3-1.3H51c.7 0 1.4.6 1.4 1.3v52.9c0 .7-.6 1.3-1.4 1.3H34.5c-.7 0-1.6-.5-2-1.2 0 0-20.1-43.3-20.4-44-.4-.8-.7-1.1-.8-1.1-.2 0-.1 1.3-.1 1.3v43.8c0 .7-.6 1.3-1.3 1.3H1.4c-.7 0-1.4-.6-1.4-1.3v-53c0-.7.6-1.3 1.4-1.3h16.5c.7 0 1.6.5 2 1.2 0 0 20.2 43.2 20.6 44.1.4.8.6 1.2.7 1.2.2 0 .2-1.4.2-1.4V42.6zM116.6 60.1V77c0 17.7-7.1 21.2-24.5 21.2-17.8 0-24.3-3-24.3-21.2V60.1c0-17.2 6-20.3 24.3-20.3 16.5 0 24.5 2.5 24.5 20.3zm-37.8 0V77c0 11 2.2 12.1 13.2 12.1 10 0 13.5-1.3 13.5-12.1V60.1c.2-10.4-3.7-11.2-13.5-11.2-11.8.1-12.9 2.4-13.2 11.2zM143.4 62.6c0 .7.6 1.3 1.4 1.3h2.4c.7 0 1.7-.5 2.2-1l17.4-20.6c.5-.6 1.5-1 2.2-1h10.8c.7 0 1 .5.5 1l-21.5 25.1c-.5.5-.5 1.4 0 2l23.9 26.4c.5.6.3 1-.5 1H171c-.7 0-1.8-.4-2.2-1L149.4 74c-.5-.5-1.5-1-2.2-1h-2.4c-.7 0-1.4.6-1.4 1.3v21.1c0 .7-.6 1.3-1.4 1.3h-8.3c-.7 0-1.4-.6-1.4-1.3V42.6c0-.7.6-1.3 1.4-1.3h8.3c.7 0 1.4.6 1.4 1.3v20zM230.2 41.3h8.3c.8 0 1.4.7 1.4 1.4v39c0 15.5-10 16.5-24 16.5-13.5 0-23.8-1-23.8-16.5V42.6c0-.7.6-1.3 1.3-1.3h8.1c.9 0 1.6.6 1.6 1.4v39c0 5.7 2.1 7.4 12.8 7.4 10.2 0 12.9-1.4 12.9-7.4v-39c.1-.8.7-1.4 1.4-1.4zM278.2 95.4c0 .7-.6 1.3-1.4 1.3h-8.3c-.7 0-1.4-.6-1.4-1.3V51.7c0-.7-.6-1.3-1.4-1.3h-14.1c-.7 0-1.4-.6-1.4-1.3v-6.5c0-.7.6-1.3 1.4-1.3h42c.7 0 1.4.6 1.4 1.3v6.5c0 .7-.6 1.3-1.4 1.3h-14.1c-.7 0-1.4.6-1.4 1.3v43.7z"/></g><linearGradient id="d" gradientUnits="userSpaceOnUse" x1="270.162" y1="69.105" x2="360.047" y2="69.105"><stop offset="0" stop-color="#FFF" stop-opacity="0"/><stop offset="1" stop-color="#532575"/></linearGradient><path fill="url(#d)" d="M302.8 134.7c-.6 0-1.3-.2-1.9-.5-.2-.1-5.4-3.1-29.7-17.1-1-.6-1.3-1.8-.7-2.8.6-1 1.8-1.3 2.8-.7 7.8 4.5 28.3 16.4 29.5 17 6.4-3.7 51.1-29.5 53.3-30.8V76.1 38.3v-.1l-.1-.1c-7.7-4.4-52.5-30.3-53.1-30.7h-.1-.1c-.4.3-16.2 9.4-29.4 17-1 .6-2.2.2-2.8-.7-.6-1-.2-2.2.7-2.8 18.3-10.6 29-16.7 29.4-17 1.3-.8 2.9-.8 4.2 0 .7.4 45.4 26.2 53.1 30.7 1.4.8 2.1 2.1 2.1 3.6V99.8c0 1.4-.8 2.7-2 3.3-.5.3-45.9 26.5-53.5 30.9-.5.5-1.1.7-1.7.7z"/><linearGradient id="e" gradientUnits="userSpaceOnUse" x1="308.964" y1="50.546" x2="378.221" y2="50.546"><stop offset="0" stop-color="#FFF" stop-opacity="0"/><stop offset="1" stop-color="#939598"/></linearGradient><path fill="url(#e)" d="M334.1 101.1c-.5 0-1-.1-1.5-.4-.2-.1-4.1-2.4-22.9-13.2-.7-.4-1-1.4-.6-2.1.4-.7 1.4-1 2.1-.6 6 3.5 21.8 12.6 22.8 13.1 5-2.9 39.4-22.7 41.1-23.7V55.9 26.8v-.1l-.1-.1c-5.9-3.4-40.4-23.3-41-23.6-.3.2-12.5 7.2-22.7 13.1-.7.4-1.7.2-2.1-.6-.4-.7-.2-1.7.6-2.1C323.9 5.3 332.1.5 332.4.3c1-.6 2.2-.6 3.2 0 .5.3 35 20.2 41 23.6 1.1.6 1.6 1.6 1.6 2.8v47.5c0 1-.6 2.1-1.5 2.6-.4.2-35.3 20.4-41.2 23.8-.4.4-.9.5-1.4.5z"/><linearGradient id="f" gradientUnits="userSpaceOnUse" x1="334.409" y1="72.499" x2="388.421" y2="72.499"><stop offset="0" stop-color="#FFF" stop-opacity="0"/><stop offset="1" stop-color="#48BEA4"/></linearGradient><path fill="url(#f)" d="M354 111.9c-.4 0-.8-.1-1.1-.3-.1-.1-3.2-1.8-17.8-10.3-.6-.3-.8-1.1-.4-1.7.3-.6 1.1-.8 1.7-.4 4.7 2.7 17 9.8 17.7 10.2 3.9-2.2 30.7-17.7 32-18.5V76.7 54h-.1c-4.6-2.7-31.5-18.2-31.9-18.4-.3.2-9.8 5.6-17.7 10.2-.6.3-1.3.1-1.7-.4-.3-.6-.1-1.3.4-1.7 11-6.3 17.4-10.1 17.6-10.2.8-.5 1.7-.5 2.5 0 .4.2 27.3 15.7 31.9 18.4.8.5 1.3 1.3 1.3 2.2v37c0 .8-.5 1.6-1.2 2-.3.2-27.6 15.9-32.2 18.6-.2.1-.6.2-1 .2z"/><g fill="#532575"><path d="M41.2 42.6c0-.7.6-1.3 1.3-1.3H51c.7 0 1.4.6 1.4 1.3v52.9c0 .7-.6 1.3-1.4 1.3H34.5c-.7 0-1.6-.5-2-1.2 0 0-20.1-43.3-20.4-44-.4-.8-.7-1.1-.8-1.1-.2 0-.1 1.3-.1 1.3v43.8c0 .7-.6 1.3-1.3 1.3H1.4c-.7 0-1.4-.6-1.4-1.3v-53c0-.7.6-1.3 1.4-1.3h16.5c.7 0 1.6.5 2 1.2 0 0 20.2 43.2 20.6 44.1.4.8.6 1.2.7 1.2.2 0 .2-1.4.2-1.4V42.6zM116.6 60.1V77c0 17.7-7.1 21.2-24.5 21.2-17.8 0-24.3-3-24.3-21.2V60.1c0-17.2 6-20.3 24.3-20.3 16.5 0 24.5 2.5 24.5 20.3zm-37.8 0V77c0 11 2.2 12.1 13.2 12.1 10 0 13.5-1.3 13.5-12.1V60.1c.2-10.4-3.7-11.2-13.5-11.2-11.8.1-12.9 2.4-13.2 11.2zM143.4 62.6c0 .7.6 1.3 1.4 1.3h2.4c.7 0 1.7-.5 2.2-1l17.4-20.6c.5-.6 1.5-1 2.2-1h10.8c.7 0 1 .5.5 1l-21.5 25.1c-.5.5-.5 1.4 0 2l23.9 26.4c.5.6.3 1-.5 1H171c-.7 0-1.8-.4-2.2-1L149.4 74c-.5-.5-1.5-1-2.2-1h-2.4c-.7 0-1.4.6-1.4 1.3v21.1c0 .7-.6 1.3-1.4 1.3h-8.3c-.7 0-1.4-.6-1.4-1.3V42.6c0-.7.6-1.3 1.4-1.3h8.3c.7 0 1.4.6 1.4 1.3v20zM230.2 41.3h8.3c.8 0 1.4.7 1.4 1.4v39c0 15.5-10 16.5-24 16.5-13.5 0-23.8-1-23.8-16.5V42.6c0-.7.6-1.3 1.3-1.3h8.1c.9 0 1.6.6 1.6 1.4v39c0 5.7 2.1 7.4 12.8 7.4 10.2 0 12.9-1.4 12.9-7.4v-39c.1-.8.7-1.4 1.4-1.4zM278.2 95.4c0 .7-.6 1.3-1.4 1.3h-8.3c-.7 0-1.4-.6-1.4-1.3V51.7c0-.7-.6-1.3-1.4-1.3h-14.1c-.7 0-1.4-.6-1.4-1.3v-6.5c0-.7.6-1.3 1.4-1.3h42c.7 0 1.4.6 1.4 1.3v6.5c0 .7-.6 1.3-1.4 1.3h-14.1c-.7 0-1.4.6-1.4 1.3v43.7z"/></g></svg>