<svg viewBox="0 0 722 129" xmlns="http://www.w3.org/2000/svg"><title>Distriktssenteret</title><desc>Distriktssenteret logo</desc><g fill-rule="nonzero" fill="none"><path fill="#ffffff" d="M153.542.422h2.116V127.78h-2.116zM75.783 64.29c-.534 4.745-4.557 8.333-9.344 8.333-4.788 0-8.81-3.588-9.345-8.334v-.142c-.003-.054-.003-.11 0-.164.535-4.746 4.557-8.335 9.344-8.335 4.786 0 8.81 3.588 9.343 8.334.005.055.005.11 0 .164.003.047.003.094 0 .14zm56.745-.423c.07-5.23-2.892-7.576-6.817-7.224-2.218.39-4.346 1.184-6.275 2.345-3.046 1.537-6.373 2.44-9.78 2.65 0 0-15.114 1.36-19.84-2.744-.71-3.29-2.155-6.376-4.23-9.03-.54-5.77 9.238-9.38 9.238-9.38 3.244-.846 5.43-.61 7.78-2.957 1.42-1.2 2.26-2.947 2.304-4.802.045-1.856-.708-3.642-2.068-4.908-1.356-1.326-3.19-2.052-5.088-2.012-1.898.04-3.7.84-4.997 2.223-2.35 2.346-2.21 4.386-3.08 7.53 0 0-3.69 9.522-9.708 8.912h-.21c-2.553-1.637-5.393-2.775-8.37-3.354-4.02-4.69-2.656-18.928-2.656-18.928.23-3.286 1.158-6.484 2.728-9.382 1.173-1.844 1.972-3.9 2.35-6.05C74.16 2.955 71.88-.07 66.38.07c-5.5.14-7.733 2.815-7.263 6.615.382 2.15 1.18 4.205 2.35 6.05 1.578 2.896 2.516 6.095 2.75 9.383 0 0 1.34 14.072-2.655 18.927-3.03.618-5.91 1.813-8.486 3.52h-.212c-6.018.585-9.708-8.914-9.708-8.914-.87-3.142-.752-5.253-3.08-7.528-1.297-1.382-3.1-2.184-4.997-2.223-1.9-.04-3.733.684-5.088 2.01-1.36 1.267-2.113 3.053-2.068 4.91.045 1.854.883 3.602 2.303 4.8 2.35 2.347 4.537 2.16 7.78 2.98 0 0 9.803 3.54 9.24 9.382-2.075 2.653-3.52 5.74-4.232 9.03-4.7 4.08-19.816 2.744-19.816 2.744-3.407-.21-6.735-1.112-9.78-2.65-1.93-1.16-4.057-1.957-6.276-2.346C3.218 56.29.35 58.636.35 63.867c-.008.078-.008.156 0 .234-.008.08-.008.158 0 .236 0 5.254 2.868 7.552 6.794 7.224 2.22-.39 4.347-1.184 6.276-2.346 3.05-1.52 6.376-2.406 9.78-2.603 0 0 15.114-1.36 19.815 2.745.744 3.307 2.23 6.403 4.35 9.054.54 5.768-9.24 9.38-9.24 9.38-3.243.845-5.453.727-7.78 2.98-1.42 1.198-2.258 2.946-2.303 4.802-.045 1.855.708 3.64 2.068 4.907 1.355 1.326 3.19 2.05 5.087 2.01 1.897-.038 3.7-.84 4.997-2.222 2.35-2.345 2.21-4.386 3.08-7.505 0 0 3.69-9.523 9.708-8.936.07.012.14.012.21 0 2.534 1.587 5.34 2.693 8.276 3.26 4.02 4.69 2.656 18.928 2.656 18.928-.232 3.287-1.17 6.487-2.75 9.38-1.17 1.848-1.968 3.903-2.35 6.053-.354 3.8 1.926 6.825 7.427 6.66 5.5-.163 7.782-2.86 7.43-6.66-.38-2.15-1.18-4.207-2.352-6.052-1.572-2.896-2.502-6.095-2.726-9.38 0 0-1.364-14.074 2.656-18.93 2.976-.582 5.815-1.72 8.368-3.353.07.012.142.012.212 0 6.017-.587 9.708 8.936 9.708 8.936.87 3.142.752 5.253 3.08 7.504 1.297 1.382 3.1 2.184 4.997 2.224 1.898.04 3.73-.686 5.086-2.013 1.353-1.27 2.1-3.054 2.056-4.907-.045-1.853-.878-3.6-2.292-4.803-2.35-2.345-4.536-2.134-7.78-2.978 0 0-9.802-3.542-9.238-9.382 2.07-2.648 3.515-5.726 4.23-9.007 4.702-4.104 19.84-2.744 19.84-2.744 3.406.213 6.733 1.115 9.78 2.65 1.928 1.163 4.056 1.958 6.275 2.346 3.927.352 6.89-1.97 6.748-7.224V63.868zM194.585 90.488h2.986v21.11H194.56l.025-21.11zm3.902 10.367l6.84-10.46H208.618l-6.746 10.178 7.686 11.14h-3.455l-7.616-10.858zM217.74 112.066c-1.067.02-2.126-.187-3.104-.61-.854-.38-1.61-.95-2.21-1.665-.605-.738-1.052-1.592-1.316-2.51-.57-2.048-.57-4.212 0-6.26.257-.916.696-1.77 1.293-2.51.6-.72 1.356-1.298 2.21-1.69 1.986-.823 4.22-.823 6.205 0 .853.393 1.608.97 2.21 1.69.604.738 1.052 1.592 1.316 2.51.57 2.048.57 4.212 0 6.26-.264.918-.712 1.772-1.316 2.51-.6.716-1.356 1.285-2.21 1.666-.97.42-2.02.628-3.08.61zm0-2.346c1.194.078 2.34-.485 3.008-1.477.722-1.244 1.065-2.67.987-4.105.077-1.427-.266-2.846-.987-4.08-.65-1.02-1.8-1.61-3.01-1.55-1.19-.086-2.338.468-3.008 1.455-.708 1.24-1.043 2.657-.964 4.08-.08 1.433.255 2.858.964 4.106.63 1.044 1.788 1.657 3.01 1.594v-.024zM228.646 96.562H231.136c0 .297.064.688.19 1.173.023.406.023.814 0 1.22.18-.36.402-.698.658-1.01.272-.33.588-.622.94-.867.384-.26.803-.467 1.246-.61.51-.162 1.04-.24 1.575-.234 1.93-.287 3.782.866 4.372 2.72.212-.356.456-.694.73-1.008.283-.335.606-.634.962-.89.375-.263.787-.468 1.222-.61 1.88-.562 3.92-.09 5.36 1.242.884 1.276 1.307 2.815 1.198 4.363v9.664h-2.916v-8.795c.07-1.054-.14-2.106-.61-3.05-.442-.69-1.23-1.077-2.045-1.01-.91 0-1.77.405-2.352 1.103-.685.926-1.018 2.065-.94 3.214v8.56h-2.916v-9.03c.065-1.02-.138-2.037-.586-2.955-.398-.66-1.134-1.042-1.904-.985-.482 0-.957.112-1.387.328-.448.236-.835.574-1.13.986-.356.496-.62 1.052-.774 1.642-.204.765-.3 1.555-.28 2.346v7.74H228.833l-.188-15.246zM253.892 96.562H256.382c.014.125.014.25 0 .376v1.336c.01.14.01.282 0 .423.206-.327.443-.633.707-.915.29-.31.622-.577.986-.797.403-.246.838-.436 1.293-.563.615-.19 1.258-.278 1.903-.258.843-.007 1.68.144 2.468.445.756.293 1.426.768 1.952 1.383.58.687 1.01 1.486 1.27 2.346.33 1.094.487 2.233.47 3.376.13 2.232-.63 4.425-2.116 6.098-1.6 1.542-3.775 2.342-5.994 2.205-.446.028-.894.028-1.34 0-.397-.05-.79-.128-1.176-.236v7.037h-2.939l.025-22.258zm2.938 12.666c.373.14.758.242 1.152.305.508.036 1.02.036 1.528 0 .665.01 1.326-.1 1.95-.33.588-.222 1.113-.584 1.53-1.054.453-.52.796-1.128 1.01-1.784.265-.825.392-1.69.376-2.556.065-1.307-.236-2.607-.87-3.753-.624-.945-1.714-1.476-2.844-1.384-.483-.002-.96.086-1.41.258-.46.178-.876.45-1.223.8-.37.383-.66.838-.847 1.336-.23.614-.342 1.267-.33 1.923l-.023 6.238zM273.567 104.865c-.08 1.337.386 2.648 1.292 3.636 1.013.835 2.31 1.246 3.62 1.15 1.365.01 2.72-.237 3.996-.727.17.342.297.705.376 1.08.1.407.162.823.188 1.242-.688.283-1.406.487-2.14.61-.853.145-1.72.216-2.585.21-1.21.026-2.413-.173-3.55-.586-1.867-.677-3.3-2.202-3.855-4.105-.306-1.02-.456-2.08-.446-3.143-.01-1.062.132-2.12.423-3.143.26-.926.71-1.788 1.316-2.534.64-.745 1.445-1.33 2.35-1.712.995-.46 2.08-.69 3.174-.68.945-.017 1.883.166 2.75.54.758.332 1.433.83 1.975 1.453.55.646.966 1.396 1.222 2.205.286.903.43 1.844.424 2.79v1.643l-10.53.07zm7.522-2.18c.004-.532-.067-1.06-.213-1.572-.136-.475-.36-.92-.658-1.314-.297-.377-.675-.682-1.106-.892-.492-.232-1.03-.344-1.575-.33-1.044-.066-2.063.34-2.775 1.104-.7.87-1.11 1.935-1.175 3.05l7.5-.048zM288.376 98.908h-2.35l-.07-.4 5.076-5.675h.235v3.753h3.855c.083.37.122.747.118 1.126v1.196h-3.855v6.92c-.044.655-.044 1.313 0 1.97.04.394.16.777.352 1.125.152.26.395.45.682.54.35.1.715.147 1.08.14.313.026.627.026.94 0l.8-.164c.14.392.227.802.258 1.22v1.1c-.41.098-.826.17-1.246.212-.462.026-.925.026-1.387 0-1.2.076-2.39-.29-3.337-1.032-.885-.91-1.323-2.163-1.2-3.424l.048-8.608zM306.43 101.746c.075-.877-.254-1.74-.895-2.346-.763-.504-1.672-.743-2.585-.68-.646-.002-1.29.053-1.928.164-.596.105-1.184.246-1.763.423-.39-.72-.585-1.528-.565-2.346.722-.224 1.46-.388 2.21-.49.778-.12 1.563-.184 2.35-.19 1.61-.11 3.205.364 4.49 1.338 1.114 1.14 1.672 2.707 1.528 4.292v9.382c-.69.156-1.528.32-2.515.492-.994.17-2 .256-3.01.258-.876.012-1.75-.075-2.608-.258-.71-.152-1.382-.448-1.975-.867-.542-.387-.98-.903-1.27-1.502-.312-.692-.465-1.445-.446-2.204-.045-1.516.68-2.954 1.927-3.822.62-.434 1.312-.75 2.045-.94.767-.2 1.557-.3 2.35-.303H306.334l.095-.4zm0 2.86l-1.13-.116h-1.15c-.982-.07-1.96.167-2.8.68-.656.476-1.02 1.256-.962 2.064-.025.483.09.964.33 1.384.206.32.488.587.82.774.336.182.704.293 1.083.328h1.13c.47.025.94.025 1.41 0 .435-.036.867-.107 1.292-.21l-.023-4.903zM313.716 96.562H316.206c0 .297.064.696.19 1.197.023.413.023.828 0 1.242.214-.362.467-.7.752-1.01.315-.337.67-.636 1.057-.89.906-.597 1.97-.907 3.056-.89 1.45-.123 2.873.432 3.856 1.5.918 1.28 1.358 2.84 1.246 4.41v9.592h-2.916v-8.795c.077-1.075-.15-2.147-.657-3.097-.472-.665-1.255-1.038-2.07-.986-.54 0-1.074.103-1.574.305-.496.202-.938.515-1.293.915-.402.475-.706 1.025-.893 1.618-.237.76-.348 1.55-.33 2.346v7.67H313.717V96.563zM330.546 108.97c1.17.46 2.412.697 3.667.703.435.004.87-.043 1.293-.14.383-.086.75-.237 1.082-.446.29-.188.54-.436.728-.727.188-.285.286-.62.282-.962.02-.34-.054-.68-.21-.985-.148-.258-.348-.482-.59-.656-.26-.19-.545-.348-.845-.47l-1.058-.375-1.034-.375c-1.02-.33-1.958-.873-2.75-1.595-.58-.64-.884-1.483-.846-2.345-.05-1.23.48-2.41 1.434-3.19 1.225-.865 2.712-1.28 4.208-1.173.79-.01 1.576.06 2.35.21.654.127 1.3.3 1.928.517-.037.397-.108.79-.212 1.174-.1.378-.234.747-.4 1.102-.508-.183-1.025-.34-1.55-.47-.632-.146-1.28-.217-1.928-.21-.662-.012-1.32.116-1.928.375-.543.23-.882.775-.846 1.362-.01.303.063.603.212.867.14.24.334.45.564.61.256.173.532.315.823.42l.986.353 1.293.446c.46.152.907.34 1.34.562.412.207.786.485 1.103.82.313.344.56.74.73 1.173.423 1.195.364 2.507-.165 3.66-.295.595-.72 1.116-1.246 1.524-.593.445-1.262.78-1.975.984-.824.243-1.68.362-2.54.352-.888.02-1.777-.042-2.655-.188-.67-.12-1.33-.29-1.974-.516.044-.406.13-.807.258-1.196.157-.407.314-.805.47-1.196zM346.46 104.865c-.08 1.337.387 2.648 1.293 3.636 1.013.835 2.31 1.246 3.62 1.15 1.366.01 2.722-.237 3.996-.727.17.342.297.705.375 1.08.1.407.163.823.188 1.242-.687.283-1.405.487-2.14.61-.853.145-1.718.216-2.584.21-1.21.026-2.414-.173-3.55-.586-1.868-.677-3.3-2.202-3.856-4.105-.306-1.02-.457-2.08-.447-3.143-.01-1.062.133-2.12.424-3.143.26-.926.71-1.788 1.317-2.534.64-.745 1.445-1.33 2.35-1.712.987-.456 2.063-.688 3.15-.68.945-.017 1.883.166 2.75.54.76.332 1.433.83 1.975 1.453.55.646.967 1.396 1.223 2.205.286.903.428 1.844.423 2.79v1.643l-10.508.07zm7.522-2.18c.005-.532-.066-1.06-.21-1.572-.138-.475-.36-.92-.66-1.314-.295-.377-.673-.682-1.104-.892-.492-.232-1.032-.344-1.575-.33-1.044-.066-2.062.34-2.774 1.104-.702.87-1.113 1.935-1.176 3.05l7.498-.048zM360.447 108.97c1.168.46 2.41.697 3.667.703.435.004.868-.043 1.292-.14.384-.086.75-.237 1.082-.446.29-.188.54-.436.728-.727.19-.285.287-.62.283-.962.017-.34-.056-.68-.213-.985-.146-.258-.347-.482-.588-.656-.262-.19-.547-.348-.847-.47l-1.058-.375-1.034-.375c-1.02-.33-1.958-.873-2.75-1.595-.58-.64-.883-1.483-.845-2.345-.05-1.23.48-2.41 1.433-3.19 1.225-.865 2.712-1.28 4.208-1.173.79-.01 1.577.06 2.35.21.655.127 1.3.3 1.928.517-.037.397-.108.79-.21 1.174-.102.378-.236.747-.4 1.102-.51-.183-1.027-.34-1.552-.47-.632-.146-1.28-.217-1.928-.21-.662-.012-1.32.116-1.927.375-.543.23-.883.775-.847 1.362-.01.303.064.603.212.867.14.24.334.45.564.61.256.173.532.315.823.42l.986.353 1.293.446c.46.152.907.34 1.34.562.412.207.786.485 1.104.82.313.344.56.74.728 1.173.424 1.195.365 2.507-.164 3.66-.294.595-.72 1.116-1.246 1.524-.592.445-1.262.78-1.975.984-.823.243-1.68.362-2.538.352-.836.01-1.67-.052-2.493-.188-.67-.12-1.33-.29-1.975-.516.003-.378.043-.755.118-1.126.14-.453.29-.875.447-1.266zM376.455 104.865c-.08 1.337.386 2.648 1.292 3.636 1.014.835 2.31 1.246 3.62 1.15 1.366.01 2.722-.237 3.997-.727.17.342.297.705.376 1.08.1.407.162.823.188 1.242-.688.283-1.406.487-2.14.61-.854.145-1.72.216-2.585.21-1.21.026-2.413-.173-3.55-.586-1.867-.677-3.3-2.202-3.855-4.105-.306-1.02-.456-2.08-.446-3.143-.01-1.062.132-2.12.423-3.143.26-.926.71-1.788 1.316-2.534.64-.745 1.446-1.33 2.352-1.712.998-.443 2.08-.66 3.173-.633.945-.017 1.883.167 2.75.54.758.333 1.433.83 1.975 1.454.55.646.966 1.396 1.222 2.205.286.902.43 1.843.423 2.79v1.642l-10.53.023zm7.522-2.18c.005-.532-.067-1.06-.212-1.572-.136-.475-.36-.92-.658-1.314-.296-.377-.674-.682-1.105-.892-.492-.232-1.03-.344-1.575-.33-1.044-.066-2.062.34-2.774 1.104-.7.87-1.112 1.935-1.175 3.05l7.5-.048zM390.558 96.562h2.491c0 .297.063.696.188 1.197.023.413.023.828 0 1.242.215-.362.467-.7.752-1.01.316-.337.67-.636 1.058-.89.906-.597 1.97-.907 3.056-.89 1.45-.123 2.872.432 3.855 1.5.916 1.28 1.357 2.84 1.245 4.41v9.592h-2.916v-8.795c.075-1.075-.153-2.147-.658-3.097-.472-.665-1.254-1.038-2.07-.986-.538 0-1.073.103-1.574.305-.495.202-.938.515-1.292.915-.403.475-.706 1.025-.894 1.618-.236.76-.347 1.55-.33 2.346v7.67h-2.915V96.563zM408.282 98.908h-2.35l-.118-.422 5.078-5.676h.235v3.752h3.855c.082.37.122.748.117 1.126v1.196h-3.856v6.92c-.044.655-.044 1.314 0 1.97.04.395.16.778.353 1.125.15.258.395.45.68.54.353.1.717.146 1.083.14.313.025.627.025.94 0l.8-.165c.14.394.226.804.258 1.22v1.102c-.41.098-.827.168-1.246.212-.462.024-.925.024-1.387 0-1.202.074-2.39-.293-3.338-1.033-.884-.91-1.323-2.163-1.2-3.425l.095-8.584zM420.506 104.865c-.08 1.337.387 2.648 1.293 3.636 1.012.835 2.31 1.246 3.62 1.15 1.365.01 2.72-.237 3.995-.727.17.342.298.705.376 1.08.1.407.163.823.19 1.242-.69.283-1.407.487-2.14.61-.854.145-1.72.216-2.586.21-1.21.026-2.413-.173-3.55-.586-1.865-.68-3.296-2.204-3.855-4.105-.307-1.02-.457-2.08-.447-3.143-.01-1.062.132-2.12.423-3.143.26-.926.71-1.788 1.316-2.534.607-.73 1.37-1.316 2.233-1.712.998-.443 2.082-.66 3.174-.633.944-.017 1.88.167 2.75.54.757.333 1.43.83 1.974 1.454.55.646.967 1.396 1.222 2.205.286.9.43 1.843.423 2.79v1.642l-10.414.023zm7.522-2.18c.005-.532-.066-1.06-.212-1.572-.136-.475-.36-.92-.658-1.314-.296-.377-.674-.682-1.105-.892-.492-.232-1.03-.344-1.575-.33-1.043-.066-2.062.34-2.773 1.104-.7.87-1.112 1.935-1.176 3.05l7.498-.048zM434.774 96.562h2.468c0 .297.063.688.188 1.173.024.406.024.814 0 1.22.43-.68.99-1.27 1.646-1.736.77-.514 1.684-.77 2.61-.728h1.01c.01.187.01.375 0 .563v.61c.013.242.013.485 0 .727v.727h-.894c-.516-.007-1.03.064-1.527.21-.487.15-.93.417-1.293.774-.42.43-.733.953-.917 1.525-.246.81-.358 1.66-.33 2.508v7.53H434.8l-.024-15.106zM453.814 98.86h-2.49c-.088-.376-.127-.762-.12-1.148-.004-.387.035-.772.12-1.15h2.49v-1.055c-.11-1.552.398-3.085 1.41-4.27 1.102-1.03 2.584-1.557 4.09-1.453.43-.027.863-.027 1.294 0 .357.044.71.114 1.058.21-.032.426-.087.85-.165 1.268-.072.372-.166.74-.28 1.102l-.706-.14c-.32-.03-.643-.03-.964 0-.396-.003-.79.044-1.175.14-.337.08-.646.25-.894.493-.276.29-.478.645-.586 1.032-.153.548-.225 1.117-.212 1.687v.985h3.88c.03.406.03.814 0 1.22.03.367.03.736 0 1.102h-3.88v12.853h-2.916l.048-12.876zM469.305 112.066c-1.066.02-2.124-.187-3.103-.61-.853-.38-1.61-.95-2.21-1.665-.604-.738-1.052-1.592-1.316-2.51-.57-2.048-.57-4.212 0-6.26.264-.918.712-1.772 1.317-2.51.6-.72 1.356-1.297 2.21-1.69 1.986-.823 4.22-.823 6.205 0 .854.392 1.61.97 2.21 1.69.604.738 1.052 1.592 1.316 2.51.57 2.048.57 4.212 0 6.26-.264.918-.712 1.772-1.316 2.51-.6.716-1.356 1.285-2.21 1.666-.978.423-2.037.63-3.103.61zm0-2.346c1.195.078 2.342-.485 3.01-1.477.72-1.244 1.064-2.67.986-4.105.08-1.427-.264-2.846-.986-4.08-.65-1.02-1.8-1.61-3.01-1.55-1.19-.086-2.338.468-3.008 1.455-.708 1.24-1.043 2.657-.963 4.08-.08 1.433.254 2.858.963 4.106.632 1.044 1.788 1.657 3.01 1.594v-.024zM480.212 96.562h2.468c0 .297.063.688.188 1.173.024.406.024.814 0 1.22.43-.68.99-1.27 1.646-1.736.77-.514 1.684-.77 2.61-.728H488.04c.01.187.01.375 0 .563v.61c.014.242.014.485 0 .727v.727h-.894c-.516-.007-1.03.064-1.527.21-.488.15-.93.417-1.294.774-.42.43-.733.953-.917 1.525-.247.81-.36 1.66-.33 2.508v7.53H480.142l.07-15.106zM507.973 90.065H510.866v21.11c-.828.23-1.668.41-2.517.54-1.028.15-2.065.22-3.103.21-1.025.005-2.045-.13-3.033-.4-1.89-.486-3.44-1.833-4.184-3.634-.44-1.135-.65-2.347-.61-3.564-.017-1.133.166-2.26.54-3.33.336-.957.864-1.835 1.55-2.58.66-.715 1.46-1.282 2.352-1.666 1.006-.41 2.086-.61 3.173-.586.52 0 1.038.04 1.55.117.47.07.934.17 1.388.306v-6.52zm0 9.054c-.41-.162-.835-.28-1.27-.353-.488-.08-.984-.12-1.48-.117-.722-.014-1.438.138-2.092.445-.575.286-1.074.704-1.456 1.22-.404.54-.7 1.154-.87 1.806-.2.767-.294 1.556-.282 2.347-.122 1.463.362 2.912 1.34 4.01.98.85 2.252 1.288 3.55 1.22.47.026.94.026 1.41 0 .39-.037.774-.108 1.15-.21V99.118zM516.46 98.86h-1.928c-.014-.18-.014-.36 0-.54v-1.218c-.014-.18-.014-.36 0-.54h4.7v15.152h-2.868l.095-12.853zm-.66-5.628c-.017-.258-.017-.516 0-.774V91.005c-.017-.242-.017-.485 0-.727h3.152c.016.242.016.485 0 .727v1.455c.016.258.016.516 0 .774H515.8zM523.817 108.97c1.168.46 2.41.697 3.667.703.435.004.87-.043 1.293-.14.383-.086.748-.237 1.08-.446.292-.188.54-.436.73-.727.188-.285.286-.62.282-.962.017-.34-.056-.68-.213-.985-.146-.258-.347-.482-.588-.656-.27-.193-.562-.35-.87-.47l-1.058-.375-1.034-.375c-1.02-.33-1.96-.873-2.75-1.595-.58-.64-.885-1.483-.847-2.345-.05-1.23.482-2.41 1.435-3.19 1.24-.91 2.765-1.352 4.302-1.243.788-.01 1.576.06 2.35.21.654.127 1.298.3 1.928.517-.038.397-.11.79-.212 1.173-.1.38-.234.748-.4 1.103-.508-.184-1.026-.34-1.55-.47-.695-.154-1.406-.217-2.116-.187-.662-.013-1.32.115-1.928.374-.544.228-.883.774-.847 1.36-.01.304.063.604.212.87.14.24.334.448.564.608.254.174.53.316.82.423l.99.35 1.292.447c.46.154.908.342 1.34.563.413.207.787.485 1.104.82.314.343.56.74.73 1.174.422 1.193.363 2.505-.166 3.657-.294.596-.72 1.117-1.245 1.525-.593.446-1.262.78-1.975.985-.824.243-1.68.362-2.54.352-.833.01-1.667-.053-2.49-.19-.67-.118-1.332-.29-1.975-.515.044-.406.13-.807.26-1.196.116-.353.257-.75.422-1.15zM538.11 98.908h-2.352l-.117-.422 5.078-5.676h.235v3.752h3.855c.082.37.122.748.118 1.126v1.196H541v6.92c-.044.655-.044 1.314 0 1.97.04.395.16.778.353 1.125.15.258.394.45.68.54.353.1.717.146 1.083.14.312.025.627.025.94 0l.8-.165c.14.394.226.804.258 1.22v1.102c-.41.098-.827.168-1.246.212-.462.024-.925.024-1.387 0-1.2.074-2.39-.293-3.337-1.033-.884-.91-1.323-2.163-1.2-3.425l.166-8.584zM548.052 96.562h2.468c0 .297.063.688.188 1.173.024.406.024.814 0 1.22.43-.68.99-1.27 1.646-1.736.77-.514 1.684-.77 2.61-.728H555.88c.01.187.01.375 0 .563v.61c.013.242.013.485 0 .727v.727h-.776c-.517-.007-1.032.064-1.528.21-.487.15-.93.416-1.293.774-.42.43-.733.953-.917 1.525-.246.81-.357 1.66-.33 2.508v7.53H548.1l-.048-15.106zM560.04 98.86h-1.927c-.014-.18-.014-.36 0-.54v-1.218c-.014-.18-.014-.36 0-.54h4.7v15.152h-2.868l.095-12.853zm-.658-5.628c-.018-.258-.018-.516 0-.774V91.005c-.018-.242-.018-.485 0-.727h3.151c.016.242.016.485 0 .727v1.455c.016.258.016.516 0 .774h-3.151zM567.54 90.065h2.915v21.65H567.537v-21.65zm3.736 13.792l4.82-7.295H579.34l-4.82 7.037 5.642 8.067H576.918l-5.642-7.81zM583.43 98.908h-2.35l-.12-.4 5.078-5.675h.236v3.753h3.855c.08.37.12.747.116 1.126v1.196h-3.855v6.92c-.043.655-.043 1.313 0 1.97.04.394.16.778.354 1.125.15.26.394.45.68.54.353.1.717.147 1.083.14.313.026.627.026.94 0l.8-.164c.14.392.226.802.258 1.22v1.1c-.41.098-.827.17-1.246.212-.463.026-.926.026-1.388 0-1.202.076-2.39-.29-3.338-1.032-.884-.91-1.323-2.163-1.2-3.424l.095-8.608zM593.208 108.97c1.168.46 2.412.697 3.667.703.435.004.87-.043 1.293-.14.383-.086.75-.237 1.08-.446.293-.188.54-.436.73-.727.188-.285.286-.62.282-.962.018-.34-.055-.68-.212-.985-.146-.258-.346-.482-.587-.656-.268-.193-.56-.35-.87-.47l-1.057-.375-1.034-.375c-1.022-.33-1.96-.873-2.75-1.595-.582-.64-.886-1.483-.848-2.345-.05-1.23.48-2.41 1.434-3.19 1.225-.865 2.712-1.28 4.208-1.173.79-.01 1.576.06 2.35.21.654.127 1.3.3 1.928.517-.038.397-.11.79-.21 1.174-.103.378-.236.747-.4 1.102-.51-.183-1.027-.34-1.553-.47-.632-.146-1.28-.217-1.928-.21-.662-.012-1.32.116-1.928.375-.548.224-.89.773-.846 1.362-.01.303.063.603.212.867.142.24.334.45.564.61.256.173.532.315.823.42l.987.353 1.293.446c.46.152.908.34 1.34.562.413.207.787.485 1.104.82.315.343.562.74.73 1.173.424 1.195.365 2.507-.164 3.66-.295.595-.72 1.116-1.246 1.524-.592.445-1.262.78-1.975.984-.824.243-1.68.362-2.54.352-.833.01-1.667-.052-2.49-.188-.67-.12-1.33-.29-1.975-.516-.005-.377.027-.754.094-1.126.188-.47.33-.867.494-1.266zM606.818 96.562h2.916v8.303c-.022.79.065 1.58.258 2.346.138.545.413 1.046.8 1.455.358.35.804.602 1.292.727.576.146 1.168.217 1.763.21.873.02 1.744-.09 2.585-.327V96.562H619.3v14.683c-.69.203-1.512.39-2.468.563-.977.176-1.97.262-2.962.258-.915 0-1.828-.086-2.727-.258-.855-.136-1.663-.482-2.35-1.01-.69-.57-1.218-1.316-1.528-2.157-.417-1.172-.608-2.413-.564-3.657l.118-8.42zM624.472 98.908h-2.35l-.12-.422 5.08-5.676h.234v3.752h3.855c.083.37.123.748.118 1.126v1.196h-3.855v6.92c-.043.655-.043 1.314 0 1.97.04.395.16.778.353 1.125.15.258.395.45.682.54.35.1.716.146 1.08.14.314.025.628.025.94 0l.8-.165c.14.394.228.804.26 1.22v1.102c-.41.098-.827.168-1.247.212-.46.024-.924.024-1.386 0-1.202.074-2.39-.293-3.338-1.033-.884-.91-1.322-2.163-1.198-3.425l.094-8.584zM632.675 96.562h3.292l4.137 12.478 4.16-12.478h3.081l-5.923 15.152h-2.916M651.104 98.86h-1.974c-.014-.18-.014-.36 0-.54v-1.218c-.014-.18-.014-.36 0-.54h4.7v15.152h-2.868l.142-12.853zm-.658-5.628c-.017-.258-.017-.516 0-.774V91.005c-.018-.242-.018-.485 0-.727H653.596c.016.242.016.485 0 .727v1.455c.016.258.016.516 0 .774h-3.151zM658.532 90.065h3.08v21.65h-2.916l-.164-21.65zm3.738 13.792l4.82-7.295h3.243l-4.82 7.037 5.642 8.067h-3.243l-5.642-7.81zM673.295 90.065h2.916v17.075c-.016.435.03.87.14 1.29.072.272.21.52.4.727.16.166.363.28.588.33.242.025.486.025.728 0H679.265c.19.766.276 1.555.26 2.344-.328.108-.668.17-1.012.19h-1.105c-.54.002-1.078-.07-1.598-.212-.475-.132-.916-.364-1.293-.68-.398-.343-.704-.778-.893-1.267-.235-.63-.347-1.297-.33-1.97V90.066zM683.05 98.86h-1.928c-.013-.18-.013-.36 0-.54v-1.218c-.013-.18-.013-.36 0-.54h4.702v15.152H682.956l.094-12.853zm-.658-5.628c-.018-.258-.018-.516 0-.774V91.005c-.018-.242-.018-.485 0-.727H685.542c.016.242.016.485 0 .727v1.455c.016.258.016.516 0 .774H682.39zM690.69 96.562H693.18c0 .297.064.696.19 1.197.022.413.022.828 0 1.242.214-.362.466-.7.75-1.01.317-.337.672-.636 1.06-.89.905-.597 1.97-.907 3.055-.89 1.448-.123 2.872.432 3.855 1.5.917 1.28 1.358 2.84 1.246 4.41v9.592h-2.916v-8.795c.076-1.075-.152-2.147-.657-3.097-.472-.665-1.255-1.038-2.07-.986-.538 0-1.073.103-1.574.305-.496.202-.94.515-1.294.915-.402.475-.705 1.025-.893 1.618-.236.76-.347 1.55-.33 2.346v7.67h-2.891l-.023-15.128zM715.912 109.767c1.362-.08 2.71.318 3.808 1.126.807.755 1.238 1.83 1.175 2.932.016.77-.196 1.53-.61 2.18-.447.666-1.033 1.226-1.717 1.643-.8.488-1.673.844-2.586 1.055-1.062.256-2.15.382-3.244.376-1.622.104-3.244-.22-4.7-.94-1.056-.61-1.675-1.763-1.6-2.978-.005-.77.224-1.522.66-2.158.43-.64 1.01-1.163 1.69-1.525-.388-.254-.723-.58-.986-.962-.285-.42-.425-.923-.4-1.43-.018-.668.153-1.326.494-1.9.345-.55.792-1.027 1.316-1.408-.656-.455-1.196-1.057-1.574-1.76-.387-.72-.59-1.526-.588-2.345-.002-.717.142-1.427.423-2.087.274-.642.683-1.218 1.2-1.69.56-.5 1.215-.882 1.926-1.125.846-.29 1.737-.433 2.632-.422.8-.005 1.594.122 2.35.377.668.228 1.295.56 1.858.985.48-.355 1.022-.617 1.598-.774.717-.21 1.462-.314 2.21-.305.082.41.12.826.117 1.243v1.384h-2.656c.215.342.382.713.493 1.102.13.442.192.9.188 1.36.01.75-.142 1.495-.446 2.182-.285.64-.71 1.21-1.246 1.665-.567.472-1.222.83-1.927 1.054-.76.245-1.552.37-2.35.376-.737.01-1.472-.076-2.186-.258-.317.19-.596.436-.823.727-.254.29-.396.666-.398 1.054-.008.35.128.69.376.938.504.338 1.112.487 1.716.423l3.808-.118zm-3.996 2.346c-.738-.077-1.472.18-1.998.703-.44.488-.677 1.126-.66 1.783-.014.368.075.734.26 1.054.19.28.448.508.752.657.363.18.752.298 1.152.353.485.038.972.038 1.457 0 1.276.068 2.55-.198 3.69-.774.772-.366 1.285-1.12 1.34-1.97.01-.517-.214-1.01-.61-1.338-.62-.38-1.345-.55-2.07-.493l-3.314.023zm1.363-7.388c.876.066 1.738-.26 2.35-.892.548-.655.825-1.493.775-2.345.04-.85-.235-1.686-.775-2.346-.61-.633-1.473-.96-2.35-.89-.88-.077-1.745.25-2.352.89-.527.665-.795 1.5-.752 2.346-.054.848.215 1.686.752 2.345.61.637 1.473.964 2.35.892zM446.598 57.745c1.58.73 2.522 2.377 2.35 4.105.15 2.083-1.394 3.906-3.478 4.104h-15.327v7.388h16.032c5.57 0 9.755-5.347 9.755-11.492.202-5.07-3.025-9.644-7.875-11.165l-9.19-2.79c-1.585-.725-2.53-2.376-2.35-4.105-.14-2.056 1.357-3.86 3.407-4.105h14.104v-7.388h-14.292c-5.924 0-10.108 4.925-10.108 11.493-.196 5.088 3.02 9.687 7.875 11.258l9.098 2.697zm-31.828 8.21c-1.81 0-3.126-1.736-3.126-4.105V39.685h7.663v-7.388h-7.593V15.88h-7.052v45.993c0 6.403 4.467 11.493 10.108 11.493h4.513v-7.412h-4.513zM370.108 52.82l16.454 20.546h8.698c-4.702-5.84-11.424-14.378-16.455-20.546l16.455-20.547h-8.698L370.108 52.82zm-7.052 20.546h7.052v-57.51h-7.052v57.51zm-20.686 0h7.052v-41.07h-7.052v41.07zm-22.99-25.8c0-4.433 2.87-7.81 6.63-7.81h8.72v-7.46h-8.72c-2.48.105-4.828 1.135-6.582 2.886l-2.092-2.885h-4.89v41.07h7.052l-.117-25.8zm-20.497 18.388c-1.81 0-3.15-1.735-3.15-4.104V39.685h7.663v-7.388h-7.663V15.88h-7.052v45.993c0 6.403 4.468 11.493 10.11 11.493h4.536v-7.412h-4.443zm-29.336-8.21c1.58.73 2.522 2.378 2.35 4.106.164 2.088-1.388 3.918-3.478 4.104H253.09v7.388h16.032c5.57 0 9.755-5.347 9.755-11.492.193-5.066-3.03-9.637-7.876-11.165l-9.214-2.79c-1.584-.725-2.53-2.376-2.35-4.105-.138-2.08 1.4-3.895 3.478-4.105h13.94v-7.388h-14.292c-5.924 0-10.108 4.925-10.108 11.493-.197 5.088 3.02 9.687 7.874 11.258l9.215 2.697zm-33.66 15.598h7.05V32.297h-7.05v41.045zm-23.813-50.1c3.77.325 6.574 3.624 6.276 7.39v22.422c0 7.037-4.866 12.9-10.86 12.9h-7.334v-42.71h11.918zm-18.806 50.1h14.104c9.826 0 17.842-9.38 17.842-21.11V31.36c0-8.633-5.924-15.6-13.234-15.6h-18.806l.094 57.582z"></path><path d="M714.713 65.954c-1.81 0-3.126-1.735-3.126-4.104V39.685h7.663v-7.388h-7.663V15.88h-7.052v45.993c0 6.403 4.466 11.493 10.107 11.493h4.537v-7.412h-4.467zm-22.378 0h-11.377c-3.887-.165-6.906-3.44-6.747-7.318l11.143-3.518c5.016-1.44 8.445-6.05 8.37-11.258 0-6.567-3.833-11.493-9.757-11.493h-6.487c-6 .378-10.572 5.506-10.25 11.493v13.557c0 8.795 6.206 16.02 13.728 16.02h11.377v-7.483zM674.21 43.766c-.117-.98.164-1.97.783-2.74.62-.773 1.523-1.264 2.51-1.364h5.782c2.09.198 3.632 2.04 3.455 4.128.02 1.81-1.085 3.443-2.774 4.104l-9.755 2.79v-6.918zm-28.418 3.706c0-4.433 2.844-7.81 6.605-7.81h8.72v-7.365h-8.696c-2.495.09-4.864 1.12-6.628 2.885l-2.092-2.885h-4.866v41.07h7.052l-.094-25.895zm-20.686 18.482h-11.353c-1.87-.073-3.636-.885-4.906-2.258-1.27-1.373-1.94-3.193-1.864-5.06l11.142-3.518c5.016-1.44 8.444-6.05 8.368-11.258 0-6.567-3.83-11.493-9.755-11.493h-6.488c-5.997.378-10.57 5.506-10.25 11.493v13.557c0 8.795 6.207 16.02 13.73 16.02h11.353l.023-7.483zm-18.123-22.188c-.12-.978.16-1.962.774-2.734.614-.77 1.512-1.265 2.493-1.37h5.783c2.09.186 3.642 2.016 3.48 4.104.006 1.814-1.105 3.445-2.8 4.105l-9.754 2.792.023-6.896zm-21.156 22.188c-1.81 0-3.126-1.735-3.126-4.104V39.685h7.664v-7.388H582.7V15.88h-7.05v45.993c0 6.403 4.465 11.493 10.106 11.493h4.608v-7.412h-4.537zm-41.77-18.46c0-4.43 2.867-7.81 6.628-7.81h3.15c.815.04 1.577.417 2.103 1.04.527.623.77 1.436.67 2.245v30.49h7.052V43.79c0-6.403-4.325-11.493-9.755-11.493h-3.15c-2.52.075-4.916 1.107-6.7 2.885l-2.09-2.885h-4.89v41.07h7.05l-.07-25.872zm-19.23 18.484h-11.353c-1.875-.073-3.644-.89-4.914-2.267-1.27-1.377-1.94-3.203-1.856-5.074l11.142-3.518c5.016-1.44 8.444-6.05 8.368-11.258 0-6.567-3.83-11.493-9.755-11.493h-6.49c-5.996.378-10.57 5.506-10.247 11.493v13.557c0 8.795 6.205 16.02 13.727 16.02h11.354l.024-7.46zM506.705 43.79c-.12-.978.16-1.963.774-2.734.614-.77 1.512-1.265 2.493-1.37h5.784c2.09.186 3.642 2.016 3.48 4.104.017 1.81-1.086 3.443-2.775 4.104l-9.756 2.79V43.79zm-25.152 14.072c1.58.73 2.522 2.377 2.35 4.105.164 2.088-1.388 3.918-3.478 4.104h-15.326v7.39h16.03c5.572 0 9.756-5.348 9.756-11.493.194-5.066-3.03-9.637-7.875-11.164l-9.215-2.792c-1.584-.723-2.53-2.374-2.35-4.103-.138-2.08 1.4-3.894 3.478-4.105h13.94v-7.505H474.57c-5.923 0-10.107 4.925-10.107 11.493-.205 5.09 3.015 9.693 7.875 11.258l9.214 2.814z" fill="#ffffff"></path><ellipse fill="#ffffff" cx="239.318" cy="20.03" rx="4.137" ry="4.128"></ellipse><ellipse fill="#ffffff" cx="345.92" cy="20.03" rx="4.137" ry="4.128"></ellipse></g></svg>