<svg viewBox="0 0 70 104" fill="currentColor" xmlns="http://www.w3.org/2000/svg"><path d="M7.65817 20.4093L13.9813 14.8866L24.5824 29.7747H30.8011L17.508 11.44L30.1125 0H22.9338L7.65817 14.1599V0H2.62891V29.7747H7.65817V20.4093Z" fill="currentColor"/><path d="M24.7402 37.9201C22.2986 36.66 19.4637 36.0308 16.2355 36.0308C13.0074 36.0308 10.1725 36.66 7.73091 37.9201C5.28931 39.1802 3.3903 40.9834 2.03386 43.3295C0.677417 45.6741 0 48.4322 0 51.6025C0 54.7727 0.677417 57.5309 2.03546 59.8771C3.3919 62.2232 5.29092 64.0263 7.73251 65.2864C10.1741 66.5466 13.009 67.1758 16.2372 67.1758C19.4653 67.1758 22.3002 66.5466 24.7418 65.2864C27.1834 64.0263 29.0824 62.2248 30.4388 59.8771C31.7953 57.5309 32.4743 54.7727 32.4743 51.6025C32.4743 48.4322 31.7969 45.6741 30.4388 43.3279C29.0808 40.9818 27.1818 39.1786 24.7402 37.9201ZM25.9088 57.4479C24.9826 59.0737 23.6855 60.3131 22.0161 61.1643C20.3466 62.0156 18.4187 62.4404 16.2355 62.4404C14.038 62.4404 12.1068 62.014 10.4438 61.1643C8.78074 60.3131 7.48691 59.0737 6.56228 57.4479C5.63605 55.822 5.17374 53.8736 5.17374 51.6025C5.17374 49.333 5.63605 47.3845 6.56228 45.7571C7.48691 44.1313 8.78074 42.8919 10.4438 42.0407C12.1068 41.1894 14.0363 40.763 16.2355 40.763C18.4203 40.763 20.3466 41.1878 22.0161 42.0407C23.6855 42.8919 24.9826 44.1313 25.9088 45.7571C26.8334 47.3829 27.2974 49.3314 27.2974 51.6025C27.2974 53.872 26.8334 55.8204 25.9088 57.4479Z" fill="currentColor"/><path d="M67.7933 80.1523C66.4369 77.8061 64.5379 76.003 62.0963 74.7429C59.6547 73.4828 56.8198 72.8535 53.5916 72.8535C50.3635 72.8535 47.5286 73.4828 45.087 74.7429C42.6454 76.003 40.7464 77.8061 39.39 80.1523C38.0335 82.4984 37.3545 85.2566 37.3545 88.4268C37.3545 91.5971 38.0335 94.3553 39.39 96.7014C40.7464 99.0476 42.6454 100.851 45.087 102.111C47.5286 103.371 50.3635 104 53.5916 104C56.8198 104 59.6547 103.371 62.0963 102.111C64.5379 100.851 66.4369 99.0476 67.7933 96.7014C69.1498 94.3553 69.8288 91.5971 69.8288 88.4268C69.8288 85.2582 69.1498 82.4984 67.7933 80.1523ZM63.2649 94.2722C62.3387 95.8981 61.0416 97.1374 59.3722 97.9887C57.7027 98.8399 55.7748 99.2664 53.5916 99.2664C51.3924 99.2664 49.4629 98.8399 47.7999 97.9887C46.1368 97.1374 44.843 95.8981 43.9184 94.2722C42.9921 92.6464 42.5298 90.6979 42.5298 88.4268C42.5298 86.1574 42.9921 84.2089 43.9184 82.5815C44.843 80.9556 46.1368 79.7163 47.7999 78.865C49.4629 78.0137 51.3924 77.5889 53.5916 77.5889C55.7764 77.5889 57.7027 78.0137 59.3722 78.865C61.0416 79.7163 62.3387 80.9556 63.2649 82.5815C64.1895 84.2073 64.6535 86.1558 64.6535 88.4268C64.6518 90.6979 64.1895 92.6464 63.2649 94.2722Z" fill="currentColor"/><path d="M52.0427 62.6062C52.9673 63.6715 54.0669 64.4924 55.3399 65.0674C56.6129 65.6423 57.9806 65.9298 59.4413 65.9298C61.236 65.9298 62.8284 65.5146 64.2202 64.6841C65.6119 63.8536 66.6939 62.7005 67.466 61.2264C68.2381 59.7522 68.625 58.0737 68.625 56.1907V39.4771H38.6982V44.46H49.6124V53.3463L38.6982 59.9902V65.8867L50.0506 58.9313C50.4535 60.316 51.1181 61.541 52.0427 62.6062ZM54.3077 44.46H63.8654V55.6509C63.8654 56.5916 63.6808 57.4604 63.3116 58.2557C62.9424 59.0511 62.4046 59.682 61.6935 60.1451C60.984 60.6083 60.1557 60.8415 59.2102 60.8415C58.2358 60.8415 57.377 60.5987 56.6337 60.1148C55.8889 59.6293 55.3158 58.9585 54.9113 58.1008C54.5084 57.2416 54.3061 56.2945 54.3061 55.2564V44.46H54.3077Z" fill="currentColor"/></svg>