<?xml version="1.0" encoding="utf-8"?>
<!-- Generator: Adobe Illustrator 18.1.0, SVG Export Plug-In . SVG Version: 6.00 Build 0)  -->
<!DOCTYPE svg PUBLIC "-//W3C//DTD SVG 1.1//EN" "http://www.w3.org/Graphics/SVG/1.1/DTD/svg11.dtd">
<svg version="1.1" id="Layer_1" xmlns="http://www.w3.org/2000/svg" xmlns:xlink="http://www.w3.org/1999/xlink" x="0px" y="0px"
	 viewBox="0 0 654.6 189.5" style="enable-background:new 0 0 654.6 189.5;" xml:space="preserve">
<style type="text/css">
	.st0{fill:#003F72;}
	.st1{fill:#7AB800;}
	.st2{fill:#7D9AAA;}
</style>
<path class="st0" d="M0,138.7c0,0,143.8,7.6,120.9-138.7c0,0,49.4,187.7-120.7,189.5L0,138.7z"/>
<path class="st1" d="M110.7,33.5c0,0,0.9-13.9-2.5-33.5c0,0-65.1,13.9-54.6,118.1C53.8,120.7,52.5,42.3,110.7,33.5z"/>
<g>
	<g>
		<path class="st2" d="M220,162.8l-40.2-56.9c-3.2-4.6-5.6-9.3-5.6-9.3H174c0,0,0.6,5.3,0.6,10.7v55.5H154v-96h21.6l37.4,52.1
			c3.6,5,5.7,9.5,5.7,9.5h0.3c0,0-0.6-5.2-0.6-10.3V66.8h20.7v96H220z"/>
		<path class="st2" d="M294,164.7c-26,0-39.8-16.7-39.8-39.6c0-22.9,13.8-39.5,39.8-39.5c26,0,39.6,16.6,39.6,39.5
			C333.6,148,320,164.7,294,164.7z M294,99c-12.1,0-15.8,12.1-15.8,26c0,13.8,3.8,25.4,15.8,25.4c12.1,0,15.6-11.6,15.6-25.4
			C309.6,111.1,306.1,99,294,99z"/>
		<path class="st2" d="M375.3,100.8v62h-23.6v-62H341V87.5h10.7v-8.1c0-16.6,11.9-26.5,31.7-26.5c3.6,0,6.6,0.3,6.6,0.3v13.1
			c0,0-1.1-0.1-2-0.1c-7.5,0-12.7,4-12.7,12.4v8.9H390v13.3H375.3z"/>
		<path class="st2" d="M414.1,76.2c-7.3,0-13-4.6-13-10.2c0-5.6,5.7-10.2,13-10.2c7.3,0,13.1,4.6,13.1,10.2
			C427.2,71.6,421.4,76.2,414.1,76.2z M402.4,162.8V87.5H426v75.2H402.4z"/>
		<path class="st2" d="M546.2,162.8v-53.2c0-5.9-4.2-10.9-13.5-10.9c-5,0-9.3,1.5-12.7,4.2v59.9h-23.6v-53.3
			c0-6.4-5.2-10.6-14.7-10.6c-5,0-8.7,0.7-11.6,1.7v62.2h-23.6V91.2c9.4-3.5,20.5-5.6,35-5.6c14.7,0,22.6,3.5,27.8,7.8
			c5.9-4.2,14.9-7.8,28.9-7.8c21.1,0,31.5,11.2,31.5,24v53.2H546.2z"/>
		<path class="st2" d="M620.4,164.7c-25.3,0-38.1-8.5-38.1-23.9c0-20,23.2-25.3,50.1-27.5v-3.8c0-8.4-6.6-10.9-16.5-10.9
			c-8.2,0-17.4,2.1-23.2,4.5l-5-12c6.1-2.4,17.7-5.6,32.7-5.6c19.8,0,34.2,7.4,34.2,27.6v45.9C647.4,162.5,635.4,164.7,620.4,164.7z
			 M632.4,122.9c-16.5,1.5-27.8,4.3-27.8,17.2c0,9.1,6.6,13,17.2,13c4.6,0,8.2-0.8,10.6-2V122.9z"/>
	</g>
</g>
</svg>
