<?xml version="1.0" encoding="UTF-8" standalone="no"?>
<svg
   xmlns:dc="http://purl.org/dc/elements/1.1/"
   xmlns:cc="http://creativecommons.org/ns#"
   xmlns:rdf="http://www.w3.org/1999/02/22-rdf-syntax-ns#"
   xmlns:svg="http://www.w3.org/2000/svg"
   xmlns="http://www.w3.org/2000/svg"
   xmlns:sodipodi="http://sodipodi.sourceforge.net/DTD/sodipodi-0.dtd"
   xmlns:inkscape="http://www.inkscape.org/namespaces/inkscape"
   inkscape:version="1.0 (4035a4fb49, 2020-05-01)"
   sodipodi:docname="Kommunevåpen+med+navn.svg"
   viewBox="0 0 400.00001 611.66941"
   height="611.66943"
   width="400"
   id="svg833"
   version="1.1">
  <metadata
     id="metadata839">
    <rdf:RDF>
      <cc:Work
         rdf:about="">
        <dc:format>image/svg+xml</dc:format>
        <dc:type
           rdf:resource="http://purl.org/dc/dcmitype/StillImage" />
        <dc:title></dc:title>
      </cc:Work>
    </rdf:RDF>
  </metadata>
  <defs
     id="defs837" />
  <sodipodi:namedview
     inkscape:current-layer="g841"
     inkscape:window-maximized="1"
     inkscape:window-y="-11"
     inkscape:window-x="-11"
     inkscape:cy="61.277425"
     inkscape:cx="181.47327"
     inkscape:zoom="2.8419397"
     showgrid="false"
     id="namedview835"
     inkscape:window-height="1000"
     inkscape:window-width="1920"
     inkscape:pageshadow="2"
     inkscape:pageopacity="0"
     guidetolerance="10"
     gridtolerance="10"
     objecttolerance="10"
     borderopacity="1"
     bordercolor="#666666"
     pagecolor="#ffffff" />
  <g
     transform="translate(-907.37727,576.27045)"
     id="g841"
     inkscape:label="Image"
     inkscape:groupmode="layer">
    <path
       id="path849"
       d="m 1029.8288,-45.64695 c 21.3096,31.85589 54.2919,50.17152 78.8195,72.83757 30.8551,-16.631591 50.3913,-47.552406 74.9488,-70.72634 54.5004,-95.36415 5.5329,-206.40289 8.093,-301.90647 10.9155,-65.19404 -65.7495,-69.79559 -91.4868,-97.11677 -134.20035,28.53558 -79.3361,193.93263 -114.00662,278.6829 -26.1053,56.99692 31.80982,86.194493 43.63212,118.22911 z"
       style="fill:#ffffff;stroke:#000000;stroke-width:1px;stroke-linecap:butt;stroke-linejoin:miter;stroke-opacity:1" />
    <path
       id="path853"
       d="m 1004.1422,-456.63385 c 34.2586,-5.40926 68.6922,-23.16889 106.9692,-16.88988 34.491,4.23574 68.0088,3.03436 100.2836,12.31554 7.7437,-27.98813 20.7133,-57.86297 24.631,-89.02371 -13.2027,-2.83694 -28.5244,-5.65174 -42.5765,-9.14868 -2.2692,7.1657 -3.8111,13.77949 -6.6856,21.11234 -20.507,-2.65384 -40.2479,-5.21622 -59.8183,-7.74119 0.5364,-5.99016 4.2544,-15.78825 2.1112,-23.57545 -12.7493,-0.73151 -28.6211,-4.38758 -42.9284,-2.4631 0,9.03139 0,18.06278 0,27.09417 -21.3463,1.91877 -40.7098,7.27828 -62.6333,5.62996 -1.1491,-6.16343 -4.7049,-13.39402 -3.8706,-20.76047 -12.8764,2.93674 -25.95802,10.11081 -40.1134,9.14868 3.89836,31.79803 17.06305,65.327 24.6311,94.30179 z"
       style="fill:#ffffff;stroke:#000000;stroke-width:1px;stroke-linecap:butt;stroke-linejoin:miter;stroke-opacity:1" />
    <path
       id="path847"
       d="m 1104.7997,33.589554 c -5.7554,-4.115874 -16.1879,-12.146932 -21.4287,-16.495927 -2.7707,-2.299255 -10.5288,-8.9352892 -11.6929,-10.0017518 -0.7936,-0.7270262 -2.9558,-2.6862138 -4.8047,-4.3537635 -5.7103,-5.1499063 -18.7182,-18.0704807 -24.8398,-24.6729027 -1.2239,-1.320074 -2.2976,-2.473189 -2.3861,-2.56252 -0.5936,-0.599354 -8.0391,-9.066036 -10.2832,-11.693733 -10.25,-12.001527 -23.4316,-29.640284 -31.83641,-42.601642 -4.49515,-6.932125 -5.02732,-7.762906 -6.56585,-10.250044 -0.76289,-1.233186 -1.92262,-3.107022 -2.57726,-4.164067 -7.02174,-11.338183 -16.59058,-29.142593 -23.76119,-44.211623 -11.30031,-23.74745 -21.59601,-50.73524 -29.87426,-78.3082 -2.99058,-9.96104 -6.3416,-22.64163 -9.77674,-36.99619 -1.46992,-6.14253 -4.98125,-23.26354 -6.53641,-31.87117 -9.41699,-52.12219 -13.1111,-110.964 -9.95308,-158.53859 0.26252,-3.95481 0.47731,-7.37816 0.47731,-7.60745 0,-0.34027 8.03906,-0.41689 43.74433,-0.41689 41.51091,0 43.73588,-0.0287 43.57865,-0.56054 -0.17775,-0.6012 -2.25244,-9.1835 -6.13657,-25.38483 -1.3304,-5.54943 -3.27032,-13.62133 -4.31085,-17.93755 -1.04057,-4.31623 -2.98258,-12.38812 -4.31558,-17.93755 -1.333,-5.54943 -3.34531,-13.90961 -4.47178,-18.57817 -4.36456,-18.08867 -5.05644,-21.13704 -4.89354,-21.56148 0.35291,-0.9197 23.55852,-8.07019 36.50123,-11.24734 5.938,-1.45766 15.9483,-3.7069 16.4977,-3.7069 0.1563,0 0.9084,2.63058 1.6714,5.84572 2.3304,9.81903 4.7316,19.48245 4.8775,19.62832 0.076,0.076 2.1471,-0.22088 4.6023,-0.6598 10.0586,-1.79815 25.7612,-3.82641 35.8548,-4.63125 2.4664,-0.19667 4.9529,-0.42853 5.5254,-0.51524 l 1.0411,-0.15766 v -13.38997 -13.38997 l 3.2832,-0.20054 c 11.3158,-0.69116 25.2686,-0.91308 35.7917,-0.56926 6.0961,0.19917 12.2664,0.45332 13.7116,0.56477 l 2.6277,0.20263 v 13.33865 13.33866 l 7.1099,0.56911 c 11.7444,0.94009 23.2418,2.37944 35.1558,4.40113 3.0744,0.52169 5.7771,0.8767 6.0059,0.78889 0.2288,-0.0878 0.416,-0.39209 0.416,-0.67619 0,-0.76045 5.652,-24.16079 5.8941,-24.40295 0.3933,-0.3932 20.4559,4.44668 31.0833,7.49847 6.9121,1.9849 21.6583,6.76423 22.0748,7.15456 0.1511,0.14159 -0.3244,2.75719 -1.0567,5.81245 -2.8158,11.74815 -6.7703,28.20716 -7.9916,33.26211 -0.3618,1.49746 -1.8148,7.55138 -3.2289,13.45316 -1.4141,5.90177 -3.2863,13.68539 -4.1604,17.29692 -4.6784,19.32997 -7.7005,31.96168 -7.7005,32.18702 0,0.0905 19.8194,0.16462 44.0431,0.16462 35.0185,0 44.0441,0.082 44.0477,0.40039 0,0.22022 0.2127,3.35529 0.4671,6.96682 1.6412,23.30428 1.3892,56.82991 -0.6368,84.72287 -7.7151,106.2166 -37.1689,201.01567 -85.9085,276.50208 -8.1466,12.617233 -20.1114,29.244143 -27.1472,37.725248 -0.7307,0.880864 -2.7591,3.331277 -4.5075,5.445327 -8.4005,10.157678 -13.955,16.255201 -24.8327,27.260642 -13.0896,13.243185 -27.7897,26.411894 -39.6973,35.561626 -6.9763,5.360567 -15.8859,11.970909 -16.1348,11.970909 -0.058,0 -1.2442,-0.81423 -2.6358,-1.809448 z m 8.0401,-17.05162 c 5.3697,-4.129468 6.0243,-4.654109 12.8126,-10.2681697 5.0625,-4.1868036 11.5167,-9.8785315 16.336,-14.4060325 7.9909,-7.5072048 24.9222,-24.9980738 28.8625,-29.8164648 0.5042,-0.616612 1.458,-1.697694 2.1194,-2.402378 0.7236,-0.770805 1.2038,-1.600245 1.2055,-2.082013 0,-0.767141 -1.0699,-14.593405 -2.0748,-26.746168 -0.2622,-3.171095 -0.9158,-11.243016 -1.4523,-17.937567 -0.5366,-6.694512 -1.1041,-13.397101 -1.2611,-14.894541 -0.4291,-4.09124 -0.1613,-14.40114 0.4577,-17.61724 0.794,-4.12553 1.9467,-7.59811 3.3676,-10.14534 2.3029,-4.12802 7.0332,-8.1546 12.1036,-10.30313 1.8595,-0.78788 7.0082,-1.96054 8.6427,-1.96843 1.109,-0.006 1.4141,-0.49268 0.4805,-0.76741 -0.9237,-0.2717 -11.0767,-1.7477 -16.7364,-2.43304 -15.798,-1.913 -37.1393,-3.30783 -54.4533,-3.55892 -15.6976,-0.22764 -41.4163,0.046 -48.2071,0.51278 -1.2333,0.0848 -5.053,0.30433 -8.4884,0.48792 -14.2079,0.7591 -33.377,2.75694 -43.058,4.4875 -1.9247,0.34405 -3.5463,0.62552 -3.6036,0.62552 -0.057,0 -0.1041,0.12346 -0.1041,0.27434 0,0.15084 0.973,0.36513 2.1621,0.47617 7.8685,0.73459 15.592,5.43636 19.5573,11.90572 1.2488,2.03752 2.7521,6.53027 3.4284,10.24618 0.6211,3.41261 0.8952,14.33865 0.4621,18.41799 -0.159,1.497479 -0.5841,6.398266 -0.9448,10.890657 -0.3606,4.492391 -1.0757,13.357065 -1.5891,19.699255 -0.5133,6.342229 -1.247,15.4576 -1.6305,20.256445 l -0.6971,8.725141 2.0379,2.324317 c 9.7925,11.168382 25.2179,26.945125 34.5498,35.3366218 7.1065,6.3903823 16.7247,14.4359012 23.3829,19.5594852 6.0936,4.68922 6.8439,5.212561 7.1873,5.01321 0.187,-0.108562 2.5021,-1.860163 5.1447,-3.892408 z m -88.8626,-174.111784 c 7.9494,-1.1061 20.9492,-2.31986 37.9328,-3.5417 17.429,-1.25395 44.8251,-1.89381 60.6994,-1.41772 8.4627,0.25381 26.7877,1.11202 30.1094,1.41012 0.7928,0.0711 2.8108,0.21866 4.4844,0.32785 8.8888,0.57992 26.3538,2.24381 33.6126,3.2023 2.0148,0.26603 3.8526,0.4837 4.084,0.4837 0.3415,0 0.4207,-2.8313 0.4207,-15.0286 v -15.02859 l -2.0019,-0.66616 c -8.5385,-2.84118 -25.7868,-5.11742 -49.088,-6.47814 -7.6439,-0.44639 -57.8129,-0.63371 -67.2659,-0.25119 -24.6219,0.9964 -43.9752,3.31531 -54.8536,6.57257 l -2.6426,0.79127 v 15.0444 c 0,14.35284 0.027,15.04444 0.5849,15.04444 0.3216,0 2.0874,-0.20904 3.9238,-0.46455 z m 39.0539,-49.98465 c 27.5375,-2.2946 66.8435,-2.16208 92.2503,0.31099 2.3783,0.23149 4.363,0.38556 4.4105,0.34232 0.047,-0.0432 -0.077,-2.19511 -0.2761,-4.78199 -0.8089,-10.50259 0.9959,-18.99266 4.7379,-22.28647 1.6712,-1.47101 4.6681,-3.01024 6.8319,-3.50884 1.799,-0.41455 5.5905,-0.44059 6.9601,-0.0478 l 1.0388,0.29795 0.035,-1.73936 c 0.02,-0.95665 0.052,-2.06369 0.072,-2.46007 0.032,-0.63249 -0.1976,-0.76664 -1.8774,-1.09605 -2.7779,-0.54472 -15.6446,-1.94209 -22.8946,-2.48646 -15.1192,-1.13516 -20.0249,-1.27892 -44.0431,-1.29052 -30.3287,-0.0147 -32.7779,0.0488 -49.3283,1.27799 -9.83,0.73006 -24.627,2.41013 -25.0625,2.84563 -0.062,0.0615 -0.1412,1.21207 -0.177,2.55675 -0.055,2.06681 0.01,2.41291 0.4153,2.23815 0.2642,-0.11368 1.661,-0.27726 3.104,-0.36349 5.7843,-0.34571 11.3366,2.3397 13.6587,6.60624 1.9277,3.54186 2.9998,10.78757 2.6366,17.81925 -0.1183,2.29024 -0.2986,4.70938 -0.4006,5.37585 l -0.1855,1.21178 1.2438,-0.17739 c 0.6841,-0.0976 3.7662,-0.38758 6.8493,-0.64447 z m -8.3281,-50.60483 c 1.3213,-0.10392 3.1951,-0.25726 4.164,-0.34075 16.0911,-1.38649 62.2499,-1.82362 83.4417,-0.79021 7.9475,0.38756 20.1973,1.22907 21.2207,1.45778 l 0.7208,0.16105 v -35.09632 c 0,-29.86667 -0.069,-35.22879 -0.4598,-35.98534 -1.6283,-3.1487 -7.5353,-5.91236 -16.4585,-7.7002 -9.7622,-1.95595 -20.1668,-2.65333 -39.7773,-2.66613 -22.2915,-0.0145 -33.6241,0.91326 -44.0782,3.60871 -6.3283,1.63169 -9.9227,3.45529 -11.8872,6.03085 l -1.0503,1.3771 v 35.23501 35.23502 l 0.8809,-0.16882 c 0.4844,-0.0928 1.9619,-0.25384 3.2832,-0.35775 z m -2.7061,-83.73986 c -0.1,-0.16138 -0.051,-0.62985 0.1078,-1.04101 1.8104,-4.68069 12.4526,-7.4999 35.11,-9.30095 7.8086,-0.6207 34.1313,-0.51675 42.4416,0.16761 15.4953,1.27606 24.4112,3.01202 29.5983,5.76296 2.0338,1.07862 3.8552,3.17051 3.6023,4.13741 -0.082,0.31208 -0.083,0.56742 0,0.56742 0.4766,0 4.9141,-3.76835 4.9035,-4.16408 -0.01,-0.26426 -0.2587,-1.67626 -0.5593,-3.13778 l -0.5464,-2.65731 -3.7335,-2.62786 c -4.8027,-3.38029 -21.6877,-15.39619 -29.7382,-21.16252 -7.333,-5.25237 -12.6371,-9.02043 -17.297,-12.28776 -1.8498,-1.29702 -3.5998,-2.55322 -3.8889,-2.79157 -0.6687,-0.55132 -0.7901,-4.1042 -0.1616,-4.72823 0.2304,-0.22863 1.4554,-0.98227 2.7223,-1.67478 l 2.3035,-1.25909 -0.087,-5.61842 -0.087,-5.61842 -4.3242,-1.47165 -4.3242,-1.47166 -0.084,-10.6294 c -0.072,-9.11015 -0.1519,-10.62939 -0.5563,-10.62939 -0.4043,0 -0.4839,1.51791 -0.5562,10.61815 l -0.084,10.61816 -4.3242,1.49438 -4.3242,1.49438 v 5.58477 5.58478 l 2.6426,1.55959 2.6425,1.5596 v 2.17739 c 0,1.19757 -0.1353,2.22544 -0.3009,2.28417 -0.1655,0.0587 -1.6429,1.07605 -3.2832,2.26071 -3.1655,2.28631 -23.6819,16.89343 -36.7753,26.18307 -13.0131,9.23262 -14.5652,10.35525 -14.7931,10.69942 -0.1203,0.18173 -0.4571,1.62749 -0.7484,3.2128 l -0.5298,2.88236 0.9019,0.65692 c 0.4961,0.3613 1.5536,1.18817 2.3501,1.83748 1.3984,1.14001 2.161,1.53661 1.7851,0.92835 z M 1215.18,-451.44371 c -0.2643,-0.14704 -3.7237,-1.07616 -7.6876,-2.06472 -25.1514,-6.2726 -46.8029,-9.68602 -73.8322,-11.63983 -9.7411,-0.70414 -41.5537,-0.80844 -50.7697,-0.16646 -25.4717,1.77434 -45.3565,4.60053 -66.9454,9.51483 -4.8238,1.09804 -14.5064,3.55043 -16.33602,4.13758 -1.26259,0.40516 12.05062,0.464 107.30492,0.47424 59.8106,0.006 108.5302,-0.10862 108.266,-0.25564 z m -204.7187,-17.0129 c 22.1031,-5.13671 46.8272,-8.84733 67.144,-10.07705 1.7618,-0.10663 3.9239,-0.25909 4.8048,-0.3388 0.8808,-0.0797 6.8627,-0.29398 13.293,-0.47614 15.1682,-0.42971 32.4408,0.046 47.0861,1.29669 20.1743,1.72292 40.6209,4.92832 59.5782,9.33999 3.083,0.71747 5.8114,1.3213 6.0629,1.34184 0.3258,0.0266 0.715,-1.02292 1.3524,-3.64625 0.9665,-3.97848 7.1854,-29.81858 9.2506,-38.4376 2.6548,-11.07945 6.4788,-26.95208 7.6939,-31.93538 0.6959,-2.85407 1.2653,-5.32862 1.2653,-5.49899 0,-0.87107 -29.7665,-9.19281 -30.4056,-8.50042 -0.1473,0.15958 -1.5832,5.75631 -3.1908,12.43718 -1.6076,6.68087 -2.9582,12.18059 -3.0012,12.22161 -0.075,0.0717 -1.7463,-0.21151 -7.6056,-1.28905 -20.0824,-3.69317 -36.6537,-5.71178 -55.2541,-6.73072 -1.9379,-0.10615 -4.1361,-0.26943 -4.8848,-0.36282 l -1.3613,-0.16981 v -13.23864 -13.23865 l -6.0059,-0.23867 c -3.3032,-0.13127 -9.4653,-0.14812 -13.6934,-0.0375 -4.2282,0.11066 -8.6589,0.20243 -9.8461,0.20394 l -2.1586,0.003 -0.084,13.37308 -0.084,13.37308 -2.4028,0.19553 c -1.3215,0.10753 -3.916,0.29591 -5.7656,0.41861 -17.05,1.13109 -33.6479,3.26821 -51.2466,6.59845 -4.4906,0.84978 -8.2411,1.42169 -8.3343,1.27091 -0.093,-0.15078 -0.7951,-2.91403 -1.56,-6.14054 -3.0181,-12.73235 -4.4639,-18.56654 -4.6462,-18.74883 -0.3382,-0.33823 -12.8595,2.91778 -24.74193,6.43385 -5.09545,1.50775 -5.56457,1.69928 -5.56457,2.27181 0,0.43623 3.45678,15.05275 7.23744,30.60261 2.3688,9.74294 6.5759,27.21533 7.17276,29.78914 3.3458,14.42788 4.6283,19.21806 5.1079,19.07763 0.2758,-0.0808 2.4301,-0.59505 4.7873,-1.14286 z"
       style="fill:#028eb1;fill-opacity:1;stroke-width:1" />
  </g>
</svg>
