<svg xmlns="http://www.w3.org/2000/svg" viewBox="0 0 81.81 66.64"><defs><style>.cls-1{fill:#231f20;}.cls-2{fill:#f8c841;}.cls-3{fill:#e52b26;}.cls-4{fill:#f39127;}</style></defs><title>FUG logo</title><g id="Layer_2" data-name="Layer 2"><g id="Layer_1-2" data-name="Layer 1"><path d="M38,54.14c-1.21-.13-2-.39-1.94-1.51V38.88c0-.6.21-1.47-.56-1.47-1.34,0-2.67.09-4,.09s-2.67-.09-4-.09c-.56,0-1.29,0-1.29.73,0,.56.52.78,1,.86a3,3,0,0,1,2.16.95c.47.73.34,2.46.34,3.28v7.07c0,1,.13,1.85-.65,2.63a5.1,5.1,0,0,1-3.23,1.46,3,3,0,0,1-2.54-1.34,7.44,7.44,0,0,1-.65-3.36V38.11c0-.6-.13-.69-.69-.69-1.34,0-2.63.09-4,.09H11.85c-1.55,0-1.34-.09-1.34-2,0-1.25-.09-6.34,2-6.34,1.46,0,2.24,4.44,4,4.44,1.21,0,2.5-2.76,2.5-3.75,0-2-3.71-2.37-5-2.37-5.09,0-9.44,3.06-10.09,8.28-.13,1-.13,1.72-1.29,1.85-.82.09-2,.3-2,1.38,0,.86,1.12.6,1.68.6,1.64,0,1.47.17,1.47.56V53.58c0,.13,0,1.59-2.63,1.9-.52.09-1.16.21-1.16,1s.43.73,1,.73c2.07,0,4.14-.09,6.21-.09s4,.09,6,.09c.56,0,1-.09,1-.73s-.82-.91-1.38-1c-2.37-.3-2.37-1.77-2.37-1.9V39.88c0-.39,0-.3,1.46-.3h3a1.15,1.15,0,0,1,.83.38c.51.71.39,2.46.39,3.23v6.9a8.33,8.33,0,0,0,1.38,5.35A6.49,6.49,0,0,0,22.5,57.5c2.46,0,4.4-1.12,6.34-2.54a1.88,1.88,0,0,1,.82-.43c.56,0,.39,1.29.39,1.55,0,.47-.26,1.59.52,1.59a8.66,8.66,0,0,0,1.81-.52l4.48-1.29c.52-.09,2-.3,2-1C38.84,54.32,38.45,54.19,38,54.14Z"/><path class="cls-1" d="M39.91,54.57c-.3-.3-1-.86-1-1.34,0-.82,1.42-1.16,2-1.38l1.72-.69c.13,0,1.25-.39,1.25-.6s-.47-.3-.56-.3c-2.76-.95-4.83-3.15-4.83-6a6.73,6.73,0,0,1,3.19-5.52,12.12,12.12,0,0,1,6.81-1.77,13.66,13.66,0,0,1,5.43,1,4.71,4.71,0,0,0,2.29.56h2.54c1.29-.13,1.72-.13,1.72,1.34,0,1.16-.3.91-1.42.91H57.5s-.21,0-.21.17a5.44,5.44,0,0,1,1.08,3.23c0,4.44-4.57,6.9-8.58,7l-2.24,0c-.47,0-2.41,0-2.41.86,0,.43.73.91,1.12,1a8.38,8.38,0,0,0,2.54.21h3.28a14.38,14.38,0,0,1,5.26.69,5,5,0,0,1,3.23,4.7c0,2.76-2.07,4.87-4.4,6.16a16.28,16.28,0,0,1-8.06,1.81c-3.28,0-10.39-.73-10.39-5.17,0-3.45,4.83-3.53,4.83-4.35,0-.26-.73-.78-.86-.91ZM55,61.51c0-2.59-3.45-2.29-5.22-2.29a14.83,14.83,0,0,1-5.56-1.08,2,2,0,0,0-.82.39,2.78,2.78,0,0,0-.78,1.9c0,3.66,3.66,4.61,6.64,4.61C51.38,65,55,64.23,55,61.51ZM51.9,44.66c0-2.37-.39-6.29-3.54-6.29-2.93,0-3.36,2.76-3.36,5.13s.52,6.16,3.66,6.16C51.6,49.66,51.9,46.9,51.9,44.66Z"/><path class="cls-2" d="M37.47,21.37c1.48.32-.47-.13,0,0Z"/><path class="cls-2" d="M51.75,8.79c3-2,6.41-2.08,9.79-1.6,1,.15,2,.34,3,.56l1.49.31c-.19-2.46-.77-4.5-2.34-6C62,.43,56.73.25,54.38.13,48.55-.15,38.54-.32,35,3.24c-2.07,2.09-3.45,9.59-3.1,13.51s2.1,3.87,5.29,4.57l.25.05c-.47-.13,1.48.32,0,0l1.1.28c.7,2.67.68,3.55-.89,5.46s-4.52,2.82-5.52,3.62c3.94-.51,11.28-2.18,12.57-7.68l1.09.2c0-.26,0-.51,0-.78C45.73,17.17,48.18,11.2,51.75,8.79Z"/><path class="cls-3" d="M81.7,18.28c-.23-3.69-2.46-6.26-5.78-7.66a51.12,51.12,0,0,0-9.84-2.57c0,.22,0,.44,0,.67a42.63,42.63,0,0,1-.76,9.64c-1.44,6.5-5.46,7.87-12.41,6.16-.2,0-4.95-.88-7.14-1.27a10.25,10.25,0,0,0,2.33,6.38c2.62,2.89,8.12,2.94,11.67,2.66,1.75-.14,5.31-.67,6,1.08a9.7,9.7,0,0,0,2.09,3.17C70.12,38.72,75,40.09,78,40.23c-2.11-1-4.63-1.72-6.09-5-1.27-2.86.45-4.3,3.17-4.7,3.49-.51,4.29-.84,5.46-2.41C82,26.13,81.88,21.05,81.7,18.28Z"/><path class="cls-4" d="M65.36,18.36a42.63,42.63,0,0,0,.76-9.64c0-.23,0-.45,0-.67l-1.49-.31c-1-.21-2-.41-3-.56-3.38-.48-6.82-.4-9.79,1.6-3.57,2.41-6,8.38-6,13.67,0,.26,0,.52,0,.78,2.19.39,6.94,1.22,7.14,1.27C59.9,26.23,63.91,24.85,65.36,18.36Z"/></g></g></svg>