<?xml version="1.0" encoding="utf-8"?>
<!-- Generator: Adobe Illustrator 16.0.4, SVG Export Plug-In . SVG Version: 6.00 Build 0)  -->
<!DOCTYPE svg PUBLIC "-//W3C//DTD SVG 1.1//EN" "http://www.w3.org/Graphics/SVG/1.1/DTD/svg11.dtd">
<svg version="1.1" id="Layer_1" xmlns="http://www.w3.org/2000/svg" xmlns:xlink="http://www.w3.org/1999/xlink" x="0px" y="0px"
	 width="120.292px" height="123.873px" viewBox="0.842 0.078 120.292 123.873" enable-background="new 0.842 0.078 120.292 123.873"
	 xml:space="preserve">
<g>
	<g id="NGU_monogram">
		<path fill="#1D1D1B" d="M43.875,120.594h1.808v0.69h-1.808V120.594z"/>
		<path fill="#1D1D1B" d="M54.919,118.03h0.73v5.828h-0.684l-3.132-4.509h-0.02v4.509h-0.737v-5.828h0.689l3.134,4.512h0.019V118.03
			z"/>
		<path fill="#1D1D1B" d="M61.176,120.642h2.936c0,2.097-1.44,3.309-3.075,3.309c-1.979,0-3.098-1.562-3.098-3.005
			c0-1.446,1.119-3.006,3.098-3.006c0.682,0,1.364,0.194,2.056,0.793l-0.466,0.546c-0.468-0.436-1.078-0.647-1.59-0.647
			c-1.225,0-2.31,0.97-2.31,2.314c0,1.354,1.117,2.32,2.31,2.32c1.048,0,2.021-0.712,2.273-1.934h-2.134V120.642z"/>
		<path fill="#1D1D1B" d="M66.326,118.03h0.741v3.496c0,0.955,0.527,1.74,1.544,1.74c1.028,0,1.556-0.785,1.556-1.74v-3.496h0.733
			v3.714c0,1.256-0.951,2.207-2.302,2.207c-1.316,0-2.272-0.951-2.272-2.207V118.03z"/>
		<path fill="#1D1D1B" d="M76.294,120.594h1.809v0.69h-1.809V120.594z"/>
	</g>
	<g id="Undersøkelse">
		<path fill="#1D1D1B" d="M0.842,97.64h1.257v5.968c0,1.617,0.901,2.952,2.643,2.952c1.738,0,2.643-1.335,2.643-2.952V97.64h1.253
			v6.33c0,2.148-1.621,3.766-3.922,3.766c-2.25,0-3.874-1.617-3.874-3.766V97.64z"/>
		<path fill="#1D1D1B" d="M19.159,97.64h1.251v9.943h-1.171l-5.335-7.696h-0.026v7.696h-1.259V97.64h1.179l5.336,7.693h0.025V97.64z
			"/>
		<path fill="#1D1D1B" d="M24.448,97.64h3.271c2.428,0,4.773,2.081,4.773,4.93c0,2.843-2.263,5.014-5.088,5.014h-2.956V97.64z
			 M27.386,106.405c2.226,0,3.772-1.698,3.772-3.89c0-2.134-1.701-3.696-3.874-3.696h-1.581v7.586H27.386z"/>
		<path fill="#1D1D1B" d="M36.239,97.64h5.14v1.179h-3.885v3.149h3.885v1.182h-3.885v3.255h3.885v1.179h-5.14V97.64z"/>
		<path fill="#1D1D1B" d="M46.378,103.344v4.239h-1.255V97.64h2.863c1.906,0,3.336,1.1,3.336,3.009c0,1.78-1.399,2.879-3.021,2.968
			l3.873,3.967h-1.765L46.378,103.344z M46.378,102.57c0.172,0.012,0.354,0.012,1.099,0.012c1.917,0,2.588-0.837,2.588-1.918
			c0-1.166-0.797-1.924-2.102-1.924h-1.585V102.57z"/>
		<path fill="#1D1D1B" d="M60.114,100.482c-0.169-1.185-0.844-1.899-1.912-1.899c-1.409,0-1.781,0.927-1.781,1.608
			c0,0.749,0.463,1.219,1.447,1.581l1.254,0.469c1.584,0.593,2.315,1.521,2.315,2.721c0,1.614-1.28,2.774-3.194,2.774
			c-1.803,0-3.086-0.957-3.239-2.943h1.254c0.1,1.086,0.661,1.845,2.051,1.845c1.093,0,1.875-0.69,1.875-1.564
			c0-0.777-0.642-1.274-1.544-1.621l-1.27-0.501c-1.481-0.576-2.214-1.437-2.214-2.72c0-1.713,1.43-2.75,3.066-2.75
			c1.643,0,2.924,0.984,3.07,3.001H60.114z"/>
		<path fill="#1D1D1B" d="M66.177,106.169c-0.937-0.967-1.449-2.291-1.449-3.555c0-2.462,1.891-5.133,5.268-5.133
			c1.335,0,2.422,0.404,3.257,1.071l1.219-1.302l0.549,0.506l-1.203,1.292c0.955,0.983,1.453,2.294,1.453,3.565
			c0,2.459-1.901,5.122-5.274,5.122c-1.332,0-2.449-0.413-3.272-1.062l-1.199,1.302l-0.547-0.516L66.177,106.169z M72.402,99.473
			c-0.69-0.522-1.54-0.813-2.406-0.813c-2.026,0-3.944,1.593-3.944,3.954c0,1.039,0.386,1.93,0.987,2.63L72.402,99.473z
			 M67.592,105.747c0.69,0.514,1.54,0.813,2.403,0.813c2.026,0,3.933-1.599,3.933-3.946c0-1.062-0.39-1.965-0.977-2.632
			L67.592,105.747z"/>
		<path fill="#1D1D1B" d="M84.325,97.64h1.604l-4.46,4.851l4.567,5.093h-1.805l-3.966-4.541v4.541h-1.256V97.64h1.256v4.556
			L84.325,97.64z"/>
		<path fill="#1D1D1B" d="M89.347,97.64h5.145v1.179h-3.886v3.149h3.886v1.182h-3.886v3.255h3.886v1.179h-5.145V97.64z"/>
		<path fill="#1D1D1B" d="M98.238,97.64h1.252v8.765h3.493v1.179h-4.745V97.64z"/>
		<path fill="#1D1D1B" d="M111.044,100.482c-0.169-1.185-0.851-1.899-1.912-1.899c-1.409,0-1.786,0.927-1.786,1.608
			c0,0.749,0.466,1.219,1.448,1.581l1.256,0.469c1.583,0.593,2.313,1.521,2.313,2.721c0,1.614-1.283,2.774-3.188,2.774
			c-1.805,0-3.092-0.957-3.244-2.943h1.255c0.104,1.086,0.657,1.845,2.057,1.845c1.08,0,1.863-0.69,1.863-1.564
			c0-0.777-0.639-1.274-1.542-1.621l-1.267-0.501c-1.477-0.576-2.214-1.437-2.214-2.72c0-1.713,1.431-2.75,3.063-2.75
			c1.648,0,2.932,0.984,3.073,3.001H111.044z"/>
		<path fill="#1D1D1B" d="M115.992,97.64h5.142v1.179h-3.889v3.149h3.889v1.182h-3.889v3.255h3.889v1.179h-5.142V97.64z"/>
	</g>
	<g id="Geologiske">
		<path fill="#1D1D1B" d="M14.787,85.374h5.015c0,3.569-2.462,5.636-5.248,5.636c-3.375,0-5.271-2.668-5.271-5.13
			c0-2.465,1.896-5.127,5.271-5.127c1.168,0,2.329,0.345,3.506,1.349l-0.8,0.939c-0.795-0.743-1.828-1.108-2.706-1.108
			c-2.078,0-3.937,1.661-3.937,3.947c0,2.321,1.91,3.954,3.937,3.954c1.793,0,3.451-1.203,3.871-3.287h-3.638V85.374z"/>
		<path fill="#1D1D1B" d="M23.495,80.907h5.139v1.182H24.75v3.153h3.883v1.179H24.75v3.253h3.883v1.179h-5.139V80.907z"/>
		<path fill="#1D1D1B" d="M37.31,80.753c3.376,0,5.271,2.662,5.271,5.127c0,2.462-1.895,5.13-5.271,5.13
			c-3.374,0-5.275-2.668-5.275-5.13C32.035,83.415,33.936,80.753,37.31,80.753z M37.31,89.834c2.03,0,3.94-1.597,3.94-3.954
			c0-2.354-1.91-3.947-3.94-3.947c-2.028,0-3.934,1.593-3.934,3.947C33.376,88.237,35.282,89.834,37.31,89.834z"/>
		<path fill="#1D1D1B" d="M46.334,80.907h1.246v8.767h3.495v1.179h-4.741V80.907z"/>
		<path fill="#1D1D1B" d="M59.408,80.753c3.376,0,5.273,2.662,5.273,5.127c0,2.462-1.896,5.13-5.273,5.13
			c-3.372,0-5.271-2.668-5.271-5.13C54.137,83.415,56.036,80.753,59.408,80.753z M59.408,89.834c2.026,0,3.935-1.597,3.935-3.954
			c0-2.354-1.909-3.947-3.935-3.947c-2.026,0-3.938,1.593-3.938,3.947C55.469,88.237,57.382,89.834,59.408,89.834z"/>
		<path fill="#1D1D1B" d="M73.676,85.374h5.007c0,3.569-2.459,5.636-5.246,5.636c-3.374,0-5.271-2.668-5.271-5.13
			c0-2.465,1.896-5.127,5.271-5.127c1.166,0,2.33,0.345,3.503,1.349l-0.793,0.939c-0.801-0.743-1.836-1.108-2.71-1.108
			c-2.078,0-3.939,1.661-3.939,3.947c0,2.321,1.91,3.954,3.939,3.954c1.792,0,3.456-1.203,3.874-3.287h-3.635V85.374z"/>
		<path fill="#1D1D1B" d="M82.321,80.907h1.262v9.945h-1.262V80.907z"/>
		<path fill="#1D1D1B" d="M92.266,83.75c-0.168-1.179-0.85-1.897-1.912-1.897c-1.405,0-1.792,0.928-1.792,1.609
			c0,0.742,0.476,1.218,1.454,1.583l1.26,0.47c1.58,0.59,2.317,1.517,2.317,2.723c0,1.606-1.286,2.772-3.193,2.772
			c-1.808,0-3.088-0.954-3.247-2.94h1.258c0.102,1.086,0.651,1.838,2.051,1.838c1.084,0,1.873-0.689,1.873-1.565
			c0-0.77-0.646-1.268-1.544-1.624l-1.271-0.497c-1.479-0.574-2.207-1.437-2.207-2.723c0-1.71,1.425-2.745,3.058-2.745
			c1.648,0,2.935,0.98,3.075,2.997H92.266z"/>
		<path fill="#1D1D1B" d="M102.526,80.907h1.608l-4.461,4.859l4.568,5.086h-1.805l-3.966-4.536v4.536h-1.257v-9.945h1.257v4.556
			L102.526,80.907z"/>
		<path fill="#1D1D1B" d="M107.554,80.907h5.142v1.182h-3.886v3.153h3.886v1.179h-3.886v3.253h3.886v1.179h-5.142V80.907z"/>
	</g>
	<g id="Norges">
		<path fill="#1D1D1B" d="M35.063,64.179h1.258v9.94h-1.174l-5.338-7.695h-0.029v7.695h-1.253v-9.94h1.171l5.34,7.693h0.025V64.179z
			"/>
		<path fill="#1D1D1B" d="M45.284,64.023c3.38,0,5.28,2.668,5.28,5.127s-1.9,5.129-5.28,5.129c-3.371,0-5.272-2.67-5.272-5.129
			S41.913,64.023,45.284,64.023z M45.284,73.1c2.031,0,3.943-1.596,3.943-3.95c0-2.349-1.913-3.948-3.943-3.948
			c-2.02,0-3.935,1.6-3.935,3.948C41.349,71.505,43.264,73.1,45.284,73.1z"/>
		<path fill="#1D1D1B" d="M55.555,69.886v4.233h-1.25v-9.94h2.869c1.91,0,3.334,1.1,3.334,3.012c0,1.777-1.403,2.877-3.027,2.962
			l3.876,3.967h-1.769L55.555,69.886z M55.555,69.113c0.177,0.009,0.354,0.009,1.103,0.009c1.926,0,2.589-0.832,2.589-1.921
			c0-1.17-0.794-1.922-2.102-1.922h-1.589V69.113z"/>
		<path fill="#1D1D1B" d="M69.888,68.64h5.004c0,3.567-2.453,5.639-5.243,5.639c-3.374,0-5.268-2.67-5.268-5.129
			s1.894-5.127,5.268-5.127c1.17,0,2.333,0.338,3.503,1.346l-0.792,0.945c-0.799-0.75-1.83-1.112-2.711-1.112
			c-2.078,0-3.938,1.661-3.938,3.948c0,2.311,1.916,3.95,3.938,3.95c1.796,0,3.456-1.203,3.874-3.281h-3.635V68.64z"/>
		<path fill="#1D1D1B" d="M78.594,64.179h5.139v1.173h-3.89v3.159h3.89v1.172h-3.89v3.258h3.89v1.179h-5.139V64.179z"/>
		<path fill="#1D1D1B" d="M92.131,67.017c-0.171-1.173-0.855-1.898-1.909-1.898c-1.409,0-1.789,0.937-1.789,1.615
			c0,0.743,0.467,1.212,1.448,1.578l1.256,0.476c1.584,0.583,2.314,1.514,2.314,2.717c0,1.607-1.28,2.774-3.189,2.774
			c-1.805,0-3.085-0.954-3.244-2.943h1.255c0.102,1.084,0.657,1.848,2.054,1.848c1.087,0,1.87-0.7,1.87-1.574
			c0-0.771-0.646-1.268-1.541-1.621l-1.271-0.494c-1.479-0.58-2.207-1.443-2.207-2.727c0-1.706,1.421-2.744,3.061-2.744
			c1.643,0,2.929,0.976,3.069,2.994H92.131z"/>
	</g>
	<g id="Symbol">
		<path fill="#1D1D1B" d="M80.473,26.556c-0.437,0-0.829,0.341-0.829,0.804c0,0.471,0.393,0.806,0.829,0.806
			c0.429,0,0.822-0.335,0.822-0.806C81.295,26.897,80.902,26.556,80.473,26.556z"/>
		<g>
			<path fill="#1D1D1B" d="M44.285,26.556c-0.435,0-0.823,0.341-0.823,0.804c0,0.471,0.388,0.806,0.823,0.806
				c0.439,0,0.821-0.335,0.821-0.806C45.106,26.897,44.724,26.556,44.285,26.556z"/>
			<path fill="#1D1D1B" d="M44.285,25.907c0.373,0,0.724-0.244,0.724-0.729c0-0.474-0.351-0.724-0.724-0.724
				c-0.369,0-0.72,0.25-0.72,0.724C43.565,25.663,43.916,25.907,44.285,25.907z"/>
			<path fill="#1D1D1B" d="M60.977,0.078c-13.958,0-25.311,11.355-25.311,25.32c0,13.968,11.352,25.324,25.311,25.324
				c13.974,0,25.335-11.355,25.335-25.324C86.312,11.433,74.95,0.078,60.977,0.078z M41.552,28.852h-0.727v-4.31L40.1,25.066v-0.772
				l0.725-0.533h0.727V28.852z M44.285,28.894c-0.838,0-1.543-0.626-1.543-1.527c0-0.485,0.208-0.892,0.591-1.144
				c-0.296-0.275-0.5-0.588-0.5-1.029c0-0.826,0.629-1.469,1.452-1.469c0.821,0,1.461,0.643,1.461,1.469
				c0,0.441-0.21,0.754-0.507,1.029c0.377,0.251,0.594,0.658,0.594,1.144C45.833,28.267,45.131,28.894,44.285,28.894z
				 M51.156,41.538c-0.087,0.109-0.25,0.127-0.359,0.029l-2.723-2.352c-0.111-0.1-0.127-0.266-0.034-0.372l8.745-9.964
				c0.133,0.467,0.217,0.781,0.23,0.849c0.048,0.212,0.224,0.385,0.433,0.427c0.874,0.167,1.771,0.394,2.574,0.603L51.156,41.538z
				 M73.778,41.768c-0.138-0.147-0.481-0.504-0.896-0.643c-0.013-0.006-0.027-0.037-0.027-0.037
				c-0.126-0.313-1.335-3.02-2.226-4.694c-1.969-3.693-3.785-2.721-7.162-1.208c0,0-0.061,0.033-0.093-0.072
				c0,0-0.509-1.909-1.556-3.833c-0.086-0.16,0.086-0.114,0.086-0.114c1.713,0.347,3.211,0.703,4.556,1.232
				c-1.234-0.668-2.686-1.265-4.344-1.802c-1.353-0.416-2.826-0.812-4.411-1.138c-0.077-0.013-0.077-0.066-0.077-0.066
				s-0.354-1.475-1.33-3.78c-0.046-0.112,0.064-0.103,0.064-0.103c2.316,0.242,4.304,0.971,5.362,1.469
				c-1.141-0.788-3.52-2.338-6.18-3.067c0,0-0.031,0-0.044-0.034c-0.725-1.499-1.44-2.75-2.352-4.134c0,0-0.115-0.17,0.063-0.141
				c1.446,0.246,2.611,0.594,3.392,0.89c-0.911-0.551-2.564-1.52-4.437-2.175c-1.162-1.604-2.318-2.942-3.711-4.336
				c0,0-0.108-0.098,0.018-0.072c0.971,0.172,1.765,0.353,2.324,0.555c-0.737-0.417-2.046-1.101-3.493-1.58
				c-0.761-0.709-1.481-1.314-2.295-1.953c-0.014-0.023-0.05-0.055-0.035-0.09c0.028-0.033,0.104-0.021,0.104-0.021
				c0.057,0.011,4.589,0.812,10.397,5.007c5.312,3.828,13.363,11.533,18.348,25.915C73.823,41.745,73.864,41.864,73.778,41.768z
				 M74.385,20.818l-3.512-3.027c-0.113-0.099-0.272-0.086-0.362,0.024l-5.433,6.38c-0.741-0.959-1.36-1.658-2.085-2.486
				l5.089-5.877c0.09-0.114,0.084-0.273-0.021-0.373c0,0-1.041-0.912-1.108-0.978c-1.02-0.857-3.3-5.349-3.3-5.349
				c-0.034-0.076,0-0.151,0.126-0.115c1.117,0.33,5.228,1.456,6.247,2.264l1.236,0.995c0.273-0.313,0.559-0.04,0.783,0.146
				c0,0,1.283,1.124,1.396,1.224c0,0,0.338,0.307,0.102,0.606l3.727,3.219c0.117,0.097,0.129,0.267,0.037,0.379l-2.555,2.942
				C74.664,20.902,74.49,20.911,74.385,20.818z M77.753,28.351c-0.209,0.268-0.59,0.543-1.103,0.543
				c-0.659,0-1.372-0.368-1.482-1.317h0.73c0.077,0.362,0.322,0.59,0.725,0.59c0.718,0,0.718-0.613,0.718-1.093
				c0-0.557-0.138-0.981-0.736-0.981c-0.279,0-0.485,0.123-0.663,0.427h-0.686v-2.758h2.708v0.736h-2.022v1.151
				c0.245-0.198,0.498-0.278,0.819-0.278c0.381,0,0.728,0.166,0.902,0.362c0.282,0.301,0.399,0.554,0.399,1.398
				C78.063,27.809,77.977,28.073,77.753,28.351z M80.473,28.894c-0.844,0-1.55-0.626-1.55-1.527c0-0.485,0.217-0.892,0.602-1.144
				c-0.299-0.275-0.511-0.588-0.511-1.029c0-0.826,0.63-1.469,1.459-1.469c0.822,0,1.448,0.643,1.448,1.469
				c0,0.441-0.199,0.754-0.503,1.029c0.387,0.251,0.607,0.658,0.607,1.144C82.026,28.267,81.314,28.894,80.473,28.894z"/>
		</g>
		<path fill="#1D1D1B" d="M80.473,25.907c0.371,0,0.724-0.244,0.724-0.729c0-0.474-0.353-0.724-0.724-0.724s-0.73,0.25-0.73,0.724
			C79.742,25.663,80.102,25.907,80.473,25.907z"/>
	</g>
</g>
</svg>
