<svg class="logo" version="1.1" xmlns="http://www.w3.org/2000/svg" xmlns:xlink="http://www.w3.org/1999/xlink" width="260px" x="0px" y="0px" viewBox="0 0 260 75.9" xml:space="preserve">
	<g>
		<rect x="171.2" y="72.5" class="shape" width="25.4" height="3.4"></rect>
		<polygon class="shape" points="234.6,0 234.6,25.3 213.5,25.3 213.5,48.9 192.3,48.9 192.3,63.3 217.7,63.3 217.7,50.6 238.9,50.6 
			238.9,38 260,38 260,0 	"></polygon>
		<rect y="25.3" width="3.3" height="25.4"></rect>
		<path d="M20.1,33.5c-2.5-0.2-4.8,1.2-5.8,3.5v-3h-3.2v16.7h3.2v-8.8c0-3.4,1.6-5.6,4.7-5.6c3,0,4.2,1.8,4.2,5.5v8.9h3.1V40.4
			C26.3,35.9,24.2,33.5,20.1,33.5z"></path>
		<polygon points="39.1,46.5 33.8,34 30.5,34 37.8,50.7 40.4,50.7 47.8,34 44.4,34 	"></polygon>
		<path d="M58.9,33.5c-5,0-8.2,3.5-8.2,8.8c0,5.4,3.2,8.8,8.4,8.8c3.9,0,7-2.1,7.6-5.2h-3.2c-0.7,1.6-2.2,2.5-4.4,2.5
			c-3.2,0-5.2-1.9-5.3-5.1h12.9c0.1-0.6,0.1-1.2,0.1-1.8c0-0.2,0-0.5,0-0.7C66.6,36.5,63.1,33.3,58.9,33.5z M53.8,40.8
			c0-0.1,0-0.2,0-0.4c0.2-2.6,2.5-4.6,5.1-4.4c3,0,4.9,1.8,4.9,4.7h-10V40.8z"></path>
		<path d="M81.2,41.4l-3.4-0.9c-1.8-0.5-2.4-1.3-2.4-2.3c0-1.4,1.3-2.2,3-2.2c2.2,0,3.4,1,3.4,2.6h3.1c0-3.1-2.4-5-6.4-5
			c-3.6,0-6.2,2-6.2,4.8c0,2.3,1.3,3.9,3.8,4.6l3.4,0.9c2,0.5,2.5,1.3,2.5,2.4c0,1.5-1.2,2.4-3.1,2.4c-2.5,0-4-1.3-4-2.9h-3.1
			c0,3.1,2.8,5.4,6.9,5.4c4,0,6.5-1.8,6.5-5C85.1,43.7,83.7,42.1,81.2,41.4z"></path>
		<path d="M95.3,44.4v-7.8h4.2V34h-4.2v-5.3h-3.2V34h-3v2.6h3v8.5c0,5.4,3.2,5.8,5.1,5.8c0.9,0,1.9-0.1,2.8-0.3v-2.8
			c-0.7,0.1-1.4,0.2-2.1,0.2C96.3,48.1,95.3,47.6,95.3,44.4z"></path>
		<rect x="106" y="34" width="3.1" height="16.7"></rect>
		<circle cx="107.6" cy="28.6" r="2.6"></circle>
		<path d="M125.7,33.5c-2.5-0.2-4.8,1.2-5.8,3.5v-3h-3.2v16.7h3.2v-8.8c0-3.4,1.6-5.6,4.7-5.6c3,0,4.2,1.8,4.2,5.5v8.9h3.1V40.4
			C131.9,35.9,129.8,33.5,125.7,33.5z"></path>
		<path d="M146.7,33.5c-5.4,0-8.7,3.9-8.7,8.8s3.3,8.8,8.7,8.8s8.7-3.9,8.7-8.8S152.1,33.5,146.7,33.5z M146.7,48.3
			c-3.5,0-5.6-2.6-5.6-5.9c0-3.4,2.1-6,5.6-6s5.5,2.6,5.5,6C152.3,45.7,150.2,48.3,146.7,48.3z"></path>
		<path d="M171.2,33.8c-0.5-0.1-1-0.2-1.5-0.1c-2.4,0-4.5,1.7-4.9,4.1V34h-3.2v16.7h3.2v-7.3c0-3.7,1.6-6.7,4.9-6.7
			c0.5,0,1,0,1.6,0.1v-3H171.2z"></path>
	</g>
</svg>