<?xml version="1.0" encoding="utf-8"?>
<!-- Generator: Adobe Illustrator 19.1.0, SVG Export Plug-In . SVG Version: 6.00 Build 0)  -->
<svg version="1.1" xmlns="http://www.w3.org/2000/svg" xmlns:xlink="http://www.w3.org/1999/xlink" x="0px" y="0px"
	 viewBox="0 0 686.9 496.2" style="enable-background:new 0 0 686.9 496.2;" xml:space="preserve">
<style type="text/css">
	.st0{fill:#FFFFFF;}
</style>
<g id="SKJOLD_NEGATIV">
	<g>
		<g>
			<g>
				<path class="st0" d="M229,247.8c0.1,82.4,71.5,119.2,114,133.8l0.5,0.2l0.5-0.2c21.1-7.6,51.2-21.5,75.2-44.7
					c25.7-24.9,38.7-54.8,38.7-89.1l0-208.4v-0.8l-0.7-0.4C420,12.8,381.7,0,343.5,0c-38.1,0-76.4,12.8-113.8,38.2l-0.7,0.4v0.8
					V247.8z M231.3,40.6C268.3,15.6,306,3,343.5,3c37.6,0,75.3,12.7,112.2,37.7l-0.7-1.2l0,208.4c0,33.4-12.7,62.6-37.8,86.9
					c-23.6,22.9-53.4,36.6-74.2,44.1l1,0c-41.8-14.3-111.9-50.4-112-131c0,0,0-208.4,0-208.4L231.3,40.6z"/>
			</g>
		</g>
		<g>
			<g>
				<path class="st0" d="M295.9,88c-13.1,5-22,11-23.9,12.7c-4.1,3.9-2.5,7.4-2.5,7.6l0.4,0v0c0,0-0.2-2.9,3.3-6.3
					c1.5-1.5,10-7.3,23.3-12.4L295.9,88z"/>
				<path class="st0" d="M346.9,78.6c0,0-1.7-0.1-2.9-0.1c-1.2,0-3,0.1-3,0.1c-11.7,0.6-27.3,3.4-41,8l0.5,1.6
					c13.5-4.6,29-7.3,40.5-7.9c0,0,1.4-0.1,2.9-0.1c1.4,0,2.9,0.1,2.9,0.1c11.6,0.6,27,3.3,40.6,7.9l0.5-1.6
					C374.2,81.9,358.6,79.2,346.9,78.6z"/>
				<path class="st0" d="M392,88c13.1,5,22,11,23.9,12.7c4.1,3.9,2.5,7.4,2.5,7.6l-0.4,0v0c0,0,0.2-2.9-3.3-6.3
					c-1.5-1.5-10-7.3-23.3-12.4L392,88z"/>
			</g>
			<path class="st0" d="M430.8,93.2c-6.5-8.9-20.9-11.9-35-12.8c-0.7-14.3-26.5-15.3-46.4-11.5l0,0c-2-2.7-8.6-2.6-10.7,0h0
				c-19.9-3.8-45.8-2.9-46.4,11.5c-14.1,0.8-28.5,3.9-35,12.8c-6.4,8.8,6.2,17.7,6.2,17.7l2.8-2.4c0,0-21.1-17.1,26.4-25.6
				c2.3,6.3,6.7,9.3,6.7,9.3l2.4-1.7c0,0-14.3-26.9,36.9-18.4l3.1,11c0,0-0.1-0.6,1-0.5c0,0-1.4-10.2-1-11.3c0.6-1.5,4-1.5,4.6,0
				c0.4,1-1,11.3-1,11.3c1.1,0,1,0.5,1,0.5l3.1-11c51.2-8.5,36.9,18.4,36.9,18.4l2.4,1.7c0,0,4.4-3,6.7-9.3
				c47.4,8.5,26.4,25.6,26.4,25.6l2.8,2.4C424.5,110.9,437.2,102,430.8,93.2z M264.2,108.2C264.2,108.2,264.2,108.2,264.2,108.2
				C264.2,108.2,264.2,108.2,264.2,108.2C264.2,108.2,264.2,108.2,264.2,108.2c0.2,0.2,0.4,0.4,0.5,0.5c0,0,0,0,0,0c0,0,0,0,0,0.1
				c-0.1,0-0.5-0.4-1.3,0.2c-0.9-0.6-2-1.5-2.9-2.6c-5.6-6.5-9.8-20.9,31-24.5C248,89.7,261.4,105.4,264.2,108.2z M300.4,90.4
				c0,0.1,0,0.1,0,0.1c0,0.5-1.1-0.2-1.1,0.3c0,0,0,0.1,0,0.1c0,0,0,0,0,0c0,0,0,0,0,0c-3.1-3.4-4.8-7.1-4.8-10.5
				c-0.2-8.5,9.6-15.5,36.5-11.1c0.5,0.1,1,0.1,1.5,0.2c-0.2,0-0.3,0-0.5,0c1.7,0.3,3.5,0.6,5.4,1C289,65,298.3,85.7,300.4,90.4z
				 M389,91c0-0.1,0-0.3-0.1-0.3c-0.1,0.1-0.2,0.2-0.3,0.4c0.2-0.8-1.3,0.2-1.1-0.6c0-0.1,0.1-0.2,0.1-0.3c-0.1-0.1-0.1-0.2-0.1-0.3
				c2.1-4.7,11.7-24.9-36.6-19.3c1.6-0.4,3.1-0.7,4.6-1c0,0-0.1,0-0.1,0c0.1,0,0.2,0,0.2,0c22.1-4.3,33.4,0.1,36.6,6.7
				c0.9,1.6,1.2,3.5,1,5.3C393.2,84.8,391.6,88.1,389,91z M424.9,109c-0.1,0-0.1-0.1-0.2-0.1c-0.1,0-0.1,0.1-0.2,0.1
				c-0.3-0.2-0.5-0.3-0.7-0.3c-0.1,0-0.2,0.1-0.2,0.1c0,0,0,0,0.1-0.1c-0.3,0-0.4,0.1-0.5,0.1c0.1-0.1,0.3-0.3,0.5-0.5
				c0.3,0.1,0.1,0,0,0c1.2-1.2,3.9-4,4.5-7.6c0.8-6-4.2-13.9-31.4-18.8C444.9,86.1,430.5,105.4,424.9,109z"/>
			<path class="st0" d="M430.2,111.7c-0.1-0.1-1.6-1.7-4.4-2.9c-14.4-6.5-10.9,8.1-11,9.3c-1.1-3.7-10-9.5-12.2,0.9
				c-2.3,11,6.7,8,8,8.2c-2.1,3.1-6.6,3.1-16.2-0.8c-11-4.5-12.9-7.4-10.4-12.9c1,6.6,9,8.2,11.6,1.7c5.9-14.6-6.5-10.5-8.2-9.9
				c2-3.3,5.3-5.1,5.4-9c0.2-6.3-8.6-7.8-11.6-5.6c-4.7,3.6-1.8,12.1-1.8,13c-1.1-1.4-9.6-12.8-12.5,2.8c-1.3,6.9,6.3,10,10.9,4.6
				c-0.8,5.5-5.6,7.4-16.9,5.6c-16.8-2.6-13.5-10.7-13.5-10.7c0.2,0.3,6.6,10.6,11.8-1.2c5.7-13-9.2-9-11.4-6.1
				c1.3-6,6.8-9.3,3.6-13.2c-4-4.9-11.8-4.6-15.2,0c-3,4.1,2.3,7.2,3.6,13.2c-2.1-2.9-17.1-6.9-11.4,6.1c5.2,11.8,11.6,1.5,11.8,1.2
				c0,0,3.3,8.1-13.5,10.7c-11.3,1.8-16.1-0.1-16.9-5.6c4.7,5.4,12.2,2.3,10.9-4.6c-2.9-15.6-11.4-4.2-12.5-2.8c0-0.9,3-9.4-1.8-13
				c-3-2.2-12.1-0.7-11.6,5.6c0.4,4.1,4.2,6,5.4,9.2c-1.7-0.5-14.1-4.9-8.2,9.7c2.6,6.5,10.6,4.9,11.6-1.7
				c2.5,5.5,0.6,8.4-10.4,12.9c-9.6,3.9-14.1,4-16.2,0.8c1.3-0.3,10.1,3,8-8.2c-1.9-10.4-11.2-4.7-12.2-1c0-1.2,3.4-15.8-11-9.3
				c-2.8,1.3-4.3,2.9-4.4,2.9l-0.5,0.5l0.4,0.6l25.1,34.7c0,0,21.2-17.7,61.2-17.7h0v0v0h0c40,0,61.2,17.7,61.2,17.7l25.1-34.7
				l0.4-0.6L430.2,111.7z M426.4,114.6c-2.9,3.8-20.7,28.2-20.9,28.4l-0.7,0.9l-1-0.6c-8.4-4.7-31-15.8-59.9-15.9h0
				c-28.9,0.1-51.5,11.1-59.9,15.9l-1,0.6l-0.7-0.9c-0.2-0.2-18-24.6-20.9-28.4l-0.3-0.4l0-0.5c0-0.2,0.2-1.7,2-2.9
				c3.3-2.3,6.5-1.7,7.5-1.1c1.9,1.1,1.5,9.4,1.6,10.2c1.6-2.2,4.2-5.2,6.8-5c1.8,0.1,3.2,1.4,4.2,3.8c1.6,4.1,0.2,6.3-1,7.1
				c-1.9,1.1-4.7,0.9-6.9,0.1c0.4,0.9,0.9,2.4,1.9,3.2c2.8,2.2,8.4,1.6,14.9-0.6c7.7-2.6,12.7-6.4,13.5-10.2
				c0.5-2.5-0.4-5.1-1.8-6.7c-1,2.1-2.9,6-5.3,6.2c-1.7,0.1-3.2-1-4.5-3.4c-1.8-3.4-2.1-5.8-0.7-7.4c1.8-2.1,8.3-0.9,9-0.6
				c0.8,0.3-0.4-1.2-0.8-1.7c-2.1-2.6-4.1-4.4-4.1-6.7c0-2.1,0.9-3.8,2.5-4.7c2.1-1.2,5.3-1,6.7,0.3c1.3,1.2,1.5,3.9,0.6,9.8
				c-0.1,0.6-0.9,3.3,0.2,1.8c1.1-1.4,6.4-5.8,9.1-4.7c1.8,0.7,2.8,2.8,2.8,6.4c0,2.5-0.7,4.1-2.2,4.9c-2.3,1.1-6.2-0.9-8.1-2.1
				c-0.2,1.5,0,3.6,1.3,5.4c2.2,2.8,7.7,4.3,15.2,3.6c7.8-0.8,12.3-3.3,14.5-6.5c1.4-2,2.5-5.5,1.6-8.6c-1.1,1.6-5.2,5-7.2,4.9
				c-1.8-0.1-3.2-1.5-4.3-4.2c-1-2.6-0.9-5.3,0.3-6.5c2-1.8,7.9,1,10.8,2.2c-0.3-1.3-0.7-2.4-1.2-4c-0.4-1.4-0.9-2.4-1.3-3.1
				c-0.7-1.4-2.1-3.1-1.1-4.9c1.1-2.1,3.3-3.3,6-3.3c0,0,0,0,0,0h0l0,0c0,0,0,0,0,0l0,0c2.7,0,4.9,1.2,6,3.3c1,1.8-0.4,3.5-1.1,4.9
				c-0.4,0.8-0.8,1.7-1.3,3.1c-0.5,1.6-0.9,2.7-1.2,4c2.9-1.2,8.8-4.1,10.8-2.2c1.3,1.1,1.4,3.8,0.3,6.5c-1.1,2.7-2.5,4.2-4.3,4.2
				c-2,0.1-6.1-3.3-7.3-4.9c-0.7,4.8,1,7.6,1.6,8.6c2.3,3.2,6.7,5.8,14.5,6.5c7.5,0.7,13-0.8,15.2-3.6c1.3-1.7,1.7-4.7,1.5-6.1
				c-2,1.2-6,4-8.3,2.9c-1.5-0.7-2.2-2.4-2.2-4.9c0.1-3.6,1-5.7,2.8-6.4c2.7-1.1,8.6,5.1,9.1,4.2c0.2-0.5-0.1-1.5-0.1-2.1
				c-0.4-3.9-0.5-8,1.2-9.2c1.6-1.1,4.3-1.4,6.4-0.2c1.6,0.9,2.5,2.5,2.5,4.7c0,2.3-1,3.5-3.2,6.1c-0.4,0.5-2.7,2.4-1.6,2.1
				c1.2-0.3,7.1-1.3,8.9,0.8c1.4,1.6,1.2,4-0.7,7.4c-1.3,2.4-2.8,3.5-4.5,3.4c-2.4-0.2-4.2-4.3-5.2-6.4c-1,1.4-2.7,4.3-2.2,6.8
				c0.8,3.8,6.1,7.7,13.8,10.3c6.5,2.2,11.9,2.7,14.8,0.6c1.1-0.8,1.8-2.5,2.2-3.4c-2.2,0.8-5.1,1.1-7.2,0.4
				c-1.4-0.5-2.5-2.4-1.1-7.4c0.7-2.5,2.4-3.7,4.2-3.8c2.5-0.2,5,2.3,6.6,4.5c0.1-0.8,0.2-1.6,0.3-2.4c-0.4-3.5,0.5-6.1,2.4-7.2
				c1-0.6,3.2-1.3,6.6,1c1.8,1.3,2,2.8,2,2.9l0,0.5L426.4,114.6z"/>
			<path class="st0" d="M344,38.2c-7.5,0-13.7,6.1-13.7,13.7c0,6.2,4.1,11.4,9.8,13.1l0.7,2.6c0.5-0.2,1-0.3,1.6-0.4
				c-0.1-0.6-0.1-1.2-0.2-1.7c0.6,0.1,1.2,0.1,1.7,0.1c0.6,0,1.2,0,1.7-0.1c0,0.5-0.1,1.1-0.2,1.7c0.5,0.1,1.1,0.2,1.6,0.4l0.7-2.5
				c5.7-1.7,9.8-6.9,9.8-13.1C357.7,44.3,351.5,38.2,344,38.2z M343.1,40.5c0,0,0.4-0.1,0.9-0.1s1,0.1,1,0.1V53h-1.9V40.5z
				 M332.6,51.8c0-5.8,4.3-10.6,9.9-11.3v12.4h-9.9C332.6,52.6,332.6,52.2,332.6,51.8z M344,63.2c-4.9,0-9-3-10.6-7.3h21.3
				C353,60.1,348.8,63.2,344,63.2z M355.1,54.4c-0.2,0.7-0.3,0.9-0.3,0.9h-21.6c0,0-0.1-0.2-0.3-0.9c-0.1-0.6-0.2-0.8-0.2-0.8h22.6
				C355.3,53.5,355.3,53.8,355.1,54.4z M345.5,52.9V40.6c5.6,0.7,9.9,5.5,9.9,11.3c0,0.4,0,0.7-0.1,1.1H345.5z"/>
			<path class="st0" d="M347.2,23.2V15h-6.5v8.1h-9.1v6.5h9.1v9.8l0.6-0.1c0,0,1.8-0.2,2.7-0.2c0.9,0,2.5,0.2,2.5,0.2l0.6,0.1v-9.8
				h9.1v-6.5H347.2z"/>
			<path class="st0" d="M297.1,208.1l37.5,3l1.8-5h-0.1l-0.7,2.1l-38.5-1.9c0,0-2.1,0-2.1-2.6c0-2.5,2.1-2.7,2.1-2.7l40.6-1.3
				l2.6-30.3c0.1-1.4,1.4-2.3,3.7-2.3v0l0,0c2.1,0,3.4,0.9,3.5,2.3l2.5,30.3l41,1.3c0,0,2.1,0.1,2.1,2.7c0,2.5-2.1,2.6-2.1,2.6
				l-38.6,1.9l1,3l37.5-3c0.4,0,4.6-0.3,4.6-4.1c0-4.3-3.2-4.8-5.1-4.9l-37.6-2.1c-0.3-3.9-1.7-18.8-2-25.2c-0.3-6.1-4-7.4-5.6-7.7
				c0,0-0.4-0.1-0.8-0.1c-0.1,0-0.3,0-0.4,0l0,0v0c-0.1,0-0.3,0-0.4,0c-0.4,0-0.8,0.1-0.8,0.1c-1.6,0.3-5.3,1.6-5.6,7.7
				c-0.3,6.3-1.6,21.3-2,25.2l-37.6,2.1c-2,0.1-5.1,0.6-5.1,4.9C292.5,207.8,296.7,208.1,297.1,208.1z M392,272.7l6,2.7
				c0,0-4.1,7.6-18.7,19.9l1.1,1.8c0.1,0,0.1-0.1,0.2-0.1l0,0c12.6-9.1,19.3-22.5,19.3-22.5l-5.2-1.8l10.8-4.2
				c-1.8,5.8-6.6,20.2-22.6,32c-0.4,0.3-0.7,0.5-1.1,0.8l-0.4-1.4c-0.4,0.3-0.9,0.6-1.3,0.9l1.2,0.9c-11.2,7.2-25,10.6-37.3,10.6
				c-12.5-0.1-26.6-3.6-37.9-11.2l1.1-0.8c-0.4-0.3-0.8-0.5-1.1-0.8l-0.3,1.1c-0.2-0.1-0.3-0.2-0.5-0.4
				c-16-11.8-21.1-26.1-22.9-31.8l10.8,4.2l-5.2,1.8c0,0,6,13.1,18.7,22.2l1-1.9c-14.6-12.4-17.8-19.4-17.8-19.4l6-2.7l-15.4-6.5
				c0,0,3.2,21.7,23.5,36.6c12.1,9,26.2,14.3,39.8,14.4l0,0c0,0,0.1,0,0.1,0s0.1,0,0.1,0v0c13.7-0.1,27.7-5.4,39.8-14.4
				c20.2-14.9,23.4-36.6,23.4-36.6L392,272.7z M352.8,306c4.2,0,15.6-2.1,22.4-5.8l2.2-1.3l0,0l0.5-0.3l-1-1.9l-2.8,1.6
				c-6.6,3.5-17.9,4.9-20.8,4.9c-2.9,0-3.6-0.7-3.6-3.6l0.1-22.3l-3.5-2.1v0.3l1.3,0.6v25.3C347.7,305.6,350.7,306,352.8,306z
				 M334.6,303.2c-2.9,0-14.2-1.3-20.8-4.9l-2.9-1.6l-1,1.9l0.1,0l0,0l2.8,1.6c6.8,3.7,18.2,5.8,22.4,5.8c2.1,0,5.1-0.4,5.1-4.6
				v-25.4l1.3-0.6v-0.2l-3.5,2.1l0.1,22.3C338.2,302.5,337.5,303.2,334.6,303.2z"/>
			<path class="st0" d="M406.3,228.5H360L345,186l-1-3.1l-1,3.1l-15.6,42.5h-46.3l2.8,1.9l36.2,26l-15.2,45.8l39.1-28l38.5,28.4
				l-15.2-46.2l36.2-26L406.3,228.5z M363.9,255.2l-0.7-0.2l0.1,0.4l0.7,0.2l0-0.1l14.2,40.8l-4.7-6.6l0.8,2.5l3.2,4.5l-33.1-26.1
				v-1.3l-0.4-0.3l-0.5,0.3v1.3l-34,25.8l4.1-5.6l-1.9,1.4l0.4-1.1l-3.3,4.5l14.4-40.3l-0.1,0L287.8,231l5,1.6l-1.1-0.8h1.5
				l-5.2-1.7l41.1,1l0.6,0.7h0.2l-0.4-0.5l14.1-43v7.2l0.4-1.2l0.5,1.5v-7.7l13.4,42.4l-0.9,1.2h0.9l0.5-0.7l40.8-1l-5.1,1.7h1.2
				l-1.3,0.9l5.9-1.9L363.9,255.2z"/>
			<g>
				<g>
					<polygon class="st0" points="286.5,230.5 343.8,249.4 343.6,249.2 378.5,298.2 379.2,297.8 344.3,248.7 344.2,248.6 
						344.1,248.6 286.8,229.7 					"/>
				</g>
				<g>
					<polygon class="st0" points="308.5,297.8 344.3,249.2 344.1,249.4 402.1,230 401.8,229.2 343.8,248.6 343.7,248.6 343.6,248.7 
						307.8,297.3 					"/>
				</g>
				<g>
					<polygon class="st0" points="343.5,187.5 343.5,249 343.5,270.8 344.4,270.8 344.4,249 344.4,187.5 					"/>
				</g>
				<g>
					<polygon class="st0" points="320.2,256.7 344.1,249.4 343.9,249.4 367,256.7 367.2,255.9 344.1,248.6 344,248.5 343.9,248.6 
						320,255.9 					"/>
				</g>
				<g>
					<polygon class="st0" points="327.1,228.7 343.6,249.2 344,249.7 344.3,249.2 360.3,228.7 359.6,228.2 343.6,248.7 344.3,248.7 
						327.8,228.2 					"/>
				</g>
			</g>
			<path class="st0" d="M292.9,306.8c-1.4,0-2.8,0.2-4.1,0.7l0,0c0.4,0.3,0.7,0.6,0.9,1c1-0.3,2.1-0.5,3.2-0.5
				c6.1,0,11.1,5,11.1,11.1c0,0.2,0,0.5,0,0.7c0.3,0.1,0.6,0.2,0.9,0.5l0,0c0-0.5,0.1-0.9,0.1-1.3
				C305,312.2,299.5,306.8,292.9,306.8z M300.4,331.3c-2.3,1.4-4.9,2.1-7.6,2.1c-8,0-14.5-6.5-14.5-14.5c0-1.3,0.2-2.7,0.6-4
				c-0.2-0.1-0.5-0.3-0.7-0.5c-0.3-0.2-0.5-0.5-0.7-0.8c-0.6,1.7-1,3.6-1,5.5c0,9,7.4,16.4,16.4,16.4c3.4,0,6.5-1,9.1-2.8
				c-0.1,0-0.1-0.1-0.2-0.1C301.1,332.1,300.7,331.7,300.4,331.3z M272.4,211.2c-0.3,0.7-0.7,1.2-0.9,1.4c0,0.1,0,0.1,0,0.1
				c2.7,2.7,4.2,6.3,4.2,10.2c0,7.7-6,14.1-13.8,14.5c-0.2,0.8-0.5,1.6-0.6,2.1c9-0.1,16.3-7.4,16.3-16.4
				C277.6,218.4,275.6,214.2,272.4,211.2z M262,206.8c-0.3,0-0.5,0-0.8,0c-9,0-16.4,7.3-16.4,16.4c0,5.8,3,10.9,7.5,13.8
				c-0.3-1-0.3-1.9-0.1-2.5l-0.1-0.1c-3.5-2.8-5.5-6.9-5.5-11.3c0-8,6.5-14.5,14.5-14.5h0.1c0.1-0.3,0.2-0.6,0.3-0.9
				C261.6,207.3,261.8,207,262,206.8z M292.9,302.7c-3,0-5.8,0.8-8.2,2.2c0.6,0.5,1,0.9,1.2,1.3l0.1,0c2.1-1.1,4.5-1.8,6.9-1.8
				c8,0,14.5,6.5,14.5,14.5c0,1.2-0.1,2.4-0.4,3.5l0,0.2c0.3,0.1,1,0.2,1.8,0.7c0.4-1.3,0.6-2.8,0.6-4.2
				C309.3,310,301.9,302.7,292.9,302.7z M330.9,169.2c-0.1,0-0.1,0-0.2,0c-0.6,0.1-1.3,0.1-1.8,0.1c1.6,3.7,4.4,6.6,8,8.3
				c0.1-0.7,0.1-1.5,0.1-2.2l-0.1-0.1C334.3,174,332.2,171.8,330.9,169.2z M252.2,214.8c-2,2.2-3.2,5.1-3.2,8.1c0,2.8,1,5.4,2.7,7.6
				c0-0.3,0.1-0.6,0.3-0.9c0-0.1,0.1-0.1,0.1-0.2c-1.3-1.8-2-4-2-6.3c0-5.1,3.5-9.5,8.3-10.7c0.3-0.6,1-1.1,1.6-1.5
				C257,211.2,254.2,212.6,252.2,214.8z M394.9,330.1c-1.3,0-2.6-0.2-3.8-0.7c-0.2,0.2-0.3,0.4-0.5,0.6c0,0-0.1,0.1-0.1,0.1
				c1.4,0.6,2.9,0.8,4.4,0.8c6.7,0,12.1-5.4,12.1-12.1c0-1.2-0.2-2.3-0.5-3.4c-0.2,0-0.3,0-0.3,0s0,0.9-0.4,1.9
				c0.1,0.6,0.1,1.1,0.1,1.7C406,325.2,401,330.1,394.9,330.1z M425,234.9l0.2,0c0.1-0.1,0.1-0.2,0.1-0.2s-0.2-0.3-0.5-0.7
				c-5.2-0.9-9.2-5.4-9.2-10.9c0-2.4,0.8-4.6,2.1-6.4c-0.2-0.3-0.4-0.7-0.6-1.1c-1.6,2.1-2.5,4.7-2.5,7.3
				C414.5,229,419,234.2,425,234.9z M261.8,235l0.1,0c6.4-0.4,11.4-5.7,11.4-12.1c0-2.5-0.8-4.9-2.2-6.9c-0.2,0.4-0.4,0.7-0.7,1
				c1.2,1.8,1.9,3.9,1.9,6.1c0,5.8-4.5,10.6-10.2,11c-0.2,0.4-0.4,0.6-0.4,0.6S261.7,234.9,261.8,235z M292.9,331
				c1.2,0,2.4-0.2,3.6-0.5c-0.3-0.2-0.6-0.4-0.7-0.7c-0.9,0.2-1.8,0.4-2.8,0.4c-6.1,0-11.1-5-11.1-11.1c0-0.1,0-0.2,0-0.3
				c-0.5-0.5-0.7-1.2-0.9-1.8c-0.1,0.7-0.2,1.3-0.2,2C280.8,325.6,286.2,331,292.9,331z M334.5,168.7c-0.5-0.1-0.9-0.2-1.3-0.3
				c0.9,1.7,2.3,3.2,4,4.4c0-0.3,0-0.7,0-1c0,0,0-0.1,0-0.1C336.1,170.8,335.2,169.8,334.5,168.7z M424.9,237.3L424.9,237.3
				c-7.3-0.8-12.8-7-12.8-14.4c0-4,1.6-7.7,4.5-10.5c-0.2-0.3-0.6-0.8-0.9-1.5c-3.3,3-5.4,7.3-5.4,12.2c0,8.7,6.8,15.8,15.4,16.3
				C425.4,239,425.1,238.2,424.9,237.3C424.9,237.3,424.9,237.3,424.9,237.3z M437.7,223.1c0,2.7-1,5.2-2.6,7.1
				c0.1,0.5,0.1,0.9,0,1.3c2.3-2.3,3.6-5.4,3.6-8.6c0-5.9-4.4-11.1-10.3-12c0.6,0.4,1.2,0.9,1.5,1.6
				C434.4,214,437.7,218.2,437.7,223.1z M408.7,314.4C408.7,314.4,408.7,314.4,408.7,314.4c0.5,1.5,0.7,3,0.7,4.5
				c0,8-6.5,14.5-14.5,14.5c-2.9,0-5.8-0.9-8.2-2.6c-0.4,0.4-1,0.9-1.9,1.1c2.8,2.2,6.3,3.5,10.1,3.5c9,0,16.4-7.3,16.4-16.4
				c0-2.3-0.5-4.5-1.4-6.5C409.7,313.2,409.3,313.9,408.7,314.4z M433.9,232.9C433.9,232.9,433.9,233,433.9,232.9
				c0.1,0.1,0.1,0.1,0.1,0L433.9,232.9C433.9,232.9,433.9,232.9,433.9,232.9z M426.6,206.8c-0.1,0-0.3,0-0.4,0
				c0.2,0.2,0.3,0.5,0.5,0.8c0.1,0.3,0.2,0.6,0.3,0.9h0.1c3.8,0.1,7.3,1.7,10,4.4c2.7,2.7,4.1,6.3,4.1,10.1c0,4.7-2.3,9.2-6.2,11.9
				l0,0c0,0,0,0-0.1,0c0.1,0.7,0,1.6-0.5,2.7c5.2-2.8,8.7-8.2,8.7-14.5C443,214.1,435.6,206.8,426.6,206.8z M353.6,157.5
				c0.5-0.1,1,0,1.3,0.2c-2-4.3-6.3-7.1-11-7.1c-4.9,0-9.4,3-11.2,7.6c0.3-0.3,0.8-0.6,1.5-0.6c1.9-3.4,5.5-5.7,9.7-5.7
				C348.1,151.8,351.7,154.1,353.6,157.5z M354.8,168.4c-0.4,0.1-0.9,0.2-1.5,0.3c-0.7,1-1.5,2-2.5,2.7c0,0.1,0,0.2,0,0.3
				c0,0.3,0,0.6,0,0.9C352.5,171.6,353.8,170.1,354.8,168.4z M357.1,169.2c-1.3,2.6-3.4,4.8-6,6.2l-0.1,0c0,0.7,0.1,1.3,0.1,2.1
				c3.5-1.7,6.2-4.6,7.8-8.2c-0.4,0-0.9,0-1.4-0.1C357.4,169.2,357.2,169.2,357.1,169.2z M343.9,146.5c-8.1,0-14.9,5.9-16.2,13.7
				c0.7-0.5,1.3-0.8,1.9-0.9c0.1-0.1,0.1-0.2,0.1-0.2c1.7-6.3,7.6-10.8,14.2-10.8c6.5,0,12.4,4.6,14.1,11c0,0,0,0-0.1,0
				c0.6,0,1.3,0.2,2.1,0.7C358.5,152.2,351.9,146.5,343.9,146.5z M380.3,318.9c0-8,6.5-14.5,14.5-14.5c2.2,0,4.3,0.5,6.2,1.4
				l0.2,0.1c0.3-0.3,0.7-0.8,1.3-1.2c-2.3-1.2-4.9-1.9-7.7-1.9c-9,0-16.4,7.3-16.4,16.4c0,1.6,0.2,3.2,0.7,4.7
				c0.4-0.3,0.8-0.6,1.2-0.8c0.2-0.1,0.3-0.2,0.5-0.2l0-0.2C380.5,321.3,380.3,320.1,380.3,318.9z M394.9,308c0.8,0,1.7,0.1,2.5,0.3
				c0.3-0.3,0.6-0.7,1.1-0.9l0,0c-1.1-0.4-2.3-0.5-3.5-0.5c-6.7,0-12.1,5.4-12.1,12.1c0,1,0.1,2,0.4,3l0,0c0.2-0.3,0.5-0.6,0.8-0.9
				c-0.1-0.6-0.2-1.3-0.2-1.9C383.8,313,388.8,308,394.9,308z"/>
			<path class="st0" d="M402.2,190.7c0,0,0.4,1.5,1.8,3.2c1.4,1.7,3.7,2.6,3.7,2.6s0.3,1.7,1.3,3.4c1,1.7,3.4,2.8,3.4,2.8
				s0.3,2.1,0.9,3.2c0.6,1.2,2.5,2.6,2.5,2.6s-0.6,1-0.2,2.1c0.6,1.7,1.4,2.3,1.4,2.3c-0.8,3.9,2.1,5,2.1,5c2.3,1.3,5.5-0.9,5.5-0.9
				s3,0.4,5-2.3c2.1-2.7-2.6-4.4-2.6-4.4s0.5-0.9-0.3-2.7c-0.8-1.8-3-2.6-3-2.6s0-1.5-0.6-3.7c-0.6-2.2-3.9-3.6-3.9-3.6
				s0.2-1.4-0.6-3.1c-1.2-2.5-4.5-4-4.5-4s-0.5-1.4-1.7-3.2c-2-2.9-4.9-2.8-4.9-2.8s-0.6-2.7-1.5-3.7c-1.5-1.6-4.8-2.2-4.8-2.2
				s-0.4-1.4-2.1-3.1c-1.6-1.6-5.4-1.9-5.4-1.9s-0.4-1.7-2.2-3.1c-2.3-1.7-5.4-1.4-5.4-1.4s-0.1-0.8-2.8-2.7
				c-2.7-1.9-5.2-1.2-5.2-1.2s-0.9-1.3-2.7-2.3c-2.3-1.3-5.4-0.6-5.4-0.6s-0.9-1.4-3.6-2.2c-2.8-0.8-5.4,0.4-5.4,0.4
				c-2.5-2.3-4.6-1-4.6-1s-0.4-2.3-2.8-1.9c-5.1,0.8-3.3,4.9-3.3,4.9s-0.9,0.5-1.3,2.7c-0.4,2.2,1.1,3.3,2.8,3.6
				c1.4,0.3,3.9-0.5,3.9-0.5s0.8,0.9,2.1,1c1.3,0.1,2.8,0,2.8,0s0.9,0.9,3.2,1.5c2.3,0.6,4.6-0.1,4.6-0.1s0.1,0.9,2.3,1.9
				c2.2,1,4.4,0.4,4.4,0.4s1.4,2,3.5,3c1.9,0.8,4.3,0.5,4.3,0.5s1.3,1.5,3,2.7c1.7,1.2,4.5,1.7,4.5,1.7s0.9,2,2.1,3.1
				c1.1,1,4.3,1.5,4.3,1.5s1.3,2.3,2.1,3.2C399.3,189.6,402.2,190.7,402.2,190.7z M422.1,217.2c-0.4,0.3-2,0.1-2.6-0.3
				c-0.6-0.3-0.8-0.9-0.8-1.2c0-0.2,0.1-0.4,0.3-0.5c0.1,0,0.3-0.1,0.5,0.1c0.3,0.2,0.7,0.4,1.3,0.6c0.3,0.1,0.6,0.3,1,0.4
				c0.4,0.2,0.5,0.3,0.5,0.5C422.2,217,422.2,217.1,422.1,217.2z M425.9,212.2c0.7,0.2,1.5,1,1.5,1.9c0,0.5-0.3,1.4-2.2,1.8
				c-3.1,0.6-5.9-1.5-7-3c-0.5-0.8-0.7-1.4-0.4-1.7c0.3-0.4,1.1-0.3,2.3,0.3c2,1,3.1,0.8,4.1,0.7
				C424.8,212.1,425.3,212.1,425.9,212.2z M423.8,207.8c0.2,1.6,0.2,2.4-0.2,2.8c-0.4,0.3-1,0.2-2.2-0.2l-0.3-0.1
				c-3.6-1-5.3-1.7-6.1-5.4c-0.1-0.4,0-0.8,0.2-0.9c0.4-0.4,1.2-0.1,2.3,0.3c0.6,0.2,1.3,0.4,1.9,0.6
				C422.2,205.6,423.7,206.6,423.8,207.8z M420.2,201c0.5,1.6,0.7,2.4,0.3,2.8c-0.3,0.4-1,0.2-2.1-0.1l-0.5-0.1
				c-4.4-1.1-6-1.6-7.5-5.4c-0.1-0.2-0.2-0.6,0-0.9c0.4-0.4,1.4-0.1,2.9,0.3c0.6,0.2,1.3,0.4,2,0.5
				C418.2,198.8,419.8,199.7,420.2,201z M415.3,193.7c0.5,1.5,0.7,2.2,0.4,2.7c-0.3,0.4-1,0.3-2.1,0.2l-0.5,0
				c-4.5-0.4-6.2-0.7-7.7-4.2c-0.2-0.4-0.2-0.7,0-0.9c0.4-0.5,1.5-0.3,2.9-0.1c0.7,0.1,1.3,0.2,2,0.2
				C413.2,191.9,414.9,192.5,415.3,193.7z M409.6,187.8c0.6,0.9,0.8,1.5,0.6,2c-0.2,0.5-0.8,0.7-1.8,0.7c-4.7,0.1-7.1-0.8-8.7-3.1
				c-0.3-0.5-0.4-0.8-0.2-1.1c0.3-0.6,1.6-0.6,3.2-0.5c0.7,0,1.5,0.1,2.1,0C406.9,185.6,408.8,186.7,409.6,187.8z M351.3,160.5
				c0.1-0.6,0.4-1,0.9-1.1c0.6-0.1,1-0.1,1.3,0.1c0.1,0.1,0.2,0.2,0.2,0.3l0,0.1l-0.1,0.1c0,0-1.2,0.7-1.5,1.2
				c-0.2,0.2-0.4,0.2-0.4,0.2C351.4,161.3,351.3,160.9,351.3,160.5z M354.1,166.7c0.1,0.4-0.1,0.7-0.4,1c-0.7,0.4-1.8,0.4-2.5-0.3
				c-0.6-0.6-0.8-1.3-0.7-2.1c0.1-0.7,0.5-1.7,1.9-2.6c2.4-1.6,4.3-1.2,4.4-1.1l0,0l0,0c0.2,0.1,0.4,0.3,0.4,0.6
				c0,0.4-0.3,0.7-1,1.1C354.6,164,353.9,166,354.1,166.7z M356.8,167.2c-0.6-0.4-0.9-0.9-0.8-1.4c0.1-1.2,1.8-2.4,3.3-3.2
				c2.2-1.2,3.7-1.4,4.9-0.7c0.1,0.1,0.3,0.1,0.4,0.2c0.6,0.3,1.3,0.7,1.3,1.3c0,0.4-0.4,0.8-1.2,1.1c-1.4,0.6-2.4,1.5-3.2,2.1
				C360,167.9,359,168.7,356.8,167.2z M363.4,168.7c-0.4-0.4-0.5-0.7-0.4-1c0.2-0.9,1.8-1.9,4.8-2.9c1.9-0.6,4.1-1.2,5.3-0.2
				c0.1,0.1,0.2,0.2,0.4,0.3c0.6,0.4,1.2,0.9,1.1,1.5c-0.1,0.4-0.5,0.7-1.4,0.9c-1.3,0.4-2.5,0.9-3.5,1.3
				C367.3,169.6,365.5,170.4,363.4,168.7z M370.5,170.7c-0.3-0.2-0.3-0.5-0.3-0.7c0.3-1.2,4-2.2,5.3-2.5c2.2-0.5,4-0.9,5,0.2
				c0.1,0.1,0.3,0.3,0.6,0.5c0.6,0.5,1.2,1,1.1,1.5c-0.1,0.4-0.5,0.6-1.3,0.8c-1.2,0.3-2.3,0.7-3.2,1.1
				C375.4,172.4,373.5,173.2,370.5,170.7z M385,175.1c-2.6,0.5-4.9,0.9-6.4-1.5c-0.3-0.4-0.3-0.8-0.1-1.2c0.6-1.1,3.1-1.4,5.8-1.7
				l0.4,0c2.4-0.2,3.9,0.2,4.7,1.3c0.1,0.1,0.2,0.2,0.3,0.4c0.5,0.5,1,1.2,0.7,1.7c-0.2,0.4-0.7,0.6-1.6,0.6
				C387.5,174.7,386.2,174.9,385,175.1z M386.3,177.9c-0.3-0.5-0.3-0.9-0.2-1.2c0.5-1,2.7-1.1,4.7-1.3c0.3,0,0.7,0,1-0.1
				c2.4-0.2,3.9,0.2,4.7,1.3c0.1,0.1,0.2,0.2,0.3,0.4c0.5,0.5,1,1.2,0.7,1.7c-0.2,0.4-0.7,0.6-1.6,0.6c-1.3,0-2.5,0.2-3.5,0.4
				C389.9,180.1,387.8,180.4,386.3,177.9z M393.3,182.6c-0.3-0.5-0.4-0.9-0.2-1.2c0.4-0.8,2.1-0.9,3.8-0.9c0.5,0,1,0,1.4-0.1
				c2.4-0.2,3.9,0.2,4.7,1.3c0.1,0.1,0.2,0.2,0.3,0.4c0.5,0.5,1,1.2,0.7,1.7c-0.2,0.4-0.7,0.6-1.6,0.6c-1.2,0-2.2,0.2-3.2,0.3
				C396.7,184.9,394.9,185.1,393.3,182.6z M390.4,324.1c0,0,0.5-0.9-0.5-2.9c-1-2-2.8-2-4.4-1.3c-1.3,0.6-2.8,2.7-2.8,2.7
				s-1.2-0.3-2.3,0.4c-1.1,0.7-2.3,1.7-2.3,1.7s-1.3-0.2-3.5,0.6c-2.3,0.8-3.7,2.8-3.7,2.8s-0.6-0.7-3-0.2c-2.4,0.5-3.8,2.3-3.8,2.3
				s-2.3-0.8-4.6-0.4c-2,0.4-3.8,2.1-3.8,2.1s-2-0.5-4-0.4c-2,0-4.6,1.3-4.6,1.3s-2-1.1-3.5-1.3c-1.5-0.2-4.4,1.2-4.4,1.2
				s-2.4-1.1-3.6-1.4c-1.2-0.3-4.1,0.6-4.1,0.6s-1.2-1-3.4-1.5c-2.1-0.5-4.5,0.1-4.5,0.1s-1.2-1.2-3-2c-1.8-0.8-4.4-0.3-4.4-0.3
				s-1.4-1.5-2.6-2.1c-1.2-0.6-3.5-0.6-3.5-0.6s-0.1-1.2-1-1.8c-1.5-1-2.5-1.1-2.5-1.1c-1.7-3.6-4.6-2.8-4.6-2.8c-2.6,0.3-4,4-4,4
				s-2.6,1.4-2.7,4.8c-0.1,3.4,4.7,2,4.7,2s0.1,1,1.8,2c1.7,1,3.9,0.3,3.9,0.3s0.9,1.3,2.7,2.6c1.8,1.4,5.3,0.7,5.3,0.7
				s0.7,1.3,2.3,2.1c2.5,1.3,6,0.6,6,0.6s1.2,0.9,3.2,1.6c3.3,1.1,5.6-0.6,5.6-0.6s2,1.8,3.5,2.1c2.2,0.4,5.2-1,5.2-1
				s1.1,0.9,3.5,1.3c2.2,0.4,5.5-1.6,5.5-1.6s1.4,1.2,3.6,1.2c2.8,0.1,5.2-2,5.2-2s0.6,0.6,3.9,0.5c3.3,0,4.9-2.1,4.9-2.1
				s1.5,0.5,3.6,0.3c2.6-0.3,4.8-2.7,4.8-2.7s1.6,0.6,4.2-0.3c2.8-1,4.2-3.5,4.2-3.5c3.3,0.4,4.4-1.9,4.4-1.9s1.7,1.7,3.4-0.1
				C394.3,326.4,390.4,324.1,390.4,324.1z M300.1,322.4c0.2-0.5,1.5-1.3,2.3-1.3c0.7-0.1,1.1,0.2,1.3,0.5c0.1,0.2,0.2,0.4,0.1,0.6
				c0,0.1-0.2,0.2-0.5,0.2c-0.4,0-0.8,0.1-1.4,0.2c-0.3,0.1-0.7,0.2-1.1,0.2c-0.4,0.1-0.6,0-0.7-0.1
				C300,322.7,300,322.6,300.1,322.4z M301.2,327.7c-0.4,0.4-0.8,0.7-1.4,1c-0.7,0.3-1.8,0.1-2.3-0.6c-0.3-0.4-0.6-1.3,0.7-2.7
				c2.2-2.4,5.7-2.3,7.4-1.7c0.9,0.3,1.4,0.7,1.3,1.2c0,0.5-0.7,0.9-2.1,1.1C302.8,326.3,301.9,327.1,301.2,327.7z M304.2,331.1
				c-1.1-1.2-1.6-1.8-1.5-2.4c0.1-0.5,0.7-0.7,1.9-1.2l0.3-0.1c3.5-1.3,5.3-1.8,8.1,0.8c0.3,0.3,0.5,0.6,0.4,0.8
				c-0.1,0.5-0.9,0.8-2.1,1.1c-0.6,0.2-1.3,0.4-1.9,0.7C306.8,331.9,305,332,304.2,331.1z M311.1,334.5c-1.4-1-2-1.6-1.9-2.1
				c0.1-0.5,0.7-0.7,1.7-1.2l0.5-0.2c4.2-1.7,5.8-2.2,9.2-0.1c0.1,0.1,0.6,0.4,0.5,0.8c-0.1,0.6-1.1,0.9-2.5,1.4
				c-0.6,0.2-1.3,0.4-1.9,0.7C314,335,312.2,335.2,311.1,334.5z M324.6,336.2c-2.5,1.5-4.3,2-5.3,1.3c-1.3-0.9-1.9-1.4-1.9-1.9
				c0-0.5,0.6-0.8,1.6-1.4l0.4-0.3c3.9-2.3,5.4-3,8.7-1.2c0.4,0.2,0.5,0.4,0.5,0.7c0,0.6-1,1.1-2.3,1.8
				C325.8,335.5,325.2,335.9,324.6,336.2z M327.4,338.9c-1-0.3-1.6-0.8-1.7-1.3c-0.1-0.5,0.3-1.1,1.1-1.7c3.8-2.8,6.2-3.6,8.9-2.6
				c0.5,0.2,0.8,0.5,0.9,0.8c0.1,0.7-1,1.4-2.2,2.3c-0.6,0.4-1.2,0.8-1.7,1.2C330.9,339.1,328.8,339.3,327.4,338.9z M340.9,338.3
				c-1.8,1.6-3.3,2.2-4.6,1.7c-0.1,0-0.3-0.1-0.5-0.1c-0.7-0.2-1.5-0.4-1.6-0.9c-0.1-0.4,0.2-0.8,0.9-1.4c0.9-0.7,1.7-1.4,2.4-2.1
				c1.9-1.8,3.3-3.1,6-2c0.5,0.2,0.8,0.5,0.9,0.9c0.1,0.9-1.2,1.9-2.5,2.9C341.7,337.7,341.3,338,340.9,338.3z M349.2,338.5
				c-1.8,1.6-3.3,2.2-4.6,1.7c-0.1,0-0.3-0.1-0.5-0.1c-0.7-0.2-1.5-0.4-1.6-0.9c-0.1-0.4,0.2-0.8,0.9-1.4c1-0.8,1.9-1.6,2.6-2.4
				c1.9-1.9,3.3-3.3,6-2.2c0.5,0.2,0.8,0.5,0.8,0.9c0.2,1.1-1.5,2.5-3,3.8C349.6,338.1,349.4,338.3,349.2,338.5z M357.9,337.8
				c0,0-0.3,0.3-0.3,0.3c-1.8,1.6-3.3,2.2-4.6,1.7c-0.1,0-0.3-0.1-0.5-0.1c-0.7-0.2-1.5-0.4-1.6-0.9c-0.1-0.4,0.2-0.8,0.9-1.4
				c1.1-0.8,2-1.8,2.8-2.6c1.9-1.9,3.5-3.6,6.1-2.6c0.5,0.2,0.7,0.5,0.8,0.9C361.8,334.3,359.9,336.1,357.9,337.8z M362.8,338.1
				c-0.2,0-0.5,0-0.7,0c-0.8,0-1.6,0-1.8-0.5c-0.1-0.3,0-0.8,0.6-1.4c0.8-0.9,1.4-1.9,2-2.7c1.4-2.2,2.4-3.9,6.3-3.6
				c0.4,0,0.5,0.2,0.6,0.4c0.4,1.1-2,4.2-2.8,5.2C365.4,337.1,364.2,338.4,362.8,338.1z M374.8,333c-1.1,1.6-2.6,3.4-4.2,3.3
				c-0.1,0-0.3,0-0.5,0c-0.7,0-1.5,0-1.8-0.5c-0.2-0.4,0-0.9,0.6-1.6c0.9-1.1,1.5-2.2,2.1-3.2c1.2-2.2,2.2-3.9,5-3.7
				c0.6,0,0.8,0.3,0.9,0.5C377.4,328.6,376.7,330.4,374.8,333z M383,329.8c-1.1,2.2-2.2,3.3-3.5,3.4c-0.1,0-0.3,0-0.5,0.1
				c-0.7,0.1-1.5,0.2-1.8-0.2c-0.2-0.3-0.1-0.9,0.3-1.6c0.8-1.4,1.1-2.6,1.4-3.6c0.5-1.8,0.8-3.1,3.4-3.1c0.7,0,1.2,0.2,1.5,0.7
				C384.4,326.3,383.7,328.3,383,329.8z M388.6,325.6c-1,2.7-2.8,3.5-2.9,3.5l0,0l0,0c-0.2,0-0.5,0-0.7-0.2
				c-0.2-0.3-0.1-0.8,0.2-1.5c0.8-1.5,0.2-3.6-0.4-4.1c-0.3-0.2-0.4-0.6-0.2-1c0.3-0.7,1.3-1.4,2.2-1.2c0.8,0.1,1.4,0.6,1.8,1.2
				C388.9,322.9,389.2,324,388.6,325.6z M390.5,328.2c-0.4,0.4-0.8,0.7-1.1,0.7c-0.2,0-0.3-0.1-0.3-0.1l-0.1-0.1l0.1-0.1
				c0.1-0.3,0.5-1.3,0.5-1.9c0-0.3,0.2-0.4,0.3-0.4c0.3-0.1,0.6,0.2,0.8,0.5C391,327.2,390.9,327.8,390.5,328.2z M298,180.9
				c0,0,2.8-0.5,4.5-1.7c1.7-1.2,3-2.7,3-2.7s2.4,0.3,4.3-0.5c2.1-0.9,3.5-3,3.5-3s2.2,0.6,4.4-0.4c2.2-1,2.3-1.9,2.3-1.9
				s2.3,0.8,4.6,0.1c2.3-0.6,3.2-1.5,3.2-1.5s1.5,0.1,2.8,0c1.3-0.1,2.1-1,2.1-1s2.4,0.8,3.9,0.5c1.7-0.4,3.2-1.4,2.8-3.6
				c-0.4-2.2-1.3-2.7-1.3-2.7s1.8-4.1-3.3-4.9c-2.5-0.4-2.8,1.9-2.8,1.9s-2.2-1.3-4.6,1c0,0-2.6-1.2-5.4-0.4
				c-2.7,0.8-3.6,2.2-3.6,2.2s-3.1-0.7-5.4,0.6c-1.8,1-2.7,2.3-2.7,2.3s-2.5-0.8-5.2,1.2c-2.7,1.9-2.8,2.7-2.8,2.7s-3.2-0.3-5.4,1.4
				c-1.8,1.4-2.2,3.1-2.2,3.1s-3.9,0.4-5.4,1.9c-1.7,1.7-2.1,3.1-2.1,3.1s-3.3,0.6-4.8,2.2c-1,1.1-1.5,3.7-1.5,3.7s-2.9-0.1-4.9,2.8
				c-1.2,1.8-1.7,3.2-1.7,3.2s-3.3,1.5-4.5,4c-0.8,1.7-0.6,3.1-0.6,3.1s-3.2,1.4-3.9,3.6c-0.6,2.2-0.6,3.7-0.6,3.7s-2.2,0.8-3,2.6
				c-0.8,1.8-0.3,2.7-0.3,2.7s-4.6,1.7-2.6,4.4c2.1,2.7,5,2.3,5,2.3s3.2,2.2,5.5,0.9c0,0,2.8-1.1,2.1-5c0,0,0.8-0.6,1.4-2.3
				c0.3-1-0.2-2.1-0.2-2.1s1.8-1.4,2.5-2.6c0.6-1.2,0.9-3.2,0.9-3.2s2.3-1.2,3.4-2.8c1-1.7,1.3-3.4,1.3-3.4s2.3-0.9,3.7-2.6
				s1.8-3.2,1.8-3.2s2.8-1,3.6-1.9c0.8-0.9,2.1-3.2,2.1-3.2s3.2-0.5,4.3-1.5C297.1,182.9,298,180.9,298,180.9z M334.5,159.8
				c0-0.1,0.1-0.2,0.2-0.3c0.2-0.2,0.7-0.2,1.3-0.1c0.5,0.1,0.9,0.5,0.9,1.1c0,0.3-0.1,0.8-0.3,0.9c-0.1,0-0.3,0.1-0.4-0.2
				c-0.4-0.5-1.5-1.2-1.5-1.2l-0.1-0.1L334.5,159.8z M331.4,161.6L331.4,161.6L331.4,161.6c0.1,0,2-0.5,4.5,1.1
				c1.5,0.9,1.9,2,1.9,2.6c0.1,0.8-0.2,1.5-0.7,2.1c-0.7,0.7-1.9,0.7-2.5,0.3c-0.4-0.2-0.6-0.6-0.4-1c0.2-0.7-0.5-2.8-2.1-3.6
				c-0.7-0.4-1-0.7-1-1.1C331,161.8,331.3,161.6,331.4,161.6z M323.7,162.2c0.2-0.1,0.3-0.2,0.4-0.2c1.2-0.7,2.7-0.5,4.9,0.7
				c1.5,0.8,3.2,2,3.3,3.2c0,0.5-0.2,1-0.8,1.4c-2.1,1.5-3.2,0.7-4.6-0.5c-0.8-0.7-1.8-1.5-3.2-2.1c-0.8-0.4-1.2-0.7-1.2-1.1
				C322.3,162.9,323,162.5,323.7,162.2z M314.8,164.9c0.1-0.1,0.3-0.2,0.4-0.3c1.2-1,3.4-0.4,5.3,0.2c3,1,4.6,2,4.8,2.9
				c0,0.2,0,0.6-0.4,1c-2.1,1.8-3.9,1-6.2-0.1c-1-0.5-2.2-1-3.5-1.3c-0.9-0.2-1.3-0.5-1.4-0.9C313.6,165.8,314.2,165.3,314.8,164.9z
				 M307.1,168.2c0.2-0.2,0.4-0.3,0.6-0.5c1-1.1,2.7-0.7,5-0.2c1.3,0.3,5,1.4,5.3,2.5c0,0.2,0,0.4-0.3,0.7c-3,2.5-4.8,1.8-7.2,0.8
				c-0.9-0.4-2-0.8-3.2-1.1c-0.8-0.2-1.2-0.4-1.3-0.8C305.8,169.1,306.5,168.6,307.1,168.2z M298.5,172.4c0.1-0.1,0.2-0.3,0.3-0.4
				c0.8-1.1,2.3-1.5,4.7-1.3l0.4,0c2.6,0.2,5.2,0.5,5.8,1.7c0.2,0.4,0.1,0.8-0.1,1.2c-1.5,2.4-3.8,2-6.4,1.5
				c-1.1-0.2-2.4-0.4-3.8-0.5c-0.9,0-1.4-0.2-1.6-0.6C297.5,173.6,298.1,173,298.5,172.4z M268.8,216.9c-0.7,0.4-2.2,0.5-2.6,0.3
				c-0.1-0.1-0.2-0.2-0.2-0.3c0-0.2,0.2-0.3,0.5-0.5c0.4-0.2,0.7-0.3,1-0.4c0.5-0.2,0.9-0.4,1.3-0.6c0.2-0.2,0.4-0.1,0.5-0.1
				c0.2,0.1,0.3,0.3,0.3,0.5C269.6,216.1,269.4,216.6,268.8,216.9z M270,212.9c-1,1.5-3.9,3.6-7,3c-1.9-0.4-2.2-1.3-2.2-1.8
				c0-0.9,0.8-1.7,1.5-1.9c0.6-0.2,1.1-0.1,1.7,0c1,0.1,2.1,0.3,4.1-0.7c1.2-0.6,2-0.7,2.3-0.3C270.7,211.5,270.5,212.2,270,212.9z
				 M273.2,205c-0.8,3.7-2.5,4.4-6.1,5.4l-0.3,0.1c-1.2,0.3-1.8,0.5-2.2,0.2c-0.4-0.4-0.4-1.2-0.2-2.8c0.2-1.2,1.6-2.2,4.4-2.8
				c0.7-0.2,1.4-0.4,1.9-0.6c1.1-0.4,1.9-0.7,2.3-0.3C273.2,204.2,273.3,204.5,273.2,205z M277.7,198.2c-1.5,3.7-3.1,4.3-7.5,5.4
				l-0.5,0.1c-1.1,0.3-1.8,0.4-2.1,0.1c-0.3-0.4-0.2-1.2,0.3-2.8c0.4-1.2,2-2.2,4.9-2.8c0.6-0.1,1.3-0.3,2-0.5
				c1.4-0.4,2.5-0.8,2.9-0.3C278,197.6,277.8,198,277.7,198.2z M282.8,192.4c-1.5,3.4-3.2,3.8-7.7,4.2l-0.5,0
				c-1.2,0.1-1.8,0.2-2.1-0.2c-0.3-0.4-0.1-1.2,0.4-2.7c0.4-1.2,2.1-1.9,5-2.1c0.7,0,1.3-0.1,2-0.2c1.5-0.2,2.6-0.4,2.9,0.1
				C283,191.7,283,192,282.8,192.4z M288.6,187.5c-1.6,2.3-4,3.2-8.7,3.1c-1,0-1.6-0.3-1.8-0.7c-0.2-0.5-0.1-1.2,0.6-2
				c0.8-1.1,2.7-2.2,5-2c0.6,0.1,1.4,0,2.1,0c1.5-0.1,2.8-0.1,3.2,0.5C289,186.6,288.9,187,288.6,187.5z M294.9,182.6
				c-1.6,2.5-3.4,2.3-6,2c-0.9-0.1-2-0.2-3.2-0.3c-0.9,0-1.4-0.2-1.6-0.6c-0.2-0.5,0.3-1.1,0.7-1.7c0.1-0.1,0.2-0.3,0.3-0.4
				c0.8-1.1,2.3-1.5,4.7-1.3c0.4,0,0.9,0.1,1.4,0.1c1.6,0.1,3.3,0.1,3.8,0.9C295.3,181.7,295.2,182.1,294.9,182.6z M292.2,179.3
				c-0.9,0-1.4-0.2-1.6-0.6c-0.2-0.5,0.3-1.1,0.7-1.7c0.1-0.1,0.2-0.3,0.3-0.4c0.8-1.1,2.3-1.5,4.7-1.3c0.3,0,0.6,0,1,0.1
				c2,0.1,4.2,0.3,4.7,1.3c0.2,0.4,0.1,0.8-0.2,1.2c-1.5,2.4-3.6,2.1-6.2,1.7C294.7,179.5,293.5,179.3,292.2,179.3z M286.1,306.6
				c0,0-0.4-1-1.8-2c-0.9-0.6-2-0.4-2-0.4s-0.8-2.1-1.7-3.1c-0.9-1-2.8-1.8-2.8-1.8s-0.4-2.6-1.7-4c-1.3-1.5-2.8-2.2-2.8-2.2
				s-0.2-2.5-1.4-4.3c-1.2-1.8-2.5-2.7-2.5-2.7s-0.1-3-0.8-4c-0.6-1-2.5-2.9-2.5-2.9s0.4-3.2-0.2-4.5c-0.7-1.4-2.3-2.9-2.3-2.9
				s0.3-2.9-0.3-4.8c-0.6-1.9-1.7-3.6-1.7-3.6s1-2.2,0.8-4.2c-0.3-2.3-1.8-4.2-1.8-4.2s1.3-1.9,0.9-4.3c-0.3-2.4-1.2-2.8-1.2-2.8
				s1.4-2,1.5-4.4c0.1-2.4-0.5-3.5-0.5-3.5s0.6-1.4,0.8-2.7c0.3-1.3-0.4-2.3-0.4-2.3s1.5-2.1,1.6-3.5c0.2-1.7-0.4-3.5-2.6-3.8
				c-2.2-0.3-3,0.5-3,0.5s-3.4-2.9-5.7,1.7c-1.1,2.2,1,3.3,1,3.3s-1.9,1.7-0.4,4.7c0,0-1.9,2.1-2,5.1c0,2.8,1,4.1,1,4.1
				s-1.6,2.8-1,5.4c0.5,2,1.4,3.3,1.4,3.3s-1.5,2.1-0.4,5.3c1,3.2,1.8,3.5,1.8,3.5s-1.2,2.9-0.2,5.6c0.8,2.1,2.3,3,2.3,3
				s-0.8,3.8,0.2,5.7c1.1,2.1,2.3,2.9,2.3,2.9s-0.4,3.3,0.7,5.2c0.7,1.2,3.1,2.6,3.1,2.6s-1,2.8,1.2,5.5c1.3,1.7,2.5,2.5,2.5,2.5
				s0.5,3.6,2.5,5.5c1.4,1.3,2.8,1.5,2.8,1.5s0.4,3.5,2.3,4.8c1.9,1.3,3.4,1.7,3.4,1.7s0.1,2.3,1.6,3.6c1.5,1.3,2.5,1,2.5,1
				s0.2,4.9,3.4,3.8c3.2-1.2,3.7-4.1,3.7-4.1s3-2.4,2.5-5C290.3,310.1,290.1,307,286.1,306.6z M257.1,230.3c1.3-1.1,2.4-1.2,3.1-1.1
				c0.8,0.1,1.4,0.6,1.8,1.3c0.4,0.8,0.1,2-0.5,2.5c-0.3,0.3-0.7,0.4-1,0.1c-0.6-0.4-2.8-0.3-4,0.9c-0.5,0.6-1,0.8-1.3,0.7
				c-0.3-0.1-0.4-0.4-0.4-0.6l0,0l0,0C254.7,234.1,254.8,232.1,257.1,230.3z M254,229.3c0.3-0.5,0.8-0.7,1.3-0.6
				c0.3,0.1,0.7,0.3,0.7,0.6c0,0.1,0,0.3-0.3,0.4c-0.6,0.2-1.6,1.1-1.6,1.1l-0.1,0.1l-0.1-0.1c-0.1,0-0.2-0.1-0.2-0.3
				C253.6,230.2,253.7,229.8,254,229.3z M254.9,236.9c1.2-1.2,2.8-2.5,4-2.2c0.5,0.1,0.9,0.5,1.1,1.2c0.8,2.5-0.3,3.2-1.9,4.2
				c-0.9,0.6-1.9,1.3-3,2.5c-0.6,0.7-1.1,0.9-1.5,0.8c-0.5-0.2-0.7-0.9-0.8-1.6c0-0.2-0.1-0.3-0.1-0.5
				C252.5,240,253.2,238.6,254.9,236.9z M252.8,250.7c-0.6-1.4,0.6-3.4,1.8-5c1.9-2.6,3.3-3.8,4.2-3.7c0.2,0,0.6,0.2,0.8,0.7
				c1.1,2.6-0.2,4-1.9,5.9c-0.7,0.8-1.6,1.8-2.3,3c-0.5,0.8-0.9,1.1-1.3,1.1c-0.6-0.1-0.8-0.8-1.1-1.5
				C252.9,250.9,252.8,250.8,252.8,250.7z M253.5,258.7c-0.7-1.3,0.2-2.8,1.3-4.8c0.7-1.1,2.8-4.4,4-4.3c0.2,0,0.4,0.1,0.6,0.5
				c1.5,3.6,0.2,5.1-1.4,7.1c-0.6,0.8-1.3,1.7-2,2.7c-0.4,0.7-0.8,1-1.1,1c-0.5,0-0.8-0.8-1.1-1.5
				C253.7,259.1,253.6,258.9,253.5,258.7z M255.3,268.9c-0.1-0.1-0.2-0.3-0.3-0.4c-0.8-1.1-0.8-2.6,0.2-4.9l0.2-0.4
				c1-2.4,2.1-4.8,3.3-5c0.4-0.1,0.8,0.1,1.1,0.5c1.8,2.1,0.8,4.2-0.5,6.6c-0.5,1-1.1,2.2-1.6,3.5c-0.3,0.9-0.6,1.3-1,1.3
				C256.2,270.1,255.7,269.4,255.3,268.9z M259,278.2c-0.6,0.1-1-0.6-1.4-1.2c-0.1-0.1-0.2-0.3-0.3-0.4c-0.8-1.1-0.8-2.6,0.2-4.9
				c0.1-0.3,0.2-0.6,0.4-0.9c0.7-1.8,1.5-3.9,2.6-4.1c0.4-0.1,0.8,0.1,1.1,0.5c1.9,2.2,1,4-0.2,6.4c-0.5,0.9-1,2-1.4,3.2
				C259.7,277.7,259.4,278.2,259,278.2z M262.9,284.6c-0.3,0.9-0.6,1.3-1,1.3c-0.6,0.1-1-0.6-1.4-1.2c-0.1-0.1-0.2-0.3-0.3-0.4
				c-0.8-1.1-0.8-2.6,0.2-4.9c0.2-0.4,0.3-0.9,0.5-1.3c0.5-1.5,1.1-3.2,2-3.3c0.4-0.1,0.7,0.1,1.1,0.5c1.9,2.2,1.2,4,0.1,6.3
				C263.7,282.5,263.3,283.5,262.9,284.6z M265.9,293.5c-0.5,0.1-1.1-0.3-1.8-1.1c-0.9-1.1-1.3-3.2-0.4-5.4c0.2-0.6,0.4-1.3,0.6-2
				c0.4-1.5,0.7-2.7,1.4-2.9c0.3-0.1,0.7,0.1,1,0.6c1.8,2.2,1.9,4.8,0.4,9.2C266.9,293,266.5,293.5,265.9,293.5z M271.5,298.3
				l-0.1,0.5c-0.2,1.2-0.4,1.8-0.9,2c-0.5,0.2-1.2-0.2-2.4-1.1c-1-0.7-1.2-2.5-0.5-5.4c0.2-0.6,0.3-1.3,0.4-2c0.2-1.5,0.4-2.6,1-2.8
				c0.2-0.1,0.5,0,0.8,0.3C272.6,292.2,272.4,293.9,271.5,298.3z M276.8,305l0,0.5c-0.1,1.2-0.1,1.8-0.5,2c-0.5,0.2-1.2-0.2-2.6-1.1
				c-1.1-0.7-1.5-2.6-1.2-5.5c0.1-0.7,0.1-1.4,0.1-2c0-1.5,0-2.6,0.5-2.8c0.4-0.2,0.8,0.1,0.9,0.2C277,298.8,277,300.5,276.8,305z
				 M282.3,310.1l0,0.3c0,1.2,0,1.9-0.5,2.2c-0.5,0.3-1.3,0-2.7-0.7c-1.1-0.5-1.6-2.2-1.4-5c0-0.7,0-1.4,0-2c0-1.2-0.1-2,0.4-2.3
				c0.2-0.1,0.5-0.1,0.9,0.1C282.3,304.5,282.4,306.4,282.3,310.1z M286.4,315.6c-0.9,1.7-1.9,1.7-2.4,1.6c-0.8-0.2-1.4-1.2-1.3-2
				c0-0.6,0.2-1.1,0.5-1.6c0.4-0.9,0.9-1.9,0.5-4.1c-0.2-1.4-0.1-2.1,0.4-2.3c0.4-0.2,1,0.1,1.5,0.9
				C286.7,309.5,287.9,312.8,286.4,315.6z M288.6,313c-0.1,0.1-0.2,0.1-0.3,0.1c-0.2-0.1-0.3-0.3-0.3-0.7c-0.1-0.4-0.1-0.8-0.1-1.1
				c-0.1-0.6-0.1-1-0.2-1.4c-0.1-0.3,0-0.4,0.1-0.5c0.1-0.1,0.3-0.2,0.6-0.1c0.3,0.1,0.8,0.4,0.9,1.1
				C289.3,311.1,289,312.6,288.6,313z M435.2,246.8c0,0,1-1.3,1-4.1c0-2.9-2-5.1-2-5.1c1.5-3-0.4-4.7-0.4-4.7s2.1-1.1,1-3.3
				c-2.3-4.6-5.7-1.7-5.7-1.7s-0.7-0.7-3-0.5c-2.2,0.3-2.8,2-2.6,3.8c0.1,1.5,1.6,3.5,1.6,3.5s-0.6,1-0.4,2.3
				c0.3,1.3,0.8,2.7,0.8,2.7s-0.6,1.1-0.5,3.5c0.1,2.4,1.5,4.4,1.5,4.4s-0.8,0.4-1.2,2.8c-0.3,2.4,0.9,4.3,0.9,4.3s-1.5,1.9-1.8,4.2
				c-0.2,2,0.8,4.2,0.8,4.2s-1.1,1.7-1.7,3.6c-0.6,1.9-0.3,4.8-0.3,4.8s-1.7,1.5-2.3,2.9c-0.6,1.3-0.2,4.5-0.2,4.5s-1.8,1.9-2.5,2.9
				c-0.6,1-0.8,4-0.8,4s-1.4,0.8-2.5,2.7c-1.2,1.9-1.4,4.3-1.4,4.3s-1.5,0.7-2.8,2.2c-1.3,1.5-1.7,4-1.7,4s-1.9,0.9-2.8,1.8
				c-0.9,1-1.7,3.1-1.7,3.1s-1.1-0.2-2,0.4c-1.5,1-1.8,2-1.8,2c-3.9,0.4-4.2,3.5-4.2,3.5c-0.5,2.6,2.5,5,2.5,5s0.5,2.9,3.7,4.1
				c3.2,1.2,3.4-3.8,3.4-3.8s1,0.2,2.5-1c1.5-1.3,1.6-3.6,1.6-3.6s1.5-0.5,3.4-1.7c1.9-1.3,2.3-4.8,2.3-4.8s1.4-0.2,2.8-1.5
				c2-1.9,2.5-5.5,2.5-5.5s1.2-0.8,2.5-2.5c2.1-2.7,1.2-5.5,1.2-5.5s2.4-1.3,3.1-2.6c1.1-1.9,0.7-5.2,0.7-5.2s1.2-0.8,2.3-2.9
				c1-2,0.2-5.7,0.2-5.7s1.5-0.9,2.3-3c1-2.7-0.2-5.6-0.2-5.6s0.7-0.4,1.7-3.5c1-3.2-0.4-5.3-0.4-5.3s1-1.3,1.4-3.3
				C436.8,249.6,435.2,246.8,435.2,246.8z M430.9,229.2c0-0.3,0.4-0.5,0.7-0.6c0.6-0.1,1.1,0.1,1.3,0.6c0.3,0.5,0.4,0.9,0.3,1.2
				c-0.1,0.2-0.2,0.2-0.2,0.3l-0.1,0.1l-0.1-0.1c0,0-1-0.9-1.6-1.1C430.9,229.5,430.9,229.3,430.9,229.2z M425.4,233
				c-0.6-0.5-0.9-1.6-0.5-2.5c0.4-0.7,1-1.2,1.8-1.3c0.7-0.1,1.8-0.1,3.1,1.1c2.2,1.9,2.4,3.8,2.4,3.9v0l0,0c0,0.2-0.1,0.5-0.4,0.6
				c-0.3,0.1-0.8-0.1-1.3-0.7c-1.2-1.2-3.4-1.3-4-0.9C426.2,233.4,425.8,233.3,425.4,233z M426.8,235.9c0.2-0.7,0.6-1.1,1.1-1.2
				c1.2-0.3,2.8,1,4,2.2c1.7,1.7,2.4,3.1,2.1,4.4c0,0.1-0.1,0.3-0.1,0.5c-0.1,0.7-0.3,1.5-0.8,1.6c-0.4,0.1-0.9-0.2-1.5-0.8
				c-1-1.2-2.1-1.9-3-2.5C427.1,239.1,426,238.4,426.8,235.9z M399.4,309.9c-0.1,0.4-0.2,0.8-0.2,1.4c0,0.3-0.1,0.7-0.1,1.1
				c-0.1,0.4-0.2,0.6-0.3,0.7c-0.1,0-0.2,0-0.3-0.1c-0.4-0.3-0.7-1.9-0.5-2.6c0.1-0.7,0.6-1,0.9-1.1c0.2-0.1,0.4,0,0.6,0.1
				C399.4,309.5,399.5,309.6,399.4,309.9z M402.9,317.2c-0.5,0.1-1.4,0.1-2.4-1.6c-1.5-2.8-0.3-6.1,0.8-7.6c0.6-0.7,1.1-1.1,1.5-0.9
				c0.5,0.2,0.6,1,0.4,2.3c-0.3,2.2,0.1,3.2,0.5,4.1c0.2,0.5,0.4,1,0.5,1.6C404.2,316,403.7,316.9,402.9,317.2z M407.8,311.9
				c-1.5,0.7-2.3,1-2.7,0.7c-0.5-0.3-0.5-0.9-0.5-2.2l0-0.3c-0.1-3.7,0-5.6,3.3-7.4c0.4-0.2,0.7-0.3,0.9-0.1
				c0.5,0.3,0.4,1.1,0.4,2.3c0,0.6,0,1.3,0,2C409.4,309.7,409,311.4,407.8,311.9z M413.3,306.4c-1.4,1-2.1,1.4-2.6,1.1
				c-0.4-0.2-0.5-0.9-0.5-2l0-0.5c-0.3-4.5-0.2-6.2,2.9-8.7c0.1-0.1,0.5-0.4,0.9-0.2c0.5,0.3,0.5,1.3,0.5,2.8c0,0.7,0,1.4,0.1,2
				C414.8,303.8,414.4,305.7,413.3,306.4z M418.8,299.6c-1.3,0.9-1.9,1.3-2.4,1.1c-0.5-0.2-0.6-0.8-0.9-2l-0.1-0.5
				c-1-4.4-1.1-6.1,1.7-8.6c0.3-0.3,0.6-0.4,0.8-0.3c0.6,0.2,0.7,1.3,1,2.8c0.1,0.7,0.2,1.3,0.4,2
				C419.9,297.1,419.8,298.9,418.8,299.6z M422.7,292.4c-0.7,0.9-1.2,1.2-1.8,1.1c-0.5-0.1-0.9-0.6-1.2-1.5
				c-1.5-4.5-1.4-7.1,0.4-9.2c0.4-0.4,0.7-0.6,1-0.6c0.7,0.1,1,1.4,1.4,2.8c0.2,0.7,0.4,1.4,0.6,2
				C424.1,289.2,423.6,291.3,422.7,292.4z M426.7,284.3c-0.1,0.1-0.2,0.2-0.3,0.4c-0.4,0.6-0.8,1.3-1.4,1.2c-0.4-0.1-0.7-0.5-1-1.3
				c-0.4-1.1-0.8-2.1-1.2-2.9c-1.1-2.4-1.8-4.1,0.1-6.3c0.4-0.4,0.8-0.6,1.1-0.5c0.9,0.2,1.4,1.7,2,3.3c0.2,0.5,0.3,0.9,0.5,1.4
				C427.4,281.7,427.5,283.3,426.7,284.3z M429.5,276.6c-0.1,0.1-0.2,0.2-0.3,0.4c-0.4,0.6-0.8,1.3-1.4,1.2c-0.4-0.1-0.7-0.5-1-1.3
				c-0.4-1.2-0.9-2.3-1.4-3.2c-1.2-2.4-2.1-4.2-0.2-6.4c0.4-0.4,0.7-0.6,1.1-0.5c1.1,0.2,1.9,2.3,2.6,4.1c0.1,0.3,0.2,0.6,0.4,0.9
				C430.3,274,430.4,275.6,429.5,276.6z M431.8,268.5c-0.1,0.1-0.2,0.2-0.3,0.4c-0.4,0.6-0.8,1.3-1.4,1.2c-0.4-0.1-0.7-0.5-1-1.3
				c-0.4-1.3-1-2.5-1.6-3.5c-1.2-2.4-2.3-4.4-0.5-6.6c0.3-0.4,0.7-0.5,1.1-0.5c1.3,0.2,2.5,3.1,3.3,5l0.2,0.4
				C432.6,265.8,432.6,267.4,431.8,268.5z M433.4,258.7c-0.1,0.2-0.2,0.4-0.3,0.7c-0.3,0.7-0.5,1.5-1.1,1.5c-0.4,0-0.7-0.3-1.1-1
				c-0.6-1.1-1.3-2-2-2.7c-1.6-2-2.9-3.6-1.4-7.1c0.2-0.4,0.4-0.4,0.6-0.5c1.2-0.1,3.3,3.2,4,4.3
				C433.2,255.9,434.1,257.5,433.4,258.7z M434.1,250.7c-0.1,0.1-0.1,0.3-0.2,0.4c-0.2,0.7-0.5,1.4-1.1,1.5c-0.4,0-0.8-0.3-1.3-1.1
				c-0.7-1.2-1.6-2.1-2.3-3c-1.6-1.9-2.9-3.4-1.9-5.9c0.2-0.4,0.4-0.7,0.8-0.7c0.9-0.1,2.3,1.1,4.2,3.7
				C433.5,247.3,434.8,249.3,434.1,250.7z"/>
		</g>
	</g>
</g>
<g id="KYSTVERKET_x002C__UTLINJERT">
	<g>
		<path class="st0" d="M0,439h11.2v24.6L31.4,439h13.8l-23,27l23.9,30.3H31.5l-20.1-26.6h-0.2v26.6H0V439z"/>
		<path class="st0" d="M89.4,473.6L69,439h13.1l13.2,24l13.5-24h11.8l-20,34.6v22.6H89.4V473.6z"/>
		<path class="st0" d="M176.2,449.5c-3.5-1.6-7.4-2.5-11.4-2.5c-3.8,0-8.8,1.7-8.8,8c0,9.9,24.5,5.7,24.5,24.9
			c0,12.6-9.7,17.3-21,17.3c-6.1,0-8.8-0.8-14.3-2.2l1-10.3c3.8,2.1,8.2,3.5,12.6,3.5c4.2,0,9.9-2.2,9.9-7.4
			c0-10.9-24.5-6.4-24.5-25.4c0-12.8,9.7-17.5,19.5-17.5c4.8,0,9.3,0.7,13.4,2.1L176.2,449.5z"/>
		<path class="st0" d="M225.1,448h-16v-9h43.2v9h-16v48.2h-11.2V448z"/>
		<path class="st0" d="M278,439h12l14.3,45h0.2l14.2-45h11.1L311,496.2h-13.8L278,439z"/>
		<path class="st0" d="M360.3,439h33v9h-21.8v14.1h19.9v9h-19.9v16.1h21.9v9h-33.1V439z"/>
		<path class="st0" d="M429.1,439h12.1c12,0,26.3-0.4,26.3,15.5c0,6.7-4.4,12.3-11.5,13.3v0.2c3,0.2,4.8,3.4,5.9,5.9l9,22.4h-12.5
			l-6.7-17.9c-1.6-4.3-3-5.9-7.8-5.9h-3.6v23.8h-11.2V439z M440.3,463.4h3.7c5.5,0,11.8-0.8,11.8-8c0-6.9-6.2-7.5-11.8-7.5h-3.7
			V463.4z"/>
		<path class="st0" d="M504.2,439h11.2v24.6l20.2-24.6h13.8l-23,27l23.9,30.3h-14.6l-20.1-26.6h-0.2v26.6h-11.2V439z"/>
		<path class="st0" d="M580.8,439h33v9H592v14.1h19.9v9H592v16.1h21.9v9h-33.1V439z"/>
		<path class="st0" d="M659.7,448h-16v-9h43.2v9h-16v48.2h-11.2V448z"/>
	</g>
</g>
</svg>
