<?xml version="1.0" encoding="UTF-8" standalone="no"?>
<svg
   xmlns:dc="http://purl.org/dc/elements/1.1/"
   xmlns:cc="http://creativecommons.org/ns#"
   xmlns:rdf="http://www.w3.org/1999/02/22-rdf-syntax-ns#"
   xmlns:svg="http://www.w3.org/2000/svg"
   xmlns="http://www.w3.org/2000/svg"
   xmlns:sodipodi="http://sodipodi.sourceforge.net/DTD/sodipodi-0.dtd"
   xmlns:inkscape="http://www.inkscape.org/namespaces/inkscape"
   id="svg2"
   version="1.1"
   x="0"
   y="0"
   width="400"
   height="500"
   viewBox="30.5 31.5 400 500"
   enable-background="new 30.5 31.5 412 533"
   xml:space="preserve"
   inkscape:version="0.91 r13725"
   sodipodi:docname="Volda komm 2020.svg"><sodipodi:namedview
     pagecolor="#ffffff"
     bordercolor="#666666"
     borderopacity="1"
     objecttolerance="10"
     gridtolerance="10"
     guidetolerance="10"
     inkscape:pageopacity="0"
     inkscape:pageshadow="2"
     inkscape:window-width="1600"
     inkscape:window-height="1135"
     id="namedview10"
     showgrid="false"
     inkscape:zoom="0.944"
     inkscape:cx="108.69316"
     inkscape:cy="139.81034"
     inkscape:window-x="1600"
     inkscape:window-y="0"
     inkscape:window-maximized="1"
     inkscape:current-layer="svg2" /><metadata
     id="metadata4"><rdf:RDF><cc:Work
         rdf:about=""><dc:format>
          
          
          
          image/svg+xml
        
        
        
        </dc:format><dc:type
           rdf:resource="http://purl.org/dc/dcmitype/StillImage" /><dc:title></dc:title></cc:Work></rdf:RDF></metadata><defs
     id="defs6" /><path
     style="fill:#0085ca"
     id="path8"
     d="m 230.22192,530.765 c -74.32,-53.92 -125.26,-122.02 -155.739996,-208.16 -27.64,-78.1 -38.73,-172.75 -33.91,-289.35 l 0.02,-0.46 379.819996,0 0.02,0.46 c 4.81,116.6 -6.28,211.24 -33.91,289.35 -30.48,86.14 -81.42,154.24 -155.74,208.16 l -0.28,0.2 -0.28,-0.2 z"
     inkscape:connector-curvature="0" /><path
     id="path10"
     d="M 419.96,33.21 C 429.03,252.66 383.7,419.16 230.5,530.31 77.31,419.16 31.99,252.66 41.06,33.21 l 189.45,0 189.45,0 m 0.92,-0.95 -0.92,0 -189.45,0 -189.45,0 -0.92,0 -0.04,0.92 c -4.82,116.66 6.28,211.36 33.93,289.52 30.51,86.24 81.51,154.41 155.91,208.39 l 0.56,0.41 0.56,-0.41 C 305.46,477.11 356.46,408.94 386.97,322.7 414.62,244.54 425.72,149.84 420.9,33.18 l -0.04,-0.92 0,0 z" /><g
     id="g3393"
     transform="translate(0,-10.000072)"><g
       transform="translate(-1.4073039,8.160724)"
       id="g3362"><path
         style="fill:#ffffff;stroke:#000000;stroke-width:1;stroke-miterlimit:4;stroke-dasharray:none"
         id="path4283"
         d="m 205.74847,492.00263 c 10.15674,4.66983 -2.07071,-13.21 -11.18038,-30.63706 -71.4786,-136.78699 -71.54137,-277.51122 -69.5339,-364.196276 0.22785,-9.983229 -15.45427,-17.982831 -9.52195,-23.334613 6.58968,-5.930165 42.12546,-5.522003 53.20948,-9.599563 4.05808,-1.496872 0.821,-6.246133 -3.95211,-7.73263 -6.54509,-2.054377 -19.5042,-2.514345 -35.12424,-0.597652 -15.71755,1.934355 -41.010864,6.82603 -42.860483,16.988837 C 60.042259,219.6878 124.8577,454.82175 205.76234,491.99994 Z"
         inkscape:connector-curvature="0" /><path
         style="fill:#ffffff;stroke:#000000;stroke-width:1;stroke-miterlimit:4;stroke-dasharray:none"
         id="path4283-3"
         d="m 258.06614,492.00228 c -10.15674,4.66983 2.07071,-13.21 11.18038,-30.63706 71.4786,-136.78699 71.54137,-277.51122 69.5339,-364.196274 -0.22785,-9.983229 15.45427,-17.982831 9.52195,-23.334613 -6.58968,-5.930165 -42.12546,-5.522003 -53.20948,-9.599563 -4.05808,-1.496873 -0.821,-6.246134 3.95211,-7.732631 6.54509,-2.054377 19.5042,-2.514345 35.12424,-0.597652 15.71755,1.934355 41.01086,6.82603 42.86048,16.988838 C 403.77235,219.68745 338.95691,454.8214 258.05227,491.99959 Z"
         inkscape:connector-curvature="0" /></g><g
       transform="matrix(0.95629952,0,0,0.95653123,517.40273,-164.13924)"
       id="g3388"><path
         inkscape:connector-curvature="0"
         style="fill:#ffffff;stroke:#000000;stroke-width:1.04557085;stroke-opacity:1"
         id="path4340"
         d="m -333.13848,278.21322 0,73.99 c 8.68,5.28 13.45,10.14 13.31,17.65 -0.21,11.42 -20.6,24.27 -30.65,36.84 -12.8,16.02 -19.8,33.38 -19.81,51.39 -0.01,23.12 6.12,45.62 19.81,69.97 19.59,34.83 41.02,90.5 45.51,133.74 3.3,0 6.61,0 9.91,0 4.49,-43.24 25.92,-98.91 45.51,-133.74 13.7,-24.35 19.83,-46.85 19.81,-69.97 -0.01,-18.01 -7.01,-35.38 -19.81,-51.39 -10.05,-12.57 -30.44,-25.43 -30.65,-36.84 -0.14,-7.51 4.63,-12.36 13.31,-17.65 l 0,-73.99 c -8.17,-4.09 -20.6,-7.43 -33.12,-7.43 -12.52,0 -24.95,3.34 -33.13,7.43 z" /><path
         inkscape:connector-curvature="0"
         style="fill:#0085ca;fill-opacity:1;stroke:#000000;stroke-width:1.04557085;stroke-opacity:1"
         id="path4350"
         d="m -287.16848,538.86322 c 0.18,-5.89 -4.61,-11.24 -11.14,-14.71 2.77,-31.01 4.65,-46.72 7.46,-65.62 1.13,-7.61 -2.5,-13.03 -9.16,-13.03 -6.66,0 -10.29,5.43 -9.16,13.03 2.82,18.9 4.69,34.61 7.46,65.62 -6.53,3.47 -11.33,8.82 -11.14,14.71 0.21,6.46 6.99,10.73 12.84,10.73 5.85,0 12.63,-4.27 12.84,-10.73 z" /><path
         inkscape:connector-curvature="0"
         style="fill:none;stroke:#000000;stroke-width:1.04557085;stroke-linecap:butt;stroke-linejoin:miter;stroke-miterlimit:4;stroke-dasharray:none;stroke-opacity:1"
         id="path4352"
         d="m -300.00848,662.09863 0,-112.50541" /></g></g></svg>