<svg xmlns="http://www.w3.org/2000/svg" viewBox="0 0 263.5 56" aria-labelledby="logo-description"><path fill="#819AAE" d="M43.8 8.4C39.3 4.5 33.5 2.1 27 2.1 12.9 2.1 1.5 13.5 1.5 27.6S12.9 53.1 27 53.1c6.4 0 12.3-2.4 16.8-6.3-.3-.4-.6-.8-.9-1.3-3.3-5.2-5.2-11.3-5.2-17.9 0-6.6 1.9-12.7 5.2-17.9 2.1 1.8 3.8 4 5.1 6.4.3-.5.6-1.1.9-1.6-1.3-2.2-3.1-4.3-5.1-6.1z"/><path fill="#003B71" d="M70.8 2.1c-6.4 0-12.3 2.4-16.8 6.3.3.4.6.8.9 1.3 3.3 5.2 5.2 11.3 5.2 17.9 0 6.6-1.9 12.7-5.2 17.9-2.1-1.8-3.8-4-5.1-6.4 1.7-3.4 2.7-7.3 2.7-11.4 0-4.1-1-8-2.7-11.4-.3-.5-.6-1.1-.9-1.6-.3.5-.6 1-.9 1.6-1.7 3.4-2.7 7.3-2.7 11.4 0 4.1 1 8 2.7 11.4.3.5.6 1.1.9 1.6 1.4 2.3 3.1 4.4 5.1 6.1 4.5 3.9 10.4 6.3 16.8 6.3 14.1 0 25.5-11.4 25.5-25.5S84.9 2.1 70.8 2.1z"/><g fill="#585659"><path d="M121 21.2c0 .2-.1.3-.2.3-.2 0-.8.1-1.6.1s-1.6.1-2.4.1c-.8 0-1.6-.1-2.2-.3-.6-.2-1.1-.5-1.5-1.1-.4-.6-.6-1.4-.6-2.4v-11c0-.1 0-.2.1-.3.1-.1.2-.1.3-.1h1c.1 0 .2 0 .3.1.1.1.1.2.1.3v11c0 .5.1 1 .2 1.3.1.3.4.5.7.6s.9.2 1.6.2h3.9c.2 0 .2.1.2.2v1zM130.9 16.7c0 1-.2 1.9-.5 2.6-.3.7-.9 1.3-1.5 1.7-.7.4-1.5.6-2.5.6-1.4 0-2.6-.4-3.3-1.3-.8-.9-1.2-2.1-1.2-3.6v-1.5c0-1.5.4-2.7 1.2-3.6.8-.9 1.9-1.3 3.3-1.3.8 0 1.4.1 2 .3.6.2 1 .6 1.4 1 .4.4.7 1 .9 1.6.2.6.3 1.3.3 2v1.5zm-1.8 0v-1.5c0-1.1-.2-1.9-.7-2.5-.4-.6-1.1-.9-2.1-.9-.9 0-1.6.3-2 .9-.4.6-.7 1.4-.7 2.5v1.5c0 2.3.9 3.4 2.7 3.4.9 0 1.6-.3 2.1-.9.5-.5.7-1.4.7-2.5zM138.5 21.2c0 .2-.1.3-.4.3-.4.1-.9.1-1.3.1-1 0-1.7-.2-2.1-.6-.4-.4-.6-1.1-.6-2.1v-7.1l-2-.2c-.3 0-.4-.1-.4-.4v-.6c0-.1 0-.2.1-.3.1-.1.2-.1.3-.1h2v-2c0-.2.1-.4.4-.4l1-.2h.1c.1 0 .2 0 .2.1.1.1.1.1.1.2v2.2h2.2c.1 0 .2 0 .3.1.1.1.1.2.1.3v.7c0 .1 0 .2-.1.3-.1.1-.2.1-.3.1h-2.2V19c0 .5.1.9.2 1 .2.2.4.2.9.2h1.1c.3 0 .4.1.4.3v.7zM146.3 21.2c0 .2-.1.3-.4.3-.4.1-.9.1-1.3.1-1 0-1.7-.2-2.1-.6-.4-.4-.6-1.1-.6-2.1v-7.1l-2-.2c-.3 0-.4-.1-.4-.4v-.6c0-.1 0-.2.1-.3.1-.1.2-.1.3-.1h2v-2c0-.2.1-.4.4-.4l1-.2h.1c.1 0 .2 0 .2.1.1.1.1.1.1.2v2.2h2.2c.1 0 .2 0 .3.1.1.1.1.2.1.3v.7c0 .1 0 .2-.1.3-.1.1-.2.1-.3.1h-2.2V19c0 .5.1.9.2 1 .2.2.4.2.9.2h1.1c.3 0 .4.1.4.3v.7zM156.8 16.1c0 .3-.1.4-.4.4h-6.8v.3c0 1.2.2 2 .7 2.5.5.5 1.2.8 2.1.8.6 0 1.3 0 1.9-.1.6 0 1.2-.1 1.7-.2h.1c.2 0 .3.1.3.3v.7c0 .1 0 .2-.1.3-.1.1-.2.1-.3.2-.5.1-1.1.2-1.7.2-.6.1-1.2.1-1.9.1-.8 0-1.6-.2-2.3-.5-.7-.3-1.2-.8-1.7-1.5-.4-.7-.6-1.7-.6-2.9V15c0-1.5.4-2.6 1.2-3.5.8-.8 1.9-1.3 3.3-1.3 1 0 1.8.2 2.4.6.7.4 1.2.9 1.5 1.7.3.7.5 1.5.5 2.5v1.1zm-1.8-.9V15c0-.7-.1-1.4-.3-1.8-.2-.5-.5-.8-.9-1-.4-.2-.9-.3-1.5-.3-1.8 0-2.7 1.1-2.7 3.2v.2h5.4zM164.2 11.5c0 .2-.1.3-.4.3-.9 0-1.9.3-2.8.8v8.5c0 .1 0 .2-.1.3-.1.1-.2.1-.3.1h-1c-.1 0-.2 0-.3-.1-.1-.1-.1-.2-.1-.3V10.8c0-.1 0-.2.1-.3.1-.1.2-.1.3-.1h.9c.1 0 .2 0 .3.1.1.1.1.2.1.3v.4c.9-.7 1.9-1 2.9-1 .3 0 .4.1.4.4v.9zM168.1 8.2c0 .1 0 .2-.1.3-.1.1-.2.1-.3.1h-1c-.1 0-.2 0-.3-.1-.1-.1-.1-.2-.1-.3V6.6c0-.1 0-.2.1-.3.1-.1.2-.1.3-.1h1c.1 0 .2 0 .3.1.1.1.1.2.1.3v1.6zm0 12.9c0 .1 0 .2-.1.3-.1.1-.2.1-.3.1h-1c-.1 0-.2 0-.3-.1-.1-.1-.1-.2-.1-.3V10.8c0-.1 0-.2.1-.3.1-.1.2-.1.3-.1h1c.1 0 .2 0 .3.1.1.1.1.2.1.3v10.3zM175.5 16c0 .1 0 .2-.1.3-.1.1-.2.1-.3.1h-4c-.3 0-.4-.1-.4-.3v-.8c0-.1 0-.2.1-.3.1-.1.2-.1.3-.1h4c.1 0 .2 0 .3.1.1.1.1.2.1.3v.7zM190.3 16.7c0 1-.2 1.9-.5 2.6-.3.7-.9 1.3-1.5 1.7-.7.4-1.5.6-2.5.6-1.4 0-2.6-.4-3.3-1.3-.8-.9-1.2-2.1-1.2-3.6v-1.5c0-1.5.4-2.7 1.2-3.6.8-.9 1.9-1.3 3.3-1.3.8 0 1.4.1 2 .3.6.2 1 .6 1.4 1 .4.4.7 1 .9 1.6.2.6.3 1.3.3 2v1.5zm-1.8 0v-1.5c0-1.1-.2-1.9-.7-2.5-.4-.6-1.1-.9-2.1-.9-.9 0-1.6.3-2 .9s-.7 1.4-.7 2.5v1.5c0 2.3.9 3.4 2.7 3.4.9 0 1.6-.3 2.1-.9.4-.5.7-1.4.7-2.5zM201.8 11.4c0 .2-.1.3-.4.4l-.7.1c.5.5.7 1.2.7 2.1v.2c0 2.3-1.5 3.5-4.5 3.5-.9 0-1.7-.1-2.3-.4-.3.2-.5.4-.5.7 0 .2 0 .3.1.4.1.1.3.2.5.2l3 .8c.8.2 1.5.4 2 .6.5.2 1 .5 1.3.9.3.4.5.9.5 1.5v.2c0 1-.4 1.8-1.1 2.3-.7.5-1.9.8-3.5.8s-2.7-.3-3.5-.8c-.8-.6-1.2-1.4-1.2-2.4v-.2c0-.5.1-1 .4-1.5.2-.4.5-.8.9-1.1l-.1-.1c-.3-.1-.5-.3-.7-.6-.2-.3-.2-.6-.2-.9 0-.3.1-.6.2-.8.1-.3.3-.5.6-.6-.6-.6-.9-1.4-.9-2.3V14c0-1 .3-1.9 1-2.6.7-.7 1.8-1 3.4-1h4.4c.1 0 .2 0 .3.1.1.1.1.2.1.3v.6zm-2 11v-.2c0-.4-.2-.7-.5-.9-.4-.2-1-.4-1.9-.7l-2.3-.6c-.3.3-.6.6-.7.9-.2.3-.3.7-.3 1.2v.2c0 .4.1.7.3 1 .2.3.5.5.9.6.4.1 1 .2 1.7.2 1.1 0 1.8-.1 2.2-.4.4-.2.6-.7.6-1.3zm-.1-8.3V14c0-.7-.2-1.2-.6-1.6-.4-.4-1.1-.6-2.1-.6s-1.7.2-2.1.6c-.4.4-.6.9-.6 1.6v.2c0 .6.2 1.1.6 1.5.4.4 1.1.6 2.1.6s1.7-.2 2.1-.5c.4-.5.6-1 .6-1.7zM119.4 40.7c0 1-.3 1.7-1 2.2-.7.5-1.6.7-2.8.7-1.3 0-2.4-.1-3.2-.3-.3-.1-.4-.2-.4-.4v-.7c0-.1 0-.2.1-.2.1-.1.2-.1.3-.1h.1c1.2.2 2.2.2 3.2.2.7 0 1.2-.1 1.5-.3.3-.2.5-.6.5-1.1 0-.3-.1-.6-.3-.8-.2-.2-.6-.5-1.2-.9l-2-1.2c-.7-.4-1.2-.8-1.5-1.3-.3-.5-.5-1-.5-1.6 0-1 .3-1.7 1-2.1.6-.4 1.5-.6 2.7-.6 1 0 2.1.1 3.2.3.2 0 .4.2.4.4v.7c0 .2-.1.3-.3.3h-.1c-1.3-.1-2.3-.2-3.1-.2-.7 0-1.1.1-1.4.2-.3.2-.4.5-.4.9 0 .3.1.5.3.7.2.2.6.5 1.1.8l2 1.2c.8.5 1.4 1 1.7 1.4-.1.7.1 1.2.1 1.8zM127.4 43.2c0 .2-.1.3-.4.3-.4.1-.9.1-1.3.1-1 0-1.7-.2-2.1-.6-.4-.4-.6-1.1-.6-2.1v-7.1l-2-.2c-.3 0-.4-.1-.4-.4v-.6c0-.1 0-.2.1-.3.1-.1.2-.1.3-.1h2v-2c0-.2.1-.4.4-.4l1-.2h.1c.1 0 .2 0 .2.1.1.1.1.1.1.2v2.2h2.2c.1 0 .2 0 .3.1.1.1.1.2.1.3v.7c0 .1 0 .2-.1.3-.1.1-.2.1-.3.1h-2.2v7.1c0 .5.1.9.2 1 .2.2.4.2.9.2h1.1c.3 0 .4.1.4.3v1zM131.3 30.2c0 .1 0 .2-.1.3-.1.1-.2.1-.3.1h-1c-.1 0-.2 0-.3-.1-.1-.1-.1-.2-.1-.3v-1.6c0-.1 0-.2.1-.3.1-.1.2-.1.3-.1h1c.1 0 .2 0 .3.1.1.1.1.2.1.3v1.6zm0 12.9c0 .1 0 .2-.1.3-.1.1-.2.1-.3.1h-1c-.1 0-.2 0-.3-.1-.1-.1-.1-.2-.1-.3V32.8c0-.1 0-.2.1-.3.1-.1.2-.1.3-.1h1c.1 0 .2 0 .3.1.1.1.1.2.1.3v10.3zM140.1 29.2c0 .2-.1.3-.4.3h-1c-.3 0-.6 0-.8.1-.2.1-.3.2-.4.4-.1.2-.1.5-.1.9v1.5h2.1c.1 0 .2 0 .3.1.1.1.1.2.1.3v.8c0 .2-.1.3-.4.3h-2.1v9.2c0 .1 0 .2-.1.3-.1.1-.2.1-.3.1h-1c-.1 0-.2 0-.3-.1-.1-.1-.1-.2-.1-.3v-9.2l-2-.2c-.1 0-.2-.1-.3-.1-.1-.1-.1-.1-.1-.3v-.6c0-.1 0-.2.1-.3.1-.1.2-.1.3-.1h2v-1.5c0-.7.1-1.3.3-1.7.2-.4.5-.7.9-.9.4-.2.9-.3 1.6-.3.4 0 .8 0 1.1.1.3.1.4.2.4.3v.9zM147.9 43.2c0 .2-.1.3-.4.3-.4.1-.9.1-1.3.1-1 0-1.7-.2-2.1-.6-.4-.4-.6-1.1-.6-2.1v-7.1l-2-.2c-.3 0-.4-.1-.4-.4v-.6c0-.1 0-.2.1-.3.1-.1.2-.1.3-.1h2v-2c0-.2.1-.4.4-.4l1-.2h.1c.1 0 .2 0 .2.1.1.1.1.1.1.2v2.2h2.2c.1 0 .2 0 .3.1.1.1.1.2.1.3v.7c0 .1 0 .2-.1.3-.1.1-.2.1-.3.1h-2.2v7.1c0 .5.1.9.2 1 .2.2.4.2.9.2h1.1c.3 0 .4.1.4.3v1zM158.3 38.1c0 .3-.1.4-.4.4h-6.8v.3c0 1.2.2 2 .7 2.5.5.5 1.2.8 2.1.8.6 0 1.3 0 1.9-.1.6 0 1.2-.1 1.7-.2h.1c.2 0 .3.1.3.3v.7c0 .1 0 .2-.1.3-.1.1-.2.1-.3.2-.5.1-1.1.2-1.7.2-.6.1-1.2.1-1.9.1-.8 0-1.6-.2-2.3-.5-.7-.3-1.2-.8-1.7-1.5-.4-.7-.6-1.7-.6-2.9V37c0-1.5.4-2.6 1.2-3.5.8-.8 1.9-1.3 3.3-1.3 1 0 1.8.2 2.4.6.7.4 1.2.9 1.5 1.7.3.7.5 1.5.5 2.5v1.1zm-1.8-.9V37c0-.7-.1-1.4-.3-1.8-.2-.5-.5-.8-.9-1-.4-.2-.9-.3-1.5-.3-1.8 0-2.7 1.1-2.7 3.2v.2h5.4zM162.7 43.1c0 .1 0 .2-.1.3-.1.1-.2.1-.3.1h-1c-.1 0-.2 0-.3-.1-.1-.1-.1-.2-.1-.3V28.7c0-.1 0-.2.1-.3.1-.1.2-.1.3-.1h1c.1 0 .2 0 .3.1.1.1.1.2.1.3v14.4zM172.7 40.7c0 1-.3 1.7-1 2.2-.7.5-1.6.7-2.8.7-1.3 0-2.4-.1-3.2-.3-.3-.1-.4-.2-.4-.4v-.7c0-.1 0-.2.1-.2.1-.1.2-.1.3-.1h.1c1.2.2 2.2.2 3.2.2.7 0 1.2-.1 1.5-.3.3-.2.5-.6.5-1.1 0-.3-.1-.6-.3-.8-.2-.2-.6-.5-1.2-.9l-2-1.2c-.7-.4-1.2-.8-1.5-1.3-.3-.5-.5-1-.5-1.6 0-1 .3-1.7 1-2.1.6-.4 1.5-.6 2.7-.6 1 0 2.1.1 3.2.3.2 0 .4.2.4.4v.7c0 .2-.1.3-.3.3h-.1c-1.3-.1-2.3-.2-3.1-.2-.7 0-1.1.1-1.4.2-.3.2-.4.5-.4.9 0 .3.1.5.3.7.2.2.6.5 1.1.8l2 1.2c.8.5 1.4 1 1.7 1.4-.1.7.1 1.2.1 1.8zM183.7 38.1c0 .3-.1.4-.4.4h-6.8v.3c0 1.2.2 2 .7 2.5.5.5 1.2.8 2.1.8.6 0 1.3 0 1.9-.1.6 0 1.2-.1 1.7-.2h.1c.2 0 .3.1.3.3v.7c0 .1 0 .2-.1.3-.1.1-.2.1-.3.2-.5.1-1.1.2-1.7.2-.6.1-1.2.1-1.9.1-.8 0-1.6-.2-2.3-.5-.7-.3-1.2-.8-1.7-1.5-.4-.7-.6-1.7-.6-2.9V37c0-1.5.4-2.6 1.2-3.5.8-.8 1.9-1.3 3.3-1.3 1 0 1.8.2 2.4.6.7.4 1.2.9 1.5 1.7.3.7.5 1.5.5 2.5v1.1zm-1.8-.9V37c0-.7-.1-1.4-.3-1.8-.2-.5-.5-.8-.9-1-.4-.2-.9-.3-1.5-.3-1.8 0-2.7 1.1-2.7 3.2v.2h5.4zM193.1 40.7c0 1-.3 1.7-1 2.2-.7.5-1.6.7-2.8.7-1.3 0-2.4-.1-3.2-.3-.3-.1-.4-.2-.4-.4v-.7c0-.1 0-.2.1-.2.1-.1.2-.1.3-.1h.1c1.2.2 2.2.2 3.2.2.7 0 1.2-.1 1.5-.3.3-.2.5-.6.5-1.1 0-.3-.1-.6-.3-.8-.2-.2-.6-.5-1.2-.9l-2-1.2c-.7-.4-1.2-.8-1.5-1.3-.3-.5-.5-1-.5-1.6 0-1 .3-1.7 1-2.1.6-.4 1.5-.6 2.7-.6 1 0 2.1.1 3.2.3.2 0 .4.2.4.4v.7c0 .2-.1.3-.3.3h-.1c-1.3-.1-2.3-.2-3.1-.2-.7 0-1.1.1-1.4.2-.3.2-.4.5-.4.9 0 .3.1.5.3.7.2.2.6.5 1.1.8l2 1.2c.8.5 1.4 1 1.7 1.4 0 .7.1 1.2.1 1.8zM201.1 43.2c0 .2-.1.3-.4.3-.4.1-.9.1-1.3.1-1 0-1.7-.2-2.1-.6-.4-.4-.6-1.1-.6-2.1v-7.1l-2-.2c-.3 0-.4-.1-.4-.4v-.6c0-.1 0-.2.1-.3.1-.1.2-.1.3-.1h2v-2c0-.2.1-.4.4-.4l1-.2h.1c.1 0 .2 0 .2.1.1.1.1.1.1.2v2.2h2.2c.1 0 .2 0 .3.1.1.1.1.2.1.3v.7c0 .1 0 .2-.1.3-.1.1-.2.1-.3.1h-2.2v7.1c0 .5.1.9.2 1 .2.2.4.2.9.2h1.1c.3 0 .4.1.4.3v1zM205.1 30.2c0 .1 0 .2-.1.3-.1.1-.2.1-.3.1h-1c-.1 0-.2 0-.3-.1-.1-.1-.1-.2-.1-.3v-1.6c0-.1 0-.2.1-.3.1-.1.2-.1.3-.1h1c.1 0 .2 0 .3.1.1.1.1.2.1.3v1.6zm-.1 12.9c0 .1 0 .2-.1.3-.1.1-.2.1-.3.1h-1c-.1 0-.2 0-.3-.1-.1-.1-.1-.2-.1-.3V32.8c0-.1 0-.2.1-.3.1-.1.2-.1.3-.1h1c.1 0 .2 0 .3.1.1.1.1.2.1.3v10.3zM210 43.1c0 .1 0 .2-.1.3-.1.1-.2.1-.3.1h-1c-.1 0-.2 0-.3-.1-.1-.1-.1-.2-.1-.3V28.7c0-.1 0-.2.1-.3.1-.1.2-.1.3-.1h1c.1 0 .2 0 .3.1.1.1.1.2.1.3v14.4zM220 40.7c0 1-.3 1.7-1 2.2-.7.5-1.6.7-2.8.7-1.3 0-2.4-.1-3.2-.3-.3-.1-.4-.2-.4-.4v-.7c0-.1 0-.2.1-.2.1-.1.2-.1.3-.1h.1c1.2.2 2.2.2 3.2.2.7 0 1.2-.1 1.5-.3.3-.2.5-.6.5-1.1 0-.3-.1-.6-.3-.8-.2-.2-.6-.5-1.2-.9l-2-1.2c-.7-.4-1.2-.8-1.5-1.3-.3-.5-.5-1-.5-1.6 0-1 .3-1.7 1-2.1.6-.4 1.5-.6 2.7-.6 1 0 2.1.1 3.2.3.2 0 .4.2.4.4v.7c0 .2-.1.3-.3.3h-.1c-1.3-.1-2.3-.2-3.1-.2-.7 0-1.1.1-1.4.2-.3.2-.4.5-.4.9 0 .3.1.5.3.7.2.2.6.5 1.1.8l2 1.2c.8.5 1.4 1 1.7 1.4-.1.7.1 1.2.1 1.8zM230.8 32.7v.1l-3.3 11.6c-.2.8-.5 1.3-.7 1.8-.3.4-.7.7-1.1.9-.5.2-1.1.3-1.8.3-.6 0-1.2-.1-1.7-.2-.3-.1-.4-.2-.4-.3v-.7c0-.2.1-.3.4-.3h.1c.9.1 1.5.1 1.8.1.6 0 1-.1 1.3-.4.3-.2.5-.7.7-1.4l.2-.8h-.3c-.4 0-.7-.1-.9-.3-.2-.2-.4-.5-.6-1.1l-2.7-9.2v-.1c0-.2.1-.3.4-.3h1.1c.2 0 .3.1.3.3l2.4 8.8c.1.3.2.4.4.4h.3l2.5-9.2c0-.1.1-.2.1-.2.1-.1.2-.1.2-.1h1.1c.1 0 .2 0 .2.1v.2zM241.5 43.1c0 .1 0 .2-.1.3-.1.1-.2.1-.3.1h-1c-.1 0-.2 0-.3-.1-.1-.1-.1-.2-.1-.3v-6.7c0-.7-.1-1.2-.2-1.6-.2-.4-.4-.7-.7-.8-.3-.2-.8-.2-1.3-.2-.8 0-1.7.3-2.7.8v8.5c0 .1 0 .2-.1.3-.1.1-.2.1-.3.1h-1c-.1 0-.2 0-.3-.1-.1-.1-.1-.2-.1-.3V32.8c0-.1 0-.2.1-.3.1-.1.2-.1.3-.1h1c.1 0 .2 0 .3.1.1.1.1.2.1.3v.4c.6-.3 1.1-.6 1.6-.7.5-.2 1-.2 1.6-.2 1.2 0 2.1.4 2.7 1.1.6.7.9 1.8.9 3.1v6.6zM252.8 38.1c0 .3-.1.4-.4.4h-6.8v.3c0 1.2.2 2 .7 2.5.5.5 1.2.8 2.1.8.6 0 1.3 0 1.9-.1.6 0 1.2-.1 1.7-.2h.1c.2 0 .3.1.3.3v.7c0 .1 0 .2-.1.3-.1.1-.2.1-.3.2-.5.1-1.1.2-1.7.2-.6.1-1.2.1-1.9.1-.8 0-1.6-.2-2.3-.5-.7-.3-1.2-.8-1.7-1.5-.4-.7-.6-1.7-.6-2.9V37c0-1.5.4-2.6 1.2-3.5.8-.8 1.9-1.3 3.3-1.3 1 0 1.8.2 2.4.6.7.4 1.2.9 1.5 1.7.3.7.5 1.5.5 2.5v1.1zm-1.8-.9V37c0-.7-.1-1.4-.3-1.8-.2-.5-.5-.8-.9-1-.4-.2-.9-.3-1.5-.3-1.8 0-2.7 1.1-2.7 3.2v.2h5.4zM260.5 43.2c0 .2-.1.3-.4.3-.4.1-.9.1-1.3.1-1 0-1.7-.2-2.1-.6-.4-.4-.6-1.1-.6-2.1v-7.1l-2-.2c-.3 0-.4-.1-.4-.4v-.6c0-.1 0-.2.1-.3.1-.1.2-.1.3-.1h2v-2c0-.2.1-.4.4-.4l1-.2h.1c.1 0 .2 0 .2.1.1.1.1.1.1.2v2.2h2.2c.1 0 .2 0 .3.1.1.1.1.2.1.3v.7c0 .1 0 .2-.1.3-.1.1-.2.1-.3.1h-2.2v7.1c0 .5.1.9.2 1 .2.2.4.2.9.2h1.1c.3 0 .4.1.4.3v1z"/></g></svg>