<svg xmlns="http://www.w3.org/2000/svg" viewBox="20 14 249 43"><path d="M164.62,56.08a.92.92,0,0,1-.85-.49L160,49.43v5.86c0,.59-.16.79-.76.79H157c-.61,0-.76-.2-.76-.79V38.19c0-1.2.58-1.35,2.22-1.62.46-.07,1.41-.35,1.49.36a3.6,3.6,0,0,1,0,.49v9.9c1.26-2,3.69-5.55,6.25-5.55,1,0,1,.71,1.2,1.44a5.33,5.33,0,0,1,.12.89c0,1.16-1.19,1.08-1.94,1.42A5.33,5.33,0,0,0,163.24,48L167.68,55c.52.82.52,1.1-.51,1.1Z" fill="#53606b"/><path d="M152.65,56.08h-2.09c-.72,0-.9-.12-.9-.79V47c0-1.42-.15-2.74-2-2.74-2,0-2.13,1.67-2.13,2.74v8.31c0,.59-.16.79-.77.79h-2.21c-.61,0-.77-.2-.77-.79v-8.6c0-2,.1-5.12,5.88-5.12,2.64,0,5.26.61,5.71,3.51a11.33,11.33,0,0,1,.08,1.61v8.6C153.41,55.88,153.25,56.08,152.65,56.08Z" fill="#53606b"/><path d="M106.33,56.34c-2.57,0-4.88-1-5.37-3.55a2.66,2.66,0,0,1-.06-.52c0-.8.92-.89,1.5-1.06,1.4-.41,1.69-.53,2,1a1.82,1.82,0,0,0,2,1.67A1.5,1.5,0,0,0,108,52.31c0-1.46-2.39-2.19-3.49-2.69-1.67-.76-3.26-1.74-3.26-3.87,0-2.69,2.22-4.15,5.11-4.15,3.2,0,5,1.77,5,3.62,0,1-.37,1-1.6,1.19s-1.48.05-1.76-1.17a1.61,1.61,0,0,0-1.65-1.41c-1,0-1.55.51-1.55,1.43s1.06,1.48,2,1.89c2.18,1,4.88,1.75,4.88,4.73C111.57,54.62,109.5,56.34,106.33,56.34Z" fill="#53606b"/><path d="M97.61,55.58a12.33,12.33,0,0,1-4.57.74c-2.41,0-3.72-.51-4.61-1.4s-1.06-2.39-1.06-3.76v-8c0-1.22,1.6-1.28,2.47-1.42s1.26-.17,1.26.65v8.76c0,1.22.11,2.6,2.13,2.6A4.47,4.47,0,0,0,95,53.4V43.26C95,42,96.64,42,97.5,41.83c1-.17,1.27-.17,1.27.66V54C98.77,55.06,98.48,55.24,97.61,55.58Z" fill="#53606b"/><path d="M84.56,55.29c0,.59-.16.79-.76.79H81.47c-.73,0-.91-.12-.91-.79V47.73H74.87v7.56c0,.59-.16.79-.77.79H71.63c-.66,0-.76-.24-.76-.79V38.23c0-.93.88-1.13,1.6-1.27.32-.07.69-.13,1.11-.2,1.11-.18,1.29.11,1.29.89v7.2h5.69V38.29c0-.93.88-1.13,1.6-1.27l1.11-.19c1.11-.19,1.29.1,1.29.89Z" fill="#53606b"/><path d="M179.17,49.82h-7c.05,2,.93,3.9,3.05,3.9,1.95,0,2.27-1.62,3.15-1.62.4,0,.77.41,1,.67.69.7.9,1,.19,1.76a6.66,6.66,0,0,1-4.72,1.79c-3.39,0-6.28-2-6.28-7.52,0-3.52,1.68-7.16,6.24-7.16s5.56,3.85,5.56,7C180.38,49.73,179.88,49.82,179.17,49.82Zm-4.54-5.77c-1.81,0-2.35,1.61-2.44,3.38h4.61C176.79,45.8,176.61,44.05,174.63,44.05Z" fill="#53606b"/><path d="M137.69,55.71a12.13,12.13,0,0,1-4,.69c-3.07,0-5.86-1.23-5.86-4.28,0-4.68,5.86-4.89,7.44-4.9V45.86c0-.76-.09-1.88-1.62-1.88a1.61,1.61,0,0,0-1.78,1.29c-.4,1.34-.43,1.32-1.78,1.16s-1.6-.33-1.6-1c0-2.61,2.43-3.77,5.39-3.77,4.94,0,5,3.34,5,4.32V54C138.93,55.05,138.8,55.33,137.69,55.71Zm-2.38-6.4c-1.81,0-3.82.49-3.82,2.77,0,1.12.72,2,2.24,2a6.5,6.5,0,0,0,1.58-.19Z" fill="#53606b"/><path d="M119.07,56.32a11.21,11.21,0,0,1-4.59-1c-.65-.35-.56-1.13-.56-1.76V38c0-1.2.59-1.34,2.23-1.61,1.16-.19,1.5-.23,1.5.72v5.67a5.51,5.51,0,0,1,3.28-1.07c3.43,0,5.24,2.83,5.24,6.65C126.17,53.84,123,56.32,119.07,56.32Zm.66-11.87a3.29,3.29,0,0,0-2.08.83v8.24a4.2,4.2,0,0,0,1.42.24c1,0,3.33-.39,3.33-4.94C122.4,45.59,121.19,44.45,119.73,44.45Z" fill="#53606b"/><path d="M193.5,56.08h-2.08c-.72,0-.9-.12-.9-.79V47c0-1.42-.16-2.74-2-2.74-2,0-2.13,1.67-2.13,2.74v8.31c0,.59-.16.79-.77.79h-2.22c-.6,0-.76-.2-.76-.79v-8.6c0-2,.1-5.12,5.88-5.12,2.64,0,5.25.61,5.7,3.51a10.09,10.09,0,0,1,.09,1.61v8.6C194.27,55.88,194.11,56.08,193.5,56.08Z" fill="#53606b"/><path d="M30.63,37.09c1.7.34,1,1.22,1.62,3.16.87,2.68,2.93.1,2.66-1.61-.13-.87-.73-1.27-1.31-1.93a8.05,8.05,0,0,0-5.55-2.2c-2.1,0-3.67-.26-3.82-1A5.16,5.16,0,0,1,24.48,32c.25-1.69.53-3.65-2.05-3.65a2.15,2.15,0,0,0-2.28,2.33c0,1.18.75,2.83,1.64,2.95,1.05.13.88.77-.07,1.47a3.67,3.67,0,0,0-1.21,1.5c-.91,1.79.61,5.58-.29,8.37-.69,2.15-.5,3.76,1.34,4.9,1.36.85,3.35-2.73,1.73-4.42a4.51,4.51,0,0,1-.9-1.62c-.33-1.77.33-5,1.76-5C25.2,38.86,26,40,25,42.4a5.33,5.33,0,0,0,.2,2.87,7.66,7.66,0,0,1-.15,3.7c-.35,1.67-.71,2.63-1.6,2.67s-2.24.14-2.88.9A3,3,0,0,0,20,54.75c.2,1.09,1.45,1.54,3.66,1.4A24.46,24.46,0,0,0,26.56,56c1.84-.35,1.92-1.16,1.59-3.87a26.6,26.6,0,0,0-.51-4c-.7-2.8.37-5.6,1.36-4.89,2.09,1.48-1.05,5.48,1.38,6.42.83.32,1.71-.56,2.15-1.21,1-1.41,1.62-3.32,0-3.43-2.53-.16,1-3.22-2.17-4.15C28.57,40.33,28.37,36.63,30.63,37.09Z" fill="#6ab450"/><path d="M49.23,23.24c-.22-1.81-2.41-2.66-3.56-3.8s-4.2-.64-2.89,1.25c.41.59.69.54,1.56.46C45.69,21,47,24,43.53,23c-2.28-.7-3.75-.06-4.17-1.4s3.41-2.05,2.11-4.86c-.49-1.06-2.59-3.56-5.07-1.06-1.92,1.93-1.87,3.64.09,4.55,1.65.76.11,1.5-1,1.2s-2.66-2.17-5.4-.36c-1.31.86-2,1.71-3.27,2.58-1.64,1.14-1.72,2.71-1.14,3.11a3.38,3.38,0,0,0,3.09-.24c.84-.61-.16-1.54.57-2.4.88-1,3.07-1.95,4.05-1.18a2,2,0,0,1,.35,2.27A4.83,4.83,0,0,1,31,27.31a8.1,8.1,0,0,1-2.74.69,2.6,2.6,0,0,0-2.17,1.22c-.83,1.51.71,2.15,1.95,3.08,1,.78,3.12,1.85,3.69,1.42s.8-1.58-.54-2.72.7-1.47,2.19-2.44a3.33,3.33,0,0,1,1.78-.64c1.3,0,1.82,2.28,1,3-.48.42-1,.25-1.7.69-2.16,1.38.1,2.49.79,3.81s1.55,3,2.7,2.23c.73-.53.62-1.34.52-2.13-.37-2.88,1.37-2.25,1.29-4.5,0-1-1.17-1.73-1.34-2.84a3.44,3.44,0,0,1,3-3.47,15.52,15.52,0,0,1,4.09.31C47.74,25.63,49.5,25.52,49.23,23.24Z" fill="#6ab450"/><path d="M57.85,35.84c0-2-.73-2.49-2.11-3.06-1-.39-2-.75-2.83.41a2.1,2.1,0,0,1-1.59.62c-.79,0-1.22-.85-1-2.11A4.12,4.12,0,0,1,51,30.11a3.71,3.71,0,0,1,.88-1c1-.72,3.15-1.19,2.78.75-.18,1,.89,1.58,1.71,1.85,1.38.44,1.72-2,.74-2.71a21.36,21.36,0,0,1-1.8-1.71c-1.62-1.45-3.94-2-5-.7a9.64,9.64,0,0,0-1.46,2.65c-.59,1.18-2.41,1.54-2.07.46.17-.53.5-2.77-1.1-3.38a3.62,3.62,0,0,0-2.69.19A2.92,2.92,0,0,0,41.14,29c0,2.63,1.8,3.62,2.89,2.9s1.79.12,1,.71-2.8.8-3.94,1.76a3,3,0,0,0-1.08,1.55,14.67,14.67,0,0,0-.34,1.94c-.43,2.11.81,3,2.53,2.68,2.21-.42.13-2,.08-3.17s.36-1.85,1.29-2.11c.52-.14,1.44-.12,1.65.65a5.34,5.34,0,0,1-.06,2.64,9.8,9.8,0,0,1-1,2.24c-.47.87-1.1,1.32-1.51,2.22-.73,1.6,1.15,5.29,2.94,3.85a3.06,3.06,0,0,0,1.21-1.64,7.36,7.36,0,0,0-.26-3.74c-.41-1.54,1-5.22,2.27-5.71,1.14-.43,1.44.59,2.12,1.06a1.39,1.39,0,0,0,1.79-.23c2.84-3.17,1.81-.2,1.93.9a1.75,1.75,0,0,0,2.07,1.61c.46-.13.78-.72.92-1.37A6,6,0,0,0,57.85,35.84Z" fill="#6ab450"/><path d="M57.94,52.93c-.18-3.49-.21-4.36-.81-5.81-.38-.9-.75-1.52-.36-2,1.16-1.44,1.35-2.67.88-3.45a3.34,3.34,0,0,0-3.35-1.74,3,3,0,0,0-1.37,4.47c1,1.06,1.91,1.08,2,1.61.16,1-.51,1.22-1.35,1.36A2.2,2.2,0,0,1,51,45.72c-.36-1.58-1.18-2.52-.08-3.31.43-.32.54-.76.81-1.67.45-1.52,0-2.27-1.51-2.1-2.23.24-2.32,1.82-1.75,3.13,1,2.43-.68,4.06-.09,5.55.77,1.91,4.17,2.18,5.26,3.23a1.55,1.55,0,0,1-.15,2,2.63,2.63,0,0,1-4.66-1.12c-.28-2-1.69-3.1-2.66-3S44.81,49.77,45,51.2c.1.81.57,1.64.75,2.73.32,1.91,1.42,3,2.61,2C51.86,53.21,58.29,59.9,57.94,52.93Z" fill="#6ab450"/><path d="M42.87,53.58c.75-1.43,1-2.72.29-3.11s-1.51.05-2.28,1.16c-1,1.42-3.3.06-3.39-.69-.12-1,.35-.94,1.53-1.51,1.49-.72,1.76.24,2.56.22,1.32,0,1.34-1.62.94-2.64a1.27,1.27,0,0,0-.71-.83,2.21,2.21,0,0,0-2.1.75c-1.07,1.12-2.11.33-2-.27.07-.36.85-.79,1.28-1.09,1.24-.86,1.84-2,1.26-3.3a3.66,3.66,0,0,0-2-2.06A3.11,3.11,0,0,0,35.6,41a2.76,2.76,0,0,0-.12,4.35c1.82,1.11-.8,3-2.39,4.8-1.07,1.23-3.07,3.45-2,5a2.72,2.72,0,0,0,3.11,1c.9-.35,1.08-.82,1.88-1.39s1.46-.79,2.78.83a1.89,1.89,0,0,0,2.69.29A6.81,6.81,0,0,0,42.87,53.58Z" fill="#6ab450"/><path d="M239.53,56.4c-4.21,0-6.43-2.27-6.39-4.34a6.92,6.92,0,0,1,1.49-3.91A3.21,3.21,0,0,1,237.54,47a2.13,2.13,0,0,1,1.72,2.4c-.87,3.72,4,3.31,4.05-.14.05-2.31-1.64-4.34-5-4.34-1.52,0-2.49.49-3.3.49a1.38,1.38,0,0,1-1.51-1.75c1.29-3.78,2.6-7.57,3.86-11.37a1.13,1.13,0,0,1,.39-.62,1.08,1.08,0,0,1,.59-.12h6.3c1.31,0,2.12-.08,3.93-.07,2.14,0,3,.53,2.71,2.7a3.42,3.42,0,0,1-1.19,2.41,2.39,2.39,0,0,1-1.4.17c-2.67-.29-7.24-2.17-8.74,1.39-.35.81-.85,1.4-.07,2.12s2.87.33,4,.57A8,8,0,0,1,247,42.22,6.9,6.9,0,0,1,249.55,48C249.43,53,245.85,56.4,239.53,56.4Z" fill="#6ab450"/><path d="M234.67,34a66.11,66.11,0,0,0-5.19,18.07,6.74,6.74,0,0,1-.53,2.53c-.7,1.2-2.61,1.37-3.83,1.22-2-.24-3-1.4-2.55-3.4.9-4.2,3.05-8,4.39-12,.46-1.38,1.89-4.25-.57-4.44s-3.27.69-5.55,1.14c-1.68.34-3.49-1.19-3.8-3-.14-.82-.46-1.62.22-2.1a5.47,5.47,0,0,1,3.31-.59c1.73,0,3.46,0,5.19,0h7.61a1.43,1.43,0,0,1,1.53,1.22A2.6,2.6,0,0,1,234.67,34Z" fill="#6ab450"/><path d="M260.05,47.7a7.07,7.07,0,0,1-2.83.52c-1.88,0-3.94-.48-3.94-2.34,0-2.24,2.68-2.68,4.66-3v-1a.81.81,0,0,0-.81-.88,1.14,1.14,0,0,0-1,.86,1.21,1.21,0,0,1-1.24.77c-.69,0-1.23-.35-1.23-1.05,0-.88,1.09-2,3.88-2,1.82,0,3.19.81,3.19,2.62v4.23A1.3,1.3,0,0,1,260.05,47.7ZM257.3,39A1.65,1.65,0,1,1,259,37.32,1.64,1.64,0,0,1,257.3,39Zm.64,5.06c-1,.16-1.92.51-1.92,1.62a1,1,0,0,0,1.11,1.1c.43,0,.81-.17.81-.65Zm-.64-7.4a.66.66,0,0,0-.67.67.67.67,0,1,0,1.34,0A.66.66,0,0,0,257.3,36.63Z" fill="#6ab450"/><path d="M268,42.32c-1.27,0-.89-1.28-1.77-1.28a.55.55,0,0,0-.62.56v6a.34.34,0,0,1-.38.38h-2.13a.34.34,0,0,1-.38-.38V41.07a.94.94,0,0,1,.69-1.07,8.37,8.37,0,0,1,3-.49c1.91,0,2.7.67,2.7,1.58S268.75,42.32,268,42.32Z" fill="#6ab450"/></svg>