<svg xmlns="http://www.w3.org/2000/svg" width="60" height="107" viewBox="0 0 60 107"><g fill="#FFF" fill-rule="evenodd"><path d="M3.922 73.249v9.435H2.098v-12.85h1.277l7.66 9.436v-9.435h1.824v12.849h-1.276zM19.9 81.215c1.588 0 2.7-1.266 2.7-2.845 0-1.579-1.112-2.845-2.7-2.845-1.586 0-2.7 1.266-2.7 2.845 0 1.579 1.114 2.845 2.7 2.845zm0-7.342c2.536 0 4.433 1.927 4.433 4.497s-1.897 4.497-4.432 4.497c-2.536 0-4.433-1.927-4.433-4.497s1.897-4.497 4.433-4.497zm11.62 1.725a2.457 2.457 0 0 0-.675-.073c-.894 0-1.842.624-2.317 1.45v5.709h-1.733v-8.628h1.678v.992c.42-.588 1.314-1.175 2.573-1.175.182 0 .474.018.674.055l-.2 1.67zm2.462 4.792c.803.623 1.678.954 2.536.954.748 0 1.496-.404 1.496-1.083 0-.991-1.423-1.046-2.682-1.469-1.04-.348-1.97-1.01-1.97-2.22 0-1.855 1.642-2.7 3.174-2.7 1.259 0 2.17.405 2.846.955l-.894 1.249c-.53-.404-1.15-.68-1.843-.68-.839 0-1.55.404-1.55 1.083 0 .588.675.79 1.532 1.01 1.35.349 3.12.955 3.12 2.735 0 1.634-1.515 2.643-3.193 2.643-1.368 0-2.517-.422-3.465-1.193l.893-1.285zm16.8 2.294h-2.317l-4.25-4.222v4.222h-1.733V69.65h1.733v7.71l3.575-3.305h2.445l-4.287 3.892zm2.736-5.415h4.67c-.256-1.102-1.24-1.872-2.262-1.872a2.494 2.494 0 0 0-2.408 1.872zm-.146 1.468a2.77 2.77 0 0 0 2.773 2.607c1.276 0 1.97-.624 2.462-1.175l1.131 1.083c-.639.826-1.86 1.615-3.612 1.615-2.499 0-4.432-1.909-4.432-4.497s1.75-4.497 4.177-4.497c2.39 0 4.122 1.946 4.122 4.497 0 .073 0 .202-.018.367h-6.603zM6.658 101.5c-.328.11-.857.183-1.35.183-1.076 0-1.879-.385-2.426-1.01-.51-.568-.693-1.358-.693-2.294v-3.946H0v-1.56h2.19v-2.387h1.733v2.387h2.736v1.56H3.922v4.038c0 .459.036.844.255 1.101.237.294.73.46 1.186.46.255 0 .693-.038.948-.11l.347 1.578zm6.347-1.469c1.587 0 2.7-1.266 2.7-2.845 0-1.579-1.113-2.845-2.7-2.845-1.587 0-2.7 1.266-2.7 2.845 0 1.579 1.113 2.845 2.7 2.845m0-7.342c2.535 0 4.432 1.927 4.432 4.497s-1.897 4.497-4.432 4.497-4.432-1.927-4.432-4.497 1.897-4.497 4.432-4.497m13.26 2.881a3.082 3.082 0 0 0-2.444-1.229c-1.66 0-2.754 1.34-2.754 2.845 0 1.542 1.185 2.845 2.845 2.845.876 0 1.77-.44 2.353-1.23v-3.23zm-2.59 6.113c-.766 0-1.568-.22-2.152-.569-1.295-.77-2.189-2.202-2.189-3.928 0-1.725.912-3.175 2.207-3.946.584-.35 1.295-.551 2.098-.551.967 0 1.897.294 2.681.973v-.79h1.678v8.26c0 1.286-.164 2.148-.51 2.827-.694 1.34-2.007 2.13-3.703 2.13-2.226 0-3.63-1.138-4.177-2.001l1.276-1.193c.62.826 1.423 1.542 2.827 1.542.93 0 1.66-.349 2.08-.991.31-.478.474-1.139.474-2.222v-.477c-.693.606-1.568.936-2.59.936zm35.747-47.11l-.015-.306-.147-1.85-.205-1.838-.267-1.834-.324-1.824-.382-1.804-.427-1.808-.5-1.777-.559-1.778-.604-1.746-.66-1.719-.722-1.718-.767-1.673-.823-1.66-.882-1.627-.927-1.6-.987-1.57-1.015-1.526-1.088-1.509L47 21.94l-1.176-1.422-1.208-1.393-1.264-1.348-1.296-1.318-1.34-1.258-1.384-1.23-1.427-1.17-1.456-1.14-1.486-1.079-1.53-1.038-1.56-.976-1.59-.933-1.618-.89-1.649-.829-1.662-.785-1.692-.71-1.723-.667-1.735-.622-1.753-.548-1.78-.503-1.78-.444-1.81-.385L11.27.94 9.447.674 7.622.467 5.797.319 3.957.23 2.12.2v54.373h10.124V11.5l1.604.37 1.574.444 1.574.488 1.545.548 1.531.608 1.516.65 1.472.711 1.47.756 1.428.8 1.4.86 1.382.916 1.339.95 1.31 1.006 1.266 1.037 1.235 1.095 1.192 1.125 1.163 1.17 1.12 1.215 1.074 1.259 1.029 1.288.986 1.318.927 1.364.898 1.377.84 1.42.793 1.452.735 1.48.693 1.495.647 1.528.588 1.538.531 1.555.47 1.584.428 1.6.367 1.614.31 1.614.264 1.646.19 1.627.141 1.565zM49.278 15.49h10.126V.2H49.278zm0 8.537h.539v-2.714h-.539z"/><path d="M49.278 18.204h.539V15.49h-.539zm9.588 29.116h.538v-2.713h-.538zm0-5.823h.538v-2.714h-.538zm0-5.823h.538V32.96h-.538zm0-5.824h.538v-2.713h-.538zm0-5.823h.538v-2.714h-.538zm0-5.823h.538V15.49h-.538zm-9.187 36.013l-.406.356L47.5 52.53l.406-.356zm-4.009-4.619l-.406.356-1.774-2.044.406-.356zm-3.963-4.565l-.406.356-1.774-2.044.406-.357zm-3.963-4.566l-.405.357-1.775-2.044.406-.357zm-3.963-4.565l-.405.356-1.775-2.044.406-.356zm-3.962-4.565l-.406.356-1.774-2.044.405-.357zm-3.963-4.566l-.406.357-1.774-2.044.405-.357zm-3.963-4.565l-.406.356-1.774-2.044.406-.356zM17.93 17.64l-.406.357-1.774-2.044.406-.357zm-3.734-4.301l-.405.356-1.775-2.044.406-.356zm44.67 41.234h.538V50.43h-.538z"/></g></svg>