<?xml version="1.0" encoding="UTF-8" standalone="no"?>
<svg
   xmlns:dc="http://purl.org/dc/elements/1.1/"
   xmlns:cc="http://creativecommons.org/ns#"
   xmlns:rdf="http://www.w3.org/1999/02/22-rdf-syntax-ns#"
   xmlns:svg="http://www.w3.org/2000/svg"
   xmlns="http://www.w3.org/2000/svg"
   id="svg2"
   version="1.1"
   x="0"
   y="0"
   width="420"
   height="500"
   viewBox="30.5 31.5 420 500"
   enable-background="new 30.5 31.5 412 533"
   xml:space="preserve"><metadata
     id="metadata4"><rdf:RDF><cc:Work
         rdf:about=""><dc:format>
          
          
          
          
          image/svg+xml
        
        
        
        
        </dc:format><dc:type
           rdf:resource="http://purl.org/dc/dcmitype/StillImage" /><dc:title></dc:title></cc:Work></rdf:RDF></metadata><defs
     id="defs6" /><path
     d="M 36.845963,32.7 C 30.285483,272.4597 74.816703,408.70539 240.5,530.88 406.18329,408.70539 450.71452,272.4597 444.15404,32.7 269.40696,32.912842 146.41006,32.7087 36.845963,32.7 Z"
     id="path4224"
     style="fill:#ffe000;fill-opacity:1;stroke:#000000" /><path
     style="fill:#000000;stroke:#000000;stroke-width:0.5;stroke-linejoin:round;stroke-miterlimit:4;stroke-dasharray:none;stroke-opacity:1"
     d="m 101.18578,376.71482 c -2.647647,-4.94474 -8.101997,-15.78378 -10.673727,-21.21117 -19.25144,-40.62832 -29.6667,-75.29504 -33.25438,-110.68569 -1.92291,-18.96857 -3.36305,-59.42907 -2.36899,-66.55624 0.73341,-5.25834 2.44277,-10.18518 3.98354,-11.48166 0.35976,-0.30271 1.02003,-0.66002 1.46727,-0.79402 1.80733,-0.54149 4.17359,1.3152 6.95992,5.4611 6.7069,9.97951 29.96981,37.54619 53.375057,63.24975 18.75282,20.59424 35.36063,37.47678 46.83189,47.60648 4.64549,4.10222 12.36457,10.32047 12.81133,10.32047 0.1437,0 1.48557,-0.90415 2.98191,-2.00924 3.28619,-2.42691 6.45953,-4.63896 11.3343,-7.90081 2.13849,-1.4309 4.24719,-3.03632 5.07087,-3.86054 1.26908,-1.26998 1.50294,-1.64775 2.34005,-3.77977 4.15918,-10.59294 7.88144,-24.97093 7.44788,-28.76902 -0.1282,-1.12341 -0.684,-15.57838 -0.96789,-25.1741 -0.25898,-8.75424 -0.52184,-10.57608 -2.08164,-14.4279 -6.3215,-15.61026 -8.31707,-20.88316 -11.61345,-30.68621 l -2.53436,-7.53697 -0.094,-3.4886 c -0.13617,-5.05483 0.99811,-20.05203 1.93018,-25.52108 0.39953,-2.34452 0.42989,-2.90154 0.21132,-3.87615 -0.32732,-1.45912 -1.07534,-3.06399 -2.27035,-4.8709 -0.5222,-0.78951 -1.0111,-1.64455 -1.08647,-1.9001 -0.0754,-0.25555 -0.25525,-0.50999 -0.39975,-0.56544 -0.20306,-0.0779 -95.342547,17.95723 -97.432247,18.46978 -0.92826,0.22768 -0.50363,0.71174 1.18438,1.35013 0.91789,0.34714 4.51373,1.68805 7.990757,2.9798 4.27867,1.58957 5.74816,2.41796 5.74816,2.41796 0,0 -40.249827,-3.35536 -41.133387,-3.57972 -0.57563,-0.14617 1.5982,-1.36072 22.15874,-12.38041 12.538337,-6.72009 22.870377,-12.14494 22.870377,-12.14494 0,0 -2.73595,3.06723 -6.16961,6.72635 -3.43365,3.65912 -6.242997,6.77706 -6.242997,6.92873 0,0.15168 0.21737,0.27578 0.483047,0.27578 0.51364,0 88.67132,-16.94397 89.18671,-17.14176 0.16703,-0.0641 0.43068,-0.42451 0.58587,-0.80092 0.5428,-1.31669 2.79427,-4.43897 3.90881,-5.42068 0.61839,-0.5447 1.81375,-1.33326 2.65646,-1.75238 3.57288,-1.77701 7.90455,-0.92361 12.37246,2.43755 0.83639,0.6292 1.73544,1.14401 1.9978,1.14401 0.46112,0 70.27472,-13.24898 71.04701,-13.48306 0.2101,-0.0637 0.65521,-0.71417 0.98914,-1.44552 1.45535,-3.187847 4.99033,-5.989903 8.60857,-6.823736 3.76863,-0.868488 8.04625,0.272121 11.90381,3.174081 l 1.53194,1.152475 66.0307,-12.715275 c 36.31682,-6.993398 66.23412,-12.714535 66.48284,-12.713631 0.61846,0.0022 2.16145,1.155223 2.67655,2.000067 0.82498,1.352971 0.40226,2.719846 -1.1772,3.806504 -0.9226,0.634777 -3.17471,1.080011 -66.4865,13.143869 -36.04234,6.867756 -65.74809,12.537726 -66.01275,12.599926 -0.27671,0.065 -0.52062,0.31763 -0.57381,0.59433 -0.46895,2.43868 -0.72291,3.23922 -1.55491,4.9013 -1.02151,2.04057 -3.39695,4.82316 -5.14294,6.02443 l -0.89805,0.61784 -0.58135,4.80523 c -1.1716,9.68365 -2.04453,17.38564 -2.38735,21.06356 -0.43198,4.63351 -1.09896,9.99554 -1.53546,12.34348 -0.2681,1.44199 -0.79009,2.71813 -2.87862,7.03727 -2.96475,6.13142 -3.95669,8.67723 -4.65662,11.95147 -0.27851,1.30282 -0.95375,4.50065 -1.50057,7.10628 -1.87994,8.95818 -3.31936,14.16153 -5.89585,21.31241 -1.32155,3.66804 -2.83368,7.68954 -3.36026,8.93668 -1.57882,3.73948 -3.99969,7.67839 -6.16589,10.03222 -1.53014,1.66274 -11.21241,20.14454 -12.33083,23.5375 -1.0233,3.10447 -1.18115,6.66662 -0.52622,11.87384 0.15117,1.20196 0.80889,3.60795 1.91561,7.00753 2.00232,6.15076 2.53593,8.16425 2.81552,10.62473 0.26207,2.3067 1.1266,4.536 3.64243,9.39314 2.39403,4.62188 2.92585,5.92802 5.47959,13.45887 2.55661,7.53918 3.84888,11.83001 4.41839,14.67074 0.51359,2.56184 0.89058,3.47588 2.31033,5.60136 1.99902,2.99261 2.02242,3.04886 2.34055,5.62508 0.51876,4.2003 1.5244,5.63721 7.19464,10.28016 4.0523,3.31816 6.70876,5.96727 7.81109,7.78947 0.60999,1.0083 1.60236,3.74253 3.81622,10.51467 3.70208,11.32435 5.22434,16.17542 5.78832,18.44603 0.47525,1.91363 1.21553,3.4895 4.18193,8.90238 2.68151,4.89295 2.41068,4.58185 4.39197,5.04552 2.24767,0.52602 5.12435,1.53948 6.30191,2.2202 1.38989,0.80346 1.9103,1.45838 2.0713,2.60669 0.32445,2.31432 1.87304,9.43632 2.14323,9.8566 0.34576,0.53801 29.52896,20.76325 30.48987,21.23338 -16.79037,25.56437 -69.60942,78.78943 -113.11483,108.85219 -33.5791,-25.33855 -56.03484,-43.20291 -80.4908,-71.67221 -22.31956,-25.9823 -44.06197,-55.3845 -58.67849,-82.34154 z m 167.84764,-16.85049 c 0,-0.20727 -0.34519,-1.29744 -0.7659,-2.4226 -1.15416,-3.08673 -2.65409,-8.25562 -3.02935,-10.43949 -0.38303,-2.22862 -1.53539,-4.68543 -3.47447,-7.40774 -1.46153,-2.0518 -2.21314,-2.85547 -3.71163,-3.96892 -1.55327,-1.15412 -16.12401,-15.79789 -19.43209,-19.52948 -1.41745,-1.59891 -2.79571,-3.10874 -3.06288,-3.35515 l -0.48581,-0.44804 -3.00187,0.38509 c -1.65109,0.21179 -4.59611,0.47632 -6.54452,0.58784 -2.971,0.17004 -3.80315,0.29618 -5.15765,0.78176 -2.35046,0.84263 -7.24288,3.25549 -7.39276,3.64595 -0.15576,0.40598 -0.14909,0.41135 12.23795,9.8434 26.92821,20.5044 43.16412,32.70422 43.52381,32.70422 0.16402,0 0.29775,-0.16958 0.29717,-0.37684 z M 234.62445,194.48181 c 0.78981,-0.84139 1.70501,-2.78976 2.64627,-5.63368 0.77401,-2.3384 0.80775,-2.55736 0.69792,-4.52217 -0.0703,-1.25393 -0.44016,-3.46015 -0.94226,-5.61794 -0.71444,-3.06986 -0.82318,-3.87532 -0.7995,-5.9219 0.0881,-7.62517 4.86056,-14.09882 11.03233,-14.96496 3.38201,-0.47463 7.85114,0.6342 13.54069,3.35961 1.80909,0.86658 2.69507,1.84909 4.26585,4.73075 0.54388,0.99773 1.06623,1.81407 1.16083,1.81407 0.33644,0 1.6834,-1.85383 2.42511,-3.3378 0.41439,-0.82907 1.24561,-2.72314 1.84728,-4.20906 0.99444,-2.45635 1.12559,-2.98431 1.44451,-5.81423 0.19295,-1.71191 0.48832,-3.71923 0.65636,-4.46073 0.16811,-0.74148 1.55987,-4.61763 3.09274,-8.61367 1.53288,-3.99602 4.25666,-11.33517 6.05283,-16.3092 3.001,-8.31056 3.25475,-9.1267 3.12992,-10.06757 -0.17909,-1.35052 -0.96193,-3.3677 -1.39305,-3.58974 -0.39012,-0.20095 -72.29628,13.16902 -72.63221,13.50496 -0.55508,0.55512 -4.31322,6.11536 -5.03936,7.45586 -0.74264,1.37111 -0.82425,1.67681 -0.80939,3.03224 0.0337,3.06889 2.79097,14.39313 5.21694,21.42651 1.1983,3.47392 1.53531,5.3999 1.53531,8.77306 l 0,2.28164 0.94112,1.74044 c 3.01335,5.57292 4.55606,7.58808 9.91886,12.95689 2.57376,2.57666 3.86359,3.69822 5.03455,4.37779 1.9749,1.14614 3.04306,2.53743 4.47035,5.82243 1.15186,2.65125 1.47674,2.88286 2.506,1.7864 z"
     id="path4167" /></svg>