<?xml version="1.0" encoding="utf-8"?>
<!DOCTYPE svg PUBLIC "-//W3C//DTD SVG 1.1//EN" "http://www.w3.org/Graphics/SVG/1.1/DTD/svg11.dtd">
<svg version="1.1" xmlns="http://www.w3.org/2000/svg" xmlns:xlink="http://www.w3.org/1999/xlink" x="0px" y="0px"
	 viewBox="0 0 257.4 42.1" style="enable-background:new 0 0 257.4 42.1;" xml:space="preserve">
<style type="text/css">
	.st0{fill:#44372B;}
	.st1{fill:#B92331;}
</style>
<g>
	<path class="st0" d="M107.8,6.2v11.9c0,0.3-0.1,0.4-1.2,0.4c-0.9,0-1-0.1-1.2-0.3l-5-8.8v8.7c0,0.3-0.2,0.4-1.1,0.4
		c-0.9,0-1-0.1-1-0.4V6.2c0-0.3,0.1-0.4,1.2-0.4c0.8,0,1,0.1,1.1,0.3l5,8.8V6.2c0-0.3,0.1-0.4,1-0.4C107.7,5.8,107.8,5.9,107.8,6.2z
		"/>
	<path class="st0" d="M120.5,12.2c0,4.6-1.3,6.5-5,6.5c-3.7,0-5-1.8-5-6.5s1.3-6.5,5-6.5C119.2,5.7,120.5,7.5,120.5,12.2z
		 M118.3,12.2c0-3.7-0.7-4.7-2.8-4.7c-2.1,0-2.8,1-2.8,4.7s0.7,4.7,2.8,4.7C117.6,16.8,118.3,15.9,118.3,12.2z"/>
	<path class="st0" d="M125.3,13.6v4.5c0,0.3-0.2,0.4-1.1,0.4c-0.9,0-1.1-0.1-1.1-0.4V6.3c0-0.3,0.2-0.4,1-0.4h3.1
		c3.2,0,4.6,1.2,4.6,3.9c0,1.7-0.8,2.8-2.3,3.4c0.8,0.4,1.2,1.1,1.7,2.2c0.3,0.8,0.7,1.8,0.9,2.7c0.1,0.3,0.1,0.5-1.1,0.5
		c-0.9,0-1.1-0.1-1.2-0.4c-0.1-0.6-0.3-1.3-0.6-2.2c-0.6-1.4-1.3-2.4-2.6-2.4H125.3z M125.3,11.8h1.9c1.8,0,2.4-0.4,2.4-2.1
		c0-1.6-0.7-2.1-2.4-2.1h-1.9V11.8z"/>
	<path class="st0" d="M143.7,12.4v2c0,2.9-1.6,4.2-4.4,4.2c-3.6,0-5.1-1.8-5.1-6.5c0-4.6,1.3-6.5,5-6.5c2.9,0,4.4,1.3,4.4,3.5
		c0,0.4-0.2,0.5-1,0.5c-0.9,0-1-0.1-1-0.4c0-1.1-0.8-1.7-2.3-1.7c-2.2,0-2.8,1-2.8,4.7c0,3.7,0.8,4.7,3,4.7c1.7,0,2.4-0.7,2.4-2.4
		v-0.7h-2.4c-0.3,0-0.3-0.1-0.3-0.9c0-0.8,0.1-0.9,0.3-0.9h3.5C143.6,11.9,143.7,12,143.7,12.4z"/>
	<path class="st0" d="M148.6,7.7v3.4h4.8c0.3,0,0.4,0.1,0.4,0.9c0,0.8-0.1,0.9-0.4,0.9h-4.8v3.7h5.5c0.3,0,0.4,0.1,0.4,0.9
		c0,0.8-0.1,0.9-0.4,0.9h-6.6c-0.9,0-1-0.1-1-0.4V6.3c0-0.3,0.1-0.4,1-0.4h6.6c0.3,0,0.3,0.1,0.3,0.9c0,0.8-0.1,0.9-0.3,0.9H148.6z"
		/>
	<path class="st0" d="M163.3,15.1c0-1.3-0.9-1.6-2.5-2c-2.1-0.6-4.2-1.3-4.2-3.9c0-2.2,1.1-3.5,4.2-3.5c2.9,0,4.2,1,4.2,3.3
		c0,0.4-0.1,0.4-1,0.4c-0.9,0-1-0.1-1-0.4c0-1.1-0.7-1.6-2.2-1.6c-1.6,0-2.1,0.5-2.1,1.6c0,1.4,1,1.7,2.9,2.3
		c2.4,0.7,3.7,1.2,3.7,3.8c0,2.3-1.2,3.5-4.5,3.5c-2.8,0-4.4-1-4.4-3.3c0-0.4,0.1-0.4,1-0.4c0.9,0,1,0.1,1,0.4
		c0,1.2,0.9,1.6,2.4,1.6C162.6,16.9,163.3,16.4,163.3,15.1z"/>
	<path class="st0" d="M98.4,40.9V29c0-0.3,0.1-0.4,1.1-0.4c0.9,0,1.1,0.1,1.1,0.4v11.9c0,0.3-0.1,0.4-1.1,0.4
		C98.5,41.3,98.4,41.2,98.4,40.9z"/>
	<path class="st0" d="M104.6,41.3c-0.9,0-1-0.1-1-0.4V29.1c0-0.3,0.1-0.4,1-0.4h3.2c3.9,0,5.1,1.8,5.1,6.3c0,4.5-1.3,6.3-5.1,6.3
		H104.6z M107.9,39.4c2.3,0,2.9-1,2.9-4.5s-0.6-4.5-2.9-4.5h-2.1v8.9H107.9z"/>
	<path class="st0" d="M117.8,36.4v4.5c0,0.3-0.2,0.4-1.1,0.4c-0.9,0-1.1-0.1-1.1-0.4V29.1c0-0.3,0.2-0.4,1-0.4h3.1
		c3.2,0,4.6,1.2,4.6,3.9c0,1.7-0.8,2.8-2.3,3.4c0.8,0.4,1.2,1.1,1.7,2.2c0.3,0.8,0.7,1.8,0.9,2.7c0.1,0.3,0.1,0.5-1.1,0.5
		c-0.9,0-1.1-0.1-1.2-0.4c-0.1-0.6-0.3-1.3-0.6-2.2c-0.6-1.4-1.3-2.4-2.6-2.4H117.8z M117.8,34.6h1.9c1.8,0,2.4-0.4,2.4-2.1
		c0-1.6-0.7-2.1-2.4-2.1h-1.9V34.6z"/>
	<path class="st0" d="M129.2,30.5v3.4h4.8c0.3,0,0.4,0.1,0.4,0.9c0,0.8-0.1,0.9-0.4,0.9h-4.8v3.7h5.5c0.3,0,0.4,0.1,0.4,0.9
		c0,0.8-0.1,0.9-0.4,0.9h-6.6c-0.9,0-1-0.1-1-0.4V29.1c0-0.3,0.1-0.4,1-0.4h6.6c0.3,0,0.3,0.1,0.3,0.9c0,0.8-0.1,0.9-0.3,0.9H129.2z
		"/>
	<path class="st0" d="M142.4,30.5v10.4c0,0.3-0.1,0.4-1.1,0.4c-0.9,0-1.1-0.1-1.1-0.4V30.5h-3.1c-0.3,0-0.4-0.1-0.4-0.9
		c0-0.8,0.1-0.9,0.4-0.9h8.3c0.3,0,0.4,0.1,0.4,0.9c0,0.8-0.1,0.9-0.4,0.9H142.4z"/>
	<path class="st0" d="M152.7,30.5v10.4c0,0.3-0.1,0.4-1.1,0.4s-1.1-0.1-1.1-0.4V30.5h-3.1c-0.3,0-0.4-0.1-0.4-0.9
		c0-0.8,0.1-0.9,0.4-0.9h8.3c0.3,0,0.4,0.1,0.4,0.9c0,0.8-0.1,0.9-0.4,0.9H152.7z"/>
	<path class="st0" d="M164.5,37.9c0-1.3-0.9-1.6-2.5-2c-2.1-0.6-4.2-1.3-4.2-3.9c0-2.2,1.1-3.5,4.2-3.5c2.9,0,4.2,1,4.2,3.3
		c0,0.4-0.1,0.4-1,0.4c-0.9,0-1-0.1-1-0.4c0-1.1-0.7-1.6-2.2-1.6c-1.6,0-2.1,0.5-2.1,1.6c0,1.4,1,1.7,2.9,2.3
		c2.4,0.7,3.7,1.2,3.7,3.8c0,2.3-1.2,3.5-4.5,3.5c-2.8,0-4.4-1-4.4-3.3c0-0.4,0.1-0.4,1-0.4c0.9,0,1,0.1,1,0.4
		c0,1.2,0.9,1.6,2.4,1.6C163.7,39.7,164.5,39.2,164.5,37.9z"/>
	<path class="st0" d="M176.4,40.9v-5.1h-5.1v5.1c0,0.3-0.2,0.4-1.1,0.4c-0.9,0-1.1-0.1-1.1-0.4V29c0-0.3,0.1-0.4,1.1-0.4
		c0.9,0,1.1,0.1,1.1,0.4v4.8h5.1V29c0-0.3,0.1-0.4,1.1-0.4c0.9,0,1.1,0.1,1.1,0.4v11.9c0,0.3-0.2,0.4-1.1,0.4
		C176.6,41.3,176.4,41.2,176.4,40.9z"/>
	<path class="st0" d="M189,29l0.4-0.7c0.2-0.2,0.3-0.3,1-0.3c0.7,0,0.8,0.2,0.7,0.4l-1,1.6c0.8,1,1.2,2.7,1.2,5c0,4.6-1.3,6.5-5,6.5
		c-1.1,0-2-0.2-2.7-0.5l-0.5,0.8c-0.1,0.2-0.3,0.3-1,0.3c-0.7,0-0.8-0.2-0.7-0.4l1-1.7c-0.9-1-1.2-2.7-1.2-5.1c0-4.6,1.3-6.5,5-6.5
		C187.4,28.5,188.3,28.7,189,29z M183.7,38l4.3-7.2c-0.4-0.3-1-0.4-1.7-0.4c-2.1,0-2.8,1-2.8,4.7C183.4,36.3,183.5,37.3,183.7,38z
		 M189.1,35c0-1.3-0.1-2.3-0.3-3l-4.3,7.2c0.4,0.3,1,0.4,1.7,0.4C188.4,39.6,189.1,38.7,189.1,35z"/>
	<path class="st0" d="M203.1,35.2v2c0,2.9-1.6,4.2-4.4,4.2c-3.6,0-5.1-1.8-5.1-6.5c0-4.6,1.3-6.5,5-6.5c2.9,0,4.4,1.3,4.4,3.5
		c0,0.4-0.2,0.5-1,0.5c-0.9,0-1-0.1-1-0.4c0-1.1-0.8-1.7-2.3-1.7c-2.2,0-2.8,1-2.8,4.7c0,3.7,0.8,4.7,3,4.7c1.7,0,2.4-0.7,2.4-2.4
		v-0.7h-2.4c-0.3,0-0.3-0.1-0.3-0.9c0-0.8,0.1-0.9,0.3-0.9h3.5C202.9,34.7,203.1,34.8,203.1,35.2z"/>
	<path class="st0" d="M212.1,37.9c0-1.3-0.9-1.6-2.5-2c-2.1-0.6-4.2-1.3-4.2-3.9c0-2.2,1.1-3.5,4.2-3.5c2.9,0,4.2,1,4.2,3.3
		c0,0.4-0.1,0.4-1,0.4c-0.9,0-1-0.1-1-0.4c0-1.1-0.7-1.6-2.2-1.6c-1.6,0-2.1,0.5-2.1,1.6c0,1.4,1,1.7,2.9,2.3
		c2.4,0.7,3.7,1.2,3.7,3.8c0,2.3-1.2,3.5-4.5,3.5c-2.8,0-4.4-1-4.4-3.3c0-0.4,0.1-0.4,1-0.4c0.9,0,1,0.1,1,0.4
		c0,1.2,0.9,1.6,2.4,1.6C211.4,39.7,212.1,39.2,212.1,37.9z"/>
	<path class="st0" d="M221.8,34.7l4.2,6.2c0.2,0.3,0,0.5-1,0.5c-0.9,0-1.2-0.1-1.4-0.4l-3.6-5.3H219v5.3c0,0.3-0.2,0.4-1.1,0.4
		c-0.9,0-1.1-0.1-1.1-0.4V29c0-0.3,0.1-0.4,1.1-0.4c0.9,0,1.1,0.1,1.1,0.4v4.7h1.1l3.4-4.7c0.2-0.3,0.5-0.4,1.4-0.4
		c0.9,0,1.2,0.2,1,0.5L221.8,34.7z"/>
	<path class="st0" d="M237.3,35c0,4.6-1.3,6.5-5,6.5c-3.7,0-5-1.8-5-6.5s1.3-6.5,5-6.5C236,28.5,237.3,30.3,237.3,35z M235.1,35
		c0-3.7-0.7-4.7-2.8-4.7c-2.1,0-2.8,1-2.8,4.7s0.7,4.7,2.8,4.7C234.4,39.6,235.1,38.7,235.1,35z"/>
	<path class="st0" d="M242.1,39.4h4.8c0.3,0,0.4,0.1,0.4,0.9c0,0.8-0.1,0.9-0.4,0.9h-5.9c-0.9,0-1-0.1-1-0.4V29
		c0-0.3,0.1-0.4,1.1-0.4c0.9,0,1.1,0.1,1.1,0.4V39.4z"/>
	<path class="st0" d="M251.5,30.5v3.4h4.8c0.3,0,0.4,0.1,0.4,0.9c0,0.8-0.1,0.9-0.4,0.9h-4.8v3.7h5.5c0.3,0,0.4,0.1,0.4,0.9
		c0,0.8-0.1,0.9-0.4,0.9h-6.6c-0.9,0-1-0.1-1-0.4V29.1c0-0.3,0.1-0.4,1-0.4h6.6c0.3,0,0.3,0.1,0.3,0.9c0,0.8-0.1,0.9-0.3,0.9H251.5z
		"/>
</g>
<g>
	<path class="st1" d="M42.4,5.8H39c-0.1,0-0.1,0-0.1,0.1v35.3c0,0.1,0,0.1,0.1,0.1h3.4c0.1,0,0.1,0,0.1-0.1V5.9
		C42.5,5.8,42.4,5.8,42.4,5.8z"/>
	<path class="st1" d="M28.9,5.9c0-0.1,0-0.1-0.1-0.1h-3.4c-0.1,0-0.1,0-0.1,0.1l0,25.3c0,0-24.4-30.7-24.7-31.1C0.4-0.1,0,0,0,0.3
		v23.9c0,0.1,0,0.1,0.1,0.1h3.4c0.1,0,0.1,0,0.1-0.1V10.6L26,38.3l0,0c1.4,1.7,2.3,2.8,2.4,2.9c0.1,0.2,0.5,0.1,0.5-0.3V5.9z"/>
	<path class="st1" d="M80.5,12.1H77c-0.1,0-0.1,0-0.1,0.1v7.9H56.1V5.9c0-0.1,0-0.1-0.1-0.1h-3.4c-0.1,0-0.1,0-0.1,0.1v35.3
		c0,0.1,0,0.1,0.1,0.1H56c0.1,0,0.1,0,0.1-0.1V23.7h20.9v7.9c0,0.1,0,0.1,0.1,0.1h3.4c0.1,0,0.1,0,0.1-0.1V12.2
		C80.6,12.2,80.5,12.1,80.5,12.1z"/>
</g>
</svg>
