<svg id="Layer_1" data-name="Layer 1" xmlns="http://www.w3.org/2000/svg" xmlns:xlink="http://www.w3.org/1999/xlink" viewBox="0 0 595.28 185"><defs><style>.cls-1,.cls-4,.cls-7{fill:none;}.cls-2{fill:#f0515f;}.cls-3{fill:#fed600;}.cls-4{stroke:#f0515f;}.cls-4,.cls-7{stroke-width:0.35px;}.cls-5{fill:#006db6;}.cls-6{clip-path:url(#clip-path);}.cls-7{stroke:#006db6;}.cls-8{fill:#fff;}.cls-9{fill:#231f20;}</style><clipPath id="clip-path"><rect class="cls-1" x="48" y="27" width="75.67" height="133.99"/></clipPath></defs><title>Artboard 1</title><path class="cls-2" d="M67.17,60.27A4.57,4.57,0,0,1,70,61.91l.13.13.51-.51-.13-.13c-1.23-1.23-1.79-2.33-1.63-3.18A1.8,1.8,0,0,1,70,57l.13-.06,0-.14-.36-2.08,0-.18-.18,0A23.72,23.72,0,0,0,59.4,59.25l.09.1-.16,0h0a3.83,3.83,0,0,1-1,2.69l-.09.12.57.57.13-.13c1.19-1.24,2.27-1.89,3.15-1.89,1.26,0,1.84,1.35,1.84,2.61S63.34,66,62.09,66c-.87,0-2-.66-3.16-1.91l-.12-.13-.55.55.06.11a22.1,22.1,0,0,0,2.8,3.93l0,0a8,8,0,0,0,3.34.65h0a9,9,0,0,0,3.46-.64l0,0A13.19,13.19,0,0,0,70.57,64l0-.1-.07-.07-.26-.26-.12-.13-.13.13a4.57,4.57,0,0,1-2.85,1.64h0a1.53,1.53,0,0,1-1.35-.84,3.55,3.55,0,0,1,0-3.25,1.53,1.53,0,0,1,1.35-.84Z"/><path class="cls-2" d="M81.34,59.82c.85,0,1.91.68,3.07,2l.12.14.57-.57L85,61.25c-1.88-1.73-2.1-2.88-1.95-3.53a2.1,2.1,0,0,1,1.55-1.37l.22-.07-.1-.16-.19-2.77v-.17h-.17a79.84,79.84,0,0,0-12,.83l-.17,0,0,.17.23,1.58.12.83,0,.12.12,0a2.12,2.12,0,0,1,1.66,1.33c.24.87-.3,2-1.56,3.29l-.12.13.51.51.13-.12a4.57,4.57,0,0,1,2.85-1.64c1.2,0,1.74,1.28,1.74,2.47s-.55,2.47-1.75,2.47a4.57,4.57,0,0,1-2.85-1.64l-.13-.13-.12.13-.26.26-.07.07,0,.1a14.1,14.1,0,0,0,2.9,4.52l0,0a8.8,8.8,0,0,0,3.17.6,9.77,9.77,0,0,0,3.28-.59l0,0c1.12-.84,2.62-3.95,2.88-4.84l0-.1L85,63.51l-.31-.31-.13-.13-.12.14c-1.16,1.29-2.22,2-3.07,2-1.21,0-1.77-1.39-1.77-2.68A3.69,3.69,0,0,1,80,60.63a1.52,1.52,0,0,1,1.31-.81Z"/><path class="cls-2" d="M87.35,53.18h-.17v.17L87,56.1l-.13.16.25.07a2.12,2.12,0,0,1,1.58,1.38c.15.65-.06,1.8-1.94,3.54l-.14.13.57.57.12-.14c1.16-1.29,2.22-2,3.07-2,1.21,0,1.77,1.39,1.77,2.68s-.55,2.69-1.77,2.69h0c-.85,0-1.91-.68-3.07-2l-.12-.14-.51.51,0,.1c.26.86,1.78,4,2.88,4.84l0,0a10.41,10.41,0,0,0,3.33.57,11.22,11.22,0,0,0,3.41-.57h0l0,0A13.17,13.17,0,0,0,99,64l0-.1L99,63.83l-.16-.16-.22-.23-.13.13a4.57,4.57,0,0,1-2.85,1.64c-1.2,0-1.75-1.28-1.75-2.47A3.21,3.21,0,0,1,94.31,61a1.51,1.51,0,0,1,1.29-.75,4.57,4.57,0,0,1,2.85,1.64l.13.13.12-.13.26-.26.12-.12L99,61.4c-1.25-1.27-1.79-2.4-1.57-3.26a2.09,2.09,0,0,1,1.53-1.32l.11,0v-.11c.08-.62.16-1.19.24-1.72l.11-.73,0-.17-.17,0a85.18,85.18,0,0,0-11.9-.83Z"/><path class="cls-2" d="M112.73,64.05c-1.19,1.25-2.28,1.91-3.16,1.91h0a1.6,1.6,0,0,1-1.41-.88,3.76,3.76,0,0,1,0-3.45,1.61,1.61,0,0,1,1.42-.89c.87,0,2,.65,3.15,1.89l.13.13.57-.57-.09-.12a3.91,3.91,0,0,1-1-2.65v-.09l-.07-.06c-2.39-2.23-5.77-3.79-10.34-4.77l-.18,0,0,.18c-.1.54-.22,1.27-.34,2l0,.14.13.05a1.88,1.88,0,0,1,1.3,1.29c.19.86-.37,2-1.62,3.23l-.12.13.51.51.12-.12a4.57,4.57,0,0,1,2.85-1.64c1.2,0,1.75,1.28,1.75,2.47s-.55,2.47-1.75,2.47a4.57,4.57,0,0,1-2.85-1.64l-.13-.13-.13.13-.26.26-.07.07,0,.1a13.19,13.19,0,0,0,2.58,4.52l0,0a9.11,9.11,0,0,0,3.38.64h0a9,9,0,0,0,3.38-.64l0,0a22.07,22.07,0,0,0,2.8-3.93l.06-.11-.55-.55-.12.13Z"/><path class="cls-3" d="M87.54,48.9a5.95,5.95,0,0,1-3.44,0l-.06,0v.05c0,.19.08,1.06.12,1.74l.37,5.51a4.92,4.92,0,0,1,2.65,0l.46-7.28-.09,0Z"/><path class="cls-4" d="M87.54,48.9a5.95,5.95,0,0,1-3.44,0l-.06,0v.05c0,.19.08,1.06.12,1.74l.37,5.51a4.92,4.92,0,0,1,2.65,0l.46-7.28-.09,0Z"/><path class="cls-3" d="M102.49,50.59v0c0-.11,0-.21,0-.31v0c0-.09,0-.18,0-.27v0c0-.09,0-.17,0-.26v0a2.29,2.29,0,0,0-.07-.23h0a1.92,1.92,0,0,0-.1-.22l0,0a1.76,1.76,0,0,0-.12-.2v0l-.15-.17c-1.28-1.3-5-1.05-14.3.18l-.12,1.9c13.64-1.71,12.28-1.21,11.37,5.84a4.45,4.45,0,0,1,2.68.08c.37-2.51.84-4.41.93-5.79h0c0-.12,0-.23,0-.34Z"/><path class="cls-4" d="M102.49,50.59v0c0-.11,0-.21,0-.31v0c0-.09,0-.18,0-.27v0c0-.09,0-.17,0-.26v0a2.29,2.29,0,0,0-.07-.23h0a1.92,1.92,0,0,0-.1-.22l0,0a1.76,1.76,0,0,0-.12-.2v0l-.15-.17c-1.28-1.3-5-1.05-14.3.18l-.12,1.9c13.64-1.71,12.28-1.21,11.37,5.84a4.45,4.45,0,0,1,2.68.08c.37-2.51.84-4.41.93-5.79h0c0-.12,0-.23,0-.34Z"/><path class="cls-3" d="M69.07,50.62s0-.05,0-.08,0-.19,0-.28v-.09c0-.09,0-.18,0-.26v0c0-.08,0-.16,0-.23l0-.06c0-.08,0-.15.07-.23l0,0,.08-.18,0,0,.12-.19,0,0,.12-.14,0,0c-15.59.23-16.65-.19-14.19,9.09A4.64,4.64,0,0,1,58.4,58c-1.82-7.35-1.53-7,10.67-7,0,0,0,0,0-.07s0-.16,0-.23Z"/><path class="cls-4" d="M69.07,50.62s0-.05,0-.08,0-.19,0-.28v-.09c0-.09,0-.18,0-.26v0c0-.08,0-.16,0-.23l0-.06c0-.08,0-.15.07-.23l0,0,.08-.18,0,0,.12-.19,0,0,.12-.14,0,0c-15.59.23-16.65-.19-14.19,9.09A4.64,4.64,0,0,1,58.4,58c-1.82-7.35-1.53-7,10.67-7,0,0,0,0,0-.07s0-.16,0-.23Z"/><path class="cls-3" d="M101.92,48.7h0l.15.17v0a1.76,1.76,0,0,1,.12.2l0,0a1.92,1.92,0,0,1,.1.22h0a2.29,2.29,0,0,1,.07.23v0c0,.08,0,.17,0,.26v0c0,.09,0,.18,0,.27v0c0,.1,0,.2,0,.31v0c0,.11,0,.22,0,.34,12.44,0,12.58-.18,10.79,7a4.63,4.63,0,0,1,2.9-.18c2.22-8.54,2.47-9.09-14.26-9.09Z"/><path class="cls-4" d="M101.92,48.7h0l.15.17v0a1.76,1.76,0,0,1,.12.2l0,0a1.92,1.92,0,0,1,.1.22h0a2.29,2.29,0,0,1,.07.23v0c0,.08,0,.17,0,.26v0c0,.09,0,.18,0,.27v0c0,.1,0,.2,0,.31v0c0,.11,0,.22,0,.34,12.44,0,12.58-.18,10.79,7a4.63,4.63,0,0,1,2.9-.18c2.22-8.54,2.47-9.09-14.26-9.09Z"/><path class="cls-3" d="M84,48.88c-9.25-1.2-13.07-1.55-14.38-.15l-.12.14,0,0-.12.19,0,0-.08.18,0,0c0,.07-.05.15-.07.23l0,.06c0,.07,0,.15,0,.23v0c0,.08,0,.17,0,.26v.09c0,.09,0,.18,0,.28s0,.05,0,.08,0,.15,0,.23a57,57,0,0,0,.9,5.93,4.39,4.39,0,0,1,2.71-.19c-1-7.34-2-7.36,11.48-5.83v-.1L84,48.92v0Z"/><path class="cls-4" d="M84,48.88c-9.25-1.2-13.07-1.55-14.38-.15l-.12.14,0,0-.12.19,0,0-.08.18,0,0c0,.07-.05.15-.07.23l0,.06c0,.07,0,.15,0,.23v0c0,.08,0,.17,0,.26v.09c0,.09,0,.18,0,.28s0,.05,0,.08,0,.15,0,.23a57,57,0,0,0,.9,5.93,4.39,4.39,0,0,1,2.71-.19c-1-7.34-2-7.36,11.48-5.83v-.1L84,48.92v0Z"/><path class="cls-3" d="M113.85,73.21a152,152,0,0,1,3.67-15c-3.31-1.56-7.36-.1-4.33,3.93l-.33.34c-7-7.36-7,9.06,0,1.66l.33.33a22.6,22.6,0,0,1-2.75,3.87,9,9,0,0,1-6.63,0A13.15,13.15,0,0,1,101.3,64l.26-.26c6.53,6.53,6.53-8.44,0-1.91l-.26-.26c6.74-6.74-9.12-6.74-2.46,0l-.26.26c-6.53-6.53-6.53,8.44,0,1.91l.26.26a13.14,13.14,0,0,1-2.52,4.43,10.07,10.07,0,0,1-6.62,0c-1.06-.79-2.55-3.86-2.82-4.75l.3-.3C94,71,94,54,87.18,61.68l-.3-.3c7.8-7.19-9.83-7.19-2,0l-.3.3c-6.86-7.66-6.86,9.31,0,1.65l.3.3c-.27.89-1.76,4-2.82,4.75a8.88,8.88,0,0,1-6.33,0A14.06,14.06,0,0,1,72.86,64l.26-.26c6.53,6.53,6.53-8.44,0-1.91l-.26-.26c6.66-6.74-9.19-6.74-2.46,0l-.26.26c-6.53-6.53-6.53,8.44,0,1.91l.26.26a13.16,13.16,0,0,1-2.52,4.43,9.12,9.12,0,0,1-6.66,0,22.62,22.62,0,0,1-2.75-3.87l.34-.33c7,7.4,7-9,0-1.66l-.34-.34c3-4-1-5.48-4.33-3.93a151.83,151.83,0,0,1,3.67,15Z"/><path class="cls-4" d="M113.85,73.21a152,152,0,0,1,3.67-15c-3.31-1.56-7.36-.1-4.33,3.93l-.33.34c-7-7.36-7,9.06,0,1.66l.33.33a22.6,22.6,0,0,1-2.75,3.87,9,9,0,0,1-6.63,0A13.15,13.15,0,0,1,101.3,64l.26-.26c6.53,6.53,6.53-8.44,0-1.91l-.26-.26c6.74-6.74-9.12-6.74-2.46,0l-.26.26c-6.53-6.53-6.53,8.44,0,1.91l.26.26a13.14,13.14,0,0,1-2.52,4.43,10.07,10.07,0,0,1-6.62,0c-1.06-.79-2.55-3.86-2.82-4.75l.3-.3C94,71,94,54,87.18,61.68l-.3-.3c7.8-7.19-9.83-7.19-2,0l-.3.3c-6.86-7.66-6.86,9.31,0,1.65l.3.3c-.27.89-1.76,4-2.82,4.75a8.88,8.88,0,0,1-6.33,0A14.06,14.06,0,0,1,72.86,64l.26-.26c6.53,6.53,6.53-8.44,0-1.91l-.26-.26c6.66-6.74-9.19-6.74-2.46,0l-.26.26c-6.53-6.53-6.53,8.44,0,1.91l.26.26a13.16,13.16,0,0,1-2.52,4.43,9.12,9.12,0,0,1-6.66,0,22.62,22.62,0,0,1-2.75-3.87l.34-.33c7,7.4,7-9,0-1.66l-.34-.34c3-4-1-5.48-4.33-3.93a151.83,151.83,0,0,1,3.67,15Z"/><path class="cls-5" d="M48.18,73.05h75.31c-.09,36.94-4,64.85-37.64,87.72C52,137.9,48.25,110.08,48.18,73.05Z"/><g class="cls-6"><path class="cls-7" d="M48.18,73.05h75.31c-.09,36.94-4,64.85-37.64,87.72C52,137.9,48.25,110.08,48.18,73.05Z"/></g><path class="cls-8" d="M85.83,132.89,82,130.67,84.11,127l-13.36-7.71L68.64,123l-3.83-2.21v-4.43H69V100.89H64.8V96.46l3.83-2.21,2.12,3.66L84.11,90.2,82,86.53l3.83-2.21,3.84,2.21L87.55,90.2l13.36,7.71L103,94.25l3.83,2.21v4.43h-4.23v15.43h4.23v4.43L103,123l-2.12-3.66L87.55,127l2.12,3.66-3.84,2.21Zm25.62-27.41V93.82L101.35,88l-2.12,3.66-5.42-3.13,2.12-3.66L85.83,79l-10.1,5.83,2.12,3.66-5.42,3.13L70.31,88l-10.1,5.83v11.66h4.23v6.26H60.22v11.66l10.1,5.83,2.12-3.66,5.42,3.13-2.12,3.66,10.1,5.83,10.1-5.83-2.12-3.66,5.42-3.13,2.12,3.66,10.1-5.83V111.73h-4.23v-6.26Z"/><path class="cls-3" d="M87.23,37.8a5.79,5.79,0,1,1-2.79,0c0-.6,0-4.52,0-4.52h-3.2v-2.7h3.2v-3.4h2.79v3.4h3.2v2.7h-3.2c0,.38,0,4.37,0,4.53Z"/><g class="cls-6"><path class="cls-4" d="M87.23,37.8a5.79,5.79,0,1,1-2.79,0c0-.6,0-4.52,0-4.52h-3.2v-2.7h3.2v-3.4h2.79v3.4h3.2v2.7h-3.2c0,.38,0,4.37,0,4.53Z"/></g><path class="cls-3" d="M91.43,41.94a5.93,5.93,0,0,1,.19,1.46,6.5,6.5,0,0,1-.16,1.33H80.2A6.64,6.64,0,0,1,80,43.4a5.84,5.84,0,0,1,.19-1.46h4.21V37.8a10.69,10.69,0,0,1,1.39-.17,10.68,10.68,0,0,1,1.4.17v4.14Z"/><path class="cls-4" d="M91.43,41.94a5.93,5.93,0,0,1,.19,1.46,6.5,6.5,0,0,1-.16,1.33H80.2A6.64,6.64,0,0,1,80,43.4a5.84,5.84,0,0,1,.19-1.46h4.21V37.8a10.69,10.69,0,0,1,1.39-.17,10.68,10.68,0,0,1,1.4.17v4.14Z"/><path class="cls-9" d="M157.07,73.18h20.69v4.16H162V90.11h14.54v4.1H162V111.6h-5Z"/><path class="cls-9" d="M218.8,92c0,13.23-8,20.24-17.84,20.24-10.15,0-17.27-7.87-17.27-19.5,0-12.2,7.58-20.18,17.84-20.18C212,72.55,218.8,80.59,218.8,92ZM189,92.62c0,8.21,4.45,15.56,12.26,15.56s12.31-7.24,12.31-16c0-7.64-4-15.62-12.26-15.62S189,84.18,189,92.62Z"/><path class="cls-9" d="M226.38,73.69a51.65,51.65,0,0,1,9.52-.8c5.3,0,8.72,1,11.12,3.14a9.57,9.57,0,0,1,3,7.3,10.09,10.09,0,0,1-7.24,9.81v.17c3,1,4.73,3.76,5.64,7.75,1.25,5.36,2.17,9.06,3,10.55h-5.13c-.63-1.08-1.48-4.39-2.57-9.18-1.14-5.3-3.19-7.3-7.7-7.47h-4.67V111.6h-5Zm5,17.5h5.07c5.3,0,8.67-2.91,8.67-7.3,0-5-3.59-7.13-8.84-7.18a20.41,20.41,0,0,0-4.9.46Z"/><path class="cls-9" d="M257.5,105.56a17.58,17.58,0,0,0,8.89,2.51c5.07,0,8-2.68,8-6.56,0-3.59-2.05-5.64-7.24-7.64C260.92,91.65,257,88.4,257,83c0-6,5-10.43,12.43-10.43A17.46,17.46,0,0,1,278,74.44l-1.37,4a15.3,15.3,0,0,0-7.3-1.82c-5.24,0-7.24,3.14-7.24,5.76,0,3.59,2.34,5.36,7.64,7.41,6.5,2.51,9.81,5.64,9.81,11.29,0,5.93-4.39,11.06-13.45,11.06-3.71,0-7.75-1.08-9.8-2.45Z"/><path class="cls-9" d="M295.86,111.6,283.32,73.18h5.36l6,18.93c1.65,5.19,3.08,9.86,4.1,14.37h.11c1.08-4.45,2.68-9.29,4.39-14.31l6.5-19h5.3L301.34,111.6Z"/><path class="cls-9" d="M323.35,99.52l-4,12.09h-5.13l13.05-38.42h6l13.11,38.42h-5.3L337,99.52Zm12.6-3.88-3.76-11.06c-.86-2.51-1.43-4.79-2-7h-.11c-.57,2.28-1.2,4.62-1.94,7l-3.76,11.12Z"/><path class="cls-9" d="M353.16,73.69a51.65,51.65,0,0,1,9.52-.8c5.3,0,8.72,1,11.12,3.14a9.57,9.57,0,0,1,3,7.3,10.09,10.09,0,0,1-7.24,9.81v.17c3,1,4.73,3.76,5.64,7.75,1.25,5.36,2.17,9.06,3,10.55h-5.13c-.63-1.08-1.48-4.39-2.57-9.18-1.14-5.3-3.19-7.3-7.7-7.47h-4.67V111.6h-5Zm5,17.5h5.07c5.3,0,8.67-2.91,8.67-7.3,0-5-3.59-7.13-8.84-7.18a20.4,20.4,0,0,0-4.9.46Z"/><path class="cls-9" d="M384.28,105.56a17.58,17.58,0,0,0,8.89,2.51c5.07,0,8-2.68,8-6.56,0-3.59-2.05-5.64-7.24-7.64C387.7,91.65,383.82,88.4,383.82,83c0-6,5-10.43,12.43-10.43a17.46,17.46,0,0,1,8.49,1.88l-1.37,4a15.31,15.31,0,0,0-7.3-1.82c-5.25,0-7.24,3.14-7.24,5.76,0,3.59,2.34,5.36,7.64,7.41,6.5,2.51,9.81,5.64,9.81,11.29,0,5.93-4.39,11.06-13.45,11.06-3.71,0-7.75-1.08-9.8-2.45Z"/><path class="cls-9" d="M414.2,73.69a48.07,48.07,0,0,1,9.06-.8c5,0,8.15.85,10.55,2.79A8.05,8.05,0,0,1,437,82.47c0,3.71-2.45,7-6.5,8.44V91c3.65.91,7.92,3.93,7.92,9.63a10.36,10.36,0,0,1-3.25,7.7c-2.68,2.45-7,3.59-13.28,3.59a57.91,57.91,0,0,1-7.7-.46Zm5,15.73h4.5c5.24,0,8.32-2.74,8.32-6.44,0-4.5-3.42-6.27-8.44-6.27a21.24,21.24,0,0,0-4.39.34Zm0,18.41a26.51,26.51,0,0,0,4.16.23c5.13,0,9.86-1.88,9.86-7.47,0-5.24-4.5-7.41-9.92-7.41h-4.1Z"/><path class="cls-9" d="M453.92,111.6V95.3L441.78,73.18h5.64l5.42,10.6c1.48,2.91,2.62,5.24,3.82,7.92h.11c1.08-2.51,2.39-5,3.88-7.92l5.53-10.6h5.64L458.94,95.24V111.6Z"/><path class="cls-9" d="M504.54,109.89a35.81,35.81,0,0,1-11.8,2.11c-5.81,0-10.6-1.48-14.37-5.07-3.31-3.19-5.36-8.32-5.36-14.31.06-11.46,7.92-19.84,20.81-19.84a23.76,23.76,0,0,1,9.58,1.77l-1.2,4a19.92,19.92,0,0,0-8.49-1.65c-9.35,0-15.45,5.81-15.45,15.45s5.87,15.51,14.82,15.51a16.17,16.17,0,0,0,6.61-1V95.41h-7.81v-4h12.66Z"/><path class="cls-9" d="M542.5,109.89A35.81,35.81,0,0,1,530.7,112c-5.81,0-10.6-1.48-14.37-5.07C513,103.74,511,98.61,511,92.62c.06-11.46,7.92-19.84,20.81-19.84a23.76,23.76,0,0,1,9.58,1.77l-1.2,4a19.92,19.92,0,0,0-8.49-1.65c-9.35,0-15.45,5.81-15.45,15.45S522.09,107.9,531,107.9a16.17,16.17,0,0,0,6.61-1V95.41h-7.81v-4H542.5Z"/></svg>