<?xml version="1.0" encoding="UTF-8" standalone="no"?>
<!-- Created with Inkscape (http://www.inkscape.org/) -->

<svg
   xmlns:dc="http://purl.org/dc/elements/1.1/"
   xmlns:cc="http://creativecommons.org/ns#"
   xmlns:rdf="http://www.w3.org/1999/02/22-rdf-syntax-ns#"
   xmlns:svg="http://www.w3.org/2000/svg"
   xmlns="http://www.w3.org/2000/svg"
   xmlns:sodipodi="http://sodipodi.sourceforge.net/DTD/sodipodi-0.dtd"
   xmlns:inkscape="http://www.inkscape.org/namespaces/inkscape"
   width="471.48752mm"
   height="543.98334mm"
   viewBox="0 0 471.48752 543.98334"
   version="1.1"
   id="svg8"
   inkscape:version="0.92.4 (5da689c313, 2019-01-14)"
   sodipodi:docname="hstr.svg">
  <defs
     id="defs2" />
  <sodipodi:namedview
     id="base"
     pagecolor="#ffffff"
     bordercolor="#666666"
     borderopacity="1.0"
     inkscape:pageopacity="0.0"
     inkscape:pageshadow="2"
     inkscape:zoom="0.38"
     inkscape:cx="826.78473"
     inkscape:cy="977.97606"
     inkscape:document-units="mm"
     inkscape:current-layer="layer1"
     showgrid="false"
     fit-margin-top="0"
     fit-margin-left="0"
     fit-margin-right="0"
     fit-margin-bottom="0"
     inkscape:window-width="1920"
     inkscape:window-height="1027"
     inkscape:window-x="-8"
     inkscape:window-y="-8"
     inkscape:window-maximized="1" />
  <metadata
     id="metadata5">
    <rdf:RDF>
      <cc:Work
         rdf:about="">
        <dc:format>image/svg+xml</dc:format>
        <dc:type
           rdf:resource="http://purl.org/dc/dcmitype/StillImage" />
        <dc:title />
      </cc:Work>
    </rdf:RDF>
  </metadata>
  <g
     inkscape:label="Layer 1"
     inkscape:groupmode="layer"
     id="layer1"
     transform="translate(-40.934807,378.67026)"
     style="display:inline">
    <path
       sodipodi:nodetypes="ccccccccccccsccccc"
       inkscape:connector-curvature="0"
       id="path816"
       transform="matrix(0.26458333,0,0,0.26458333,40.934807,-378.67026)"
       d="M 0,0 V 0.66601562 H 1782 L 891.06641,0.26757812 Z M 1782,0.66601562 891.4668,0.93359375 0.93359375,1.3339844 1.7324219,91.066406 C 4.2657554,369.99976 24.133982,611.066 61.333984,816.66602 121.60065,1148.9327 226.79934,1397.7327 396.66602,1608.666 c 96.13334,119.4667 212.93332,229.7348 388,366.1348 41.86666,32.6666 104.53333,79.8652 106,79.8652 1.86666,0 69.06809,-50.6668 116.13478,-87.4668 160.5333,-125.6 269.0665,-227.0659 362.5332,-339.1992 206.2667,-247.4667 322.7993,-550.6665 376.666,-980.5332 20.1333,-161.33335 32.2671,-355.86614 34.4004,-552.132816 z"
       style="display:inline;fill:#ffffff;fill-opacity:1;stroke:none;stroke-width:1" />
    <path
       style="display:inline;fill:#3761a5;fill-opacity:1;stroke:none;stroke-width:1"
       d="M 0,0 V 0.66601562 H 1782 L 891.06641,0.26757812 Z M 1782,0.66601562 891.4668,0.93359375 0.93359375,1.3339844 1.7324219,91.066406 C 4.2657554,369.99976 24.133982,611.066 61.333984,816.66602 121.60065,1148.9327 226.79934,1397.7327 396.66602,1608.666 c 96.13334,119.4667 212.93332,229.7348 388,366.1348 41.86666,32.6666 104.53333,79.8652 106,79.8652 1.86666,0 69.06809,-50.6668 116.13478,-87.4668 160.5333,-125.6 269.0665,-227.0659 362.5332,-339.1992 206.2667,-247.4667 322.7993,-550.6665 376.666,-980.5332 20.1333,-161.33335 32.2671,-355.86614 34.4004,-552.132816 z M 720.63672,79.136719 c 0.91172,0.0089 1.81393,0.02917 2.69726,0.0625 28.66667,1.066666 51.86667,18.133981 88,65.333981 43.86667,57.20001 67.73204,84.66693 77.33204,88.9336 10.66666,4.93333 21.06731,2.53333 45.33398,-10 28.66667,-14.8 35.60065,-17.33399 49.33398,-17.33399 10.13334,-0.13333 13.06602,0.40117 18.66602,3.20117 14,6.8 24.6668,21.2 29.4668,40 2.6667,10.26667 3.2006,35.46537 1.334,73.33204 -1.4667,29.73333 -0.3998,35.86783 6.9336,43.20117 6.2666,6.4 16.3988,9.46614 26.7988,8.13281 4.1333,-0.53333 15.8661,-3.73307 26.1328,-7.06641 17.2,-5.73333 19.7333,-6.26757 32,-6.26757 15.6,0 20.5348,2.00026 32.1348,12.93359 14.4,13.6 20.666,28.26666 20.666,48 0.1333,22.66667 -8.0007,45.2 -31.334,88 -15.4667,28.4 -18.1328,34.66693 -18.1328,42.93359 0,4.93334 0.8004,6.26771 6.4004,11.73438 8.4,8.13333 13.7322,11.19896 34.7988,20.26562 29.3334,12.4 42.0008,22.53373 50.8008,40.40039 6.4,12.8 9.4676,26.93373 10.2676,46.40039 1.2,29.46667 -2.6681,37.06537 -36.1348,71.33204 -24.8,25.2 -28.7986,31.46653 -29.8652,46.5332 -0.8,12.66667 3.0652,21.20091 13.8652,30.26758 23.2,19.33333 31.0665,30.80078 34.5332,50.80078 4.6667,26.13333 1.7341,32.79948 -29.1992,66.13281 -9.8667,10.66667 -21.5995,24.26706 -26.1328,30.40039 -9.4667,12.8 -20.1339,33.86592 -23.8672,47.19922 -1.3333,5.0667 -2.7992,8.4007 -3.1992,7.334 -0.4,-1.0667 -2.5336,-10.7996 -4.9336,-21.59962 C 1095.734,859.60103 996.9336,636.5327 852.93359,384.66602 816.40026,320.79934 763.33242,233.59974 761.73242,235.06641 c -0.8,0.8 10.40065,30.53294 17.33399,45.59961 3.2,7.33333 17.86757,37.86666 32.26757,68 50.53334,105.06667 78.26524,165.06822 105.86524,229.60156 76.8,179.20001 119.60148,321.0651 130.13478,430.39842 2.2667,24.4 2.6665,67.0677 0.5332,85.7344 -6.4,58.9333 -27.7345,102.266 -63.20118,128.666 -9.6,7.2 -35.46537,20.9336 -39.33204,20.9336 -0.8,0 1.46641,-3.4658 5.06641,-7.7324 20.4,-23.8667 29.2,-46.4 28,-72 -1.06667,-23.0667 -9.73359,-41.0671 -28.93359,-60.4004 -13.46667,-13.4667 -22.66641,-19.2011 -51.06641,-31.7344 -38.4,-17.0667 -52.40091,-25.0667 -66.26758,-38 -7.6,-7.2 -13.46679,-17.5986 -13.46679,-23.8652 0,-6.1334 6.4,-23.33492 14,-37.60158 10.53333,-19.86667 14.26757,-31.19909 14.26757,-43.73243 C 847.06693,919.60026 846.53333,917.60091 842,908.26758 838.13333,900.40091 834.2668,895.3332 825.4668,886.5332 808.13346,869.19987 791.33334,858.93386 736,831.86719 c -63.73334,-31.33334 -74.80026,-36.9336 -94.93359,-48.9336 -46.93334,-27.73333 -74.13216,-56.3996 -84.79883,-89.59961 -7.73334,-23.86666 -7.2013,-48.13411 1.33203,-62.80078 4.4,-7.46666 8.1332,-10.79974 16.5332,-15.0664 10.13334,-5.06667 21.0681,-7.20013 50.13477,-9.4668 36.93333,-2.8 47.86549,-6.79909 54.79883,-19.73242 C 681.46641,581.60091 682,578.53333 682,568 c 0,-11.33333 -0.40052,-13.46654 -3.86719,-20.5332 -4.93333,-10 -19.2,-25.2 -34,-36 -6.26666,-4.53334 -23.06588,-15.86589 -37.19922,-25.19922 -39.86667,-26.4 -54,-42.00156 -54,-59.60156 0,-12.93334 6.66706,-24.79987 18.40039,-32.53321 9.33334,-6.26666 20.5336,-10.40026 44.9336,-16.93359 24,-6.26667 31.8664,-9.46537 37.0664,-15.33203 5.6,-6.4 6.93295,-12.13294 7.59961,-33.59961 0.93334,-26 -0.6677,-36.6668 -13.73437,-91.4668 -15.2,-64 -16.39935,-90.93411 -4.66602,-114.80078 9.2,-18.66667 33.59935,-35.20013 60.66602,-41.466797 4.2,-0.933333 11.05547,-1.458463 17.4375,-1.396484 z M 1127.0625,1266.752 c 26.0956,0.1092 54.9881,1.7815 78.2715,4.7148 94.6667,11.7333 213.3331,47.5992 309.0664,93.1992 l 17.7324,8.5332 -2.2656,4.4004 c -1.2,2.4 -8.0003,14.5331 -14.9336,27.0664 C 1409.8669,1592.1327 1270.8,1747.3328 1048,1926.1328 c -54.26667,43.6 -154.66641,120.5332 -157.06641,120.5332 -1.46666,0 -61.33359,-45.1992 -104.93359,-79.1992 -227.46668,-176.9333 -368.53333,-322.3993 -476,-490.666 -25.6,-40.1334 -56.53333,-94.1348 -54,-94.1348 0.8,0 4.4,1.4673 8,3.334 17.86667,9.0667 52.93398,21.0665 77.33398,26.5332 81.60001,18.1333 166.26653,10.6675 284.53321,-25.1992 15.46667,-4.6667 61.20013,-19.6012 101.46679,-33.2012 40.40001,-13.7333 85.59935,-28.6668 100.66602,-33.4668 104.80001,-32.9333 180.6667,-47.9997 266,-53.0664 9.9167,-0.625 21.2008,-0.8973 33.0625,-0.8476 z m -57.4395,178.7148 c -8.9867,-8e-4 -16.857,0.2508 -20.957,0.8008 -39.4667,5.0666 -82.13331,20.5333 -159.99998,58 -93.60001,45.0666 -127.06537,59.7328 -165.33204,72.1328 -72.8,23.7333 -132.66653,26.5322 -188.5332,8.7988 -13.86667,-4.4 -40.66823,-16.666 -53.60156,-24.666 -4.4,-2.6667 -8.39831,-4.4005 -8.93164,-3.8672 -1.73334,1.7333 -0.80039,14.8013 1.59961,20.668 5.86666,14.8 19.99869,29.8656 41.33203,44.2656 30.53333,20.4 65.06718,32.4 97.86719,34 l 16.40039,0.8008 3.19922,6.1328 c 14,27.6 58.53372,51.2012 100.40039,53.2012 l 15.0664,0.666 1.73438,4.1328 c 7.2,17.0667 36.13281,37.7341 60.13281,42.8008 27.2,5.7333 81.59935,-1.7344 128.66602,-17.7344 20.4,-7.0667 30.26822,-11.067 69.60158,-28.4004 37.7333,-16.6666 58.532,-24.9331 73.332,-29.0664 51.6,-14.5333 96.4009,-6.4001 146.2676,26.5332 l 12.5332,8.1348 -3.7344,-6.4004 c -22.5333,-39.0667 -62.9319,-65.9999 -111.8652,-74.5332 -18.6667,-3.3333 -44.6677,-1.9999 -65.7344,3.4668 -26.9333,6.8 -41.5991,12.7991 -111.73242,45.7324 -30.93333,14.4 -47.06809,20.9341 -66.13476,26.8008 -30.8,9.2 -58.53281,10.9336 -82.13281,4.9336 -11.2,-2.9334 -21.06615,-6.5335 -20.13282,-7.4668 0.26667,-0.4 7.46719,-1.6013 15.86719,-2.668 C 829.33412,1707.866 870.66666,1696 908,1680 c 10.66667,-4.5333 41.86732,-19.1993 69.33398,-32.666 53.73332,-26.2667 75.73342,-35.6005 97.46682,-41.8672 25.2,-7.2 35.7325,-8.666 61.1992,-8.666 25.7333,0 39.3336,2.2666 62.9336,10 17.3333,5.6 51.9997,22.9334 71.0664,35.4668 8.8,5.7333 16.9339,11.0657 17.8672,11.7324 5.2,3.2 -20.3996,-27.4661 -33.5996,-40.1328 -36.6667,-35.4667 -79.7335,-57.4673 -127.4668,-65.334 -14.8,-2.4 -45.3349,-2.6665 -57.6016,-0.5332 -38.9333,6.6667 -59.7325,14.666 -137.1992,52.666 -92.40001,45.3334 -121.33268,56.4008 -164.66602,62.8008 -28.4,4.2667 -72.53333,0.5337 -92,-7.5996 -3.86666,-1.6 -3.46666,-1.7335 8,-3.4668 76.80001,-11.4667 127.59935,-29.0677 242.66602,-83.7344 83.6,-39.7333 121.6008,-53.7329 166.8008,-61.5996 16.4,-2.8 60.1319,-3.1993 75.8652,-0.666 44.8,7.3333 86.0005,24.7991 131.8672,55.7324 16.2667,11.0667 16.6673,10.8004 7.334,-5.5996 -17.7333,-30.8 -48.6678,-57.3338 -91.2012,-77.8672 -34.9333,-16.9333 -65.8664,-26.132 -105.0664,-31.332 -8.9167,-1.1667 -26.9987,-1.8659 -41.9766,-1.8672 z"
       transform="matrix(0.26458333,0,0,0.26458333,40.934807,-378.67026)"
       id="rect3733"
       inkscape:connector-curvature="0"
       sodipodi:nodetypes="ccccccccccccscccccccccccccccccscccscccccccccccscccccccccscccccscccscccccccscccscccccccccccccccsccscccccccccccccccccccccccccccccccccccccccscccccccccccccccccc" />
  </g>
</svg>
