<svg xmlns="http://www.w3.org/2000/svg" viewBox="0 0 964.21 387.43"><defs><style>.cls-1{fill:#8d734b;}</style></defs><title>Asset 1</title><g id="Layer_2" data-name="Layer 2"><g id="Layer_1-2" data-name="Layer 1"><path class="cls-1" d="M364.37,259.55l-4-13.14H340.25l-4,13.14H323.64l19.48-55.42h14.31L377,259.55Zm-6.79-23q-5.55-17.86-6.25-20.2c-.47-1.56-.8-2.79-1-3.7q-1.24,4.83-7.14,23.9Z"/><path class="cls-1" d="M398,238.37v21.18H386.24V204.36h16.08q11.25,0,16.65,4.09t5.4,12.44a14.63,14.63,0,0,1-2.68,8.67,17.8,17.8,0,0,1-7.59,5.94q12.47,18.62,16.23,24.05h-13l-13.18-21.18Zm0-9.51h3.77q5.55,0,8.19-1.85t2.64-5.82q0-3.91-2.69-5.58T401.49,214H398Z"/><path class="cls-1" d="M439.6,204.36h17.18q11.73,0,17,3.34t5.3,10.63a13.36,13.36,0,0,1-2.32,8.11,9.21,9.21,0,0,1-6.17,3.81v.38q5.25,1.17,7.57,4.38a14.22,14.22,0,0,1,2.32,8.53q0,7.54-5.46,11.78t-14.81,4.23H439.6Zm11.7,21.86h6.8c3.17,0,5.46-.5,6.89-1.48s2.13-2.6,2.13-4.87a4.89,4.89,0,0,0-2.32-4.55q-2.32-1.37-7.35-1.37H451.3Zm0,9.28v14.38h7.63c3.22,0,5.6-.61,7.13-1.85s2.3-3.12,2.3-5.66q0-6.87-9.81-6.87Z"/><path class="cls-1" d="M525.26,259.55H493.47V204.36h31.79V214H505.18v12.11h18.68v9.59H505.18v14.23h20.08Z"/><path class="cls-1" d="M541,259.55V204.36h11.71v55.19Z"/><path class="cls-1" d="M614.34,231.42q0,13.64-7.76,20.88t-22.4,7.25H568.55V204.36h17.33q13.51,0,21,7.13T614.34,231.42Zm-12.15.31q0-17.79-15.71-17.78h-6.23v35.93h5Q602.19,249.88,602.19,231.73Z"/><path class="cls-1" d="M660.68,244.22A14.29,14.29,0,0,1,655.3,256q-5.38,4.31-15,4.3A35.08,35.08,0,0,1,624.7,257V246.11a64.37,64.37,0,0,0,9.46,3.51,27.9,27.9,0,0,0,7.07,1,10.07,10.07,0,0,0,5.91-1.47,5,5,0,0,0,2.06-4.38,4.8,4.8,0,0,0-.91-2.89,10.13,10.13,0,0,0-2.66-2.44,70.35,70.35,0,0,0-7.15-3.73,34.23,34.23,0,0,1-7.59-4.57,17.13,17.13,0,0,1-4-5.1,14.47,14.47,0,0,1-1.51-6.79q0-7.32,5-11.51T644,203.57a32.86,32.86,0,0,1,8.21,1,56.9,56.9,0,0,1,8.17,2.87l-3.77,9.1a55.3,55.3,0,0,0-7.31-2.53,23.38,23.38,0,0,0-5.68-.71,7.55,7.55,0,0,0-5.1,1.54,5.11,5.11,0,0,0-1.77,4,5,5,0,0,0,.72,2.7,7.83,7.83,0,0,0,2.28,2.23,73.43,73.43,0,0,0,7.42,3.87q7.74,3.69,10.61,7.42A14.45,14.45,0,0,1,660.68,244.22Z"/><path class="cls-1" d="M684.7,238.37v21.18H673V204.36h16.08q11.25,0,16.65,4.09t5.39,12.44a14.63,14.63,0,0,1-2.68,8.67,17.7,17.7,0,0,1-7.58,5.94q12.45,18.62,16.23,24.05h-13l-13.17-21.18Zm0-9.51h3.77q5.55,0,8.2-1.85t2.64-5.82q0-3.91-2.7-5.58T688.25,214H684.7Z"/><path class="cls-1" d="M758.14,259.55H726.35V204.36h31.79V214H738.05v12.11h18.69v9.59H738.05v14.23h20.09Z"/><path class="cls-1" d="M794.81,259.55h-11.7V214.1h-15v-9.74h41.67v9.74h-15Z"/><path class="cls-1" d="M843.44,259.55h-11.7V214.1h-15v-9.74h41.68v9.74h-15Z"/><path class="cls-1" d="M901.41,259.55H869.63V204.36h31.78V214H881.33v12.11H900v9.59H881.33v14.23h20.08Z"/><path class="cls-1" d="M964.21,259.55H949.33l-24-41.75H925q.72,11.05.72,15.78v26H915.25V204.36H930l24,41.33h.26q-.57-10.75-.57-15.21V204.36h10.54Z"/><path class="cls-1" d="M109.62,0V9.88h8.6v6.47h-8.51V27.78a18.64,18.64,0,0,0-7.55-.1V16.5H93.63s-.1-6.66,0-6.61h8.74V0Z"/><path class="cls-1" d="M112.44,29.93a17.79,17.79,0,0,1,9.9,11.92,17.54,17.54,0,0,1,0,8,17,17,0,0,1-12.65,12.6,15.71,15.71,0,0,1-6.23.3,16.46,16.46,0,0,1-12.84-9.81,17.53,17.53,0,0,1,.49-15.49c2.4-4.27,6.72-7.75,11.47-8.54a12.27,12.27,0,0,1,3.19-.29l.29-.05A16,16,0,0,1,112.44,29.93Zm-4.71.94a15.45,15.45,0,0,0-5,.29,19.52,19.52,0,0,0,1.32,3.19V46.11l-.24.3H91.11c-.2,1.23.29,2.11.44,3.24l.14.18h28.49a21.54,21.54,0,0,0,.54-3.13l-.1-.27H108V35.28c-.24-.49.2-1,.15-1.52a9.45,9.45,0,0,0,1-2.4l-.1-.2A11.61,11.61,0,0,1,107.73,30.87Z"/><path class="cls-1" d="M76.44,58.86a75.53,75.53,0,0,1,8.34,1,77.48,77.48,0,0,1,12.11,2.41,6,6,0,0,1,2.06.54,13.23,13.23,0,0,1,.25,3.13c-1.08,0-2.16-.39-3.34-.44-3.28-.44-6.37-.68-9.75-1a97.31,97.31,0,0,0-13-.1,15.07,15.07,0,0,0-3.68.25,20.6,20.6,0,0,0-3.38.39,5,5,0,0,0-3.28,2.84c-1,3.78.34,7.36.49,11.09-.1.73.34,1.32.24,2.1l-.2.15a14.56,14.56,0,0,0-4.65.25c-.54,0-1,.44-1.52.19-.59-4.36-1.28-8.92-1.77-13.43a8.42,8.42,0,0,1,1.91-6.57c3.68-3.09,8.59-2.85,13.24-3.09C72.57,58.77,74.53,58.62,76.44,58.86Z"/><path class="cls-1" d="M148.92,59.75a12.54,12.54,0,0,1,3.67,1.32c3,1.72,3.78,5.34,3.24,8.68-.44,2.69-.54,5.39-1.08,8l.1.24c-.44,1.13-.3,2.41-.69,3.58-.29.15-.49-.09-.78-.14l-1.67-.15c-1.23.05-2.35-.15-3.58-.1l-.2-.34c.35-4.22,1.38-8.24.74-12.46a4.4,4.4,0,0,0-2.94-3c-2.4-.83-4.81-.58-7.26-.93-3.09-.24-6.23-.1-9.51-.1-5.69.35-11.33.94-16.82,1.82-.25-.69.15-1.42.1-2.16.15-.44-.25-1.32.44-1.52a124.83,124.83,0,0,1,20.64-3.38,77.13,77.13,0,0,1,12.16,0C146.56,59.35,147.74,59.5,148.92,59.75Z"/><path class="cls-1" d="M47.86,61c2.5.25,5,0,7.5.25l.64.05c.1.34-.39.44-.49.73a9.67,9.67,0,0,0-1.42,3.29c-.35.34-1,.09-1.43.19a110,110,0,0,0-17,.93c-4.46,1-9.46,1.28-13.34,3.88-1,1-2,2.06-2,3.48a19.9,19.9,0,0,0,.54,5.1c.25,1.81.64,3.63.74,5.44-1.91-.29-3.88-.1-5.84-.24l-.24-.54c-.64-3.63-1.62-7.41-2.21-11.23a7.91,7.91,0,0,1,3.43-7.16c5.15-3,11.48-3.24,17.56-3.87,3.38-.1,6.62-.3,10.1-.25C45.61,60.92,46.73,61,47.86,61Z"/><path class="cls-1" d="M178,62c5.25.74,10.49,1,15.2,3.14a8.3,8.3,0,0,1,4.46,8.48,85.14,85.14,0,0,1-2.3,10.94l-.15.14a19.61,19.61,0,0,0-5.83,0l0-.29c.63-3.24,1.61-6.38,1.66-9.91a5.57,5.57,0,0,0-3.63-5c-4.41-1.67-9-2.25-13.63-2.94-4.56-.39-9.51-.59-14-.74a11.94,11.94,0,0,1-2.65-.24A8.57,8.57,0,0,0,155.53,62c-.05-.1-.09-.39.15-.34,4.22-.29,8.58-.15,13-.15C171.81,61.66,174.85,61.71,178,62Z"/><path class="cls-1" d="M111,63.57c-.59,5.79-.49,11.18-1.08,16.87a19,19,0,0,0-8.13.14l-.2-.14c-.44-5.4-.79-11.08-1.23-16.67.1-.15,0-.54.35-.49a16.54,16.54,0,0,0,10.2-.05Z"/><path class="cls-1" d="M120.13,73.38c3,.09,5.89.09,9,.29,3,.2,6,.49,9.16.59,2.85.54,5.79.73,8.58,1.32l.15.2-.24,2.55c-1.72-.1-3.24-.59-5-.69s-3.18-.29-4.75-.49c-.39-.34-.84.15-1.18-.15-3.09-.24-6.28-.39-9.41-.58-1.87-.2-4-.15-5.94-.2-2.94-.1-6.07-.1-9-.1a9.82,9.82,0,0,1,.25-2.69l.24-.2C114.89,73.33,117.44,73.28,120.13,73.38Z"/><path class="cls-1" d="M99.88,74.31v1.86c-1.57,0-3.23.34-4.8.1-1.82.2-3.58,0-5.4.2a10.78,10.78,0,0,0-2.79.19l-.34-.15a7.32,7.32,0,0,1-2.06.15c-3,.15-5.89.39-8.88.59-3.63.25-7.5.69-11,1.27a8.14,8.14,0,0,1-.25-2.89c5.79-.83,11.72-1.27,17.51-1.62,3.87-.24,7.6-.29,11.57-.39a39.3,39.3,0,0,1,6.33-.05Z"/><path class="cls-1" d="M55.17,77.74a14.27,14.27,0,0,1,.19,2.4C44.72,82.2,35.06,87.2,26.53,93.92l-.1-.1A9.59,9.59,0,0,0,27,90,74.09,74.09,0,0,1,43.4,80.73c1-.34,1.86-.78,2.89-1l.25-.15c2.84-.68,5.49-1.81,8.48-2.2Z"/><path class="cls-1" d="M177.5,85.83a67.05,67.05,0,0,1,6.18,4,10.76,10.76,0,0,0,.1,3.58l-.05,0a68.64,68.64,0,0,0-14.52-8.88,73.79,73.79,0,0,0-10.15-3.53,31.73,31.73,0,0,1-3.09-.78l-.24-.25a9.17,9.17,0,0,1,.54-2.64C163.67,79.36,170.93,81.81,177.5,85.83Z"/><path class="cls-1" d="M114,84.16a6.57,6.57,0,0,1,.94,6.08c-1,3-3.48,5.45-5.69,7.8a6,6,0,0,0,.54,1.42l.19.1c2-2,4.07-4.17,6.53-5.49a5.18,5.18,0,0,1,5.49.54c2.16,1.71,2.89,4.36,3.14,7,0,3.33-.89,6.86-3.93,8.83a5.51,5.51,0,0,1-4.66.48c-2.89-1.22-4.7-3.87-6.91-6-.49-.14-.64.49-1,.69V106c1.72,3.83,3.28,7.7,5.74,11.18,2.4,3.24,6.47,3.24,10.15,3.88a45.71,45.71,0,0,0,11-.79,8.69,8.69,0,0,0,6.13-4.51,78.94,78.94,0,0,0,4.51-8.83,2.53,2.53,0,0,0-.64-1.12l-.29,0c-2.06,1.56-3.78,4.07-6.13,5a5.35,5.35,0,0,1-5.84-.94c-2.84-2.64-3.53-7.1-2.35-10.93.64-2.3,2.55-4.85,5.1-5.25a6.9,6.9,0,0,1,5.49,2,40.63,40.63,0,0,1,3.83,3.82c.53-.15.68-.74.93-1.18-2.26-3.92-7.16-8-4.27-12.94,2-3.29,6.13-3.09,9.51-2.89,2.21.39,4.37.93,6,2.69a6.09,6.09,0,0,1,.78,6c-1.47,2.7-3.83,5-5.83,7.26-.25.59.44,1,.63,1.47a6.92,6.92,0,0,0,1.33-1.18c2.89-2,5.44-5.93,9.41-4.26,3.53,2.45,4.27,6.81,3.43,10.79a8.9,8.9,0,0,1-4.36,5.73c-4.17,1.33-7-2.55-9.81-4.9a2.15,2.15,0,0,0-1.08,1c1,2,2.36,3.92,3.34,5.93,1.81,2.45,3.43,6,6.62,7,2.6.78,5.49.73,8.14.93,3.18-.25,6.32-.2,9.21-1.47a15.07,15.07,0,0,0,4.27-4.37,38.28,38.28,0,0,0,4.95-8.43c-.19-.25-.39-.59-.68-.69-1.57,1.23-2.9,2.8-4.51,3.88a8,8,0,0,1-6.67,1.32c-3-1.08-4-4.51-4-7.31,0-3.58.83-7.45,4.26-9.17a6.88,6.88,0,0,1,2-.34,8.06,8.06,0,0,1,3.29,1,12.73,12.73,0,0,1,3,2.55c1.08.69,1.66,1.91,2.6,2.75a2.2,2.2,0,0,0,.93-.93c-1.38-2.21-3.09-4.27-3.73-6.77a5.68,5.68,0,0,1,1.72-5.93c3.48-2.55,8.53-1.43,12.4-.4l.1.25c-2.21,7.84-4.36,15.44-6.42,23.34-1.62,6.86-3.29,13.63-4.71,20.49.25.54.78-.09,1.23.1l1,.05L204,131c2.06,0,4-.1,6,0,.49.44,0,1.08.19,1.57a6.33,6.33,0,0,0,0,1.62c0,1.22-.2,2.55-.2,3.72-.15,3.24-.15,6.82-.25,10,0,4.22-.24,8.44-.39,12.9.05,2,0,3.78-.15,5.79a23.43,23.43,0,0,0,0,2.64c-.1,6.48-.64,13.05-.84,19.57.15.34-.14.63-.09,1-.1,3.67-.59,7.69-.79,11.47-.24,3.14-.54,6.13-.93,9.32-.15,2.5-.69,5.14-.79,7.69-.63,3.83-.73,7.65-1.42,11.43-.73,5.05-1.27,10.3-2.25,15.25-.54,2.74-1.13,5.34-1.67,8.09-.69,2.35-1.13,4.85-1.82,7.21a2.11,2.11,0,0,1-.34,1.12c-.29,2.41-1.27,4.56-1.71,6.92-.74,2.15-1.28,4.36-2,6.52-.79,2.5-1.92,4.85-2.55,7.35-.59.64-.54,1.62-1,2.31-1.17,3-2.5,6-3.77,8.92-2.7,5.74-5.15,11.52-8.34,17-1.17,2.2-2.74,4.26-3.82,6.47-.93,1.13-1.52,2.5-2.5,3.63-2,2.89-4,5.39-6,8.18-1.52,2.26-3.39,4.22-5,6.48l-.29.24c-3.09,4-6.57,7.9-10,11.67-3.29,3.48-6.38,6.77-9.81,10.15-2.5,2.5-4.9,4.76-7.4,7.16-5.05,4.46-10,9.12-15.45,13-1.42,1.18-2.94,2.21-4.31,3.39-3,2.06-6,4.65-9.17,6.57-2-.84-3.68-2.8-5.54-3.83-5.2-4.51-11-8.68-16.13-13.09-3.68-2.84-6.87-6.37-10.3-9.27-6.13-6-12-12.5-17.9-18.92a182.84,182.84,0,0,1-11.86-14.71c-2.11-2.9-4.46-5.94-6.38-8.93-1.27-2.15-2.79-4.16-3.87-6.42-4.41-6.67-7.65-13.78-11-20.94-1.08-2.3-2-4.7-3-7.11a179.58,179.58,0,0,1-7.89-24.85C10,254.11,9,248.72,7.75,243.42a24,24,0,0,0-.69-3.78c-.63-4.12-1.32-8.38-1.86-12.6-.34-1.91-.44-3.92-.73-5.93C3.63,212.87,2.7,204,2.31,195.52c-.05-3.88-.54-7.61-.54-11.33-.15-4.81-.39-9.81-.49-14.61C1,167.32,1.13,165,1,162.76c-.44-4.31-.19-8.43-.63-12.7.1-1.86-.25-3.82-.1-5.68-.2-4.61-.44-8.93-.2-13.64H22.51l0-.73A439.82,439.82,0,0,0,11.87,86.17c2.3-1,5.05-.93,7.6-.93a6.22,6.22,0,0,1,5.79,3.39c1.66,4.07-1.33,7.5-3.19,10.83a2.84,2.84,0,0,0,.78,1h.35c2.25-2.84,4.9-6.72,8.87-6.72,2.6,0,4.61,2.16,5.64,4.42a11.33,11.33,0,0,1-.93,10.54,5.93,5.93,0,0,1-4.37,2.4c-3.82.1-6.52-2.79-9.11-5.39a2.13,2.13,0,0,0-.84,1.27,41.61,41.61,0,0,0,5.88,9.37,9.7,9.7,0,0,0,7,3.92c3.23.39,6.32.93,9.61.34,2.79-.58,6.08-.54,7.74-3.28A64.46,64.46,0,0,0,59,106.77c-.39-.39-.59-1.18-1.13-1.23-2.69,2.4-5.2,6.23-9.27,5.2a7,7,0,0,1-4.26-3.58,11.83,11.83,0,0,1,.68-10.79A5.09,5.09,0,0,1,49.77,94c3,.24,4.9,2.79,7.36,4.46.39.2.54.64.88.64L58.65,98C56,94.8,52,91.71,53.25,87.2c1.08-3.48,4.81-4.61,8-4.9,3,0,6.18.64,7.95,3.43,1.52,1.87.88,4.81-.1,6.67a15.79,15.79,0,0,0-1,1.52c-.88,1.32-2.06,2.55-2.89,3.92A1.94,1.94,0,0,0,66,99.07c.69-.25.89-1,1.42-1.37,1.92-1.72,4.07-3.58,6.67-4,2,0,4,.49,5.15,2.45a13,13,0,0,1-.1,12.45,5.33,5.33,0,0,1-4,2.35c-4.07.45-6.76-2.69-9.36-5.34-.54.1-.54.69-.84,1.08a40.43,40.43,0,0,0,6.57,11.38c2,2.15,4.86,2.2,7.46,2.69A28.59,28.59,0,0,0,84,121a32.24,32.24,0,0,0,4.9-.3c2-.29,4-.34,5.64-1.57a14.65,14.65,0,0,0,3.53-4.26c1.08-1.18,1.42-2.65,2.25-4a24.7,24.7,0,0,0,2.16-5.54c0-.35-.49-.64-.68-.84h-.25c-2.35,2.8-4.76,6.52-8.73,6.52l-1.66-.1c-3.54-1.12-4.86-5-5-8.33,0-3.24.84-6.47,3.53-8.43a5.93,5.93,0,0,1,5.45.14,46,46,0,0,1,6.22,5.3c.54,0,.64-.74.89-1.18-.79-1.13-1.87-2-2.75-3.14C97,92.7,94.93,89,96.55,85.54c1.37-3.39,5.15-3.78,8.33-4.17C108.36,81.42,111.65,81.42,114,84.16ZM4,134.74c0,1.82.14,12.92.39,16.75a11.57,11.57,0,0,0,.1,2.64c0,2.7.09,5.59.24,8.34.25,6,.44,11.47.64,17.36.34,6.27.64,12.5.88,18.87.49,4.42.64,8.88,1.13,13.34.25,2.84.54,5.69.83,8.43,1,6.52,1.57,13.29,3,19.66,2.5,13.29,5.39,26.82,10.34,39.33a197.43,197.43,0,0,0,10.93,24.12c3,5.15,5.74,10.45,9.37,15.4,2.8,4.07,5.54,7.74,8.73,11.72,0,.19.14.24.24.34,3.53,4.27,6.92,8.43,10.74,12.36a250.15,250.15,0,0,0,20.94,21.13c5.1,4.51,10,8.43,15.25,12.55,2.6,1.91,4.95,4,7.5,5.64l.93-.49a271.71,271.71,0,0,0,24.17-19.42c1.42-1.12,2.65-2.55,4-3.58a301.24,301.24,0,0,0,25.65-28,205.82,205.82,0,0,0,16.18-23.59,175.9,175.9,0,0,0,8-16.72,200.19,200.19,0,0,0,11.67-35.1,283.47,283.47,0,0,0,5.44-32.17c1-8.24,1.81-16.67,2.55-24.81.59-6.47.88-12.8,1.13-19.12-.05-1.23.24-2.36.1-3.58.63-11.08.58-22.41,1-33.34,0-2.6.05-8,.05-8Z"/><path class="cls-1" d="M93.46,164c2.94,1.37,6.37.68,9.56,1.17a26,26,0,0,1,2.6,2.55c-.39.4-1.08,0-1.52,0-3.78-.29-7.55-.19-11.13-1.22a11.28,11.28,0,0,1-3.48-2,1.58,1.58,0,0,1,.15-1.33c.44-.34,1-.83,1.56-.63Z"/><path class="cls-1" d="M112.88,141.24a3.5,3.5,0,0,1,3-.3,2.78,2.78,0,0,1,1.42,2.21,2.94,2.94,0,0,1-1.52,2.7,2.6,2.6,0,0,1-2.7-.4.35.35,0,0,0-.39.35c.44,2.5,3.09,3.38,5.2,3.87a5.42,5.42,0,0,0,4.6-.59c.3-.44,1.38-.49.94-1.17-.2-.4-.59-.1-.89,0a2.68,2.68,0,0,1-2.15-.74,2.72,2.72,0,0,1-.74-2.16,3.13,3.13,0,0,1,1.62-2.25c.93-.64,2.06-.1,2.89.44l.3-.05a3.05,3.05,0,0,1,2.25-1.67,3.25,3.25,0,0,1,2.21.64c.54.69,1.18,1.42.93,2.4.39.25.93.05,1.37.25a2.94,2.94,0,0,1,1.77,1.81,3.19,3.19,0,0,1-1,2.9,3,3,0,0,1-2.31.58,3.39,3.39,0,0,1-1.37-.88,1.13,1.13,0,0,0-.49.59,5,5,0,0,0,1.86,2.6,17.66,17.66,0,0,0,5.59,1.47,5.12,5.12,0,0,0,3.14-1.33c.1-.24.05-.58-.24-.53a3.24,3.24,0,0,1-2.16-.35,2.52,2.52,0,0,1-1-2.84,3,3,0,0,1,1.76-2.16,2.79,2.79,0,0,1,2.8.69,6.76,6.76,0,0,1,.73,1.13,5.23,5.23,0,0,1,4.12-.84c.15.2.49.15.59.44-2.11,3.19-4.61,6.28-7,9.42l0,.19c.88.44,2.11.54,2.6,1.52.05,1.38.39,2.7-.15,4a46.51,46.51,0,0,1-2.8,3.73c.05,5.05-.09,10.2-1.66,14.91-2.36,8.82-7.36,16.47-11.43,24.56a16.56,16.56,0,0,0-2.06,7.94l-.14.1a26.55,26.55,0,0,1-3.19-1.52l-.15,0c-.39,3.43-.19,7-.34,10.59,0,5.54-.34,10.79-.34,16.33-.1,5.34,0,10.69,0,16,6.37,6.86,8.67,15.59,12.5,23.63a134,134,0,0,0,5.83,12.16c.1.59.59,1,.84,1.62,2.65,4.75,6.22,10.44,11.72,12.4a14.69,14.69,0,0,0,13-2c4.8-3.48,6.57-9.51,5.15-15.25-1.82-8.63-7.55-15.74-11.72-23.44-6-10.29-14.66-22.06-9-34.66,2.25-5,6.76-9.27,11-12.9,3.68-3.43,7.8-6,11.57-9.17,5.49-4.31,11.23-8.23,16.33-13.09,4.95-4.61,8.24-10.54,8.63-17.26.49-6.52-2.45-13-8.39-16a20.87,20.87,0,0,0-4.21-1.42,13.2,13.2,0,0,0-2.06-.2,13,13,0,0,0-9,3.14,9.8,9.8,0,0,0-3.77,8.78c.05.68.78.54,1.18.68a28,28,0,0,1,7.2,2.36,57.45,57.45,0,0,1,2.26,5.54c1,2.79.1,5.78-.05,8.72a36.72,36.72,0,0,1-1.13,7.07c-.34.24-.78,0-1.12,0l-.25-.39c-.39-2.84-.78-5.49-2.4-7.84-.74-1-1.23-2.41-2.36-3.19-.24.05-.68-.25-.63.2a14.15,14.15,0,0,1,.24,8.87c0,1.13-1.22,1.67-1.91,2.45-6.91,5.05-14.07,9.66-20.4,15.84a24.07,24.07,0,0,0-2.5,3.28,1.66,1.66,0,0,1-1.42-.34,27.13,27.13,0,0,1,1.77-4c3.57-7.4,8.77-14.07,13.48-21,1.08-1.52,1.08-3.53.88-5.44l-.15,0a23.07,23.07,0,0,0-5.88,4.37,3.11,3.11,0,0,1-1,1.07,2.62,2.62,0,0,1-1.13-.83c2.55-4.66,4.76-9.51,8.19-13.83.2-6.27,1.86-12.2,6.91-16.18a17.63,17.63,0,0,1,5.35-3,20.73,20.73,0,0,1,12.21-.54,20.36,20.36,0,0,1,10.59,7.31,22.69,22.69,0,0,1,3.77,7.75,26.9,26.9,0,0,1-.88,14.76c-1.62,5.93-5,11.22-9,16.18-1.72,2-3.34,3.72-5,5.59-2.31,2.3-4.56,4.75-6.92,7.15-1.76,1.72-3.62,3.68-5.19,5.54,0,.1.05.15.14.2,1.87-.54,3.68-.64,5.6-1.08,3.43.59,6.71,1.33,9.95,1.72a45.61,45.61,0,0,0,4.56-.74,2.63,2.63,0,0,1,.54,1.52c-2.85,1.42-5.74,2.65-8.63,3.88-5.79,2.64-11.72,5.1-17.41,8A1.24,1.24,0,0,0,166,235l.19.15c2.11-.39,4.37-.88,6.43-1.22,3.28.24,6.47,1.37,9.75,2,1.52-.2,3.14-.49,4.56-.59a3.67,3.67,0,0,1,.54,1.52l-.44.24c-7.5,3.09-14.86,6.52-22.26,9.76a2,2,0,0,0-.1,1.32,31.22,31.22,0,0,0,3.78-.39c3.38.79,6.77,1.82,10.2,2.31l2.74-.3a6,6,0,0,1,.54,1.67c-5.39,2.16-10.69,4.46-15.88,7-.25.44,0,.89,0,1.28,2.06,8.63,5.93,16.47,7.3,25.4.79,6.22-.1,12.79-3.72,17.94a23,23,0,0,1-4.37,4.66C159.9,312,152,312.8,145.58,310.5c-1.08-.05-1.91-.84-2.89-1.13-8-4.37-12.26-12.7-17.75-19.57l-2.21-3.38c.1-2-.39-3.82-.29-5.88,0-2.9-.49-5.79-.49-8.63-.25-3.39-2.31-6.08-3.34-9.17a.65.65,0,0,0-.83-.1c-.83.34,0,1,0,1.57,1.57,3.48,3.24,7,3.19,11.08.29,4.66.34,9.46.83,14.12,0,2.89.39,6.08.54,8.92.1,2.06.29,4.12.39,6.28a36.23,36.23,0,0,0,1.77,9.27c.54.93,1.47,1.67,2.11,2.55a52.86,52.86,0,0,1-.35,7.3l-.15,1.43c-.78.83-1.32,1.81-2.15,2.55-.35,4-.4,7.89-.79,11.91A13.81,13.81,0,0,1,123,342c-.45,5.25-1.67,10.69-1,16.18a6.19,6.19,0,0,1,.09,1.87l-1.47.54a25.12,25.12,0,0,0-4-3.68c-1.52-.74-2.65.68-3.92,1.13a28.46,28.46,0,0,0-2.5,1.86l.14.64a36.06,36.06,0,0,1,2.21,6.42c-.88.93-1.71,2.16-3,2.55-.34.15-.74.15-1,.49a13.14,13.14,0,0,0,.88,6.18,4.37,4.37,0,0,1-2.1-.1,22.4,22.4,0,0,1-2.41-3.82c-.49-1.77-1.57-3.34-2-5.15a23.27,23.27,0,0,1,2.11-6.57c-.1-.3-.44-.44-.69-.74-1.08.79-1.86,1.87-2.89,2.7a22.85,22.85,0,0,1-2.94,2.4,8.14,8.14,0,0,1-4.56-2.74,10.68,10.68,0,0,0-5.3,3.53c-.34-.4-.19-1.13-.39-1.67l-.1-.74a41.82,41.82,0,0,1,2.26-3.68c1.37-1.07,2.25-2.4,3.68-3.33a34.88,34.88,0,0,1,7.25-1.22,1.28,1.28,0,0,0,.35-.84c-2.16-1.52-4.66-2.2-6.72-4a10.16,10.16,0,0,1,.93-5.05,7.22,7.22,0,0,0-1.52-2.4c-1.13-1-2.45-1.52-3.63-2.41.49-.63,1.47-.63,2.16-1,1.71.59,3.38,1,5.15,1.48,1.52,1.17,3.28,1.86,4.66,3.23a37.75,37.75,0,0,1,3.87,7.11c.1.25.49.1.69.1.14-.34.29-.1.53-.05a21.16,21.16,0,0,0,3-.88,4,4,0,0,0,.79-2.45c.83-7.7-.79-15.35-1.57-22.8-.25-2.26-.59-4.56-.83-6.72,0-2.35-2.26-3.68-3.39-5.59-3.43-3.83-6.67-7.5-10.29-11.33a77.12,77.12,0,0,1-7.26-9.21,70.38,70.38,0,0,1-1.57-13.34c-.34-2.06,1.37-3.38,2.35-4.95,4-4.61,9.32-7.75,12.56-12.9,1.22-2.16,2.59-4.31,3.72-6.52-.29-.29-.68-.64-1.13-.54-1.27,2.21-2.64,4.46-3.92,6.72a25.54,25.54,0,0,1-2.4,3.14c-3.92,3.67-8,7-11.38,11.13-1.76,1.81-1,4.65-1,7.06a63.14,63.14,0,0,0,1.48,10.69c1.37,2.5,3.53,4.65,5.19,6.91-1.32,3-3.43,5.69-5.15,8.48-.58,1.23,0,2.8-.14,4.12-.25.64-1,1-1.57,1.37A23,23,0,0,1,79,315.69a6.16,6.16,0,0,1-2.51.15A42,42,0,0,1,72,312.51c-7-1-13.38-3.49-20.2-5-2.15-.58-4.51-.14-6.62-.14a2.17,2.17,0,0,1-.39-1.77,20,20,0,0,0,3.83-3.23,2.78,2.78,0,0,0-.3-2.6c-.64-1-1.27-2.06-2-3-1.81.78-3.53,1.71-5.29,2.45-1.33-.05-2.8-.25-4.17-.39a32.08,32.08,0,0,1-5-2.36,6.53,6.53,0,0,1-.69-2,8.62,8.62,0,0,1,1.67.39,6.62,6.62,0,0,0,3.28,0c.39-.49.3-1.27.49-1.81s.2-1.18.74-1.42a20.09,20.09,0,0,1,6.91-.49c.25-.15.1-.54.05-.79a29.19,29.19,0,0,0-3.53-1.17c-.44-.35-1-.3-1.52-.54L37,287.45a6.42,6.42,0,0,1,1.23-4.31l-.1-.25L36,281.57c-1.47-.3-2.94-.49-4.36-.84a7.87,7.87,0,0,1,1.13-1.57l1.37-.24c2.26.1,4.46-.39,6.47.54,1.42.49,3,.73,4,2.06A20.05,20.05,0,0,1,49,288a.65.65,0,0,0,.73-.05,28.34,28.34,0,0,1,.59-7.31,9.78,9.78,0,0,1,4.61-.93,5.76,5.76,0,0,0,.74-2.4c0-1.42-.15-2.55-.15-3.92l.15-.05a12.08,12.08,0,0,1,2.25,1.42c.49,2.3,1.33,4.61,1,7.06a19,19,0,0,1-.78,4.76,55.85,55.85,0,0,1-4.52,4.95c.2,1.22.69,2.4.89,3.68.49,1.22,0,3.08,1.71,3.53,5.45,1,10.79,1.17,16.28,1.61l2.75.15c.29-.24-.1-.44-.1-.64a13.12,13.12,0,0,1-1.57-2.64c1.13-8.88,1.87-17.65,4.81-25.84.68-1.43,2.35-1.92,3.62-2.65,4-2,8-3.78,12.07-5.64.88-.34,1.71-.73,2.6-1.08l.14-.24a94.59,94.59,0,0,0-2.25-9.76A21.24,21.24,0,0,0,90,244.5c-2.55-2.55-3.63-5.74-5.2-8.68,0-.59.74-.74.93-1.27,4.56-5.55,9.37-11.14,13.73-16.73.1-.34-.34-.44-.54-.63l-.44.24-8.43,10.2c-9.17,10.44-17.66,20.94-26.24,31.73l-1.12-.79c-.35-1.62.68-4-1.47-4.71a12.91,12.91,0,0,0-3.49-.78,19,19,0,0,0-1.27,2.06,22.71,22.71,0,0,1-5.1,6,26.94,26.94,0,0,1-2.79-.44c-.45.54,0,1.27-.15,1.86,0,3.29-.2,6.33-.1,9.71l-.1,2.4c-.73.25-1.71,0-2.55.1l-2.06-.05a2.15,2.15,0,0,1-.24-1c.05-4.12.15-8.58.1-12.75-.1-.14-.3-.05-.35,0A24.48,24.48,0,0,0,41,263.18c-.29.29-.49.78-.93.78l-.64-1.37a22.89,22.89,0,0,1,4.08-7.7v-6.52l-.25-.24c-.74-.1-1.57.09-1.91-.69-.84-1.32-1.87-2.55-2-4.17-.35-.54-1.08-.24-1.52-.54a11.54,11.54,0,0,0-4.12.69,3.64,3.64,0,0,1,.49-2.11,49.17,49.17,0,0,1,5.2-2.11,32.61,32.61,0,0,0,4.21-.54c0-6.17.15-12.94.15-19.27l.1-8,.1-13.87c-.2-.3-.4.14-.59.14-.49.25-.84,1.33-1.57.88a17.42,17.42,0,0,1-3.78-1.47c-1.22.79-2.84,1.57-3.43,3.09l-1.13,1.67h-.14l-1-1.76c.63-1.77,1.37-3.49,2.1-5.2a26.25,26.25,0,0,1,3.39-4.46c2-1,4-1.72,6-2.51.39-.29.1-.93.24-1.32a4.41,4.41,0,0,0-2-.39c-1.32-.25-2.65-.54-3.92-.74-.78-.73-.78-1.91-1.13-2.94a10.48,10.48,0,0,1-.39-2.11,17.15,17.15,0,0,0-2.65-.88c-1.22.05-2.11.2-3.23.3l-.1-.1c.54-.79.69-2.26,2-2.11.59-.3,1.32-.2,1.91-.44,2-.64,4-.39,6.18-.44A18.72,18.72,0,0,0,44,178.4l.15-.24.1-10.89c0-.24.25-.49,0-.68l-.25-.15c-3,.24-6.22-.34-8.92,1.08-3.28,1.67-6,4.51-8.68,7.16-1.62,1.86-3.58,3.53-5.05,5.59l-.24-.1a57,57,0,0,1-6-14.17,65.84,65.84,0,0,1-2.5-13.58c-.59-3.09-.2-6.53-.1-9.81.19-.2-.05-.64.19-.78,7.16,5,14.42,10.34,22.75,12.74a35.68,35.68,0,0,0,8.78.89,4.24,4.24,0,0,0,.1-1.77l0-2.65.19-.09c1.62.14,3.24,0,4.86.19l.1.15c0,1.52,0,3,.05,4.56a19.36,19.36,0,0,0,2.84.19l.15.3c0,2.79-.3,6-.1,8.78a4.56,4.56,0,0,0,0,1.17l-.15.15-2.79.05c-.35.29-.1.68-.25,1.08-.2,4.66,0,9.31-.15,13.82.15.4.59.59.84.89h.19c.64-2.31,1.23-4.61,2-6.82a34.92,34.92,0,0,1,3.83-1.37l.19-.25a14.13,14.13,0,0,0,1.13-6.32c.74.15,1.13.93,1.82,1.27a27.32,27.32,0,0,1,.73,4,31.14,31.14,0,0,1-.2,5.3l-.19,1.18c-1.57,2-2.8,4.06-4.36,5.93-.15.73.83,1.13,1.32,1.62L57,187l2.79-.09,1.13,2c4.76,2.6,9.42,5.44,14.27,7.89l.2.2c-1.33,4.66-1.57,9.75-2.8,14.36h-.1C67.13,207,62,201.69,56.39,197.43c-1.27-.84-2.84-.35-4.31-.69-.54-.15-.79-.69-1.23-1l.2-.59c.54-.78,1.37-1.37,1.57-2.3-1-.49-2-1.23-3-1.67a.35.35,0,0,0-.5.2c-.14,5.15-.09,10.29-.29,15.59.15,3.09-.15,6.13,0,9-.1,8-.05,15.35-.14,23.63,1.07,1.38,2.69,2.26,4,3.49.44.14.83.88,1.27.24.49-.34-.1-.78-.2-1.13-1.07-2.1-2.55-4-3.23-6.22a7,7,0,0,1,2.65-3,1.16,1.16,0,0,0,0-1.18c.09-1.91-1.23-3.38-2-5-.1-.2.19-.25.34-.25l1.81,0a24.74,24.74,0,0,1,5.4,7.75l.44.78c.39,3.09.88,6.43.44,9.52.15.19-.15.44.1.63a3.92,3.92,0,0,0,2.6,1c.93-.83,1.07-2,1.76-2.94l7.9-14.9c2.06-4,4.55-7.75,6.52-11.77-2.11.19-4.52.49-6.62.73l-.1-.14A24.67,24.67,0,0,0,74,211.55c1-5.3,1.37-10.74,3-15.69,1.71-2.7,4.46-4.9,6.91-6.82,3.87-3.13,8.09-5.34,12.21-7.94,3.82-2.4,8.43-2.8,12.8-3.87,1.47-.35,3-.64,4.46-1a7.13,7.13,0,0,0,1.27-3.14c-.73-.35-1.71,0-2.45-.25l-8-.39,0-.15c1-1.57,2-3.23,3-4.8l-.15-.35-3.28-3.43c-.1-.73,0-1.76-.15-2.5a4,4,0,0,0,3-1.76,2.33,2.33,0,0,0-.15-1.18c-.49,0-.78.54-1.22.69a2.42,2.42,0,0,1-1.67.49c-.59-.3-.24-1-.49-1.52l.25-.35,7.11-5.83.19-.39-.19-2.11,0-.25-.24-2.45-.54-4.61-.29-3,0-.1.2-.09,1.13.29.73.44,1.28,1.47v.15Zm.73,10.83c-.29,0-.39.3-.59.35-1.17,1.12-2.64,1.86-3.63,3.13.25.4,0,1,.4,1.28,1.32-.59,2.55-1.67,4.12-1.28l-.54,1.43a3.37,3.37,0,0,0,.73,2.05c.93.79,2.36.35,3.43.2a2.43,2.43,0,0,0,1.13-1.37c0-.44-.44-1.13.1-1.47,4.27.14,8.48.29,12,2.45l1.92-.74c.63-.29,1.51-.14,2.06-.68C127.78,155.46,120.72,153.74,113.61,152.07Zm22.65,8a10.79,10.79,0,0,0-2.5.64c.35.59,1,.79,1.47,1.18.94,1,.25,2.35.05,3.53.44-.15.64-.74,1.13-1.08.93-1,2.11-2.3,1.57-3.87A4.13,4.13,0,0,0,136.26,160.11Zm-27.9,4.42-.14.14a14.1,14.1,0,0,0,.88,3.24c2.94.15,5.93.34,8.83.49.19,0,.49,0,.49-.24a25.33,25.33,0,0,0-.89-3.19C114.4,164.72,111.41,164.77,108.36,164.53Zm-7,26.38c-2.94.58-5.93.39-8.73,1A8.14,8.14,0,0,0,87.09,195c-2.46,3.48-4.42,7.11-6.53,10.73l0,.4a1.79,1.79,0,0,0,.83.34c1.32-2,2.4-4.17,3.77-6.18,1.82-2.79,3.44-6.67,7.21-7.26,3.19-.53,6.38-.73,9.61-1.07.3-.2.1-.54.1-.89A.93.93,0,0,0,101.4,190.91ZM51.78,249.4a2.18,2.18,0,0,1,.2,1c-1,.54-2.21.74-3.29,1.18-.29-.83.05-1.62-.09-2.45l.24-.25Z"/></g></g></svg>