<svg id="Layer_1" data-name="Layer 1" xmlns="http://www.w3.org/2000/svg" viewBox="0 0 1882.205 568.888"><defs><style>.cls-1,.cls-8{fill:#fff}.cls-3{fill:#ffd600}.cls-3,.cls-5{stroke:#ef373e}.cls-3,.cls-5,.cls-8{stroke-width:1.5px}.cls-8{stroke-miterlimit:10}.cls-5{fill:none}.cls-7{fill:#006db6}.cls-8{stroke:#006db6}</style></defs><path class="cls-1" d="M921.742 244.789L957.411 244.789 957.411 235.124 921.742 235.124 921.742 206.485 963.187 206.485 963.187 196.82 910.038 196.82 910.038 282.327 921.742 282.327 921.742 244.789zM1022.606 267.85335a38.07062 38.07062 0 003.55812-16.65506v-.76424c0-9.89954-2.703-17.94836-8.03487-23.92329-5.33285-5.98214-12.41734-9.01746-21.05148-9.02083a28.01579 28.01579 0 00-14.99721 4.07178 27.35994 27.35994 0 00-10.25111 11.54634 37.7717 37.7717 0 00-3.67644 16.8056v.75366c0 9.826 2.70394 17.83918 8.03583 23.817 5.33958 5.97878 12.39907 9.01025 20.98031 9.01025h.01635c.17988.00385.35976.00481.53867.00481a28.16855 28.16855 0 0014.69324-4.1295A27.06262 27.06262 0 001022.606 267.85335zm-38.26782.064c-3.19837-4.17085-4.82112-9.79613-4.82208-16.719 0-7.816 1.63333-13.89437 4.85767-18.07245a15.2632 15.2632 0 0112.34135-6.27264c.12217 0 .24337.00145.36553.00433a15.39854 15.39854 0 0112.90889 6.35777c3.24165 4.23579 4.88171 9.85385 4.875 16.69835 0 7.6477-1.61217 13.677-4.7913 17.92a16.2665 16.2665 0 01-25.735.08368zM1068.97314 228.84l.28472.04473V218.38884l-.152-.06252a11.32305 11.32305 0 00-4.87209-.83639 17.02121 17.02121 0 00-14.84715 7.91655l-.15679-6.74878h-10.9966v63.66909h11.2996V237.28757c2.47789-5.87153 7.24514-8.84817 14.17092-8.84817A33.6225 33.6225 0 011068.97314 228.84zM1089.64371 280.78821a32.2123 32.2123 0 0012.905 2.71211q.31165 0 .62332-.00577c7.21916 0 13.18014-1.73481 17.71268-5.152a16.36857 16.36857 0 006.87576-13.77076 15.04149 15.04149 0 00-2.46827-8.76352 19.33471 19.33471 0 00-7.53467-6.11777 58.00776 58.00776 0 00-13.16187-4.33776c-5.34055-1.19854-9.0747-2.46634-11.10337-3.76974a6.31039 6.31039 0 01-2.97328-5.68779 7.85382 7.85382 0 013.22722-6.51938c2.16431-1.668 5.21742-2.51492 9.08432-2.51829a13.87022 13.87022 0 019.33056 3.1647 9.44828 9.44828 0 013.663 7.4505l.001.24529h11.35732l.00481-.241a17.94758 17.94758 0 00-6.77668-14.37821c-4.47867-3.72212-10.38963-5.60892-17.57032-5.60892h-.01924c-6.8421 0-12.54048 1.8262-16.93931 5.4276-4.4248 3.62065-6.66606 8.10653-6.66222 13.32684a14.15136 14.15136 0 002.35188 8.21042 18.94232 18.94232 0 007.21725 5.91577 54.83988 54.83988 0 0013.07914 4.22184c5.40692 1.15478 9.243 2.54426 11.40445 4.13142a7.694 7.694 0 013.19933 6.60739 7.39877 7.39877 0 01-3.585 6.41068l-.00962.00673c-2.4221 1.62034-5.68684 2.4423-9.70475 2.4423-4.36132 0-7.91367-1.05378-10.56182-3.13392a10.87076 10.87076 0 01-4.25647-8.41963l-.00481-.241h-11.29479v.24625a18.21448 18.21448 0 003.34553 10.55508A22.04122 22.04122 0 001089.64371 280.78821zM1159.05 282.327L1167.624 282.327 1190.338 218.987 1190.456 218.658 1178.897 218.658 1163.424 266.637 1147.542 218.658 1135.983 218.658 1158.991 282.164 1159.05 282.327zM1251.19044 281.14652l-.0202-.09764c-1.45538-3.372-2.19509-7.993-2.198-13.73517v-29.084c-.16064-6.43232-2.35-11.55355-6.50735-15.22133-4.15547-3.65479-9.96447-5.51128-17.26155-5.5185a30.5706 30.5706 0 00-12.74344 2.58851 23.38553 23.38553 0 00-9.20263 7.046 15.22726 15.22726 0 00-3.42153 9.29161l-.00481.25106h11.36887v-.24625a8.377 8.377 0 013.8034-6.85941 15.53592 15.53592 0 019.54892-2.87372c4.30746 0 7.61067 1.10476 9.81249 3.27917a11.96325 11.96325 0 013.30706 8.853v4.71145h-10.26362c-9.07759 0-16.22653 1.85168-21.24965 5.50359-5.04427 3.67355-7.60008 8.89819-7.59623 15.52289a17.234 17.234 0 006.06006 13.58848c4.01887 3.549 9.23149 5.34824 15.49066 5.34824.06734.001.13371.001.201.001a24.40867 24.40867 0 0017.58668-7.49956 22.90819 22.90819 0 001.48712 6.17549l.06156.15583h11.74112zm-19.98954-10.13809a18.78631 18.78631 0 01-9.51525 2.59861 12.76071 12.76071 0 01-8.53314-2.80687 9.63748 9.63748 0 01-3.30129-7.754c0-7.54 6.59681-11.36453 19.60573-11.3679h8.21475v12.65783A15.53821 15.53821 0 011231.2009 271.00843zM1291.8669 228.4394h.001a33.73723 33.73723 0 015.26937.40064l.28472.04473V218.38884l-.152-.06252a11.31814 11.31814 0 00-4.87209-.83639 17.01846 17.01846 0 00-14.84618 7.91655l-.15776-6.74878h-10.9966v63.66909h11.2996V237.28757C1280.1758 231.416 1284.943 228.4394 1291.8669 228.4394zM1358.33805 271.18494l.12312-.1895-6.97868-5.43049-.151.19816a24.07379 24.07379 0 01-6.86422 6.12258 18.67814 18.67814 0 01-9.59221 2.30523 16.82059 16.82059 0 01-13.09261-5.67337c-3.37728-3.71684-5.1876-8.65627-5.3848-14.68458h42.7869V249.0965c0-10.09769-2.31629-17.97-6.88442-23.39759-4.58159-5.44684-11.088-8.209-19.33928-8.209h-.07984a25.4145 25.4145 0 00-14.03721 4.2127 28.3203 28.3203 0 00-10.13088 11.66177 38.30872 38.30872 0 00-3.612 16.89987v1.98491c0 9.43782 2.73088 17.085 8.11567 22.72955 5.39538 5.65076 12.49142 8.51582 21.09189 8.51582C1344.93281 283.49455 1353.01674 279.353 1358.33805 271.18494zm-41.56431-26.71909c.71567-5.51177 2.52887-9.86106 5.38961-12.93053l.00288-.00289a14.25639 14.25639 0 0110.79364-4.6749 13.399 13.399 0 0110.558 4.43827c2.59428 2.968 4.067 7.21195 4.37767 12.59867v.57138zM1395.01776 273.84078c-2.43749 0-4.18145-.60985-5.18184-1.81224-1.009-1.21105-1.52174-3.07621-1.52559-5.543V227.5049h11.80557v-8.8472h-11.80557V203.3599h-11.289v15.2978h-11.4968v8.8472h11.4968v38.9277c0 5.40548 1.25914 9.64511 3.74184 12.60059 2.47885 2.95356 6.214 4.45463 11.10241 4.46136a31.71818 31.71818 0 008.35711-1.16584l.17988-.05v-9.20455l-.304.07262A25.97358 25.97358 0 011395.01776 273.84078zM1422.19183 280.78821a32.21117 32.21117 0 0012.90407 2.71211q.31311 0 .62429-.00577c7.21916 0 13.18014-1.73481 17.71268-5.152a16.37126 16.37126 0 006.87673-13.77076 15.04638 15.04638 0 00-2.46924-8.76352 19.33471 19.33471 0 00-7.53467-6.11777 57.976 57.976 0 00-13.16187-4.33776c-5.34055-1.19854-9.0747-2.46634-11.10337-3.76974a6.30882 6.30882 0 01-2.97232-5.68828 7.85017 7.85017 0 013.22626-6.51889c2.16527-1.668 5.21838-2.51492 9.08432-2.51829a13.87188 13.87188 0 019.33056 3.1647 9.44828 9.44828 0 013.663 7.4505l.001.24529h11.35829l.00481-.241a17.95323 17.95323 0 00-6.77669-14.37821c-4.47963-3.72212-10.39059-5.60892-17.57032-5.60892h-.01924c-6.84209 0-12.54144 1.8262-16.94027 5.4276-4.42384 3.61968-6.6651 8.10605-6.66222 13.32684a14.15945 14.15945 0 002.35188 8.21042 18.94232 18.94232 0 007.21725 5.91577 54.84714 54.84714 0 0013.0801 4.22184c5.40692 1.15478 9.243 2.54426 11.40349 4.13142a7.69951 7.69951 0 013.20029 6.60739 7.39816 7.39816 0 01-3.586 6.41068l-.00962.00673c-2.4221 1.62034-5.68684 2.4423-9.70475 2.4423-4.36036 0-7.91271-1.05378-10.56182-3.13392a10.87439 10.87439 0 01-4.25647-8.41963l-.00481-.241H1409.6023v.24625a18.21448 18.21448 0 003.34553 10.55508A22.05167 22.05167 0 001422.19183 280.78821zM1255.40074 321.80148a6.27553 6.27553 0 00-4.94039 1.8892 6.678 6.678 0 00-1.66508 4.59218 6.44532 6.44532 0 001.67662 4.56813 6.36217 6.36217 0 004.45463 1.83918c.152 0 .30492-.00577.4569-.01732a6.49224 6.49224 0 004.98657-1.82956 6.34927 6.34927 0 001.6997-4.545 6.616 6.616 0 00-1.70547-4.61815A6.4238 6.4238 0 001255.40074 321.80148zM1481.11772 321.80148a6.31346 6.31346 0 00-4.94135 1.8892 6.67547 6.67547 0 00-1.66411 4.59218 6.44018 6.44018 0 001.67565 4.56813 6.36783 6.36783 0 004.45559 1.83918c.152 0 .30492-.00577.45691-.01732a6.46431 6.46431 0 004.9856-1.82956 6.34908 6.34908 0 001.70066-4.545 6.61639 6.61639 0 00-1.70643-4.61815A6.4179 6.4179 0 001481.11772 321.80148zM1682.74741 321.80148a6.31727 6.31727 0 00-4.94135 1.8892 6.67547 6.67547 0 00-1.66411 4.59218 6.44018 6.44018 0 001.67565 4.56813 6.36783 6.36783 0 004.45559 1.83918c.152 0 .30493-.00577.45691-.01732a6.46685 6.46685 0 004.9856-1.82956 6.34908 6.34908 0 001.70066-4.545 6.61639 6.61639 0 00-1.70643-4.61815A6.42572 6.42572 0 001682.74741 321.80148zM934.57643 317.48345c-6.65164 0-11.87579 1.893-15.52722 5.62623-3.65 3.72453-5.50215 9.06508-5.50551 15.87351v6.2409h-9.97938v8.84672h9.97938v54.82237h11.2996V354.07081H938.326v-8.84672H924.8433v-6.43136c0-3.73992.94219-6.64779 2.80061-8.64472 1.84255-1.98635 4.5109-2.9954 7.93243-2.99925a31.32121 31.32121 0 015.79072.52617l.27318.0529.61611-9.1959-.19527-.05194A29.21122 29.21122 0 00934.57643 317.48345zM974.81618 344.05632a27.923 27.923 0 00-14.99528 4.06121 27.49345 27.49345 0 00-10.25112 11.54681 37.79717 37.79717 0 00-3.67643 16.81522v.75414c0 9.825 2.703 17.83485 8.03486 23.80545 5.3367 5.98695 12.39331 9.02179 20.96877 9.02179h.02886c.17987.00385.35975.00481.53867.00481a28.17309 28.17309 0 0014.69324-4.12949 27.0724 27.0724 0 0010.18859-11.517 38.08426 38.08426 0 003.55812-16.66516V377c0-9.89906-2.703-17.95221-8.03487-23.93435C990.53674 347.095 983.4532 344.06306 974.81618 344.05632zm-12.73767 50.42739c-3.19932-4.18337-4.82207-9.81153-4.82207-16.72961 0-7.805 1.63333-13.88427 4.85766-18.07244a15.28607 15.28607 0 0112.34425-6.263c.12024 0 .24144.00193.36264.00481a15.4307 15.4307 0 0112.90888 6.35826c3.24165 4.2353 4.88172 9.85288 4.875 16.69786 0 7.64818-1.61216 13.67746-4.79225 17.92046a16.26588 16.26588 0 01-25.73409.08369zM1042.95913 344.05632a17.02857 17.02857 0 00-14.84714 7.90694l-.15776-6.73917h-10.9966v63.66909h11.29961V363.85444c2.47885-5.87152 7.2461-8.84865 14.17284-8.84865a30.8346 30.8346 0 015.26648.40016l.28569.04521V344.95475l-.152-.06348A11.35334 11.35334 0 001042.95913 344.05632zM1095.495 376.2564a58.48538 58.48538 0 00-13.15995-4.34882c-5.34054-1.188-9.07469-2.45192-11.10241-3.75819a6.32492 6.32492 0 01-2.97327-5.68876 7.83761 7.83761 0 013.22626-6.5189c2.1643-1.667 5.21838-2.51444 9.08431-2.51829a13.87252 13.87252 0 019.33153 3.1647 9.43572 9.43572 0 013.663 7.451l.001.24528h11.35732l.00481-.24144a17.93 17.93 0 00-6.77668-14.37773c-4.47868-3.72164-10.38868-5.60892-17.56744-5.60892h-.02213c-6.84209 0-12.54143 1.82572-16.94026 5.42712-4.42385 3.6091-6.66511 8.09162-6.66126 13.31578a14.15529 14.15529 0 002.35188 8.22148 18.94808 18.94808 0 007.21628 5.91577 54.80535 54.80535 0 0013.08011 4.22184c5.40788 1.15526 9.245 2.54523 11.40541 4.13142a7.68556 7.68556 0 013.19837 6.60739 7.40351 7.40351 0 01-3.59564 6.41693c-2.42114 1.62179-5.68587 2.44326-9.70475 2.44326-4.36035 0-7.9127-1.05426-10.56085-3.13392a10.87385 10.87385 0 01-4.25647-8.43021l-.00481-.24144h-11.29576v.24625a18.24089 18.24089 0 003.3465 10.56566 22.03946 22.03946 0 009.243 7.59047 32.21138 32.21138 0 0012.905 2.71259q.31165 0 .62332-.00577c7.21917 0 13.18015-1.73529 17.71365-5.153a16.36745 16.36745 0 006.87576-13.7698 15.049 15.049 0 00-2.46827-8.764A19.32939 19.32939 0 001095.495 376.2564zM1168.363 345.224L1154.558 345.224 1134.804 366.099 1129.453 372.529 1129.453 318.716 1118.164 318.716 1118.164 408.893 1129.453 408.893 1129.453 386.558 1135.958 379.768 1157.79 408.795 1157.865 408.893 1171.154 408.893 1143.541 371.879 1168.363 345.224zM1210.43607 344.05632h-.01732a23.31779 23.31779 0 00-18.70538 8.67743l-.34052-7.50966h-10.69456v63.66909h11.29961V363.69a18.84379 18.84379 0 016.07352-7.22109 15.331 15.331 0 019.0949-2.75877c4.21992 0 7.37019 1.07446 9.36423 3.1926 1.98539 2.12967 3.01368 5.47425 3.055 9.93753v42.053h11.289v-41.9914C1230.74784 351.742 1223.87881 344.05632 1210.43607 344.05632zM1249.562 345.224H1260.8619999999999V408.893H1249.562zM1309.38047 344.05632h-.01731a23.3539 23.3539 0 00-18.70539 8.67743l-.34051-7.50966H1279.6227v63.66909h11.2996V363.69a18.83041 18.83041 0 016.07256-7.22109 15.36842 15.36842 0 019.09586-2.75877c4.21992 0 7.37019 1.07446 9.36424 3.1926 1.98539 2.12871 3.01271 5.47329 3.05407 9.93753v42.053h11.29v-41.9914C1329.69129 351.742 1322.82226 344.05632 1309.38047 344.05632zM1386.05464 351.843c-4.3238-5.16452-10.32422-7.78381-17.84158-7.7867q-.316-.00866-.632-.00865a22.09924 22.09924 0 00-17.65882 8.82941c-4.57871 5.835-6.896 13.79384-6.88923 23.65539 0 10.28382 2.32495 18.52454 6.90462 24.48744a21.80873 21.80873 0 0017.68191 9.04584c.15967 0 .32031-.001.48-.00481 7.26726 0 13.13205-2.37977 17.44047-7.07391v4.78937c0 5.279-1.45827 9.421-4.33439 12.31154-2.87516 2.89536-6.946 4.3642-12.098 4.3642h-.0202c-6.59008 0-12.24421-2.855-16.8056-8.486l-.18565-.22893-5.79746 6.69781-.125.14621.11062.15679a23.16051 23.16051 0 0010.08856 8.08681 32.59545 32.59545 0 0013.46776 2.94153c8.2032 0 14.83271-2.399 19.70481-7.12874 4.87882-4.74031 7.35094-11.30345 7.3471-19.50858V345.22409H1386.5558zm-15.15207 1.86707c6.466 0 11.39 2.98482 14.63745 8.8727v28.72179c-3.13488 6.03216-8.09836 9.091-14.76346 9.091h-.01154a13.873 13.873 0 01-12.04124-5.99176c-2.88575-4.00253-4.345-9.60471-4.33824-16.64977 0-7.92521 1.4775-13.98431 4.394-18.01377a14.05716 14.05716 0 0111.57567-6.04082C1370.537 353.69951 1370.71981 353.70336 1370.90257 353.71009zM1450.7549 376.2564a58.50907 58.50907 0 00-13.1609-4.34882c-5.33959-1.187-9.07374-2.45095-11.10338-3.75819a6.3261 6.3261 0 01-2.97231-5.68876 7.83761 7.83761 0 013.22626-6.5189c2.1643-1.667 5.21838-2.51444 9.08431-2.51829a13.887 13.887 0 019.33153 3.1647 9.43569 9.43569 0 013.663 7.451l.001.24528h11.35732l.00481-.24144a17.93 17.93 0 00-6.77668-14.37773c-4.47868-3.72164-10.38868-5.60892-17.56744-5.60892h-.02212c-6.84306 0-12.5424 1.82572-16.94027 5.42712-4.42385 3.6091-6.66511 8.09162-6.66126 13.31578a14.15537 14.15537 0 002.35188 8.22148 18.94808 18.94808 0 007.21628 5.91577 54.81954 54.81954 0 0013.08011 4.22184c5.40884 1.15526 9.245 2.54523 11.40445 4.13142a7.68638 7.68638 0 013.19933 6.60739 7.40351 7.40351 0 01-3.59564 6.41693c-2.42113 1.62179-5.68587 2.44326-9.70475 2.44326-4.35939 0-7.9127-1.05426-10.56181-3.13392a10.87969 10.87969 0 01-4.25647-8.43021l-.00481-.24144h-11.2948v.24625a18.24089 18.24089 0 003.3465 10.56566 22.04417 22.04417 0 009.243 7.59047 32.20338 32.20338 0 0012.90408 2.71259q.31311 0 .62428-.00577c7.21821 0 13.17919-1.73529 17.71365-5.153a16.36988 16.36988 0 006.87576-13.7698 15.04894 15.04894 0 00-2.46827-8.764A19.34537 19.34537 0 001450.7549 376.2564zM1475.279 345.224H1486.579V408.893H1475.279zM1534.11245 344.05632h-.01731a23.30855 23.30855 0 00-18.70538 8.67743l-.34148-7.50966h-10.69456v63.66909h11.2996V363.69a18.84382 18.84382 0 016.07353-7.22109 15.34718 15.34718 0 019.09489-2.75877c4.21992 0 7.37019 1.07446 9.36424 3.1926 1.98539 2.12967 3.01367 5.47425 3.055 9.93753v42.053h11.289v-41.9914C1554.42327 351.742 1547.55424 344.05632 1534.11245 344.05632zM1608.403 376.2564a58.493 58.493 0 00-13.16091-4.34882c-5.34055-1.188-9.07566-2.45192-11.10337-3.75819a6.32425 6.32425 0 01-2.97232-5.68876 7.83263 7.83263 0 013.22626-6.5189c2.16431-1.667 5.21839-2.51444 9.08432-2.51829a13.86294 13.86294 0 019.33057 3.1647 9.43 9.43 0 013.663 7.451l.001.24528h11.35828l.00481-.24144a17.93568 17.93568 0 00-6.77669-14.37773c-4.47963-3.72164-10.38963-5.60892-17.56743-5.60892h-.02213c-6.843 0-12.5424 1.82572-16.94027 5.42712-4.42384 3.6091-6.6651 8.09162-6.66221 13.31578a14.17139 14.17139 0 002.35188 8.22148 18.94379 18.94379 0 007.21724 5.91577 54.77763 54.77763 0 0013.0801 4.22184c5.40885 1.15622 9.245 2.54523 11.40446 4.13142a7.68639 7.68639 0 013.19932 6.60739 7.4035 7.4035 0 01-3.59563 6.41693c-2.4221 1.62179-5.68684 2.44326-9.70475 2.44326-4.3594 0-7.91271-1.05426-10.56182-3.13392a10.87975 10.87975 0 01-4.25647-8.43021l-.00481-.24144h-11.29479v.24625a18.24695 18.24695 0 003.34553 10.56566 22.04554 22.04554 0 009.244 7.59047 32.20335 32.20335 0 0012.90408 2.71259q.31309 0 .62428-.00577c7.2182 0 13.17918-1.73529 17.71268-5.153a16.36833 16.36833 0 006.87673-13.7698 15.04789 15.04789 0 00-2.46924-8.764A19.33555 19.33555 0 001608.403 376.2564zM1655.8119 400.39563c-2.43942 0-4.18241-.606-5.1828-1.8007a8.62741 8.62741 0 01-1.52367-5.54351V354.07081H1660.91v-8.84672h-11.80461V329.92581h-11.29v15.29828h-11.4968v8.84672h11.4968v38.9277c0 5.406 1.25914 9.64511 3.74184 12.60108 2.47885 2.95307 6.214 4.45462 11.10241 4.46135a31.72928 31.72928 0 008.35711-1.16584l.17988-.051V399.63l-.304.07214A25.95647 25.95647 0 011655.8119 400.39563zM1675.924 345.224H1687.224V408.893H1675.924zM1728.81925 400.39563c-2.43941 0-4.18336-.606-5.18279-1.8007a8.62514 8.62514 0 01-1.52464-5.54351V354.07081h11.80461v-8.84672h-11.80461V329.92581h-11.289v15.29828H1699.325v8.84672h11.49776v38.9277c0 5.40692 1.25818 9.64608 3.74088 12.60108 2.47982 2.95307 6.21493 4.45462 11.10338 4.46135a31.7166 31.7166 0 008.35614-1.16584l.17988-.051V399.63l-.304.07214A25.95668 25.95668 0 011728.81925 400.39563zM1784.743 391.37576c-2.66835 5.985-8.11663 9.01987-16.19382 9.01987h-.01539c-3.80053 0-6.68435-1.17642-8.57258-3.49752-1.89978-2.33553-2.8617-5.90423-2.85881-10.60895V345.22409H1745.8028v41.35268c.04233 7.69147 1.86035 13.58993 5.40308 17.53185 3.55331 3.94962 8.78323 5.95232 15.54645 5.95232h.01924c7.91944 0 14.06895-2.36438 18.29176-7.0287l.21835 5.86094h10.76093V345.22409H1784.743zM1835.78313 400.39563c-2.43941 0-4.18336-.606-5.18279-1.8007a8.633 8.633 0 01-1.52464-5.54351V354.07081h11.80461v-8.84672H1829.0757V329.92581h-11.289v15.29828h-11.49776v8.84672h11.49776v38.9277c0 5.40692 1.25818 9.64608 3.74088 12.60108 2.47982 2.95307 6.21493 4.45462 11.10338 4.46135a31.71667 31.71667 0 008.35615-1.16584l.17987-.051V399.63l-.304.07214A25.95668 25.95668 0 011835.78313 400.39563zM1881.90114 399.70209a25.97785 25.97785 0 01-5.08564.69354c-2.43653-.001-4.17856-.607-5.177-1.79974a8.63211 8.63211 0 01-1.5256-5.54447V354.07081h11.80557v-8.84672h-11.80557V329.92581h-11.289v15.29828H1847.3261v8.84672h11.49776v38.9277c0 5.406 1.25914 9.64511 3.74184 12.60108 2.47886 2.95307 6.214 4.45462 11.10242 4.46135a31.72939 31.72939 0 008.35711-1.16584l.17987-.051V399.63zM470.31754 216.98426l-.00293 192.90793h21.43713A21.43229 21.43229 0 00513.18607 388.462V322.10115h72.34039V285.93086H534.62021a21.49086 21.49086 0 00-2.67932.16681 21.18492 21.18492 0 00-5.35846 1.39328 20.61542 20.61542 0 00-2.343 1.11926c-.11316.0596-.22327.125-.33636.1875a21.20372 21.20372 0 00-2.67926 1.83688c-.265.2114-.524.42868-.7771.65485a21.2676 21.2676 0 00-1.90229 1.90228c-.22613.25318-.44348.51215-.65484.77695a21.23355 21.23355 0 00-1.83686 2.67935c-.0625.113-.128.22324-.1875.3364a21.17274 21.17274 0 00-2.00055 5.02218l-.009.03574a20.3204 20.3204 0 00-.50305 2.64349c-.08466.67411-.10791 1.365-.12793 2.05661h-.03876V231.72026h93.584v-36.1702H491.75174A21.43583 21.43583 0 00470.31754 216.98426zM635.094 216.98426l-.003 192.90793h21.4372a21.43218 21.43218 0 0021.4342-21.43017V322.10115h72.34046V285.93086H699.39658a21.4899 21.4899 0 00-2.67926.16681 21.18713 21.18713 0 00-5.35859 1.39328 20.6025 20.6025 0 00-2.34283 1.11926c-.11316.0596-.22339.125-.33637.1875a21.20581 21.20581 0 00-2.67932 1.83688c-.26489.2114-.52392.42868-.777.65485a21.2676 21.2676 0 00-1.90229 1.90228c-.22625.25318-.4436.51215-.655.77695a21.23364 21.23364 0 00-1.83673 2.67935c-.0625.113-.128.22324-.1875.3364a21.17274 21.17274 0 00-2.00055 5.02218l-.009.03574a20.3204 20.3204 0 00-.50305 2.64349 21.48572 21.48572 0 00-.16681 2.67923c0 .10733 0 .21137.00592.3187h-.00592v-75.9635h93.58411v-36.1702H656.52823A21.43585 21.43585 0 00635.094 216.98426zM801.04129 216.98426l-.003 192.90793h21.43719A21.43217 21.43217 0 00843.9097 388.462v-192.912H822.47549A21.43576 21.43576 0 00801.04129 216.98426z"/><path d="M81.28287 141.11288c3.36329 0 7.54049 2.3999 12.0805 6.94l.5313.53171 2.1714-2.16991-.5322-.5323c-5.1958-5.1962-7.5811-9.86521-6.898-13.5024.5479-2.9145 2.9258-4.52051 4.82471-5.355l.5352-.2353-.0977-.57671c-.125-.73829-1.30321-7.5278-1.53321-8.813l-.1392-.7759-.7675.17731c-17.8936 4.1294-31.9903 10.66109-43.09621 19.96871l.373.4449-.6611.09959.0049.03121c.4868 3.1006-.9937 7.04739-4.28231 11.41461l-.392.5205 2.42431 2.42582.53019-.55371c5.0279-5.24961 9.6407-8.02491 13.3409-8.02491 5.34911 0 7.7856 5.74411 7.7856 11.081.0005 5.31637-2.42281 11.03808-7.74271 11.0386-3.7075.00049-8.3349-2.79928-13.38229-8.09671l-.5298-.55609-2.3535 2.35049.2525.4878c2.5883 4.99859 10.1127 15.3565 11.88811 16.67779l.12649.07611a34.08067 34.08067 0 0014.18311 2.73832h.002a38.25771 38.25771 0 0014.667-2.72461l.17571-.104c3.8013-3.01709 9.9917-15.20559 10.96-19.18411l.1006-.41211-.30181-.29831c-.2695-.2666-.936-.93219-1.104-1.10211l-.5303-.5361-.53321.5332c-4.5385 4.5386-8.7158 6.938-12.08 6.93939h-.0025a6.50947 6.50947 0 01-5.727-3.56149 15.03947 15.03947 0 01-.001-13.7964A6.51305 6.51305 0 0181.28287 141.11288zM141.39957 139.212c3.5986 0 8.0986 2.8999 13.0141 8.38681l.52841.58981 2.40429-2.40089-.57479-.5298c-7.97409-7.3525-8.8881-12.205-8.2504-14.9809.82419-3.5864 4.4697-5.18559 6.56979-5.81979l.94379-.28472-.42621-.67479c-.0835-1.1914-.54449-8.03909-.79449-11.76269l-.04779-.7051-.70661.00541c-20.95019.1665-37.1533 1.2837-50.9926 3.5146l-.7193.14459.0996.726c.1241.90141.5825 4.10011.95559 6.70071.2432 1.6958.44971 3.13671.50292 3.5166l.06979.501.4903.123c3.73391.9361 6.30169 2.99809 7.04591 5.6573 1.03558 3.7016-1.2559 8.53121-6.6275 13.96581l-.5249.53169 2.1685 2.16649.53081-.5307c4.5395-4.5401 8.71629-6.94 12.07859-6.94 5.0844 0 7.39989 5.4229 7.39989 10.461.00049 5.039-2.3155 10.4624-7.40039 10.46289-3.36182 0-7.5386-2.39991-12.07811-6.93952l-.5357-.53561-.53031.541c-.1665.1699-.8315.8335-1.1015 1.10059l-.30231.29831.1001.4126c1.0591 4.3569 8.7681 16.36911 12.3111 19.1831l.1972.1128a37.33592 37.33592 0 0013.4424 2.5249 41.40637 41.40637 0 0013.9248-2.51859l.19681-.10589c4.76322-3.5654 11.09571-16.7461 12.22071-20.50879l.12689-.4263-.3125-.31589c-.26511-.26852-.96921-.9726-1.29682-1.29691l-.56009-.55419-.5259.587c-4.915 5.4863-9.4155 8.3862-13.0141 8.3862-5.15189 0-7.4986-5.90091-7.4986-11.38379a15.62626 15.62626 0 011.9541-7.95509A6.44114 6.44114 0 01141.39957 139.212zM166.86 111.04458l-.7109-.0074-.04489.7095s-.64069 10.01371-.74811 11.666l-.5488.69091 1.0723.3125c2.1445.6246 5.86709 2.2129 6.71869 5.8365.6524 2.7778-.248 7.6362-8.24021 15.0058l-.57419.5298 2.4043 2.40091.52731-.58991c4.9141-5.4868 9.4141-8.3867 13.01169-8.3867 5.1485 0 7.4942 5.899 7.4961 11.37941 0 5.48489-2.34571 11.38821-7.4961 11.38971h-.00189c-3.59769 0-8.0957-2.8999-13.0098-8.38629l-.52929-.59082-2.166 2.16949.12689.42771c1.08991 3.64651 7.5391 17.00289 12.21882 20.5083l.21289.11129a44.15777 44.15777 0 0014.1054 2.417 47.57446 47.57446 0 0014.44931-2.41309l.13282-.042.10739-.08591c3.80469-3.0191 9.98831-15.208 10.95309-19.18509l.09961-.40381-.291-.2973c-.15039-.15289-.4336-.43661-.68161-.6846l-.9531-.9649-.53518.5357c-4.541 4.53949-8.7168 6.93939-12.08011 6.93939-5.08591 0-7.40232-5.4223-7.40232-10.46039a13.61447 13.61447 0 011.91791-7.3022 6.40862 6.40862 0 015.48441-3.16119c3.36129 0 7.53909 2.3999 12.08011 6.94l.5332.53369.5293-.53671c.00192-.00049.68548-.69242 1.0996-1.10541l.5293-.52739-.52542-.53169c-5.30658-5.37261-7.60941-10.16071-6.6543-13.84621.90631-3.4995 4.45511-5.021 6.48832-5.61671l.4707-.1377.0625-.48579c.3418-2.6397.69729-5.0606 1.02151-7.2779q.24019-1.61943.44919-3.0962l.1055-.73391-.7344-.1123C203.16464 112.40829 186.653 111.25207 166.86 111.04458zM274.52206 157.151c-5.04489 5.2959-9.67379 8.0957-13.38281 8.09671h-.00189a6.79735 6.79735 0 01-5.97269-3.7251 15.95683 15.95683 0 01.00589-14.64111 6.84476 6.84476 0 016.01169-3.753c3.7012 0 8.31439 2.77541 13.3418 8.02492l.53119.5542 2.42-2.4267-.39069-.52c-3.22259-4.2867-4.71289-8.17142-4.3125-11.23441l.05082-.38229-.28122-.2632c-10.125-9.4639-24.4668-16.08351-43.84378-20.2368l-.75782-.1626-.13668.76359c-.41211 2.3028-.9473 5.3702-1.4375 8.67881l-.08991.60148.5704.21141c3.0253 1.1221 4.97852 3.0611 5.5019 5.4605.80081 3.6636-1.5723 8.39551-6.8613 13.685l-.5293.5298 2.16989 2.17091.5293-.53021c4.541-4.5401 8.7168-6.94 12.08008-6.94 5.084 0 7.40039 5.42289 7.40039 10.461 0 5.039-2.31641 10.46241-7.40039 10.4628-3.36331 0-7.53909-2.3999-12.08008-6.93939l-.53522-.5357-.53119.5411c-.166.17041-1.10159 1.101-1.10159 1.101l-.30072.2984.1015.41061c.96881 3.9805 7.16022 16.1709 10.961 19.1846l.1835.10791a38.58238 38.58238 0 0014.3321 2.7207h.00189a38.10358 38.10358 0 0014.33209-2.72219l.164-.09223c1.77741-1.32229 9.30081-11.68069 11.88669-16.67779l.25391-.4878-2.35151-2.3525z" fill="#ef373e"/><path class="cls-3" d="M167.67245 92.903a25.21707 25.21707 0 01-14.58929-.0601c-.145-.0479-.272-.07671-.272-.07671l.0151.2242c.06452.8242.34769 4.4926.49271 7.39889l1.55521 23.3496a20.86568 20.86568 0 0111.22021-.0479l1.9668-30.88519zM231.10214 100.03379c.002-.05909.002-.1181.00391-.17669.0039-.4527-.00189-.89211-.02341-1.315l-.00589-.09469c-.02151-.3931-.05661-.772-.1015-1.1397-.0079-.0561-.0137-.11369-.02151-.1689-.05082-.374-.11719-.73339-.19532-1.08149-.01568-.0665-.0332-.1314-.04889-.19681a9.60334 9.60334 0 00-.29489-.99269l-.00778-.0249a8.34783 8.34783 0 00-.4082-.9243c-.0293-.05712-.0586-.11431-.08979-.16991a7.23064 7.23064 0 00-.52151-.8335c-.01959-.0274-.043-.05279-.0625-.08009a7.15437 7.15437 0 00-.62891-.731c-5.4219-5.5302-21.32031-4.4643-60.63281.7769l-.51181 8.05169c57.85751-7.249 52.06451-5.1298 48.20322 24.7701a18.85409 18.85409 0 0111.35351.332c1.57611-10.627 3.56049-18.69141 3.9375-24.5742h0C231.07678 100.96888 231.09436 100.49519 231.10214 100.03379zM89.33607 100.19148c.00051-.11029-.002-.2246 0-.333.0073-.4038.02691-.792.0537-1.17229.0088-.12109.0186-.2408.0293-.3599.0332-.3755.0737-.74319.1284-1.09469.0069-.045.0157-.08791.023-.1319.0556-.3388.125-.664.2026-.9814.02251-.09181.04491-.1831.06931-.273.0894-.3315.189-.65381.3052-.9619.02-.05321.044-.103.065-.1557.1069-.2686.22509-.5269.354-.7769.0361-.07032.0708-.14211.1089-.21041a7.92273 7.92273 0 01.497-.7915c.0435-.06059.09129-.1182.1367-.1778a7.65916 7.65916 0 01.51131-.6035c.03559-.0386.0644-.082.101-.11959-66.12889.9541-70.62889-.8228-60.17959 38.5552 4.6347-1.0479 9.1289-.775 12.3618.7509-7.729-31.1548-6.4893-29.894 45.247-29.894-.0034-.09719-.0004-.1856-.0034-.28129Q89.33348 100.67419 89.33607 100.19148z"/><path class="cls-3" d="M228.64905 92.05038c.01761.01709.02929.03661.0469.0537a7.4684 7.4684 0 01.62891.731c.0195.0273.04288.0527.0625.08009a7.186 7.186 0 01.52151.8335c.03119.0556.06049.11279.08979.1699a8.3488 8.3488 0 01.4082.92431l.00778.0249a9.60334 9.60334 0 01.29489.99269c.01569.06541.03321.13031.04889.19681.0781.3481.1445.7075.19532 1.08149.00781.05521.01361.1128.02151.1689.04489.36771.08.7466.1015 1.1397l.00589.09469c.02152.4229.02731.8628.02341 1.315-.00189.05859-.00189.1176-.00391.17669-.00781.4619-.0234.9346-.05661 1.42681 52.77341 0 53.34961-.7486 45.74219 29.8921 3.22259-1.521 7.6972-1.794 12.31641-.75689C298.50067 94.37168 299.56317 92.05038 228.64905 92.05038zM152.81216 93.81358c-39.23289-5.0708-55.42678-6.5703-60.99169-.646a7.57068 7.57068 0 00-.51131.6035c-.0454.0596-.0932.1167-.13671.1778a7.86877 7.86877 0 00-.497.7915c-.0381.0683-.0728.14009-.1089.21041-.1284.25-.2471.5083-.354.7769-.021.0527-.045.10249-.065.1557-.11619.30809-.2158.6304-.3052.9619-.0244.0899-.0468.18118-.06931.273-.07761.3174-.1465.6426-.20261.9814-.00729.044-.0157.0869-.023.1319-.0547.3515-.0952.71919-.1284 1.09469-.0107.1191-.021.2388-.0293.3599-.02679.38029-.0464.76849-.0537 1.17229-.002.10841.00051.22271 0 .333q-.003.48268.0112.9873c.1651 5.9141 1.9888 14.1241 3.8111 25.1597a18.60327 18.60327 0 0111.48969-.80418c-4.2241-31.12891-8.439-31.2031 48.69191-24.7139-.00629-.1406-.01371-.28661-.021-.43111l-.49271-7.39889z"/><path class="cls-3" d="M279.27795,195.96937c2.29493-14.107,12.3418-54.793,15.55661-63.4131-14.03509-6.5947-31.19918-.4239-18.34961,16.65529l-1.41989,1.42279c-29.89059-31.21291-29.89059,38.40381,0,7.03421.58591.58881,1.41989,1.4209,1.41989,1.4209-2.5039,4.83591-10.0195,15.1929-11.6679,16.41992a38.3586,38.3586,0,0,1-28.1016,0c-3.4902-2.769-9.70309-14.69092-10.69729-18.77292,0,0,.9414-.938,1.1094-1.10889,27.67969,27.68061,27.67969-35.78811,0-8.105,0,0-.69531-.69531-1.1094-1.11039,28.57031-28.5698-38.65619-28.5698-10.41989,0-.416.41508-1.10349,1.11039-1.10349,1.11039-27.68161-27.6831-27.68161,35.78559,0,8.105.168.1709.8418.83982,1.10349,1.10889-.99021,4.082-7.20121,16.00391-10.6894,18.77292-9.8106,3.1001-18.34771,3.24219-28.09381,0-4.47848-3.355-10.82229-16.3501-11.94918-20.123.26559-.26709.96868-.9678,1.291-1.2911,29.08789,32.4761,29.08789-39.47409,0-6.997l-1.291-1.28861c33.08007-30.50239-41.687-30.50239-8.60212,0l-1.291,1.28861c-29.0947-32.4771-29.0947,39.47311,0,6.997.3262.3233,1.0264,1.024,1.291,1.2911-1.1279,3.77289-7.46869,16.768-11.95111,20.123a37.65739,37.65739,0,0,1-26.8457,0c-3.4864-2.769-11.0567-14.69092-12.0479-18.77292.2715-.2691.94141-.938,1.10941-1.10889,27.67869,27.68061,27.67869-35.78811,0-8.105,0,0-.6924-.69531-1.10941-1.11039,28.23729-28.5698-38.98529-28.5698-10.41409,0-.41789.41508-1.1113,1.11039-1.1113,1.11039-27.6806-27.6831-27.6806,35.78559,0,8.105.169.1709.8389.83982,1.1113,1.10889-.9951,4.082-7.2099,16.00391-10.6992,18.77292-8.99221,3.77689-21.22071,3.3252-28.2392,0-1.6485-1.227-9.1651-11.584-11.6709-16.41992,0,0,.834-.83209,1.4218-1.4209,29.8916,31.3696,29.8916-38.2471,0-7.03421l-1.4218-1.42279c12.85541-17.07919-4.3096-23.25-18.3457-16.65531,3.2119,8.62011,13.2617,49.3061,15.55659,63.415Z"/><circle cx="160.481" cy="69.704" r="24.438" stroke-miterlimit="10" stroke="#ef373e" fill="#ffd600"/><path class="cls-3" d="M137.10464,63.382H154.57V26.62381H140.99432V15.15918h13.57776s-.006-1.29422-.00207-1.29029V.75006h11.841V15.1585h13.534v11.461H166.383V63.381h17.58761"/><path class="cls-5" d="M136.783 75.223L184.208 75.223"/><circle class="cls-5" cx="160.481" cy="69.704" r="24.438"/><path d="M.75157,195.9709H320.133c-.36332,156.644-16.91211,275.00338-159.646,372.0112C17.02206,470.97428,1.07677,352.99971.75157,195.9709Z" stroke="#006db6" fill="#006db6" stroke-width="1.5"/><path class="cls-1" d="M160.26236,471.269c-2.27077,0-7.74974-.35351-16.28483-1.05176l-.65508-.05371-.12286-51.96679-.089-38.80762,1.07326,1.24316c5.28749.29981,10.75162.45215,16.24588.45215,5.57261,0,11.123-.15722,16.49812-.46875l.752-.043-.01947,11.78321-.15951,77.75387-.65184.05664C168.37417,470.90861,162.949,471.269,160.26236,471.269Z"/><path class="cls-7" d="M142.96228,381.3347c.01007.01.02972.02.03931.03q8.45352.465,17.44635.47,8.9691,0,17.41708-.47l-.01965,10.99-.03931,16.19-.01965,9.61-.10785,51.26471c-7.21622.6-14.14768,1.1-17.407,1.1-2.77854,0-9.7493-.48-17.093-1.05l-.12753-51.27472-.01966-9.62-.0393-16.27-.02973-10.97m-1.50979-3.61521.00979,3.61927.02973,10.97.0393,16.26959.01966,9.61938.12753,51.2754.00345,1.38458,1.38049.10718c9.14154.70959,14.77069,1.0545,17.20908,1.0545,2.85263,0,8.58715-.36145,17.53131-1.10516l1.37283-.11414.0029-1.37756.10785-51.26471.01965-9.61011.03931-16.18945.01965-10.99094.00284-1.58762-1.58524.08719c-5.64263.3104-11.47488.46778-17.33468.46778-5.68509,0-11.33533-.14716-16.8042-.4375l-2.19125-2.17771Z"/><path class="cls-1" d="M230.857,438.76213c-9.66309,0-21.10645-2.9336-34.01172-8.72071a208.18925,208.18925,0,0,1-36.42286-21.53808,208.21222,208.21222,0,0,1-36.42334,21.53808c-12.8999,5.78711-24.3413,8.72071-34.00634,8.72071-9.08594,0-16.28955-2.59864-21.41114-7.72461-10.41064-10.40137-10.27978-29.542.34961-53.94629-24.76953-9.74512-38.39892-23.18555-38.39892-37.89453,0-14.69629,13.62256-28.13965,38.37939-37.90381-10.63525-24.41406-10.77-43.56592-.35986-53.97608,5.12158-5.12109,12.32471-7.71777,21.41016-7.71777,9.66552,0,21.10693,2.93164,34.00683,8.71338a189.465,189.465,0,0,1,23.565,12.8208l.43311.27441-.09815.50293c-.61035,3.1294-1.17089,6.24756-1.666,9.26758l-.19971,1.36231-.98291-.647c-21.0791-13.86767-41.10595-21.8208-54.94531-21.8208-6.25537,0-11,1.57276-14.102,4.67481-7.14063,7.14013-6.125,22.813,2.772,43.0581,17.27-5.53369,38.03515-9.21338,60.124-10.65039,1.458-1.28174,2.92724-2.54638,4.3706-3.76172l1.44238-1.21435-.21435,1.87353c-.0791.68946-.148,1.36914-.19727,2.03955-.27685,3.28711-.51513,6.78858-.709,10.415.001.01221-.00195.06446-.00586.1167v.33447l-.25147.27686c-4.24414,3.813-8.52734,7.87793-12.73144,12.082a313.91718,313.91718,0,0,0-26.42334,29.8794,313.0363,313.0363,0,0,0,26.39355,29.8496c4.146,4.14649,8.37159,8.16114,12.56446,11.93653,5.64306.30078,11.47363.4541,17.33545.4541,5.78955,0,11.60986-.14941,17.3042-.44531,4.31054-3.89942,8.53711-7.917,12.56543-11.94532a311.70329,311.70329,0,0,0,26.38378-29.8496,313.92774,313.92774,0,0,0-26.42382-29.8794c-4.14453-4.14453-8.39746-8.18262-12.64161-12.00244l-.248-.22363v-.334l-.00977-.26025c-.21679-3.82227-.45215-7.23731-.71777-10.397-.0498-.64892-.10938-1.31152-.17871-1.97509l-.19336-1.84522,1.42187,1.19238q2.14453,1.79957,4.27051,3.67286c22.08594,1.43652,42.85254,5.11572,60.125,10.65088,8.7627-19.94727,9.80664-36.0127,2.77149-43.04834-3.10157-3.10157-7.84571-4.67432-14.09961-4.67432-13.81934,0-33.81836,7.93506-54.86817,21.771l-.96679.63525-.18555-1.1416.71094-.291-.74024.1211c-.46386-2.83789-1.01172-5.87891-1.67676-9.29786l-.09765-.50244.43262-.27392a187.46978,187.46978,0,0,1,23.49511-12.78076c12.90528-5.78223,24.34864-8.71387,34.01172-8.71387,9.084,0,16.28906,2.59668,21.415,7.71728,10.39844,10.40918,10.26367,29.55664-.35937,53.9668,24.77539,9.75928,38.40917,23.20654,38.40917,37.91357,0,14.71973-13.63964,28.16407-38.42871,37.90528,10.61719,24.39941,10.74805,43.53613.34864,53.93555C247.14609,436.16349,239.941,438.76213,230.857,438.76213Zm-61.72071-36.84375c23.68653,16.76855,46.10059,26.36816,61.60938,26.36816,6.25488,0,10.998-1.57129,14.09668-4.66992,7.13379-7.13379,6.125-22.791-2.75293-43.01856-17.27149,5.53418-38.03418,9.21387-60.11426,10.65137C177.74081,394.9672,173.42636,398.55217,169.13632,401.91838ZM78.76477,380.5883c-8.88867,20.22851-9.90088,35.88965-2.76221,43.02832,3.09912,3.09863,7.8418,4.66992,14.09619,4.66992,15.50928,0,37.92383-9.59961,61.60987-26.36816-4.29834-3.374-8.61572-6.96192-12.84961-10.67871C116.78036,389.80119,96.025,386.12248,78.76477,380.5883Zm77.14453,11.31836c1.47217,1.18945,2.96387,2.36719,4.51319,3.56347,1.59716-1.23242,3.09179-2.41113,4.521-3.56347-1.41846.02051-2.90674.03027-4.501.03027-1.60595,0-3.105-.00976-4.5332-.03027Zm67.23389-43.98633A324.08993,324.08993,0,0,1,197.733,376.477q-1.604,1.60542-3.23144,3.19043a227.753,227.753,0,0,0,43.01172-8.52734,206.38,206.38,0,0,0-14.37015-23.21973Zm-139.80274,23.209a226.65342,226.65342,0,0,0,42.9961,8.52832c-1.04492-1.01562-2.124-2.08007-3.22461-3.18066a324.09384,324.09384,0,0,1-25.41065-28.55664,204.11993,204.11993,0,0,0-14.36087,23.209Zm146.38868-31.92187A221.97346,221.97346,0,0,1,247.45178,367.684c20.30176-7.91113,32.40039-18.53613,32.40039-28.4873,0-9.95313-12.09472-20.57715-32.39062-28.48633a223.04147,223.04147,0,0,1-17.73245,28.49707ZM73.402,310.7299c-20.5835,8.00879-32.36963,18.36523-32.36963,28.4668,0,10.0957,11.79,20.45605,32.37988,28.47656a221.519,221.519,0,0,1,17.70264-28.46582A221.99914,221.99914,0,0,1,73.402,310.7299ZM194.50156,298.727q1.60839,1.5666,3.20117,3.15967a323.24758,323.24758,0,0,1,25.45019,28.59717,207.66294,207.66294,0,0,0,14.37891-23.2295A227.64826,227.64826,0,0,0,194.50156,298.727ZM83.32187,307.27336A208.107,208.107,0,0,0,97.6915,330.48381,323.44349,323.44349,0,0,1,123.152,301.88664q1.58935-1.5894,3.20068-3.15967A226.91,226.91,0,0,0,83.32187,307.27336Z"/><path class="cls-7" d="M230.88766,240.34889c8.78287,0,15.87858,2.49689,20.88459,7.49811,10.28,10.29,9.98,29.38-.83,53.85,24.95,9.67,38.66,22.96,38.66,37.5s-13.72,27.84-38.68,37.49c10.8,24.45,11.09,43.55.82,53.82-5.00726,5.00726-12.09958,7.50555-20.88553,7.50555-9.44467,0-20.846-2.88952-33.70444-8.65557a209.0063,209.0063,0,0,1-36.73-21.7801,209.00505,209.00505,0,0,1-36.73,21.78c-12.85476,5.76679-24.25411,8.65558-33.69944,8.65558-8.7844,0-15.87872-2.499-20.88053-7.50555-10.28-10.27-9.99-29.38.82-53.83-24.93-9.65-38.65-22.95-38.65-37.48,0-14.54,13.71-27.82,38.63-37.49-10.82-24.47-11.12-43.57-.83-53.86,5.00183-5.00183,12.09517-7.49823,20.87958-7.4981,9.44533.00012,20.84569,2.88656,33.70042,8.64813a188.469,188.469,0,0,1,23.47,12.77c-.61,3.13-1.17,6.24-1.67,9.29l-.03.21c-22.19787-14.60355-41.84558-21.94446-55.35776-21.94446-6.36244,0-11.367,1.62921-14.63235,4.89453-7.38,7.38-6.39,23.67,2.89,44.51,17.52-5.69,38.43-9.4,60.84-10.84q2.26493-1.995,4.55-3.92c-.08.7-.15,1.39-.2,2.07-.3,3.56-.53,7.06-.71,10.43,0,.07-.01.14-.01.21q-6.36,5.715-12.76,12.11a313.49656,313.49656,0,0,0-26.84,30.41,312.82577,312.82577,0,0,0,26.81,30.37995q6.42,6.42014,12.79,12.14,8.55.465,17.64.47,9.06006,0,17.61-.46,6.36007-5.745,12.79-12.15a311.30622,311.30622,0,0,0,26.8-30.38,313.49511,313.49511,0,0,0-26.84-30.41q-6.36-6.36-12.67-12.03c0-.09006-.01-.17-.01-.26-.19-3.38-.42-6.89-.72-10.46-.05-.65-.11-1.32-.18-1.99q2.235,1.875,4.45,3.83c22.42,1.44,43.32,5.15,60.84,10.84,9.28-20.83,10.27-37.12,2.89-44.5-3.26584-3.26584-8.26541-4.89383-14.63019-4.89383-13.49444,0-33.11438,7.32526-55.27984,21.89383-.01-.06-.02-.11-.03-.17-.5-3.06-1.07-6.18-1.68-9.32a186.61983,186.61983,0,0,1,23.4-12.73c12.86145-5.76227,24.25943-8.64813,33.70544-8.64813m-7.70541,91.38824a208.29781,208.29781,0,0,0,15.43-24.93,230.48869,230.48869,0,0,0-46.19-9.05c1.59,1.53,3.18,3.09,4.75,4.65994a322.01488,322.01488,0,0,1,26.01,29.32m-125.52,0a322.16065,322.16065,0,0,1,26.02-29.32c1.57-1.57,3.16-3.13,4.75-4.65994a229.70366,229.70366,0,0,0-46.19,9.07,208.48812,208.48812,0,0,0,15.42,24.91m149.43,36.89c21.29-8.17,33.51-18.99,33.51-29.43s-12.21005-21.26-33.5-29.43a222.13477,222.13477,0,0,1-18.3,29.44,221.22436,221.22436,0,0,1,18.29,29.42m-173.32-.01a220.51762,220.51762,0,0,1,18.27-29.41,220.708,220.708,0,0,1-18.28-29.42c-21.28,8.16-33.48,18.97-33.48,29.41,0,10.43994,12.21,21.25,33.49,29.42m118.65,12.02a230.4137,230.4137,0,0,0,46.17-9.05,206.79782,206.79782,0,0,0-15.42-24.92,322.5822,322.5822,0,0,1-25.97,29.28006c-1.58,1.58-3.18,3.15-4.78,4.69m-64-.01c-1.6-1.53-3.2-3.1-4.78-4.68a322.57259,322.57259,0,0,1-25.97-29.28006,204.53315,204.53315,0,0,0-15.41,24.91,229.46689,229.46689,0,0,0,46.16,9.05m-38.32327,48.4101c15.01434,0,37.61435-9.06122,62.86319-27.09009q-6.93-5.4-13.8-11.44c-22.4-1.44-43.3-5.15-60.81-10.84006-9.27,20.82-10.26,37.1-2.88,44.48,3.26244,3.26245,8.26329,4.89014,14.6268,4.89014m140.64639,0c6.36164,0,11.365-1.62836,14.6268-4.89014,7.38-7.38,6.39-23.65-2.87-44.47-17.52,5.69-38.41995,9.4-60.83,10.84q-6.855,6.03-13.79,11.43c25.251,18.0304,47.84888,27.09009,62.86319,27.09009m-70.30322-37.85q-3.36,0-6.69-.07,3.36,2.76,6.67,5.3,3.315-2.55,6.68-5.3-3.31508.07492-6.66.07m70.44543-152.33816c-9.76968,0-21.31616,2.95373-34.31872,8.77923a188.27461,188.27461,0,0,0-23.59024,12.83225l-.864.54819.19512,1.00445c.66272,3.41165,1.20969,6.44583,1.67212,9.27591l.01938.11047.0112.06336.3776,2.27362,1.926-1.26587c20.931-13.7572,40.77942-21.64734,54.456-21.64734,6.04834,0,10.6138,1.49872,13.56958,4.45447,6.73755,6.73758,5.73,22.232-2.65893,41.59839-17.13342-5.4177-37.62769-9.02872-59.40448-10.46277-1.50247-1.316-2.84448-2.46893-4.09186-3.51541l-2.84137-2.38367.38541,3.68875c.06857.65622.12732,1.31247.1763,1.9491.26721,3.18079.50119,6.57837.71606,10.39624.00107.05688.00385.11185.007.16681v.66791l.49887.48886c4.237,3.81427,8.48056,7.8435,12.61292,11.97583a313.71835,313.71835,0,0,1,26.006,29.35006,311.565,311.565,0,0,1-25.96591,29.31858c-3.95469,3.95468-8.10392,7.90228-12.34,11.74032-5.59445.28565-11.31036.43039-16.99942.43039-5.76,0-11.48673-.14785-17.03037-.43957-4.11447-3.71109-8.2637-7.65583-12.339-11.73111a313.04311,313.04311,0,0,1-25.9755-29.31922,313.752,313.752,0,0,1,26.00556-29.34948c4.19485-4.19489,8.46835-8.25077,12.70187-12.0549l.49741-.447v-.66867c.00466-.05166.008-.10437.00933-.15731.19291-3.607.43021-7.09128.70542-10.35675.04477-.60782.1065-1.24634.19558-2.02558l.42841-3.74716-2.88492,2.42941c-1.38421,1.16571-2.79205,2.37631-4.1907,3.60367-21.779,1.43482-42.27208,5.04566-59.40331,10.46268-8.388-19.37357-9.3957-34.87177-2.65916-41.60834,2.95628-2.95624,7.52246-4.45517,13.57171-4.45517,13.69683,0,33.57343,7.90848,54.53321,21.69766l1.97485,1.29923.33447-2.34012.03-.20935c.48676-2.96735,1.04593-6.07806,1.65747-9.216l.196-1.00589-.86579-.54828a190.16053,190.16053,0,0,0-23.65847-12.87128c-12.99767-5.82565-24.54253-8.77945-34.31443-8.77957-9.2915-.00012-16.67324,2.67041-21.94024,7.93747-10.54138,10.54132-10.56617,29.71481-.10506,54.09524-24.60692,9.86209-38.13431,23.43467-38.13431,38.31543,0,14.8935,13.53377,28.46268,38.15383,38.30658-10.45375,24.36853-10.42588,43.5329.116,54.06458,5.26608,5.27118,12.64835,7.94439,21.94067,7.94439,9.77161,0,21.31629-2.95636,34.31339-8.787A208.32446,208.32446,0,0,0,160.42227,409.429a208.32821,208.32821,0,0,0,36.11649,21.29681c13.002,5.83044,24.54825,8.78674,34.318,8.78674,9.29056,0,16.67432-2.673,21.94617-7.94488,10.5296-10.52954,10.55734-29.68952.11532-54.05329,24.639-9.84,38.18409-23.41323,38.18409-38.31735,0-14.89236-13.53571-28.46783-38.16459-38.32617,10.44938-24.3757,10.42469-43.5448-.10424-54.084-5.27268-5.26761-12.65595-7.938-21.94577-7.938Zm-7.76818,90.382a324.73617,324.73617,0,0,0-24.88654-27.87452q-.82287-.82291-1.65469-1.64364a225.63864,225.63864,0,0,1,39.86752,7.99133,207.24733,207.24733,0,0,1-13.32632,21.5268Zm-138.71134-21.508a224.879,224.879,0,0,1,39.86791-8.01q-.83068.81963-1.65447,1.64343A324.95643,324.95643,0,0,0,97.7253,329.23054a207.49068,207.49068,0,0,1-13.31716-21.50772Zm146.24677,31.4837a224.21972,224.21972,0,0,0,17.16229-27.55111c19.618,7.76309,31.28506,18.01022,31.28506,27.54159,0,9.52957-11.66882,19.776-31.295,27.54154A223.31773,223.31773,0,0,0,230.65491,339.20658ZM73.0569,366.72819c-19.61208-7.7641-31.27464-18.00711-31.27464-27.53113,0-9.52963,11.65825-19.76889,31.26391-27.52151a222.97431,222.97431,0,0,0,17.14341,27.53107,222.56407,222.56407,0,0,0-17.1327,27.52157Zm11.36838,3.95123A203.51781,203.51781,0,0,1,97.73419,349.1725,325.534,325.534,0,0,0,122.581,377.00715q.84768.84765,1.67679,1.6651A224.66185,224.66185,0,0,1,84.42528,370.67942Zm112.15294,8.00165q.84558-.83427,1.68466-1.67334a325.53331,325.53331,0,0,0,24.84677-27.83438,205.82527,205.82527,0,0,1,13.31772,21.51618A225.64331,225.64331,0,0,1,196.57822,378.68107Zm-106.47914,48.856c-6.04857,0-10.61289-1.4975-13.56614-4.45074-6.734-6.734-5.72938-22.22223,2.64907-41.5781,17.12156,5.417,37.60388,9.02762,59.37372,10.46243,3.91769,3.43482,7.911,6.76215,11.89813,9.91431C127.19757,418.20732,105.27792,427.53709,90.09908,427.53709Zm92.17961-35.55637c21.77133-1.43432,42.26071-5.045,59.39315-10.46246,8.36866,19.3541,9.36954,34.83823,2.63974,41.56809-2.95327,2.9533-7.5176,4.45074-13.56613,4.45074-15.17889,0-37.09811-9.32947-60.35437-25.65179C174.367,398.74342,178.35641,395.41957,182.27869,391.98072Zm-21.85611,2.541q-1.18222-.91735-2.34763-1.8425c.76743.00525,1.55484.00784,2.36728.00784.80017,0,1.57623-.00253,2.33249-.00766Q161.63132,393.58494,160.42258,394.52171Z"/><path class="cls-1" d="M36.05087,352.32853a13.14088,13.14088,0,1,1,9.29151-3.84863A13.14088,13.14088,0,0,1,36.05087,352.32853Z"/><path class="cls-7" d="M36.05054,326.79774a12.39051,12.39051,0,1,1-8.76142,3.62909,12.39049,12.39049,0,0,1,8.76142-3.62909m0-1.5a13.89056,13.89056,0,1,0,9.82208,4.06845A13.89059,13.89059,0,0,0,36.05054,325.29774Z"/><path class="cls-1" d="M72.30234,440.39982a13.14,13.14,0,1,1,9.2915-3.84863A13.14006,13.14006,0,0,1,72.30234,440.39982Z"/><path class="cls-7" d="M72.30209,414.86888a12.39051,12.39051,0,1,1-8.76141,3.62909,12.39051,12.39051,0,0,1,8.76141-3.62909m0-1.5a13.89056,13.89056,0,1,0,9.82209,4.06842A13.89055,13.89055,0,0,0,72.30209,413.36888Z"/><path class="cls-1" d="M248.42929,440.39982a13.14,13.14,0,1,1,9.292-3.84863A13.13994,13.13994,0,0,1,248.42929,440.39982Z"/><path class="cls-7" d="M248.42941,414.86888A12.39054,12.39054,0,1,1,239.668,418.498a12.39049,12.39049,0,0,1,8.76141-3.62909m0-1.5a13.89056,13.89056,0,1,0,9.82209,4.06842A13.89055,13.89055,0,0,0,248.42941,413.36888Z"/><path class="cls-1" d="M72.30234,264.23088a13.14006,13.14006,0,1,1,9.2915-3.84864A13.14007,13.14007,0,0,1,72.30234,264.23088Z"/><path class="cls-7" d="M72.30209,238.70024a12.39051,12.39051,0,1,1-8.76141,3.62909,12.3905,12.3905,0,0,1,8.76141-3.62909m0-1.5a13.89056,13.89056,0,1,0,9.82209,4.06845A13.89057,13.89057,0,0,0,72.30209,237.20024Z"/><path class="cls-1" d="M248.42929,264.23088a13.14,13.14,0,1,1,9.292-3.84864A13.14,13.14,0,0,1,248.42929,264.23088Z"/><path class="cls-7" d="M248.42941,238.70024a12.39049,12.39049,0,1,1-8.76141,3.62909,12.39051,12.39051,0,0,1,8.76141-3.62909m0-1.5a13.89056,13.89056,0,1,0,9.82209,4.06845A13.89058,13.89058,0,0,0,248.42941,237.20024Z"/><path class="cls-1" d="M284.8707,352.32853a13.14,13.14,0,1,1,9.291-3.84863A13.14,13.14,0,0,1,284.8707,352.32853Z"/><path class="cls-7" d="M284.87015,326.79774a12.39049,12.39049,0,1,1-8.76142,3.62909,12.39051,12.39051,0,0,1,8.76142-3.62909m0-1.5a13.89056,13.89056,0,1,0,9.82208,4.06845A13.89059,13.89059,0,0,0,284.87015,325.29774Z"/><path class="cls-8" d="M143.29776,381.13963l-.85547-.77576-.13-51.72867s-.14-3.86-.13-10.1c.01-5.7.13-13.42.6-21.99,0-.07.01-.14.01-.21.18-3.37.41-6.87.71-10.43.05-.68.12-1.37.2-2.07a1.64029,1.64029,0,0,1,.02-.22c.38-3.94.97-8.14,1.69-12.48l.03-.21c.5-3.05,1.06-6.16,1.67-9.29.01-.07.03-.13995.04-.21,5.11-26.23,13.29-53.55,13.29-53.55s8.17,27.32,13.29,53.54l.03.18c.61,3.14,1.18,6.26,1.68,9.32.01.06.02.11.03.17.72,4.37,1.31,8.6,1.7,12.56l.03.27c.07.67.13,1.34.18,1.99.3,3.57.53,7.08.72,10.46,0,.09.01.17.01.26.46,8.54.58,16.22.59,21.91.01,6.24-.17,10.45-.17,10.45l-.04666,51.31409-.96772.85025"/><path class="cls-8" d="M177.99991,380.98237c-5.68994.3-11.43588.46-17.47592.46q-9.075,0-17.64-.47"/><path d="M160.49866,548.53752a10.37775,10.37775,0,0,1-7.31885-17.748,9.56258,9.56258,0,0,1,1.771-1.377l.0874-50.165c-12.73975.44238-35.168,1.957-35.39746,1.97266l-.80225.05468.023-13.07422.81494.07227c.12012.01074,12.12352,1.08008,23.13087,1.92871,9.1167.69531,14.95508,1.04785,17.35254,1.04785,2.79981,0,8.74463-.36914,17.66944-1.09668,11.11425-.90918,23.01855-2.06836,23.13671-2.0791l.82129-.08008.02344,13.06836-.79883-.05176c-.22558-.01367-22.28906-1.42382-35.10351-1.79589l-.07813,50.0498a10.11548,10.11548,0,0,1,2.02539,1.52149,10.40285,10.40285,0,0,1-7.35693,17.752Z" stroke="#006db6" stroke-width="1.5" fill="#fff"/></svg>