<?xml version="1.0" encoding="UTF-8"?>
<svg width="165px" height="57px" viewBox="0 0 165 57" version="1.1" xmlns="http://www.w3.org/2000/svg" xmlns:xlink="http://www.w3.org/1999/xlink">
    <!-- Generator: Sketch 51.2 (57519) - http://www.bohemiancoding.com/sketch -->
    <title>Page 1 Copy</title>
    <desc>Created with Sketch.</desc>
    <defs>
        <polygon id="path-1" points="0.153161438 0.388058824 7.8325817 0.388058824 7.8325817 9.71864706 0.153161438 9.71864706"></polygon>
        <polygon id="path-3" points="0.164097386 0.221588235 9.42765948 0.221588235 9.42765948 13.5294118 0.164097386 13.5294118"></polygon>
    </defs>
    <g id="Menu" stroke="none" stroke-width="1" fill="none" fill-rule="evenodd">
        <g id="Desktop" transform="translate(-120.000000, -2450.000000)">
            <g id="Page-1-Copy" transform="translate(120.000000, 2450.000000)">
                <polygon id="Fill-1" fill="#EE3524" points="47.206513 0 47.206513 33.2898975 35.4920513 17.6668611 21 17.6668611 47.1836835 53 59 53 59 0"></polygon>
                <polygon id="Fill-2" fill="#EE3524" points="0 53 12 53 12 35 0 35"></polygon>
                <polygon id="Fill-3" fill="#231F20" points="76 31 78 31 78 18 76 18"></polygon>
                <g id="Group-34" transform="translate(76.000000, 17.000000)">
                    <path d="M7.10132745,13.8362941 L5.34924902,13.8362941 L5.34924902,4.76982353 L7.06409869,4.76982353 L7.06409869,6.07041176 C7.71618366,4.93923529 8.77894837,4.50570588 9.82309869,4.50570588 C11.9666608,4.50570588 13.0282621,6.07041176 13.0282621,8.08688235 L13.0282621,13.8362941 L11.2767654,13.8362941 L11.2767654,8.38864706 C11.2767654,7.12570588 10.754981,6.10805882 9.18904641,6.10805882 C7.80983725,6.10805882 7.10132745,7.21982353 7.10132745,8.59629412 L7.10132745,13.8362941 Z" id="Fill-4" fill="#231F20"></path>
                    <path d="M17.7639346,13.8362941 L16.0112745,13.8362941 L16.0112745,4.76982353 L17.7261242,4.76982353 L17.7261242,6.07041176 C18.3787908,4.93923529 19.4415556,4.50570588 20.4851242,4.50570588 C22.6281046,4.50570588 23.6908693,6.07041176 23.6908693,8.08688235 L23.6908693,13.8362941 L21.9393725,13.8362941 L21.9393725,8.38864706 C21.9393725,7.12570588 21.4170065,6.10805882 19.8516536,6.10805882 C18.4724444,6.10805882 17.7639346,7.21982353 17.7639346,8.59629412 L17.7639346,13.8362941 Z" id="Fill-6" fill="#231F20"></path>
                    <path d="M33.3090353,9.29358824 C33.3090353,7.20123529 32.0048654,6.07064706 30.5128065,6.07064706 C29.0219111,6.07064706 27.7177412,7.20123529 27.7177412,9.29358824 C27.7177412,11.4047647 29.0219111,12.5359412 30.5128065,12.5359412 C32.0048654,12.5359412 33.3090353,11.4047647 33.3090353,9.29358824 M35.0989242,9.29358824 C35.0989242,12.0647647 33.1979307,14.1194706 30.5128065,14.1194706 C27.8288458,14.1194706 25.928434,12.0647647 25.928434,9.29358824 C25.928434,6.54182353 27.8288458,4.48711765 30.5128065,4.48711765 C33.1979307,4.48711765 35.0989242,6.54182353 35.0989242,9.29358824" id="Fill-8" fill="#231F20"></path>
                    <polygon id="Fill-10" fill="#231F20" points="41.343234 13.8362941 39.5725412 13.8362941 35.937502 4.76982353 37.9135346 4.76982353 40.4671948 11.7627647 43.0394693 4.76982353 44.9212667 4.76982353"></polygon>
                    <path d="M51.9683216,9.95335294 L51.9683216,9.53864706 L49.2285176,9.95335294 C48.4827791,10.0662941 47.9231843,10.4998235 47.9231843,11.3104118 C47.9231843,11.9892353 48.4827791,12.6298235 49.3774327,12.6298235 C50.812485,12.6298235 51.9683216,11.9327647 51.9683216,9.95335294 M48.854485,8.65276471 L51.2778444,8.29452941 C51.8182431,8.21923529 51.9683216,7.93629412 51.9683216,7.61570588 C51.9683216,6.72982353 51.3906941,5.99511765 50.0300993,5.99511765 C48.7998052,5.99511765 48.1093281,6.76805882 47.9982235,7.82335294 L46.3206026,7.42747059 C46.5061647,5.69335294 48.0540667,4.48688235 49.9922889,4.48688235 C52.6768314,4.48688235 53.7204,6.03276471 53.7204,7.80452941 L53.7204,12.3474706 C53.7204,13.1398235 53.7948575,13.6104118 53.8315046,13.8362941 L52.1172366,13.8362941 C52.0794261,13.6104118 52.0241647,13.271 52.0241647,12.611 C51.632681,13.2521765 50.7380275,14.1192353 49.1348641,14.1192353 C47.3077464,14.1192353 46.1338771,12.8374706 46.1338771,11.4045294 C46.1338771,9.78335294 47.3077464,8.87923529 48.854485,8.65276471" id="Fill-12" fill="#231F20"></path>
                    <path d="M57.3734719,10.9146471 C57.4851582,11.857 58.193668,12.6111176 59.4617725,12.6111176 C60.4489163,12.6111176 60.9904784,12.0458235 60.9904784,11.4046471 C60.9904784,10.8393529 60.5803804,10.4058235 59.8340601,10.2358235 L58.3059359,9.897 C56.9075307,9.59523529 56.069302,8.63405882 56.069302,7.35229412 C56.069302,5.80641176 57.5043542,4.487 59.2564327,4.487 C61.7170209,4.487 62.4807922,6.10817647 62.6680993,6.91876471 L61.1201974,7.50288235 C61.0457399,7.03170588 60.6734523,5.99464706 59.2564327,5.99464706 C58.3611974,5.99464706 57.7655373,6.57935294 57.7655373,7.20111765 C57.7655373,7.74817647 58.1005961,8.14405882 58.7904915,8.29464706 L60.2447399,8.61523529 C61.8665176,8.97288235 62.7233608,9.97229412 62.7233608,11.3105294 C62.7233608,12.5922941 61.6605961,14.1193529 59.4431582,14.1193529 C56.9819882,14.1193529 55.9384196,12.517 55.7889229,11.4799412 L57.3734719,10.9146471 Z" id="Fill-14" fill="#231F20"></path>
                    <path d="M66.097217,0.0196470588 C66.8057268,0.0196470588 67.3647399,0.584941176 67.3647399,1.30141176 C67.3647399,1.99905882 66.8057268,2.56435294 66.097217,2.56435294 C65.4067399,2.56435294 64.8483085,1.99905882 64.8483085,1.30141176 C64.8483085,0.584941176 65.4067399,0.0196470588 66.097217,0.0196470588 Z M65.2392105,4.76964706 L66.9918706,4.76964706 L66.9918706,14.892 C66.9918706,16.532 66.0599882,17.7002353 64.5120863,17.7002353 C63.8419686,17.7002353 63.5807856,17.6061176 63.4690993,17.5684706 L63.4690993,16.0796471 C63.5621712,16.0984706 63.7675111,16.1361176 64.0281124,16.1361176 C64.9413804,16.1361176 65.2392105,15.6461176 65.2392105,14.8167059 L65.2392105,4.76964706 Z" id="Fill-16" fill="#231F20"></path>
                    <path d="M76.7967621,9.29358824 C76.7967621,7.20123529 75.4920105,6.07064706 73.9999516,6.07064706 C72.5096379,6.07064706 71.2048863,7.20123529 71.2048863,9.29358824 C71.2048863,11.4047647 72.5096379,12.5359412 73.9999516,12.5359412 C75.4920105,12.5359412 76.7967621,11.4047647 76.7967621,9.29358824 M78.586651,9.29358824 C78.586651,12.0647647 76.6850758,14.1194706 73.9999516,14.1194706 C71.3165725,14.1194706 69.4155791,12.0647647 69.4155791,9.29358824 C69.4155791,6.54182353 71.3165725,4.48711765 73.9999516,4.48711765 C76.6850758,4.48711765 78.586651,6.54182353 78.586651,9.29358824" id="Fill-18" fill="#231F20"></path>
                    <g id="Group-22" transform="translate(80.856209, 4.117647)">
                        <mask id="mask-2" fill="white">
                            <use xlink:href="#path-1"></use>
                        </mask>
                        <g id="Clip-21"></g>
                        <path d="M1.90523987,9.71864706 L0.153161438,9.71864706 L0.153161438,0.652176471 L1.86801111,0.652176471 L1.86801111,1.95276471 C2.52067778,0.821588235 3.58286078,0.388058824 4.62642941,0.388058824 C6.7699915,0.388058824 7.83275621,1.95276471 7.83275621,3.96923529 L7.83275621,9.71864706 L6.08067778,9.71864706 L6.08067778,4.271 C6.08067778,3.00805882 5.55889346,1.99041176 3.99295882,1.99041176 C2.61374967,1.99041176 1.90523987,3.10217647 1.90523987,4.47864706 L1.90523987,9.71864706 Z" id="Fill-20" fill="#231F20" mask="url(#mask-2)"></path>
                    </g>
                    <polygon id="Fill-23" fill="#231F20" points="8.63282549 36.1358235 2.63085163 26.6546471 2.63085163 36.1358235 0.0585771242 36.1358235 0.0585771242 22.7711176 3.26490392 22.7711176 8.76370784 31.6117059 8.76370784 22.7711176 11.3354007 22.7711176 11.3354007 36.1358235"></polygon>
                    <path d="M20.7490993,31.4988824 C20.7490993,29.7459412 19.6304915,28.8600588 18.4193935,28.8600588 C17.207132,28.8600588 16.0891059,29.7459412 16.0891059,31.4988824 C16.0891059,33.2324118 17.207132,34.1371176 18.4193935,34.1371176 C19.6304915,34.1371176 20.7490993,33.2512353 20.7490993,31.4988824 M23.2288837,31.4988824 C23.2288837,34.3447647 21.1591974,36.4182941 18.4193935,36.4182941 C15.6790078,36.4182941 13.610485,34.3447647 13.610485,31.4988824 C13.610485,28.6335882 15.6790078,26.5788824 18.4193935,26.5788824 C21.1591974,26.5788824 23.2288837,28.6335882 23.2288837,31.4988824" id="Fill-25" fill="#231F20"></path>
                    <path d="M30.9640889,29.3498824 C30.6848732,29.2934118 30.4423046,29.2745882 30.2183503,29.2745882 C28.9508275,29.2745882 27.850834,29.8963529 27.850834,31.8945882 L27.850834,36.1357647 L25.3722131,36.1357647 L25.3722131,26.8616471 L27.7769582,26.8616471 L27.7769582,28.2375294 C28.3353895,27.0122353 29.6034941,26.7863529 30.3864614,26.7863529 C30.5906379,26.7863529 30.7779451,26.8051765 30.9640889,26.824 L30.9640889,29.3498824 Z" id="Fill-27" fill="#231F20"></path>
                    <g id="Group-31" transform="translate(31.993464, 26.470588)">
                        <mask id="mask-4" fill="white">
                            <use xlink:href="#path-3"></use>
                        </mask>
                        <g id="Clip-30"></g>
                        <path d="M7.02349608,4.74511765 C7.02349608,3.31276471 6.05438497,2.40747059 4.86073791,2.40747059 C3.63102549,2.40747059 2.66191438,3.31276471 2.66191438,4.74511765 C2.66191438,6.19747059 3.57460065,7.101 4.86073791,7.101 C6.12884248,7.101 7.02349608,6.17805882 7.02349608,4.74511765 Z M2.40073137,9.57041176 C2.56826078,10.5886471 3.36984248,11.3245294 4.54371176,11.3245294 C6.10964641,11.3245294 6.98568562,10.5321765 6.98568562,8.741 L6.98568562,8.06335294 C6.61339804,8.66570588 5.7553915,9.24982353 4.43260719,9.24982353 C1.99063333,9.24982353 0.164097386,7.34629412 0.164097386,4.74511765 C0.164097386,2.29452941 1.91617582,0.221588235 4.43260719,0.221588235 C5.88627386,0.221588235 6.72450261,0.862176471 7.04152876,1.48394118 L7.04152876,0.391588235 L9.42765948,0.391588235 L9.42765948,8.66570588 C9.42765948,11.2104118 8.06706471,13.5298235 4.61816928,13.5298235 C2.10231961,13.5298235 0.424116993,11.9457059 0.164097386,10.1739412 L2.40073137,9.57041176 Z" id="Fill-29" fill="#231F20" mask="url(#mask-4)"></path>
                    </g>
                    <path d="M50.032368,30.4430588 C49.9957209,29.5195294 49.3988974,28.6148235 47.9824595,28.6148235 C46.6963222,28.6148235 45.9883941,29.5948235 45.9313876,30.4430588 L50.032368,30.4430588 Z M52.3446229,33.4777647 C51.8786817,35.0801176 50.4244333,36.4183529 48.169185,36.4183529 C45.6527536,36.4183529 43.4341523,34.5901176 43.4341523,31.4607059 C43.4341523,28.5012941 45.5963288,26.5789412 47.944649,26.5789412 C50.7781065,26.5789412 52.4743418,28.4071765 52.4743418,31.3854118 C52.4743418,31.7436471 52.4376948,32.1207059 52.4376948,32.1583529 L45.8755444,32.1583529 C45.9313876,33.3836471 46.9575052,34.2695294 48.1872176,34.2695294 C49.3424725,34.2695294 49.9765248,33.6854118 50.2749366,32.856 L52.3446229,33.4777647 Z" id="Fill-32" fill="#231F20"></path>
                </g>
            </g>
        </g>
    </g>
</svg>