<svg xmlns="http://www.w3.org/2000/svg" width="136" height="56" viewBox="0 0 136 56">
    <path fill="#000" fill-rule="evenodd" d="M12.36 12.818H3.09v-.374h9.27v.374zm0 1.929H3.09v-.374h9.27v.374zm0 1.99H3.09v-.373h9.27v.374zm0 1.93H3.09v-.374h9.27v.374zm0 6.595H0v-.373h12.36v.373zm0 1.93H0v-.374h12.36v.373zm0 1.99H0v-.373h12.36v.373zm0 1.93H0v-.374h12.36v.373zm0 6.595H3.09v-.374h9.27v.374zm0 1.929H3.09v-.374h9.27v.374zm0 1.99H3.09v-.373h9.27v.374zm0 1.93H3.09v-.374h9.27v.374zm117.427-30.738h-27.812v1.555h27.812v.374h-27.812v1.617h27.812v.374h-27.812v1.182l.247.373h27.565v.374h-6.18v6.222h6.18v.373h-6.18v1.556h6.18v.373h-6.18v1.618h6.18v.373h-6.18v1.556h6.18v.373h-6.18v6.222h6.18v.374h-6.18v1.555h6.18v.374h-6.18v1.617h6.18v.374h-6.18v1.555h6.18v.374h-6.18v6.222h-7.479l-1.792-2.676v5.787h-.371v-6.347l-1.545-2.24v8.587h-.371v-9.147l-.124-.186h-1.483v9.333h-.37v-9.333h-1.546v9.333h-.37v-9.333h-6.18V56h-.372V31.111h-1.545V56h-.37V31.111h-1.607V56h-.371V31.111h-1.545V56h-.371V43.556h-3.09v6.222h-6.18v3.11h-.371V31.112h-1.546V52.89h-.37V31.11H82.63V52.89h-.371V31.11h-1.545V52.89h-.371v-9.333h-6.18v6.222h-7.478l-1.793-2.614v5.725h-.37v-6.285l-1.546-2.302v8.587h-.37v-9.147L61 41.378v11.51h-.371V40.88l-1.545-2.302v14.31h-.371v-9.332h-6.18V56h-.371V43.556h-1.545V56h-.371V43.556h-1.607V56h-.37V43.556h-1.546V56h-.37V43.556h-3.09v6.222h-6.181v3.11h-.371V31.112h-1.545V52.89h-.37V31.11h-1.608V52.89h-.37V31.11h-1.546V52.89h-.37v-9.333h-6.18v6.222H18.54V56h-.37V31.111h-1.546V56h-.37V31.111h-1.608V56h-.37V31.111H12.73V56h-.37V30.738h6.18v-1.556h-6.18v-.373h6.18V27.19h-6.18v-.373h6.18v-1.556h-6.18V0h.37v24.889h1.546V0h.37v24.889h1.607V0h.371v24.889h1.545V0h.37v6.222h6.181v6.222h6.18V3.111h.371V24.89h1.545V3.11h.371V24.89h1.607V3.11h.371V24.89h1.545V3.11h.37v3.111h7.479l1.792 2.614V0h.371v9.396l1.545 2.302V0h.371v12.258l.124.186h1.483V0h.37v12.444h1.546V0h.37v12.444h6.181V3.111h.37V24.89h1.546V3.11h.37V24.89h1.608V3.11h.37V24.89h1.545V3.11h.371v9.333h3.09V6.222h6.18v6.222h6.181V3.111h.37V24.89h1.546V3.11h.37V24.89h1.608V3.11h.37V24.89h1.546V3.11h.37v3.111h7.479l1.792 2.614V0h.37v9.396l1.546 2.24V0h.37v12.196l1.607 2.364V0h.371v15.12l1.545 2.24V0h.371v12.444h6.18V3.111h.371v9.333h1.545V3.111h.371v9.333h1.607V3.111h.37v9.333h1.546V3.111h.37v9.333h3.09V6.222h6.181v6.222h6.18v.374zm-98.885 1.555v-1.555H18.54v1.555H30.9zm27.811-1.555h-15.45v1.555h15.45v-1.555zm6.18 0v1.555h3.09v-1.555h-3.09zm15.451 0h-6.18v1.555h6.18v-1.555zm6.18 0v1.555h5.624l-1.112-1.555h-4.512zm-67.983 3.546H30.9v-1.617h-12.36v1.617zm24.721 0h15.451v-1.617h-15.45v1.617zm21.631-1.617v1.617h3.09v-1.617h-3.09zm9.27 1.617h6.181v-1.617h-6.18v1.617zm12.361-1.617v1.617h6.922l-1.05-1.617h-5.872zm-55.622 1.99H18.54v1.556H30.9v-1.555zm27.811 0h-15.45v1.556h15.45v-1.555zm6.18 0v1.556h3.09v-1.555h-3.09zm15.451 0h-6.18v1.556h6.18v-1.555zm6.18 0v1.556h8.282l-1.05-1.555h-7.232zm-61.803 1.93v6.222h6.18v-6.222h-6.18zm20.828 0h-2.287v6.222h3.09v-5.04l-.803-1.182zm11.742 6.222h1.422v-6.222h-5.686l4.264 6.222zm7.602-6.222v6.222h3.09v-6.222h-3.09zm9.27 6.222h6.181v-6.222h-6.18v6.222zm20.89-6.222h-2.348v6.222h3.09v-5.102l-.742-1.12zm13.102 0h-5.685l4.264 6.222h1.421v-6.222zm1.916 0h-1.545v8.897l1.545 2.24V18.667zm1.978 0h-1.607v11.697l1.607 2.365V18.667zm1.916 0h-1.545v14.56l1.545 2.302V18.667zm3.46 0h-3.09v6.222h3.09v-6.222zm-19.714 3.92l-1.545-2.24v4.542h1.545v-2.302zm-50.988-2.178v16.924h1.545V22.65l-1.545-2.24zm52.533 4.48l-1.174-1.742v1.742h1.174zm-50.617-1.68v14.124h1.607v-11.76l-1.607-2.364zm-23.918 2.053v1.556h12.36v-1.556h-12.36zm21.631 0h-3.09v1.556h3.09v-1.556zm21.631 0H57.54l1.05 1.556h9.394v-1.556zm18.541 0h-12.36v1.556h12.36v-1.556zm14.03 1.556l-1.051-1.556h-6.798v1.556h7.849zm7.601 0v-1.556h-1.174l1.05 1.556h.124zm9.27 0v-1.556h-3.09v1.556h3.09zm-66.808-.685v11.2h1.545v-8.96l-1.545-2.24zM24.72 27.191v1.618h12.36V27.19h-12.36zm21.631 0h-3.09v1.618h3.09V27.19zm12.485 0l1.112 1.618h8.034V27.19h-9.146zm15.327 0v1.618h12.36V27.19h-12.36zm18.54 0v1.618h9.21L100.8 27.19h-8.096zm24.722 1.618V27.19h-3.09v1.618h3.09zm-80.344 1.929v-1.556h-12.36v1.556h12.36zm9.27-1.556h-3.09v1.556h3.09v-1.556zm6.18 0v1.556h1.237l-1.05-1.556h-.186zm7.664 0l1.05 1.556h6.737v-1.556h-7.787zm26.328 1.556v-1.556h-12.36v1.556h12.36zm16.687 0l-1.05-1.556h-9.456v1.556h10.506zm14.215 0v-1.556h-3.09v1.556h3.09zm-86.524 6.595v-6.222h-6.18v6.222h6.18zm15.45-6.222h-3.09v6.222h3.09v-6.222zm6.18 0v6.222h5.687l-4.203-6.222h-1.483zm8.962 0l1.113 1.618V31.11h-1.113zm1.483 2.178l1.545 2.24V31.11h-1.545v2.178zm2.782 4.044h2.224v-6.222h-3.09v4.978l.866 1.244zm14.585 0v-6.222h-6.18v6.222h6.18zm15.45 0v-6.222h-3.09v6.222h3.09zm7.726-6.222h-1.545v6.222h5.748l-4.203-6.222zm13.906 6.222v-6.222h-3.09v4.978l.865 1.244h2.225zm-86.524 1.93v-1.556h-6.18v1.555h6.18zm27.811 0v-1.245l-.247-.311H43.262v1.555h15.451zm21.631 0v-1.556H66.006l1.05 1.555h13.288zm15.45 0v-1.556h-3.09v1.555h3.09zm21.632 0v-1.556h-15.45v1.555h15.45zm-86.524 1.99v-1.617h-6.18v1.617h6.18zm27.811 0v-1.617h-15.45v1.617h15.45zm21.631 0v-1.617h-13.04l1.112 1.617h11.928zm15.45 0v-1.617h-3.09v1.617h3.09zm21.632 0v-1.617h-15.45v1.617h15.45zm-86.524 1.93v-1.556h-6.18v1.555h6.18zm27.811 0v-1.556h-15.45v1.555h15.45zm21.631 0v-1.556h-11.68l1.05 1.555h10.63zm15.45 0v-1.556h-3.09v1.555h3.09zm21.632 0v-1.556h-15.45v1.555h15.45zm12.36-30.365v-.374h3.09v.374h-3.09zm0 1.929v-.374h3.09v.374h-3.09zm0 1.99v-.373h3.09v.374h-3.09zm0 1.93v-.374h3.09v.374h-3.09zm0 6.595v-.373h6.18v.373h-6.18zm0 1.93v-.374h6.18v.373h-6.18zm0 1.99v-.373h6.18v.373h-6.18zm0 1.93v-.374h6.18v.373h-6.18zm0 6.595v-.374h3.09v.374h-3.09zm0 1.929v-.374h3.09v.374h-3.09zm0 1.99v-.373h3.09v.374h-3.09zm0 1.93v-.374h3.09v.374h-3.09z"/>
</svg>
