<?xml version="1.0" encoding="UTF-8"?>
<svg width="260px" height="34px" viewBox="0 0 260 34" version="1.1" xmlns="http://www.w3.org/2000/svg" xmlns:xlink="http://www.w3.org/1999/xlink">
    <!-- Generator: Sketch 51.3 (57544) - http://www.bohemiancoding.com/sketch -->
    <title>Group 42 Copy</title>
    <desc>Created with Sketch.</desc>
    <defs>
        <polygon id="path-1" points="0 0.236607746 19.6140259 0.236607746 19.6140259 25.7967233 0 25.7967233"></polygon>
        <polygon id="path-3" points="0.336653237 0.288334783 32.9657185 0.288334783 32.9657185 32.5217391 0.336653237 32.5217391"></polygon>
        <polygon id="path-5" points="0 33.7695761 259.872806 33.7695761 259.872806 0.369380435 0 0.369380435"></polygon>
    </defs>
    <g id="Temasider" stroke="none" stroke-width="1" fill="none" fill-rule="evenodd">
        <g id="Desktop-HD-Copy-15" transform="translate(-66.000000, -48.000000)">
            <g id="Group-42-Copy" transform="translate(66.000000, 48.000000)">
                <path d="M11.4512978,4.88073696 L11.526118,4.91399783 C12.336046,5.2702587 13.2851396,4.91362826 13.6510101,4.11573696 L14.3618014,2.63747609 C14.7216863,1.83736739 14.3588086,0.90015 13.5500029,0.542041304 L13.4751827,0.508780435 C12.666377,0.150302174 11.7165353,0.507671739 11.3540317,1.30667174 L11.3540317,1.3070413 L10.6432403,2.78530217 C10.2848518,3.58430217 10.6454849,4.51930217 11.4512978,4.88073696" id="Fill-1" fill="#025169"></path>
                <g id="Group-5" transform="translate(0.000000, 1.617402)">
                    <mask id="mask-2" fill="white">
                        <use xlink:href="#path-1"></use>
                    </mask>
                    <g id="Clip-4"></g>
                    <path d="M17.1225151,8.32264565 L16.9803568,8.24873261 C12.0946014,5.78373261 2.96280288,1.00525435 1.88913381,0.487863043 C0.886543885,-0.01105 0.654601439,0.288297826 0.287982734,0.901776087 C-0.0786359712,1.51525435 -0.198348201,1.88481957 0.557335252,2.42438478 C1.0511482,2.77547174 3.30323453,4.1465587 4.7958964,5.2515587 C5.91819856,6.09416739 7.04050072,7.23242826 7.31733525,8.40395 L11.3164719,24.8902543 C11.5633784,25.8696022 12.1133065,25.840037 12.6594935,25.7624283 C13.2056806,25.6848196 13.7817957,25.6256891 13.7294216,24.4209065 L13.1869755,11.7004717 C13.1308604,10.4919935 13.9875511,9.97460217 15.0799252,10.540037 L17.1225151,11.537863 L18.7461122,12.3324283 C18.9589755,11.4395587 19.2496518,10.5666457 19.6140259,9.72329783 C18.9780547,9.3463413 17.8969036,8.71438478 17.1225151,8.32264565" id="Fill-3" fill="#025169" mask="url(#mask-2)"></path>
                </g>
                <g id="Group-8" transform="translate(17.956835, 1.247837)">
                    <mask id="mask-4" fill="white">
                        <use xlink:href="#path-3"></use>
                    </mask>
                    <g id="Clip-7"></g>
                    <path d="M19.2885957,7.52811739 L18.1887396,8.63681304 C17.6111281,9.24733478 16.6418331,9.28059565 16.0226964,8.71072609 L15.9665813,8.65898696 C15.352682,8.08616087 15.3193871,7.13231304 15.8917612,6.51920435 L16.9916173,5.4105087 C17.5714734,4.80368261 18.5370273,4.7707913 19.1576604,5.33659565 L19.2137755,5.39203043 C19.8355309,5.95709565 19.8759338,6.91316087 19.3039338,7.52774783 C19.3039338,7.52774783 19.3039338,7.52811739 19.3035597,7.52811739 L19.2885957,7.52811739 Z M16.6698906,0.288334783 C15.2557899,0.288334783 13.8476748,0.468313043 12.4799626,0.824204348 C12.4799626,0.960943478 12.4799626,1.10137826 12.4986676,1.23811739 C12.5547827,3.15246522 12.7343511,5.9279 12.9139194,7.31007391 C13.0485957,8.33007391 13.2431281,9.25768261 14.0025525,10.1298565 C14.6460058,10.868987 15.3343511,11.2385522 16.4491712,11.7448565 C17.5639914,12.2511609 21.4247108,13.7700739 22.5320489,14.2098565 C23.6393871,14.6496391 23.5496029,15.0302913 23.2989554,15.7472478 C23.0483079,16.4642043 22.8051424,16.6227478 21.7314734,16.3163783 C20.6578043,16.0096391 15.8842791,14.4685522 14.761977,14.1876826 C14.1110417,14.0250739 13.748164,14.0324652 13.2468691,14.6348565 C12.1245669,16.0687696 12.180682,18.8331174 12.9887396,21.1909435 C13.3628403,22.2257261 13.9277324,24.0255087 14.3018331,25.1711609 C14.6759338,26.316813 14.0736317,26.4720304 13.6995309,26.6494217 C12.9513295,26.9672478 12.5772288,26.9672478 12.1096029,26.0396391 C11.641977,25.1120304 10.4822647,21.9186174 9.17665324,19.4281174 C7.87104173,16.9372478 6.44571799,15.8396391 3.74096978,14.2542043 L3.23593381,13.9844217 L0.793056115,12.6983348 C0.622466187,13.4005087 0.497516547,14.1126609 0.418955396,14.8307261 C0.370322302,15.3481174 0.336653237,15.8729 0.336653237,16.4084 C0.338897842,25.3097478 7.64471079,32.5236609 16.6549266,32.521813 C25.6651424,32.5195957 32.9679626,25.3023565 32.965718,16.4013783 C32.9638475,7.5089 25.6715022,0.298682609 16.6698906,0.288334783 Z" id="Fill-6" fill="#047FA4" mask="url(#mask-4)"></path>
                </g>
                <path d="M20.579318,9.4633087 C20.2209295,10.0586783 19.9010734,10.6758522 19.6216201,11.3111348 L21.1891022,12.0983087 L21.6941381,12.3533087 C21.6941381,12.3533087 24.3128432,13.5691783 25.1508288,13.8980913 C27.0998935,14.6778739 28.0426273,11.7250478 28.0426273,9.4633087 C28.0426273,8.14026522 28.0800374,3.8607 28.0800374,3.30265652 L28.0800374,2.89243913 C24.9450734,4.2528087 22.321505,6.55113478 20.579318,9.4633087" id="Fill-9" fill="#047FA4"></path>
                <polygon id="Fill-13" fill="#F12891" points="18.7462619 13.9387065 18.7462619 13.9387065 18.7562619 13.9437065"></polygon>
                <path d="M37.1296086,6.58439565 C36.5089755,6.0185913 35.5430475,6.05185217 34.9635655,6.6583087 L33.8637094,7.76700435 C33.2909612,8.38011304 33.3242561,9.33396087 33.9385295,9.90678696 L33.9946446,9.95852609 C34.6134072,10.5283957 35.5827022,10.4951348 36.1606878,9.88461304 L37.2605439,8.77591739 C37.836659,8.16539565 37.803364,7.20933043 37.1857237,6.63983043 L37.1296086,6.58439565 Z" id="Fill-17" fill="#FFFFFF"></path>
                <path d="M40.4890331,15.4575457 C39.3667309,15.017763 35.5247165,13.5173283 34.4061554,12.9925457 C33.2875942,12.467763 32.6029899,12.1129804 31.9595367,11.3775457 C31.2113353,10.5053717 31.0055799,9.57776304 30.8709036,8.55776304 C30.6913353,7.17558913 30.4968029,4.40015435 30.4556518,2.48580652 C30.4556518,2.34906739 30.4556518,2.20863261 30.4369468,2.07189348 C29.6330043,2.28439348 28.8462705,2.55639348 28.0838532,2.88493696 L28.0838532,3.30993696 C28.0838532,3.86798043 28.0464432,8.14754565 28.0464432,9.47058913 C28.0464432,11.7397196 27.1037094,14.6925457 25.1546446,13.9053717 C24.327882,13.5764587 21.6904719,12.3605891 21.697954,12.3605891 L21.192918,12.1055891 L19.625436,11.3110239 C19.2606878,12.1543717 18.9703856,13.0276543 18.7575223,13.9201543 L21.2004,15.2062413 L21.705436,15.4760239 C24.4101842,17.0503717 25.8205439,18.1405891 27.1411194,20.649937 C28.461695,23.1592848 29.6101842,26.3153717 30.0740691,27.2614587 C30.537954,28.2075457 30.9232777,28.1890674 31.6639971,27.8712413 C32.0380978,27.7086326 32.644141,27.5460239 32.2662993,26.3929804 C31.8884576,25.239937 31.3123424,23.4364587 30.9532058,22.412763 C30.1376662,20.0808065 30.1002561,17.3164587 31.2225583,15.8751543 C31.7238532,15.272763 32.0867309,15.2653717 32.7376662,15.4279804 C33.8599683,15.70885 38.6334935,17.2462413 39.7071626,17.5566761 C40.7808317,17.8671109 41.0202561,17.7118935 41.2746446,16.9875457 C41.5290331,16.2631978 41.5926302,15.9010239 40.4890331,15.4575457" id="Fill-19" fill="#FFFFFF"></path>
                <polygon id="Fill-21" fill="#025169" points="77.9288835 26.429937 74.7527683 26.429937 74.7527683 18.3845022 66.5449986 18.3845022 66.5449986 26.429937 63.3576604 26.429937 63.3576604 8.29906739 66.5449986 8.29906739 66.5449986 15.8455891 74.7527683 15.8455891 74.7527683 8.29906739 77.9288835 8.29906739"></polygon>
                <path d="M86.9635655,15.1361717 C86.1865583,15.1088239 85.4387309,15.429237 84.9284576,16.0083457 C84.3620691,16.7031283 84.0175223,17.5479543 83.9370906,18.4363891 L89.7730619,18.4363891 L89.7730619,18.2105848 C89.7719396,17.3761065 89.4831338,16.5667587 88.9537813,15.9159543 C88.4382705,15.3797152 87.7106446,15.0947804 86.9635655,15.1361717 M87.3376662,26.6773239 C85.3998245,26.6773239 83.8274791,26.0741935 82.6202561,24.8668239 C81.4130331,23.6594543 80.8096086,22.050737 80.8096086,20.0403022 L80.8096086,19.670737 C80.7871626,18.4253022 81.0572633,17.192063 81.5989612,16.0674761 C82.0834216,15.05265 82.8503281,14.1952587 83.8098964,13.5950848 C84.7612345,13.0063674 85.8637094,12.6999978 86.9860115,12.7118239 C88.8415511,12.7118239 90.2766014,13.2968457 91.2919108,14.4672587 C92.306846,15.6373022 92.8133784,17.2929543 92.8107597,19.4342152 L92.8107597,20.6571065 L83.8884576,20.6571065 C83.9232489,21.642737 84.3224144,22.5814326 85.0107597,23.2961717 C85.6714216,23.94365 86.571882,24.294737 87.5022705,24.2681283 C88.8535223,24.29215 90.1321986,23.6649978 90.9290331,22.5866065 L92.5788173,24.1424761 C92.0330043,24.9488674 91.2788173,25.5956065 90.3940691,26.0158022 C89.4404863,26.4663022 88.3945007,26.6928457 87.3376662,26.6773239" id="Fill-23" fill="#025169"></path>
                <mask id="mask-6" fill="white">
                    <use xlink:href="#path-5"></use>
                </mask>
                <g id="Clip-26"></g>
                <polygon id="Fill-25" fill="#025169" mask="url(#mask-6)" points="95.2909353 26.4300109 98.3548201 26.4300109 98.3548201 7.83348913 95.2909353 7.83348913"></polygon>
                <path d="M109.256153,22.7674717 C109.277102,22.2667109 109.018599,21.794037 108.582771,21.5368196 C107.881706,21.168363 107.12303,20.918537 106.338167,20.7976891 C105.435462,20.6265804 104.556325,20.3501457 103.719462,19.9735587 C102.187894,19.2344283 101.423606,18.176363 101.426224,16.799363 C101.423232,15.6474283 101.979519,14.5642326 102.922627,13.8868196 C104.007145,13.0767326 105.342311,12.6628196 106.701045,12.7152978 C108.332124,12.7152978 109.650081,13.1133196 110.655289,13.9089935 C111.625332,14.6481239 112.181246,15.7996891 112.151692,17.0096457 L109.091548,17.0096457 C109.103894,16.4538196 108.862224,15.9216457 108.433131,15.56095 C107.948296,15.1573848 107.326915,14.9500587 106.693563,14.9807326 C106.109965,14.9559717 105.53385,15.1182109 105.05126,15.4426891 C104.64162,15.719863 104.402196,16.1832978 104.415289,16.6733413 C104.400325,17.1142326 104.625908,17.5288848 105.006368,17.759863 C105.759433,18.1386674 106.567117,18.4003196 107.400613,18.5363196 C108.381131,18.7233196 109.332095,19.03745 110.228814,19.47095 C110.840843,19.7699283 111.366081,20.2178413 111.755145,20.7721891 C112.10044,21.326537 112.273275,21.9692109 112.252699,22.6200152 C112.278138,23.7956022 111.704642,24.9061457 110.726368,25.576537 C109.713678,26.33045 108.381879,26.7059283 106.730973,26.7033413 C105.701447,26.72145 104.680527,26.5185587 103.738167,26.1083413 C102.918886,25.7535587 102.212584,25.1851674 101.695577,24.4641457 C101.215232,23.8074283 100.953735,23.0195152 100.947376,22.2094283 L103.940181,22.2094283 C103.945793,22.8532109 104.247318,23.4596674 104.759462,23.8576891 C105.352786,24.2660587 106.069563,24.4615587 106.790829,24.412037 C107.436153,24.454537 108.078858,24.2956239 108.627663,23.9578413 C109.028325,23.6924935 109.265131,23.2442109 109.256153,22.7674717" id="Fill-27" fill="#025169" mask="url(#mask-6)"></path>
                <path d="M120.486656,15.1361717 C119.709649,15.1088239 118.962196,15.429237 118.451548,16.0083457 C117.883663,16.7020196 117.538742,17.5472152 117.460181,18.4363891 L123.296153,18.4363891 L123.296153,18.2105848 C123.29503,17.3761065 123.006224,16.5667587 122.476872,15.9159543 C121.96398,15.3826717 121.241217,15.097737 120.497879,15.1361717 L120.486656,15.1361717 Z M120.860757,26.6773239 C118.922915,26.6773239 117.35057,26.0741935 116.143347,24.8668239 C114.936124,23.6594543 114.332699,22.050737 114.332699,20.0403022 L114.332699,19.670737 C114.310253,18.4253022 114.580354,17.192063 115.122052,16.0674761 C115.606512,15.05265 116.373419,14.1952587 117.332987,13.5950848 C118.284325,13.0063674 119.3868,12.6999978 120.509102,12.7118239 C122.364642,12.7118239 123.799692,13.2968457 124.815001,14.4672587 C125.829937,15.6373022 126.336469,17.2929543 126.33385,19.4342152 L126.33385,20.6571065 L117.422771,20.6571065 C117.457563,21.642737 117.856728,22.5814326 118.545073,23.2961717 C119.205361,23.9443891 120.106196,24.2958457 121.036584,24.2681283 C122.387836,24.29215 123.666512,23.6649978 124.463347,22.5866065 L126.113131,24.1424761 C125.56657,24.9477587 124.812383,25.5948674 123.928383,26.0158022 C122.971433,26.46815 121.921332,26.6943239 120.860757,26.6773239 Z" id="Fill-28" fill="#025169" mask="url(#mask-6)"></path>
                <path d="M131.118412,19.8553348 C131.118412,21.2264217 131.388138,22.2948348 131.919361,23.0635304 C132.423649,23.8104217 133.284829,24.2457696 134.193894,24.2125087 C135.365577,24.2627696 136.451591,23.6082696 136.94316,22.5572261 L136.94316,16.8027261 C136.450469,15.7690522 135.374929,15.1311826 134.219706,15.1877261 C133.302412,15.1507696 132.432253,15.5909217 131.926469,16.3481609 C131.380282,17.1294217 131.107563,18.2983565 131.107563,19.8553348 L131.118412,19.8553348 Z M128.058268,19.5929435 C128.058268,17.5185739 128.546095,15.8518348 129.521001,14.5927261 C130.432685,13.3654 131.897663,12.6602696 133.437836,12.7079435 C134.771879,12.657313 136.058037,13.1998348 136.94316,14.1862043 L136.94316,7.84076957 L140.007419,7.84076957 L140.007419,26.4299 L137.231591,26.4299 L137.081577,25.033313 C136.188973,26.1194652 134.831361,26.7285087 133.415764,26.6775087 C131.885692,26.7100304 130.437174,25.9986174 129.539706,24.7746174 C128.552455,23.5029435 128.058268,21.7759652 128.058268,19.5929435 Z" id="Fill-29" fill="#025169" mask="url(#mask-6)"></path>
                <polygon id="Fill-30" fill="#025169" mask="url(#mask-6)" points="143.505036 26.4300109 146.56518 26.4300109 146.56518 12.9593587 143.505036 12.9593587"></polygon>
                <path d="M157.212273,15.7237065 C156.799266,15.6564457 156.381022,15.6231848 155.962403,15.6239239 C154.561022,15.6239239 153.615669,16.1549891 153.126719,17.21675 L153.126719,26.4300109 L150.063209,26.4300109 L150.063209,12.9593587 L152.988676,12.9593587 L153.063122,14.4671848 C153.681511,13.36625 154.864043,12.6914239 156.138604,12.71175 C156.507842,12.6991848 156.876705,12.7583152 157.223122,12.8854457 L157.212273,15.7237065 Z" id="Fill-31" fill="#025169" mask="url(#mask-6)"></path>
                <path d="M164.084204,15.1397935 C163.306449,15.1120761 162.557125,15.4324891 162.045729,16.0119674 C161.480463,16.7071196 161.136665,17.5519457 161.057729,18.4400109 L166.894075,18.4400109 L166.894075,18.2145761 C166.89183,17.3789891 166.60265,16.5685326 166.07442,15.9158804 C165.560406,15.3851848 164.838765,15.1006196 164.095427,15.1360978 L164.084204,15.1397935 Z M164.458305,26.6813152 C162.698909,26.7493152 160.989643,26.0940761 159.737528,24.8704457 C158.53255,23.6630761 157.930622,22.0543587 157.930622,20.0442935 L157.930622,19.6747283 C157.907427,18.4289239 158.177902,17.1956848 158.7196,16.0710978 C159.202938,15.0555326 159.970219,14.1977717 160.930535,13.5987065 C161.881125,13.0085109 162.984348,12.7017717 164.107024,12.7154457 C165.962564,12.7154457 167.396492,13.3004674 168.409183,14.4708804 C169.422996,15.6387065 169.931399,17.2980543 169.931399,19.437837 L169.931399,20.6574022 L161.035658,20.6574022 C161.073442,21.6422935 161.472233,22.58025 162.15796,23.2960978 C162.815255,23.9454239 163.716089,24.29725 164.645355,24.2680543 C165.998104,24.2942935 167.27865,23.6664022 168.075859,22.5865326 L169.725643,24.1460978 C169.177212,24.9499022 168.423773,25.5962717 167.540895,26.0197935 C166.579456,26.4739891 165.524118,26.7005326 164.458305,26.6813152 Z" id="Fill-32" fill="#025169" mask="url(#mask-6)"></path>
                <polygon id="Fill-33" fill="#025169" mask="url(#mask-6)" points="176.657842 20.6536696 175.296115 22.0358435 175.296115 26.4299739 172.235971 26.4299739 172.235971 7.83714783 175.296115 7.83714783 175.296115 18.3401913 176.253813 17.153887 180.024748 12.9593217 183.705899 12.9593217 178.636835 18.576713 184.248345 26.4299739 180.709353 26.4299739"></polygon>
                <path d="M189.467163,9.68508478 L189.467163,12.9594326 L191.87263,12.9594326 L191.87263,15.2026935 L189.467163,15.2026935 L189.467163,22.71965 C189.432371,23.1136065 189.541235,23.5064543 189.773551,23.8283457 C190.081062,24.0959109 190.489206,24.2211935 190.895853,24.1720413 C191.256486,24.1698239 191.615249,24.1276935 191.966155,24.0460196 L191.966155,26.3853674 C191.310357,26.5719978 190.631738,26.6691935 189.949753,26.6739978 C187.597781,26.6739978 186.421609,25.3916065 186.421609,22.8268239 L186.421609,15.2026935 L184.177004,15.2026935 L184.177004,12.9594326 L186.421609,12.9594326 L186.421609,9.68508478 L189.467163,9.68508478 Z" id="Fill-34" fill="#025169" mask="url(#mask-6)"></path>
                <path d="M196.241865,19.8333457 C196.241865,21.2203239 196.531045,22.3053674 197.109778,23.0892152 C197.664196,23.8597587 198.574383,24.3017587 199.53021,24.2644326 C200.488656,24.3013891 201.399217,23.8505196 201.94316,23.070737 C202.519275,22.2724761 202.807706,21.1083457 202.807706,19.5709543 C202.807706,18.2105848 202.512167,17.1318239 201.921088,16.333563 C201.370786,15.5582152 200.462095,15.1091935 199.504397,15.1398674 C198.561663,15.1125196 197.668311,15.5537804 197.124742,16.3150848 C196.533663,17.098563 196.241865,18.2737804 196.241865,19.8333457 Z M193.178354,19.5709543 C193.159275,18.3373457 193.430498,17.1166717 193.971447,16.00465 C194.461519,14.9909326 195.241894,14.1416717 196.216052,13.5618239 C197.216023,12.984563 198.357404,12.6903891 199.515246,12.7118239 C201.195706,12.6441935 202.826412,13.2816935 204.004455,14.4672587 C205.154066,15.6350848 205.777692,17.1872587 205.874958,19.1237804 L205.874958,19.8333457 C205.896656,21.0625196 205.631793,22.280237 205.100944,23.3922587 C204.619476,24.3993239 203.847332,25.24415 202.882153,25.8203022 C201.873203,26.406063 200.719476,26.7043022 199.549289,26.6813891 C197.626037,26.6813891 196.086239,26.0479543 194.928771,24.7818239 C193.771678,23.5153239 193.19444,21.8286283 193.196685,19.7224761 L193.178354,19.5709543 Z" id="Fill-35" fill="#025169" mask="url(#mask-6)"></path>
                <path d="M215.512092,15.7237065 C215.099085,15.6564457 214.68084,15.6231848 214.262222,15.6239239 C212.86084,15.6239239 211.915862,16.1549891 211.426912,17.21675 L211.426912,26.4300109 L208.363027,26.4300109 L208.363027,12.9593587 L211.288495,12.9593587 L211.362941,14.4671848 C211.981329,13.36625 213.163862,12.6914239 214.438423,12.71175 C214.808035,12.6988152 215.176898,12.7579457 215.522941,12.8854457 L215.512092,15.7237065 Z" id="Fill-36" fill="#025169" mask="url(#mask-6)"></path>
                <path d="M234.73335,9.68508478 L234.73335,12.9594326 L237.142184,12.9594326 L237.142184,15.2026935 L234.73335,15.2026935 L234.73335,22.71965 C234.699681,23.1139761 234.809666,23.5068239 235.043853,23.8283457 C235.350616,24.0962804 235.759508,24.221563 236.166155,24.1720413 C236.526414,24.1694543 236.885177,24.1273239 237.235709,24.0460196 L237.235709,26.3853674 C236.580285,26.5719978 235.90204,26.6691935 235.219681,26.6739978 C232.865465,26.6739978 231.689292,25.3916065 231.691911,22.8268239 L231.691911,15.2026935 L229.447306,15.2026935 L229.447306,12.9594326 L231.691911,12.9594326 L231.691911,9.68508478 L234.73335,9.68508478 Z" id="Fill-37" fill="#025169" mask="url(#mask-6)"></path>
                <path d="M245.01345,15.1397935 C244.236443,15.1109674 243.488242,15.43175 242.978717,16.0119674 C242.412328,16.70675 242.067407,17.5515761 241.986976,18.4400109 L247.827062,18.4400109 L247.827062,18.2145761 C247.824817,17.3789891 247.535637,16.5685326 247.007407,15.9158804 C246.493019,15.3829674 245.769134,15.0984022 245.024673,15.1360978 L245.01345,15.1397935 Z M245.387551,26.6813152 C243.449709,26.6813152 241.877364,26.0778152 240.670515,24.8704457 C239.463292,23.6630761 238.855753,22.0543587 238.848645,20.0442935 L238.848645,19.6747283 C238.82545,18.4289239 239.095925,17.1956848 239.637623,16.0710978 C240.120961,15.0555326 240.888242,14.1977717 241.848558,13.5987065 C242.799148,13.0085109 243.901997,12.7017717 245.024673,12.7154457 C246.880213,12.7154457 248.315637,13.3004674 249.330573,14.4708804 C250.340645,15.6387065 250.849796,17.2980543 250.849796,19.437837 L250.849796,20.6574022 L241.94994,20.6574022 C241.984357,21.6430326 242.383896,22.5817283 243.072242,23.2960978 C243.735896,23.9502283 244.645709,24.3009457 245.582458,24.2643587 C246.934083,24.2905978 248.213508,23.6627065 249.00922,22.582837 L250.65863,24.1424022 C250.110947,24.9469457 249.357134,25.5933152 248.473882,26.0160978 C247.511695,26.4721413 246.45486,26.6997935 245.387551,26.6813152 Z" id="Fill-38" fill="#025169" mask="url(#mask-6)"></path>
                <path d="M257.370072,9.68508478 L257.370072,12.9594326 L259.797986,12.9594326 L259.797986,15.2026935 L257.388777,15.2026935 L257.388777,22.71965 C257.353237,23.1139761 257.463597,23.5079326 257.699281,23.8283457 C258.000806,24.090737 258.399971,24.21565 258.799137,24.1720413 C259.160518,24.1698239 259.520777,24.1276935 259.872806,24.0460196 L259.872806,26.3853674 C259.217007,26.5716283 258.538763,26.6688239 257.856403,26.6739978 C255.504806,26.6739978 254.327137,25.3916065 254.324892,22.8268239 L254.324892,15.2026935 L252.080288,15.2026935 L252.080288,12.9594326 L254.324892,12.9594326 L254.324892,9.68508478 L257.370072,9.68508478 Z" id="Fill-39" fill="#025169" mask="url(#mask-6)"></path>
                <path d="M145.035033,7.8372587 C145.983378,7.8372587 146.752155,8.59671522 146.752155,9.53356304 C146.752155,10.4704109 145.983378,11.2298674 145.035033,11.2298674 C144.086688,11.2298674 143.317911,10.4704109 143.317911,9.53356304 C143.317911,8.59671522 144.086688,7.8372587 145.035033,7.8372587" id="Fill-40" fill="#025169" mask="url(#mask-6)"></path>
                <path d="M221.77061,24.2497239 C222.367675,24.2500935 222.955013,24.1004196 223.476883,23.8132674 C223.985286,23.5479196 224.404279,23.1402891 224.681114,22.6417457 L224.681114,20.1028326 L223.031329,20.1028326 C221.894063,20.1028326 221.041114,20.297963 220.472481,20.6867457 C219.913574,21.0533543 219.589229,21.6808761 219.61579,22.3427674 C219.592222,22.8686587 219.805833,23.37755 220.199387,23.7323326 C220.640452,24.0933978 221.202351,24.2781804 221.774351,24.2497239 L221.77061,24.2497239 Z M225.137517,26.426463 C224.960941,26.0258543 224.842725,25.6027022 224.786236,25.1695717 C222.913862,27.038463 219.907963,27.1892457 217.853776,25.5173326 C217.011675,24.8003761 216.536193,23.7508109 216.55602,22.6532022 C216.489804,21.3508543 217.100711,20.1054196 218.175876,19.3489196 C219.253286,18.5802239 220.796452,18.1962457 222.807243,18.1962457 L224.677747,18.1962457 L224.677747,17.3126152 C224.708049,16.7002457 224.495934,16.0997022 224.086294,15.6388543 C223.602581,15.186137 222.947531,14.9577457 222.283128,15.0105935 C221.668855,14.9832457 221.06356,15.1658109 220.569747,15.5276152 C220.14402,15.8317674 219.894121,16.3210717 219.900106,16.8399413 L216.97838,16.8399413 C216.985488,16.0852891 217.249229,15.3553978 217.726581,14.7666804 C218.199819,14.1044196 218.846639,13.5822239 219.597085,13.2551587 C220.500164,12.8789413 221.471704,12.6915717 222.451473,12.7045065 C224.047761,12.7045065 225.320826,13.10105 226.271042,13.894137 C227.221258,14.6875935 227.708711,15.8025717 227.733776,17.2390717 L227.733776,23.3147239 C227.694869,24.3753761 227.870322,25.4334413 228.250035,26.426463 L225.122553,26.426463 L225.137517,26.426463 Z" id="Fill-41" fill="#025169" mask="url(#mask-6)"></path>
            </g>
        </g>
    </g>
</svg>
