<?xml version="1.0" encoding="utf-8"?><svg xmlns="http://www.w3.org/2000/svg" xmlns:xlink="http://www.w3.org/1999/xlink"><symbol viewBox="0 0 1024 1024" id="alert" xmlns="http://www.w3.org/2000/svg"><path d="M469.333 640h85.333v85.333h-85.333zm0-341.333h85.333v256h-85.333zm42.24-213.334c-235.458.243-426.24 191.175-426.24 426.666 0 235.641 191.025 426.667 426.667 426.667s426.667-191.025 426.667-426.667v-.214c0-235.524-190.93-426.453-426.453-426.453l-.675.001h.035zm.427 768c-188.513 0-341.333-152.82-341.333-341.333S323.487 170.667 512 170.667c188.513 0 341.333 152.82 341.333 341.333 0 188.513-152.82 341.333-341.333 341.333z"/></symbol><symbol viewBox="0 0 1024 1024" id="anchor" xmlns="http://www.w3.org/2000/svg"><path d="M828.281.001H199.252c-91.429 0-164.571 73.143-164.571 164.571v694.857c0 91.429 76.8 164.571 164.571 164.571h625.371c91.429 0 164.571-73.143 164.571-164.571V164.572C992.851 73.143 916.051.001 828.28.001zM638.11 636.344c-10.971 25.6-25.6 51.2-43.886 69.486l-98.743 98.743c-76.8 76.8-201.143 76.8-277.943 0-73.143-76.8-73.143-197.486 3.657-270.629l106.057-106.057h3.657v3.657c0 25.6 0 47.543 3.657 73.143v10.971l-65.829 65.829c-51.2 51.2-51.2 131.657 0 182.857 3.657 3.657 7.314 7.314 10.971 7.314 51.2 40.229 128 36.571 175.543-10.971l95.086-102.4c3.657-3.657 7.314-10.971 10.971-14.629 14.629-18.286 21.943-40.229 25.6-65.829 7.314-62.171-32.914-117.029-91.429-135.314-3.657-18.286 3.657-40.229 18.286-54.857 3.657-3.657 7.314-3.657 10.971-3.657 73.143 25.6 120.686 95.086 124.343 171.886 0 29.257-3.657 54.857-10.971 80.457zm171.886-146.286L703.939 596.115h-3.657v-3.657c0-25.6 0-47.543-3.657-73.143 0-3.657 0-7.314 3.657-10.971l65.829-65.829c51.2-51.2 51.2-131.657 0-182.857-3.657-3.657-7.314-7.314-10.971-7.314-51.2-40.229-128-36.571-175.543 10.971l-98.743 102.4c-3.657 3.657-7.314 10.971-10.971 14.629-14.629 18.286-21.943 40.229-25.6 65.829-7.314 62.171 32.914 117.029 91.429 135.314 3.657 21.943-7.314 40.229-21.943 54.857-3.657 3.657-7.314 3.657-10.971 3.657-73.143-25.6-120.686-95.086-124.343-171.886-3.657-54.857 18.286-109.714 54.857-146.286l98.743-98.743c76.8-76.8 201.143-76.8 277.943 0 73.143 73.143 73.143 193.829 0 266.971z"/></symbol><symbol viewBox="0 0 1024 1024" id="arrow" xmlns="http://www.w3.org/2000/svg"><path d="M508.166 812.105L17.259 309.693c-23.011-23.011-23.011-57.528 0-80.539s57.528-23.011 80.539 0l406.531 418.037 421.873-418.037c23.011-23.011 57.528-23.011 80.539 0s23.011 57.528 0 80.539L508.165 812.105z"/></symbol><symbol viewBox="0 0 1024 1024" id="arrow--long" xmlns="http://www.w3.org/2000/svg"><path d="M465.454 41.89v865.746L256 698.182c-18.618-18.618-46.546-18.618-65.164 0s-18.618 46.546 0 65.164L409.6 982.11c55.854 55.854 148.946 55.854 204.8 0l218.764-218.764c18.618-18.618 18.618-46.546 0-65.164s-46.546-18.618-65.164 0L558.546 907.636V46.546C558.546 18.618 539.928 0 512 0s-46.546 18.618-46.546 41.89z"/></symbol><symbol viewBox="0 0 1024 1024" id="article" xmlns="http://www.w3.org/2000/svg"><path d="M911.895 0H108.758c-20.078 0-36.81 16.732-36.81 36.81v947.033c0 20.078 16.732 40.157 36.81 40.157h592.314V796.444a29.993 29.993 0 0130.118-30.118h220.863V36.81c0-20.078-20.078-36.81-40.157-36.81zM557.176 147.242h220.863c16.732 0 30.118 13.386 30.118 30.118s-13.386 30.118-30.118 30.118H557.176c-16.732 0-30.118-13.386-30.118-30.118s13.386-30.118 30.118-30.118zm0 117.124h220.863c16.732 0 30.118 13.386 30.118 30.118s-13.386 30.118-30.118 30.118H557.176c-16.732 0-30.118-13.386-30.118-30.118s13.386-30.118 30.118-30.118zm-341.333-70.274c0-26.771 20.078-46.85 46.85-46.85h163.974c26.771 0 46.85 20.078 46.85 46.85v190.745c0 26.771-20.078 46.85-46.85 46.85H262.693c-26.771 0-46.85-20.078-46.85-46.85V194.092zm311.216 622.431H245.961c-16.732 0-30.118-13.386-30.118-30.118s13.386-30.118 30.118-30.118h281.098c16.732 0 30.118 13.386 30.118 30.118s-13.386 30.118-30.118 30.118zm250.98-133.856H242.614c-16.732 0-30.118-13.386-30.118-30.118s13.386-30.118 30.118-30.118h535.425c16.732 0 30.118 13.386 30.118 30.118s-13.386 30.118-30.118 30.118zm0-123.817H242.614c-16.732 0-30.118-13.386-30.118-30.118s13.386-30.118 30.118-30.118h535.425c16.732 0 30.118 13.386 30.118 30.118s-13.386 30.118-30.118 30.118zm0-117.125H553.83c-16.732 0-30.118-13.386-30.118-30.118s13.386-30.118 30.118-30.118h224.209c16.732 0 30.118 13.386 30.118 30.118s-13.386 30.118-30.118 30.118z"/><path d="M761.307 1010.614l177.359-184.052H761.307z"/></symbol><symbol viewBox="0 0 1024 1024" id="calendar" xmlns="http://www.w3.org/2000/svg"><path d="M358.22 460.798H256.011v102.404H358.22zm204.808 0H460.819v102.404h102.404zm204.807 0H665.626v102.404H768.03zm102.404-358.394h-51.027V0H716.808v102.404H307.193V0H204.789v102.404h-51.183c-56.283.022-101.9 45.652-101.9 101.937l.001.492v-.025l-.505 716.788v.038c0 56.535 45.831 102.365 102.365 102.365h716.827c56.486-.176 102.227-45.918 102.404-102.387V204.807c-.176-56.486-45.918-102.227-102.387-102.404h-.017zm0 819.192H153.607V358.394h716.788z"/></symbol><symbol viewBox="0 0 1024 1024" id="changelog" xmlns="http://www.w3.org/2000/svg"><path d="M70.732 50.134l10.264 107.769c195.01-205.274 523.448-210.406 723.59-15.396s210.406 523.448 15.396 723.59c-195.01 205.274-523.448 210.406-723.59 15.396-25.659-25.659-51.318-56.45-71.846-87.241-20.527-25.659-10.264-61.582 15.396-76.978 25.659-15.396 61.582-10.264 76.978 15.396 123.164 184.746 369.493 236.065 554.239 112.901S907.224 476.078 784.06 291.332 414.567 55.267 229.821 178.431c-20.527 15.396-46.187 35.923-61.582 56.45l112.901-10.264-71.846 87.241-195.01 15.396-15.396-189.878 71.846-87.241zm569.635 595.294c25.659 20.527 30.791 56.45 10.264 82.109-20.527 25.659-56.45 30.791-82.109 10.264L414.567 619.769c-15.396-10.264-20.527-25.659-20.527-46.187V301.594c0-30.791 20.527-56.45 51.318-61.582 30.791 0 56.45 20.527 61.582 51.318v251.46l133.428 102.637z"/></symbol><symbol viewBox="0 0 1024 1024" id="clock" xmlns="http://www.w3.org/2000/svg"><path d="M511.488.001C228.939.293 0 229.411 0 512c0 282.769 229.23 512 512 512s512-229.23 512-512S794.77 0 512 0h-.54.028zM512 921.6c-226.215 0-409.599-183.384-409.599-409.599S285.785 102.402 512 102.402s409.599 183.384 409.599 409.599S738.215 921.6 512 921.6z"/><path d="M537.6 256.002h-76.8v307.2l268.8 161.28 38.4-62.976-230.4-136.704z"/></symbol><symbol viewBox="0 0 1407 1024" id="contact" xmlns="http://www.w3.org/2000/svg"><path d="M1310.492 883.423c0 26.802-21.728 48.53-48.53 48.53H145.591c-26.802 0-48.53-21.728-48.53-48.53V145.434c0-26.802 21.728-48.53 48.53-48.53h1111.53c26.802 0 48.53 21.728 48.53 48.53v737.989zm97.06 0V145.434c-.234-80.325-65.27-145.382-145.565-145.65H145.59C66.001 1.837 2.019 65.839.003 145.244l-.004.19v733.089c.134 80.401 65.208 145.559 145.565 145.827h1111.497c2.224.123 4.826.194 7.445.194 76.555 0 139.082-60.061 143.031-135.632l.015-.352v-5.136z"/><path d="M1281.386 63.133L810.549 533.97c-27.475 26.997-65.177 43.663-106.772 43.663s-79.298-16.666-106.794-43.685L131.068 67.974l-67.954 67.954 465.937 465.996c44.599 44.948 106.399 72.772 174.697 72.772 67.594 0 128.822-27.253 173.296-71.371l-.016.016 1.476-1.417 470.778-470.837zM131.067 994.83l378.559-378.618-67.954-67.954L63.113 926.876zm1237.638-82.301L990.146 533.97l-67.954 67.954 378.559 378.559z"/></symbol><symbol viewBox="0 0 512 512" id="facebook" xmlns="http://www.w3.org/2000/svg"><path d="M464 0H48C21.6 0 0 21.6 0 48v416c0 26.4 21.6 48 48 48h208V288h-64v-64h64v-32c0-52.9 43.1-96 96-96h64v64h-64c-17.6 0-32 14.4-32 32v32h96l-16 64h-80v224h144c26.4 0 48-21.6 48-48V48c0-26.4-21.6-48-48-48z"/></symbol><symbol viewBox="0 0 1024 1024" id="filter" xmlns="http://www.w3.org/2000/svg"><path d="M960 416H780.8c-32 0-12.8-25.6-12.8-64s-19.2-64 12.8-64H960c38.4 0 64 25.6 64 64s-25.6 64-64 64zM569.6 416H64c-38.4 0-64-25.6-64-64s25.6-64 64-64h505.6c32 0 6.4 25.6 6.4 64s25.6 64-6.4 64z"/><path d="M672 480c-70.4 0-128-57.6-128-128s57.6-128 128-128 128 57.6 128 128-57.6 128-128 128zm0-192c-38.4 0-64 25.6-64 64s25.6 64 64 64 64-25.6 64-64-25.6-64-64-64zM64 608h179.2c38.4 0 12.8 25.6 12.8 64s19.2 64-12.8 64H64c-38.4 0-64-32-64-64 0-38.4 25.6-64 64-64zM460.8 608H960c38.4 0 64 25.6 64 64s-25.6 64-64 64H460.8c-38.4 0-12.8-25.6-12.8-64s-25.6-64 12.8-64z"/><path d="M352 544c70.4 0 128 57.6 128 128s-57.6 128-128 128-128-57.6-128-128 57.6-128 128-128zm0 192c38.4 0 64-25.6 64-64s-25.6-64-64-64-64 25.6-64 64 32 64 64 64z"/></symbol><symbol viewBox="0 0 1024 1024" id="form" xmlns="http://www.w3.org/2000/svg"><path d="M691.294 81.709h-88.98c-9.788 0-17.796-6.229-19.575-16.017-8.898-44.49-51.607-72.963-95.207-64.065-32.032 6.229-57.836 32.032-64.065 64.065-1.779 8.898-9.788 16.017-19.575 16.017h-71.184c-11.567 0-21.355 9.788-21.355 21.355v81.861c0 11.567 9.788 21.355 21.355 21.355h358.586c11.567 0 21.355-9.788 21.355-21.355v-81.861c0-11.567-9.788-21.355-21.355-21.355z"/><path d="M855.904 145.773h-92.538v39.151c0 39.151-32.032 71.184-72.073 72.073H332.707c-39.151 0-72.073-32.032-72.073-72.073v-39.151h-92.538c-17.796 0-32.923 15.127-32.923 32.923v812.381c0 17.796 15.127 32.923 32.923 32.923h687.809c17.796 0 32.923-14.236 32.923-32.923V178.696c0-18.686-15.127-32.923-32.923-32.923zM501.768 828.244H283.769c-14.236.89-25.804-9.788-26.694-24.025s9.788-25.804 24.025-26.694h220.668c14.236.89 24.913 12.457 24.025 26.694-.89 13.346-11.567 24.025-24.025 24.025zm238.464-123.682H283.768c-14.236.89-25.804-9.788-26.694-24.025s9.788-25.804 24.025-26.694h458.243c14.236.89 24.913 12.457 24.025 26.694 0 13.346-10.677 23.134-23.134 24.025zm0-123.68H283.768c-14.236.89-25.804-9.788-26.694-24.025s9.788-25.804 24.025-26.694h458.243c14.236.89 24.913 12.457 24.025 26.694 0 13.346-10.677 23.134-23.134 24.025zm0-123.682H283.768c-14.236.89-25.804-9.788-26.694-24.025s9.788-25.804 24.025-26.694h458.243c14.236.89 24.913 12.457 24.025 26.694 0 12.457-10.677 23.134-23.134 24.025z"/></symbol><symbol viewBox="0 0 1024 1024" id="guide" xmlns="http://www.w3.org/2000/svg"><path d="M777.886-1.562H160.781c-20.813 0-36.422 16.65-36.422 37.463v70.764h58.277c31.22 0 56.196 24.976 56.196 55.155s-24.976 55.155-56.196 55.155h-58.277v63.479h58.277c31.22 0 56.196 24.976 56.196 55.155s-24.976 55.155-56.196 55.155h-58.277v63.479h58.277c31.22 0 56.196 24.976 56.196 55.155s-24.976 56.196-56.196 56.196h-58.277v63.479h58.277c31.22 0 56.196 24.976 56.196 55.155s-24.976 55.155-56.196 55.155h-58.277v63.479h58.277c31.22 0 56.196 24.976 56.196 56.196s-24.976 55.155-56.196 55.155h-58.277v71.805c0 20.813 16.65 36.422 36.422 36.422h617.105c20.813 0 36.422-16.65 36.422-36.422V34.864c0-19.772-15.609-36.422-36.422-36.422zM611.382 432.39c0 26.016-20.813 46.829-46.829 46.829H402.212c-26.016 0-45.789-20.813-45.789-46.829V242.991c0-26.016 20.813-46.829 45.789-46.829h163.382c26.016 0 46.829 20.813 46.829 46.829V432.39zM921.496 78.569H847.61v185.236h73.886c15.609 0 29.137-12.487 29.137-29.137v-126.96c0-15.609-12.487-29.137-29.137-29.137zM921.496 305.432H847.61v185.236h73.886c15.609 0 29.137-12.487 29.137-29.137v-126.96c0-15.609-13.528-29.137-29.137-29.137zM921.496 533.334H847.61V718.57h73.886c15.609 0 29.137-12.487 29.137-29.137V561.432c0-15.609-12.487-28.098-29.137-28.098zM921.496 760.195H847.61v185.236h73.886c15.609 0 29.137-12.487 29.137-29.137v-126.96c0-16.65-12.487-29.137-29.137-29.137z"/><path d="M66.082 176.39h116.553c7.285 0 13.528-6.244 13.528-13.528s-6.244-13.528-13.528-13.528H66.082c-7.285 0-13.528 6.244-13.528 13.528s6.244 13.528 13.528 13.528zM66.082 350.178h116.553c7.285 0 13.528-6.244 13.528-13.528s-6.244-13.528-13.528-13.528H66.082c-7.285 0-13.528 6.244-13.528 13.528s6.244 13.528 13.528 13.528zM66.082 525.008h116.553c7.285 0 13.528-6.244 13.528-13.528s-6.244-13.528-13.528-13.528H66.082c-7.285 0-13.528 6.244-13.528 13.528s6.244 13.528 13.528 13.528zM66.082 699.837h116.553c7.285 0 13.528-6.244 13.528-13.528s-6.244-13.528-13.528-13.528H66.082c-7.285 0-13.528 6.244-13.528 13.528s6.244 13.528 13.528 13.528zM182.633 874.667c7.285 0 13.528-6.244 13.528-13.528s-6.244-13.528-13.528-13.528H66.08c-7.285 0-13.528 6.244-13.528 13.528s6.244 13.528 13.528 13.528h116.553z"/></symbol><symbol viewBox="0 0 1024 1024" id="info-round" xmlns="http://www.w3.org/2000/svg"><path d="M507.755 440.018c-20.95 0-37.933 16.983-37.933 37.933v193.637c0 20.95 16.983 37.933 37.933 37.933s37.933-16.983 37.933-37.933V477.951c0-20.95-16.983-37.933-37.933-37.933zM507.755 314.66c-25.638 0-46.422 20.784-46.422 46.422s20.784 46.422 46.422 46.422c25.575 0 46.319-20.681 46.422-46.232v-.01-.181c0-25.539-20.703-46.242-46.242-46.242h-.191.01z"/><path d="M507.755 873.353c-199.52 0-361.263-161.743-361.263-361.263s161.743-361.263 361.263-361.263c199.52 0 361.263 161.743 361.263 361.263 0 199.52-161.743 361.263-361.263 361.263zm0-648.286c-158.519 0-287.023 128.505-287.023 287.023s128.505 287.023 287.023 287.023c158.519 0 287.023-128.505 287.023-287.023-.205-158.436-128.587-286.818-287.004-287.023h-.02z"/></symbol><symbol viewBox="0 0 1024 1024" id="information" xmlns="http://www.w3.org/2000/svg"><path d="M512 167.903c-114.007 0-207.287 92.243-207.287 206.25s92.243 206.25 206.25 206.25 206.25-92.243 206.25-206.25c1.037-114.007-92.243-206.25-205.215-206.25zm26.948 321.296c0 15.546-12.437 26.947-26.947 26.947-15.546 0-26.947-12.437-26.947-26.947V350.317c0-15.546 12.437-26.947 26.947-26.947 15.546 0 26.947 12.437 26.947 26.947v138.882zM510.964 299.53c-18.657 0-33.166-14.511-33.166-33.166s14.511-33.166 33.166-33.166c18.657 0 33.166 14.511 33.166 33.166 1.037 17.62-14.511 33.166-33.166 33.166z"/><path d="M512 0C304.713 0 136.809 167.903 136.809 375.191 136.809 742.09 512 1024 512 1024s375.191-281.911 375.191-648.809C886.154 167.904 718.252 0 512 0zm0 634.3c-143.028 0-260.145-117.118-260.145-260.145S368.973 114.01 512 114.01s259.11 117.118 259.11 260.145C771.11 518.22 655.029 634.3 512 634.3z"/></symbol><symbol viewBox="0 0 512 512" id="instagram" xmlns="http://www.w3.org/2000/svg"><path d="M256 46.1c68.4 0 76.5.3 103.4 1.5 25 1.1 38.5 5.3 47.5 8.8 11.9 4.6 20.5 10.2 29.4 19.1 9 9 14.5 17.5 19.2 29.4 3.5 9 7.7 22.6 8.8 47.5 1.2 27 1.5 35.1 1.5 103.4s-.3 76.5-1.5 103.4c-1.1 25-5.3 38.5-8.8 47.5-4.6 11.9-10.2 20.5-19.1 29.4-9 9-17.5 14.5-29.4 19.2-9 3.5-22.6 7.7-47.5 8.8-27 1.2-35.1 1.5-103.4 1.5s-76.5-.3-103.4-1.5c-25-1.1-38.5-5.3-47.5-8.8-11.9-4.6-20.5-10.2-29.4-19.1-9-9-14.5-17.5-19.2-29.4-3.5-9-7.7-22.6-8.8-47.5-1.2-27-1.5-35.1-1.5-103.4s.3-76.5 1.5-103.4c1.1-25 5.3-38.5 8.8-47.5 4.6-11.9 10.2-20.5 19.1-29.4 9-9 17.5-14.5 29.4-19.2 9-3.5 22.6-7.7 47.5-8.8 26.9-1.2 35-1.5 103.4-1.5zM256 0c-69.5 0-78.2.3-105.5 1.5-27.2 1.2-45.9 5.6-62.1 11.9C71.5 20 57.2 28.7 43 43 28.7 57.2 20 71.5 13.4 88.3c-6.3 16.3-10.7 34.9-11.9 62.1C.3 177.8 0 186.5 0 256s.3 78.2 1.5 105.5c1.2 27.2 5.6 45.9 11.9 62.1C20 440.5 28.7 454.8 43 469c14.2 14.2 28.5 23 45.3 29.5 16.3 6.3 34.9 10.7 62.1 11.9 27.3 1.2 36 1.5 105.5 1.5s78.2-.3 105.5-1.5c27.2-1.2 45.9-5.6 62.1-11.9 16.8-6.5 31.1-15.3 45.3-29.5s23-28.5 29.5-45.3c6.3-16.3 10.7-34.9 11.9-62.1 1.2-27.3 1.5-36 1.5-105.5s-.3-78.2-1.5-105.5c-1.2-27.2-5.6-45.9-11.9-62.1-6.3-17-15-31.3-29.3-45.5-14.2-14.2-28.5-23-45.3-29.5-16.3-6.3-34.9-10.7-62.1-11.9C334.2.3 325.5 0 256 0z"/><path d="M256 124.5c-72.6 0-131.5 58.9-131.5 131.5S183.4 387.5 256 387.5 387.5 328.6 387.5 256 328.6 124.5 256 124.5zm0 216.8c-47.1 0-85.3-38.2-85.3-85.3s38.2-85.3 85.3-85.3c47.1 0 85.3 38.2 85.3 85.3s-38.2 85.3-85.3 85.3zM423.4 119.3c0 16.955-13.745 30.7-30.7 30.7S362 136.255 362 119.3s13.745-30.7 30.7-30.7 30.7 13.745 30.7 30.7z"/></symbol><symbol viewBox="0 0 3175 1024" id="logo-en" xmlns="http://www.w3.org/2000/svg"><path d="M713.81 204.302c-2.491 26.161-25.538 45.47-51.698 42.978s-45.47-25.538-42.978-51.698c2.491-26.161 25.538-45.47 51.698-42.978s44.847 25.538 42.978 51.698zm9.966-62.91c-72.253-72.876-218.005-89.693-500.165 32.389l-4.983 2.491c-7.474 4.983-12.457 13.08-12.457 22.423-.623 14.326 10.589 26.161 24.915 26.161h1.246c4.36-.623 8.72-1.869 12.457-3.737 41.732-14.949 245.411-70.384 353.168 26.783 3.737 3.114 6.852 5.606 9.966 8.72s6.229 6.229 8.72 9.966c96.545 107.757 41.109 312.058 25.538 353.168-1.869 3.737-3.114 8.097-3.737 12.457-.623 14.326 10.589 26.161 24.915 26.161h1.246c9.343 0 17.44-4.983 22.423-12.457 1.246-1.869 1.869-3.737 2.491-5.606 122.706-281.538 106.511-426.667 34.258-498.92zM863.922 67.27c-3.114 33.635-33.012 59.173-66.647 56.058s-59.173-33.012-56.058-66.647c3.114-33.635 33.012-59.173 66.647-56.058 33.635 2.491 59.173 32.389 56.058 66.647z"/><path d="M583.007 318.91c-1.869 18.063-17.44 31.144-34.881 29.275s-31.144-17.44-29.275-34.881c1.869-18.063 17.44-31.144 34.881-29.275 17.44 1.246 30.521 16.818 29.275 34.881zM492.068 400.506c-1.246 13.08-13.08 23.046-26.161 22.423-13.08-1.246-23.046-13.08-22.423-26.161 1.246-13.08 13.08-23.046 26.161-22.423 13.703 1.246 23.669 13.08 22.423 26.161zM0 766.131h3175.397v3.737H0v-3.737zM1367.825 143.883h-39.241c-12.457.623-22.423 11.212-21.8 23.669v312.681l-242.297-328.876c-9.966-13.703-17.44-14.949-26.161-14.949h-4.983c-12.457.623-21.8 10.589-21.8 23.046v485.839c-.623 12.457 9.343 23.046 21.8 23.669h38.618c12.457-.623 22.423-11.212 21.8-23.669V323.269l242.92 338.842c9.343 13.08 17.44 14.326 26.161 14.326h5.606c12.457-.623 21.8-10.589 21.8-23.046V167.552c0-12.457-9.966-23.046-22.423-23.669zM1544.097 143.883h-40.487c-12.457.623-21.8 11.212-21.8 23.669v477.742c-.623 12.457 9.343 23.046 21.8 23.669h40.487c12.457-.623 21.8-11.212 21.8-23.669V167.552c.623-12.457-9.343-23.046-21.8-23.669zM1824.389 143.883H1683.62c-12.457.623-22.423 11.212-21.8 23.669v477.742c-.623 12.457 9.343 23.046 21.8 23.669h39.864c12.457-.623 21.8-11.212 21.8-23.669V485.839h79.727c81.596 0 147.62-77.236 147.62-172.535-.623-93.431-66.647-169.421-148.243-169.421zm64.156 168.798c0 46.092-28.652 82.219-66.024 82.219h-77.859V236.068h77.859c37.372 0 66.024 33.635 66.024 76.613zM2375.007 143.883h-40.487c-12.457.623-22.423 11.212-21.8 23.669v191.221h-205.547V167.552c.623-12.457-9.343-23.046-21.8-23.669h-40.487c-12.457.623-21.8 11.212-21.8 23.669v477.742c-.623 12.457 9.343 23.046 21.8 23.669h40.487c12.457-.623 22.423-11.212 21.8-23.669V446.598h205.547v198.696c-.623 12.457 9.343 23.046 21.8 23.669h40.487c12.457-.623 21.8-11.212 21.8-23.669V167.552c0-12.457-9.343-23.046-21.8-23.669zM.623 840.253c0-1.869 1.869-3.737 3.737-3.737h1.869c2.491-.623 4.983.623 6.229 3.114l84.71 98.414h.623v-95.299c0-1.869 1.869-3.737 3.737-3.737h13.08c1.869 0 3.737 1.869 3.737 3.737v135.163c0 1.869-1.869 3.737-3.737 3.737h-2.491c-2.491 0-4.36-.623-5.606-2.491L21.178 877.626v98.414c0 1.869-1.869 3.737-3.737 3.737H4.984c-1.869 0-3.737-1.869-3.737-3.737L.624 840.254zM191.844 884.477c26.783-.623 49.207 20.555 49.83 47.338s-20.555 49.207-47.338 49.83c-26.783.623-49.207-20.555-49.83-47.338v-1.246a48.397 48.397 0 0147.338-48.584zm0 78.482c16.195 1.246 30.521-11.212 31.144-28.029 1.246-16.195-11.212-30.521-28.029-31.144-16.195-1.246-30.521 11.212-31.144 28.029v1.246c-.623 15.572 11.212 28.652 26.783 29.898h1.246zM261.606 890.706c0-2.491 1.869-4.36 4.36-4.36h4.983c1.869 0 3.737 1.246 4.36 3.114l1.869 8.72c6.852-8.72 17.44-13.703 28.029-13.703 8.72 0 19.932 2.491 16.818 8.72l-4.36 9.966c-.623 1.869-3.114 3.114-4.983 2.491h-.623c-2.491-1.246-5.606-1.869-8.097-1.869-8.72 0-17.44 4.983-21.8 12.457v59.173c0 3.737-2.491 4.36-6.229 4.36h-9.343c-2.491 0-4.36-1.869-4.36-4.36l-.623-84.71zM332.613 891.951c-1.246-1.246-.623-3.737.623-4.36.623-.623 1.869-.623 2.491-.623h12.457c1.869 0 3.737 1.246 3.737 2.491l15.572 53.567h.623l24.915-56.058c.623-1.246 2.491-2.491 3.737-2.491h1.869c1.869 0 3.114.623 4.36 2.491l24.915 56.058h.623l14.949-53.567c1.246-2.491 4.983-2.491 6.852-2.491h8.72c3.114 0 4.983 2.491 3.737 4.983l-26.783 87.202c-.623 1.869-2.491 2.491-4.36 2.491h-.623c-1.869 0-3.114-.623-3.737-2.491l-28.652-63.533h-.623l-28.652 63.533c-.623 1.246-1.869 2.491-3.737 2.491h-1.246c-1.869 0-3.114-.623-3.737-2.491l-28.029-87.202zM524.457 884.477c23.046-.623 41.732 17.44 42.355 40.487v2.491c0 1.869 0 4.36-.623 6.229 0 2.491-1.869 3.737-4.36 3.737h-63.533c1.246 14.326 13.08 25.538 28.029 25.538 8.097 0 16.195-2.491 23.046-8.097 1.869-1.246 3.737-1.869 5.606.623l5.606 8.72c1.869 1.869 2.491 3.737-.623 6.229-9.966 7.474-21.8 11.835-34.258 11.212-28.029 0-46.715-22.423-46.715-48.584s17.44-48.584 45.47-48.584zm22.424 38.618c-.623-11.835-10.589-21.8-23.046-21.178-12.457-.623-23.669 8.72-24.915 21.178h47.961zM671.455 980.399c0 29.275-18.686 43.601-42.978 43.601-11.835 0-23.046-4.36-32.389-11.835-1.246-1.246-1.869-3.737-1.246-4.983l4.983-8.72c.623-1.869 3.114-3.114 4.983-1.869.623 0 .623.623 1.246.623 6.229 5.606 13.703 8.097 21.8 8.72 12.457 0 23.046-6.229 23.046-24.915v-4.983c-7.474 4.36-15.572 6.229-23.669 6.852-25.538 0-44.847-21.8-44.847-48.584s18.686-48.584 44.224-48.584c10.589 0 21.178 3.737 29.275 11.212l2.491-5.606c.623-1.869 1.246-3.114 3.737-3.114h5.606c2.491 0 4.36 1.869 4.36 4.36v87.825zm-41.732-17.44c8.097 0 15.572-2.491 21.8-7.474v-38.618c-4.983-8.097-13.08-13.08-22.423-13.08-16.195 0-26.161 13.703-26.161 29.275-.623 15.572 11.212 28.652 26.783 29.898zM696.37 852.71c0-7.474 5.606-13.703 13.08-13.703 7.474-.623 14.326 4.983 14.326 12.457.623 7.474-4.983 14.326-12.457 14.326h-1.869c-6.852.623-13.08-4.983-13.08-13.08 0 .623 0 .623 0 0zm3.737 37.996c0-2.491 1.869-4.36 4.36-4.36h11.212c2.491 0 4.36 1.869 4.36 4.36v84.088c0 2.491-1.869 4.36-4.36 4.36h-11.212c-2.491 0-4.36-1.869-4.36-4.36v-84.088zM778.589 920.603c6.229 0 12.457 1.246 18.686 3.114.623-14.949-3.114-21.178-14.949-21.178-8.72 0-17.44 1.869-26.161 4.36-2.491.623-4.36-1.246-4.983-3.114v-.623l-1.869-7.474c-.623-1.869.623-4.36 2.491-5.606h.623c10.589-3.737 21.178-5.606 31.766-5.606 29.898 0 33.012 18.063 33.012 41.109v49.83c0 2.491-1.869 4.36-4.36 4.36h-6.852c-1.869 0-3.114-.623-3.737-3.114l-2.491-6.229c-7.474 7.474-18.063 11.835-28.652 11.835-15.572.623-29.275-11.212-29.898-27.406v-3.737c0-17.44 13.08-30.521 37.372-30.521zm-3.115 44.847c8.72-.623 16.195-4.36 21.8-11.212v-15.572c-5.606-2.491-11.212-3.114-16.818-3.114-11.212 0-19.309 5.606-19.309 14.949-.623 7.474 4.983 13.703 12.457 14.326.623.623 1.246.623 1.869.623zM844.613 890.706c0-2.491 1.869-4.36 4.36-4.36h4.983c1.869 0 3.737 1.246 3.737 2.491l3.114 8.097c8.097-8.72 19.309-13.08 31.144-13.08 28.652 0 36.127 19.932 36.127 44.224v46.715c0 2.491-1.869 4.36-4.36 4.36h-11.212c-2.491 0-4.36-1.869-4.36-4.36v-47.338c0-14.949-6.229-24.292-18.686-24.292-9.966 0-19.309 4.983-24.292 13.703v57.927c0 3.114-1.869 4.36-5.606 4.36h-10.589c-2.491 0-4.36-1.869-4.36-4.36v-84.088zM1007.805 842.122c0-1.869 1.869-3.737 3.737-3.737h13.703c1.869 0 3.737 1.869 3.737 3.737v133.294c0 1.869-1.869 3.737-3.737 3.737h-13.08c-1.869 0-3.737-1.869-3.737-3.737l-.623-133.294zM1061.372 890.706c0-2.491 1.869-4.36 4.36-4.36h4.983c1.869 0 3.737 1.246 3.737 2.491l3.114 8.097c8.097-8.72 19.309-13.08 31.144-13.08 28.652 0 36.127 19.932 36.127 44.224v46.715c0 2.491-1.869 4.36-4.36 4.36h-11.212c-2.491 0-4.36-1.869-4.36-4.36v-47.338c0-14.949-6.229-24.292-18.063-24.292-9.966 0-19.309 4.983-24.915 13.08v57.927c0 3.114-1.869 4.36-5.606 4.36h-9.966c-2.491 0-4.36-1.869-4.36-4.36v-83.465zM1167.883 972.302c-1.869-.623-2.491-3.114-1.869-4.983l4.36-8.72c1.246-1.869 3.737-2.491 5.606-1.869 0 0 .623 0 .623.623 6.852 4.36 14.949 6.852 23.046 6.852s12.457-3.737 12.457-9.343c0-6.229-6.852-9.966-19.932-16.195-14.326-6.229-24.915-14.326-24.915-29.275 0-11.835 8.097-25.538 31.144-25.538 9.343 0 18.686 1.869 27.406 6.852 2.491 1.246 3.114 4.36 1.869 6.852l-3.114 6.229c-1.246 1.869-3.737 3.114-5.606 1.869h-.623c-6.229-3.114-13.08-4.36-19.932-4.36-8.097 0-11.835 3.737-11.835 8.097 0 6.229 6.852 9.966 16.195 13.703 17.44 7.474 29.898 13.703 29.898 31.144 0 14.326-12.457 27.406-33.012 27.406-11.835.623-22.423-3.114-31.766-9.343zM1259.445 903.786h-10.589c-2.491 0-4.36-1.869-4.36-4.36v-8.72c0-2.491 1.869-4.36 3.737-4.36h11.212v-26.161c0-2.491 1.869-4.36 4.36-4.36h11.212c2.491 0 4.36 1.869 4.36 4.36v26.161h24.915c2.491 0 4.36 1.869 4.36 4.36v8.097c0 2.491-1.869 4.36-4.36 4.36h-24.915v49.83c0 8.097 3.114 9.343 7.474 9.343 4.983 0 10.589-1.869 14.949-4.36 1.869-1.246 3.737-.623 4.983.623 0 .623.623.623.623 1.246l3.737 9.343c1.246 2.491 0 3.737-2.491 5.606-8.097 4.36-16.818 6.229-25.538 6.852-18.686 0-23.669-11.212-23.669-28.029v-49.83zM1326.715 852.71c0-7.474 5.606-13.703 13.08-13.703 7.474-.623 14.326 4.983 14.326 12.457.623 7.474-4.983 14.326-12.457 14.326h-1.869c-7.474.623-13.08-4.983-13.08-13.08 0 .623 0 .623 0 0zm3.115 37.996c0-2.491 1.869-4.36 4.36-4.36h11.212c2.491 0 4.36 1.869 4.36 4.36v84.088c0 2.491-1.869 4.36-4.36 4.36h-11.212c-2.491 0-4.36-1.869-4.36-4.36v-84.088zM1384.642 903.786h-10.589c-2.491 0-4.36-1.869-4.36-4.36v-8.72c0-2.491 1.869-4.36 3.737-4.36h11.212v-26.161c0-2.491 1.869-4.36 4.36-4.36h11.835c2.491 0 4.36 1.869 4.36 4.36v26.161h24.915c2.491 0 4.36 1.869 4.36 4.36v8.097c0 2.491-1.869 4.36-4.36 4.36h-24.915v49.83c0 8.097 3.114 9.343 7.474 9.343 4.983 0 10.589-1.869 14.949-4.36 1.869-1.246 3.737-.623 4.983.623 0 .623.623.623.623 1.246l3.737 9.343c1.246 2.491 0 3.737-2.491 5.606-8.097 4.36-16.818 6.229-25.538 6.852-18.686 0-23.669-11.212-23.669-28.029l-.623-49.83zM1453.781 890.706c0-2.491 1.869-4.36 4.36-4.36h11.212c2.491 0 4.36 1.869 4.36 4.36v49.83c0 15.572 6.229 22.423 18.063 22.423 9.966 0 18.686-6.229 21.8-15.572v-56.681c0-3.737 1.869-4.36 4.983-4.36h10.589c2.491 0 4.36 1.869 4.983 4.36v84.088c0 2.491-2.491 4.36-4.983 4.36h-4.983c-2.491 0-3.114-1.869-4.36-3.737l-2.491-6.852c-7.474 8.097-18.063 13.08-29.275 12.457-28.029 0-34.881-18.063-34.881-42.978l.623-47.338zM1568.389 903.786H1557.8c-2.491 0-4.36-1.869-4.36-4.36v-8.72c0-2.491 1.869-4.36 4.36-4.36h11.212v-26.161c0-2.491 1.869-4.36 4.36-4.36h11.835c2.491 0 4.36 1.869 4.36 4.36v26.161h24.915c2.491 0 4.36 1.869 4.36 4.36v8.097c0 2.491-1.869 4.36-4.36 4.36h-24.915v49.83c0 8.097 3.114 9.343 7.474 9.343 4.983 0 10.589-1.869 14.949-4.36 1.869-1.246 3.737-.623 4.983.623 0 .623.623.623.623 1.246l3.737 9.343c1.246 2.491 0 3.737-2.491 5.606-8.097 4.36-16.818 6.229-25.538 6.852-18.686 0-23.669-11.212-23.669-28.029l-1.246-49.83zM1679.883 884.477c23.046-.623 41.732 17.44 42.355 40.487v2.491c0 1.869 0 4.983-.623 6.229 0 2.491-1.869 3.737-4.36 3.737h-64.156c1.246 14.326 13.08 25.538 28.029 25.538 8.097 0 16.195-2.491 23.046-8.097 1.869-1.246 3.737-1.869 5.606.623l5.606 8.72c1.869 1.869 2.491 3.737-.623 6.229-9.966 7.474-21.8 11.835-34.258 11.212-28.029 0-46.715-22.423-46.715-48.584s18.063-48.584 46.092-48.584zm22.424 38.618c-.623-11.835-10.589-21.8-23.046-21.178-12.457-.623-23.669 8.72-24.915 21.178h47.961zM1833.732 884.477c26.783-.623 49.207 20.555 49.83 47.338s-20.555 49.207-47.338 49.83c-26.783.623-49.207-20.555-49.83-47.338v-1.246c-.623-26.783 20.555-47.961 47.338-48.584zm0 78.482c16.195 1.246 30.521-11.212 31.144-28.029 1.246-16.195-11.212-30.521-28.029-31.144-16.195-1.246-30.521 11.212-31.144 28.029v1.246c-.623 15.572 11.212 28.652 26.783 29.898h1.246zM1910.968 905.032h-12.457c-2.491 0-4.36-1.869-4.36-4.36v-9.966c0-2.491 1.869-4.36 3.737-4.36h13.08v-10.589c0-24.915 11.835-39.241 34.258-39.241 9.343 0 18.686 3.114 26.161 9.343 1.246 1.246 1.869 3.737.623 4.983l-5.606 8.72c-1.246 2.491-3.737 2.491-6.229.623-4.36-3.114-9.343-4.983-14.949-4.983-10.589 0-14.949 8.72-14.949 19.932v10.589h26.161c2.491 0 4.36 1.869 4.36 4.36v9.966c0 2.491-1.869 4.36-4.36 4.36h-26.161v69.762c0 2.491-1.869 4.36-4.36 4.36h-11.212c-2.491 0-4.36-1.869-4.36-4.36l.623-69.139zM2033.051 842.122c0-1.869 1.869-3.737 3.737-3.737h46.092c24.915 0 44.847 19.932 44.847 44.847s-19.932 44.847-44.847 44.847h-29.275v47.338c0 1.869-1.869 3.737-3.737 3.737h-13.08c-1.869 0-3.737-1.869-3.737-3.737V842.123zm49.207 66.647c13.703 0 24.915-11.212 24.915-24.915v-.623c0-13.08-10.589-24.292-24.292-24.292H2053.606v49.83h28.652zM2146.414 890.706c0-2.491 1.869-4.36 4.36-4.36h11.212c2.491 0 4.36 1.869 4.36 4.36v49.83c0 15.572 6.229 22.423 18.063 22.423 9.966 0 18.686-6.229 21.8-15.572v-56.681c0-3.737 1.869-4.36 5.606-4.36h9.966c2.491 0 4.36 1.869 4.36 4.36v84.088c0 2.491-1.869 4.36-4.36 4.36h-4.983c-2.491 0-3.114-1.869-4.36-3.737l-2.491-6.852c-7.474 8.097-18.063 13.08-29.275 12.457-28.029 0-34.881-18.063-34.881-42.978l.623-47.338zM2254.793 842.745c0-2.491 1.869-4.36 4.36-4.36h11.212c2.491 0 4.36 1.869 4.36 4.36v46.092c7.474-3.114 15.572-4.36 23.669-4.983 25.538.623 46.092 21.8 46.092 47.338v1.246c0 26.783-18.686 48.584-43.601 48.584-11.212 0-22.423-4.983-30.521-13.08l-1.869 6.852c-.623 2.491-1.869 3.737-4.36 3.737h-4.983c-2.491 0-4.36-1.869-4.36-4.36V842.745zm42.978 120.214c14.949 0 26.161-13.703 26.161-29.898.623-15.572-11.835-28.652-28.029-29.275-7.474 0-14.949 1.869-21.178 4.983v40.487c4.36 8.097 13.08 13.08 23.046 13.703zM2366.91 842.745c0-2.491 1.869-4.36 4.36-4.36h11.212c2.491 0 4.36 1.869 4.36 4.36v132.049c0 2.491-1.869 4.36-4.36 4.36h-11.212c-2.491 0-4.36-1.869-4.36-4.36V842.745zM2413.002 852.71c0-7.474 5.606-13.703 13.08-13.703 7.474-.623 14.326 4.983 14.326 12.457.623 7.474-4.983 14.326-12.457 14.326h-1.869c-7.474.623-13.08-4.983-13.08-13.08 0 .623 0 .623 0 0zm3.115 37.996c0-2.491 1.869-4.36 4.36-4.36h11.212c2.491 0 4.36 1.869 4.36 4.36v84.088c0 2.491-1.869 4.36-4.36 4.36h-11.212c-2.491 0-4.36-1.869-4.36-4.36v-84.088zM2506.433 884.477c13.08-.623 26.161 5.606 33.635 16.195 1.869 1.869 1.246 4.983-.623 6.229l-7.474 6.852c-2.491 2.491-4.36.623-6.229-1.246-11.835-10.589-29.898-9.343-40.487 2.491s-9.343 29.898 2.491 40.487c4.983 4.36 11.212 6.852 18.063 7.474 11.835 0 16.818-6.852 21.8-11.835 1.246-1.869 4.36-1.869 6.229-.623l6.229 4.983c2.491 1.869 3.114 4.36 1.246 6.852-8.097 12.457-21.8 19.309-36.127 19.309-26.161 0-47.338-21.178-47.961-47.338v-1.246c1.246-26.783 22.423-48.584 49.207-48.584zM2616.681 842.122c0-1.869 1.869-3.737 3.737-3.737h13.08c1.869 0 3.737 1.869 3.737 3.737v56.058h74.122v-56.058c0-1.869 1.869-3.737 3.737-3.737h13.08c1.869 0 3.737 1.869 3.737 3.737v133.294c0 1.869-1.869 3.737-3.737 3.737h-13.08c-1.869 0-3.737-1.869-3.737-3.737v-57.927h-74.122v58.55c0 1.869-1.869 3.737-3.737 3.737h-13.08c-1.869 0-3.737-1.869-3.737-3.737V842.122zM2804.165 884.477c23.046-.623 41.732 17.44 42.355 40.487v2.491c0 1.869 0 4.983-.623 6.229 0 2.491-1.869 3.737-4.36 3.737h-63.533c1.246 14.326 13.08 25.538 28.029 25.538 8.097 0 16.195-2.491 23.046-8.097 1.869-1.246 3.737-1.869 5.606.623l5.606 8.72c1.246 1.869 2.491 3.737-.623 6.229-9.966 7.474-21.8 11.835-34.258 11.212-28.029 0-46.715-22.423-46.715-48.584s17.44-48.584 45.47-48.584zm22.424 38.618c-.623-11.835-10.589-21.8-23.046-21.178-12.457-.623-23.669 8.72-24.915 21.178h47.961zM2898.219 920.603c6.229 0 12.457 1.246 18.686 3.114.623-14.949-3.114-21.178-14.949-21.178-8.72 0-17.44 1.869-26.161 4.36-2.491.623-4.36-.623-4.983-3.114v-.623l-1.869-7.474c-.623-1.869.623-4.36 2.491-4.983h.623c10.589-3.737 21.178-5.606 32.389-5.606 29.898 0 32.389 18.063 32.389 41.109v49.83c0 2.491-1.869 4.36-4.36 4.36h-6.852c-1.869 0-3.114-.623-3.737-3.114l-2.491-6.229c-7.474 7.474-18.063 11.835-28.652 11.835-15.572.623-29.275-11.212-29.898-27.406v-3.737c0-18.063 13.703-31.144 37.372-31.144zm-3.114 44.847c8.72-.623 16.195-4.36 21.8-11.212v-15.572c-5.606-1.869-11.212-3.114-16.818-3.114-11.212 0-19.309 5.606-19.309 14.949-.623 7.474 4.983 13.703 13.08 14.326 0 .623.623.623 1.246.623zM2964.866 842.745c0-2.491 1.869-4.36 4.36-4.36h11.212c2.491 0 4.36 1.869 4.36 4.36v132.049c0 2.491-1.869 4.36-4.36 4.36h-11.212c-2.491 0-4.36-1.869-4.36-4.36V842.745zM3020.302 903.786h-10.589c-2.491 0-4.36-1.869-4.36-4.36v-8.72c0-2.491 1.869-4.36 3.737-4.36h11.212v-26.161c0-2.491 1.869-4.36 4.36-4.36h11.212c2.491 0 4.36 1.869 4.36 4.36v26.161h24.915c2.491 0 4.36 1.869 4.36 4.36v8.097c0 2.491-1.869 4.36-4.36 4.36h-24.915v49.83c0 8.097 3.114 9.343 7.474 9.343 4.983 0 10.589-1.869 14.949-4.36 1.869-1.246 3.737-.623 4.983.623 0 .623.623.623.623 1.246l3.737 9.343c1.246 2.491 0 3.737-2.491 5.606-8.097 4.36-16.818 6.229-25.538 6.852-18.686 0-23.669-11.212-23.669-28.029v-49.83zM3090.686 842.745c0-2.491 1.869-4.36 4.36-4.36h11.212c2.491 0 4.36 1.869 4.36 4.36v51.075c7.474-6.229 17.44-9.343 26.783-9.966 26.161 0 36.127 18.686 36.127 44.224v46.715c0 2.491-1.869 4.36-4.36 4.36h-11.212c-2.491 0-4.36-1.869-4.36-4.36v-46.715c0-15.572-6.229-24.292-18.686-24.292-9.966 0-19.309 4.983-24.292 13.703v57.927c0 2.491-1.869 4.36-4.36 4.36H3094.423c-2.491 0-4.36-1.869-4.36-4.36l.623-132.672z"/></symbol><symbol viewBox="0 0 3319 1024" id="logo-en--short" xmlns="http://www.w3.org/2000/svg"><path d="M769.18 309.559c-3.775 39.639-38.695 68.896-78.334 65.121s-68.896-38.695-65.121-78.334c3.775-39.639 38.695-68.896 78.334-65.121s68.896 38.695 65.121 78.334zm15.1-95.321C674.802 103.816 454.901 78.334 27.369 263.314c-1.888.944-8.494 3.775-8.494 3.775C7.55 274.639-.001 286.908-.001 301.065c-.944 21.707 16.044 39.639 37.751 39.639h1.888c6.606-.944 13.213-2.831 18.876-5.663 63.233-22.651 371.849-107.591 535.123 39.639 5.663 4.719 10.382 8.494 15.1 13.213s9.438 9.438 13.213 15.1c146.286 163.274 62.289 472.833 38.695 535.123-2.831 5.663-4.719 12.269-5.663 18.876-.944 21.707 16.044 39.639 37.751 39.639h1.888c14.157 0 26.426-7.55 33.976-18.876 1.888-2.831 2.831-5.663 3.775-8.494C919.24 543.617 893.758 323.716 784.28 214.238zM996.63 101.928c-4.719 50.964-50.02 89.659-100.984 84.94s-89.659-50.02-84.94-100.984C815.425 34.92 860.726-3.775 911.69.944c51.908 3.775 89.659 49.076 84.94 100.984z"/><path d="M570.986 483.215c-2.831 27.37-26.426 47.189-52.852 44.358s-47.189-26.426-44.358-52.852c2.831-27.37 26.426-47.189 52.852-44.358 26.426 1.888 46.245 25.482 44.358 52.852zM433.194 606.85c-1.888 19.819-19.819 34.92-39.639 33.976-19.819-1.888-34.92-19.819-33.976-39.639 1.888-19.819 19.819-34.92 39.639-33.976 20.763 1.888 35.864 19.819 33.976 39.639zM1761.091 218.013h-59.458c-18.876.944-33.976 16.988-33.032 35.864v473.777l-367.13-498.315c-15.1-20.763-26.426-22.651-39.639-22.651h-7.55c-18.876.944-33.032 16.044-33.032 34.92v736.147c-.944 18.876 14.157 34.92 33.032 35.864h58.514c18.876-.944 33.976-16.988 33.032-35.864V489.821l368.074 513.416c14.157 19.819 26.426 21.707 39.639 21.707h8.494c18.876-.944 33.032-16.044 33.032-34.92V253.877c-.944-18.876-16.044-34.92-33.976-35.864zM2028.181 218.013h-61.346c-18.876.944-33.032 16.988-33.032 35.864v723.878c-.944 18.876 14.157 34.92 33.032 35.864h61.346c18.876-.944 33.032-16.988 33.032-35.864V253.877c0-18.876-14.157-34.92-33.032-35.864zM2451.937 218.013h-213.294c-18.876.944-33.976 16.988-33.032 35.864v723.878c-.944 18.876 14.157 34.92 33.032 35.864h60.402c18.876-.944 33.032-16.988 33.032-35.864V736.148h119.86c123.635 0 223.676-117.029 223.676-261.427 0-141.567-100.041-256.708-223.676-256.708zm97.21 255.764c0 69.84-43.414 124.579-100.041 124.579h-117.972V357.692h117.972c56.627 0 100.041 50.964 100.041 116.085zM3286.238 218.013h-61.346c-18.876.944-33.976 16.988-33.032 35.864v289.74h-311.447v-289.74c.944-18.876-14.157-34.92-33.032-35.864h-61.346c-18.876.944-33.032 16.988-33.032 35.864v723.878c-.944 18.876 14.157 34.92 33.032 35.864h61.346c18.876-.944 33.976-16.988 33.032-35.864V676.69h311.447v301.065c-.944 18.876 14.157 34.92 33.032 35.864h61.346c18.876-.944 33.032-16.988 33.032-35.864V253.877c.944-18.876-14.157-34.92-33.032-35.864z"/></symbol><symbol viewBox="0 0 2130 1024" id="logo-no" xmlns="http://www.w3.org/2000/svg"><path d="M527.868 212.443c-2.591 27.203-26.555 47.281-53.758 44.691s-47.281-26.555-44.691-53.758c2.591-27.203 26.555-47.281 53.758-44.691s47.281 26.555 44.691 53.758zm10.363-65.417c-75.132-75.78-226.044-92.62-519.448 33.68-1.295.648-5.829 2.591-5.829 2.591C5.182 188.479 0 196.899 0 206.614c-.648 14.897 11.011 27.203 25.908 27.203h1.295c4.534-.648 9.068-1.943 12.954-3.886 43.395-15.545 255.838-73.837 367.241 27.203 3.886 3.238 7.125 5.829 10.363 9.068s6.477 6.477 9.068 10.363c101.04 112.051 42.748 324.493 26.555 367.241-1.943 3.886-3.238 8.42-3.886 12.954-.648 14.897 11.011 27.203 25.908 27.203h1.295c9.715 0 18.135-5.182 23.317-12.954 1.295-1.943 1.943-3.886 2.591-5.829 128.243-292.109 111.403-443.021 35.623-518.153zM683.962 69.951c-3.238 34.975-34.328 61.531-69.303 58.292s-61.531-34.328-58.292-69.303C559.605 23.965 590.695-2.591 625.67.648c34.975 2.591 61.531 33.68 58.292 69.303z"/><path d="M391.853 331.618c-1.943 18.783-18.135 32.385-36.271 30.441-18.783-1.943-32.385-18.135-30.441-36.271 1.943-18.783 18.135-32.385 36.271-30.441 18.135 1.295 31.737 17.488 30.441 36.271zM297.29 416.466c-1.295 13.602-13.602 23.965-27.203 22.669s-23.965-13.602-22.669-27.203c1.295-13.602 13.602-23.965 27.203-22.669 13.602 1.295 23.965 13.602 22.669 27.203zM1559.641 150.264h-60.235c-9.068.648-15.545 8.42-14.897 17.488v202.08h-208.557v-202.08c.648-9.068-6.477-16.84-14.897-17.488h-60.883c-9.068.648-15.545 8.42-14.897 17.488v511.676c0 9.068 6.477 16.192 14.897 17.488h60.883c9.068-.648 15.545-8.42 14.897-17.488v-210.5h208.557v210.5c-.648 9.068 6.477 16.84 14.897 17.488h60.235c9.068-.648 15.545-8.42 14.897-17.488V167.752c.648-9.068-5.829-16.192-14.897-17.488zM1119.858 150.264H853.009c-9.068.648-15.545 8.42-14.897 17.488v511.676c-.648 9.068 6.477 16.84 14.897 17.488h60.235c9.068-.648 15.545-8.42 14.897-17.488v-210.5h159.98c8.42-.648 15.545-8.42 14.897-16.84v-63.474c0-9.068-6.477-16.192-14.897-17.488H928.789V248.712h191.717c9.068-.648 15.545-8.42 14.897-17.488V167.75c0-9.068-6.477-16.84-15.545-17.488zM1753.3 150.264h-60.883c-9.068.648-15.545 8.42-14.897 17.488v511.676c0 9.068 6.477 16.192 14.897 17.488h60.883c9.068-.648 15.545-8.42 14.897-17.488V167.752c.648-9.068-5.829-16.192-14.897-17.488zM242.884 796.013h1886.077v3.886H242.884v-3.886zM242.884 878.269c0-1.943 1.943-3.886 3.886-3.886h84.2c1.943 0 3.886 1.943 3.886 3.886v11.658c0 1.943-1.943 3.886-3.886 3.886h-66.065v48.577h55.701c1.943 0 3.886 1.943 3.886 3.886v11.658c0 1.943-1.943 3.886-3.886 3.886h-55.701v55.054c0 1.943-1.943 3.886-3.886 3.886h-13.602c-1.943 0-3.886-1.943-3.886-3.886V878.268zM384.729 922.312c27.851-.648 51.168 21.374 51.815 49.225s-21.374 51.168-49.225 51.815c-27.851.648-51.168-21.374-51.815-49.225v-1.295c-.648-27.851 21.374-49.872 49.225-50.52zm0 81.61c16.192-.648 29.146-13.602 28.498-29.794v-1.295c1.295-16.192-11.011-29.794-27.203-30.441-16.192-1.295-29.794 11.011-30.441 27.203v3.886c-.648 16.192 11.658 29.794 27.851 31.089 0-.648.648-.648 1.295-.648zM454.032 878.917c0-2.591 1.943-4.534 4.534-4.534h11.658c2.591 0 4.534 1.943 4.534 4.534v137.958c0 2.591-1.943 4.534-4.534 4.534h-11.658c-2.591 0-4.534-1.943-4.534-4.534V878.917zM511.676 878.917c0-2.591 1.943-4.534 4.534-4.534h11.658c2.591 0 4.534 1.943 4.534 4.534v82.257l37.566-33.68c1.295-1.943 3.886-2.591 5.829-3.238h15.545c1.943 0 3.886 1.943 3.886 3.886 0 .648-.648 1.943-1.295 2.591l-38.861 36.918 40.805 46.634c1.943 2.591 1.295 6.477-2.591 6.477h-17.488c-1.943 0-3.238-.648-4.534-1.943l-38.861-45.338v42.1c0 2.591-1.943 4.534-4.534 4.534h-11.658c-2.591 0-4.534-1.943-4.534-4.534V878.918zM657.407 922.312c23.965-.648 43.395 18.135 44.043 42.1v2.591c0 1.943 0 5.182-.648 6.477 0 2.591-1.943 3.886-4.534 3.886h-66.065c1.295 14.897 13.602 26.555 29.146 26.555 8.42 0 16.84-2.591 23.965-8.42 1.943-1.295 3.886-1.943 5.829.648l5.829 9.068c1.943 1.943 2.591 3.886-.648 6.477-10.363 7.772-22.669 12.306-35.623 12.306-29.146 0-48.577-23.317-48.577-50.52s18.135-51.168 47.281-51.168zm23.317 40.157c-.648-12.306-11.011-22.669-23.965-22.022-12.954-.648-24.612 9.068-25.908 22.022h49.872zM726.71 878.917c0-2.591 1.943-4.534 4.534-4.534h11.658c2.591 0 4.534 1.943 4.534 4.534v53.111c7.772-6.477 18.135-9.715 27.851-10.363 27.203 0 37.566 19.431 37.566 45.986v48.577c0 2.591-1.943 4.534-4.534 4.534h-11.658c-2.591 0-4.534-1.943-4.534-4.534v-49.225c0-16.192-6.477-25.26-19.431-25.26-10.363 0-20.078 5.182-25.26 14.249v60.235c0 2.591-1.943 4.534-4.534 4.534h-12.306c-2.591 0-4.534-1.943-4.534-4.534l.648-137.311zM884.099 922.312c23.965-.648 43.395 18.135 44.043 42.1v2.591c0 1.943 0 5.182-.648 6.477 0 2.591-1.943 3.886-4.534 3.886h-66.712c1.295 14.897 13.602 26.555 29.146 26.555 8.42 0 16.84-2.591 23.965-8.42 1.943-1.295 3.886-1.943 5.829.648l5.829 9.068c1.943 1.943 2.591 3.886-.648 6.477-10.363 7.772-22.669 12.306-35.623 12.306-29.146 0-48.577-23.317-48.577-50.52s18.783-51.168 47.929-51.168zm23.317 40.157c-.648-12.306-11.011-22.669-23.965-22.022-12.954-.648-24.612 9.068-25.908 22.022h49.872zM954.697 878.917c0-2.591 1.943-4.534 4.534-4.534h11.658c2.591 0 4.534 1.943 4.534 4.534v137.958c0 2.591-1.943 4.534-4.534 4.534h-11.658c-2.591 0-4.534-1.943-4.534-4.534V878.917zM1003.922 1013.637c-1.943-1.295-2.591-3.238-1.943-5.182l4.534-9.068c1.295-1.943 3.886-2.591 5.829-1.943 0 0 .648 0 .648.648 7.125 4.534 15.545 7.125 23.965 7.125s12.954-3.886 12.954-9.068c0-6.477-7.125-10.363-20.726-16.84-14.897-6.477-25.908-14.897-25.908-30.441 0-12.306 8.42-26.555 32.385-26.555 9.715 0 19.431 1.943 28.498 7.125 2.591 1.295 3.238 4.534 1.943 7.125l-3.238 6.477c-1.295 2.591-3.886 3.238-6.477 1.943-6.477-3.238-13.602-4.534-20.726-5.182-8.42 0-12.306 3.886-12.306 8.42 0 6.477 7.125 10.363 16.84 14.249 18.135 7.772 31.089 14.249 31.089 32.385 0 14.897-12.954 28.498-34.328 28.498-11.658.648-23.317-2.591-33.032-9.715zM1136.051 922.312c23.965-.648 43.395 18.135 44.043 42.1v2.591c0 1.943 0 5.182-.648 6.477 0 2.591-1.943 3.886-4.534 3.886H1108.2c1.295 14.897 13.602 26.555 29.146 26.555 8.42 0 16.84-2.591 23.965-8.42 1.943-1.295 3.886-1.943 5.829.648l5.829 9.068c1.943 1.943 2.591 3.886-.648 6.477-10.363 7.772-22.669 12.306-35.623 12.306-29.146 0-48.577-23.317-48.577-50.52s18.783-51.168 47.929-51.168zm23.316 40.157c-.648-12.954-11.011-22.669-23.965-22.022-12.954-.648-24.612 9.068-25.908 22.022h49.872zM1202.763 889.928c0-7.772 5.829-14.249 13.602-14.249 7.772-.648 14.897 5.182 14.897 12.954.648 7.772-5.182 14.897-12.954 14.897h-1.943c-7.772 0-13.602-5.829-13.602-13.602zm3.238 39.509c0-2.591 1.943-4.534 4.534-4.534h11.658c2.591 0 4.534 1.943 4.534 4.534v87.438c0 2.591-1.943 4.534-4.534 4.534h-11.658c-2.591 0-4.534-1.943-4.534-4.534v-87.438zM1259.112 929.437c0-2.591 1.943-4.534 4.534-4.534h5.182c1.943 0 3.886 1.295 3.886 3.238l3.238 8.42c8.42-9.068 20.078-13.602 32.385-13.602 29.794 0 37.566 20.726 37.566 45.986v48.577c0 2.591-1.943 4.534-4.534 4.534h-11.658c-2.591 0-4.534-1.943-4.534-4.534v-49.225c0-15.545-6.477-25.26-18.783-25.26-10.363 0-20.078 5.182-25.26 14.249v60.235c0 3.238-1.943 4.534-5.829 4.534h-10.363c-2.591 0-4.534-1.943-4.534-4.534l-1.295-88.086zM1373.106 1013.637c-1.943-1.295-2.591-3.238-1.943-5.182l4.534-9.068c1.295-1.943 3.886-2.591 5.829-1.943 0 0 .648 0 .648.648 7.125 4.534 15.545 7.125 23.965 7.125s12.954-3.886 12.954-9.068c0-6.477-7.125-10.363-20.726-16.84-14.897-6.477-25.908-14.897-25.908-30.441 0-12.306 8.42-26.555 32.385-26.555 9.715 0 19.431 1.943 28.498 7.125 2.591 1.295 3.238 4.534 1.943 7.125l-3.238 6.477c-1.295 1.943-3.886 3.238-5.829 1.943h-.648c-6.477-3.238-13.602-4.534-20.726-5.182-8.42 0-12.306 3.886-12.306 8.42 0 6.477 7.125 10.363 16.84 14.249 18.135 7.772 31.089 14.249 31.089 32.385 0 14.897-12.954 28.498-34.328 28.498-12.954 0-23.965-3.238-33.032-9.715zM1471.555 942.391h-11.011c-2.591 0-4.534-1.943-4.534-4.534v-8.42c0-2.591 1.943-4.534 4.534-4.534H1472.203V897.7c0-2.591 1.943-4.534 4.534-4.534h11.658c2.591 0 4.534 1.943 4.534 4.534v27.203h25.908c2.591 0 4.534 1.943 4.534 4.534v8.42c0 2.591-1.943 4.534-4.534 4.534h-25.908v51.815c0 8.42 3.238 9.715 7.772 9.715 5.182 0 11.011-1.943 15.545-4.534 1.943-1.295 3.886-.648 5.182.648 0 .648.648.648.648 1.295l3.886 9.715c1.295 2.591 0 3.886-2.591 5.829-8.42 4.534-17.488 7.125-26.555 7.125-19.431 0-24.612-11.658-24.612-29.146l-.648-52.463zM1543.448 889.928c0-7.772 5.829-14.249 13.602-14.249 7.772-.648 14.897 5.182 14.897 12.954.648 7.772-5.182 14.897-12.954 14.897h-1.943c-7.772 0-13.602-5.829-13.602-13.602zm3.239 39.509c0-2.591 1.943-4.534 4.534-4.534h11.658c2.591 0 4.534 1.943 4.534 4.534v87.438c0 2.591-1.943 4.534-4.534 4.534h-11.658c-2.591 0-4.534-1.943-4.534-4.534v-87.438zM1604.979 942.391h-11.011c-2.591 0-4.534-1.943-4.534-4.534v-8.42c0-2.591 1.943-4.534 4.534-4.534H1605.627V897.7c0-2.591 1.943-4.534 4.534-4.534h11.658c2.591 0 4.534 1.943 4.534 4.534v27.203h25.908c2.591 0 4.534 1.943 4.534 4.534v8.42c0 2.591-1.943 4.534-4.534 4.534h-25.908v51.815c0 8.42 3.238 9.715 7.772 9.715 5.182 0 11.011-1.943 15.545-4.534 1.943-1.295 3.886-.648 5.182.648 0 .648.648.648.648 1.295l3.886 9.715c1.295 2.591 0 3.886-2.591 5.829-8.42 4.534-17.488 7.125-26.555 7.125-19.431 0-24.612-11.658-24.612-29.146l-.648-52.463zM1678.816 929.437c0-2.591 1.943-4.534 4.534-4.534h11.658c2.591 0 4.534 1.943 4.534 4.534v51.815c0 16.192 6.477 23.317 18.783 23.317 10.363 0 19.431-6.477 22.669-16.192v-58.94c0-3.886 1.943-4.534 5.182-4.534h10.363c2.591 0 4.534 1.943 5.182 4.534v87.438c0 2.591-2.591 4.534-5.182 4.534h-5.182c-2.591 0-3.238-1.943-4.534-3.886l-2.591-7.125c-7.772 8.42-18.783 13.602-30.441 12.954-29.146 0-36.271-19.431-36.271-44.691l1.295-49.225zM1799.934 942.391h-11.011c-2.591 0-4.534-1.943-4.534-4.534v-8.42c0-2.591 1.943-4.534 4.534-4.534H1800.582V897.7c0-2.591 1.943-4.534 4.534-4.534h11.658c2.591 0 4.534 1.943 4.534 4.534v27.203h25.908c2.591 0 4.534 1.943 4.534 4.534v8.42c0 2.591-1.943 4.534-4.534 4.534h-25.908v51.815c0 8.42 3.238 9.715 7.772 9.715 5.182 0 11.011-1.943 15.545-4.534 1.943-1.295 3.886-.648 5.182.648 0 .648.648.648.648 1.295l3.886 9.715c1.295 2.591 0 3.886-2.591 5.829-8.42 4.534-17.488 7.125-26.555 7.125-19.431 0-24.612-11.658-24.612-29.146l-.648-52.463zM1884.782 942.391h-11.011c-2.591 0-4.534-1.943-4.534-4.534v-8.42c0-2.591 1.943-4.534 4.534-4.534H1885.43V897.7c0-2.591 1.943-4.534 4.534-4.534h12.306c2.591 0 4.534 1.943 4.534 4.534v27.203h25.908c2.591 0 4.534 1.943 4.534 4.534v8.42c0 2.591-1.943 4.534-4.534 4.534h-25.908v51.815c0 8.42 3.238 9.715 7.772 9.715 5.182 0 11.011-1.943 15.545-4.534 1.943-1.295 3.886-.648 5.182.648 0 .648.648.648.648 1.295l3.886 9.715c1.295 2.591 0 3.886-2.591 5.829-8.42 4.534-17.488 7.125-26.555 7.125-19.431 0-24.612-11.658-24.612-29.146V942.39zM2000.719 922.312c23.965-.648 43.395 18.135 44.043 42.1v2.591c0 1.943 0 4.534-.648 6.477 0 2.591-1.943 3.886-4.534 3.886h-66.712c1.295 14.897 13.602 26.555 29.146 26.555 8.42 0 16.84-2.591 23.965-8.42 1.943-1.295 3.886-1.943 5.829.648l5.829 9.068c1.943 1.943 2.591 3.886-.648 6.477-10.363 7.772-22.669 12.306-35.623 12.306-29.146 0-48.577-23.317-48.577-50.52s18.783-51.168 47.929-51.168zm23.964 40.157c-.648-12.306-11.011-22.669-23.965-22.022-12.954-.648-24.612 9.068-25.908 22.022h49.872zM2075.851 942.391h-11.011c-2.591 0-4.534-1.943-4.534-4.534v-8.42c0-2.591 1.943-4.534 4.534-4.534H2076.499V897.7c0-2.591 1.943-4.534 4.534-4.534h11.658c2.591 0 4.534 1.943 4.534 4.534v27.203h25.26c2.591 0 4.534 1.943 4.534 4.534v8.42c0 2.591-1.943 4.534-4.534 4.534h-25.908v51.815c0 8.42 3.238 9.715 7.772 9.715 5.182 0 11.011-1.943 15.545-4.534 1.943-1.295 3.886-.648 5.182.648 0 .648.648.648.648 1.295l3.886 9.715c1.295 2.591 0 3.886-2.591 5.829-8.42 4.534-17.488 7.125-26.555 7.125-19.431 0-24.612-11.658-24.612-29.146V942.39z"/></symbol><symbol viewBox="0 0 2598 1024" id="logo-no--short" xmlns="http://www.w3.org/2000/svg"><path d="M775.613 312.149c-3.807 39.97-39.019 69.472-78.989 65.665s-69.472-39.019-65.665-78.989c3.807-39.97 39.019-69.472 78.989-65.665s69.472 39.019 65.665 78.989zm15.227-96.119C680.446 104.684 458.706 78.989 27.598 265.517c-1.903.952-8.565 3.807-8.565 3.807C7.613 276.937 0 289.309 0 303.584c-.952 21.888 16.178 39.97 38.067 39.97h1.903c6.662-.952 13.323-2.855 19.033-5.71 63.762-22.84 375.911-108.491 539.599 39.97 5.71 4.758 10.468 8.565 15.227 13.323s9.517 9.517 13.323 15.227c148.461 164.639 62.81 476.788 39.019 539.599-2.855 5.71-4.758 12.372-5.71 19.033-.952 21.888 16.178 39.97 38.067 40.922h1.903c14.275 0 26.647-7.613 34.26-19.033 1.903-2.855 2.855-5.71 3.807-8.565 187.48-430.156 162.736-651.896 52.342-762.29zM1004.967 102.781c-4.758 51.39-50.439 90.409-101.829 85.651s-90.409-50.439-85.651-101.829c4.758-51.39 50.439-90.409 101.829-85.651 51.39 3.807 90.409 49.487 85.651 101.829z"/><path d="M575.762 487.257c-2.855 27.599-26.647 47.584-53.294 44.729-27.599-2.855-47.584-26.647-44.729-53.294 2.855-27.599 26.647-47.584 53.294-44.729 26.647 1.903 47.584 25.695 44.729 53.294zM436.818 611.926c-1.903 19.985-19.985 35.212-39.97 33.309s-35.212-19.985-33.309-39.97c1.903-19.985 19.985-35.212 39.97-33.309 19.985 1.903 35.212 19.985 33.309 39.97zM2291.628 220.788h-88.506c-13.323.952-22.84 12.372-21.888 25.695v296.922h-306.439V246.483c.952-13.323-9.517-24.743-21.888-25.695h-89.457c-13.323.952-22.84 12.372-21.888 25.695v751.822c0 13.323 9.517 23.792 21.888 25.695h89.457c13.323-.952 22.84-12.372 21.888-25.695V689.011h306.439v309.294c-.952 13.323 9.517 24.743 21.888 25.695h88.506c13.323-.952 22.84-12.372 21.888-25.695V246.483c.952-13.323-8.565-23.792-21.888-25.695zM1646.394 220.788h-392.089c-13.323.952-22.84 12.372-21.888 25.695v751.822c-.952 13.323 9.517 24.743 21.888 25.695h88.506c13.323-.952 22.84-12.372 21.888-25.695V689.011h234.112c12.372-.952 22.84-12.372 21.888-25.695v-93.264c0-13.323-9.517-23.792-21.888-25.695h-234.112V365.443h281.695c13.323-.952 22.84-12.372 21.888-25.695v-93.264c.952-13.323-9.517-24.743-21.888-25.695zM2576.178 220.788h-89.457c-13.323.952-22.84 12.372-21.888 25.695v751.822c0 13.323 9.517 23.792 21.888 25.695h89.457c13.323-.952 22.84-12.372 21.888-25.695V246.483c.952-13.323-8.565-23.792-21.888-25.695z"/></symbol><symbol viewBox="0 0 1024 1024" id="magnifier" xmlns="http://www.w3.org/2000/svg"><path d="M1005.291 919.763L724.868 639.274c48.006-64.849 76.842-146.416 76.842-234.717 0-.605-.001-1.211-.004-1.815v.092C800.742 180.908 621.283 1.217 399.537-.122h-.127c-.551-.003-1.2-.004-1.851-.004C177.922-.126-.129 177.925-.129 397.562c0 .835.003 1.669.008 2.504v-.129C.881 621.871 180.355 801.554 402.114 802.893h.127c.498.003 1.087.004 1.675.004 88.681 0 170.549-29.171 236.53-78.442l-1.041.744.329-.198 280.16 280.291c11.012 11.42 26.445 18.513 43.534 18.513 33.382 0 60.443-27.061 60.443-60.443 0-17.123-7.119-32.582-18.561-43.579l-.019-.019zM402.043 722.564c-177.552-1.005-321.19-144.781-321.969-322.289v-.074c-.003-.528-.005-1.155-.005-1.781 0-175.746 142.47-318.216 318.216-318.216.464 0 .93.001 1.394.003h-.072c177.529 1.005 321.152 144.744 321.969 322.221v.077c.003.528.005 1.155.005 1.781 0 175.746-142.47 318.216-318.216 318.216-.488 0-.976-.001-1.464-.004h.076z"/></symbol><symbol viewBox="0 0 829 1024" id="newsalert" xmlns="http://www.w3.org/2000/svg"><path d="M419.352 848.457h331.581c9.752 0 19.505 0 24.381-4.876 9.752-4.876 14.629-9.752 14.629-19.505v-19.505c-4.876-34.133-24.381-58.514-53.638-73.143-29.257-19.505-48.762-43.886-58.514-78.019-4.876-14.629-4.876-29.257-4.876-39.01-4.876-58.514-9.752-117.029 0-180.419 4.876-29.257 4.876-58.514 0-87.771-24.381-160.914-195.048-263.314-346.21-199.924-107.276 39.01-175.543 146.286-165.79 263.314 4.876 29.257 4.876 58.514 9.752 92.648 0 43.886-4.876 87.771-9.752 131.657 0 24.381-9.752 48.762-24.381 68.267-9.752 9.752-24.381 24.381-34.133 29.257-34.133 24.381-48.762 53.638-53.638 92.648 0 14.629 4.876 19.505 19.505 24.381h351.086zm0 34.133H92.647c-9.752 0-24.381 0-34.133-4.876-24.381-4.876-39.01-24.381-39.01-48.762 0-53.638 24.381-92.648 68.267-121.905 24.381-14.629 43.886-39.01 43.886-68.267 9.752-73.143 9.752-141.41 0-214.552-14.629-117.029 43.886-238.933 151.162-292.571 170.667-87.771 380.343 9.752 419.352 195.048 9.752 34.133 9.752 73.143 4.876 107.276-4.876 58.514-4.876 112.152 0 170.667 0 9.752 0 19.505 4.876 34.133 4.876 29.257 19.505 53.638 43.886 68.267 39.01 24.381 58.514 58.514 68.267 102.4v34.133c-4.876 24.381-24.381 39.01-53.638 43.886h-24.381c-107.276-4.876-219.429-4.876-326.705-4.876z"/><path d="M253.562 897.219H87.772c-14.629 0-29.257 0-39.01-4.876C19.505 882.591 0 858.21 0 824.076c0-58.514 24.381-102.4 73.143-136.533 24.381-14.629 34.133-34.133 39.01-58.514 9.752-78.019 9.752-146.286 0-209.676-14.629-121.905 48.762-248.686 165.79-307.2 87.771-43.886 185.295-48.762 273.067-4.876 87.771 39.01 151.162 117.029 170.667 214.552 9.752 34.133 9.752 73.143 4.876 117.029-4.876 53.638-4.876 112.152 0 165.79v29.258c4.876 24.381 14.629 43.886 39.01 58.514 43.886 29.257 68.267 68.267 73.143 117.029v39.01c-4.876 29.257-29.257 53.638-63.39 58.514H341.335c-34.133-9.752-58.514-9.752-87.771-9.752zm165.79-789.943c-43.886 0-87.771 9.752-126.781 34.133-102.4 48.762-160.914 165.79-146.286 273.067 9.752 68.267 9.752 136.533 0 219.429-4.876 34.133-19.505 58.514-53.638 82.895-39.01 24.381-58.514 63.39-63.39 112.152 0 19.505 9.752 29.257 24.381 34.133 9.752 4.876 19.505 4.876 34.133 4.876h677.791c14.629 0 34.133-9.752 39.01-29.257v-29.257c-4.876-39.01-24.381-68.267-58.514-92.648-29.257-19.505-48.762-43.886-53.638-78.019v-19.505-14.629a1055.129 1055.129 0 010-175.543c4.876-39.01 4.876-73.143-4.876-102.4-19.505-82.895-73.143-156.038-151.162-190.171-39.01-19.505-78.019-29.257-117.029-29.257zM512 863.086H87.771c-9.752 0-19.505 0-29.257-4.876-19.505-4.876-29.257-19.505-29.257-39.01 0-43.886 19.505-78.019 58.514-107.276 14.629-9.752 24.381-19.505 34.133-29.257 14.629-9.752 24.381-29.257 24.381-48.762V614.4c4.876-39.01 9.752-73.143 4.876-112.152 0-29.257 0-63.39-4.876-92.648-9.752-121.905 58.514-234.057 175.543-282.819 78.019-29.257 160.914-24.381 234.057 19.505S677.79 258.438 687.542 341.334c4.876 34.133 4.876 63.39 0 92.648a1055.129 1055.129 0 000 175.543v14.629c0 9.752 0 19.505 4.876 24.381 4.876 29.257 24.381 53.638 48.762 68.267 34.133 19.505 53.638 48.762 58.514 87.771v24.381c0 19.505-9.752 29.257-24.381 34.133-9.752 4.876-19.505 4.876-29.257 4.876-73.143-4.876-156.038-4.876-234.057-4.876zM63.39 828.952s4.876 0 0 0c9.752 4.876 19.505 4.876 24.381 4.876H746.057c9.752 0 14.629 0 24.381-4.876l19.505-4.876h-14.629v-19.505c-4.876-29.257-19.505-48.762-43.886-63.39-34.133-19.505-53.638-53.638-63.39-87.771 0-9.752-4.876-19.505-4.876-29.257v-14.629c-9.752-63.39-9.752-121.905 0-180.419 4.876-24.381 4.876-53.638 0-82.895-9.752-73.143-53.638-136.533-117.029-170.667-68.267-39.01-146.286-43.886-214.552-19.505-102.4 39.01-165.79 141.41-151.162 253.562 0 29.257 4.876 58.514 4.876 87.771 0 39.01 0 78.019-4.876 117.029v19.505c-4.876 29.257-14.629 53.638-29.257 73.143-9.752 9.752-24.381 24.381-39.01 34.133-29.257 19.505-43.886 48.762-43.886 82.895l-4.876 4.876z"/><path d="M419.352 999.619c-43.886 0-87.771-29.257-102.4-73.143-4.876-14.629 4.876-24.381 19.505-24.381 4.876 0 9.752 4.876 14.629 14.629 19.505 43.886 73.143 63.39 112.152 34.133 14.629-9.752 24.381-19.505 29.257-34.133 4.876-9.752 14.629-14.629 24.381-9.752s14.629 14.629 9.752 24.381c-19.505 39.01-63.39 68.267-107.276 68.267z"/><path d="M419.352 1014.248c-53.638 0-102.4-34.133-117.029-82.895-4.876-14.629 0-24.381 4.876-34.133s19.505-14.629 29.257-9.752c19.505 4.876 24.381 19.505 24.381 24.381 4.876 19.505 19.505 29.257 39.01 34.133s34.133 4.876 53.638-4.876c9.752-4.876 19.505-14.629 24.381-29.257 9.752-19.505 24.381-29.257 43.886-19.505 19.505 4.876 24.381 24.381 14.629 43.886-19.505 48.762-63.39 78.019-117.029 78.019zM331.581 921.6c9.752 39.01 48.762 63.39 87.771 63.39 39.01 0 73.143-24.381 87.771-58.514V921.6l-4.876 4.876c-9.752 19.505-19.505 34.133-34.133 43.886-24.381 14.629-53.638 19.505-78.019 9.752s-48.762-29.257-58.514-58.514zM419.352 14.629c34.133 0 63.39 19.505 73.143 48.762 4.876 9.752 0 19.505-9.752 24.381s-19.505 0-24.381-9.752c-4.876-19.505-19.505-29.257-39.01-29.257s-34.133 9.752-39.01 29.257c-4.876 9.752-9.752 14.629-19.505 14.629s-14.629-4.876-14.629-14.629V63.391c14.629-29.257 43.886-48.762 73.143-48.762z"/><path d="M477.867 107.276c-14.629 0-29.257-9.752-34.133-24.381-4.876-9.752-14.629-19.505-24.381-19.505s-19.505 4.876-24.381 19.505c-9.752 19.505-24.381 24.381-34.133 24.381-14.629 0-29.257-9.752-29.257-24.381 0-4.876 0-14.629 4.876-19.505C346.21 24.38 380.344 0 419.353 0c39.01 0 73.143 24.381 87.771 63.39 4.876 19.505 0 34.133-19.505 43.886h-9.752zm-58.515-78.019c-24.381 0-48.762 14.629-58.514 39.01v4.876-4.876c14.629-19.505 34.133-34.133 58.514-39.01 0 4.876 0 4.876 0 0 24.381 0 43.886 14.629 53.638 39.01-4.876-19.505-29.257-39.01-53.638-39.01z"/></symbol><symbol viewBox="0 0 1024 1024" id="plus" xmlns="http://www.w3.org/2000/svg"><path d="M968.428 440.558H583.44V55.568c0-17.538-23.815-55.566-71.442-55.566s-71.442 38.03-71.442 55.566V440.56H55.566C38.03 440.558 0 464.373 0 511.998s38.03 71.442 55.566 71.442h384.992v384.992c0 17.534 23.813 55.566 71.442 55.566s71.442-38.032 71.442-55.566V583.44h384.992c17.534 0 55.566-23.813 55.566-71.442s-38.036-71.44-55.572-71.44z"/></symbol><symbol viewBox="0 0 512 512" id="podcast" xmlns="http://www.w3.org/2000/svg"><path d="M240 352c44.183 0 80-35.817 80-80V80c0-44.183-35.817-80-80-80s-80 35.817-80 80v192c0 44.183 35.818 80 80 80zm112-128v48c0 61.855-50.145 112-112 112s-112-50.145-112-112v-48H96v48c0 74.119 56.002 135.15 128 143.11V480h-64v32h160v-32h-64v-64.89c71.997-7.96 128-68.991 128-143.11v-48h-32z"/></symbol><symbol viewBox="0 0 1115 1024" id="print" xmlns="http://www.w3.org/2000/svg"><path d="M379.459 200.725h356.577c15.155 0 27.44 12.285 27.44 27.44s-12.285 27.44-27.44 27.44H379.459c-15.155 0-27.44-12.285-27.44-27.44s12.285-27.44 27.44-27.44zM379.459 374.48h356.577c15.155 0 27.44 12.285 27.44 27.44s-12.285 27.44-27.44 27.44H379.459c-15.155 0-27.44-12.285-27.44-27.44s12.285-27.44 27.44-27.44zM379.459 548.187h356.577c15.155 0 27.44 12.285 27.44 27.44s-12.285 27.44-27.44 27.44H379.459c-15.155 0-27.44-12.285-27.44-27.44s12.285-27.44 27.44-27.44z"/><path d="M1027.867 402.342H909.321V85.797C909.268 38.46 870.908.101 823.577.047H291.972c-47.346.053-85.716 38.407-85.797 85.742v316.553H87.629C39.233 402.342 0 441.575 0 489.971v446.368c0 48.396 39.233 87.629 87.629 87.629h940.238c48.396 0 87.629-39.233 87.629-87.629V489.971c0-48.396-39.233-87.629-87.629-87.629zM287.555 85.797a4.418 4.418 0 014.416-4.37h531.6a4.37 4.37 0 014.37 4.37v650.475a4.37 4.37 0 01-4.37 4.37H291.924a4.37 4.37 0 01-4.37-4.37z"/></symbol><symbol viewBox="0 0 1024 1024" id="publication" xmlns="http://www.w3.org/2000/svg"><path d="M184.981 786.168V251.045h-75.974a29.606 29.606 0 00-29.729 29.729v713.497A29.606 29.606 0 00109.007 1024h604.49a29.606 29.606 0 0029.729-29.729V875.355H274.168c-49.548 0-89.187-39.639-89.187-89.187z"/><path d="M914.994 0H274.168a29.606 29.606 0 00-29.729 29.729v756.439a29.606 29.606 0 0029.729 29.729h640.826a29.606 29.606 0 0029.729-29.729V29.729A29.606 29.606 0 00914.994 0zM584.671 640.826H383.174c-16.516 0-29.729-13.213-29.729-29.729s13.213-29.729 29.729-29.729h201.497c16.516 0 29.729 13.213 29.729 29.729s-13.213 29.729-29.729 29.729zm221.316-132.129H383.174c-16.516-3.303-29.729-16.516-26.426-33.032 0-13.213 13.213-26.426 26.426-26.426h422.813c16.516-3.303 33.032 9.91 33.032 26.426 3.303 16.516-9.91 33.032-26.426 33.032h-6.606zm0-135.433H383.174c-16.516 0-29.729-13.213-29.729-29.729s13.213-29.729 29.729-29.729h422.813c16.516 0 29.729 13.213 29.729 29.729s-13.213 29.729-29.729 29.729zm0-135.432H383.174c-16.516-3.303-29.729-16.516-26.426-33.032 0-13.213 13.213-26.426 26.426-26.426h422.813c16.516-3.303 33.032 9.91 33.032 26.426 3.303 16.516-9.91 33.032-26.426 33.032h-6.606z"/></symbol><symbol viewBox="0 0 512 512" id="rss" xmlns="http://www.w3.org/2000/svg"><path d="M68.147 375.465c-37.598 0-68.146 30.667-68.146 68.038 0 37.577 30.55 67.901 68.146 67.901 37.733 0 68.247-30.324 68.247-67.901-.001-37.371-30.512-68.038-68.247-68.038zM.078 173.965v98.129c63.892 0 123.979 24.986 169.229 70.256 45.192 45.159 70.141 105.518 70.141 169.65h98.561C338.008 325.59 186.368 173.965.078 173.965zM.194 0v98.178c227.891 0 413.378 185.667 413.378 413.822H512C512 229.765 282.373 0 .194 0z"/></symbol><symbol viewBox="0 0 1024 1024" id="share" xmlns="http://www.w3.org/2000/svg"><path d="M768 686.08c-32.318.146-61.697 12.608-83.711 32.931l.085-.077-304.213-177.067c2.234-8.897 3.621-19.165 3.838-29.721l.002-.145c-.219-10.701-1.606-20.97-4.04-30.826l.2.959 300.8-175.36c22.703 21.059 53.213 33.98 86.741 33.98 70.527 0 127.701-57.174 127.701-127.701S838.229 85.352 767.702 85.352c-70.527 0-127.701 57.174-127.701 127.701v.296-.015c.219 10.701 1.606 20.97 4.04 30.826l-.2-.959-300.8 175.36c-22.824-21.409-53.617-34.56-87.481-34.56-70.692 0-128 57.308-128 128s57.308 128 128 128c33.865 0 64.657-13.151 87.55-34.624l-.069.064 303.787 177.493c-2.11 8.309-3.351 17.862-3.413 27.694v.04c0 68.807 55.779 124.587 124.587 124.587s124.587-55.779 124.587-124.587c0-68.807-55.779-124.587-124.587-124.587z"/></symbol><symbol viewBox="0 0 1024 1024" id="statistics" xmlns="http://www.w3.org/2000/svg"><path d="M17.391 102.401h135.245c7.73 0 11.591 3.865 11.591 11.591v649.175c0 7.73-3.865 11.591-11.591 11.591H17.391c-7.73 0-11.591-3.865-11.591-11.591V113.992c0-7.73 7.73-11.591 11.591-11.591zM303.336-56.029h135.245c7.73 0 15.456 7.73 15.456 15.456v807.606c0 7.73-7.73 15.456-15.456 15.456H303.336c-7.73 0-15.456-7.73-15.456-15.456V-44.438c0-7.73 7.73-11.591 15.456-11.591zM585.42 233.781h135.245c7.73 0 11.591 3.865 11.591 11.591v517.796c0 7.73-3.865 11.591-11.591 11.591H585.42c-7.73 0-11.591-3.865-11.591-11.591V245.372c0-7.73 7.73-11.591 11.591-11.591zM871.365 384.482h135.245c3.865 0 7.73 3.865 7.73 7.73v370.96c0 3.865-3.865 7.73-7.73 7.73H871.365c-3.865 0-7.73-3.865-7.73-7.73v-370.96c-3.865-3.865 0-7.73 7.73-7.73zM987.288 875.23H32.843c-19.321 0-34.777 15.456-34.777 34.777s15.456 34.777 34.777 34.777h954.445c19.321 0 34.777-15.456 34.777-34.777 0-23.186-15.456-34.777-34.777-34.777z"/></symbol><symbol viewBox="0 0 1024 1024" id="table" xmlns="http://www.w3.org/2000/svg"><path d="M1024 203.711V81.605c0-24.18-20.553-44.733-44.733-44.733H730.219V203.71h293.78zM359.066 271.413v715.712h302.243V271.413H359.066zm88.253 88.256h120.898c19.343 1.21 33.85 16.926 32.643 36.269-1.21 16.926-14.507 31.433-32.643 32.643H447.319c-19.343-1.21-33.85-16.926-32.643-36.269 1.21-18.134 14.507-31.433 32.643-32.643zm120.899 512.604H447.32c-19.343-1.21-33.85-16.926-32.643-36.269 1.21-16.926 14.507-31.433 32.643-32.643h120.898c19.343 1.21 33.85 16.926 32.643 36.269-2.417 18.134-15.717 31.433-32.643 32.643zm0-222.451H447.32c-19.343-1.21-33.85-16.926-32.643-36.269 1.21-16.926 14.507-31.433 32.643-32.643h120.898c19.343 1.21 33.85 16.926 32.643 36.269-2.417 18.134-15.717 31.433-32.643 32.643zM0 271.413v670.98c0 24.18 20.553 44.733 44.733 44.733h245.421V271.414H0zm77.375 88.256h120.898c19.343 1.21 33.85 16.926 32.643 36.269-1.21 16.926-14.507 31.433-32.643 32.643H77.375c-19.343-1.21-33.85-16.926-32.643-36.269 1.21-18.134 15.717-31.433 32.643-32.643zm120.896 512.604H77.373c-19.343-1.21-33.85-16.926-32.643-36.269 1.21-16.926 14.507-31.433 32.643-32.643h120.898c19.343 1.21 33.85 16.926 32.643 36.269-1.21 18.134-15.717 31.433-32.643 32.643zm0-222.451H77.373c-19.343-1.21-33.85-16.926-32.643-36.269 1.21-16.926 14.507-31.433 32.643-32.643h120.898c19.343 1.21 33.85 16.926 32.643 36.269-1.21 18.134-15.717 31.433-32.643 32.643zM290.154 36.872H44.733C20.553 36.872 0 57.425 0 81.605v122.106h290.154V36.873zM359.066 36.872h302.243V203.71H359.066V36.872zM730.22 987.126h249.048c24.18 0 44.733-19.343 44.733-44.733v-670.98h-293.78v715.712zm205.524-114.853H814.846c-19.343-1.21-33.85-16.926-32.643-36.269 1.21-16.926 14.507-31.433 32.643-32.643h120.898c19.343 1.21 33.85 16.926 32.643 36.269-1.21 18.134-15.717 31.433-32.643 32.643zM814.848 359.669h120.898c19.343 1.21 33.85 16.926 32.643 36.269-1.21 16.926-14.507 31.433-32.643 32.643H814.848c-19.343-1.21-33.85-16.926-32.643-36.269 1.21-18.134 15.717-31.433 32.643-32.643zm0 221.241h120.898c19.343 1.21 33.85 16.926 32.643 36.269-1.21 16.926-14.507 31.433-32.643 32.643H814.848c-19.343-1.21-33.85-16.926-32.643-36.269 1.21-16.926 15.717-31.433 32.643-32.643z"/></symbol><symbol viewBox="0 0 1024 1024" id="topic" xmlns="http://www.w3.org/2000/svg"><path d="M760.479 1010.513l177.41-184.673h-177.41zM349.635 421.221c-2.074-5.187-6.225-7.263-11.413-5.187-3.112 1.038-5.187 3.112-5.187 5.187l-18.676 56.025c-1.038 5.187 1.038 9.337 5.187 11.413h40.461c5.187 0 8.301-4.15 8.301-9.337v-2.074l-18.676-56.025z"/><path d="M912.989 0H111.013c-20.75 0-38.387 17.638-38.387 38.387v947.225c0 20.75 17.638 38.387 38.387 38.387H702.38V796.79c0-16.6 13.487-29.049 29.049-29.049h219.946V38.388c0-20.75-17.638-38.387-38.387-38.387zM669.18 260.41c13.487-13.487 36.311-13.487 49.799 0 13.487 13.487 13.487 36.311 0 49.799s-36.311 13.487-49.799 0c-13.487-13.487-13.487-35.275 0-49.799zM441.971 579.955h-35.275c-4.15 0-7.263-2.074-8.301-6.225l-11.413-37.349c-1.038-4.15-4.15-6.225-8.301-6.225h-75.737c-4.15 0-7.263 2.074-8.301 6.225l-12.449 37.349c-1.038 4.15-4.15 6.225-8.301 6.225h-33.199c-5.187 0-8.301-4.15-8.301-9.337v-3.112l78.849-220.984c1.038-3.112 4.15-6.225 8.301-6.225h43.574c4.15 0 7.263 2.074 8.301 6.225l78.849 222.022c2.074 4.15-1.038 9.337-5.187 11.413h-3.112zm116.197-79.885c0 5.187-4.15 9.337-8.301 9.337h-72.625c-5.187 0-9.337-4.15-9.337-8.301V475.17c0-5.187 4.15-9.337 8.301-9.337h72.625a9.298 9.298 0 019.337 9.337v24.9zm234.474 79.885h-35.275c-4.15 0-7.263-2.074-8.301-6.225l-11.413-37.349c-1.038-4.15-4.15-6.225-8.301-6.225h-74.699c-4.15 0-7.263 2.074-8.301 6.225l-12.449 37.349c-1.038 4.15-4.15 6.225-8.301 6.225h-33.199a9.298 9.298 0 01-9.337-9.337c0-1.038 0-2.074 1.038-3.112l78.849-222.022c1.038-3.112 4.15-6.225 8.301-6.225h43.574c4.15 0 7.263 2.074 8.301 6.225l78.849 222.022c2.074 4.15-1.038 9.337-5.187 11.413-2.074 1.038-3.112 1.038-4.15 1.038z"/><path d="M700.305 421.221c-1.038-5.187-6.225-7.263-11.413-6.225-3.112 1.038-5.187 3.112-6.225 6.225l-18.676 56.025c-1.038 5.187 1.038 9.337 5.187 11.413h40.461a9.298 9.298 0 009.337-9.337v-3.112L700.3 421.223zM694.081 294.647a9.298 9.298 0 009.337-9.337c0-2.074-1.038-5.187-3.112-7.263s-4.15-3.112-7.263-3.112c-2.074 0-5.187 1.038-7.263 3.112-4.15 4.15-4.15 9.337 0 13.487 3.112 2.074 6.225 3.112 8.301 3.112z"/></symbol><symbol viewBox="0 0 512 512" id="twitter" xmlns="http://www.w3.org/2000/svg"><path d="M512 113.2c-18.8 8.4-39.1 14-60.3 16.5 21.7-13 38.3-33.6 46.2-58.1-20.3 12-42.8 20.8-66.7 25.5C412 76.7 384.7 64 354.5 64c-58 0-105 47-105 105 0 8.2.9 16.2 2.7 23.9-87.3-4.4-164.7-46.2-216.5-109.8-9 15.5-14.2 33.6-14.2 52.8 0 36.4 18.5 68.6 46.7 87.4-17.2-.5-33.4-5.3-47.6-13.1v1.3c0 50.9 36.2 93.4 84.3 103-8.8 2.4-18.1 3.7-27.7 3.7-6.8 0-13.3-.7-19.8-1.9 13.4 41.7 52.2 72.1 98.1 73-36 28.2-81.2 45-130.5 45-8.5 0-16.8-.5-25.1-1.5C46.5 462.7 101.7 480 161 480c193.2 0 298.9-160.1 298.9-298.9 0-4.6-.1-9.1-.3-13.6 20.5-14.7 38.3-33.2 52.4-54.3z"/></symbol><symbol viewBox="0 0 1024 1024" id="video" xmlns="http://www.w3.org/2000/svg"><path d="M690.45 315.205l130.085-163.44H607.063l-130.085 163.44zM1024 315.205V215.14c0-36.691-30.02-66.71-66.71-66.71h-63.375L763.83 315.205h260.169zM3.335 808.86c0 36.691 30.02 66.71 66.71 66.71h887.244c36.691 0 66.71-30.02 66.71-66.71V375.244H3.334V808.86zm376.913-330.215c0-10.007 3.336-20.013 13.342-23.349s20.013-3.336 26.684 0l250.163 136.756c13.342 6.671 16.678 23.349 10.007 36.691l-10.007 10.007-250.163 136.756c-6.671 3.336-10.007 3.336-13.342 3.336s-10.007 0-13.342-3.336c-6.671-3.336-13.342-13.342-13.342-23.349V478.646zM403.596 315.205l130.085-163.44H320.209l-133.42 163.44zM243.492 151.765H66.71c-36.691 0-66.71 30.02-66.71 66.71V318.54h110.072l133.42-166.775z"/></symbol><symbol viewBox="0 0 512 512" id="youtube" xmlns="http://www.w3.org/2000/svg"><path d="M506.9 153.6s-5-35.3-20.4-50.8c-19.5-20.4-41.3-20.5-51.3-21.7-71.6-5.2-179.1-5.2-179.1-5.2h-.2s-107.5 0-179.1 5.2c-10 1.2-31.8 1.3-51.3 21.7-15.4 15.5-20.3 50.8-20.3 50.8S.1 195 .1 236.5v38.8c0 41.4 5.1 82.9 5.1 82.9s5 35.3 20.3 50.8C45 429.4 70.6 428.7 82 430.9c41 3.9 174.1 5.1 174.1 5.1s107.6-.2 179.2-5.3c10-1.2 31.8-1.3 51.3-21.7 15.4-15.5 20.4-50.8 20.4-50.8s5.1-41.4 5.1-82.9v-38.8c-.1-41.4-5.2-82.9-5.2-82.9zM203.1 322.4V178.5l138.3 72.2-138.3 71.7z"/></symbol></svg>