<?xml version="1.0" encoding="UTF-8" standalone="no"?>
<!-- Created with Inkscape (http://www.inkscape.org/) -->

<svg
   xmlns:svg="http://www.w3.org/2000/svg"
   xmlns="http://www.w3.org/2000/svg"
   version="1.1"
   width="390"
   height="480"
   id="svg4228">
  <defs
     id="defs4232" />
  <path
     d="m 0.51202379,0.50512952 c 129.66265621,0 259.32532621,0 388.98797621,0 C 389.48983,115.23328 370.33544,349.8309 194.89467,479.37706 21.249382,349.77255 0.5931986,115.2575 0.51202379,0.50512952 z"
     id="path4240-0-1"
     style="fill:#e0e0e0;fill-opacity:1;stroke:#999999;stroke-width:0.99999905;stroke-opacity:1" />
  <path
     d="m 43.09245,264.57247 c 28.684765,38.88492 61.82971,50.51509 107.70086,42.47565 -43.65032,-18.28499 -73.418677,-49.93071 -67.483802,-115.93904 42.651132,64.04613 76.465892,76.16562 119.957852,60.00353 -48.45962,-11.525 -72.97074,-76.72034 -65.68263,-121.78683 26.09389,44.91562 64.56966,74.3278 118.27676,64.45294 C 202.49186,164.341 183.17693,122.13494 191.37964,72.246151 209.30524,106.914 247.89216,148.25913 308.93594,138.09748 264.05542,123.01934 235.60617,65.074103 243.85369,15.166517 269.91033,62.778407 308.87392,94.365133 363.09107,82.797621 332.0651,70.944539 302.75762,28.23426 293.41414,1.0077604 L 388.99843,0.98901 C 388.83181,164.10665 350.04722,363.75682 194.89577,478.78669 104.29524,410.75329 64.988297,324.83116 43.09245,264.57247 z"
     id="path5159"
     style="fill:#008c31;fill-opacity:1;stroke:none" />
</svg>
