<svg xmlns="http://www.w3.org/2000/svg" xmlns:xlink="http://www.w3.org/1999/xlink" viewBox="0 0 127 36" preserveAspectRatio="xMidYMin"><g fill-rule="evenodd"><g transform="translate(99)"><path d="M20.444 20.258c-2.988 2.55-7.31 2.572-10.311.267 4.893-2.434 8.995-5.811 12.282-10.112a8.122 8.122 0 0 1-1.971 9.845M9.803 7.91a8.158 8.158 0 0 1 5.314-1.956c1.508 0 3.01.416 4.321 1.226a30.697 30.697 0 0 1-4.905 5.333c-2.08 1.776-4.434 3.275-7.035 4.494a8.123 8.123 0 0 1 2.305-9.097m15.404-1.708c.914-1.596 1.438-2.568 2.175-4.36L23.39.176c-.53 1.188-.84 1.877-1.485 3.073C17.277.386 11.126.683 6.777 4.395 2.543 8.01 1.263 13.795 3.17 18.7c-.96.307-1.947.584-2.96.826l1.008 4.187a44.593 44.593 0 0 0 4.248-1.235c2.528 2.883 6.087 4.363 9.667 4.363 2.955 0 5.924-1.008 8.338-3.069 5.226-4.461 5.952-12.233 1.737-17.57"/></g><path d="M12.793 2c-1.499 0-2.944.381-4.336 1.144-1.391.762-2.587 1.815-3.586 3.159l-.696-3.758H0V27h4.871V11.041c.892-1.452 1.918-2.568 3.078-3.35 1.159-.78 2.364-1.17 3.613-1.17 1.748 0 3.113.599 4.095 1.797.981 1.198 1.472 2.85 1.472 4.956V27H22V12.675c0-3.34-.812-5.954-2.436-7.843C17.94 2.945 15.684 2 12.794 2M61.542 12.394c-2.178-.603-3.657-1.172-4.437-1.705-.781-.533-1.17-1.226-1.17-2.08 0-.816.344-1.473 1.034-1.971.689-.498 1.614-.747 2.776-.747.98 0 2.005.214 3.076.64a10.2 10.2 0 0 1 2.858 1.706l2.504-3.412a12.648 12.648 0 0 0-3.892-2.105A14.06 14.06 0 0 0 59.799 2c-2.54 0-4.6.622-6.179 1.866-1.579 1.244-2.368 2.86-2.368 4.85 0 1.92.617 3.465 1.851 4.638s3.285 2.168 6.152 2.985c1.996.569 3.34 1.093 4.029 1.573.689.48 1.034 1.128 1.034 1.945 0 .96-.417 1.733-1.252 2.319-.835.586-1.942.88-3.32.88a9.21 9.21 0 0 1-3.73-.773c-1.18-.515-2.332-1.288-3.457-2.32L50 23.376c1.451 1.209 2.985 2.115 4.6 2.719 1.615.604 3.33.906 5.145.906 2.794 0 5.036-.657 6.723-1.972C68.156 23.714 69 21.954 69 19.75c0-1.812-.608-3.312-1.824-4.504-1.216-1.19-3.094-2.14-5.634-2.852M86.793 2c-1.499 0-2.944.381-4.335 1.144-1.392.762-2.588 1.815-3.587 3.159l-.696-3.758H74V27h4.87V11.041c.893-1.452 1.919-2.568 3.079-3.35 1.16-.78 2.364-1.17 3.613-1.17 1.748 0 3.113.599 4.095 1.797.98 1.198 1.472 2.85 1.472 4.956V27H96V12.675c0-3.34-.812-5.954-2.435-7.843C91.94 2.945 89.684 2 86.793 2M45 2l-7.387 18.551-7.338-18.516H25L35.523 26.14 31.461 36l4.748-.137L49.23 3.892 50 2.035h-.014L50 2z"/></g></svg>