<?xml version="1.0" encoding="UTF-8" standalone="no"?>
<!-- Created with Inkscape (http://www.inkscape.org/) -->
<!DOCTYPE svg PUBLIC "-//W3C//DTD SVG 1.1//EN" "http://www.w3.org/Graphics/SVG/1.1/DTD/svg11.dtd">
<svg
   xmlns:svg="http://www.w3.org/2000/svg"
   xmlns="http://www.w3.org/2000/svg"
   version="1.1"
   width="400"
   height="550"
   id="svg2816"
   xml:space="preserve"><defs
     id="defs2820"><clipPath
       id="clipPath2834"><path
         d="m -0.44498,595.138 841.89,0 0,-595.276 -841.89,0 0,595.276 z"
         id="path2836" /></clipPath><clipPath
       id="clipPath2840"><path
         d="m 0,595.26 841.92,0 L 841.92,0 0,0 0,595.26 z"
         id="path2842" /></clipPath><clipPath
       id="clipPath2918"><path
         d="m -0.44498,595.138 841.89,0 0,-595.276 -841.89,0 0,595.276 z"
         id="path2920" /></clipPath><clipPath
       id="clipPath2924"><path
         d="m 0,595.26 841.92,0 L 841.92,0 0,0 0,595.26 z"
         id="path2926" /></clipPath></defs><g
     transform="matrix(1.25,0,0,-1.25,0,550.00003)"
     id="g2826"><g
       transform="matrix(10.3889,0,0,10.3889,-5120.8737,423.82298)"
       id="g2974"><path
         d="m 517.79285,-39.097301 c 0.16,0.399 1.194,3.108 1.48,7.032 0,0 0.036,0.658 0.006,1.155 -0.041,0.707 -0.074,1.855 -0.633,3.127 -0.847,1.926 -2.403,3.494 -5.386,5.957 l -2.345,1.929 c -5.523,4.533 -6.775,7.763 -6.775,11.3070004 0,5.575 4.169,9.37899998 10.787,9.37899998 2.032,0 3.542,-0.208 4.847,-0.521 0.989,-0.208 1.406,-0.261 1.822,-0.261 0.418,0 0.522,-0.104 0.522,-0.364 0,-0.261 -0.209,-1.98099998 -0.209,-5.52399998 0,-0.834 -0.104,-1.198 -0.365,-1.198 -0.313,0 -0.364,0.261 -0.418,0.677 -0.05,0.626 -0.363,2.032 -0.676,2.606 -0.311,0.573 -1.72,2.761 -6.513,2.761 -3.595,0 -6.408,-2.24 -6.408,-6.044 0,-2.9710004 1.353,-4.8460004 6.357,-8.7530004 l 1.459,-1.147 c 6.147,-4.847 7.605,-8.077 7.605,-12.246 0,-2.127 -1.569,-7.325 -5.13,-9.89 -0.016,-0.011 -0.041,-0.016 -0.027,0.018"
         id="path2866"
         style="fill:#153680;fill-opacity:1;fill-rule:nonzero;stroke:none" /><path
         d="m 506.61885,-38.609301 c 0.008,-0.008 0.007,-0.016 9.6e-4,-0.024 -0.715,-0.954 -2.975,-1.394 -4.287,-1.394 -1.111,0 -3.126,0.063 -4.658,1.448 -1.07,0.966 -1.868,2.518 -1.868,5.561 l 0,3.065 c 0,3.189 0,3.777 -0.041,4.448 -0.042,0.714 -0.21096,1.05 -0.90296,1.196 -0.168,0.042 -0.524,0.064 -0.818,0.064 -0.231,0 -0.357,0.041 -0.357,0.188 0,0.147 0.148,0.189 0.461,0.189 1.114,0 2.435,-0.063 3.065,-0.063 0.503,0 1.826,0.063 2.581,0.063 0.314,0 0.462,-0.042 0.462,-0.189 0,-0.147 -0.127,-0.188 -0.336,-0.188 -0.231,0 -0.357,-0.022 -0.608,-0.064 -0.568,-0.105 -0.735,-0.462 -0.777,-1.196 -0.042,-0.671 -0.042,-1.259 -0.042,-4.448 l 0,-2.938 c 0,-3.043 0.605,-4.328 1.636,-5.163 0.884,-0.715 1.643,-0.886 2.277,-1.044 1.308,-0.323 3.295,-0.264 4.187,0.486 0.006,0.006 0.017,0.011 0.025,0.003"
         id="path2868"
         style="fill:#8888ba;fill-opacity:1;fill-rule:nonzero;stroke:none" /><path
         d="m 506.25885,-28.917301 c 0,2.64 0,3.126 -0.034,3.682 -0.035,0.591 -0.208,0.885 -0.59,0.972 -0.192,0.052 -0.418,0.07 -0.625,0.07 -0.175,0 -0.28,0.035 -0.28,0.174 0,0.104 0.14,0.139 0.419,0.139 0.659,0 1.753,-0.053 2.257,-0.053 0.435,0 1.459,0.053 2.12,0.053 0.225,0 0.363,-0.035 0.363,-0.139 0,-0.139 -0.104,-0.174 -0.278,-0.174 -0.173,0 -0.311,-0.018 -0.519,-0.052 -0.469,-0.087 -0.608,-0.382 -0.642,-0.99 -0.036,-0.556 -0.036,-1.042 -0.036,-3.682 l 0,-3.058 c 0,-1.685 0,-2.175 0.07,-2.92 0.051,-0.47 0.173,-0.783 0.694,-0.853 0.244,-0.034 0.625,-0.069 0.886,-0.069 0.19,0 0.278,-0.051 0.278,-0.139 0,-0.122 -0.14,-0.174 -0.33,-0.174 -1.147,0 -2.24,0.052 -2.71,0.052 -0.4,0 -1.494,-0.052 -2.188,-0.052 -0.226,0 -0.348,0.052 -0.348,0.174 0,0.088 0.069,0.139 0.278,0.139 0.261,0 0.469,0.035 0.625,0.069 0.348,0.07 0.452,0.366 0.504,0.87 0.086,0.728 0.086,1.218 0.086,2.903 l 0,3.058"
         id="path2870"
         style="fill:#8888ba;fill-opacity:1;fill-rule:nonzero;stroke:none" /></g></g></svg>