<svg xmlns="http://www.w3.org/2000/svg" xmlns:xlink="http://www.w3.org/1999/xlink" width="247.672" height="74.745" viewBox="0 0 247.672 74.745">
  <defs>
    <clipPath id="clip-NFK-logo-test">
      <rect width="247.673" height="74.745"/>
    </clipPath>
  </defs>
  <g id="NFK-logo-test" clip-path="url(#clip-NFK-logo-test)">
    <g id="Group_3099" data-name="Group 3099" transform="translate(-413 -79)">
      <g id="Group_834" data-name="Group 834" transform="translate(413 79)">
        <g id="Group_830" data-name="Group 830" transform="translate(0 0)">
          <g id="Group_828" data-name="Group 828">
            <path id="Path_1125" data-name="Path 1125" d="M252.236,248.592v26.973c0,27.024,29.909,47.132,29.909,47.132s29.913-20.108,29.913-47.132V248.592Z" transform="translate(-251.946 -248.302)" fill="#ffc900" style="isolation: isolate"/>
            <path id="Path_1126" data-name="Path 1126" d="M251.837,248.193v27.263c0,26.868,29.737,47.171,30.036,47.374l.163.108.161-.108c.3-.2,30.042-20.5,30.042-47.374V248.193Zm59.821.581v26.682c0,25.572-27.33,45.181-29.622,46.778-2.292-1.6-29.618-21.206-29.618-46.778V248.774Z" transform="translate(-251.837 -248.193)" fill="#1a1818"/>
          </g>
          <g id="Group_829" data-name="Group 829" transform="translate(6.474 3.995)">
            <path id="Path_1127" data-name="Path 1127" d="M269.014,261.6s-1.1.007-1.238,0c-.233-.018-.345-.874.134-.9l37.356.951c.334.015.254.874-.3.874h-.88s-18.435,14.126-15.634,26.931c.689,3.146,4.581,7.33,4.581,7.33l-.946.178a15.348,15.348,0,0,0-6.225-4.57c-2.725-.952-5.751.943-2.247,4.631l.142.348S267.639,286.978,269.014,261.6Z" transform="translate(-262.601 -255.596)" fill="#1a1818"/>
            <path id="Path_1128" data-name="Path 1128" d="M292.822,259.437l-.211-5.632-.507-.12-.076,5.708Z" transform="translate(-269.264 -253.685)" fill="#1a1818"/>
            <path id="Path_1129" data-name="Path 1129" d="M288.009,257.378s-1.713-.127-1.679-1.376c.026-1.045,1.345-1.147,1.345-1.147l.334-.5a1.667,1.667,0,0,0-.95.247c-.323.234-.538.475-1.037.3a5.23,5.23,0,0,0-1.781-.552,3.073,3.073,0,0,0-1.6.613s-.618.5-1.777-.437a2.315,2.315,0,0,0-1.774-.45c-.637.088-.542.522-1.992,1.061,0,0-1.051.272-1.215-.119,0,0-.468.8.884.94.724.073,1.627-.492,2.2-.474,1.35.02,1.3.443,1.656.768a2.5,2.5,0,0,0,2.491.37c.9-.463.94-.453,1.241-.429s.335.6,1.658.671a2.206,2.206,0,0,0,1.826.951Z" transform="translate(-264.843 -253.786)" fill="#1a1818"/>
            <path id="Path_1130" data-name="Path 1130" d="M318.148,291.31s.04-.329.861-.517c.068-.012.48.051.191.664l-.061.142a10.3,10.3,0,0,0-.33,2.494l-.274,6.279a4.089,4.089,0,0,0,.706,2.406,4.222,4.222,0,0,1,.5,2.449s-.4,3.343-.442,3.5a1.036,1.036,0,0,1-1.216.894s-1.051-.162-.989-1.064C317.106,308.4,318.2,291.481,318.148,291.31Z" transform="translate(-276.096 -263.798)" fill="#1a1818"/>
            <path id="Path_1131" data-name="Path 1131" d="M313.827,305.129l-10.967,2.163a2.576,2.576,0,0,0-.489.556s-.338.606.236.555c.022,0,.089-.1.089-.1s.164-.451.5-.5l10.746-2.232Z" transform="translate(-272.056 -267.705)" fill="#1a1818"/>
            <path id="Path_1132" data-name="Path 1132" d="M291.05,303.573l-.056,5.024,1.162.28.114-5.651Z" transform="translate(-268.982 -267.186)" fill="#1a1818"/>
            <path id="Path_1133" data-name="Path 1133" d="M302.917,288.465s-.455,15.821-.844,16.99a2.793,2.793,0,0,1-2.369,2.406s-30.062,0-31.065-.035c0,0-3.882-.3-3.936-3.918,0,0-.8-19.063-.634-20.847,0,0,.22-.273.715.163l1.054.784s.332.3.049,1.061c0,0-1.432,6.395-.049,10.179,0,0,1.371,6.008,5.723,6.563a137.983,137.983,0,0,0,24.3.616,7.166,7.166,0,0,0,5.729-6.013s1.047-5.062-.226-8.733c0,0-.163-.334.727-.055C302.095,287.625,302.969,288.019,302.917,288.465Z" transform="translate(-261.639 -261.667)" fill="#1a1818"/>
            <path id="Path_1134" data-name="Path 1134" d="M264.106,295.07a.543.543,0,0,0,.661,0s-.209-.669.17-.756c0,0,1.851-.065,2.136-.1,0,0,.45.163.017.661,0,0-2.486,2.744-2.615,2.744l-.863.035s-2.146-2.119-2.734-2.835c0,0-.41-.415.167-.456h1.571s.332.041.373.333a.994.994,0,0,1,0,.413.508.508,0,0,0,.577.129C263.845,295.136,264.106,295.07,264.106,295.07Z" transform="translate(-260.737 -264.729)" fill="#1a1818"/>
          </g>
        </g>
        <g id="Group_831" data-name="Group 831" transform="translate(77.815 57.544)">
          <path id="Path_1135" data-name="Path 1135" d="M365.884,329.807c-2.019-.023-3.574-.045-4.906-.09V334.2c1.243-.022,2.665-.044,4.484-.067.533,0,.556.246.556.717v.314c0,.471-.024.718-.556.718-1.819-.024-3.241-.045-4.484-.068v6.391c0,.515-.135.65-.555.65h-.933c-.554,0-.688-.089-.688-.65V328.461c0-.559.244-.582.688-.582h6.394c.356,0,.555.065.555.582v.629C366.439,329.56,366.417,329.807,365.884,329.807Z" transform="translate(-358.802 -327.453)" fill="#1a1818"/>
          <path id="Path_1136" data-name="Path 1136" d="M383.144,328.73l-4.395,8.3v5.18c0,.515-.155.65-.555.65h-.931c-.578,0-.69-.089-.69-.65v-4.977l-4.485-8.5a.981.981,0,0,1-.133-.493c0-.247.178-.358.467-.358H373.6a.669.669,0,0,1,.756.47l3.306,6.435,3.419-6.435a.668.668,0,0,1,.755-.47h.956c.288,0,.487.111.487.358A.78.78,0,0,1,383.144,328.73Z" transform="translate(-362.386 -327.453)" fill="#1a1818"/>
          <path id="Path_1137" data-name="Path 1137" d="M398.064,342.855H391.87c-.555,0-.689-.089-.689-.65V328.461c0-.559.244-.582.689-.582h.932c.49,0,.555.2.555.582v12.532c1.288-.02,2.776-.042,4.708-.066.533,0,.533.247.533.718v.628C398.6,342.788,398.42,342.855,398.064,342.855Z" transform="translate(-367.626 -327.453)" fill="#1a1818"/>
          <path id="Path_1138" data-name="Path 1138" d="M414.7,342.855h-1.508a1.137,1.137,0,0,1-1.047-.493l-5.238-5.7v5.539c0,.515-.133.65-.555.65h-.932c-.555,0-.689-.089-.689-.65V328.461c0-.559.244-.582.689-.582h.932c.49,0,.555.2.555.582v6.189l5.238-6.278c.358-.428.49-.493.936-.493h1.132c.487,0,.51.335.266.626l-5.706,6.883,6.082,6.659C415.28,342.5,415.146,342.855,414.7,342.855Z" transform="translate(-371.319 -327.453)" fill="#1a1818"/>
          <path id="Path_1139" data-name="Path 1139" d="M430.155,342.855h-6.819c-.554,0-.688-.089-.688-.65V328.461c0-.559.244-.582.688-.582h6.819c.352,0,.554.065.554.582v.629c0,.47-.023.717-.554.717-2.024-.023-3.954-.045-5.331-.09v4.507c1.311-.044,2.842-.067,4.841-.089.534,0,.554.246.554.717v.314c0,.471-.02.718-.554.718-2-.024-3.53-.045-4.841-.089v5.224c1.377-.045,3.307-.067,5.331-.091.53,0,.554.247.554.718v.628C430.709,342.788,430.507,342.855,430.155,342.855Z" transform="translate(-376.201 -327.453)" fill="#1a1818"/>
          <path id="Path_1140" data-name="Path 1140" d="M445.613,341.427c-.732,1.5-2.709,1.569-4.217,1.569-1.244,0-2.464-.111-3.2-.178-.577-.046-.777-.09-.777-.426v-.783c0-.517.024-.741.444-.741,1.221,0,.934.18,3.863.18,1.578,0,2.156-.156,2.156-1.907,0-1.658-.023-2.017-1.022-2.444-.91-.4-1.841-.806-2.754-1.233-2.175-1.008-2.532-1.366-2.532-3.991a3.784,3.784,0,0,1,.844-3c.89-.829,2.177-.805,4.019-.805,1,0,1.532.044,2.487.111.554.046.777.089.777.426v.784c0,.516-.023.741-.445.741-.866,0-.644-.112-2.4-.112-.4,0-1.177-.023-1.576-.023-1.576,0-1.6.673-1.6,2.108,0,1.054.067,1.3,1,1.749.6.268,1.221.538,1.82.807,2.84,1.277,3.487,1.591,3.487,4.08A8.43,8.43,0,0,1,445.613,341.427Z" transform="translate(-380.227 -327.394)" fill="#1a1818"/>
          <path id="Path_1141" data-name="Path 1141" d="M463.717,342.855h-1.509a1.131,1.131,0,0,1-1.045-.493l-5.24-5.7v5.539c0,.515-.132.65-.555.65h-.931c-.555,0-.687-.089-.687-.65V328.461c0-.559.242-.582.688-.582h.931c.49,0,.555.2.555.582v6.189l5.24-6.278c.356-.428.49-.493.934-.493h1.132c.487,0,.511.335.267.626l-5.7,6.883,6.082,6.659C464.295,342.5,464.162,342.855,463.717,342.855Z" transform="translate(-384.677 -327.453)" fill="#1a1818"/>
          <path id="Path_1142" data-name="Path 1142" d="M481.605,341.17a5.986,5.986,0,0,1-8.924,0c-1.267-1.726-1.444-3.832-1.444-5.941s.177-4.236,1.444-5.964a6.034,6.034,0,0,1,8.924,0c1.265,1.728,1.444,3.858,1.444,5.964S482.87,339.445,481.605,341.17Zm-1.376-10.177a3.6,3.6,0,0,0-6.173,0,17.035,17.035,0,0,0,0,8.452,3.6,3.6,0,0,0,6.173,0,17.035,17.035,0,0,0,0-8.452Z" transform="translate(-389.443 -327.293)" fill="#1a1818"/>
          <path id="Path_1143" data-name="Path 1143" d="M505.677,342.855h-.932c-.4,0-.534-.135-.555-.65l-.666-11.5c-.18.584-.445,1.637-.666,2.265-.911,2.668-1.91,5.605-2.6,7.444-.175.492-.331.674-.842.674h-.576c-.513,0-.645-.182-.823-.674-.687-1.838-1.731-4.775-2.641-7.444-.223-.628-.467-1.68-.622-2.265l-.711,11.5c-.023.515-.134.65-.556.65h-.933c-.554,0-.732-.089-.687-.65L493,328.461c.043-.559.243-.582.687-.582h1.244c.487,0,.6.111.733.47.909,2.444,2.4,6.771,3.465,9.91,1.064-3.139,2.552-7.466,3.44-9.91.134-.359.268-.47.754-.47h1.243c.444,0,.623.023.668.582l1.13,13.744C506.411,342.765,506.254,342.855,505.677,342.855Z" transform="translate(-395.063 -327.453)" fill="#1a1818"/>
          <path id="Path_1144" data-name="Path 1144" d="M530,342.855h-.934c-.4,0-.533-.135-.554-.65l-.668-11.5c-.177.584-.443,1.637-.666,2.265-.909,2.668-1.907,5.605-2.6,7.444-.177.492-.334.674-.842.674h-.578c-.51,0-.642-.182-.822-.674-.687-1.838-1.73-4.775-2.64-7.444-.222-.628-.468-1.68-.621-2.265l-.712,11.5c-.022.515-.132.65-.554.65h-.933c-.556,0-.733-.089-.688-.65l1.13-13.744c.047-.559.246-.582.689-.582h1.244c.489,0,.6.111.733.47.909,2.444,2.4,6.771,3.463,9.91,1.067-3.139,2.554-7.466,3.441-9.91.134-.359.266-.47.756-.47h1.243c.445,0,.622.023.665.582l1.134,13.744C530.735,342.765,530.581,342.855,530,342.855Z" transform="translate(-401.692 -327.453)" fill="#1a1818"/>
          <path id="Path_1145" data-name="Path 1145" d="M551.465,339.156a5.414,5.414,0,0,1-1.243,2.868c-.755.807-1.975,1.166-4.108,1.166-2.108,0-3.33-.359-4.084-1.166a5.4,5.4,0,0,1-1.243-2.868,33.639,33.639,0,0,1-.268-5.719v-4.977c0-.559.244-.582.689-.582h.931c.49,0,.557.2.557.582v6.95c0,2.623.111,3.521.51,4.418.445,1.008,1.264,1.389,2.908,1.389,1.666,0,2.489-.381,2.93-1.389.4-.9.511-1.795.511-4.418v-6.95c0-.559.268-.582.711-.582h.932c.488,0,.533.2.533.582v4.977A34.008,34.008,0,0,1,551.465,339.156Z" transform="translate(-408.323 -327.453)" fill="#1a1818"/>
          <path id="Path_1146" data-name="Path 1146" d="M571.2,342.855h-.733c-.378,0-.645.023-.909-.336-1.8-2.6-4.751-7.287-6.908-10.672v10.359c0,.515-.153.65-.554.65h-.93c-.579,0-.69-.089-.69-.65V328.461c0-.559.222-.582.69-.582h.621c.466,0,.6.023.8.313,1.821,2.669,4.552,6.995,6.993,10.717V328.461c0-.559.224-.582.668-.582h.954c.488,0,.554.2.554.582v13.744C571.759,342.72,571.6,342.855,571.2,342.855Z" transform="translate(-413.763 -327.453)" fill="#1a1818"/>
          <path id="Path_1147" data-name="Path 1147" d="M588.435,342.855h-6.817c-.556,0-.687-.089-.687-.65V328.461c0-.559.244-.582.688-.582h6.817c.354,0,.555.065.555.582v.629c0,.47-.023.717-.555.717-2.021-.023-3.953-.045-5.329-.09v4.507c1.31-.044,2.842-.067,4.838-.089.534,0,.556.246.556.717v.314c0,.471-.022.718-.556.718-2-.024-3.528-.045-4.838-.089v5.224c1.376-.045,3.308-.067,5.329-.091.532,0,.555.247.555.718v.628C588.99,342.788,588.789,342.855,588.435,342.855Z" transform="translate(-419.336 -327.453)" fill="#1a1818"/>
        </g>
        <g id="Group_833" data-name="Group 833" transform="translate(77.688 0.29)">
          <path id="Path_1148" data-name="Path 1148" d="M383.156,251.911c-.116,1.306-.142,6.36-.066,12.535l.018-2.811h0c.091,7.355.325,16.3.731,22.417,0,0-13.965-16.317-19.786-25.15,0,0-.172-2.5-.2-4.349a2.655,2.655,0,0,0-1.031-2.4s-2.921-1.982-4.173-2.707c0,0-.02,24.243-.02,36.475,0,9.843,6.176,10.364,6.176,10.364l-.356-28.511c7.184,10.06,19.746,30.355,24.579,29.353,0,0,.592-26.018.839-34.132A11.824,11.824,0,0,0,383.156,251.911Z" transform="translate(-358.628 -248.826)" fill="#1a1818"/>
          <path id="Path_1149" data-name="Path 1149" d="M535.721,287.775s-1.464,6.766.991,12.148c2.143-2.69,2.58-10.359,6.291-9.595s1.539,14.278,9.04,16.008C553.368,289.322,547.341,273.247,535.721,287.775Z" transform="translate(-406.771 -257.728)" fill="#1a1818"/>
          <path id="Path_1150" data-name="Path 1150" d="M434.654,297.156a30.96,30.96,0,0,0,1.923,9.74c4.109-3.017,1.465-11.834,3.4-14.051s3.905-1.723,4.343-1.469c.639-1.622-.407-4.732-1.691-5.485a4.439,4.439,0,0,0-5.078.41c-1.781,1.415-3.521,3.006-4.558,3.351C432.99,289.652,434.5,291.759,434.654,297.156Z" transform="translate(-378.893 -258.59)" fill="#1a1818"/>
          <g id="Group_832" data-name="Group 832" transform="translate(93.665)">
            <path id="Path_1151" data-name="Path 1151" d="M493.276,251.959c.041-1.2-1.315-1.751-1.315-1.751s-1.943-.888-4.082-1.616c0,0-.107,30.031-.485,40.827-.3,8.661,4.938,7.093,4.938,7.093l.511-26.6S493.21,253.833,493.276,251.959Z" transform="translate(-487.381 -248.592)" fill="#1a1818"/>
          </g>
          <path id="Path_1152" data-name="Path 1152" d="M457.38,297.7a2.779,2.779,0,0,0,2.742.455,22.674,22.674,0,0,0,7.037-6.319c1.1,5.781,4.969,5.6,4.969,5.6l.511-27.935s.295-9.3.314-11.176c.022-2.156-1.151-2.723-1.151-2.723s-3.325-1.954-4.577-2.682c0,0,.059,10.439-.109,23.378-5.421-.276-14.286,2.386-14.5,8.56C452.337,292.808,455.423,296.03,457.38,297.7Zm9.557-12.214c-1.357,3.183-2.967,5.589-7.326,8.491-1.743-1.825-2.05-7.605-.912-9.629s5.68-3.86,8.167-3.368C467.248,281.1,467.177,284.808,466.937,285.489Z" transform="translate(-384.236 -249.773)" fill="#1a1818"/>
          <path id="Path_1153" data-name="Path 1153" d="M573.575,298.763c.023-.02-.045.045,0,0a30.935,30.935,0,0,0,5.4-6.44c.922,6.447,5.122,5.242,5.122,5.242l.078-30.449s.124-6.2.146-8.068a3.337,3.337,0,0,0-1.149-2.723s-.305-.4-4.12-1.48c0,0,.124,10.177-.01,22.115-5.125,1.056-15.743,5.1-15.983,11.971-.182,5.192,4.66,8.026,7.3,9.935A2.858,2.858,0,0,0,573.575,298.763Zm5.41-17.126c.263.1.145,3.721-.1,4.6-1.4,3.627-2.866,5.175-5.952,7.422-1.993-1.243-4.756-3.4-3.616-5.42S576.969,281.773,578.985,281.636Z" transform="translate(-414.338 -250.296)" fill="#1a1818"/>
          <path id="Path_1154" data-name="Path 1154" d="M422.769,297.515a19.368,19.368,0,0,0-2.264-9.166c-1.779-3.667-6.162-4.338-6.162-4.338,0,9.228,6.434,8.683,5.2,16.269,0,0-1.1,1.077-4.615.871-4.885-.287-3.573-9.411-2.607-12.554-10.871,2.786-8.856,21.056,6.751,17.953C421.61,304.282,422.659,301.027,422.769,297.515Z" transform="translate(-371.4 -258.244)" fill="#1a1818"/>
          <path id="Path_1155" data-name="Path 1155" d="M499.368,300.288s-.655,2.386.481,3.252c3.728,3.047,13.306,2.26,16.13-7,.236,5.287,1.773,11.258,8.256,10.449.383-.062-.988-5.874-2.516-11.487a89.814,89.814,0,0,0-3.052-9.816,3.112,3.112,0,0,0-2.919-1.854C505.948,285.035,501.662,292.924,499.368,300.288Zm3.232,1.128c.135-3.877,6.272-11.217,12.614-12C511.507,292.566,509.47,302.193,502.6,301.416Z" transform="translate(-396.931 -258.197)" fill="#1a1818"/>
        </g>
      </g>
    </g>
  </g>
</svg>
