<?xml version="1.0" encoding="utf-8"?>
<!-- Generator: Adobe Illustrator 19.1.0, SVG Export Plug-In . SVG Version: 6.00 Build 0)  -->
<svg version="1.1" id="Layer_1" xmlns="http://www.w3.org/2000/svg" xmlns:xlink="http://www.w3.org/1999/xlink" x="0px" y="0px"
	 viewBox="0 0 195 39.9" style="enable-background:new 0 0 195 39.9;" xml:space="preserve">
<style type="text/css">
	.st0{fill:#6CADDF;}
	.st1{fill:#00539B;}
</style>
<g>
	<g>
		<circle class="st0" cx="85.5" cy="4.9" r="4.9"/>
		<circle class="st0" cx="85.5" cy="19.9" r="4.9"/>
		<circle class="st0" cx="70.5" cy="19.9" r="4.9"/>
		<circle class="st1" cx="100.5" cy="19.9" r="4.9"/>
		<circle class="st1" cx="85.5" cy="34.9" r="4.9"/>
	</g>
</g>
<g>
	<path class="st1" d="M9.5,26.5v-6.1H1.7v6.1H0V13.2h1.7v5.7h7.8v-5.7h1.7v13.3H9.5z"/>
	<path class="st1" d="M15.6,26.5V13.2H23v1.4h-5.8V19H22v1.4h-4.8v4.7h6v1.4H15.6z"/>
	<path class="st1" d="M26.4,26.5V13.2h1.7v11.9h6v1.4H26.4z"/>
	<path class="st1" d="M43.1,15.4c-0.7-0.4-1-0.5-1.4-0.7c-0.5-0.2-1.3-0.3-1.8-0.3c-1.5,0-2.5,0.7-2.5,1.9c0,1,0.6,1.5,3.3,2.9
		c0.9,0.5,1.6,0.9,2.1,1.4c0.6,0.5,1,1.5,1,2.4c0,2.3-1.7,3.7-4.4,3.7c-0.9,0-1.8-0.2-2.5-0.4c-0.5-0.2-0.8-0.4-1.7-1l0.8-1.3
		c0.7,0.5,1.1,0.7,1.5,0.9c0.6,0.2,1.2,0.3,1.9,0.3c1.6,0,2.5-0.7,2.5-2c0-0.4-0.1-0.7-0.2-0.9c-0.2-0.4-0.6-0.8-1.1-1.1
		c-0.2-0.1-1-0.5-2.2-1.2c-2-1.1-2.8-2.1-2.8-3.5c0-2.1,1.8-3.5,4.4-3.5c0.8,0,1.6,0.1,2.2,0.3c0.5,0.2,0.9,0.3,1.6,0.8L43.1,15.4z"
		/>
	<path class="st1" d="M47.2,26.5V13.2h7.5v1.4h-5.8V19h4.8v1.4h-4.8v4.7h6v1.4H47.2z"/>
</g>
<g>
	<path class="st1" d="M123.8,16.3c-1.4-0.6-2.6-0.9-3.5-0.9c-1.2,0-2,0.5-2,1.2c0,0.6,0.3,0.9,1.3,1.4c2,1.1,3.4,1.9,4,2.6
		c0.6,0.6,0.9,1.5,0.9,2.4c0,2.4-1.7,3.8-4.7,3.8c-0.4,0-0.8,0-1.2-0.1c-0.9-0.1-1.4-0.3-2.8-0.9c-0.2-0.1-0.5-0.2-0.9-0.4l1.1-2.3
		c1,0.5,1.4,0.7,1.9,0.9c0.7,0.2,1.4,0.4,1.9,0.4c1.2,0,1.9-0.5,1.9-1.3c0-0.6-0.3-0.9-1.2-1.4l-2.1-1.2c-2.4-1.4-3.1-2.2-3.1-3.7
		c0-0.7,0.2-1.4,0.5-1.9c0.2-0.3,0.6-0.7,1-1c1-0.7,1.8-0.9,3.3-0.9c0.9,0,1.7,0.1,2.5,0.3c0.6,0.2,1,0.3,1.9,0.8L123.8,16.3z"/>
	<path class="st1" d="M133.1,26.8c-1.7,0-3.2-0.5-4.6-1.5l-1.4,1.5l-1.1-1.1l1.5-1.4c-1-1.5-1.5-2.7-1.5-4.4c0-4.1,2.9-6.9,7-6.9
		c1.9,0,3.4,0.5,4.6,1.4l1.3-1.3l1.2,1l-1.4,1.4c0.9,1.2,1.4,2.7,1.4,4.4C140.1,23.9,137.2,26.8,133.1,26.8z M133,15
		c-2.5,0-4.3,2-4.3,4.8c0,1.1,0.2,1.9,0.6,2.6l6.5-6.2C134.9,15.4,134.1,15,133,15z M136.8,17.3l-6.5,6.3c0.8,0.7,1.8,1.1,2.8,1.1
		c2.4,0,4.3-2.1,4.3-4.8C137.4,18.8,137.3,18.1,136.8,17.3z"/>
	<path class="st1" d="M149.4,26.5l-3-5.3h-1.3v5.3h-2.5V13.2h4.4c1.9,0,2.8,0.2,3.6,1c0.7,0.7,1.1,1.6,1.1,2.9c0,1-0.2,1.9-0.7,2.5
		c-0.5,0.6-1,0.9-2.1,1.2l3.3,5.7H149.4z M146.8,15.3h-1.7V19h1.7c1.6,0,2.3-0.6,2.3-1.9C149.1,15.8,148.4,15.3,146.8,15.3z"/>
	<path class="st1" d="M153.2,23v-2.2h4.2V23H153.2z"/>
	<path class="st1" d="M165.8,26.8c-1.7,0-3.2-0.5-4.6-1.5l-1.4,1.5l-1.2-1.1l1.5-1.4c-1-1.5-1.5-2.7-1.5-4.4c0-4.1,2.9-6.9,7-6.9
		c1.9,0,3.4,0.5,4.6,1.4l1.3-1.3l1.2,1l-1.4,1.4c0.9,1.2,1.4,2.7,1.4,4.4C172.9,23.9,170,26.8,165.8,26.8z M165.8,15
		c-2.5,0-4.3,2-4.3,4.8c0,1.1,0.2,1.9,0.6,2.6l6.5-6.2C167.6,15.4,166.8,15,165.8,15z M169.6,17.3l-6.5,6.3c0.8,0.7,1.8,1.1,2.8,1.1
		c2.4,0,4.3-2.1,4.3-4.8C170.2,18.8,170,18.1,169.6,17.3z"/>
	<path class="st1" d="M182.7,16.3c-1.4-0.6-2.6-0.9-3.4-0.9c-1.2,0-2,0.5-2,1.2c0,0.6,0.3,0.9,1.3,1.4c2,1.1,3.4,1.9,4,2.6
		c0.6,0.6,0.9,1.5,0.9,2.4c0,2.4-1.7,3.8-4.7,3.8c-0.4,0-0.8,0-1.2-0.1c-0.9-0.1-1.4-0.3-2.8-0.9c-0.2-0.1-0.5-0.2-0.9-0.4L175,23
		c1,0.5,1.4,0.7,1.9,0.9c0.7,0.2,1.4,0.4,1.9,0.4c1.2,0,1.9-0.5,1.9-1.3c0-0.6-0.3-0.9-1.2-1.4l-2.1-1.2c-2.4-1.4-3.1-2.2-3.1-3.7
		c0-0.7,0.2-1.4,0.5-1.9c0.2-0.3,0.6-0.7,1-1c1-0.7,1.8-0.9,3.3-0.9c0.9,0,1.7,0.1,2.5,0.3c0.6,0.2,1,0.3,1.9,0.8L182.7,16.3z"/>
	<path class="st1" d="M191,15.3v11.2h-2.5V15.3h-4v-2.2H195v2.2H191z"/>
</g>
</svg>
