<?xml version="1.0" encoding="utf-8"?>
<!-- Generator: Adobe Illustrator 18.1.1, SVG Export Plug-In . SVG Version: 6.00 Build 0)  -->
<svg version="1.1" id="Layer_1" xmlns="http://www.w3.org/2000/svg" xmlns:xlink="http://www.w3.org/1999/xlink" x="0px" y="0px"
	 viewBox="223.9 380.8 176.4 29.7" enable-background="new 223.9 380.8 176.4 29.7" xml:space="preserve" preserveAspectRatio="xMinyMin meet">
<g>
	<g>
		<circle fill="#75A6DA" cx="287.6" cy="384.5" r="3.7"/>
		<circle fill="#12408E" cx="287.6" cy="395.6" r="3.7"/>
		<circle fill="#75A6DA" cx="276.4" cy="395.6" r="3.7"/>
		<circle fill="#75A6DA" cx="298.7" cy="395.6" r="3.7"/>
		<circle fill="#75A6DA" cx="287.6" cy="406.8" r="3.7"/>
	</g>
	<g>
		<g>
			<g>
				<path fill="#12408E" d="M230.9,400.6v-4.5h-5.8v4.5h-1.2v-9.9h1.2v4.2h5.8v-4.2h1.2v9.9H230.9z"/>
				<path fill="#12408E" d="M235.6,400.6v-9.9h5.5v1.1h-4.3v3.3h3.6v1.1h-3.6v3.5h4.4v1.1h-5.6V400.6z"/>
				<path fill="#12408E" d="M243.9,400.6v-9.9h1.2v8.9h4.4v1.1H243.9z"/>
				<path fill="#12408E" d="M256.4,392.4c-0.5-0.3-0.8-0.4-1.1-0.5s-1-0.2-1.4-0.2c-1.1,0-1.8,0.5-1.8,1.4c0,0.8,0.4,1.1,2.5,2.2
					c0.6,0.3,1.2,0.6,1.5,1c0.4,0.4,0.8,1.1,0.8,1.8c0,1.7-1.3,2.8-3.2,2.8c-0.6,0-1.3-0.1-1.8-0.3c-0.3-0.1-0.6-0.3-1.3-0.8l0.6-1
					c0.5,0.3,0.8,0.5,1.2,0.6c0.4,0.2,0.9,0.2,1.4,0.2c1.2,0,1.8-0.5,1.8-1.5c0-0.3,0-0.5-0.1-0.8c-0.2-0.3-0.4-0.5-0.9-0.9
					c-0.2-0.1-0.8-0.3-1.6-0.9c-1.5-0.8-2.2-1.6-2.2-2.6c0-1.6,1.3-2.6,3.2-2.6c0.5,0,1.2,0.1,1.6,0.2c0.4,0.1,0.6,0.2,1.2,0.5
					L256.4,392.4z"/>
				<path fill="#12408E" d="M259.6,400.6v-9.9h5.5v1.1h-4.3v3.3h3.6v1.1h-3.6v3.5h4.4v1.1h-5.6V400.6z"/>
			</g>
			<g>
				<path fill="#12408E" d="M230.9,400.6v-4.5h-5.8v4.5h-1.2v-9.9h1.2v4.2h5.8v-4.2h1.2v9.9H230.9z"/>
				<path fill="#12408E" d="M235.6,400.6v-9.9h5.5v1.1h-4.3v3.3h3.6v1.1h-3.6v3.5h4.4v1.1h-5.6V400.6z"/>
				<path fill="#12408E" d="M243.9,400.6v-9.9h1.2v8.9h4.4v1.1H243.9z"/>
				<path fill="#12408E" d="M256.4,392.4c-0.5-0.3-0.8-0.4-1.1-0.5s-1-0.2-1.4-0.2c-1.1,0-1.8,0.5-1.8,1.4c0,0.8,0.4,1.1,2.5,2.2
					c0.6,0.3,1.2,0.6,1.5,1c0.4,0.4,0.8,1.1,0.8,1.8c0,1.7-1.3,2.8-3.2,2.8c-0.6,0-1.3-0.1-1.8-0.3c-0.3-0.1-0.6-0.3-1.3-0.8l0.6-1
					c0.5,0.3,0.8,0.5,1.2,0.6c0.4,0.2,0.9,0.2,1.4,0.2c1.2,0,1.8-0.5,1.8-1.5c0-0.3,0-0.5-0.1-0.8c-0.2-0.3-0.4-0.5-0.9-0.9
					c-0.2-0.1-0.8-0.3-1.6-0.9c-1.5-0.8-2.2-1.6-2.2-2.6c0-1.6,1.3-2.6,3.2-2.6c0.5,0,1.2,0.1,1.6,0.2c0.4,0.1,0.6,0.2,1.2,0.5
					L256.4,392.4z"/>
				<path fill="#12408E" d="M259.6,400.6v-9.9h5.5v1.1h-4.3v3.3h3.6v1.1h-3.6v3.5h4.4v1.1h-5.6V400.6z"/>
			</g>
		</g>
	</g>
	<g>
		<g>
			<g>
				<path fill="#12408E" d="M318.6,400.6v-7.2c-0.1,0.5-0.1,0.5-0.3,1.4l-2.3,5.8h-1.7l-2.1-5.7c-0.2-0.5-0.2-0.8-0.3-1.6v7.3h-1.7
					v-9.9h2.3l2.6,7c0.1,0.3,0.1,0.4,0.2,0.8c0.1-0.4,0.1-0.5,0.2-0.8l2.7-7h2.3v9.9L318.6,400.6L318.6,400.6z"/>
				<path fill="#12408E" d="M323.3,400.6v-9.9h1.9v9.9H323.3z"/>
				<path fill="#12408E" d="M335.5,399.1c-0.9,1-2.3,1.4-4,1.4h-3.7v-9.9h3.7c1.8,0,3,0.4,4,1.4c0.9,0.9,1.3,2.2,1.3,3.5
					C336.9,396.9,336.5,398.2,335.5,399.1z M333.8,392.9c-0.5-0.4-1.3-0.5-2.4-0.5h-1.5v6.6h1.5c2.3,0,3.5-1.2,3.5-3.3
					C334.9,394.4,334.4,393.5,333.8,392.9z"/>
				<path fill="#12408E" d="M342.4,392.3v8.3h-1.8v-8.3h-2.9v-1.6h7.8v1.6H342.4z"/>
				<path fill="#12408E" d="M345.6,396.8v-1.6h3.1v1.6H345.6z"/>
				<path fill="#12408E" d="M357.9,400.7l-4.2-6.4c0,0-0.1-0.2-0.2-0.4c-0.1-0.1-0.1-0.2-0.1-0.2c-0.1-0.1-0.1-0.2-0.1-0.3v7.2h-1.8
					v-9.9h2.2l4.1,6.5c0,0,0.1,0.1,0.1,0.2s0.1,0.2,0.1,0.2l0.1,0.2l0.1,0.2v-7.3h1.8v9.9h-2.1V400.7z"/>
				<path fill="#12408E" d="M367.3,400.8c-3.1,0-5.3-2.2-5.3-5.2s2.2-5.1,5.3-5.1c3.1,0,5.3,2.1,5.3,5.1
					C372.4,398.6,370.3,400.8,367.3,400.8z M367.3,392.2c-1.8,0-3.2,1.5-3.2,3.5c0,2.1,1.4,3.5,3.2,3.5c1.8,0,3.2-1.5,3.2-3.5
					C370.5,393.7,369.1,392.2,367.3,392.2z"/>
				<path fill="#12408E" d="M379.6,400.6l-2.3-4h-1v4h-1.8v-9.9h3.3c1.4,0,2.1,0.2,2.7,0.8c0.5,0.5,0.9,1.2,0.9,2.2
					c0,0.8-0.2,1.4-0.5,1.8c-0.3,0.4-0.8,0.6-1.5,0.9l2.5,4.2h-2.3V400.6z M377.5,392.3h-1.2v2.7h1.2c1.2,0,1.7-0.4,1.7-1.4
					C379.2,392.7,378.8,392.3,377.5,392.3z"/>
				<path fill="#12408E" d="M390.5,400.5c-1.1,0.2-1.6,0.3-2.5,0.3c-3.2,0-5.5-2.1-5.5-5.2c0-1.5,0.5-2.8,1.6-3.8
					c1-1,2.2-1.3,3.9-1.3c0.8,0,1.4,0.1,2.1,0.2c0.4,0.1,0.8,0.2,1.5,0.5l-0.4,1.6c-0.3-0.1-0.6-0.2-0.9-0.3
					c-0.8-0.2-1.4-0.3-2.1-0.3c-2.3,0-3.8,1.4-3.8,3.3c0,2.1,1.7,3.6,3.9,3.6c0.4,0,0.8,0,1.3-0.2v-2.7h1.8v4
					C391,400.3,390.7,400.4,390.5,400.5z"/>
				<path fill="#12408E" d="M394,400.6v-9.9h6v1.6H396v2.5h3.3v1.6H396v2.6h4.3v1.6L394,400.6L394,400.6z"/>
			</g>
			<g>
				<path fill="#12408E" d="M318.6,400.6v-7.2c-0.1,0.5-0.1,0.5-0.3,1.4l-2.3,5.8h-1.7l-2.1-5.7c-0.2-0.5-0.2-0.8-0.3-1.6v7.3h-1.7
					v-9.9h2.3l2.6,7c0.1,0.3,0.1,0.4,0.2,0.8c0.1-0.4,0.1-0.5,0.2-0.8l2.7-7h2.3v9.9L318.6,400.6L318.6,400.6z"/>
				<path fill="#12408E" d="M323.3,400.6v-9.9h1.9v9.9H323.3z"/>
				<path fill="#12408E" d="M335.5,399.1c-0.9,1-2.3,1.4-4,1.4h-3.7v-9.9h3.7c1.8,0,3,0.4,4,1.4c0.9,0.9,1.3,2.2,1.3,3.5
					C336.9,396.9,336.5,398.2,335.5,399.1z M333.8,392.9c-0.5-0.4-1.3-0.5-2.4-0.5h-1.5v6.6h1.5c2.3,0,3.5-1.2,3.5-3.3
					C334.9,394.4,334.4,393.5,333.8,392.9z"/>
				<path fill="#12408E" d="M342.4,392.3v8.3h-1.8v-8.3h-2.9v-1.6h7.8v1.6H342.4z"/>
				<path fill="#12408E" d="M345.6,396.8v-1.6h3.1v1.6H345.6z"/>
				<path fill="#12408E" d="M357.9,400.7l-4.2-6.4c0,0-0.1-0.2-0.2-0.4c-0.1-0.1-0.1-0.2-0.1-0.2c-0.1-0.1-0.1-0.2-0.1-0.3v7.2h-1.8
					v-9.9h2.2l4.1,6.5c0,0,0.1,0.1,0.1,0.2s0.1,0.2,0.1,0.2l0.1,0.2l0.1,0.2v-7.3h1.8v9.9h-2.1V400.7z"/>
				<path fill="#12408E" d="M367.3,400.8c-3.1,0-5.3-2.2-5.3-5.2s2.2-5.1,5.3-5.1c3.1,0,5.3,2.1,5.3,5.1
					C372.4,398.6,370.3,400.8,367.3,400.8z M367.3,392.2c-1.8,0-3.2,1.5-3.2,3.5c0,2.1,1.4,3.5,3.2,3.5c1.8,0,3.2-1.5,3.2-3.5
					C370.5,393.7,369.1,392.2,367.3,392.2z"/>
				<path fill="#12408E" d="M379.6,400.6l-2.3-4h-1v4h-1.8v-9.9h3.3c1.4,0,2.1,0.2,2.7,0.8c0.5,0.5,0.9,1.2,0.9,2.2
					c0,0.8-0.2,1.4-0.5,1.8c-0.3,0.4-0.8,0.6-1.5,0.9l2.5,4.2h-2.3V400.6z M377.5,392.3h-1.2v2.7h1.2c1.2,0,1.7-0.4,1.7-1.4
					C379.2,392.7,378.8,392.3,377.5,392.3z"/>
				<path fill="#12408E" d="M390.5,400.5c-1.1,0.2-1.6,0.3-2.5,0.3c-3.2,0-5.5-2.1-5.5-5.2c0-1.5,0.5-2.8,1.6-3.8
					c1-1,2.2-1.3,3.9-1.3c0.8,0,1.4,0.1,2.1,0.2c0.4,0.1,0.8,0.2,1.5,0.5l-0.4,1.6c-0.3-0.1-0.6-0.2-0.9-0.3
					c-0.8-0.2-1.4-0.3-2.1-0.3c-2.3,0-3.8,1.4-3.8,3.3c0,2.1,1.7,3.6,3.9,3.6c0.4,0,0.8,0,1.3-0.2v-2.7h1.8v4
					C391,400.3,390.7,400.4,390.5,400.5z"/>
				<path fill="#12408E" d="M394,400.6v-9.9h6v1.6H396v2.5h3.3v1.6H396v2.6h4.3v1.6L394,400.6L394,400.6z"/>
			</g>
		</g>
	</g>
</g>
</svg>
