<?xml version="1.0" encoding="UTF-8"?>
<svg width="164px" height="38px" viewBox="0 0 164 38" version="1.1" xmlns="http://www.w3.org/2000/svg" xmlns:xlink="http://www.w3.org/1999/xlink">
    <!-- Generator: sketchtool 61.2 (101010) - https://sketch.com -->
    <title>A57CFA2C-B849-46F9-99F0-D2F547339699</title>
    <desc>Created with sketchtool.</desc>
    <defs>
        <polygon id="path-1" points="0.468222222 0.0448 19.7022222 0.0448 19.7022222 23.5636571 0.468222222 23.5636571"></polygon>
        <polygon id="path-3" points="0 0.697107519 21.3081579 0.697107519 21.3081579 22.1785714 0 22.1785714"></polygon>
    </defs>
    <g id="Asset-Artboard-Page" stroke="none" stroke-width="1" fill="none" fill-rule="evenodd">
        <g id="Logo/Positiv" transform="translate(0.395833, 0.000000)">
            <g id="Group-17">
                <path d="M74.5923896,30.2802113 L72.1526851,30.2802113 C71.1171354,30.2802113 70.7450747,29.8995208 70.7450747,28.6289811 L70.7450747,13.2646438 C70.7450747,10.9781438 69.2545281,10.6387046 67.1454163,10.6387046 C66.1536384,10.6387046 64.871584,10.893284 64.1263108,11.1054335 L64.1263108,28.6289811 C64.1263108,29.8995208 63.7542501,30.2802113 62.7187003,30.2802113 L60.277844,30.2802113 C59.244598,30.2802113 58.8725373,29.8995208 58.8725373,28.6289811 L58.8725373,13.2646438 C58.8725373,10.9781438 57.3842946,10.6387046 55.2740308,10.6387046 C54.2799492,10.6387046 52.9990467,10.8508541 52.2526215,11.0641822 L52.2526215,28.6289811 C52.2526215,29.8995208 51.8805609,30.2802113 50.8484668,30.2802113 L48.4064585,30.2802113 C47.3732126,30.2802113 47,29.8995208 47,28.6289811 L47,8.98865305 C47,8.01512263 47.2073403,7.37985277 48.3638386,7.126452 C50.1423578,6.70215302 52.4611138,6.28021127 55.0678424,6.28021127 C57.5893311,6.28021127 59.4104703,6.53361204 61.1486733,7.21131179 C62.7187003,6.70215302 65.1607086,6.28021127 67.1880362,6.28021127 C73.2262472,6.28021127 76,7.88783293 76,13.604083 L76,28.6289811 C76,29.8995208 75.6267874,30.2802113 74.5923896,30.2802113" id="Fill-1" fill="#000099"></path>
                <path d="M90.2309225,10.4672071 C86.4822412,10.4672071 85.347556,11.3897457 85.347556,15.6198944 L85.347556,16.79202 C86.2747626,16.8759932 87.9146642,16.9599663 88.6730747,16.9599663 C93.7240652,16.9599663 94.862267,16.6252399 94.862267,13.5672168 C94.862267,11.1798128 93.4720431,10.4672071 90.2309225,10.4672071 M89.5557379,21.190115 C88.4632517,21.190115 86.3157895,21.1073082 85.347556,21.0641553 C85.4307819,25.1286902 86.9054038,26.174856 90.8205369,26.174856 C95.5362795,26.174856 97.1351541,25.6301967 98.3143828,25.6301967 C98.9039972,25.6301967 99.0294221,25.8401296 99.0716211,26.4675959 L99.154847,28.1867134 C99.1993905,29.315686 99.154847,29.8615117 98.2276404,29.9443186 C96.2923456,30.1542515 94.3136795,30.2802113 91.6211464,30.2802113 L90.5685148,30.2802113 C81.8110421,30.2802113 80,26.5935556 80,18.4679846 C80,10.8030998 81.6000469,6.28021127 90.1465244,6.28021127 C96.3767436,6.28021127 100,7.91302301 100,13.65119 C100,19.6401102 96.9229868,21.190115 89.5557379,21.190115" id="Fill-3" fill="#000099"></path>
                <path d="M112.361897,30.2802113 C109.520768,30.2802113 107.041601,30.1542576 105.240697,29.9443349 C104.400943,29.861532 104.321868,29.3157329 104.359735,28.1856488 L104.441038,26.4677811 C104.481132,25.9231482 104.561321,25.6304226 105.161622,25.6304226 C105.79979,25.6304226 108.242204,26.133071 112.719405,26.133071 C115.040422,26.133071 116.121855,25.5884381 116.121855,23.5778448 C116.121855,21.8191587 115.63961,21.4844486 112.521161,20.5211365 L110.522013,19.8925345 C106.279809,18.5513615 104,17.3373083 104,13.2333188 C104,7.07675143 107.480411,6.28021127 114.239649,6.28021127 C116.199817,6.28021127 117.639872,6.40499867 118.920663,6.61492141 C119.959775,6.7828596 120.120152,7.32749248 120.080058,8.29080459 L120.000983,9.79874958 C119.959775,10.5941235 119.681342,10.8460308 118.879455,10.8460308 C118.039701,10.8460308 115.959251,10.4273516 112.361897,10.4273516 C110.562107,10.4273516 108.881486,10.552139 108.881486,12.7714888 C108.881486,14.4065537 109.520768,14.6572947 113.441103,15.9564832 L116.3201,16.9197953 C119.760417,18.0498794 121,19.3898862 121,23.2011501 C121,28.2264672 119.279285,30.2802113 112.361897,30.2802113" id="Fill-5" fill="#000099"></path>
                <path d="M139.148713,29.9092116 C138.599512,30.0734622 137.035407,30.2802113 135.894668,30.2802113 L135.093799,30.2802113 C127.322663,30.2802113 126.012578,26.2784686 126.012578,20.5859781 L126.012578,11.0169429 L123.224236,11.0169429 C122.295181,11.0169429 122,10.8917449 122,10.0245475 L122,7.88010037 C122,7.09675119 122.252844,6.89000214 123.224236,6.89000214 L126.012578,6.89000214 L126.012578,2.88940804 C126.012578,1.65235956 126.393608,1.28021127 127.448497,1.28021127 L129.940482,1.28021127 C130.995372,1.28021127 131.377578,1.65235956 131.377578,2.88940804 L131.377578,6.89000214 L138.514839,6.89000214 C139.655578,6.89000214 139.741427,7.17945081 139.741427,7.88010037 L139.741427,10.0245475 C139.741427,10.850395 139.316884,11.0169429 138.514839,11.0169429 L131.377578,11.0169429 L131.377578,21.2464264 C131.377578,25.0391229 132.559477,26.1142179 136.360372,26.1142179 C137.585784,26.1142179 138.430165,25.7834194 139.106377,25.7834194 C139.696738,25.7834194 139.863733,26.0303697 139.908422,26.6494682 L139.993095,28.340216 C140.034256,29.2889644 139.908422,29.7013139 139.148713,29.9092116" id="Fill-7" fill="#000099"></path>
                <g id="Group-11" transform="translate(143.000000, 6.280211)">
                    <mask id="mask-2" fill="white">
                        <use xlink:href="#path-1"></use>
                    </mask>
                    <g id="Clip-10"></g>
                    <path d="M14.636,13.0139429 C13.3971111,12.9316571 11.9215556,12.8916571 10.9237778,12.8916571 C6.89155556,12.8916571 5.336,13.5065143 5.336,16.3796571 C5.336,18.0608 6.29377778,19.4585143 10.0837778,19.4585143 C14.196,19.4585143 14.636,18.4310857 14.636,14.7373714 L14.636,13.0139429 Z M11.0426667,23.5636571 L8.88711111,23.5636571 C2.66266667,23.5636571 0.468222222,20.1979429 0.468222222,16.7088 C0.468222222,11.3716571 3.26155556,8.82651429 10.4037778,8.82651429 C11.6815556,8.82651429 13.0782222,8.8688 14.636,8.8688 L14.636,7.88365714 C14.636,5.17508571 13.6771111,4.06651429 10.566,4.06651429 C5.97377778,4.06651429 3.86044444,4.68251429 3.18155556,4.68251429 C2.62266667,4.68251429 2.46377778,4.43565714 2.42266667,3.8208 L2.34266667,2.13737143 C2.26266667,0.864228571 2.46377778,0.536228571 3.30155556,0.4128 C4.93711111,0.208228571 7.89155556,0.0448 10.9237778,0.0448 C17.8648889,0.0448 19.7026667,3.69737143 19.7026667,9.73051429 L19.7026667,13.9590857 C19.7026667,20.5670857 19.0637778,23.5636571 11.0426667,23.5636571 L11.0426667,23.5636571 Z" id="Fill-9" fill="#000099" mask="url(#mask-2)"></path>
                </g>
                <polygon id="Fill-12" fill="#FF6600" points="36 15.4068851 25.1094261 15.4068851 32.7493565 7.7683682 28.5115826 3.5295939 20.8728 11.1692586 20.8728 0.280211268 14.8777043 0.280211268 14.8777043 11.1692586 7.23892174 3.5295939 3 7.7683682 10.6387826 15.4068851 20.8728 15.4068851 20.8728 25.6416943 28.5115826 33.2802113 32.7493565 29.0391414 25.1094261 21.40292 36 21.40292"></polygon>
                <g id="Group-16" transform="translate(0.000000, 14.280211)">
                    <mask id="mask-4" fill="white">
                        <use xlink:href="#path-3"></use>
                    </mask>
                    <g id="Clip-15"></g>
                    <polygon id="Fill-14" fill="#000099" mask="url(#mask-4)" points="-0.000578947368 0.697107519 -0.000578947368 6.79504737 10.9832105 6.79504737 3.27742105 14.5610492 7.55468421 18.8741977 15.2604737 11.1058613 15.2604737 22.1788049 21.3081579 22.1788049 21.3081579 0.697107519"></polygon>
                </g>
            </g>
        </g>
    </g>
</svg>