<?xml version="1.0" encoding="UTF-8"?>
<svg width="167px" height="69px" viewBox="0 0 167 69" version="1.1" xmlns="http://www.w3.org/2000/svg" xmlns:xlink="http://www.w3.org/1999/xlink">
    <title>Group 88 Copy</title>
    <defs>
        <polygon id="path-1" points="0 0.0455909091 11.79585 0.0455909091 11.79585 16.2476144 0 16.2476144"></polygon>
        <polygon id="path-3" points="0.414927369 0.0455909091 15.2968604 0.0455909091 15.2968604 16.2475955 0.414927369 16.2475955"></polygon>
        <polygon id="path-5" points="0.337088889 0.0455909091 13.6888693 0.0455909091 13.6888693 16.2472864 0.337088889 16.2472864"></polygon>
        <polygon id="path-7" points="0.363235294 0.0455909091 12.3683529 0.0455909091 12.3683529 16.2475955 0.363235294 16.2475955"></polygon>
        <polygon id="path-9" points="0.396 0.0455909091 11.52 0.0455909091 11.52 16.2479818 0.396 16.2479818"></polygon>
        <polygon id="path-11" points="0 69 167 69 167 0 0 0"></polygon>
    </defs>
    <g id="Symbols" stroke="none" stroke-width="1" fill="none" fill-rule="evenodd">
        <g id="Footer" transform="translate(-66.000000, -49.000000)">
            <g id="Group-88-Copy" transform="translate(66.000000, 49.000000)">
                <g id="Group-3">
                    <mask id="mask-2" fill="white">
                        <use xlink:href="#path-1"></use>
                    </mask>
                    <g id="Clip-2"></g>
                    <path d="M3.8061,16.2476144 L8.19885,16.2476144 C8.7141,16.2476144 9.20235,16.0381864 9.57285,15.6495045 L11.68485,13.47505 C11.75535,13.4016409 11.79585,13.3019591 11.79585,13.2015045 C11.7936,13.0971864 11.75535,12.99905 11.68485,12.9264136 L10.2681,11.4937773 C10.1211,11.3430955 9.88335,11.3454136 9.7416,11.4976409 L7.8966,13.4186409 C7.8771,13.4387318 7.87185,13.4387318 7.87185,13.4387318 C7.87185,13.4387318 7.87185,13.4402773 7.8696,13.4402773 L7.85085,13.4402773 L4.14585,13.4402773 C4.1211,13.4402773 4.1211,13.4379591 4.1211,13.4402773 C4.1211,13.4402773 4.11885,13.4387318 4.09485,13.4140045 L2.8176,12.0965045 C2.79285,12.0710045 2.7906,12.0586409 2.7906,12.0455045 L2.7906,4.24714091 C2.7906,4.23477727 2.79285,4.22164091 2.8176,4.19691364 L4.09485,2.87709545 C4.11885,2.85391364 4.1211,2.85623182 4.1211,2.85391364 C4.1211,2.85391364 4.1211,2.85082273 4.14585,2.85082273 L7.85085,2.85082273 C7.87185,2.85391364 7.87185,2.85623182 7.87185,2.85391364 C7.87185,2.85391364 7.8771,2.85391364 7.90035,2.87709545 L9.7656,4.79732273 C9.9096,4.94800455 10.14585,4.94800455 10.2921,4.79732273 L11.68485,3.36391364 C11.75535,3.28973182 11.79585,3.19545909 11.79585,3.09036818 C11.79585,2.98991364 11.75535,2.89100455 11.68485,2.81914091 L9.57285,0.643140909 C9.2001,0.251368182 8.70735,0.0404136364 8.1846,0.0449751767 L3.8061,0.0449751767 C3.28635,0.0427318182 2.79585,0.251368182 2.41785,0.643140909 L0.5796,2.54173182 C0.2001,2.92809545 -0.00465,3.43500455 -0.000222623594,3.97127727 L-0.000222623594,12.3236864 C-0.00465,12.8576409 0.2001,13.3660955 0.5796,13.7524591 L2.41785,15.6495045 C2.79585,16.0397318 3.28635,16.2499136 3.8061,16.2476144" id="Fill-1" fill="#FEFEFE" mask="url(#mask-2)"></path>
                </g>
                <g id="Group-6" transform="translate(15.000000, 0.000000)">
                    <mask id="mask-4" fill="white">
                        <use xlink:href="#path-3"></use>
                    </mask>
                    <g id="Clip-5"></g>
                    <path d="M5.69691429,9.39195909 L7.84015238,3.45586818 L9.94986667,9.39195909 L5.69691429,9.39195909 Z M9.59329524,0.296186364 C9.53691429,0.14705 9.3952,0.04505 9.2359619,0.04505 L6.4984381,0.04505 C6.3399619,0.04505 6.19824762,0.144731818 6.14186667,0.296186364 L0.439771429,15.72755 C0.395580952,15.8450045 0.410819048,15.9810045 0.48167619,16.0822318 C0.554819048,16.18655 0.669866667,16.2475955 0.794057143,16.2475955 L2.87177143,16.2475955 C3.0279619,16.2475955 3.16967619,16.1502318 3.22605714,15.99955 L4.68510476,12.1073227 L10.9807238,12.1073227 L12.4397714,15.99955 C12.4938667,16.1502318 12.635581,16.2475955 12.794819,16.2475955 L14.9159619,16.2475955 C15.0401524,16.2475955 15.1574857,16.18655 15.2283429,16.0822318 C15.2999619,15.9810045 15.3167238,15.8450045 15.2725333,15.7283227 L9.59329524,0.296186364 Z" id="Fill-4" fill="#FEFEFE" mask="url(#mask-4)"></path>
                </g>
                <g id="Group-9" transform="translate(33.000000, 0.000000)">
                    <mask id="mask-6" fill="white">
                        <use xlink:href="#path-5"></use>
                    </mask>
                    <g id="Clip-8"></g>
                    <path d="M8.83742222,6.89110455 C8.82964444,6.89110455 8.82031111,6.89265 8.80475556,6.89265 L3.2312,6.89265 L3.2312,2.85051364 L8.82964444,2.85051364 C8.85297778,2.85360455 8.85297778,2.85592273 8.85297778,2.85360455 C8.85297778,2.85360455 8.85764444,2.85360455 8.88253333,2.87755909 L9.65097778,3.64178636 C9.66108889,3.65105909 9.67586667,3.67810455 9.67586667,3.68737727 L9.65331111,6.04728636 C9.65097778,6.07433182 9.64864444,6.07433182 9.65097778,6.07433182 C9.65097778,6.07433182 9.65097778,6.07819545 9.62608889,6.10292273 L8.85764444,6.86715 L8.83742222,6.89110455 Z M9.36708889,9.69378636 C9.82597778,9.65746818 10.2623111,9.45655909 10.5936444,9.12505909 L11.9687556,7.75887727 C12.3358667,7.39801364 12.5723111,6.89651364 12.5699778,6.32778636 L12.5699778,3.41383182 C12.5754222,2.84665 12.3226444,2.35596818 11.9462,1.98428636 L10.5710889,0.620422727 C10.2070889,0.256468182 9.71786667,0.0431954545 9.17964444,0.0454949312 L0.726755556,0.0454949312 C0.624088889,0.0454949312 0.524533333,0.0872409091 0.4522,0.156786364 C0.377533333,0.230968182 0.337088889,0.33065 0.337088889,0.430331818 L0.337088889,15.8632409 C0.337088889,15.9652409 0.377533333,16.0656955 0.4522,16.1360136 C0.524533333,16.2071045 0.624088889,16.2472864 0.726755556,16.2472864 L2.84464444,16.2472864 C2.94653333,16.2472864 3.04453333,16.2094227 3.11686667,16.1360136 C3.19153333,16.0618318 3.2312,15.9652409 3.2312,15.8632409 L3.2312,9.69919545 L5.91842222,9.70151364 C5.92308889,9.70151364 5.95108889,9.69919545 6.00553333,9.75869545 L10.4194222,16.0826955 C10.4917556,16.1846955 10.6115333,16.2472864 10.7383111,16.2472864 L13.2979778,16.2472864 C13.4457556,16.2472864 13.5779778,16.1684682 13.6456444,16.03865 C13.7133111,15.9119227 13.7000889,15.7566045 13.6160889,15.6399227 L9.36708889,9.69378636 Z" id="Fill-7" fill="#FEFEFE" mask="url(#mask-6)"></path>
                </g>
                <g id="Group-12" transform="translate(48.000000, 0.000000)">
                    <mask id="mask-8" fill="white">
                        <use xlink:href="#path-7"></use>
                    </mask>
                    <g id="Clip-11"></g>
                    <path d="M4.94305882,2.85391364 L4.94305882,15.8620045 C4.94305882,15.96555 4.98511765,16.0660045 5.05623529,16.1347773 C5.12735294,16.2066409 5.22523529,16.2475955 5.32541176,16.2475955 L7.40847059,16.2475955 C7.50635294,16.2475955 7.60729412,16.2066409 7.67841176,16.1347773 C7.74952941,16.0660045 7.78852941,15.96555 7.78852941,15.8620045 L7.78852941,2.85391364 L11.9875294,2.85391364 C12.0884706,2.85391364 12.1871176,2.80986818 12.2582353,2.73955 C12.3262941,2.66845909 12.3683529,2.56877727 12.3683529,2.46755 L12.3683529,0.429868182 C12.3683529,0.327095455 12.3262941,0.230504545 12.2582353,0.160186364 C12.1871176,0.08755 12.0884706,0.04505 11.9875294,0.04505 L0.745588235,0.04505 C0.645411765,0.04505 0.547529412,0.08755 0.476411765,0.160186364 C0.405294118,0.228959091 0.363235294,0.327095455 0.363235294,0.429868182 L0.363235294,2.46755 C0.363235294,2.56877727 0.405294118,2.66845909 0.476411765,2.73955 C0.547529412,2.80986818 0.645411765,2.85391364 0.745588235,2.85391364 L4.94305882,2.85391364 Z" id="Fill-10" fill="#FEFEFE" mask="url(#mask-8)"></path>
                </g>
                <g id="Group-15" transform="translate(63.000000, 0.000000)">
                    <mask id="mask-10" fill="white">
                        <use xlink:href="#path-9"></use>
                    </mask>
                    <g id="Clip-14"></g>
                    <path d="M11.4024,16.1359364 C11.4768,16.0625273 11.52,15.9651636 11.52,15.8631636 L11.52,13.8278 C11.52,13.7258 11.4768,13.6268909 11.4024,13.5542545 C11.328,13.4823909 11.2256,13.4414364 11.12,13.4414364 L3.3752,13.4414364 L3.3752,9.53839091 L11.12,9.53839091 C11.2256,9.53839091 11.3256,9.49743636 11.4024,9.42634545 C11.4768,9.35293636 11.52,9.25634545 11.52,9.15357273 L11.52,7.11589091 C11.52,7.01543636 11.4768,6.91498182 11.4024,6.84466364 C11.328,6.7728 11.2256,6.7303 11.12,6.7303 L3.3752,6.7303 L3.3752,2.85120909 L11.12,2.85120909 C11.2256,2.85120909 11.3256,2.81025455 11.4024,2.73916364 C11.4768,2.66807273 11.52,2.56839091 11.52,2.46793636 L11.52,0.430254545 C11.52,0.327481818 11.4768,0.228572727 11.4024,0.156709091 C11.328,0.0871636364 11.2256,0.0454363636 11.12,0.0454363636 L0.796,0.0454363636 C0.6912,0.0454363636 0.588,0.0871636364 0.5112,0.156709091 C0.4392,0.228572727 0.396,0.327481818 0.396,0.430254545 L0.396,15.8631636 C0.396,15.9651636 0.4392,16.0656182 0.5112,16.1359364 C0.588,16.2070273 0.6912,16.2479818 0.796,16.2479818 L11.12,16.2479818 C11.2256,16.2479818 11.3256,16.2070273 11.4024,16.1359364" id="Fill-13" fill="#FEFEFE" mask="url(#mask-10)"></path>
                </g>
                <path d="M9.15229901,28.3339068 C9.14159992,28.4109761 9.16605497,28.3560356 9.1255513,28.4109761 L7.91273413,29.6211939 C7.91273413,29.6211939 7.90356349,29.6288245 7.88522221,29.6395074 C7.87375891,29.6433227 7.86535249,29.647138 7.86076717,29.647138 L7.86076717,29.6486642 L2.84519115,29.6486642 L2.84519115,25.7723046 L8.34604688,25.7723046 C8.36668082,25.7723046 8.36438816,25.7745938 8.36668082,25.7730677 C8.36668082,25.7730677 8.37050192,25.7730677 8.39495696,25.7974857 L9.15077057,26.5498657 C9.17216873,26.5765729 9.17675405,26.5887819 9.17675405,26.600991 L9.15229901,28.3339068 Z M9.17675405,35.3922386 C9.17216873,35.4013954 9.15612011,35.4204719 9.1255513,35.4471791 L8.37203036,36.2018483 L8.35674596,36.2209249 C8.3468111,36.2255033 8.32846982,36.2285556 8.32159184,36.2285556 L2.84519115,36.2285556 L2.84519115,32.352196 L7.85236074,32.352196 C7.86305983,32.3560113 7.88598643,32.3712726 7.91273413,32.400269 L9.15077057,33.6333786 C9.16376231,33.6463507 9.17828249,33.6799255 9.17675405,33.6829777 L9.17675405,35.3922386 Z M10.0792979,23.5914709 C9.70406586,23.2099394 9.21267239,22.9947557 8.66319819,23 L0.382110012,23 C0.281997189,23 0.182648586,23.0405395 0.113868784,23.1107412 C0.0405036613,23.1832322 0,23.2831935 0,23.3816286 L0,38.6199947 C0,38.7199559 0.0405036613,38.818391 0.113868784,38.8870667 C0.182648586,38.9572685 0.281997189,39 0.382110012,39 L8.70140919,39 C9.22872101,39 9.70788696,38.7863424 10.0777695,38.4078632 L11.4266178,37.0854752 L11.159905,36.8145879 L11.4373169,37.0732662 C11.7949718,36.6909717 11.9997828,36.1995592 11.9997828,35.6722827 L11.9997828,33.4326931 C12.0020755,32.9016013 11.7865654,32.4178194 11.4036912,32.0446817 L10.3513602,30.9901287 L11.4036912,29.9577046 C11.7903865,29.5731209 11.9997828,29.0717886 11.9997828,28.5437491 L11.9997828,26.3278144 C12.007425,25.7951965 11.8133131,25.3144669 11.4289105,24.93904 L10.0792979,23.5914709 Z" id="Fill-16" fill="#FEFEFE"></path>
                <path d="M26.6136555,36.2262495 L18.8774937,36.2262495 L18.8774937,23.3807707 C18.8774937,23.2830981 18.8357685,23.180847 18.7639084,23.1114079 C18.6920483,23.0389164 18.5931441,23 18.4911492,23 L16.3863445,23 C16.2851222,23 16.1846727,23.0389164 16.114358,23.1114079 C16.0394071,23.180847 16,23.2830981 16,23.3807707 L16,38.6207554 C16,38.7184281 16.0394071,38.8183899 16.114358,38.887066 C16.1846727,38.9572682 16.2851222,39 16.3863445,39 L26.6136555,39 C26.7148778,39 26.813782,38.9572682 26.8864147,38.887066 C26.9575021,38.8183899 27,38.7184281 27,38.6207554 L27,36.6085464 C27,36.5078214 26.9575021,36.4101488 26.8864147,36.3384205 C26.813782,36.2682182 26.7148778,36.2262495 26.6136555,36.2262495" id="Fill-18" fill="#FEFEFE"></path>
                <path d="M35.3229886,32.2293018 L37.4857912,26.3681801 L39.6101917,32.2293018 L35.3229886,32.2293018 Z M39.2499806,23.2472339 C39.1931456,23.0984357 39.05029,23 38.8905376,23 L36.1309674,23 C35.971983,23 35.8291274,23.0984357 35.7707563,23.2472339 L30.0235079,38.4856925 C29.9812657,38.6032049 29.9958585,38.7352156 30.0680543,38.8351774 C30.138714,38.9389546 30.2577603,39 30.384487,39 L32.4750938,39 C32.6348462,39 32.7777018,38.9030904 32.8345368,38.7527661 L34.3037986,34.909958 L40.6493507,34.909958 L42.1201486,38.7527661 C42.1754476,38.9030904 42.3198392,39 42.4780556,39 L44.6170489,39 C44.7430076,39 44.8597498,38.9389546 44.9327136,38.8351774 C45.0041414,38.7352156 45.0195022,38.6032049 44.9749559,38.4856925 L39.2499806,23.2472339 Z" id="Fill-20" fill="#FEFEFE"></path>
                <path d="M61.6060998,23 L59.4837657,23 C59.379776,23 59.2781498,23.0404426 59.2056722,23.1114079 C59.1316189,23.1831362 59.0914411,23.2830981 59.0914411,23.3807707 L59.0914411,34.8557802 L51.9563334,23.2190004 C51.8917337,23.0839374 51.7530809,23 51.6010354,23 L48.394688,23 C48.2906983,23 48.1874965,23.0404426 48.1165945,23.1114079 C48.0417534,23.1831362 48,23.2830981 48,23.3807707 L48,38.6207554 C48,38.7184281 48.0417534,38.8183899 48.1165945,38.887066 C48.1874965,38.9603205 48.2906983,39 48.394688,39 L50.5170221,39 C50.6210118,39 50.7194868,38.9618466 50.7951156,38.887066 C50.8683811,38.8161007 50.9109223,38.7207173 50.9109223,38.6207554 L50.9109223,27.1426936 L58.0428788,38.7817627 C58.1090541,38.9137734 58.2477069,39 58.3981768,39 L61.6060998,39 C61.7124529,39 61.8109279,38.9618466 61.8841933,38.887066 C61.9574588,38.8161007 62,38.7207173 62,38.6207554 L62,23.3807707 C62,23.2830981 61.9574588,23.1831362 61.8841933,23.1114079 C61.8109279,23.0404426 61.7124529,23 61.6060998,23" id="Fill-22" fill="#FEFEFE"></path>
                <path d="M68.8657564,27.0984371 L70.1666155,25.7974092 C70.1902675,25.7729911 70.1963712,25.7729911 70.1963712,25.7729911 C70.1963712,25.7729911 70.1948453,25.7729911 70.1986601,25.772228 C70.2001861,25.772228 70.2047639,25.7707019 70.2169713,25.772228 L73.9860294,25.772228 C74.0089184,25.772228 74.0081555,25.7729911 74.0089184,25.7729911 C74.0089184,25.7729911 74.0127333,25.7729911 74.0363853,25.7966461 L75.9338848,27.6928657 C76.0048407,27.7661201 76.1002116,27.8065626 76.2024492,27.8065626 C76.3039239,27.8065626 76.3992948,27.7661201 76.4725396,27.6928657 L77.8886068,26.2758517 C77.9603257,26.2064127 78,26.1095033 78,26.0072524 C78,25.9072907 77.9603257,25.8096182 77.8886068,25.7394162 L75.740854,23.5906216 C75.3593704,23.2060362 74.857338,22.9984822 74.3286017,23 L69.875162,23 C69.3464257,22.9984822 68.8451563,23.2060362 68.4636727,23.5906216 L66.5913511,25.4631862 C66.2045267,25.8462454 65.9962366,26.3491061 66,26.8756218 L66,35.1236048 C65.9962366,35.6516466 66.2045267,36.1529811 66.5913511,36.5345142 L68.4636727,38.4078419 C68.8451563,38.7947164 69.3464257,39.0022705 69.875162,39 L74.3286017,39 L74.3408092,39 C74.8642047,39 75.3616593,38.7916642 75.740854,38.4078419 L77.8886068,36.2613365 C77.9603257,36.1896083 78,36.0911728 78,35.9881588 C78,35.8889602 77.9580368,35.7920508 77.8847919,35.7195595 L76.4458358,34.3017824 C76.2962942,34.1552737 76.0559595,34.158326 75.9087068,34.3071239 L74.0348593,36.2048696 C74.0157852,36.2254724 74.0081555,36.2254724 74.0081555,36.2254724 C74.0081555,36.2262355 74.0051036,36.2285247 73.9860294,36.2285247 L70.2169713,36.2285247 C70.1948453,36.2262355 70.1963712,36.2254724 70.1948453,36.2262355 C70.1948453,36.2262355 70.1902675,36.2262355 70.1666155,36.2018174 L68.8657564,34.9000264 C68.8390525,34.8748452 68.8390525,34.8603469 68.8390525,34.8504271 L68.8390525,27.1495626 C68.8390525,27.1381166 68.8390525,27.1228552 68.8657564,27.0984371" id="Fill-24" fill="#FEFEFE"></path>
                <path d="M93.6200648,23 L91.5174518,23 C91.4175091,23 91.3190921,23.0389164 91.2489033,23.1114079 C91.1794774,23.180847 91.1359908,23.2830981 91.1359908,23.3815338 L91.1359908,29.6020603 L84.8411215,29.6020603 L84.8411215,23.3815338 C84.8411215,23.2830981 84.7999237,23.180847 84.7304978,23.1114079 C84.6580202,23.0404426 84.5611291,23 84.4611863,23 L82.3806981,23 C82.2799924,23 82.1838642,23.0389164 82.1121495,23.1114079 C82.0404349,23.180847 82,23.2830981 82,23.3815338 L82,38.6207554 C82,38.7184281 82.0404349,38.8183899 82.1121495,38.8893552 C82.1838642,38.9572682 82.2799924,39 82.3806981,39 L84.4611863,39 C84.5611291,39 84.6557315,38.9618466 84.7304978,38.887066 C84.7999237,38.8161007 84.8411215,38.7207173 84.8411215,38.6207554 L84.8411215,32.3735216 L91.1596414,32.3735216 L91.1596414,38.6207554 C91.1596414,38.7184281 91.2000763,38.8183899 91.2733168,38.887066 C91.3419798,38.9572682 91.4419226,39 91.5395766,39 L93.6200648,39 C93.7184818,39 93.8184246,38.9572682 93.8901392,38.887066 C93.9595651,38.8183899 94,38.7184281 94,38.6207554 L94,23.3815338 C94,23.2830981 93.9595651,23.180847 93.8901392,23.1114079 C93.8184246,23.0404426 93.7184818,23 93.6200648,23" id="Fill-26" fill="#FEFEFE"></path>
                <path d="M108.604373,23 L98.3932528,23 C98.2888074,23 98.1883182,23.0404426 98.1163142,23.1114079 C98.0427277,23.1831362 98,23.2830981 98,23.3815338 L98,38.6207554 C98,38.7207173 98.0427277,38.8183899 98.1163142,38.887066 C98.1883182,38.9572682 98.2888074,39 98.3932528,39 L108.604373,39 C108.708028,39 108.810099,38.9618466 108.881312,38.887066 C108.959646,38.8161007 109,38.7207173 109,38.6207554 L109,36.6085464 C109,36.5078214 108.956481,36.4101488 108.884477,36.3384205 C108.810099,36.2682182 108.708028,36.2262495 108.604373,36.2262495 L100.943461,36.2262495 L100.943461,32.3735216 L108.604373,32.3735216 C108.708028,32.3735216 108.810099,32.333842 108.884477,32.2628768 C108.956481,32.1926746 109,32.0942388 109,31.994277 L109,29.9820679 C109,29.8821061 108.956481,29.7867226 108.884477,29.7157573 C108.810099,29.6432659 108.708028,29.6020603 108.604373,29.6020603 L100.945044,29.6020603 L100.945044,25.7722243 L108.604373,25.7722243 C108.708028,25.7722243 108.810099,25.7302556 108.884477,25.6600534 C108.956481,25.5906143 109,25.4921786 109,25.3914536 L109,23.3815338 C109,23.2830981 108.956481,23.1831362 108.884477,23.1114079 C108.810099,23.0404426 108.708028,23 108.604373,23" id="Fill-28" fill="#FEFEFE"></path>
                <polygon id="Fill-30" fill="#FEFEFE" points="2.10473341 54.3926013 1.35065288 53.3156207 1.3710555 54.9935849 1.3710555 58 0 58 0 51 1.2625136 51 3.8960827 54.6073987 4.64934712 55.6851278 4.62976061 54.0064151 4.62976061 51 6 51 6 58 4.7374864 58"></polygon>
                <path d="M9.21715307,54.4992776 C9.21715307,55.7815273 9.56879095,56.8737874 11.0003574,56.8737874 C12.4319238,56.8737874 12.7742704,55.7815273 12.7742704,54.4992776 C12.7742704,53.2184727 12.4319238,52.1262126 11.0003574,52.1262126 C9.56879095,52.1262126 9.21715307,53.2184727 9.21715307,54.4992776 M8,54.4992776 C8,52.368937 8.88266825,51 11.0003574,51 C13.1173317,51 14,52.368937 14,54.4992776 C14,56.631063 13.1173317,58 11.0003574,58 C8.88266825,58 8,56.631063 8,54.4992776" id="Fill-32" fill="#FEFEFE"></path>
                <path d="M19.1930295,54.0782637 C19.6659517,54.0782637 20.2828418,53.9981824 20.2828418,53.1270181 C20.2828418,52.2468727 19.6659517,52.166043 19.1930295,52.166043 L17.3504021,52.166043 L17.3504021,54.0782637 L19.1930295,54.0782637 Z M17.3504021,58 L16,58 L16,51 L19.1061662,51 C20.408311,51 21.6621984,51.4034 21.6621984,53.1270181 C21.6621984,54.3649097 21.0163539,54.9127553 20.1766756,55.11932 L22,58 L20.4179625,58 L18.7297587,55.2532877 L17.3504021,55.2532877 L17.3504021,58 Z" id="Fill-34" fill="#FEFEFE"></path>
                <path d="M27.127337,56.8737874 C27.8185953,56.8737874 28.3370389,56.7524252 28.7001011,56.5617131 L28.7001011,55.2021672 L27.2546741,55.2021672 L27.2546741,54.1185759 L29.963618,54.1185759 L29.963618,57.2898865 C28.9820616,57.869969 28.1634664,58 27.127337,58 C24.9459323,58 24,56.6144479 24,54.4992776 C24,52.3942208 24.9459323,51 27.127337,51 C28.9449217,51 29.8552299,51.8394221 30,53.1390093 L28.7182921,53.2690402 C28.590955,52.4635707 28.0823648,52.1262126 27.127337,52.1262126 C25.6728146,52.1262126 25.3006569,53.2437564 25.3006569,54.4992776 C25.3006569,55.7562436 25.6728146,56.8737874 27.127337,56.8737874" id="Fill-36" fill="#FEFEFE"></path>
                <polygon id="Fill-38" fill="#FEFEFE" points="36.8338435 51 36.8338435 52.1666667 33.2243113 52.1666667 33.2243113 53.8354715 36.4235534 53.8354715 36.4235534 55.0021381 33.2243113 55.0021381 33.2243113 56.8333333 37 56.8333333 37 58 32 58 32 51"></polygon>
                <path d="M39,55.9301269 L40.3741149,55.7986376 C40.4806229,56.5875735 41.0228456,56.8743936 42.0483888,56.8743936 C42.8036275,56.865724 43.6548849,56.6143049 43.6548849,55.8694396 C43.6548849,55.279905 43.2579004,55.0284859 42.0096586,54.9237279 C40.6258612,54.8211374 39.2711113,54.4996388 39.2614288,53.0532563 C39.2517462,51.6321602 40.5193531,51 41.980611,51 C43.9550439,51 44.8547139,51.7788213 44.9902696,53.0612034 L43.6161547,53.1912478 C43.5096467,52.3936423 43.0061542,52.1256064 41.980611,52.1256064 C41.4682428,52.134276 40.6161786,52.2997213 40.6161786,53.0612034 C40.6258612,53.5300857 40.9163376,53.7287646 42.0774365,53.8335226 C43.9251893,53.9801837 44.9902696,54.2836206 45,55.8694396 C45.0096347,57.3765094 43.5483768,58 42.0483888,58 C40.0061781,58 39.1549208,57.2717515 39,55.9301269" id="Fill-40" fill="#FEFEFE"></path>
                <polygon id="Fill-42" fill="#FEFEFE" points="51.1047334 54.3926013 50.3506529 53.3156207 50.3710555 54.9935849 50.3710555 58 49 58 49 51 50.2633297 51 52.8952666 54.6073987 53.6493471 55.6851278 53.6297606 54.0064151 53.6297606 51 55 51 55 58 53.7374864 58"></polygon>
                <path d="M60.5,52.5952531 L59.5265273,55.2402857 L61.4742765,55.2402857 L60.5,52.5952531 Z M61.89791,56.3599034 L59.1028939,56.3599034 L58.4565916,58 L57,58 L59.9027331,51 L61.0980707,51 L64,58 L62.5442122,58 L61.89791,56.3599034 Z" id="Fill-44" fill="#FEFEFE"></path>
                <path d="M65,55.9301269 L66.3741149,55.7986376 C66.4806229,56.5875735 67.0228456,56.8743936 68.0483888,56.8743936 C68.8036275,56.865724 69.6548849,56.6143049 69.6548849,55.8694396 C69.6548849,55.279905 69.2579004,55.0284859 68.0096586,54.9237279 C66.6258612,54.8211374 65.2711113,54.4996388 65.2614288,53.0532563 C65.2517462,51.6321602 66.5193531,51 67.980611,51 C69.9550439,51 70.8547139,51.7788213 70.9902696,53.0612034 L69.6161547,53.1912478 C69.5096467,52.3936423 69.006961,52.1256064 67.980611,52.1256064 C67.4682428,52.134276 66.6161786,52.2997213 66.6161786,53.0612034 C66.6258612,53.5300857 66.9163376,53.7287646 68.0766296,53.8335226 C69.9251893,53.9801837 70.9902696,54.2836206 71,55.8694396 C71.0096347,57.3765094 69.5483768,58 68.0483888,58 C66.0061781,58 65.1549208,57.2717515 65,55.9301269" id="Fill-46" fill="#FEFEFE"></path>
                <path d="M77,51 L77,55.9987396 C77,57.2162588 76.1027961,58 74.4555921,58 C72.6315789,58 72.0789474,57.101565 72,56.1494591 L73.3708882,55.989917 C73.4399671,56.5097154 73.6866776,56.8714421 74.4465461,56.8633547 C75.2047697,56.8545321 75.6192434,56.5714736 75.6192434,56.0171201 L75.6192434,51 L77,51 Z" id="Fill-48" fill="#FEFEFE"></path>
                <path d="M80.2171531,54.4992776 C80.2171531,55.7815273 80.5687909,56.8737874 82.0003574,56.8737874 C83.4319238,56.8737874 83.7749851,55.7815273 83.7749851,54.4992776 C83.7749851,53.2184727 83.4319238,52.1262126 82.0003574,52.1262126 C80.5687909,52.1262126 80.2171531,53.2184727 80.2171531,54.4992776 M79,54.4992776 C79,52.368937 79.8826683,51 82.0003574,51 C84.1173317,51 85,52.368937 85,54.4992776 C85,56.631063 84.1173317,58 82.0003574,58 C79.8826683,58 79,56.631063 79,54.4992776" id="Fill-50" fill="#FEFEFE"></path>
                <polygon id="Fill-52" fill="#FEFEFE" points="89.1047334 54.3926013 88.3506529 53.3156207 88.3710555 54.9935849 88.3710555 58 87 58 87 51 88.2633297 51 90.8952666 54.6073987 91.6493471 55.6851278 91.6297606 54.0064151 91.6297606 51 93 51 93 58 91.7374864 58"></polygon>
                <path d="M97.5,52.5952531 L96.5265273,55.2402857 L98.4742765,55.2402857 L97.5,52.5952531 Z M98.89791,56.3599034 L96.1028939,56.3599034 L95.4565916,58 L94,58 L96.9027331,51 L98.0980707,51 L101,58 L99.5442122,58 L98.89791,56.3599034 Z" id="Fill-54" fill="#FEFEFE"></path>
                <polygon id="Fill-56" fill="#FEFEFE" points="103.373222 56.8333333 107 56.8333333 107 58 102 58 102 51 103.373222 51"></polygon>
                <polygon id="Fill-58" fill="#FEFEFE" points="113.833843 51 113.833843 52.1666667 110.224311 52.1666667 110.224311 53.8354715 113.423553 53.8354715 113.423553 55.0021381 110.224311 55.0021381 110.224311 56.8333333 114 56.8333333 114 58 109 58 109 51"></polygon>
                <polygon id="Fill-60" fill="#FEFEFE" points="120.287028 54.0782637 121.150409 53.1090559 123.11619 51 124.86287 51 121.77477 54.1852881 125 58 123.291624 58 120.911389 55.0841441 120.287028 55.7210521 120.287028 58 119 58 119 51 120.287028 51"></polygon>
                <path d="M127.217153,54.4992776 C127.217153,55.7815273 127.568791,56.8737874 129.000357,56.8737874 C130.431924,56.8737874 130.774985,55.7815273 130.774985,54.4992776 C130.774985,53.2184727 130.431924,52.1262126 129.000357,52.1262126 C127.568791,52.1262126 127.217153,53.2184727 127.217153,54.4992776 M126,54.4992776 C126,52.368937 126.882668,51 129.000357,51 C131.117332,51 132,52.368937 132,54.4992776 C132,56.631063 131.117332,58 129.000357,58 C126.882668,58 126,56.631063 126,54.4992776" id="Fill-62" fill="#FEFEFE"></path>
                <polygon id="Fill-64" fill="#FEFEFE" points="137.998784 58 136.661948 54.4992517 136.263298 53.3961941 136.272587 55.3254223 136.272587 58 135 58 135 51 136.513325 51 138.008847 54.8135557 138.499613 56.1336327 138.991927 54.8135557 140.487449 51 142 51 142 58 140.728188 58 140.728188 55.3254223 140.737477 53.3961941 140.338052 54.4992517 139.00199 58"></polygon>
                <path d="M146.726936,52.1666667 L145.243892,52.1666667 L145.243892,54.1954244 L146.726936,54.1954244 C147.152673,54.1954244 147.721309,54.0697028 147.721309,53.1806714 C147.721309,52.2923883 147.152673,52.1666667 146.726936,52.1666667 L146.726936,52.1666667 Z M145.243892,58 L144,58 L144,51 L146.629202,51 C147.783504,51 149,51.4302972 149,53.1806714 C149,54.9392773 147.801274,55.3703229 146.638087,55.3703229 L145.243892,55.3703229 L145.243892,58 Z" id="Fill-66" fill="#FEFEFE"></path>
                <path d="M153.5,52.5952531 L152.526527,55.2402857 L154.474277,55.2402857 L153.5,52.5952531 Z M154.89791,56.3599034 L152.102894,56.3599034 L151.456592,58 L150,58 L152.902733,51 L154.098071,51 L157,58 L155.544212,58 L154.89791,56.3599034 Z" id="Fill-68" fill="#FEFEFE"></path>
                <polygon id="Fill-70" fill="#FEFEFE" points="160.104733 54.3926013 159.350653 53.3156207 159.371055 54.9935849 159.371055 58 158 58 158 51 159.26333 51 161.895267 54.6073987 162.649347 55.6851278 162.629761 54.0064151 162.629761 51 164 51 164 58 162.737486 58"></polygon>
                <mask id="mask-12" fill="white">
                    <use xlink:href="#path-11"></use>
                </mask>
                <g id="Clip-73"></g>
                <polygon id="Fill-72" fill="#FEFEFE" mask="url(#mask-12)" points="166 58 167 58 167 51 166 51"></polygon>
                <polygon id="Fill-74" fill="#FEFEFE" mask="url(#mask-12)" points="1.31336045 69 0 69 0 62 5 62 5 63.1666667 1.31336045 63.1666667 1.31336045 64.8362198 4.55021902 64.8362198 4.55021902 66.0021381 1.31336045 66.0021381"></polygon>
                <path d="M8.21715307,65.4992776 C8.21715307,66.7815273 8.56879095,67.8737874 10.0003574,67.8737874 C11.4319238,67.8737874 11.7742704,66.7815273 11.7742704,65.4992776 C11.7742704,64.2184727 11.4319238,63.1262126 10.0003574,63.1262126 C8.56879095,63.1262126 8.21715307,64.2184727 8.21715307,65.4992776 M7,65.4992776 C7,63.368937 7.88266825,62 10.0003574,62 C12.1173317,62 13,63.368937 13,65.4992776 C13,67.631063 12.1173317,69 10.0003574,69 C7.88266825,69 7,67.631063 7,65.4992776" id="Fill-75" fill="#FEFEFE" mask="url(#mask-12)"></path>
                <path d="M18.1930295,65.0782637 C18.6659517,65.0782637 19.2828418,64.9981824 19.2828418,64.1270181 C19.2828418,63.2468727 18.6659517,63.166043 18.1930295,63.166043 L16.3504021,63.166043 L16.3504021,65.0782637 L18.1930295,65.0782637 Z M16.3504021,69 L15,69 L15,62 L18.1061662,62 C19.408311,62 20.6621984,62.4034 20.6621984,64.1270181 C20.6621984,65.3649097 20.0163539,65.9127553 19.1766756,66.11932 L21,69 L19.4179625,69 L17.7297587,66.2532877 L16.3504021,66.2532877 L16.3504021,69 Z" id="Fill-76" fill="#FEFEFE" mask="url(#mask-12)"></path>
                <path d="M25,66.9301269 L26.3741149,66.7986376 C26.4806229,67.5875735 27.0228456,67.8743936 28.0483888,67.8743936 C28.8036275,67.865724 29.6548849,67.6143049 29.6548849,66.8694396 C29.6548849,66.279905 29.2579004,66.0284859 28.0096586,65.9237279 C26.6258612,65.8211374 25.2711113,65.4996388 25.2614288,64.0532563 C25.2517462,62.6321602 26.5193531,62 27.980611,62 C29.9550439,62 30.8547139,62.7788213 30.9902696,64.0612034 L29.6161547,64.1912478 C29.5096467,63.3936423 29.0061542,63.1256064 27.980611,63.1256064 C27.4682428,63.134276 26.6161786,63.2997213 26.6161786,64.0612034 C26.6258612,64.5300857 26.9163376,64.7287646 28.0774365,64.8335226 C29.9251893,64.9801837 30.9902696,65.2836206 31,66.8694396 C31.0096347,68.3765094 29.5483768,69 28.0483888,69 C26.0061781,69 25.1549208,68.2717515 25,66.9301269" id="Fill-77" fill="#FEFEFE" mask="url(#mask-12)"></path>
                <path d="M35.5,63.5952531 L34.5265273,66.2402857 L36.4742765,66.2402857 L35.5,63.5952531 Z M36.89791,67.3599034 L34.1028939,67.3599034 L33.4565916,69 L32,69 L34.9027331,62 L36.0980707,62 L39,69 L37.5442122,69 L36.89791,67.3599034 Z" id="Fill-78" fill="#FEFEFE" mask="url(#mask-12)"></path>
                <polygon id="Fill-79" fill="#FEFEFE" mask="url(#mask-12)" points="43.9987836 69 42.6619485 65.4992517 42.2632976 64.3961941 42.2725865 66.3254223 42.2725865 69 41 69 41 62 42.5133252 62 44.0080725 65.8135557 44.499613 67.1336327 44.9919275 65.8135557 46.4874489 62 48 62 48 69 46.7281875 69 46.7281875 66.3254223 46.7374765 64.3961941 46.3380515 65.4992517 45.0019905 69"></polygon>
                <polygon id="Fill-80" fill="#FEFEFE" mask="url(#mask-12)" points="53.0891228 69 51.9101754 69 51.9101754 63.1666667 50 63.1666667 50 62 55 62 55 63.1666667 53.0891228 63.1666667"></polygon>
                <polygon id="Fill-81" fill="#FEFEFE" mask="url(#mask-12)" points="57 69 58 69 58 62 57 62"></polygon>
                <path d="M62.5958448,67.8333333 C64.119169,67.8333333 64.6554292,66.92709 64.6554292,65.4992517 C64.6554292,64.07291 64.119169,63.1666667 62.5958448,63.1666667 L61.3171305,63.1666667 L61.3171305,67.8333333 L62.5958448,67.8333333 Z M60,69 L60,62 L62.5958448,62 C64.8333987,62 66,63.0858456 66,65.4992517 C66,67.913406 64.8333987,69 62.5958448,69 L60,69 Z" id="Fill-82" fill="#FEFEFE" mask="url(#mask-12)"></path>
                <path d="M68,66.9301269 L69.3741149,66.7986376 C69.4806229,67.5875735 70.0228456,67.8743936 71.0483888,67.8743936 C71.8036275,67.865724 72.6548849,67.6143049 72.6548849,66.8694396 C72.6548849,66.279905 72.2579004,66.0284859 71.0096586,65.9237279 C69.6258612,65.8211374 68.2711113,65.4996388 68.2614288,64.0532563 C68.2517462,62.6321602 69.5193531,62 70.980611,62 C72.9550439,62 73.8547139,62.7788213 73.9902696,64.0612034 L72.6161547,64.1912478 C72.5096467,63.3936423 72.0061542,63.1256064 70.980611,63.1256064 C70.4682428,63.134276 69.6161786,63.2997213 69.6161786,64.0612034 C69.6258612,64.5300857 69.9163376,64.7287646 71.0774365,64.8335226 C72.9251893,64.9801837 73.9902696,65.2836206 74,66.8694396 C74.0096347,68.3765094 72.5483768,69 71.0483888,69 C69.0061781,69 68.1549208,68.2717515 68,66.9301269" id="Fill-83" fill="#FEFEFE" mask="url(#mask-12)"></path>
                <path d="M78.5958448,67.8333333 C80.119169,67.8333333 80.6554292,66.92709 80.6554292,65.4992517 C80.6554292,64.07291 80.119169,63.1666667 78.5958448,63.1666667 L77.3171305,63.1666667 L77.3171305,67.8333333 L78.5958448,67.8333333 Z M76,69 L76,62 L78.5958448,62 C80.8333987,62 82,63.0858456 82,65.4992517 C82,67.913406 80.8333987,69 78.5958448,69 L76,69 Z" id="Fill-84" fill="#FEFEFE" mask="url(#mask-12)"></path>
                <path d="M86.5,63.5952531 L85.5265273,66.2402857 L87.4742765,66.2402857 L86.5,63.5952531 Z M87.89791,67.3599034 L85.1028939,67.3599034 L84.4565916,69 L83,69 L85.9027331,62 L87.0980707,62 L90,69 L88.5442122,69 L87.89791,67.3599034 Z" id="Fill-85" fill="#FEFEFE" mask="url(#mask-12)"></path>
                <polygon id="Fill-86" fill="#FEFEFE" mask="url(#mask-12)" points="93.1047334 65.3926013 92.3506529 64.3156207 92.3710555 65.9935849 92.3710555 69 91 69 91 62 92.2633297 62 94.8952666 65.6073987 95.6493471 66.6851278 95.6297606 65.0064151 95.6297606 62 97 62 97 69 95.7383025 69"></polygon>
                <path d="M99,66.9301269 L100.374115,66.7986376 C100.480623,67.5875735 101.022846,67.8743936 102.048389,67.8743936 C102.803628,67.865724 103.654885,67.6143049 103.654885,66.8694396 C103.654885,66.279905 103.2579,66.0284859 102.009659,65.9237279 C100.625861,65.8211374 99.2711113,65.4996388 99.2614288,64.0532563 C99.2517462,62.6321602 100.519353,62 101.980611,62 C103.955044,62 104.854714,62.7788213 104.99027,64.0612034 L103.616155,64.1912478 C103.509647,63.3936423 103.006154,63.1256064 101.980611,63.1256064 C101.468243,63.134276 100.616179,63.2997213 100.616179,64.0612034 C100.625861,64.5300857 100.916338,64.7287646 102.077436,64.8335226 C103.925189,64.9801837 104.99027,65.2836206 105,66.8694396 C105.009635,68.3765094 103.548377,69 102.048389,69 C100.006178,69 99.1549208,68.2717515 99,66.9301269" id="Fill-87" fill="#FEFEFE" mask="url(#mask-12)"></path>
            </g>
        </g>
    </g>
</svg>