<?xml version="1.0" encoding="UTF-8" standalone="no"?>
<svg
   xmlns:dc="http://purl.org/dc/elements/1.1/"
   xmlns:cc="http://creativecommons.org/ns#"
   xmlns:rdf="http://www.w3.org/1999/02/22-rdf-syntax-ns#"
   xmlns:svg="http://www.w3.org/2000/svg"
   xmlns="http://www.w3.org/2000/svg"
   xmlns:sodipodi="http://sodipodi.sourceforge.net/DTD/sodipodi-0.dtd"
   xmlns:inkscape="http://www.inkscape.org/namespaces/inkscape"
   height="614.25635"
   width="400"
   inkscape:version="1.0 (4035a4fb49, 2020-05-01)"
   sodipodi:docname="sk-icon.svg"
   id="svg75"
   version="1.1"
   viewBox="0 0 400 614.25635">
  <metadata
     id="metadata79">
    <rdf:RDF>
      <cc:Work
         rdf:about="">
        <dc:format>image/svg+xml</dc:format>
        <dc:type
           rdf:resource="http://purl.org/dc/dcmitype/StillImage" />
      </cc:Work>
    </rdf:RDF>
  </metadata>
  <sodipodi:namedview
     inkscape:current-layer="Group"
     inkscape:window-maximized="1"
     inkscape:window-y="-11"
     inkscape:window-x="-11"
     inkscape:cy="331.47816"
     inkscape:cx="150.56871"
     inkscape:zoom="0.96251659"
     showgrid="false"
     id="namedview77"
     inkscape:window-height="1000"
     inkscape:window-width="1920"
     inkscape:pageshadow="2"
     inkscape:pageopacity="0"
     guidetolerance="10"
     gridtolerance="10"
     objecttolerance="10"
     borderopacity="1"
     bordercolor="#666666"
     pagecolor="#ffffff" />
  <defs
     id="defs4">
    <style
       id="style2">.cls-1{fill:#1a1918;}.cls-2{fill:#005d9b;}.cls-3{fill:#b59930;}</style>
  </defs>
  <title
     id="title6">sk-icon</title>
  <g
     transform="translate(-0.03)"
     data-name="Layer 2"
     id="Layer_2">
    <g
       data-name="Layer 1"
       id="Layer_1-2">
      <g
         id="Group">
        <path
           style="stroke-width:1"
           d="m 199.78349,132.41578 c -64.25637,0 -104.847985,16.18734 -104.847985,16.18734 H 304.46714 c 0,0 -40.59162,-16.18734 -104.84799,-16.18734 z m 136.72966,-16.92687 v 0.2465 a 5.05341,5.05341 0 0 1 4.10847,5.29992 5.7929334,5.7929334 0 0 1 -2.34183,5.25883 c -1.84881,1.52014 -3.04026,1.56122 -4.8069,3.20461 a 11.216105,11.216105 0 0 0 -4.10846,8.99753 c 0,2.91701 1.3147,4.47823 1.3147,7.43632 a 3.4921939,3.4921939 0 0 1 -0.90386,2.46508 v 0.24651 H 400.03 v 265.61215 a 200,200 0 1 1 -400,0 V 148.60312 h 70.090386 v -0.24651 a 3.4921939,3.4921939 0 0 1 -0.903862,-2.46507 c 0,-2.91701 1.314708,-4.47823 1.314708,-7.43632 a 11.216105,11.216105 0 0 0 -4.108463,-8.99754 c -1.725555,-1.64338 -2.958094,-1.68447 -4.806903,-3.2046 a 5.7929334,5.7929334 0 0 1 -2.341824,-5.25883 5.3410024,5.3410024 0 0 1 4.108464,-5.50534 l -31.717338,-83.032049 5.792934,-2.382909 6.532456,-2.506163 6.614626,17.214462 3.492194,-1.396877 -5.751848,-17.543139 5.957272,-2.095317 6.285949,-2.054231 5.710764,17.091207 3.697617,-1.232539 -5.176664,-17.337715 6.162695,-1.930978 7.518488,-2.21857 22.596549,87.058338 9.98357,-2.30074 10.47658,-2.218568 -17.00904,-89.1536562 9.98356,-2.0953163 C 118.64134,6.5324568 125.1738,5.3820871 125.1738,5.3820871 l 3.69761,18.2826619 7.43632,-1.15037 -2.1364,-18.4059156 10.4355,-1.4790468 10.96959,-1.232539 2.21857,18.6935084 6.94331,-0.5341 L 163.95769,0.73952341 174.84512,0.32867707 185.93797,0 l 1.64338,91.413311 c 4.10847,0 8.21693,0 12.32539,0 h 0.2876 c 4.10846,0 8.21692,0 12.32539,0 L 213.95769,0 l 11.09285,0.32867707 10.88743,0.45193098 -0.82169,18.85784695 6.9433,0.5341 2.25965,-18.7756774 10.9696,1.232539 10.4355,1.4790468 -2.1364,18.5702546 7.4774,1.027116 3.69762,-18.2826623 c 0,0 6.49137,1.1914544 10.64092,1.9720624 l 9.98356,2.0953164 -17.05012,89.1125715 10.47658,2.259658 9.98357,2.30074 22.59655,-87.058343 7.51849,2.21857 6.16269,1.930978 -5.17666,17.29663 3.69761,1.232539 5.71077,-17.091207 6.28595,2.054231 5.95727,2.095317 -5.75185,17.543139 3.49219,1.396877 6.61463,-17.214462 6.53246,2.506163 5.79293,2.382909 z"
           class="cls-1"
           id="Fill-17" />
        <path
           style="fill:#0064b4;fill-opacity:1;stroke-width:1"
           d="M 396.29129,152.25965 V 413.6401 a 196.36401,196.36401 0 1 1 -392.7280115,0 V 152.25965 H 396.29129"
           class="cls-2"
           id="Fill-18" />
        <path
           style="stroke-width:1"
           d="m 240.82704,481.34757 h 5.71076 c 8.21693,-14.91372 15.89976,-27.8143 19.06327,-33.60723 2.01315,-3.69762 8.21693,-4.60148 16.43386,-4.60148 9.12079,0 16.43385,2.09532 16.43385,5.0945 0,2.17748 -14.50287,15.89975 -21.52835,32.8677 32.86771,0 60.47658,-11.87346 66.59819,-11.87346 0.41085,0 0.86278,0 0.86278,0.61627 0,0.61627 -0.61627,1.02712 -0.98603,1.68447 a 46.63106,46.63106 0 0 0 -7.18981,9.77815 c -8.21693,11.38044 -34.10025,66.68036 -56.73788,62.53081 a 494.65899,494.65899 0 0 0 -71.81594,-7.35415 163.31142,163.31142 0 0 0 14.46179,26.58176 c 3.86196,5.38209 -13.47576,8.21693 -17.62531,8.21693 -5.09449,0 -8.21692,-0.73953 -9.24404,-2.58834 -10.10682,-20.82991 -13.51684,-33.89482 -28.75924,-33.89482 -4.10847,0 -67.584226,-1.23254 -108.709945,3.65653 18.652424,-17.33771 16.433854,-34.96302 31.758422,-54.60148 A 36.976171,36.976171 0 0 1 114.2042,469.47411 c 0,0 5.42317,1.97207 9.98356,4.10847 0,0 13.18817,-18.24158 13.18817,-34.34676 0,-18.48808 -12.0378,-36.72966 -31.51191,-36.72966 -11.175023,0 -18.405919,3.86195 -22.637636,12.32539 a 21.199671,21.199671 0 0 1 10.764174,-2.46508 c 10.065732,0 14.543962,7.06656 14.543962,15.73542 a 13.763352,13.763352 0 0 1 -7.31307,12.69515 8.2169268,8.2169268 0 0 1 -5.012322,9.73706 7.2719802,7.2719802 0 0 1 -5.916187,8.50452 7.8060805,7.8060805 0 0 1 -7.148726,9.32621 c 1.6023,6.65571 -5.094495,8.95645 -10.599836,7.10764 -4.642564,5.38209 -4.724733,10.23007 -5.998357,16.8447 A 22.350041,22.350041 0 0 1 58.657773,505.341 c -0.575185,0 3.410024,-7.55957 3.410024,-12.0378 0,-4.47822 0,-6.20378 0,-10.1479 a 17.255546,17.255546 0 0 1 3.779787,-11.25719 7.6828266,7.6828266 0 0 1 0,-11.58587 8.6688578,8.6688578 0 0 1 2.177485,-11.05177 c -2.259655,-8.21692 2.30074,-11.29827 3.861956,-12.11996 a 17.9129,17.9129 0 0 1 2.875924,-15.2424 c 0,-20.99425 16.967954,-26.91044 33.689401,-26.91044 17.78965,0 36.97617,17.9129 36.97617,43.50863 0,19.84388 -12.85949,37.92112 -12.85949,37.92112 l 1.10928,0.2465 c 8.99754,-14.29745 16.43386,-24.89728 16.43386,-44.12489 0,-37.75678 -58.299098,-51.39688 -69.84388,-85.78472 -1.972062,4.43714 -6.409203,14.79047 -17.502054,14.79047 -12.736236,0 -12.037798,0.94495 -13.270337,2.71159 a 2.8348397,2.8348397 0 0 1 -1.643385,-2.71159 7.5595727,7.5595727 0 0 1 0.246508,-1.72556 c -5.751849,0.86278 -6.532457,-2.34182 -10.147905,-5.09449 a 15.571076,15.571076 0 0 0 -8.668858,-3.12243 21.610517,21.610517 0 0 0 -2.917009,0 8.2169268,8.2169268 0 0 1 6.409203,-6.24487 c -0.328677,-0.98603 -1.68447,-0.90386 -2.423993,-1.64338 4.806902,-0.86278 5.135579,-2.54725 8.709942,-3.7387 a 18.364831,18.364831 0 0 1 6.532457,-1.23254 c 2.875924,0 4.478225,0.61627 7.35415,0.61627 2.875924,0 6.368118,-0.5341 6.368118,-2.71159 0,-2.17748 -2.054232,-2.34182 -3.779786,-2.34182 -6.655711,0 -4.601479,3.49219 -16.762531,3.49219 -3.204602,0 -5.094495,-0.45193 -7.313065,-0.45193 a 8.42235,8.42235 0 0 0 -6.902219,2.25965 1.5201315,1.5201315 0 0 1 -0.616269,-1.39687 7.8882497,7.8882497 0 0 1 2.423993,-6.77897 10.599836,10.599836 0 0 1 -8.216926,-5.8751 c -2.423994,-5.38209 -1.807724,-10.23007 -6.573542,-13.72227 1.027116,-1.64338 5.66968,-1.31471 8.216927,1.02712 -1.232539,-3.04027 -2.465078,-4.10847 -2.465078,-6.77897 a 35.456039,35.456039 0 0 0 0,-8.75102 16.064092,16.064092 0 0 1 -0.986031,-3.82087 5.6696795,5.6696795 0 0 1 0,-0.65736 c 1.807724,0 2.341824,1.64339 4.108463,2.58833 a 46.754313,46.754313 0 0 0 6.861134,2.62942 10.353328,10.353328 0 0 1 0.944947,-3.7387 c 0.369761,-1.15037 0.369761,-2.21857 1.314708,-2.71159 0.944946,-0.49301 1.273624,1.27363 1.807724,2.17749 0.5341,0.90386 2.054231,1.76664 3.574363,2.58833 a 107.18981,107.18981 0 0 1 12.32539,4.84799 35.004108,35.004108 0 0 1 7.025473,6.20378 c 1.396877,1.3147 2.547247,2.6705 4.108463,2.79375 a 1.3968776,1.3968776 0 0 0 1.68447,-1.43796 6.73788,6.73788 0 0 0 -2.259655,-3.41003 c -2.547247,-2.62941 -2.75267,-4.51931 -6.327034,-5.91618 -5.217748,-2.01315 -9.860312,-1.93098 -14.54396,-5.05341 a 19.967132,19.967132 0 0 1 -5.05341,-4.10847 15.447822,15.447822 0 0 1 -3.245686,-7.97042 36.277732,36.277732 0 0 0 -2.711586,-7.64174 c 3.204602,0 4.560394,2.75267 7.764996,2.75267 a 6.6967953,6.6967953 0 0 0 1.314708,-0.20542 c -1.232539,-2.75267 -3.245686,-3.90304 -3.245686,-6.98439 0,-7.23089 3.697617,-9.73706 3.697617,-16.22843 a 8.2169268,8.2169268 0 0 0 -1.109285,-4.88907 10.188989,10.188989 0 0 1 6.778965,3.77979 5.5464256,5.5464256 0 0 1 0,-1.10929 c 0,-8.21693 6.409203,-12.53081 6.409203,-18.24158 a 20.542317,20.542317 0 0 0 -1.314709,-5.13557 c 8.216927,2.917 21.076417,12.32539 21.076417,22.76088 0,2.87593 -0.493015,4.60148 -0.493015,6.65571 0,2.05423 0.410846,4.10847 1.355793,4.10847 0.944946,0 1.191454,-1.19146 0.944946,-2.6705 a 35.620378,35.620378 0 0 1 -1.0682,-8.8332 c 0,-5.01233 5.628595,-10.47658 7.066557,-11.91454 a 13.064914,13.064914 0 0 0 2.670501,8.21692 c 4.642564,5.21775 8.751027,6.98439 9.449466,13.35251 4.108463,-0.94495 5.464256,-1.6023 7.313065,-4.39606 -0.328677,2.6705 0.862777,11.33936 0.862777,13.14708 0,3.04027 -2.588332,5.66968 -5.299918,9.81923 -2.013147,3.12243 -10.476581,9.69598 -10.476581,18.85785 0,1.02712 0.451931,2.1364 1.479047,2.1364 a 3.6565324,3.6565324 0 0 0 3.245686,-3.86196 13.845522,13.845522 0 0 1 1.6023,-6.90221 115.03698,115.03698 0 0 1 7.271981,-11.13394 4.1084634,4.1084634 0 0 1 1.930977,2.17749 c 3.656533,-2.34183 7.518488,-3.61545 8.833198,-7.765 a 3.7797863,3.7797863 0 0 1 2.09531,2.01315 c 2.79376,-3.69762 6.90222,-3.16352 9.69598,-6.86114 -1.39688,4.68365 0.90386,8.21693 0.90386,11.29828 a 22.308956,22.308956 0 0 1 -0.57518,5.83402 7.2308956,7.2308956 0 0 1 2.21857,-0.5341 3.2456861,3.2456861 0 0 1 2.95809,1.52013 c -0.5341,0.98603 -1.35579,0.61627 -2.17749,1.84881 -3.82087,5.91618 0.90387,15.36565 -2.01314,19.72062 a 27.156943,27.156943 0 0 0 6.61462,2.6705 c -4.10846,1.23254 -5.99835,5.46426 -11.38044,9.65489 -3.90304,2.99918 -15.365654,3.53328 -18.940017,4.93016 a 3.7797863,3.7797863 0 0 0 -2.75267,2.99917 3.0402629,3.0402629 0 0 0 2.588332,2.79376 c 3.081347,0 4.108463,-2.91701 7.025475,-4.43714 a 44.535743,44.535743 0 0 1 12.85949,-3.04026 7.970419,7.970419 0 0 0 4.10846,-2.01315 8.2169268,8.2169268 0 0 1 0.73952,2.01315 2.9580936,2.9580936 0 0 1 1.80773,-0.65736 h 5.54642 a 8.4634346,8.4634346 0 0 0 2.99918,-0.57518 c -0.73952,2.21857 -2.58833,2.58833 -3.86195,4.51931 -1.27363,1.93097 -1.43797,4.64256 -3.32786,6.61462 a 4.5193097,4.5193097 0 0 1 1.68447,3.24569 h -1.88989 c -4.97124,0 -7.39524,13.68118 -23.500413,13.68118 a 11.668036,11.668036 0 0 1 -7.436319,-1.64338 c 5.957272,10.88742 14.913722,19.10435 31.265402,30.60805 23.74692,16.72145 38.7839,31.51191 38.7839,53.94412 0,17.29663 -7.64174,30.4848 -17.66639,45.80937 h 2.25965 a 337.34593,337.34593 0 0 1 24.28102,-30.03287 c 2.58833,-2.83484 6.12161,-2.62941 13.06491,-2.62941 6.94331,0 13.47576,1.39687 10.72309,4.64256 a 98.603122,98.603122 0 0 0 -23.788,30.11504 c 0,0 8.21693,0 13.06491,0.32867 13.80444,-19.96713 23.13065,-40.50945 23.13065,-58.79211 0,-15.65324 -4.10846,-26.82826 -9.65489,-41.08463 a 111.25719,111.25719 0 0 1 -9.98356,-43.79622 91.536565,91.536565 0 0 1 1.84881,-16.43385 c -4.84799,2.79375 -11.13394,18.1594 -26.45851,18.1594 -12.32539,0 -11.13393,-5.38208 -19.02218,-5.38208 a 16.433854,16.433854 0 0 0 -9.20296,3.16351 9.0386195,9.0386195 0 0 1 1.68447,-6.28595 c 1.56121,-1.80772 2.34182,-3.24568 4.64256,-4.10846 -4.10846,-1.47905 -10.35333,-3.45111 -12.32539,-17.3788 -0.49301,-3.16352 -2.99918,-5.66968 -4.10846,-9.20296 4.84799,-0.36976 4.64256,4.10847 11.33936,4.51931 a 7.3130649,7.3130649 0 0 1 -2.71159,-6.12161 c 4.10847,0 4.88907,1.43796 7.97042,1.43796 3.08135,0 6.03944,0.49302 10.59984,0.49302 a 35.90797,35.90797 0 0 1 14.05094,4.2728 c 0.65736,0 0.86278,-0.32868 0.86278,-0.78061 0,-4.10846 -11.42153,-6.73788 -14.54396,-6.73788 -11.91455,0 -18.28266,-8.75102 -26.12983,-9.32621 a 24.979457,24.979457 0 0 1 6.77897,-2.50616 26.663927,26.663927 0 0 1 -8.79212,-18.32375 107.64174,107.64174 0 0 0 -0.65735,-14.66721 27.362366,27.362366 0 0 0 10.06573,8.66886 35.866885,35.866885 0 0 1 -4.10846,-14.54396 43.015612,43.015612 0 0 1 4.10846,-18.03616 21.199671,21.199671 0 0 0 12.3254,15.61216 10.394412,10.394412 0 0 1 4.10846,-8.50452 c 1.68447,3.16352 1.47905,7.14873 5.25883,9.65489 a 46.096959,46.096959 0 0 1 10.47658,9.03862 27.649959,27.649959 0 0 1 9.12079,15.85867 c 0,0.78061 0.57519,1.52013 1.35579,1.52013 1.64339,0 1.52014,-1.84881 1.52014,-3.2046 a 21.692687,21.692687 0 0 0 -4.10847,-10.51767 c -7.80608,-9.86031 -16.023,-10.27116 -16.023,-25.71898 a 34.880854,34.880854 0 0 1 1.23253,-11.38044 27.649959,27.649959 0 0 0 3.4922,4.97124 17.543139,17.543139 0 0 1 -0.24651,-4.10846 20.912079,20.912079 0 0 1 5.38209,-12.90058 15.201315,15.201315 0 0 0 2.42399,-3.86195 c 0.90386,0.94494 0.41085,4.8069 2.17749,5.8751 a 27.362366,27.362366 0 0 1 13.14708,-23.08957 c 0.5341,1.93098 0.36976,3.4922 0.86278,5.29992 3.86195,-12.32539 10.59983,-15.85867 19.02218,-21.07642 a 14.379622,14.379622 0 0 0 6.08053,-6.90221 7.3541495,7.3541495 0 0 1 1.72555,4.97124 c 0,5.75185 -3.86195,8.58669 -3.86195,15.36565 a 7.6828266,7.6828266 0 0 0 1.47904,4.97124 c 2.50617,-5.75185 7.55958,-3.16352 9.98357,-6.53246 a 16.680361,16.680361 0 0 0 -1.88989,8.66886 c 0,3.32786 1.0682,4.31389 1.0682,8.62777 a 14.338537,14.338537 0 0 1 -0.45193,3.53328 5.05341,5.05341 0 0 1 2.75267,-0.57518 c 2.38291,0 2.09531,0.65735 4.10846,0.65735 h 2.6705 a 10.969597,10.969597 0 0 0 -2.34182,7.18981 c 0,3.69762 2.6705,7.02548 2.30074,12.61299 a 58.093672,58.093672 0 0 0 10.06573,-8.58669 84.593261,84.593261 0 0 1 -0.82169,10.72309 c 0,2.17748 0.41085,2.99918 0.41085,5.58751 a 16.433854,16.433854 0 0 1 -0.5341,4.10846 8.6277731,8.6277731 0 0 0 2.54724,-1.72555 c 0,14.33853 -5.25883,17.46097 -14.62613,22.80197 a 68.52917,68.52917 0 0 0 -10.72309,5.46425 c -2.62941,2.01315 -5.25883,4.97124 -5.25883,6.86114 0,0.5341 0,2.17748 0.86278,2.17748 a 15.653246,15.653246 0 0 0 8.62777,-5.42317 59.942481,59.942481 0 0 1 8.21693,-7.55957 c 9.24404,-7.10764 14.21528,-6.1627 18.94001,-14.74938 a 5.5875102,5.5875102 0 0 1 1.47905,4.10846 9.8603122,9.8603122 0 0 1 -1.10928,4.88907 c 5.99835,-0.78061 15.36565,-4.8069 17.0912,-7.84716 a 19.515201,19.515201 0 0 1 -0.20542,4.10846 c 0,1.93098 0.20542,2.99918 0.20542,4.93015 0,5.75185 -3.32785,8.21693 -6.45028,11.58587 a 8.2169268,8.2169268 0 0 0 5.99835,2.21857 18.775678,18.775678 0 0 0 5.71077,-1.35579 c -5.75185,3.86195 -5.05341,17.09121 -16.43386,22.1857 0.78061,1.02712 3.69762,0.94495 3.69762,1.47905 0,1.52013 -2.05423,1.31471 -3.45111,1.93098 a 21.035333,21.035333 0 0 1 -12.32539,4.93015 43.467543,43.467543 0 0 0 -15.16023,1.93098 c -3.65653,1.31471 -9.73706,5.95727 -9.73706,7.92933 0,0.5341 0,1.3558 0.94495,1.3558 4.10846,0 7.72391,-8.95645 25.34922,-8.95645 a 13.147083,13.147083 0 0 0 7.14872,-2.1364 5.05341,5.05341 0 0 1 -0.65735,4.10846 38.003286,38.003286 0 0 0 12.90058,-0.98603 c -4.88908,5.58751 -4.10847,10.35333 -10.06574,15.2424 h 1.68447 l 3.90304,-0.98603 a 33.853738,33.853738 0 0 1 -3.49219,6.77896 c -2.91701,4.88907 -3.4922,10.18899 -8.95645,11.54478 a 11.380444,11.380444 0 0 1 2.6705,3.04027 h -2.75267 c -4.10847,0 -11.5037,6.65571 -19.67954,6.65571 -16.43386,0 -22.43221,-15.57108 -25.06163,-19.8028 a 54.889071,54.889071 0 0 0 -2.05423,12.32539 c 0,24.65078 10.92851,43.46755 17.54314,66.02301 a 71.81594,71.81594 0 0 1 3.32785,20.21364 c 0,25.55464 -7.55957,39.93426 -18.94001,60.27116 8.21692,0 16.43385,0 23.41824,0 a 153.28677,153.28677 0 0 1 13.84552,-49.63024 87.345932,87.345932 0 0 1 19.55629,-28.75924 c 6.82005,-6.53246 14.37962,-11.62696 23.50041,-19.92605 a 94.24815,94.24815 0 0 0 24.23993,-30.93673 10.805259,10.805259 0 0 1 -7.68283,1.84881 c -21.56943,0 -19.43303,-13.106 -32.00493,-13.106 a 9.1618734,9.1618734 0 0 1 8.21693,-4.68365 13.927691,13.927691 0 0 1 -3.04026,-9.94248 c 0,-4.10846 -2.09532,-8.50452 -5.25884,-8.50452 0,0 -2.01314,-0.57518 -2.01314,-1.23254 a 10.928513,10.928513 0 0 1 5.25883,-1.43796 21.487264,21.487264 0 0 1 11.83238,3.24569 8.2169268,8.2169268 0 0 1 -0.49302,-7.64175 c 2.6705,4.47823 3.77979,3.77979 7.97042,5.29992 a 12.32539,12.32539 0 0 1 5.50534,4.31389 6.6557107,6.6557107 0 0 0 4.72473,2.95809 0.98603122,0.98603122 0 0 0 0.78061,-0.82169 13.064914,13.064914 0 0 0 -5.99836,-7.88825 c -2.83484,-1.64339 -11.70912,-5.05341 -11.70912,-12.94166 0,-6.49137 -0.73952,-9.77814 -4.10846,-12.32539 a 10.476582,10.476582 0 0 1 6.73788,1.84881 26.95152,26.95152 0 0 1 -0.36976,-4.31389 c 0,-3.45111 0.73952,-4.10846 0.73952,-6.98439 a 22.925226,22.925226 0 0 0 -3.61545,-12.32539 10.394412,10.394412 0 0 1 4.88908,1.31471 12.695152,12.695152 0 0 1 0,-2.6705 c 0,-4.88907 3.61544,-6.57354 3.61544,-12.69515 2.30074,7.10764 8.21693,6.77896 12.53082,13.3525 a 15.201315,15.201315 0 0 0 4.56039,-4.47822 22.267872,22.267872 0 0 0 0.57519,4.88907 c 1.56121,5.50534 5.58751,7.43632 6.82005,13.06491 a 29.991783,29.991783 0 0 1 0,12.73624 c -0.20543,2.17749 2.05423,8.50452 4.10846,8.50452 2.05423,0 3.04026,-3.45111 3.04026,-6.53246 0,-10.682 -8.21693,-16.72144 -8.21693,-29.70419 0,-10.10682 5.71077,-13.39359 6.86114,-22.26787 2.91701,0.57519 3.2046,2.50616 3.2046,4.72473 0,0.8217 -1.39688,7.68283 1.84881,9.61381 a 18.118324,18.118324 0 0 1 2.17748,-7.88825 109.73706,109.73706 0 0 1 9.81923,-11.33936 21.651602,21.651602 0 0 0 2.38291,-4.10846 8.2169268,8.2169268 0 0 1 3.65653,8.21692 c 0,-6.69679 14.50288,-14.91372 15.52999,-21.89811 1.31471,7.35415 7.35415,10.59984 7.35415,20.82991 a 29.580936,29.580936 0 0 1 -1.88989,11.5037 9.5316351,9.5316351 0 0 0 7.92934,-6.9433 c 0,6.4092 3.12243,8.91536 3.12243,15.4889 a 16.433854,16.433854 0 0 1 -2.46508,8.87429 30.690222,30.690222 0 0 0 9.16187,-1.19146 l -5.25883,11.66804 c -3.41002,6.86113 -2.75267,11.95563 -6.86113,15.94084 -3.32786,3.24568 -6.40921,3.04026 -12.69516,3.04026 -7.55957,0 -14.00986,2.79375 -14.00986,5.58751 a 1.232539,1.232539 0 0 0 1.02712,1.27362 c 2.87592,0 4.68365,-3.45111 13.84552,-3.45111 4.10846,0 12.32539,0.49302 17.99507,-5.66968 a 9.9013968,9.9013968 0 0 1 -1.72555,9.03862 14.54396,14.54396 0 0 1 2.05423,-0.28759 c 1.93098,0 2.75267,0 4.68365,0 a 11.216105,11.216105 0 0 0 4.93015,-1.0682 c -6.08052,6.36812 -4.60148,14.99589 -10.31224,18.81676 a 16.433854,16.433854 0 0 0 11.79129,1.64339 c -4.88907,8.21692 -8.87428,15.7765 -16.06409,15.7765 a 11.914544,11.914544 0 0 1 -3.04027,-0.36976 5.7518488,5.7518488 0 0 0 4.10847,1.68447 17.091208,17.091208 0 0 1 -9.53164,2.87592 c -8.58669,0 -18.24157,-6.4092 -26.04766,-6.4092 -1.23253,0 -3.08134,0.7806 -3.08134,2.09531 0,1.31471 1.02711,1.72556 2.95809,1.72556 1.93098,0 3.36894,0.61627 5.54643,0.61627 10.96959,0 10.23007,4.10846 17.3788,5.75185 a 18.940016,18.940016 0 0 1 -4.5604,4.10846 61.626951,61.626951 0 0 1 7.47741,4.43714 c -4.10847,0 -5.0945,6.90222 -12.94166,6.90222 a 10.846343,10.846343 0 0 0 2.01314,5.29992 c -5.75185,0 -6.36812,2.6705 -11.54478,2.6705 a 13.722268,13.722268 0 0 1 -4.10846,-0.65736 5.5875102,5.5875102 0 0 1 -1.31471,5.21775 25.677896,25.677896 0 0 0 -9.28513,-7.23089 15.365653,15.365653 0 0 1 -8.21693,-12.32539 c -0.32867,-1.72556 -0.69843,-3.86196 -2.30073,-3.86196 -1.60231,0 -1.93098,1.23254 -2.99918,3.28677 -6.82005,12.90058 -11.87346,22.51438 -25.26705,33.44289 a 128.55382,128.55382 0 0 0 -23.21282,22.35004 c -14.1742,17.74857 -21.19967,33.36073 -27.23911,68.57026 11.91454,-66.26952 46.46672,-79.4166 58.79211,-79.4166 a 17.009038,17.009038 0 0 1 13.39359,5.21775 11.873459,11.873459 0 0 1 11.91454,4.72473 13.393591,13.393591 0 0 1 11.25719,4.10847 10.435497,10.435497 0 0 1 9.73706,4.68364 11.133936,11.133936 0 0 1 10.64092,5.42318 h 1.0682 c 3.2046,0 8.21693,6.86113 21.07642,7.60065 -9.32621,5.91619 -20.54232,-1.02711 -20.54232,-1.02711 a 8.2169268,8.2169268 0 0 1 -8.21693,8.21692 8.2169268,8.2169268 0 0 1 -6.28594,-2.01314 9.4494658,9.4494658 0 0 1 -11.91455,0.2465 10.10682,10.10682 0 0 1 -10.51766,0.2876 11.585867,11.585867 0 0 1 -12.32539,0.36976 10.64092,10.64092 0 0 1 -5.95728,1.64338 13.188168,13.188168 0 0 1 -13.43467,-14.00986 20.542317,20.542317 0 0 1 10.39441,-17.21446 h -0.73952 c -6.40921,0 -41.37223,13.22925 -49.71241,71.44618"
           class="cls-1"
           id="Fill-19" />
        <path
           style="fill:#ffbf00;fill-opacity:1;stroke-width:1"
           d="m 238.85498,483.9359 h -1.23254 c 8.21693,-61.01068 44.45357,-76.54067 52.79375,-76.54067 11.5037,0 14.66722,6.49137 14.66722,14.91372 0,6.32704 -3.86196,13.27034 -10.18899,13.27034 a 9.1618734,9.1618734 0 0 1 -8.87428,-9.94248 c 0,-6.45029 5.95727,-11.75021 12.32539,-13.6401 a 10.558751,10.558751 0 0 0 -2.25966,-1.23254 c -4.10846,0 -12.73623,8.0115 -12.73623,16.06409 a 11.339359,11.339359 0 0 0 10.96959,11.79129 14.502876,14.502876 0 0 0 12.69516,-15.44782 c 0,-12.77732 -6.45029,-18.9811 -16.02301,-18.9811 -10.59984,0 -44.78225,12.69515 -56.9433,79.78636 h -1.19146 -2.21857 -1.19145 c 3.04026,-27.73213 11.33936,-52.79376 28.14297,-73.95234 7.80608,-9.81923 17.66639,-15.85867 26.37634,-24.36319 a 107.35415,107.35415 0 0 0 21.81594,-30.15612 18.405916,18.405916 0 0 1 2.01314,-3.61545 6.6146261,6.6146261 0 0 1 3.28677,-0.78061 3.7387017,3.7387017 0 0 1 4.10847,3.4922 c 2.09531,9.44946 3.65653,11.33936 11.29827,15.03697 a 15.365653,15.365653 0 0 1 2.83484,1.68447 17.419885,17.419885 0 0 1 -0.28759,-1.93098 v -2.05423 a 13.352506,13.352506 0 0 0 6.82005,2.46508 19.433032,19.433032 0 0 0 7.55957,-2.17748 c -0.82169,-2.09532 -1.68447,-4.10847 -2.42399,-6.20378 a 18.570255,18.570255 0 0 0 4.8069,0.73952 14.62613,14.62613 0 0 0 7.10764,-4.43714 8.6277731,8.6277731 0 0 0 -2.91701,-2.05423 14.913722,14.913722 0 0 1 -3.45111,-1.93098 l 4.10847,-3.57436 a 18.488085,18.488085 0 0 0 -12.85949,-4.10847 c -2.58834,0 -3.61545,-0.69844 -5.71077,-0.69844 -2.91701,0 -5.46425,-1.3147 -5.46425,-4.10846 0,-2.79376 3.53327,-4.64256 5.75184,-4.64256 9.20296,0 16.43386,6.24486 26.25309,6.24486 1.3147,0 3.04026,0.5341 4.10846,0 a 10.435497,10.435497 0 0 1 -2.99918,-4.93016 35.497124,35.497124 0 0 0 7.51849,0.57519 c 3.69762,0 7.68283,-4.10846 10.76417,-9.86031 a 55.012325,55.012325 0 0 1 -12.03779,-4.10847 c 6.77896,-2.25965 6.53245,-10.23007 9.77814,-15.94083 h -4.10847 -5.38208 c 0,0 2.30074,-4.51931 2.99918,-6.36812 a 24.979457,24.979457 0 0 1 -9.24405,2.54725 c -2.58833,0 -4.10846,0.49301 -6.69679,0.49301 -7.35415,0 -9.65489,3.36894 -13.06492,3.36894 a 3.5332785,3.5332785 0 0 1 -3.77978,-3.28677 c 0,-6.86113 11.13393,-8.62777 15.81758,-8.62777 6.86114,0 8.62778,0.65735 11.83238,-2.6705 3.2046,-3.32786 4.10846,-10.72309 6.65571,-15.65325 l 2.99918,-6.28595 c -1.3558,0.24651 -9.49055,0.45193 -8.79212,-0.5341 a 25.636812,25.636812 0 0 0 3.57437,-11.2161 22.226787,22.226787 0 0 0 -1.68447,-7.84717 c -1.76664,1.43796 -11.25719,3.86196 -10.59984,2.75267 a 25.143796,25.143796 0 0 0 3.41003,-14.83155 c 0,-6.4092 -2.83484,-8.54561 -4.97124,-13.59902 a 36.976171,36.976171 0 0 1 -6.86114,7.35415 40.098603,40.098603 0 0 0 -8.21693,13.6401 60.599835,60.599835 0 0 1 -2.1364,-7.18981 13.023829,13.023829 0 0 0 -0.90386,-2.87592 70.624486,70.624486 0 0 1 -7.18981,8.50452 c -5.01232,5.05341 -4.88907,7.97042 -5.91619,14.54396 -5.99835,-1.97207 -6.86113,-4.88907 -6.4092,-10.51767 a 36.483155,36.483155 0 0 0 -4.93016,14.58505 c 0,10.96959 7.92934,19.2276 7.92934,30.56696 0,2.83484 -1.43796,8.58669 -5.46426,8.58669 -4.02629,0 -6.57354,-7.64174 -6.57354,-10.9696 0,-7.76499 2.05423,-10.1479 -2.42399,-17.78964 a 30.484798,30.484798 0 0 1 -4.35497,-7.18981 v -0.41085 a 14.00986,14.00986 0 0 0 -2.83484,5.17666 20.008217,20.008217 0 0 0 -9.57272,-11.2161 11.996713,11.996713 0 0 1 -2.1364,-1.84881 13.434675,13.434675 0 0 0 -2.17749,6.4092 13.804437,13.804437 0 0 0 1.27362,5.42318 5.9572719,5.9572719 0 0 1 -3.53327,0 17.255546,17.255546 0 0 1 1.0682,11.25719 39.934264,39.934264 0 0 0 -0.57519,11.46261 26.705012,26.705012 0 0 1 -3.45111,-1.27363 28.10189,28.10189 0 0 1 1.23254,8.21693 c 0,9.3673 17.62531,9.57272 17.62531,20.54232 0,5.95727 -8.21693,4.64256 -10.27116,0.41084 -2.05423,-4.23171 -5.341,-4.2728 -9.03862,-5.8751 a 14.379622,14.379622 0 0 0 1.80772,7.06656 18.611339,18.611339 0 0 0 -13.27033,-5.66968 h -0.45193 a 14.00986,14.00986 0 0 1 2.58833,8.21693 14.708299,14.708299 0 0 0 5.62859,11.83237 35.866885,35.866885 0 0 0 -7.27198,1.31471 28.759244,28.759244 0 0 1 8.38127,5.99836 25.554642,25.554642 0 0 0 17.9129,6.03944 c 4.88907,0 8.21693,-2.62942 10.39441,-2.62942 0.94495,0 1.35579,0.98603 1.15037,1.27362 a 101.64338,101.64338 0 0 1 -25.18488,33.89483 c -9.16187,8.21692 -16.68036,13.68118 -23.54149,20.54231 a 91.002464,91.002464 0 0 0 -19.2687,27.77322 160.23007,160.23007 0 0 0 -14.09203,52.05423 h -0.5341 c -11.01068,0 -21.1175,0 -29.74527,-0.20543 10.02465,-19.59737 20.17255,-37.38701 20.17255,-62.85949 0,-26.95152 -20.54231,-52.17748 -20.54231,-86.27773 a 56.984387,56.984387 0 0 1 2.87592,-15.52999 1.1092851,1.1092851 0 0 1 1.52013,-0.65735 10.435497,10.435497 0 0 1 2.71159,3.49219 c 5.38208,9.12079 10.10682,17.58422 22.67872,17.58422 7.39523,0 10.51766,-4.47822 16.43385,-6.12161 a 16.433854,16.433854 0 0 1 -1.6023,-2.87592 h 1.97206 c 6.20378,0 8.21693,-8.21693 10.64092,-12.81841 a 21.939195,21.939195 0 0 1 -8.8332,-0.94494 c 8.42235,-3.82087 8.70995,-4.64257 12.11997,-12.32539 l 0.41085,-0.86278 h -1.43796 c -2.09532,0 -7.72392,0 -9.32622,0 -0.57518,0.61627 0.61627,-2.09532 0.8217,-2.50616 a 30.402629,30.402629 0 0 1 -4.5604,0.65735 c -15.52999,0 -20.0493,8.95645 -24.93837,8.95645 a 3.5332785,3.5332785 0 0 1 -3.61545,-3.45111 c 0,-4.47822 8.21693,-9.28512 11.54478,-10.76417 11.29828,-5.05341 14.74939,0.61627 26.45851,-5.95727 -1.10929,0 -2.25966,-0.41085 -2.25966,-1.80773 a 2.2185702,2.2185702 0 0 1 1.64339,-2.01314 c 8.66886,-2.83484 8.99753,-10.10682 12.98274,-16.68037 -3.12243,0 -4.35497,-2.05423 -6.4092,-2.05423 h -6.24486 c 3.86195,-3.32785 10.64092,-9.03862 10.64092,-14.62613 0,-0.90386 0,-1.64338 0,-2.34182 v -0.86278 a 72.226787,72.226787 0 0 1 -19.55629,6.61463 37.59244,37.59244 0 0 0 3.49219,-7.80608 77.198027,77.198027 0 0 1 -14.46179,9.81922 57.888249,57.888249 0 0 0 -10.27116,9.24405 16.187346,16.187346 0 0 1 -9.94248,5.62859 3.5743632,3.5743632 0 0 1 -3.24568,-3.65653 c 0,-12.73624 21.44618,-16.14626 26.37633,-22.10353 a 17.9129,17.9129 0 0 0 4.10847,-9.57272 7.5595727,7.5595727 0 0 1 -4.10847,1.02711 19.474117,19.474117 0 0 0 2.05423,-8.21692 c 0,-2.05424 -0.32867,-3.20461 -0.32867,-5.25884 a 44.823336,44.823336 0 0 1 0,-4.76582 c -2.87593,2.25966 -9.81923,7.2309 -9.81923,7.2309 1.93098,-7.60066 -1.76664,-11.46261 -1.76664,-17.62531 a 11.955628,11.955628 0 0 1 0.69844,-4.56039 v 0 a 19.720624,19.720624 0 0 0 -2.75267,0 27.115858,27.115858 0 0 0 -5.341,0.98603 12.94166,12.94166 0 0 0 1.02711,-5.99836 c 0,-4.10846 -1.0682,-5.29992 -1.0682,-8.62777 a 31.306491,31.306491 0 0 1 0.24651,-4.43714 c -3.69762,1.10928 -3.82087,4.10846 -4.10846,7.55957 -3.24569,-3.69762 -5.50535,-5.71076 -5.50535,-11.13393 0,-5.42318 3.16352,-9.16188 3.77979,-14.13312 a 76.705012,76.705012 0 0 1 -11.58587,8.21693 c -6.86113,4.8069 -9.32621,11.46261 -11.83237,19.30978 a 11.010682,11.010682 0 0 1 -3.49219,-6.28595 28.184059,28.184059 0 0 0 -9.16188,21.28184 l -0.49301,2.01315 c -2.54725,-1.39688 -3.65654,-1.93098 -4.80691,-4.39606 a 18.405916,18.405916 0 0 0 -4.35497,11.13394 c 0,2.99917 0,5.95727 0,8.95645 a 15.776499,15.776499 0 0 1 -4.10846,-3.4922 c 0,1.88989 0,3.45111 0,5.79293 0,16.43386 19.76171,16.22844 19.76171,35.08628 0,2.54725 -0.28759,5.46426 -3.53328,5.58751 a 4.1084634,4.1084634 0 0 1 -4.10846,-4.39605 37.222678,37.222678 0 0 0 -8.21693,-13.55793 c -5.91619,-6.53246 -12.85949,-7.35415 -15.2424,-15.40674 a 22.021364,22.021364 0 0 0 -1.23254,7.4774 29.457683,29.457683 0 0 1 -14.95481,-12.11996 36.154478,36.154478 0 0 0 -1.43796,9.90139 34.716516,34.716516 0 0 0 3.45111,13.02383 19.59737,19.59737 0 0 1 0.41085,4.39606 9.9835661,9.9835661 0 0 1 -4.76582,-1.31471 l -1.56122,-0.94495 a 28.307313,28.307313 0 0 1 -2.99917,-2.09531 l -0.32868,-0.2876 c 0,2.50617 0,4.64257 0,7.97042 a 26.33525,26.33525 0 0 0 10.39441,18.69351 15.981923,15.981923 0 0 0 -3.53328,2.17749 c 5.95728,3.12243 11.83238,7.23089 19.10436,7.23089 4.56039,0 17.13229,2.87593 17.13229,9.44947 a 2.9991783,2.9991783 0 0 1 -2.91701,3.04026 c -4.72473,0 -7.02547,-4.39605 -14.79047,-4.39605 -3.90304,0 -6.45028,-0.73953 -10.55875,-0.73953 a 14.54396,14.54396 0 0 1 -5.21775,-0.94494 10.065735,10.065735 0 0 0 4.10847,3.69761 7.2308956,7.2308956 0 0 1 -4.10847,1.80773 12.32539,12.32539 0 0 1 -6.12161,-1.64339 13.516845,13.516845 0 0 1 0.86278,2.91701 c 2.30074,12.53081 5.79293,14.54396 16.68036,18.07724 -0.65735,0.36976 -1.72555,1.15037 -2.62941,1.56122 h -0.36977 a 11.380444,11.380444 0 0 0 -5.8751,4.47822 15.612161,15.612161 0 0 1 5.341,-1.27362 c 7.31307,0 9.40838,5.71076 19.02219,5.71076 15.36565,0 18.89893,-17.70748 28.3484,-18.85785 0.5341,0 0.98603,0 1.15037,0.2876 0.16433,0.28759 0,0.5341 0,0.90386 a 113.84552,113.84552 0 0 0 -1.64339,18.447 c 0,36.97617 19.47412,50.94494 19.47412,85.08628 0,21.03533 -12.32539,42.35825 -24.03451,61.42152 -6.36812,-0.2465 -12.73624,-0.45193 -19.10436,-0.82169 a 113.51684,113.51684 0 0 1 22.1857,-29.53985 45.193097,45.193097 0 0 1 -17.21446,-2.05423 321.89811,321.89811 0 0 0 -23.99342,30.11503 l -6.73788,-0.90386 c 8.46343,-16.18734 18.1594,-29.6631 18.1594,-47.28841 0,-20.82991 -13.47576,-34.88086 -36.97617,-51.23254 C 104.13846,370.37798 91.114634,357.02547 85.814716,345.9737 l -0.821693,-1.68447 c 0,0 0,-0.65735 0.5341,-0.82169 0.534101,-0.16434 1.027116,0.20542 1.027116,0.20542 a 15.571076,15.571076 0 0 0 10.558751,3.53328 c 8.21693,0 11.66804,-3.32785 16.43385,-8.95645 a 24.65078,24.65078 0 0 1 5.66968,-4.10846 c -0.82169,-0.86278 -0.94494,-1.68447 -3.24568,-1.72556 5.46425,-1.8488 2.99918,-3.2046 6.36812,-7.92933 -0.73953,0 -1.60231,0 -2.46508,0 a 1.9309778,1.9309778 0 0 0 -1.43796,0.61627 l -0.24651,0.24651 a 11.010682,11.010682 0 0 1 -2.1364,1.56121 8.4634346,8.4634346 0 0 1 -0.45193,-2.50616 5.5464256,5.5464256 0 0 1 -2.71159,0.73952 17.789647,17.789647 0 0 0 -12.982745,3.69762 9.2440426,9.2440426 0 0 1 -6.820049,3.69762 4.9301561,4.9301561 0 0 1 -4.930156,-5.21775 c 0,-7.97042 17.70748,-6.24487 22.26787,-9.53164 a 34.634346,34.634346 0 0 0 7.64174,-7.06655 35.291701,35.291701 0 0 0 -7.60065,-2.58834 c 4.76581,-1.97206 5.25883,-1.76663 4.97124,-7.02547 -0.24651,-4.39605 -1.39688,-9.81922 0.73952,-13.84552 a 8.4634346,8.4634346 0 0 1 -4.43714,2.1364 61.832374,61.832374 0 0 0 2.34182,-9.24404 c 0,-3.2046 -1.3147,-5.13558 -1.35579,-7.35415 a 12.818406,12.818406 0 0 0 -6.77896,5.58751 l -0.86278,-1.76664 -0.20542,-0.41085 c -2.05424,2.9581 -6.491376,4.10847 -9.038624,6.94331 l -1.396877,1.64338 c -0.287593,-0.94494 -0.61627,-2.05423 -0.986031,-3.04026 -3.656533,4.64256 -6.778965,8.21693 -6.778965,14.37962 a 5.9161873,5.9161873 0 0 1 -5.341002,5.91619 4.1084634,4.1084634 0 0 1 -4.108464,-4.39606 c 0,-7.80608 4.108464,-12.32539 8.216927,-17.50205 2.547247,-3.2046 6.655711,-6.28595 7.066557,-10.10682 a 62.818405,62.818405 0 0 0 0,-8.62777 65.201314,65.201314 0 0 1 -7.641742,3.41002 v -1.88989 c 0,-11.83238 -9.326212,-10.31225 -11.339359,-18.94002 a 11.709121,11.709121 0 0 0 -3.081347,7.84717 c 0,2.83484 1.109285,5.46425 1.109285,8.21692 0,1.80773 -0.903862,4.10847 -3.081348,4.10847 -2.177485,0 -3.697617,-2.75267 -3.697617,-5.38209 0,-2.62942 0.5341,-3.45111 0.5341,-6.32703 0,-7.92934 -7.80608,-16.0641 -15.283483,-19.55629 0,0.28759 0,0.65735 0,1.02712 0,6.77896 -6.244865,11.09285 -6.244865,17.70747 a 48.808545,48.808545 0 0 0 1.068201,9.03862 67.050123,67.050123 0 0 0 -6.82005,-7.60065 c 0,5.8751 -3.245686,10.92851 -3.245686,16.76253 a 20.870994,20.870994 0 0 0 4.889072,9.90139 16.433854,16.433854 0 0 1 -9.408381,-0.36976 c 2.834839,11.75021 8.833196,13.06491 22.103533,17.41989 a 15.653246,15.653246 0 0 1 7.682826,6.49137 16.105177,16.105177 0 0 1 2.711586,5.62859 4.1084634,4.1084634 0 0 1 -4.108463,3.77979 c -4.313887,0 -8.668858,-6.73788 -12.32539,-9.0797 a 77.732128,77.732128 0 0 0 -12.078883,-4.72474 21.158587,21.158587 0 0 1 -4.108463,-2.54724 19.884963,19.884963 0 0 0 0.739523,7.14872 25.020542,25.020542 0 0 0 -10.64092,-5.38209 h -0.287593 c 0,2.34183 -0.205423,4.68365 -0.205423,7.02548 0,4.68364 3.574363,8.5456 6.080526,12.32539 h -2.300739 c -2.054232,0 -4.724733,-2.38291 -6.696796,-3.28677 1.725555,3.32785 2.095317,7.18981 3.820871,10.59983 2.054232,4.10847 7.148727,4.64257 11.133936,5.42317 a 11.298274,11.298274 0 0 0 -5.135579,5.46426 8.6277731,8.6277731 0 0 1 3.327855,-0.49302 h 1.889893 c 2.218571,0 4.930156,0.49302 8.216927,0.49302 5.710764,0 10.024651,-3.65653 15.735415,-3.65653 3.820871,0 6.12161,2.09531 6.12161,4.72473 0,4.10846 -4.478225,5.25883 -7.600657,5.25883 -3.122432,0 -5.382087,-0.82169 -8.216927,-0.82169 a 17.009038,17.009038 0 0 0 -10.271158,3.49219 8.8742809,8.8742809 0 0 1 0.903862,2.25966 14.995891,14.995891 0 0 0 -6.162695,2.54725 18.077239,18.077239 0 0 1 9.161873,4.10846 c 4.847987,4.56039 5.875103,5.54643 11.914544,2.91701 a 10.969597,10.969597 0 0 0 -2.054232,5.05341 c -0.657354,0 2.958094,-2.42399 13.434676,-2.42399 8.216926,0 11.051766,-6.73788 14.050944,-12.85949 0.61627,-1.23254 1.68447,-3.16352 2.629417,-3.16352 0.328677,0 1.109285,1.02711 1.355793,1.84881 20.542317,40.83812 71.898107,48.47987 71.898107,87.63352 0,20.54232 -8.21692,31.553 -18.03615,46.83648 -3.12243,-0.61627 -4.8069,-1.02711 -4.8069,-1.02711 l -0.90387,-0.28759 c 0,0 13.6401,-21.56944 13.6401,-39.52342 0,-23.58258 -17.87181,-40.83813 -34.2235,-40.83813 -20.213638,0 -31.347573,8.21693 -31.347573,24.28102 a 17.337716,17.337716 0 0 0 16.680361,18.40592 12.777321,12.777321 0 0 0 12.325392,-12.32539 c 0,-7.47741 -4.10847,-13.18817 -12.0378,-13.18817 a 19.227609,19.227609 0 0 0 -11.380443,3.57436 v 2.87593 a 15.201315,15.201315 0 0 1 10.682005,-3.61545 9.4905505,9.4905505 0 0 1 9.942478,10.31224 8.6277731,8.6277731 0 0 1 -8.874278,9.03862 c -11.585867,0 -14.379622,-8.21693 -14.379622,-16.14626 0,-11.75021 9.942482,-21.15859 26.04766,-21.15859 20.95316,0 33.93591,18.15941 33.93591,39.40017 a 69.843878,69.843878 0 0 1 -14.37963,37.71569 l -0.57518,-0.28759 c -4.10846,-2.09532 -9.69597,-4.10846 -10.88743,-4.60148 -8.99753,0.78061 -16.14626,6.98439 -21.610516,13.80444 -14.872638,18.48808 -14.502876,35.45604 -27.896467,49.54807 43.385373,-5.29992 97.658173,-3.32786 101.643383,-3.32786 16.02301,0 19.63846,9.53164 24.65078,20.13147 1.68447,3.53328 3.36894,7.43632 5.21775,11.66804 5.83402,-4.88907 15.98192,-4.10847 21.98028,-2.91701 a 133.11421,133.11421 0 0 1 -12.32539,-22.88414 c -0.90386,-1.56122 -0.57519,-4.10847 1.76664,-4.10847 a 414.05094,414.05094 0 0 1 64.4207,5.75185 18.570255,18.570255 0 0 1 -1.76663,-6.32703 c 0,-9.9014 6.03944,-20.54232 21.69268,-32.25144 9.98357,-7.60066 44.78225,-28.01972 44.78225,-28.01972 -6.08052,1.68447 -8.79211,2.83484 -14.9548,4.43714 a 184.88085,184.88085 0 0 1 -46.83649,5.95727 h -1.8488 a 137.9622,137.9622 0 0 1 19.96713,-31.553 62.078882,62.078882 0 0 1 -10.23008,1.10929 30.690222,30.690222 0 0 1 -15.81758,-2.99918 325.55464,325.55464 0 0 0 -18.40592,33.60723 h -10.59983 0.61627"
           class="cls-3"
           id="Fill-20" />
        <path
           style="fill:#ffbf00;fill-opacity:1;stroke-width:1"
           d="m 67.532054,465.65324 a 4.1084634,4.1084634 0 0 1 0.616269,-2.25965 12.571898,12.571898 0 0 0 -0.862777,-1.15037 4.5603944,4.5603944 0 0 0 -1.355793,3.24568 c 0,4.88907 4.108463,7.97042 10.887428,7.97042 3.245686,0 4.108463,-1.23254 4.51931,-3.16351 a 3.1635168,3.1635168 0 0 0 0,-1.68447 h -2.054232 c -0.328677,2.05423 -1.479047,2.95809 -4.108463,2.95809 -3.533279,0 -7.764996,-2.79376 -7.764996,-5.79293"
           class="cls-3"
           id="Fill-21" />
        <path
           style="fill:#ffbf00;fill-opacity:1;stroke-width:1"
           d="m 63.177082,496.71323 a 26.458504,26.458504 0 0 0 2.547248,-11.38045 19.967132,19.967132 0 0 1 4.108463,-11.05177 11.544782,11.544782 0 0 1 -2.177485,-1.19145 14.502876,14.502876 0 0 0 -3.574364,9.69597 c 0,2.38291 0,2.87593 0,5.25884 a 85.127362,85.127362 0 0 1 -0.862777,8.70994"
           class="cls-3"
           id="Fill-22" />
        <path
           style="stroke-width:1"
           d="m 70.366893,465.52999 -0.616269,-0.45193 c -1.15037,3.61544 6.491372,7.18981 6.614626,3.7387 l -0.821693,-0.24651 a 11.79129,11.79129 0 0 1 -5.299917,-3.04026"
           class="cls-2"
           id="Fill-23" />
        <path
           style="stroke-width:1"
           d="M 83.924823,459.81922 A 21.857025,21.857025 0 0 1 72.46221,454.72473 c -1.848809,0.86278 0,7.4774 7.970419,7.4774 a 4.4782251,4.4782251 0 0 0 3.451109,-1.76664 c 0,-0.28759 0,-0.49301 0,-0.61627"
           class="cls-2"
           id="Fill-24" />
        <path
           style="fill:#ffbf00;fill-opacity:1;stroke-width:1"
           d="m 73.859087,464.83155 c 9.03862,4.10846 14.790469,-0.78061 14.050945,-5.13558 h -1.314708 c 0,0 0,0.24651 0,0.36976 0,2.54725 -3.410025,4.43714 -6.285949,4.43714 a 9.8603122,9.8603122 0 0 1 -10.805259,-8.75103 3.7387017,3.7387017 0 0 1 1.027116,-2.54724 l -0.410846,-0.5341 c -0.328677,-0.41085 -0.698439,-0.94495 -1.027116,-1.47905 -3.163517,2.30074 -2.588332,10.35333 4.724733,13.55793"
           class="cls-3"
           id="Fill-25" />
        <path
           style="stroke-width:1"
           d="m 89.22474,451.68447 c -0.410846,0.36976 -7.600657,0 -14.338537,-7.68283 a 7.3541495,7.3541495 0 0 0 -0.369762,1.72555 c 0,3.04027 4.724733,7.64175 11.914544,7.64175 0.246508,0 2.83484,-0.5341 2.83484,-1.64339 v 0"
           class="cls-2"
           id="Fill-26" />
        <path
           style="fill:#ffbf00;fill-opacity:1;stroke-width:1"
           d="m 91.689818,451.93097 v 0.2876 c 0,1.80772 -3.040262,2.95809 -4.97124,2.95809 -6.943303,0 -14.379622,-4.56039 -14.379622,-9.6138 a 6.1216105,6.1216105 0 0 1 1.437962,-3.65654 c 0,0 0.246508,0.41085 0,-0.32867 a 15.653246,15.653246 0 0 1 -1.027116,-2.25966 c -1.602301,0.73952 -2.465078,2.6705 -2.465078,5.54643 0,6.12161 6.409203,12.61298 16.433854,12.61298 4.519309,0 7.80608,-3.04026 7.189811,-5.91619 l -2.218571,0.32868"
           class="cls-3"
           id="Fill-27" />
        <path
           style="fill:#ffbf00;fill-opacity:1;stroke-width:1"
           d="m 90.827041,449.54807 a 7.2719802,7.2719802 0 0 0 8.216927,-7.39524 9.9013968,9.9013968 0 0 1 -2.382909,0.5341 c -0.328677,3.2046 -3.451109,4.10846 -6.162695,4.10846 a 14.133114,14.133114 0 0 1 -14.338537,-13.39359 10.805259,10.805259 0 0 1 0.410846,-3.41002 30.649137,30.649137 0 0 1 -1.027116,-3.2046 10.887428,10.887428 0 0 0 -1.314708,5.91619 16.885785,16.885785 0 0 0 16.803615,16.8447"
           class="cls-3"
           id="Fill-28" />
        <path
           style="stroke-width:1"
           d="m 93.908389,442.81019 a 17.871816,17.871816 0 0 1 -15.406738,-9.28513 v 0.41084 a 11.750205,11.750205 0 0 0 11.79129,10.47659 c 1.027116,0 3.451109,0 3.779786,-1.6023"
           class="cls-2"
           id="Fill-29" />
        <path
           style="stroke-width:1"
           d="m 83.020961,424.23993 a 9.654889,9.654889 0 0 0 10.764174,10.59984 6.4502875,6.4502875 0 0 0 6.943305,-6.53246 7.3130649,7.3130649 0 0 0 -7.723913,-8.21693 13.681183,13.681183 0 0 0 -9.983566,4.10847"
           class="cls-2"
           id="Fill-30" />
        <path
           style="fill:#ffbf00;fill-opacity:1;stroke-width:1"
           d="m 218.27158,563.51684 a 36.031224,36.031224 0 0 0 -9.65489,-1.23254 c -5.01233,0 -11.17502,1.93098 -11.17502,4.8069 0,2.05423 5.09449,2.25966 5.95727,2.25966 a 30.073952,30.073952 0 0 0 15.89975,-3.57437 c 1.72556,-0.7806 1.64339,-1.72555 -1.02711,-2.25965"
           class="cls-3"
           id="Fill-31" />
        <path
           style="fill:#ffbf00;fill-opacity:1;stroke-width:1"
           d="m 274.02342,533.48397 a 6.73788,6.73788 0 0 0 6.03945,7.39524 c 22.1857,1.0682 44.53574,-51.15037 57.51848,-65.73542 -20.54231,15.16023 -63.72226,35.45604 -63.72226,58.2991"
           class="cls-3"
           id="Fill-32" />
        <path
           style="fill:#ffbf00;fill-opacity:1;stroke-width:1"
           d="m 269.13435,446.91865 c -1.10928,0.61627 -1.10928,1.02711 0,1.64338 4.72474,2.71159 21.69269,2.9581 26.49959,0.45193 1.15037,-0.57518 1.15037,-0.98603 0,-1.64338 -4.84799,-2.79376 -21.61052,-3.16352 -26.49959,-0.45193"
           class="cls-3"
           id="Fill-33" />
        <path
           style="fill:#ffbf00;fill-opacity:1;stroke-width:1"
           d="m 171.18859,449.26047 c 0,0 1.35579,1.52013 8.21692,2.50617 5.341,0.73952 10.02465,1.3147 11.38045,-1.3558 2.42399,-4.10846 -19.67954,-4.10846 -19.67954,-1.15037"
           class="cls-3"
           id="Fill-34" />
        <path
           style="fill:#ffbf00;fill-opacity:1;stroke-width:1"
           d="m 339.26582,423.95234 a 3.5743632,3.5743632 0 0 1 0.90386,0 7.6417419,7.6417419 0 0 1 5.99836,7.43632 5.505341,5.505341 0 0 1 -8.91536,4.43714 l -0.5341,0.65735 c 0.94494,1.0682 1.80772,1.52013 4.31388,1.52013 a 6.2448644,6.2448644 0 0 0 6.1627,-6.61462 7.8060805,7.8060805 0 0 0 -8.21693,-8.46344 l 0.28759,0.90386"
           class="cls-3"
           id="Fill-35" />
        <path
           style="stroke-width:1"
           d="m 339.88209,426.58175 a 14.54396,14.54396 0 0 1 -1.27362,6.82005 c 0,1.47905 0.82169,1.56122 2.54725,1.56122 1.72555,0 2.58833,-1.64339 2.58833,-3.57436 a 4.5193097,4.5193097 0 0 0 -3.86196,-4.80691"
           class="cls-2"
           id="Fill-36" />
        <path
           style="stroke-width:1"
           d="m 327.47453,434.10024 a 1.232539,1.232539 0 0 0 1.02712,0.36976 5.5464256,5.5464256 0 0 0 4.72473,-5.83401 5.9983566,5.9983566 0 0 0 -2.99918,-5.99836 18.734593,18.734593 0 0 1 -2.75267,11.46261"
           class="cls-2"
           id="Fill-37" />
        <path
           style="fill:#ffbf00;fill-opacity:1;stroke-width:1"
           d="m 325.66681,436.40098 a 2.3418241,2.3418241 0 0 1 -0.41085,0.45193 c 0.86278,0.94495 1.72556,1.15037 3.61545,1.15037 a 9.4494658,9.4494658 0 0 0 8.21693,-10.1479 8.8331963,8.8331963 0 0 0 -7.31307,-9.69598 h -0.41084 a 11.133936,11.133936 0 0 1 0.45193,1.68447 c 3.36894,0.32868 5.91618,3.86196 5.91618,8.75103 a 8.2169268,8.2169268 0 0 1 -7.14872,8.46344 5.9572719,5.9572719 0 0 1 -2.87593,-0.61627"
           class="cls-3"
           id="Fill-38" />
        <path
           style="fill:#ffbf00;fill-opacity:1;stroke-width:1"
           d="m 318.477,415.7765 c 0.24651,0 1.15037,0 1.64338,0 2.58834,0 4.97124,3.57436 4.97124,8.21692 0,4.64257 -2.21857,11.95563 -6.82005,11.95563 a 3.820871,3.820871 0 0 1 -1.72555,-0.41084 17.625308,17.625308 0 0 1 -1.52013,1.80772 5.0123253,5.0123253 0 0 0 2.05423,0.45193 c 7.2309,0 10.35333,-7.18981 10.35333,-13.14708 0,-6.6968 -2.99918,-10.35333 -8.95645,-10.35333 h -0.69844 c 0.24651,0.49301 0.49301,1.02712 0.69844,1.52013"
           class="cls-3"
           id="Fill-39" />
        <path
           style="stroke-width:1"
           d="m 319.5452,418.32374 a 17.132292,17.132292 0 0 1 -1.56122,15.07806 h 0.32868 c 2.99918,0 4.8069,-5.05341 4.8069,-9.49055 0,-3.04026 -0.78061,-5.71076 -3.16352,-5.71076 h -0.41084"
           class="cls-2"
           id="Fill-40" />
        <path
           style="stroke-width:1"
           d="m 306.85005,433.60723 c 2.71158,0.49301 5.42317,-5.01233 5.42317,-9.69598 a 9.2851273,9.2851273 0 0 0 -3.36894,-8.46343 26.663927,26.663927 0 0 1 0.82169,6.9433 21.405094,21.405094 0 0 1 -2.87592,11.21611"
           class="cls-2"
           id="Fill-41" />
        <path
           style="stroke-width:1"
           d="m 294.73008,433.07313 c 5.05341,0 7.88825,-5.46426 7.88825,-10.88743 a 16.433854,16.433854 0 0 0 -1.88989,-7.88825 13.47576,13.47576 0 0 0 -12.0378,11.42153 c 0,2.95809 1.64338,7.35415 6.03944,7.35415"
           class="cls-2"
           id="Fill-42" />
        <path
           style="fill:#ffbf00;fill-opacity:1;stroke-width:1"
           d="m 306.31595,409.6138 a 18.981101,18.981101 0 0 1 1.27362,2.21857 c 5.58751,1.68447 7.10764,6.86114 7.10764,11.95563 0,6.82005 -4.10846,12.32539 -7.39523,12.32539 a 3.2456861,3.2456861 0 0 1 -1.8899,-0.45193 v 0 a 16.433854,16.433854 0 0 1 -2.01314,1.88989 6.2448644,6.2448644 0 0 0 2.87592,0.73953 c 6.57354,0 11.42153,-6.6968 11.42153,-13.84553 0,-7.14872 -3.41002,-14.87263 -10.682,-14.87263 h -0.45194"
           class="cls-3"
           id="Fill-43" />
        <path
           style="fill:#ffbf00;fill-opacity:1;stroke-width:1"
           d="m 349.12614,428.30731 a 17.625308,17.625308 0 0 1 0.36976,1.72555 c 3.32785,1.56122 9.98356,5.25884 15.16023,3.82088 a 26.499589,26.499589 0 0 1 -13.43468,-5.21775 c -0.45193,-0.2876 -1.56121,-0.86278 -2.09531,-0.32868"
           class="cls-3"
           id="Fill-44" />
        <path
           style="stroke-width:1"
           d="m 74.721865,332.99096 c -0.493016,0.36976 -0.862778,-0.20542 -0.862778,-0.20542 -2.341824,-3.77979 -5.135579,-7.765 -17.789646,-7.765 a 17.296631,17.296631 0 0 1 -14.62613,-6.24486 c -0.328677,-0.32868 -0.410846,-0.69844 0,-0.98604 a 0.61626951,0.61626951 0 0 1 0.944947,0 16.885785,16.885785 0 0 0 14.338537,6.03945 c 13.188167,0 15.776499,4.10846 18.200493,8.21692 0,0 0.451931,0.65736 0,0.98603"
           class="cls-1"
           id="Fill-45" />
        <path
           style="stroke-width:1"
           d="m 57.425234,349.63024 c 9.819227,0 9.778143,-10.72309 18.775677,-10.72309 0.575185,0 0.986032,0 1.068201,0.49301 0.08217,0.49302 -0.5341,0.65736 -1.109285,0.65736 -8.216927,0 -7.806081,10.682 -18.734593,10.682 -0.493016,0 -0.944947,0 -0.903862,-0.5341 0.04108,-0.5341 0.451931,-0.5341 0.903862,-0.5341"
           class="cls-1"
           id="Fill-46" />
        <path
           style="stroke-width:1"
           d="m 63.834437,280.44371 a 176.29416,176.29416 0 0 1 7.970419,31.79951 73.582579,73.582579 0 0 0 9.408381,28.38948 c 0.205423,0.36976 0.575185,0.73952 0.986031,0.5341 0.410846,-0.20542 0,-0.82169 0,-1.19145 -10.065735,-14.1742 -7.395234,-35.94906 -17.543139,-59.98357 -0.246508,-0.61627 -0.287592,-1.6023 -1.0682,-1.27362 -0.780608,0.32867 0,1.19145 0.246508,1.76664"
           class="cls-1"
           id="Fill-47" />
        <path
           style="stroke-width:1"
           d="m 80.514798,331.67625 c 0,-16.14626 9.613804,-20.82991 15.940838,-28.75924 A 25.636812,25.636812 0 0 0 100.03,297.41167 c 0.32868,-0.65736 0,-1.76664 0.78061,-1.68447 0.78061,0.0822 0.61627,1.19145 0.41084,1.80772 a 18.036154,18.036154 0 0 1 -4.10846,6.32703 c -6.861134,8.21693 -15.447822,13.47576 -15.447822,27.64996 0,0.78061 0,1.52013 -0.61627,1.56122 -0.616269,0.0411 -0.739523,-0.86278 -0.739523,-1.47905"
           class="cls-1"
           id="Fill-48" />
        <path
           style="stroke-width:1"
           d="m 85.814716,335.8258 c -0.451931,-0.28759 -0.903862,-0.69844 -1.396878,0 -0.493015,0.69844 0.246508,0.86278 0.657354,1.19145 a 11.544782,11.544782 0 0 0 7.970419,2.91701 22.843057,22.843057 0 0 0 13.064909,-5.58751 c 0.45194,-0.32868 0.94495,-0.94495 0.53411,-1.27362 -0.41085,-0.32868 -0.98604,0 -1.52014,0.32867 a 22.350041,22.350041 0 0 1 -12.325386,5.25884 12.32539,12.32539 0 0 1 -7.189811,-2.6705"
           class="cls-1"
           id="Fill-49" />
        <path
           style="stroke-width:1"
           d="m 155.53534,318.20049 c -0.57519,-0.28759 -1.23254,-0.61627 -1.6023,0 -0.36976,0.61627 0.36976,1.15037 0.98603,1.39688 a 16.433854,16.433854 0 0 0 6.45029,1.52013 c 10.59983,0 15.07806,-9.12079 24.93837,-9.12079 0.5341,0 1.27362,0 1.27362,-0.5341 0,-0.5341 -0.7806,-0.65735 -1.39687,-0.65735 -11.70912,0 -14.05095,8.91536 -24.65078,8.91536 a 11.421528,11.421528 0 0 1 -5.79294,-1.39688"
           class="cls-1"
           id="Fill-50" />
        <path
           style="stroke-width:1"
           d="m 156.9733,276.91043 c 0,-0.5341 0.24651,-1.0682 0.73953,-1.0682 0.49301,0 0.69843,0.5341 0.69843,1.02712 0,9.12079 31.63517,15.11914 31.63517,30.60805 0,0.65735 0,1.43796 -0.61627,1.43796 -0.61627,0 -1.02711,-0.73952 -1.02711,-1.43796 0,-15.03698 -31.42975,-19.72062 -31.42975,-30.56697"
           class="cls-1"
           id="Fill-51" />
        <path
           style="stroke-width:1"
           d="m 228.46057,276.17091 c 0.49301,-0.45193 0.90386,-0.65735 1.27362,-0.28759 0.36976,0.36976 0,0.86277 -0.28759,1.27362 -9.53164,8.21693 -15.73542,11.13394 -22.88414,17.62531 a 120.54232,120.54232 0 0 0 -9.44947,14.62613 c -0.32868,0.45193 -0.61627,0.94495 -1.10929,0.73952 -0.49301,-0.20542 -0.36976,-1.02711 0,-1.47904 a 82.662284,82.662284 0 0 1 9.65489,-14.9959 c 6.86114,-6.86113 13.96878,-9.49055 22.71981,-17.50205"
           class="cls-1"
           id="Fill-52" />
        <path
           style="stroke-width:1"
           d="m 198.50987,312.90057 c -0.49302,0 -1.0682,0 -1.10929,0.5341 -0.0411,0.5341 0.5341,0.69844 1.02712,0.69844 4.97124,0 13.68118,7.55957 25.88332,7.55957 a 24.65078,24.65078 0 0 0 8.42235,-1.02711 0.61626951,0.61626951 0 0 0 0.45193,-0.86278 c 0,-0.45193 -0.78061,0 -1.27363,0 a 29.950698,29.950698 0 0 1 -7.68282,0.65736 c -11.70912,0 -20.29581,-7.55958 -25.71898,-7.55958"
           class="cls-1"
           id="Fill-53" />
        <path
           style="stroke-width:1"
           d="m 195.09984,217.3788 c 0,-0.61627 0.28759,-1.02712 -0.32867,-1.02712 -0.61627,0 -0.73953,0.36976 -0.90387,0.94495 a 53.944124,53.944124 0 0 0 -1.68447,17.13229 c 0,13.76335 3.2046,21.32293 3.2046,35.00411 0,29.21117 -3.86195,33.93591 -3.86195,43.87839 0,0.49301 0,1.15037 0.57518,1.15037 0.57519,0 0.78061,-0.57519 0.78061,-1.10929 0,-7.02547 3.77979,-14.91372 3.77979,-44.08381 0,-13.6401 -3.12243,-21.19967 -3.12243,-34.83977 a 69.268693,69.268693 0 0 1 1.52013,-17.00904"
           class="cls-1"
           id="Fill-54" />
        <path
           style="stroke-width:1"
           d="m 183.51398,237.34593 c 0,-0.49301 0,-1.15037 -0.5341,-1.15037 -0.53411,0 -0.73953,0.61627 -0.73953,1.15037 0,14.05095 9.20296,17.46097 9.20296,22.63763 0,0.49302 0.24651,1.0682 0.73952,1.0682 0.49302,0 0.5341,-0.5341 0.5341,-1.02711 0,-6.4092 -9.20295,-9.44947 -9.20295,-22.63763"
           class="cls-1"
           id="Fill-55" />
        <path
           style="stroke-width:1"
           d="m 212.47864,233.6894 c -0.78061,0 -0.78061,0.61627 -0.78061,1.23254 0,8.95645 -13.80443,23.58258 -13.80443,27.07477 0,0.45193 0,0.86278 0.57518,0.90386 0.57519,0.0411 0.65736,-0.45193 0.65736,-0.94494 0,-1.39688 13.96877,-18.69351 13.96877,-26.99261 0,-0.49301 0,-1.23254 -0.61627,-1.23254"
           class="cls-1"
           id="Fill-56" />
        <path
           style="stroke-width:1"
           d="m 300.44084,301.88989 c 0,-0.5341 0,-1.23254 0.65736,-1.19145 0.65735,0.0411 0.5341,0.65735 0.5341,1.19145 0,12.32539 6.82005,14.74938 9.44946,21.15859 a 21.28184,21.28184 0 0 1 -0.2465,19.55628 c -0.24651,0.41085 -0.57519,0.69844 -0.98604,0.49302 a 0.69843878,0.69843878 0 0 1 -0.20542,-1.15037 18.857847,18.857847 0 0 0 0.45193,-18.40592 c -2.62941,-6.24486 -9.65489,-9.03862 -9.65489,-21.69268"
           class="cls-1"
           id="Fill-57" />
        <path
           style="stroke-width:1"
           d="m 310.87634,345.93262 c -0.28759,0.32868 -0.61627,1.02711 0,1.31471 0.61627,0.28759 0.86278,-0.2876 1.15037,-0.61627 a 71.774856,71.774856 0 0 1 12.94166,-13.84552 c 6.36812,-4.5604 12.32539,-5.29992 18.32375,-8.21693 a 0.65735414,0.65735414 0 0 0 0.32867,-1.02712 c -0.2465,-0.41084 -0.7806,-0.24651 -1.23253,0 -2.05424,1.52013 -11.70913,3.86196 -18.15941,8.21693 a 65.735414,65.735414 0 0 0 -13.35251,14.05094"
           class="cls-1"
           id="Fill-58" />
        <path
           style="stroke-width:1"
           d="m 322.95522,276.9926 c 0,-0.49301 0.2876,-1.02711 0.90387,-0.98603 0.61626,0.0411 0.73952,0.45193 0.73952,0.98603 0,14.50288 3.49219,16.43386 3.49219,21.24076 0,0.57518 0,1.10928 -0.78061,1.19145 -0.7806,0.0822 -1.0682,-0.61627 -1.0682,-1.19145 0,-6.08053 -3.32785,-5.13558 -3.32785,-21.24076"
           class="cls-1"
           id="Fill-59" />
        <path
           style="stroke-width:1"
           d="m 349.53698,278.55382 c 0,-0.73952 0,-1.10929 0.69844,-1.10929 0.69844,0 0.57519,0.49302 0.57519,1.02712 a 11.668036,11.668036 0 0 1 -4.10847,7.02547 c -4.10846,4.35497 -8.62777,5.6286 -13.02383,10.47658 a 18.159408,18.159408 0 0 0 -3.86195,4.80691 c 0,0.41084 0,1.02711 -0.78061,1.02711 -0.78061,0 -0.45193,-0.65735 -0.32868,-1.15037 a 19.186524,19.186524 0 0 1 4.10847,-5.58751 c 4.56039,-4.88907 8.42235,-5.79293 12.77732,-10.10682 a 11.503698,11.503698 0 0 0 3.7387,-6.4092"
           class="cls-1"
           id="Fill-60" />
        <path
           style="stroke-width:1"
           d="m 348.34553,252.38291 c -2.54725,9.73705 -10.39442,19.5152 -15.73542,32.58011 -5.99835,14.62613 -7.10764,23.70584 -12.73623,38.45522 a 106.24486,106.24486 0 0 1 -8.66886,20.25472 c -0.24651,0.41085 -0.61627,1.0682 0,1.02712 0.61627,-0.0411 0.73952,-0.28759 1.02711,-0.78061 a 89.482333,89.482333 0 0 0 8.99754,-20.13147 c 5.58751,-14.54396 6.53246,-23.95234 12.32539,-38.57847 5.341,-13.14708 12.5719,-20.54232 15.85867,-32.86771 0,-0.49301 0.28759,-1.15037 -0.36976,-1.15037 -0.65736,0 -0.65736,0.57519 -0.78061,1.02712"
           class="cls-1"
           id="Fill-61" />
        <path
           style="fill:#ffbf00;fill-opacity:1;stroke-width:1"
           d="m 90.827041,134.59326 a 29.78636,29.78636 0 0 1 -5.998356,2.79376 c -4.108464,1.47904 -10.969598,0.98603 -11.87346,-2.99918 a 5.6696795,5.6696795 0 0 1 1.889894,-5.71077 8.8742809,8.8742809 0 0 1 5.916187,-2.25965 c 0.986031,0 1.561216,-0.28759 2.547247,-0.28759 -0.821693,-0.32868 -1.355793,-0.86278 -2.259655,-0.90387 a 8.7099424,8.7099424 0 0 0 -7.600657,3.36894 c 0,-0.65735 -0.821693,-0.82169 -0.780608,-1.47904 0.246508,-3.12243 3.451109,-4.10847 7.107642,-5.42317 a 6.4092029,6.4092029 0 0 0 -0.534101,1.80772 8.2169268,8.2169268 0 0 1 4.108464,-1.02712 8.2169268,8.2169268 0 0 1 3.040263,0.65736 c 0.575185,0 1.889893,0.57518 1.355793,0.86278 -0.534101,0.28759 -1.109286,0.73952 -1.848809,1.15037 a 4.4782251,4.4782251 0 0 1 4.108463,4.10846 1.6433854,1.6433854 0 0 0 -1.479046,-0.73952 c -2.177486,0 -3.040263,1.97206 -5.217749,1.97206 a 9.3262119,9.3262119 0 0 0 -1.15037,0 5.5464256,5.5464256 0 0 0 1.15037,0.82169 5.0944946,5.0944946 0 0 1 -4.108463,1.39688 c -2.054232,0 -3.204602,0 -4.560395,-1.56122 a 3.6154478,3.6154478 0 0 0 0,3.45111 c 0.657354,1.39688 4.108464,2.42399 6.778965,2.05423 a 19.474117,19.474117 0 0 0 8.216927,-3.12243 32.210353,32.210353 0 0 0 7.313065,-7.51849 10.476582,10.476582 0 0 1 -3.163517,0.61627 4.1084634,4.1084634 0 0 1 -4.108464,-4.10846 5.5875102,5.5875102 0 0 1 3.779787,-5.38209 c 0,0 -0.369762,1.02712 -0.369762,1.15037 a 4.1084634,4.1084634 0 0 1 3.286771,-1.31471 3.5743632,3.5743632 0 0 1 2.793755,1.15037 c -0.493016,0.24651 -0.821693,0 -1.314708,0 0.903862,0 1.479046,1.43796 1.479046,2.34183 a 2.3829088,2.3829088 0 0 1 -1.807724,2.1364 c -1.725554,0 -2.21857,-0.5341 -2.21857,-1.39688 0,-0.86278 0,-1.43796 0.493016,-1.72555 h 0.328677 -0.493016 c -2.259655,0 -3.779786,0.65735 -3.779786,2.87592 a 2.3418241,2.3418241 0 0 0 2.588332,2.25965 6.0394412,6.0394412 0 0 0 5.341002,-2.05423 25.677896,25.677896 0 0 1 15.160229,-11.01068 c 10.35333,-2.25965 17.09121,1.31471 24.65078,4.72473 a 8.2169268,8.2169268 0 0 1 -1.47905,-4.8069 4.8890714,4.8890714 0 0 1 5.13558,-4.88907 c 0,0 -0.57518,0.57519 -0.36976,0.57519 4.10847,0 5.01233,1.76663 5.01233,3.12243 0,0.32867 0,0.98603 0,1.35579 l -0.86278,-0.69844 c 0,0.49302 0,0.69844 0,1.19146 a 2.1774856,2.1774856 0 0 1 -2.30074,2.25965 c -1.10928,0 -2.17748,-0.45193 -2.17748,-2.01315 0,-0.86277 0.49301,-1.52013 1.19145,-1.52013 0.69844,0 0.65735,0.45193 0.98603,0.57519 0.32868,0.12325 0.32868,0 0.20542,-0.78061 -0.12325,-0.78061 -1.02711,-1.0682 -1.93097,-1.0682 a 2.7526705,2.7526705 0 0 0 -2.34183,2.75267 6.6557107,6.6557107 0 0 0 5.21775,6.82005 35.332785,35.332785 0 0 0 12.90058,2.01315 7.8060805,7.8060805 0 0 1 -6.86114,-6.12161 l 1.97206,0.82169 c -2.17748,-2.17749 -0.45193,-4.10847 -1.02711,-7.18981 0.61627,0.82169 1.15037,0.73952 2.05423,1.15037 0,-2.6705 2.34182,-2.71159 3.41002,-4.88907 1.93098,2.05423 3.32786,3.2046 3.32786,5.99835 a 2.4239934,2.4239934 0 0 1 0,1.19146 3.0813475,3.0813475 0 0 0 1.43796,-1.39688 c 0,1.02711 0,1.6023 0,2.58833 a 8.2169268,8.2169268 0 0 1 -2.21857,5.58751 c -1.68447,0 -2.83484,-1.72555 -3.16351,-3.57436 a 10.969597,10.969597 0 0 1 0,-4.10847 6.1216105,6.1216105 0 0 0 -1.52014,3.28677 6.2448644,6.2448644 0 0 0 8.05259,5.91619 32.867707,32.867707 0 0 0 11.62695,-6.36812 8.2169268,8.2169268 0 0 1 -4.8069,-1.27362 4.7247329,4.7247329 0 0 1 -1.47905,-6.61463 c 0,0 0,0.73953 0.2876,0.61627 1.93097,-3.24568 4.10846,-3.24568 5.05341,-2.58833 l 1.15037,0.61627 -0.94495,0.20542 0.98603,0.57519 a 2.0953163,2.0953163 0 0 1 0.69844,3.04026 1.8488085,1.8488085 0 0 1 -2.75267,0.82169 1.3147083,1.3147083 0 0 1 -0.65735,-1.72555 c 0.41084,-0.69844 0.69843,-0.32868 0.94494,-0.5341 0.24651,-0.20542 0,-0.28759 -0.5341,-0.57518 -0.5341,-0.2876 -1.39688,0.32867 -1.84881,1.0682 a 3.0402629,3.0402629 0 0 0 1.10929,3.69761 c 3.28677,1.6023 5.341,0.69844 8.21693,-1.6023 a 28.142974,28.142974 0 0 1 18.40591,-7.51849 c 9.81923,-0.28759 16.43385,5.83402 23.21282,11.21611 a 8.2169268,8.2169268 0 0 1 -0.45193,-5.01233 4.8890714,4.8890714 0 0 1 6.03944,-3.69761 c 0,0 -0.65735,0.41084 -0.49302,0.49301 3.86196,0.82169 4.51931,2.75267 4.10847,4.10847 0,0.32867 0,0.98603 0,1.35579 l -0.5341,-0.82169 c 0,0.49301 0,0.65735 -0.24651,1.15037 a 2.1774856,2.1774856 0 0 1 -2.75267,1.72555 1.9309778,1.9309778 0 0 1 -1.72556,-2.42399 c 0,-0.86278 0.8217,-1.39688 1.47905,-1.27363 0.65736,0.12326 0.5341,0.61627 0.82169,0.78061 0.2876,0.16434 0.32868,0 0.36977,-0.73952 0.0411,-0.73953 -0.78061,-1.27363 -1.68447,-1.43796 a 2.7526705,2.7526705 0 0 0 -2.87593,2.21857 6.6557107,6.6557107 0 0 0 3.69762,7.76499 22.43221,22.43221 0 0 0 10.59983,3.61545 36.483155,36.483155 0 0 0 8.79212,-0.57519 v 0 l -7.02548,-0.61626 c -3.65653,-0.73953 -7.51848,-2.54725 -7.51848,-5.91619 a 10.230074,10.230074 0 0 1 0.2465,-2.01315 c 0.61627,0.98603 0.90386,0.65735 1.76664,1.27362 a 9.0797041,9.0797041 0 0 1 -0.41084,-2.95809 4.6836483,4.6836483 0 0 1 1.10928,-3.24569 9.5727197,9.5727197 0 0 1 0.86278,1.19146 6.4502875,6.4502875 0 0 1 5.21775,-2.75267 33.07313,33.07313 0 0 0 -0.98603,4.10846 c 1.19145,0 1.80772,-0.65735 2.99917,-0.73952 a 12.571898,12.571898 0 0 0 -0.5341,1.93098 l 0.5341,4.10846 a 3.820871,3.820871 0 0 1 -1.23254,2.62942 h -0.73952 a 4.5193097,4.5193097 0 0 1 -2.99918,-5.71077 2.0131471,2.0131471 0 0 0 -1.23254,1.80773 c 0,4.39605 5.01233,5.75184 12.69516,5.75184 a 42.769104,42.769104 0 0 0 4.39605,-1.39687 8.9975348,8.9975348 0 0 1 -5.54642,-1.10929 5.6285949,5.6285949 0 0 1 -2.17749,-7.80608 c 0,0 0.24651,0.86278 0.36976,0.69844 2.09532,-4.10846 4.10847,-3.77979 5.83402,-3.36894 a 8.751027,8.751027 0 0 1 1.39688,0.65735 l -1.10929,0.32868 1.19146,0.65736 c 0.98603,0.5341 1.52013,1.35579 1.39687,3.28677 a 2.5061627,2.5061627 0 0 1 -3.4511,1.6023 1.8488085,1.8488085 0 0 1 -0.90387,-2.25966 c 0.45193,-0.86277 0.94495,-0.41084 1.23254,-0.69844 0.28759,-0.28759 0,-0.7806 -0.94494,-0.7806 a 2.2185702,2.2185702 0 0 0 -2.13641,1.47904 3.36894,3.36894 0 0 0 1.19146,4.10847 c 4.10846,1.8488 7.43632,0.69843 17.00904,-2.9581 a 28.471651,28.471651 0 0 1 16.02301,-0.90386 26.006573,26.006573 0 0 1 15.24239,11.42153 4.3138866,4.3138866 0 0 1 3.04027,-4.93016 13.105998,13.105998 0 0 1 2.99918,-0.36976 8.7921117,8.7921117 0 0 1 -0.86278,0.69844 4.601479,4.601479 0 0 1 3.82087,3.45111 10.10682,10.10682 0 0 0 -1.31471,-0.41085 v 0.65736 a 2.5883319,2.5883319 0 0 1 -2.17748,2.83484 2.0131471,2.0131471 0 0 1 -2.424,-1.43797 1.4790468,1.4790468 0 0 1 1.10929,-1.97206 1.9720624,1.9720624 0 0 1 1.88989,0.49302 4.3549712,4.3549712 0 0 0 -0.24651,-0.98603 c 0,-0.65736 -0.73952,-1.6023 -2.62941,-1.10929 a 3.0402629,3.0402629 0 0 0 -1.72556,4.10846 13.722268,13.722268 0 0 0 2.62942,4.43714 19.556286,19.556286 0 0 0 13.8866,8.50452 c 2.62942,0.36977 6.1627,-0.65735 6.77897,-2.05423 a 3.6154478,3.6154478 0 0 0 0,-3.45111 c -1.35579,1.56122 -2.50616,1.56122 -4.5604,1.56122 a 5.0944946,5.0944946 0 0 1 -4.10846,-1.39688 5.6285949,5.6285949 0 0 0 1.15037,-0.82169 8.7099424,8.7099424 0 0 0 -1.15037,0 c -2.17748,0 -3.04026,-1.97206 -5.21775,-1.97206 a 1.6023007,1.6023007 0 0 0 -1.47904,0.73952 4.4371405,4.4371405 0 0 1 4.10846,-4.10846 c -0.73952,-0.36977 -0.98603,-0.65736 -1.84881,-1.15037 -0.86278,-0.49302 0.78061,-0.69844 1.35579,-0.86278 a 8.2169268,8.2169268 0 0 1 3.04027,-0.65735 8.2169268,8.2169268 0 0 1 4.47822,0.94494 6.6557107,6.6557107 0 0 0 -0.5341,-1.80772 c 3.65653,1.15037 6.86113,2.30074 7.10764,5.42317 0,0.65735 -0.78061,0.82169 -0.78061,1.47905 a 8.8331963,8.8331963 0 0 0 -6.86113,-3.16352 9.7370583,9.7370583 0 0 0 -3.04026,0.86278 25.595727,25.595727 0 0 1 3.49219,0 7.6417419,7.6417419 0 0 1 4.84799,1.93097 5.7929334,5.7929334 0 0 1 2.09531,5.99836 c -0.94494,4.10846 -7.60065,4.47823 -11.91454,2.99918 a 26.828266,26.828266 0 0 1 -13.47576,-9.28513 10.517666,10.517666 0 0 0 -3.61545,-2.87592 c -2.17748,-1.02712 -3.69761,-0.41085 -4.10846,0.73952 -0.86278,1.84881 0,2.58833 0.69844,2.91701 a 4.8069022,4.8069022 0 0 0 0.98603,0.41085 2.0953163,2.0953163 0 0 1 -0.20542,-2.05423 1.5612161,1.5612161 0 0 1 2.25965,-0.8217 2.0953163,2.0953163 0 0 1 1.0682,2.75267 2.7115858,2.7115858 0 0 1 -3.28677,1.76664 l -0.65735,-0.24651 a 10.682005,10.682005 0 0 0 0.20542,1.43797 4.8890714,4.8890714 0 0 1 -3.04026,-4.35497 9.3262119,9.3262119 0 0 1 -0.86278,0.7806 13.681183,13.681183 0 0 1 0.86278,-3.08134 4.5603944,4.5603944 0 0 1 5.62859,-2.38291 23.294987,23.294987 0 0 0 -13.84552,-9.28513 h 0.24651 a 4.1084634,4.1084634 0 0 1 2.01315,3.36894 36.483155,36.483155 0 0 0 0,6.86113 4.1084634,4.1084634 0 0 1 -2.58834,-1.8488 3.1635168,3.1635168 0 0 1 0.32868,0.98603 c 0,2.46507 -1.35579,3.65653 -2.1364,5.99835 -1.68447,-2.25965 -3.32786,-1.52013 -5.71076,-4.60148 a 8.2169268,8.2169268 0 0 1 -0.73953,0.98604 4.6425636,4.6425636 0 0 1 -0.65735,-2.34183 10.024651,10.024651 0 0 1 1.0682,-4.93016 c -0.5341,0.2876 -0.78061,0.53411 -1.39688,0.53411 a 5.834018,5.834018 0 0 1 6.57354,-4.76582 8.2169268,8.2169268 0 0 0 -1.56121,4.93015 c 0,0.8217 0,1.27363 0,2.09532 0,0.82169 0.57518,1.19145 0.90386,1.76664 a 20.912079,20.912079 0 0 1 0,-3.45111 8.2169268,8.2169268 0 0 1 2.21857,-5.8751 18.857847,18.857847 0 0 0 -6.9433,0 29.457683,29.457683 0 0 0 -7.31307,2.54724 10.517666,10.517666 0 0 0 -3.86196,2.83484 3.4100246,3.4100246 0 0 0 3.36894,5.87511 c 0.69844,-0.24651 0.57519,-0.65736 0.69844,-0.90386 a 1.9720624,1.9720624 0 0 1 -1.93097,-0.32868 c -0.61627,-0.41085 -0.73953,-1.27363 0,-2.54725 0.73952,-1.27362 2.42399,-0.90386 3.36894,0 a 2.6294166,2.6294166 0 0 1 0.5341,3.77979 l -0.57519,0.36976 a 5.6285949,5.6285949 0 0 0 1.31471,0 4.9712407,4.9712407 0 0 1 -6.20378,1.10928 6.5735414,6.5735414 0 0 1 0.5341,0.86278 5.9161873,5.9161873 0 0 1 -3.04026,-1.39688 4.6425636,4.6425636 0 0 1 -0.78061,-6.45028 42.235004,42.235004 0 0 1 -23.29499,4.10846 25.636812,25.636812 0 0 1 -9.03862,-2.58833 49.630238,49.630238 0 0 1 -6.9433,-4.35497 11.092851,11.092851 0 0 0 -4.19063,-2.09532 c -2.46508,-0.5341 -3.90304,0.45193 -4.10847,1.76664 -0.45193,2.09532 0.65736,2.62942 1.39688,2.79375 a 5.05341,5.05341 0 0 0 1.10929,0 2.1774856,2.1774856 0 0 1 -0.69844,-2.05423 1.6433854,1.6433854 0 0 1 2.09531,-1.35579 2.2185702,2.2185702 0 0 1 1.76664,2.54725 c -0.32867,1.52013 -1.39688,2.79375 -2.95809,2.58833 h -0.73952 a 11.216105,11.216105 0 0 0 0.57518,1.43796 5.1355792,5.1355792 0 0 1 -4.10846,-4.10846 8.8331963,8.8331963 0 0 1 -0.73953,0.98603 14.913722,14.913722 0 0 1 0,-3.32786 4.7658175,4.7658175 0 0 1 5.17667,-3.7387 29.663106,29.663106 0 0 0 -13.55793,-7.06656 7.6006573,7.6006573 0 0 0 -8.21693,6.94331 c 0,2.46508 1.76664,4.10846 4.43714,4.93015 a 6.8611339,6.8611339 0 0 1 -3.12243,-4.8069 4.4782251,4.4782251 0 0 1 2.21857,-4.64256 c 3.04026,0.32868 3.36894,3.41002 5.79293,5.29992 l -2.34182,0.2465 a 3.8619556,3.8619556 0 0 1 1.72555,3.20461 v 1.39687 a 9.4494658,9.4494658 0 0 0 0.86278,2.9581 c -2.91701,-0.69844 -5.29992,-0.32868 -7.23089,-2.58834 l -0.86278,2.58834 c -1.15037,-2.58834 -3.53328,-2.83484 -4.64257,-5.38209 a 3.3278554,3.3278554 0 0 1 -1.8488,0.98603 c 1.64338,-1.43796 0.90386,-3.32785 1.6023,-5.42317 a 4.7658175,4.7658175 0 0 1 4.60148,-3.69762 c 1.76663,-0.57518 1.56121,-2.1364 4.10846,-2.34182 h -0.5341 a 23.336072,23.336072 0 0 0 -14.42071,5.42317 c -1.97206,1.56122 -3.86195,2.91701 -3.86195,5.99836 0,1.39687 0.32867,2.05423 0.94494,2.3829 1.76664,1.02712 2.83484,0 3.2046,-0.45193 a 3.6976171,3.6976171 0 0 0 0.24651,-0.94494 2.0953163,2.0953163 0 0 1 -2.09531,0 1.5612161,1.5612161 0 0 1 -0.61627,-2.30074 2.0953163,2.0953163 0 0 1 2.83484,-0.82169 2.7115858,2.7115858 0 0 1 1.47904,3.4511 l -0.28759,0.65736 a 10.969597,10.969597 0 0 0 1.47905,0 4.8479868,4.8479868 0 0 1 -4.76582,2.54725 9.6959736,9.6959736 0 0 1 0.69844,0.94494 13.47576,13.47576 0 0 1 -2.99918,-1.15037 4.3549712,4.3549712 0 0 1 -1.88989,-5.79293 34.141331,34.141331 0 0 1 -18.32375,8.66886 42.11175,42.11175 0 0 1 -22.39112,-3.53328 10.517666,10.517666 0 0 0 -4.51931,-1.0682 c -2.38291,0 -3.53328,1.19145 -3.53328,2.46508 0,2.05423 1.15037,2.34182 1.84881,2.34182 a 4.601479,4.601479 0 0 0 1.0682,0 2.0953163,2.0953163 0 0 1 -1.0682,-1.76664 1.5612161,1.5612161 0 0 1 1.68447,-1.68447 2.0953163,2.0953163 0 0 1 2.1364,2.05423 2.7115858,2.7115858 0 0 1 -2.25966,2.99918 h -0.69844 a 10.64092,10.64092 0 0 0 0.8217,1.23254 4.8479868,4.8479868 0 0 1 -4.60148,-2.87592 8.8742809,8.8742809 0 0 1 -0.49302,1.0682 13.804437,13.804437 0 0 1 -0.49301,-3.16352 4.5603944,4.5603944 0 0 1 4.10846,-4.51931 28.225144,28.225144 0 0 0 -11.05177,-3.24569 3.4511093,3.4511093 0 0 0 -3.28677,1.72556 c 2.50616,1.64338 1.93098,4.88907 3.32786,7.60066 l -1.97207,-0.61627 a 4.5193097,4.5193097 0 0 0 2.54725,3.82087 2.7526705,2.7526705 0 0 1 -2.30074,1.02711 c -0.5341,0 -0.82169,-0.45193 -1.35579,-0.45193 0.41085,1.19146 0,1.56122 0.86278,2.54725 h -1.84881 c -1.64339,0 -2.46508,-0.90386 -3.24569,-2.34183 -1.47905,0.73953 -1.6023,0.94495 -1.93098,1.93098 a 4.9712407,4.9712407 0 0 1 -1.27362,-3.24568 c 0,-1.3558 1.02712,-2.05424 1.02712,-3.36894 a 5.1766639,5.1766639 0 0 0 -2.17749,1.72555 7.3541495,7.3541495 0 0 1 5.58751,-8.21693 c 0,0 0.28759,0 0.20542,0 a 9.1207887,9.1207887 0 0 0 -1.64338,4.84799 5.6696795,5.6696795 0 0 0 2.01315,4.35497 13.763352,13.763352 0 0 1 -0.57519,-4.43714 7.7649958,7.7649958 0 0 1 3.49219,-6.98439 23.459326,23.459326 0 0 0 -2.95809,0.49302 18.611339,18.611339 0 0 0 -8.58669,4.35497 10.024651,10.024651 0 0 0 -4.10846,8.70994 2.3007395,2.3007395 0 0 0 1.97206,2.34183 c 0.24651,0 1.27363,0 1.47905,-0.57519 -0.45193,-0.45193 -1.39688,0 -1.39688,-1.39687 a 1.9720624,1.9720624 0 0 1 1.97206,-1.76664 c 0.98603,0 2.09532,0.69843 2.09532,1.68447 a 2.6294166,2.6294166 0 0 1 -1.47905,2.46507 c 0.5341,0 1.0682,-0.36976 1.56122,-0.2465 -1.0682,0.98603 -1.64339,1.72555 -2.87593,1.72555 a 4.1084634,4.1084634 0 0 1 -2.58833,-0.82169 3.6565324,3.6565324 0 0 1 0.45193,1.10928 4.1084634,4.1084634 0 0 1 -3.2046,-4.35497 6.73788,6.73788 0 0 1 0.36976,-2.75267 42.440427,42.440427 0 0 1 -10.76417,10.64092"
           class="cls-3"
           id="Fill-62" />
        <path
           style="fill:#ffbf00;fill-opacity:1;stroke-width:1"
           d="m 100.11217,112.11997 a 395.48069,395.48069 0 0 1 99.67132,-12.325394 395.56286,395.56286 0 0 1 99.67132,12.325394 252.30074,252.30074 0 0 1 36.60641,12.32539 3.7797863,3.7797863 0 0 0 1.6023,-3.36894 c 0,-1.68447 -0.36976,-2.38291 -3.49219,-3.41003 a 248.97288,248.97288 0 0 0 -36.68858,-11.79129 410.84634,410.84634 0 0 0 -195.48069,0 249.26047,249.26047 0 0 0 -36.688577,11.79129 c -3.122432,1.02712 -3.492193,1.72556 -3.492193,3.41003 a 3.7387017,3.7387017 0 0 0 1.6023,3.36894 252.21857,252.21857 0 0 1 36.60641,-12.32539"
           class="cls-3"
           id="Fill-63" />
        <path
           style="fill:#ffbf00;fill-opacity:1;stroke-width:1"
           d="m 326.36525,148.60312 a 3.7797863,3.7797863 0 0 0 1.31471,-2.6705 260.10682,260.10682 0 0 0 -34.5111,-10.64092 402.62941,402.62941 0 0 0 -186.72966,0 255.91619,255.91619 0 0 0 -34.387837,10.64092 2.917009,2.917009 0 0 0 1.232539,2.6705 H 87.00617 a 236.48315,236.48315 0 0 1 32.25144,-9.98356 355.50534,355.50534 0 0 1 80.52588,-8.8332 355.62859,355.62859 0 0 1 80.52588,8.8332 235.2917,235.2917 0 0 1 32.25144,9.98356 h 13.76335"
           class="cls-3"
           id="Fill-64" />
        <path
           style="fill:#ffbf00;fill-opacity:1;stroke-width:1"
           d="M 92.799104,82.785538 88.074371,64.54396 A 274.40427,274.40427 0 0 0 51.673385,77.280197 l 6.902218,18.159408 A 199.05505,199.05505 0 0 1 92.758019,82.785538"
           class="cls-3"
           id="Fill-65" />
        <path
           style="fill:#ffbf00;fill-opacity:1;stroke-width:1"
           d="M 87.375932,61.626951 82.938791,44.165982 A 234.18241,234.18241 0 0 0 44.278151,57.80608 l 6.368118,16.721446 A 271.6516,271.6516 0 0 1 87.375932,61.626951"
           class="cls-3"
           id="Fill-66" />
        <path
           style="fill:#ffbf00;fill-opacity:1;stroke-width:1"
           d="m 82.076014,41.084634 -5.546425,-21.487264 -8.216927,2.423994 5.546425,17.296631 -9.120788,3.040263 -5.998357,-17.050123 -6.778965,2.341824 5.751849,17.255546 -8.504519,3.492194 -6.943303,-17.214462 -3.820871,1.68447 -3.163517,1.314708 8.216927,21.158587 A 254.72473,254.72473 0 0 1 82.076014,41.084634"
           class="cls-3"
           id="Fill-67" />
        <path
           style="fill:#ffbf00;fill-opacity:1;stroke-width:1"
           d="M 98.181191,103.98521 93.538627,85.702547 a 209.94248,209.94248 0 0 0 -33.976992,12.32539 l 6.244864,16.433853 a 261.33936,261.33936 0 0 1 32.374692,-10.4355"
           class="cls-3"
           id="Fill-68" />
        <path
           style="fill:#ffbf00;fill-opacity:1;stroke-width:1"
           d="m 183.47289,25.760066 -0.41085,-22.8841416 -16.10517,0.6162695 0.82169,18.8578471 -12.32539,1.027116 -2.38291,-18.8578473 -15.69433,1.8898932 2.21857,18.6935081 -12.85949,1.848809 -3.7387,-18.2415776 -15.07806,3.0402626 4.10846,22.103533 a 450.57518,450.57518 0 0 1 71.4051,-8.216926"
           class="cls-3"
           id="Fill-69" />
        <path
           style="fill:#ffbf00;fill-opacity:1;stroke-width:1"
           d="m 112.68407,36.976171 3.36894,17.584223 a 392.56368,392.56368 0 0 1 67.83073,-8.792112 l -0.32868,-17.009038 a 418.20049,418.20049 0 0 0 -70.87099,8.216927"
           class="cls-3"
           id="Fill-70" />
        <path
           style="fill:#ffbf00;fill-opacity:1;stroke-width:1"
           d="m 116.58711,57.518488 3.53328,18.611339 a 382.0871,382.0871 0 0 1 64.21528,-7.518488 l -0.41085,-19.67954 a 391.57765,391.57765 0 0 0 -67.33771,8.586689"
           class="cls-3"
           id="Fill-71" />
        <path
           style="fill:#ffbf00;fill-opacity:1;stroke-width:1"
           d="m 124.3521,97.986852 a 408.95645,408.95645 0 0 1 60.4355,-6.532457 l -0.36976,-19.720624 a 380.93673,380.93673 0 0 0 -63.68119,7.313065 l 3.61545,18.940016"
           class="cls-3"
           id="Fill-72" />
        <path
           style="fill:#ffbf00;fill-opacity:1;stroke-width:1"
           d="m 307.09655,82.785538 4.72474,-18.241578 a 274.40427,274.40427 0 0 1 36.40098,12.736237 l -6.90222,18.159408 a 199.54807,199.54807 0 0 0 -34.2235,-12.654067"
           class="cls-3"
           id="Fill-73" />
        <path
           style="fill:#ffbf00;fill-opacity:1;stroke-width:1"
           d="m 312.51973,61.626951 4.43714,-17.460969 a 233.85374,233.85374 0 0 1 38.66064,13.640098 l -6.49137,16.680361 a 271.15858,271.15858 0 0 0 -36.60641,-12.85949"
           class="cls-3"
           id="Fill-74" />
        <path
           style="fill:#ffbf00;fill-opacity:1;stroke-width:1"
           d="m 317.77856,41.084634 5.58751,-21.487264 8.21693,2.423994 -5.38209,17.296631 9.12079,3.040263 5.83402,-17.050123 6.77896,2.341824 -5.75185,17.255546 8.66886,3.533278 6.73788,-17.214461 3.86196,1.643385 3.16351,1.314708 -8.21692,21.158587 A 254.10846,254.10846 0 0 0 317.77856,41.084634"
           class="cls-3"
           id="Fill-75" />
        <path
           style="fill:#ffbf00;fill-opacity:1;stroke-width:1"
           d="m 301.71447,103.98521 4.64256,-18.282663 a 210.02465,210.02465 0 0 1 33.97699,12.32539 l -6.24486,16.433853 a 261.25719,261.25719 0 0 0 -32.37469,-10.4355"
           class="cls-3"
           id="Fill-76" />
        <path
           style="fill:#ffbf00;fill-opacity:1;stroke-width:1"
           d="m 216.42277,25.760066 0.41084,-22.8841416 16.14626,0.5751849 -0.82169,18.8578467 12.32539,1.027116 2.34183,-18.8167623 15.69433,1.8898932 -2.17749,18.6524241 12.85949,1.848808 3.7387,-18.2415772 15.07806,3.0402632 -4.10846,22.103533 a 450.49301,450.49301 0 0 0 -71.40509,-8.216927"
           class="cls-3"
           id="Fill-77" />
        <path
           style="fill:#ffbf00;fill-opacity:1;stroke-width:1"
           d="m 287.21159,36.976171 -3.36894,17.584223 a 392.56368,392.56368 0 0 0 -67.83073,-8.833196 l 0.36976,-16.967954 a 418.24157,418.24157 0 0 1 70.82991,8.216927"
           class="cls-3"
           id="Fill-78" />
        <path
           style="fill:#ffbf00;fill-opacity:1;stroke-width:1"
           d="m 283.39072,57.518488 -3.53328,18.611339 a 382.0871,382.0871 0 0 0 -64.21528,-7.518488 l 0.36976,-19.67954 a 391.65982,391.65982 0 0 1 67.3788,8.586689"
           class="cls-3"
           id="Fill-79" />
        <path
           style="fill:#ffbf00;fill-opacity:1;stroke-width:1"
           d="m 275.58464,97.986852 a 408.95645,408.95645 0 0 0 -60.4355,-6.532457 l 0.36977,-19.720624 a 380.89564,380.89564 0 0 1 63.76335,7.313065 l -3.61545,18.940016"
           class="cls-3"
           id="Fill-80" />
      </g>
    </g>
  </g>
</svg>
