<svg id="Layer_1" data-name="Layer 1" xmlns="http://www.w3.org/2000/svg" viewBox="0 0 425.83 70.6"><defs><style>.cls-1{isolation:isolate;font-size:27.52px;font-family:Arial-BoldMT, Arial;font-weight:700;}.cls-1,.cls-2{fill:#333;}</style></defs><title>LDO_logo_hvit5</title><text class="cls-1" transform="translate(63.45 27.21)">Likestillings-</text><text class="cls-1" transform="translate(63.45 60.24)">og diskrimineringsombudet</text><path class="cls-2" d="M30.37,67c-2.91,1-7.46.94-10.19.82C4.22,67.37,0,59.55,0,51.59V19.25a9.41,9.41,0,0,1,18.82,0V54a11.81,11.81,0,0,0,6,9.92,10.7,10.7,0,0,0,4,1.34Z" transform="translate(0 0)"/><path class="cls-2" d="M15.64.87c2.9-.95,7.46-.93,10.18-.82C41.78.52,46,8.34,46,16.3V48.64a9.41,9.41,0,1,1-18.82,0V13.93a11.78,11.78,0,0,0-6-9.92,11.09,11.09,0,0,0-4-1.35Z" transform="translate(0 0)"/></svg>