<?xml version="1.0" encoding="utf-8"?>
<!-- Generator: Adobe Illustrator 22.1.0, SVG Export Plug-In . SVG Version: 6.00 Build 0)  -->
<svg version="1.1" id="Layer_1" xmlns="http://www.w3.org/2000/svg" xmlns:xlink="http://www.w3.org/1999/xlink" x="0px" y="0px"
	 viewBox="0 0 128 134" style="enable-background:new 0 0 128 134;" xml:space="preserve">
<style type="text/css">
	.st0{fill:#FFFFFF;}
	.st1{fill:#222222;fill-opacity:0;}
</style>
<symbol  id="_01-Riksv책pen_neg" viewBox="-31.5 -55.5 63 111">
	<path class="st0" d="M23-29c-1.7-1.3-3.7-2.3-5.8-2.9c-0.6-0.2-1.3-0.4-2-0.5l-0.7-0.1l0.1-0.3l0.7,0.2c0.7,0.2,1.3,0.3,2,0.5
		c2.1,0.6,4.1,1.6,5.9,3L23-29z M-23-29.1l-0.2-0.3c2.5-1.9,5.4-3.1,8.4-3.6l0.1,0.3C-17.7-32.2-20.6-31-23-29.1L-23-29.1z
		 M11.6-33.1h-0.4c-1.1-0.1-2.2-0.2-3.2-0.3c-2.2-0.1-4.1-0.3-6.2-0.2V-34c2.1,0,4.1,0.1,6.2,0.2c1.1,0.1,2.2,0.2,3.2,0.3l0.4,0
		L11.6-33.1z M-11.6-33.2v-0.3c3.2-0.4,6.5-0.6,9.8-0.6h0.1v0.3h-0.1C-5.1-33.8-8.3-33.6-11.6-33.2L-11.6-33.2z"/>
	<path class="st0" d="M1-52.7h2.7v1.8H1v4.1c0,0-0.1,0-0.1,0c-0.6-0.1-1.2-0.1-1.9,0v-4.1h-2.7v-1.8h2.8v-2.8c0.6,0,1.3,0,2,0
		L1-52.7z"/>
	<path class="st0" d="M1-46.2l-0.4,0.8v3.4h3.7c0,0.3,0,0.7-0.1,1h-8.4c-0.1-0.3-0.1-0.7-0.1-1h3.7v-3.4L-1-46.3
		C-0.3-46.4,0.4-46.4,1-46.2z"/>
	<path class="st0" d="M-1-45.3v2.8h-3.3c0.1-1.7,1.3-3.1,2.8-3.6h0L-1-45.3z"/>
	<path class="st0" d="M4.3-42.5H1v-2.9l0.4-0.7C3-45.6,4.1-44.2,4.3-42.5z"/>
	<path class="st0" d="M4.1-40.7c-0.4,1.4-1.6,2.6-3.1,2.9c-1.5,0.4-3.1-0.1-4.2-1.2c-0.4-0.5-0.8-1.1-0.9-1.7
		C-1.4-40.7,1.5-40.7,4.1-40.7z"/>
	<path class="st0" d="M-1.9-37.5c0.1,0.4,0.1,0.7,0,1.1c-2.8-0.5-5.6-0.8-8.4-0.7c-0.8,0.1-1.6,0.6-1.9,1.4c0,0.3,0,0.7,0,1
		c0.1,1.1,0.2,2.2,0.3,3.3c-0.7-0.1-1.5,0-2.1,0.3v-0.1l-0.6-4.3c-0.2-0.7-0.1-1.4,0.4-1.9c1.1-0.8,2.4-1.1,3.7-1
		C-7.6-38.4-4.7-38.1-1.9-37.5z"/>
	<path class="st0" d="M14.3-37.2c0.3,0.4,0.4,0.8,0.3,1.3L13.9-31l0,0c-0.7-0.3-1.4-0.5-2.1-0.3v-0.2c0.2-1.3,0.3-2.5,0.4-3.8
		c0-0.7-0.5-1.3-1.1-1.5c-1.1-0.5-2.5-0.3-3.8-0.3c-1.8,0.1-3.7,0.4-5.5,0.7c0-0.4,0-0.7,0-1.1c2.9-0.6,5.8-0.8,8.7-0.8
		C11.9-38.4,13.2-38,14.3-37.2z"/>
	<path class="st0" d="M-14.8-37.6c-0.2,0.3-0.4,0.7-0.4,1.2c-0.3,0-0.7,0-1,0c-2.4-0.2-4.9,0-7.3,0.5c-0.7,0.2-1.2,0.8-1.3,1.4
		c0,0.2,0,0.3,0,0.5c0.1,1.1,0.4,2.2,0.5,3.3c-0.5-0.2-1.1-0.2-1.7-0.1c-0.2-0.8-0.4-1.7-0.5-2.5c-0.2-0.8-0.6-2.2,0.3-3
		c1.2-0.8,2.6-1.3,4-1.3c1.5-0.2,2.9-0.2,4.4-0.2C-16.8-37.7-15.7-37.7-14.8-37.6z"/>
	<path class="st0" d="M24.6-37c0.8,0.2,2,0.8,2.1,1.8c-0.1,1-0.2,2-0.4,2.9l-0.3,1.6c-0.2,0-0.5-0.1-0.7,0c-0.3,0-0.7,0.1-1,0.2
		c0.2-1.2,0.5-2.4,0.6-3.6c-0.1-0.7-0.5-1.2-1.1-1.5c-1.7-0.5-3.4-0.8-5.1-0.7c-1.1,0-2.4,0.1-3.4,0.1c0-0.5-0.2-0.9-0.4-1.2
		c0.6,0,1.1-0.1,1.7-0.1c2.5-0.2,4.9,0,7.4,0.4L24.6-37z"/>
	<path class="st0" d="M-0.1-37.2c0.5,0,0.9-0.1,1.4-0.2c0,1.8-0.1,3.8-0.2,5.6c-0.2,0-0.4-0.1-0.6-0.1c-0.5-0.1-1.1,0-1.6,0.1v-0.1
		c-0.1-1.8-0.2-3.6-0.1-5.5C-0.9-37.2-0.5-37.2-0.1-37.2z"/>
	<path class="st0" d="M1.8-30.7c0.7,1.2-0.6,2.2-1.1,3.2c0.1,0.3,0.3,0.5,0.4,0.8l0,0c0.8-0.7,1.5-1.6,2.6-1.6
		c0.7,0.3,1.2,1,1.2,1.8c0.1,0.9-0.2,1.7-0.9,2.2c-1,0.3-1.8-0.6-2.5-1.2L1-25.9l0,0l-0.5,0.8c0.5,1.2,1.2,2.4,1.9,3.5
		c0.5,0.5,1.2,0.5,1.9,0.7c1.8,0.3,3.7,0.2,5.5-0.3c0.6-0.2,0.8-0.8,1-1.3c0.4-0.7,0.7-1.5,1.1-2.3c-0.2-0.3-0.3-0.6-0.5-0.9
		c-0.7,0.8-1.5,1.7-2.7,1.6c-0.4-0.1-0.7-0.4-0.9-0.8c-0.4-0.9-0.2-2,0.3-2.9c0.3-0.3,0.8-0.4,1.2-0.3c0.8,0.4,1.6,1,2.2,1.7v-0.1
		l0.4-0.8c-0.5-0.5-0.8-1.1-1.2-1.7c-0.2-0.5-0.1-1.1,0.3-1.5c0.7-0.5,1.7-0.6,2.5-0.2c0.4,0.2,0.7,0.6,0.8,1c0,0.7-0.3,1.5-0.8,2
		l-0.4,0.4l0.4,0.9l0,0c0.9-0.6,1.8-1.7,3-1.2c0.6,0.6,0.9,1.5,0.7,2.3c-0.1,0.6-0.6,1.2-1.2,1.4c-0.9,0.2-1.6-0.6-2.2-1.2l-0.5-0.6
		c-0.2,0.3-0.3,0.5-0.5,0.8c0.5,1.1,1.1,2.2,1.9,3.2c0.5,0.5,1.1,0.7,1.8,0.7c1.9,0.3,3.9,0.2,5.8-0.3c0.2-0.1,0.4-0.2,0.5-0.5
		c0.6-0.9,1.1-1.7,1.6-2.6c-0.2-0.3-0.3-0.5-0.5-0.8c-0.7,0.8-1.6,1.3-2.6,1.4c-0.4,0-0.8-0.3-1.1-0.6c-0.4-0.8-0.4-1.7-0.1-2.6
		c0.1-0.4,0.5-0.8,1-0.8c1.2-0.2,2.1,1,2.8,1.8c0.2-0.2,0.5-0.5,0.7-0.8c-0.7-0.6-1-1.5-1-2.4c0.1-0.4,0.3-0.7,0.7-0.9
		c0.9-0.3,1.9-0.2,2.7,0.2c-1.3,4.2-2.2,8.4-2.9,12.8l-48.3,0c-0.5-3.4-1.2-6.7-2.1-10c-0.2-1-0.6-1.9-0.8-2.8
		c0.9-0.4,2.5-0.7,3.2,0.2c0.5,0.7,0,1.6-0.3,2.3l-0.5,0.6l0.6,0.8l0,0c0.8-0.9,1.7-2,3-1.7c0.5,0.2,0.9,0.6,0.9,1.1
		c0.1,1,0.3,2.2-0.7,2.7c-0.8,0.3-1.6,0.1-2.2-0.5c-0.3-0.2-0.6-0.5-0.9-0.8c-0.2,0.2-0.3,0.5-0.5,0.8c0.5,1,1,1.9,1.6,2.8
		c0.4,0.5,1,0.5,1.6,0.7c1.6,0.3,3.3,0.3,4.9,0c0.7,0,1.3-0.4,1.6-0.9C-14-23-13.4-24-12.9-25c-0.1-0.3-0.3-0.6-0.5-0.8
		c-0.5,0.7-1.2,1.3-2.1,1.7c-0.5,0.1-1-0.1-1.3-0.5c-0.6-0.8-0.7-2-0.1-2.9c0.2-0.3,0.6-0.5,0.9-0.5c1,0,1.7,0.8,2.5,1.4
		c0.2-0.2,0.2-0.5,0.4-0.8c0.1-0.1,0-0.2-0.1-0.2c-0.7-0.6-1.1-1.6-1-2.5c0.3-0.6,1-1,1.7-1c0.7,0,1.5,0.1,1.8,0.8
		c0.5,1.1-0.6,2-1.1,2.8c0.1,0.3,0.2,0.6,0.4,0.9c0.6-0.7,1.4-1.2,2.2-1.6c0.6-0.1,1.1,0.1,1.4,0.6c0.2,0.5,0.3,1,0.3,1.5
		c0,0.7-0.3,1.3-0.8,1.7c-1,0.4-1.9-0.4-2.6-1.1l-0.3-0.4c-0.2,0.3-0.4,0.5-0.6,0.8c0.5,1.1,1.1,2.3,1.7,3.3c0.3,0.2,0.6,0.4,1,0.5
		c2,0.4,4,0.4,5.9-0.1c0.5-0.1,1-0.5,1.2-1c0.6-1,1.1-2,1.5-3c-0.2-0.2-0.3-0.5-0.5-0.8c-0.6,0.7-1.4,1.3-2.3,1.7
		c-0.4,0.1-0.9-0.1-1.1-0.5c-0.6-0.9-0.6-2.1,0-3.1c0.2-0.3,0.6-0.5,0.9-0.5c0.9,0.3,1.7,0.9,2.4,1.6c0.1-0.2,0.3-0.5,0.5-0.8
		c-0.6-1-2-2.2-0.9-3.5c0.8-0.6,1.8-0.7,2.7-0.4C1.3-31.1,1.6-30.9,1.8-30.7z"/>
	<path class="st0" d="M-31.3-17.2c0,0.1,0,0.3,0,0.4l0.3,7.7c0,0.7,0.1,1.4,0.1,2.1l0.3,4.8l0.4,4.4l0.5,4.3
		c1.2,10.4,3.6,20.3,9.2,28.9c3.1,4.5,6.7,8.7,10.8,12.4c2.7,2.5,5.6,4.9,8.7,7c0.4,0.2,0.7,0.6,1.2,0.6c3.9-2.5,7.5-5.4,10.8-8.7
		c4.4-4.2,8.2-8.9,11.4-14.1c3.3-5.9,5.2-12.4,6.4-19c1.6-10.2,2.5-20.4,2.7-30.7L-31.3-17.2z M30-3.5l-0.3,4.1
		c-1.2,13-3.3,26-11.1,36.4c-1.4,1.9-2.9,3.7-4.5,5.4l-2.8,2.9C7.8,48.9,4,52-0.2,54.7c-2.6-1.6-5-3.5-7.3-5.5
		c-4.4-3.9-8.4-8.2-11.9-13c-3.7-5.5-6.4-11.7-7.9-18.3c-1.3-5.4-2.1-10.9-2.5-16.4l-0.4-4.7L-30.4-7v-1l-0.2-3.7
		c-0.1-1.7-0.1-3.3-0.1-4.9h61.3c-0.1,2.9-0.2,6-0.3,8.9L30-3.5z"/>
	<path class="st0" d="M-0.1,55.5c-0.3,0-0.6-0.1-0.8-0.3C-1,55.1-1.1,55-1.2,54.9c-3.1-2.1-6-4.5-8.7-7c-4.1-3.7-7.7-7.9-10.8-12.5
		c-4.9-7.6-7.9-16.8-9.3-29l-0.5-4.3l-0.3-4.4l-0.3-4.8c0-0.6-0.1-1.3-0.1-1.9v-0.2l-0.3-7.7c0-0.1,0-0.3,0-0.5v-0.1h0.2l62.8,0.1
		v0.2c-0.1,10.3-1,20.6-2.7,30.7c-1.5,8.1-3.5,14-6.5,19.1c-3.2,5.7-7.8,10.5-11.4,14.1C7.7,50,4,53,0.1,55.5H0.1H-0.1z M-31.2-17.1
		c0,0.1,0,0.2,0,0.2l0.3,7.8c0,0.7,0.1,1.3,0.1,1.9l0.3,4.8l0.4,4.4l0.5,4.3c1.4,12.2,4.3,21.3,9.2,28.9c3.1,4.5,6.7,8.7,10.8,12.4
		c2.7,2.6,5.6,4.9,8.6,7c0.1,0.1,0.3,0.1,0.4,0.2c0.2,0.2,0.4,0.3,0.7,0.3c3.9-2.5,7.5-5.4,10.8-8.6c3.6-3.6,8.2-8.4,11.4-14
		c2.9-5.1,4.9-10.9,6.4-19C30.1,3.5,31-6.7,31.2-17L-31.2-17.1z M-0.2,54.9L-0.2,54.9c-2.6-1.7-5.1-3.6-7.3-5.6
		c-4.5-3.9-8.5-8.2-12-13c-3.5-5-6-10.8-7.9-18.3c-1.3-5.4-2.1-10.9-2.5-16.4l-0.4-4.7L-30.5-7v-1l-0.2-3.7
		c-0.1-1.2-0.1-2.4-0.1-3.5v-1.4v-0.2h61.6v0.2c-0.1,2.6-0.1,5.9-0.3,8.9l-0.3,4.2l-0.3,4.1c-1.2,12-3.1,25.8-11.2,36.5
		c-1.4,1.9-2.9,3.7-4.5,5.4l-2.8,3C7.9,49,4.1,52.1-0.2,54.9L-0.2,54.9z M-30.5-16.4v1.3c0,1.1,0,2.3,0.1,3.5l0.2,4.7l0.2,3.9
		l0.4,4.7c0.4,5.5,1.3,11,2.5,16.3c1.9,7.4,4.4,13.2,7.9,18.2c3.5,4.8,7.5,9.1,11.9,13c2.2,2,4.6,3.8,7.1,5.4
		c4.1-2.7,7.9-5.8,11.3-9.2l2.8-2.9c1.6-1.7,3.1-3.5,4.5-5.4c8.1-10.7,9.9-24.4,11.1-36.3l0.3-4.1l0.3-4.2c0.2-2.9,0.3-6.1,0.3-8.7
		L-30.5-16.4z"/>
	<path class="st0" d="M-19.3-10.3c1,0,2.1,0,3.1,0.1v2.4c-1.2,0-2.5,0-3.7,0c-1.5,0.1-2.5,1.2-3.6,2.2c-0.4,0.4-0.8,0.9-1.2,1.4
		c-1.4-2.6-2.2-5.4-2.3-8.4c0-0.5,0-0.9,0-1.4C-24.6-12.3-22.3-10.3-19.3-10.3z"/>
	<polygon class="st0" points="-17,-10.7 -17,-10.7 -17.9,-10.7 -17.9,-11.5 -17,-11.5 	"/>
	<path class="st0" d="M-4.3-8.3C-3.9-8-3.5-7.9-3.1-7.8C-2.4-7.8-1.6-7.7-1-7.6l0.4,0.5h-0.1l-3-0.3C-4-7.5-4.3-7.7-4.6-8
		c0-0.1,0-0.2,0.1-0.3C-4.4-8.3-4.3-8.4-4.3-8.3z"/>
	<path id="Edited_body_1_" class="st0" d="M27-3.3c0.2-1.8-0.2-3.5-1.2-5c-1.5-1.8-4-2.6-6.3-1.8c-2.3,0.7-3.8,3-3.4,5.5
		c-1,1.2-1.7,2.6-2.2,4.1c0.6-0.7,1.3-1.3,2.1-1.8l0,0c0.1,0.5,0.2,1.1,0.2,1.6c-0.6,0.9-1.4,1.8-2,2.8c-1.1,1.4-2,2.9-2.6,4.5
		c1.9-2.3,4.5-3.7,6.6-5.7c0.2-0.3,0.6-0.5,0.6-0.9c0.1-0.8,0.1-1.7-0.1-2.5c0.2,0,0.3,0,0.5,0c0.7,0.7,1.1,1.7,1.2,2.7
		c0,0.2,0,0.3,0.1,0.5c0.2-0.9,0.3-1.9,0.4-2.9c-0.1-1-0.4-1.9-1-2.7c-0.6-0.3-1.3-0.4-2-0.4l-0.1,0c-0.1-0.4-0.2-0.8-0.1-1.1
		c0.3-1.3,1.2-2.3,2.5-2.6c1.1-0.3,2.3-0.2,3.3,0.3c2,1.1,2.6,3.4,2.3,5.5c-0.2,1.7-1,3.2-2.3,4.4c-2.1,2.1-4.6,3.6-6.8,5.5
		c-1.2,0.9-2.4,2-3.4,3.1c-1.4,1.8-1.7,4.1-0.8,6.2c1.3,3.5,3.7,6.6,5.3,10c0.5,1,0.7,2.2,0.7,3.3c-0.2,1.1-0.8,2.1-1.8,2.8
		c-1.2,0.9-2.8,1.1-4.2,0.7c-1.2-0.4-2.3-1.2-2.9-2.3c-1.9-3.1-3.6-6.4-5-9.8C4.2,19.8,3.7,19,3,18.4c0.1-4.1,0.1-8.6,0.2-12.8V5.6
		c0.3,0.1,0.6,0.3,0.8,0.3c0.2-1.4,0.7-2.7,1.6-3.8c1.8-2.8,2.9-6,2.9-9.4c0.3-0.3,0.6-0.6,0.8-0.9C9.6-8.4,9.5-8.8,9.6-9
		S9.2-9.4,9-9.6C8.5-9.8,8-9.5,7.5-9.4C7.4-9.5,7.3-9.6,7.2-9.7c0.5-0.2,1-0.4,1.5-0.5c0.6-0.7,1.1-1.5,1.6-2.3
		c-0.3,0-0.5,0.1-0.8,0.2c-0.1-0.1-0.2-0.3-0.3-0.4c-0.1-0.1-0.3-0.1-0.5-0.1c-0.2,0.1-0.3,0.2-0.4,0.3c0,0.2-0.1,0.4,0.1,0.5
		s0.4,0.1,0.5,0.2c0,0,0,0.1,0,0.2c-0.3,0.3-0.6,0.5-1,0.6c-0.6,0-1.3-0.2-1.9-0.5c-0.2-0.3-0.3-0.7-0.3-1.1c0-0.1,0.1-0.2,0.2-0.2
		c0.1,0,0.1,0.1,0.1,0.2c0.1,0.1,0.3,0.1,0.4,0.2s0.4-0.2,0.5-0.4c0-0.2,0-0.3-0.1-0.5c-0.2-0.2-0.4-0.2-0.6-0.1
		c-0.1,0,0-0.2-0.1-0.2C6.2-13.8,6-14,5.7-14c-0.3,0-0.5,0.2-0.7,0.4c0,0-0.1,0-0.1-0.1c-0.2-0.1-0.4-0.1-0.6,0
		c-0.1,0.1-0.2,0.3-0.2,0.4c0,0.2,0.2,0.4,0.3,0.5s0.4,0,0.5,0l0.1,0.2c-0.3,0.4-0.6,0.7-1,0.9c-0.6,0-1.2-0.2-1.8-0.4
		c-0.2-0.3-0.4-0.6-0.4-1c0.1,0,0.1-0.2,0.2-0.1s0.3,0,0.4,0.1c0.1-0.1,0.2-0.2,0.3-0.4c0-0.2,0-0.4-0.1-0.5
		c-0.1-0.1-0.2-0.1-0.4-0.2c-0.2,0-0.4,0.1-0.5,0.2c-0.1-0.2-0.3-0.3-0.5-0.4l0.1,1.7c0,0.3,0.1,0.6,0.2,0.9l1,0.2l5.1,1.1l0,0
		c-0.2,0.1-0.5,0.2-0.7,0.3l-0.4-0.1l-4.7-1.1l-0.4-0.1c-0.7,0.5-1.3,1-2,1.6c0.1,0.1,0,0.3,0.1,0.4c0.1-0.1,0.2-0.3,0.4-0.2
		S0-9.3,0.1-9.2l-0.6,0.5l0.1,0.4c0.3,0.5,0.6,0.9,0.9,1.4l-0.6,1.1c1,0.2,2,0.1,2.9,0.2C2.8-5.2,2.6-4.7,2.3-4.4
		C1.2-4.1-0.1-4-1.3-3.7c-1.3,0.5-2.6,1.3-3.6,2.2c-1.2,0.8-2.3,1.8-3.1,3c-0.6,1.7-0.5,3.5-1,5.2c0.6,0,1.3-0.1,1.9-0.1l0,0
		L-9.3,10l-2.9,4.5l-0.8,1.2c-0.5-0.2-1-0.5-1.5-0.8c0-1-0.1-2-0.1-3c-0.1-0.6-0.5-1.1-0.9-1.5c0.1,0.3,0.2,0.6,0.2,0.9
		c-0.3,0.3-0.6,0.8-0.7,1.2c0.2,0.6,0.4,1.2,0.6,1.8c-0.2,0.1-0.4,0.3-0.6,0.4c-0.5-0.3-1-0.6-1.4-0.9c0-1.6,0.1-3.4,0.1-5V4.6
		c0-1.5,0.1-3,0.1-4.7c0.1-0.2,0.3-0.3,0.5-0.5c0.4,0.2,0.8,0.4,1.1,0.6c0.1,0,0,0.1,0,0.2c-0.1,0.2-0.2,0.4-0.3,0.7
		c0.3,0.4,0.7,0,1.1,0.2c1.8,1.4,3.7,2.8,5.5,4.2C-9.1,4.2-9,3.1-8.8,1.9c-1.6-0.9-3.2-1.6-4.8-2.5L-13.8-1h-0.8
		c-0.4-0.2-0.9-0.5-1.3-0.8v-0.1c0.4-0.6,0.9-1.2,1.3-1.8c0.1-0.4,0.2-0.8,0.2-1.2c0-0.2,0.1-0.5,0-0.7c-0.1,0.3-0.3,0.6-0.5,0.8
		c-0.3,0-0.6,0.1-0.9,0.2l-0.6,1.3c-0.1,0.2-0.2,0.3-0.3,0.4c-0.1,0-0.4,0-0.4-0.1c0-1.5,0-3,0-4.4H-18c0,1.3,0,2.6-0.1,3.8l0,0
		c-0.3-0.2-0.5-0.4-0.9-0.5c-0.7-0.3-1.5-0.3-2.3,0c0.3,0,0.7,0.1,1,0.2c0,0.5,0.2,0.9,0.4,1.3c0.5,0.2,1.1,0.3,1.7,0.2
		c0,0.3,0,0.7,0,1V-1c-0.7,0.3-1.4,0.7-2.1,1.2c-0.3,0.4-0.6,0.8-0.8,1.3c0.2-0.2,0.5-0.4,0.8-0.5c0.3,0.2,0.6,0.4,1,0.5
		c0.4-0.2,0.7-0.5,1.1-0.7c0,2-0.1,3.8-0.1,5.8l-0.1,6c-0.1,0.3,0,0.6,0,0.9c-0.7,0-1.5-0.1-2,0.3c0.3,0,0.6,0,0.8,0.1
		c0.2,0.5,0.3,1,0.6,1.4c0.2,0,0.4,0.1,0.6,0.2V18c-0.4,0.4-0.8,0.9-1,1.4c0.3-0.2,0.6-0.4,1-0.5c0,1.3-0.1,2.7,0,4h0.8l0.1-4.2
		v-0.1c0.3,0.1,0.7,0.2,1,0.2c0.7-0.6,1.3-1.4,1.8-2.2h0.1c0.6,0.2,1.2,0.4,1.7,0.7c0.3,0.3,0.5,0.7,0.5,1.2
		c2.1-2.4,4.2-4.9,6.4-7.3L-2.3,7h0C-2.1,7.1-2,7.2-1.9,7.3l-1,1.2l-3,3.5c0.2,0.6,0.4,1.2,0.7,1.8c0.7,0.7,1.4,1.5,1.9,2.4
		c0.3,1.1,0.6,2.3,0.8,3.5c0.1,0.2,0.1,0.5,0,0.7c-1.7,0.6-3.4,1.4-5,2.4c-0.6,1.8-1.1,3.6-1.3,5.4c-0.1,0.6-0.1,1.2,0,1.8
		c0.1,0.4,0.4,0.9,0.5,1.3c-0.8-0.1-1.6-0.1-2.4-0.2l-4-0.4h-0.2c-0.1-0.7-0.3-1.5-0.6-2.2c0.5-0.5,0.9-1.1,1.3-1.7
		c0.2-0.7,0.3-1.4,0.1-2.2c-0.1,0.3-0.2,0.6-0.3,0.8c-0.4,0-0.7,0.1-1.1,0.2c-0.2,0.7-0.1,1.3-0.2,2l-0.1,0.1
		c-0.2,0-0.5,0.2-0.7,0.1c-0.2-0.3-0.4-0.6-0.6-0.9c-0.3-0.5-0.7-0.9-1.1-1.3c-0.4-0.3-0.9-0.5-1.5-0.5l0,0c0.3,0.2,0.6,0.5,0.9,0.7
		c-0.3,0.3-0.4,0.6-0.4,1c0.6,0.3,1.2,0.6,1.9,0.8l0.3,0.2c-0.1,0.2-0.2,0.5-0.3,0.7c-0.6,0-1.3,0-1.9,0.1c-0.1,0.2-0.2,0.4-0.2,0.7
		c0,0.4-0.5,0.3-0.8,0.4c0.6,0.2,1.2,0.3,1.8,0.2c0.5-0.2,0.9-0.4,1.4-0.5h0c0.4,0.6,0.7,1.1,0.9,1.8c0.2,0.5-0.3,0.9-0.7,1.2
		c0.4-0.1,0.9-0.1,1.3,0c2.1,0.5,4.2,1.1,6.4,1.5c0.3,0.3,0.7,0.6,1.1,0.9c0.7-0.2,1.4-0.5,2.1-0.8c0-0.4,0-0.7,0.1-1.1
		c0.5-0.9,1.1-1.7,1.6-2.5c-0.6-0.6-1.1-1.4-1.5-2.2c-0.1-1-0.3-2-0.4-3c0-0.4-0.1-1,0.2-1.3c1.5-2.1,4.1-3.4,4.9-5.9
		c0.2,0,0.3,0,0.5,0h0c-0.2,0.7-0.6,1.3-1,1.9c-1.2,1.7-2.9,2.7-4.1,4.3v0.6c0,1.1,0.1,2.1,0.3,3.2c0.5,1,1.2,2,2,2.7l2.8,3.1
		c0.4,0.5,0.8,1,1.2,1.5c0.7,3.1,0.9,6.4,0.8,9.6l-0.1,0.2c-0.5,0.3-1.1,0.5-1.7,0.5c-0.5-0.7-0.9-1.5-1.3-2.3c-0.6-0.5-1.3-0.9-2-1
		c0.3,0.3,0.6,0.6,0.9,0.9c-0.2,0.5-0.2,1-0.2,1.6c0.6,0.4,1.3,0.7,1.9,1l0.1,0.1c0,0.2,0,0.4-0.1,0.7h-0.1C-1.6,46.9-2.3,47-3,47.2
		c-0.5,0.3-1,0.8-1.3,1.3c0.3-0.1,0.6-0.2,0.8-0.3c0.3,0.3,0.7,0.6,1.1,0.7c0.5-0.4,1-0.9,1.5-1.4c0.3,0,0.5,0.3,0.6,0.5
		c-0.2,0.6-0.3,1.3-0.3,1.9c0.1,0.6,0.4,1.2,0.7,1.7c0-0.4,0-0.8,0-1.2C0.6,50.3,1,50,1.3,49.7v-0.1C1.1,49,1,48.4,0.8,47.8
		c0.4-0.3,0.9-0.7,1.3-1c0.2-0.2,0.4-0.2,0.6-0.2c0.5,0.2,0.9,0.5,1.3,0.9C4,46.8,4,46,4,45.3c0.1-2.3,0.3-4.6,0.6-6.9
		c0.2-0.3,0.5-0.5,0.6-0.8c0.1-0.7,0.2-1.3,0.2-2c-0.5-0.5-0.8-1-1-1.6c-0.4-2.4-0.5-4.8-0.5-7.2c-0.1-1.9,0-3.9-0.6-5.7
		c0.1-0.2,0.1-0.4,0.3-0.6c0.2,0.1,0.2,0.4,0.3,0.5c0.4,1.6,0.6,3.2,0.5,4.9l1.2,1.8l2.1,3.1c0.9,1.3,2,2.3,3.4,2.9
		c1.8,0.7,3.9,0.6,5.6-0.4c2-1.1,3.1-3.3,3-5.6c-0.2-3.3-2-5.9-2.4-9.1l0,0c1.2-0.5,2.3-1.1,3.4-1.7c-0.8-0.1-1.4-0.3-2.2-0.5
		c-0.5-0.1-1-0.1-1.6,0.1l0,0c-0.1-0.3-0.1-0.7-0.1-1l3.7-1.8c0.6-0.3,1.2-0.5,1.7-0.8l-2.5-0.5c-0.8,0.1-1.7,0.3-2.5,0.5h-0.1
		c0.1-0.4,0.2-0.9,0.4-1.3c2-1,4-1.9,6-2.9c-0.9-0.2-1.9-0.4-2.8-0.5l-1.6,0.2l0,0c1-1.5,2.2-2.9,3.5-4.1C24.8,2.3,26.7-0.2,27-3.3z
		 M8.5-9.1C8.7-9.1,8.9-9,9-8.8C9.1-8.4,8.8-8.2,8.5-8C8.4-8.1,8.4-8.3,8.4-8.5C8.2-8.6,8.1-8.8,7.9-8.9C8.1-9,8.3-9.1,8.5-9.1
		L8.5-9.1z M-17.5,17.4c0-0.7,0-1.2,0-1.9c0.5,0,1,0.1,1.4,0.2c0.1,0.3,0.1,0.5,0.1,0.8C-16.5,16.8-17,17.1-17.5,17.4L-17.5,17.4z
		 M-1.3,0.1c-1.1,0.2-2.2,0.3-3.3,0.5C-5.3,1-5.6,1.9-6,2.5L-6.9,4c-0.2,0-0.3-0.1-0.5-0.2c0.6-1,1.2-2.1,1.9-3.1
		C-4.9-0.1-3.9,0.1-3-0.2c0.6-0.1,1.2-0.2,1.9-0.3L-1.3,0.1z M0.6-10.2c0.2-0.2,0.5-0.4,0.8-0.6c1.2,0.2,2.5,0.5,3.8,0.8
		c0,0.2,0,0.3,0,0.5C4.6-9.6,4.1-9.8,3.5-9.9C3.4-9.6,3.4-9.3,3.1-9.2c-0.4,0.1-0.8,0.1-1.2,0c-0.2-0.3-0.3-0.6-0.3-1
		C1.3-10.1,1-10,0.8-9.9C0.8-9.9,0.7-10,0.6-10.2L0.6-10.2z M0.9-7.2C0.8-7.4,0.8-7.6,0.7-7.9c0.8,0,1.7,0.1,2.5,0.2
		C3.3-7.5,3.4-7.3,3.5-7C2.6-7,1.8-7.1,0.9-7.2L0.9-7.2z"/>
</symbol>
<symbol  id="_02-Wordmark-neg" viewBox="-77.1 -11.5 154.3 23">
	<path class="st0" d="M-68.1,5.8h-5.6l-1.1,5.7h-2.3l4.9-23h2.8l4.9,23h-2.4L-68.1,5.8z M-68.5,3.8l-2.4-12l-2.4,12H-68.5z"/>
	<path class="st0" d="M-51.2,11.5l-3.5-9.7h-3.4v9.7h-2.4v-23h5.5c3.5,0,5.4,1.6,5.4,4.9v3.6c0,2.4-1,3.9-2.9,4.5l3.7,10.1H-51.2z
		 M-58.1-0.3h3c2.2,0,3.2-0.9,3.2-3.3v-2.4c0-2.4-1-3.3-3.2-3.3h-3V-0.3z"/>
	<path class="st0" d="M-35.3,11.5l-4.3-11.9l-2.6,4.5v7.4h-2.4v-23h2.4V0.3l6.4-11.8h2.6l-4.9,8.6l5.3,14.4H-35.3z"/>
	<path class="st0" d="M-28.9,11.5v-23h2.4v23H-28.9z"/>
	<path class="st0" d="M-15.2,11.5h-2.6l-4.8-23h2.4l3.7,19l3.7-19h2.3L-15.2,11.5z"/>
	<path class="st0" d="M-0.5,11.5h-2.6l-4.8-23h2.4l3.7,19l3.7-19h2.3L-0.5,11.5z"/>
	<path class="st0" d="M8.3,11.5v-23h9.3v2.1h-6.9v8.1h5.9v2.1h-5.9v8.5h7v2.1H8.3z"/>
	<path class="st0" d="M31.2,11.5l-3.5-9.7h-3.4v9.7H22v-23h5.6c3.5,0,5.3,1.6,5.3,4.9v3.6c0,2.4-1,3.9-2.9,4.5l3.8,10.1H31.2z
		 M24.3-0.3h3.1c2.2,0,3.2-0.9,3.2-3.3v-2.4c0-2.4-1-3.3-3.2-3.3h-3.1V-0.3z"/>
	<path class="st0" d="M47.2,11.5L42.9-0.4l-2.6,4.5v7.4h-2.4v-23h2.4V0.3l6.5-11.8h2.6l-5,8.6l5.4,14.4H47.2z"/>
	<path class="st0" d="M53.5,11.5v-23h9.3v2.1h-6.9v8.1h5.9v2.1h-5.9v8.5h7v2.1H53.5z"/>
	<path class="st0" d="M77.1-9.4h-4.2v20.9h-2.4V-9.4h-4.2v-2.1h10.7V-9.4z"/>
</symbol>
<g id="Invisible_s">
	<rect x="0.2" y="0.2" class="st1" width="127.6" height="134"/>
</g>
<g id="Wordmark">
	
		<use xlink:href="#_02-Wordmark-neg"  width="154.3" height="23" id="_02-Wordmark-neg-3" x="-77.1" y="-11.5" transform="matrix(0.6522 0 0 0.6522 64 105.1286)" style="overflow:visible;"/>
</g>
<g id="Ri_ks_v책pen">
	
		<use xlink:href="#_01-Riksv책pen_neg"  width="63" height="111" id="_01-Riksv책pen_neg-3" x="-31.5" y="-55.5" transform="matrix(0.638 0 0 0.638 64 50.0905)" style="overflow:visible;"/>
</g>
</svg>
