<?xml version="1.0" encoding="UTF-8" standalone="no"?>
<svg
   xmlns:dc="http://purl.org/dc/elements/1.1/"
   xmlns:cc="http://creativecommons.org/ns#"
   xmlns:rdf="http://www.w3.org/1999/02/22-rdf-syntax-ns#"
   xmlns:svg="http://www.w3.org/2000/svg"
   xmlns="http://www.w3.org/2000/svg"
   xmlns:sodipodi="http://sodipodi.sourceforge.net/DTD/sodipodi-0.dtd"
   xmlns:inkscape="http://www.inkscape.org/namespaces/inkscape"
   inkscape:version="1.0 (4035a4fb49, 2020-05-01)"
   sodipodi:docname="Molde_komm.svg"
   id="svg2"
   height="603.34344"
   width="400.00003"
   version="1">
  <sodipodi:namedview
     inkscape:current-layer="svg2"
     inkscape:window-maximized="1"
     inkscape:window-y="-11"
     inkscape:window-x="-11"
     inkscape:cy="90.46127"
     inkscape:cx="284.50526"
     inkscape:zoom="2.3023396"
     showgrid="false"
     id="namedview28"
     inkscape:window-height="1000"
     inkscape:window-width="1920"
     inkscape:pageshadow="2"
     inkscape:pageopacity="0"
     guidetolerance="10"
     gridtolerance="10"
     objecttolerance="10"
     borderopacity="1"
     bordercolor="#666666"
     pagecolor="#ffffff"
     inkscape:document-rotation="0" />
  <metadata
     id="metadata51">
    <rdf:RDF>
      <cc:Work
         rdf:about="">
        <dc:format>
          
          image/svg+xml
        
        </dc:format>
        <dc:type
           rdf:resource="http://purl.org/dc/dcmitype/StillImage" />
        <dc:title />
      </cc:Work>
    </rdf:RDF>
  </metadata>
  <defs
     id="defs4" />
  <path
     d="m 215.71289,0.80538629 c -4.96771,-0.016061 -9.94566,0.41347911 -14.77539,0.33593751 -7.82914,-0.86248871 -15.54957,0.3991076 -23.29297,0.5976563 -0.35458,4.6303783 0.57422,9.1072079 0.86914,13.7890619 3.24386,-0.527794 6.60894,-0.215149 9.93555,-0.324219 -0.22132,4.560871 -1.942,9.411758 -2.76758,13.410157 -8.18606,0.05552 -16.34933,0.578512 -24.48633,0.867187 -1.69496,-4.009188 -2.74243,-8.485084 -3.96484,-12.269531 3.00764,-0.605897 6.40905,-1.243329 9.23047,-1.791016 -0.30807,-4.725942 -0.50149,-9.1413587 -0.75977,-13.8457025 -15.67379,1.0282012 -31.61012,4.0239651 -46.63672,6.1894532 -0.0573,4.8277363 2.0817,9.8116933 2.98438,14.0624993 2.95479,-0.587828 5.98337,-0.979879 8.95898,-1.466797 0.42196,0.160281 0.52556,-0.09432 0.59766,-0.107421 0.21608,4.519245 -0.90688,9.599467 -1.30274,13.789062 -8.12451,0.330916 -16.04106,3.319245 -23.61718,4.886719 -1.94586,-4.293354 -4.1887,-8.087367 -6.29883,-12.16211 3.10868,-1.228834 6.60093,-2.381713 9.77344,-3.527343 -0.1901,-4.628799 -2.38744,-9.12879 -3.42188,-13.085938 -5.4241,1.518748 -10.924142,2.245725 -16.416014,3.53711 -12.542901,2.949398 -24.387833,8.077078 -36.464844,12.96875 0.886764,4.425161 3.713293,8.159862 5.484375,12.052734 1.461577,0.467364 2.854484,-0.151847 4.072265,-0.216797 4.57857,12.229957 10.655713,24.81689 15.689454,36.539063 -1.641875,1.459684 0.231732,3.121609 0.326172,4.396484 -0.310024,1.985523 2.052638,1.971706 2.714843,2.607422 2.927515,6.25963 6.128497,13.535097 8.84961,19.544922 23.867389,0.42209 47.890459,0.33644 71.611329,0.54297 16.06116,-0.27965 32.74522,-0.43555 49.02734,-0.43555 21.24181,0.20154 43.41638,0.18815 64.87891,0.0547 11.75848,0.18466 23.53561,0.1445 35.29101,0.21679 2.72356,-6.590082 5.38377,-13.735925 7.87305,-20.087885 2.32304,0.608818 2.75929,-2.628764 3.47461,-3.310546 2.26086,-1.385447 -0.13326,-3.302083 -0.16406,-4.072266 4.79272,-11.505867 10.07545,-25.059067 14.82226,-36.865234 1.03276,-0.268589 2.17032,-0.158972 3.25391,-0.238282 2.74706,-3.475277 3.39273,-8.60313 4.875,-12.361328 -16.16463,-6.604176 -33.82681,-10.046579 -50.69531,-14.763672 -1.53094,4.248644 -1.80915,8.935715 -2.66016,13.138672 2.88478,1.119202 6.10575,2.441906 8.6875,3.47461 -1.64546,3.63452 -3.44252,7.404932 -5.04883,10.859374 -8.08671,-1.085197 -16.56515,-2.971609 -24.21484,-4.34375 -1.84745,-3.693052 -1.05218,-8.529442 -1.57422,-12.759765 3.32105,-0.04563 6.87384,0.588627 10.15234,0.869141 0.33489,-4.440585 1.70312,-9.119594 2.44336,-13.0839847 -15.18124,-4.4252171 -31.05455,-4.4349677 -46.63672,-6.6249999 -0.78849,4.1987403 -0.56047,10.1398976 -0.76171,13.7910156 3.23015,0.58201 6.61406,1.071223 9.71875,1.574219 -1.06656,4.17318 -3.01122,8.469041 -4.34375,12.216796 -8.18181,0.170732 -16.55935,-0.884867 -24.37696,-1.302734 -1.13938,-4.10441 -1.96005,-8.241872 -2.93164,-12.326172 3.30211,-0.958178 6.72195,-0.430259 10.15235,-0.65039 0.7996,-4.412853 0.51285,-9.130825 0.76172,-13.5742189 -2.93807,-0.53635851 -5.91586,-0.70520741 -8.89649,-0.71484381 z M 201.09766,21.192105 c 0.55422,0.01997 1.19306,0.136401 1.93359,0.402344 0.44845,0.37452 3.00037,2.450027 1.28711,1.044921 1.85496,2.473278 0.90558,4.473762 -0.26953,5.458985 -1.50678,1.263294 -3.06208,1.605243 -5.06445,0.396484 -1.86964,-1.128632 -2.19005,-5.705687 -1.01563,-6.27539 0.56798,-0.275523 1.46624,-1.087257 3.12891,-1.027344 z m 55.47461,3.185547 c 0.55422,0.01997 1.19306,0.136401 1.93359,0.402343 0.44846,0.374521 3.00037,2.450028 1.28711,1.044922 1.85496,2.473278 0.90558,4.475715 -0.26953,5.460938 -1.50678,1.263294 -3.06209,1.605243 -5.06446,0.396484 -1.86963,-1.128632 -2.19005,-5.707639 -1.01562,-6.277344 0.56797,-0.275522 1.46624,-1.087256 3.12891,-1.027343 z m -111.38086,0.107421 c 0.55422,0.01997 1.19307,0.136402 1.93359,0.402344 0.44846,0.374521 3.00037,2.450028 1.28711,1.044922 1.85496,2.473278 0.90559,4.475715 -0.26953,5.460938 -1.50678,1.263294 -3.06209,1.60329 -5.06446,0.394531 -1.86964,-1.128632 -2.19004,-5.705686 -1.01562,-6.275391 0.56798,-0.275522 1.46624,-1.087256 3.12891,-1.027344 z m 55.48437,9.421876 c 1.50891,0.03919 3.04773,0.632975 4.0625,0.896484 2.48089,6.076606 6.25894,14.092025 8.57813,21.009766 -8.0637,0 -16.1982,0.11265 -24.26953,0 1.62594,-7.110367 5.65285,-13.947123 8.25195,-20.359376 0.74149,-1.018819 1.71315,-1.433126 2.73437,-1.527343 0.21276,-0.01963 0.42702,-0.02513 0.64258,-0.01953 z m 112.44531,1.873046 c 0.55423,0.01997 1.19307,0.136402 1.9336,0.402344 0.44846,0.374521 3.00037,2.450028 1.28711,1.044922 1.85496,2.473278 0.90558,4.475715 -0.26953,5.460938 -1.50678,1.263294 -3.06209,1.60329 -5.06446,0.394531 -1.86963,-1.128632 -2.18809,-5.705686 -1.01367,-6.275391 0.56798,-0.275522 1.46429,-1.087257 3.12695,-1.027344 z M 88.457031,36.016323 c 0.554223,0.01997 1.193068,0.136402 1.933594,0.402344 0.448458,0.374521 3.000368,2.450028 1.287109,1.044922 1.854959,2.473278 0.905581,4.475715 -0.269531,5.460938 -1.50678,1.263294 -3.064038,1.605243 -5.066406,0.396484 -1.869632,-1.128632 -2.188096,-5.707639 -1.013672,-6.277344 0.56798,-0.275522 1.466238,-1.087256 3.128906,-1.027344 z m 165.812499,0.8125 c 1.7908,-0.01111 3.6847,1.009886 4.92383,1.611329 2.01724,7.500488 4.23462,14.668397 5.97266,22.205078 -8.10368,-1.232775 -16.4321,-1.866382 -24.26954,-3.691407 2.83593,-6.688164 7.0546,-12.639252 10.42383,-18.675781 0.83702,-1.063854 1.87474,-1.442554 2.94922,-1.449219 z m -107.99609,0.02539 c 1.42126,-0.06354 2.96892,0.371082 4.06445,0.6875 3.45408,6.200242 7.90833,12.753436 10.86523,19.501953 -7.81522,1.132642 -15.98866,2.291813 -23.84179,3.455078 0.63338,-7.474312 3.8615,-14.704309 5.60547,-21.345703 0.59041,-1.674684 1.88537,-2.235292 3.30664,-2.298828 z M 95.253906,47.211636 c 0.795822,-0.009 1.602902,0.140247 2.363282,0.511719 4.650082,5.843789 9.514352,11.857711 14.171872,17.808594 -8.38022,2.445008 -16.431247,3.849519 -24.378904,7.113281 0.704555,-7.587857 1.751415,-15.641997 2.552735,-22.802735 0.61851,-1.150958 2.903549,-2.603964 5.291015,-2.630859 z M 307.39844,47.55148 c 2.12312,0.05223 4.15674,1.625809 4.67578,2.34375 0.84666,7.343443 1.43339,15.498505 2.66016,23.074219 -7.75415,-2.441121 -15.36753,-5.998749 -23.45508,-7.382813 3.35241,-6.138969 9.28936,-11.828554 13.30273,-16.939453 0.86889,-0.828115 1.85135,-1.119442 2.81641,-1.095703 z"
     style="fill:#ffcc00;fill-opacity:1;stroke:#000000;stroke-width:1px;stroke-linecap:butt;stroke-linejoin:miter;stroke-opacity:1"
     id="path1579" />
  <path
     style="fill:#000000;stroke-width:1"
     d="m 85.950134,92.807001 c -3.17319,-7.1651 -4.58167,-9.81768 -5.10617,-9.61641 -1.04437,0.40076 -4.34861,-6.93879 -3.63689,-8.07845 0.3876,-0.62063 -1.31242,-5.02465 -6.93074,-17.95468 -4.09438,-9.42279 -7.52101,-17.23011 -7.61473,-17.34961 -0.0937,-0.11949 -0.95773,0.0243 -1.92001,0.3197 l -1.74959,0.53697 -3.45806,-7.311319 c -2.57692,-5.448336 -3.2912,-7.415995 -2.80322,-7.72214 1.25717,-0.788713 21.51814,-8.162111 27.45402,-9.991105 6.61257,-2.037498 16.01622,-4.490722 23.059786,-6.0158347 3.35045,-0.725462 4.6391,-0.829724 4.78152,-0.386861 0.10724,0.33344 0.80383,3.4162617 1.54799,6.8507207 0.74415,3.434458 1.46741,6.624675 1.60723,7.089367 0.20108,0.668263 -0.67345,1.134131 -4.18314,2.228397 -2.44055,0.76092 -4.43736,1.614778 -4.43736,1.897455 0,0.282676 1.05783,2.620226 2.35073,5.194556 2.06351,4.1087 2.49269,4.649112 3.51252,4.422932 0.63897,-0.141718 5.58422,-1.0746 10.98943,-2.073075 5.40522,-0.998476 9.90959,-1.897341 10.00972,-1.997471 0.10013,-0.10013 0.3674,-2.683197 0.59392,-5.740151 0.31243,-4.21622 0.2605,-5.558099 -0.21508,-5.558099 -0.34482,0 -2.42346,0.249878 -4.61921,0.555274 -2.19575,0.305401 -4.12465,0.422902 -4.28645,0.261102 -0.16179,-0.161794 -0.91612,-3.672378 -1.67628,-7.8013 l -1.38211,-7.5071327 3.15913,-0.573305 c 14.64349,-2.657428 27.4672,-4.390263 36.72316,-4.962303 2.71895,-0.168039 5.90997,-0.423942 7.09117,-0.56867401 l 2.14763,-0.263147 0.35865,7.17741401 c 0.19726,3.9475767 0.46143,7.5413637 0.58706,7.9861887 0.18578,0.657839 -0.60028,0.911443 -4.21212,1.358927 -2.44229,0.302586 -4.59386,0.703486 -4.78127,0.890893 -0.50427,0.504272 2.57615,9.771035 3.34629,10.066565 0.36286,0.139246 5.62804,0.05306 11.70039,-0.191524 l 11.04062,-0.444694 0.90743,-4.423166 c 1.48144,-7.221184 1.72995,-6.764843 -3.68393,-6.764843 h -4.63896 l -0.31677,-4.032887 c -0.17423,-2.218088 -0.44643,-5.7100267 -0.60488,-7.7598727 l -0.28812,-3.72698601 3.55263,-0.42797 c 4.49395,-0.541364 38.95961,-0.530785 43.00586,0.01322 l 3.02716,0.406978 -0.31869,6.07255901 c -0.17527,3.3399067 -0.43581,6.8335997 -0.57896,7.7637657 l -0.26029,1.691211 h -4.65977 c -5.3922,0 -5.09034,-0.508821 -3.70448,6.24447 l 0.9077,4.423166 5.70326,0.331852 c 3.13679,0.182515 8.32398,0.458224 11.52711,0.612692 l 5.82387,0.280845 1.6453,-4.938632 c 0.90492,-2.716251 1.51514,-5.068803 1.35605,-5.227891 -0.15909,-0.159094 -2.30934,-0.534215 -4.77834,-0.833606 l -4.48908,-0.544346 0.28329,-2.906228 c 0.15579,-1.598429 0.43027,-5.1886507 0.60993,-7.9782687 l 0.32666,-5.07203401 1.90295,0.240392 c 1.04663,0.13221601 4.24464,0.37549501 7.10668,0.54062001 13.5753,0.783233 39.81486,4.858535 39.80355,6.181942 -0.009,1.042217 -2.5938,14.5394677 -2.82967,14.7753367 -0.12642,0.12642 -2.24627,-0.05637 -4.71078,-0.406213 -2.46451,-0.349836 -4.5695,-0.547494 -4.67776,-0.439236 -0.32591,0.325904 0.37405,10.198 0.76829,10.835888 0.31667,0.512396 22.30525,4.453515 22.65266,4.060145 0.40403,-0.457491 4.41338,-8.785788 4.41338,-9.167559 0,-0.251881 -1.99042,-0.99286 -4.42316,-1.64663 -2.43274,-0.653765 -4.42453,-1.331009 -4.42619,-1.504985 -0.002,-0.173976 0.75047,-3.660909 1.67141,-7.748748 l 1.67442,-7.4324337 1.58092,0.318135 c 11.39591,2.2932187 25.57842,6.2356447 42.31938,11.7638537 8.91775,2.944824 9.49425,3.212904 9.16862,4.263573 -1.52361,4.916131 -4.87832,13.597945 -5.23455,13.546735 -0.24247,-0.0349 -1.02628,-0.19992 -1.74179,-0.3668 -1.27054,-0.29633 -1.47664,0.12368 -8.82272,17.98073 -4.94603,12.02292 -7.30713,18.35571 -6.89494,18.4931 0.94418,0.31473 0.77672,1.20888 -0.93237,4.97818 -1.06211,2.34245 -1.78774,3.35111 -2.27599,3.16375 -0.70555,-0.27075 -2.58068,3.75491 -7.11126,15.26697 l -1.68954,4.293069 h -3.53357 c -2.63839,0 -4.60619,-0.39549 -7.76755,-1.56112 -2.32869,-0.85861 -4.45217,-1.561119 -4.71885,-1.561119 -0.26668,0 -0.48487,0.702509 -0.48487,1.561119 0,1.04075 -0.26019,1.56112 -0.78056,1.56112 -0.50267,0 -0.7834,-0.50946 -0.78853,-1.43102 -0.004,-0.78707 -0.2027,-1.738109 -0.44072,-2.113419 -0.36191,-0.57068 -7.80595,-3.22011 -9.04811,-3.22033 -0.21465,-4e-5 -0.39028,1.52202 -0.39028,3.38235 0,3.010249 -0.112,3.382419 -1.01795,3.382419 -0.9025,0 -1.03528,-0.42714 -1.17083,-3.766529 l -0.1529,-3.76654 -3.12223,-0.83323 c -1.71723,-0.45828 -3.88328,-0.98208 -4.81345,-1.164 l -1.69121,-0.33076 v 4.93053 c 0,4.583609 -0.0732,4.930529 -1.04074,4.930529 -0.97053,0 -1.04075,-0.34692 -1.04075,-5.141949 v -5.14195 l -2.21158,-0.55182 c -1.21637,-0.30349 -3.44096,-0.71271 -4.94354,-0.90937 l -2.73195,-0.35756 v 6.05133 c 0,4.975689 -0.1359,6.051319 -0.76454,6.051319 -0.6228,0 -0.79164,-1.17893 -0.91066,-6.358649 l -0.14611,-6.35864 -3.90279,-0.62676 c -6.34609,-1.01915 -5.7241,-1.70578 -5.7241,6.31902 0,6.678109 -0.0514,7.025029 -1.04074,7.025029 -0.99073,0 -1.04075,-0.34692 -1.04075,-7.217999 v -7.218 l -3.25233,-0.34831 c -1.78878,-0.19157 -4.01337,-0.48205 -4.94353,-0.6455 l -1.69122,-0.29719 v 7.8635 c 0,7.516579 -0.0459,7.863499 -1.04074,7.863499 -0.99428,0 -1.04075,-0.34692 -1.04075,-7.770519 0,-8.93118 0.49082,-8.20591 -5.72409,-8.45857 l -3.9028,-0.15865 -0.1433,8.19387 c -0.11909,6.809019 -0.273,8.193869 -0.91065,8.193869 -0.64425,0 -0.76735,-1.33574 -0.76735,-8.325959 v -8.32596 l -3.7727,-0.007 c -2.07499,-0.004 -4.29958,-0.14831 -4.94354,-0.32088 l -1.17084,-0.31377 v 8.64684 c 0,8.299939 -0.0417,8.646859 -1.04074,8.646859 -0.9987,0 -1.04075,-0.34692 -1.04075,-8.586149 v -8.58614 h -4.94354 -4.94354 v 8.58614 c 0,7.221139 -0.12204,8.586149 -0.76766,8.586149 -0.63929,0 -0.79159,-1.4142 -0.91066,-8.456049 l -0.14298,-8.45606 h -4.94354 -4.94354 l -0.14298,8.45606 c -0.11907,7.041849 -0.27137,8.456049 -0.91065,8.456049 -0.64432,0 -0.76767,-1.32387 -0.76767,-8.239229 0,-4.53158 -0.0965,-8.3368 -0.21449,-8.45605 -0.11797,-0.11926 -2.34256,-0.14166 -4.94354,-0.0498 l -4.72905,0.16702 v 8.28903 c 0,7.942109 -0.0436,8.289029 -1.04074,8.289029 -0.99599,0 -1.04075,-0.34692 -1.04075,-8.065769 v -8.06578 h -3.31737 c -1.82456,0 -4.04916,0.14636 -4.94355,0.32523 l -1.62616,0.32524 v 7.74054 c 0,7.393619 -0.0466,7.740539 -1.04075,7.740539 -0.99386,0 -1.04074,-0.34692 -1.04074,-7.701529 v -7.70154 l -4.81345,0.54641 -4.81345,0.54642 -0.14477,7.15512 c -0.11912,5.886639 -0.28056,7.155119 -0.91066,7.155119 -0.63655,0 -0.76587,-1.19016 -0.76587,-7.048609 v -7.04861 l -1.69121,0.27529 c -0.93017,0.15141 -3.08068,0.51327 -4.77892,0.80414 -1.69824,0.29087 -3.16179,0.52885 -3.25233,0.52885 -0.0905,0 -0.16462,2.81001 -0.16462,6.24447 0,5.897549 -0.0578,6.244469 -1.04074,6.244469 -0.98041,0 -1.04075,-0.34692 -1.04075,-5.984279 0,-6.86547 0.52731,-6.40268 -5.72409,-5.02382 l -3.9028,0.86084 -0.14893,5.07363 c -0.11858,4.039359 -0.30422,5.073629 -0.91066,5.073629 -0.61228,0 -0.76171,-0.91878 -0.76171,-4.683349 0,-5.33257 0.29302,-5.09838 -4.87854,-3.89902 -5.27857,1.22419 -5.00854,0.95486 -5.00854,4.99544 0,3.240009 -0.10066,3.586929 -1.04074,3.586929 -0.92181,0 -1.04075,-0.34692 -1.04075,-3.035499 0,-1.66954 -0.12737,-3.16288 -0.28304,-3.31855 -0.15567,-0.15567 -2.32172,0.34352 -4.81345,1.10931 l -4.5304,1.39236 -0.16151,1.926199 c -0.12609,1.50377 -0.38285,1.92618 -1.17084,1.92618 -0.7297,0 -1.00933,-0.36041 -1.00933,-1.30093 0,-0.75962 -0.299,-1.30093 -0.7186,-1.30093 -0.39523,0 -2.27392,0.58542 -4.17486,1.30093 -2.461306,0.92643 -4.463996,1.2968 -6.956896,1.2866 l -3.50064,-0.0143 z m 9.22116,8.684849 c 5.404806,-2.760839 25.519186,-8.748669 38.462236,-11.449799 22.45228,-4.68564 39.09187,-6.2137 67.79802,-6.22607 23.3671,-0.0101 33.13878,0.59504 50.21595,3.10965 19.9611,2.93925 43.13367,8.87275 54.79871,14.031579 1.55757,0.68883 3.1359,1.25242 3.5074,1.25242 0.64562,0 2.13514,-3.477839 1.68311,-3.929859 -0.49113,-0.49114 -11.87089,-4.50989 -17.5101,-6.18369 -20.65724,-6.13134 -43.64279,-10.15654 -66.93663,-11.72184 -10.06946,-0.67665 -41.44741,-0.67665 -51.51688,0 -23.41452,1.57341 -48.36898,5.97138 -67.38824,11.8765 -5.39999,1.67659 -16.691656,5.66218 -17.046236,6.01676 -0.45914,0.45913 1.15386,3.942129 1.82562,3.942129 0.38602,0 1.33419,-0.323 2.10704,-0.71778 z m 0.30586,-7.089659 c 20.089906,-7.54612 46.623236,-13.14596 74.471856,-15.71723 9.98853,-0.92225 53.12016,-0.91349 62.96508,0.0128 18.48413,1.73911 34.56313,4.3956 49.93143,8.24943 9.10026,2.28203 21.67798,6.17268 27.23808,8.42553 l 2.75624,1.11678 0.71687,-1.69318 c 0.64442,-1.52207 0.61917,-1.79838 -0.24981,-2.73394 -0.53167,-0.57241 -1.20816,-1.67817 -1.50331,-2.45724 -0.66624,-1.75862 -2.83101,-2.43731 -4.10692,-1.28759 -1.6109,1.45158 -3.35956,1.47825 -7.87566,0.12012 -5.4052,-1.6255 -6.49254,-2.31637 -7.12213,-4.52519 -0.40384,-1.41682 -0.78492,-1.76583 -2.06645,-1.89252 -1.0655,-0.10534 -1.88183,0.18779 -2.53601,0.91065 -1.18552,1.30998 -3.53733,1.3798 -8.44661,0.25075 -4.28399,-0.98524 -5.79719,-1.89553 -6.49936,-3.90978 -0.65633,-1.88276 -2.89775,-2.66666 -3.67149,-1.28405 -0.2779,0.49657 -1.30781,1.23818 -2.28869,1.64802 -1.56208,0.65268 -2.37894,0.64215 -6.58161,-0.0848 -4.87448,-0.8432 -6.75447,-1.84605 -7.42578,-3.96117 -0.1671,-0.52648 -0.87315,-1.10013 -1.56902,-1.27478 -0.98619,-0.24752 -1.6142,0.056 -2.84778,1.3766 l -1.58258,1.69416 -5.3134,-0.34209 c -5.59507,-0.36022 -7.38484,-1.06971 -8.41666,-3.33649 -0.27576,-0.60582 -1.06803,-1.24371 -1.76059,-1.41753 -0.99499,-0.24973 -1.56091,0.0445 -2.69712,1.4025 l -1.43791,1.71854 -5.48536,-0.0248 c -6.04529,-0.0274 -7.46119,-0.48658 -8.87384,-2.87799 -1.20709,-2.04344 -3.13612,-2.05844 -4.18376,-0.0325 -1.14981,2.22348 -3.14357,2.80424 -8.91307,2.59627 -4.94829,-0.17836 -5.05283,-0.20875 -6.44124,-1.87251 -1.81931,-2.18013 -3.60053,-2.23402 -5.1373,-0.15542 -1.42151,1.92269 -3.84598,2.62053 -9.11746,2.62428 -3.83342,0.003 -4.16472,-0.0889 -5.63404,-1.55821 -2.08702,-2.08702 -4.04181,-2.08403 -5.23226,0.008 -1.1795,2.07279 -2.82805,2.633 -8.73905,2.96971 l -4.94484,0.28168 -1.55982,-1.58677 c -1.97341,-2.00753 -3.94201,-1.81902 -4.80219,0.45986 -0.7137,1.8908 -2.64051,2.72504 -8.2612,3.57676 -3.70219,0.56101 -4.41854,0.53572 -5.85419,-0.20669 -0.89971,-0.46529 -1.63583,-1.0741 -1.63583,-1.35296 0,-0.27886 -0.77254,-0.50701 -1.71676,-0.50701 -1.4896,0 -1.8039,0.24096 -2.37524,1.82096 -0.81108,2.24302 -1.42777,2.58148 -7.12317,3.90947 -4.79359,1.11772 -6.05407,1.0191 -7.84065,-0.61346 -1.5467,-1.41337 -3.67037,-0.83202 -4.0996,1.12226 -0.46824,2.13188 -1.72489,3.01639 -6.30804,4.44001 -4.999296,1.55288 -6.937956,1.60765 -8.670336,0.24496 -1.84518,-1.45142 -4.01638,-0.6751 -4.01638,1.43608 0,0.80202 -0.37344,1.99137 -0.82987,2.64302 -0.69802,0.99656 -0.70633,3.73011 -0.0113,3.73011 0.0988,0 2.67561,-0.9375 5.72617,-2.08334 z m -6.7638,-3.93864 c 0.48642,-1.2676 -1.11783,-3.83066 -2.41423,-3.85713 -0.57967,-0.0118 -0.47942,0.69233 0.39726,2.79054 0.84547,2.0235 1.51409,2.37707 2.01697,1.06659 z M 316.9406,86.208181 c 0.0308,-1.46541 -2.66125,-0.22441 -3.2568,1.50138 -0.16151,0.468 0.0864,1.39356 0.55099,2.0568 l 0.84464,1.20589 0.92376,-2.0568 c 0.50807,-1.13125 0.9299,-2.34952 0.93741,-2.70727 z m -214.56474,0.33821 c 5.18328,-1.58784 6.47749,-3.08597 4.52742,-5.24078 -1.13045,-1.24914 -2.73854,-1.19682 -7.459436,0.24269 -3.25443,0.99234 -3.97842,1.41855 -4.38799,2.58316 -0.38596,1.09749 -0.28673,1.6199 0.46562,2.45124 1.20641,1.33306 2.40499,1.32672 6.854386,-0.0363 z m 204.56122,-0.33606 c 1.66216,-2.17597 0.0608,-3.72584 -5.47967,-5.30341 -4.0068,-1.14089 -4.32625,-1.16094 -5.565,-0.34928 -1.48005,0.96976 -1.75043,2.94947 -0.54002,3.95402 1.27224,1.05587 8.23224,3.0841 9.63329,2.80726 0.71551,-0.14138 1.59364,-0.64024 1.9514,-1.10859 z M 91.667144,86.059781 c 0.5536,-0.29628 1.00654,-0.98082 1.00654,-1.5212 0,-2.13437 2.36611,-3.95671 6.66818,-5.13571 5.111496,-1.40082 6.874256,-1.41927 8.564626,-0.0896 2.12932,1.67493 3.3138,1.35296 4.44699,-1.2088 1.1081,-2.50504 1.95181,-2.9791 7.54196,-4.23762 4.67022,-1.05142 5.08505,-1.02297 7.33351,0.50288 2.1503,1.45923 4.47268,1.73369 4.47268,0.52858 0,-0.42479 0.64396,-1.48911 1.43102,-2.36516 1.21935,-1.3572 2.08531,-1.70809 5.85419,-2.37216 5.2135,-0.9186 7.39229,-0.64382 8.76859,1.10585 1.441,1.83195 3.47318,1.70788 4.49838,-0.27463 1.19656,-2.31389 2.63964,-2.98317 7.75054,-3.59454 3.93202,-0.47036 4.88519,-0.43025 6.35544,0.26743 0.95131,0.45143 1.87113,1.26651 2.04404,1.81131 0.21164,0.6668 0.79632,0.99053 1.78903,0.99053 1.12821,0 1.72226,-0.41966 2.5286,-1.7863 1.31593,-2.23034 3.45794,-2.8902 9.39486,-2.89415 4.31223,-0.003 4.38122,0.0177 6.07944,1.8184 1.99087,2.11094 4.11946,2.451 4.66104,0.74465 0.66148,-2.08415 3.24245,-3.08226 7.97574,-3.08438 4.8997,-0.002 7.40089,0.86502 8.32134,2.88518 0.86619,1.90106 2.89473,1.67946 4.99309,-0.54545 l 1.71771,-1.82131 h 4.80346 c 5.32955,0 7.83237,0.80672 8.74981,2.82027 0.30297,0.66495 1.19349,1.37029 1.97892,1.56742 1.13738,0.28546 1.64901,0.0972 2.51339,-0.92487 1.90344,-2.25065 2.93438,-2.48804 8.20976,-1.89044 5.15045,0.58345 6.94584,1.37133 7.711,3.38384 0.2749,0.72306 1.07481,1.40879 1.87872,1.61056 1.13351,0.2845 1.58851,0.0926 2.39046,-1.00833 1.34888,-1.85171 3.54258,-2.14892 8.96033,-1.21399 4.63999,0.80072 6.23013,1.64946 6.85686,3.65985 0.69956,2.24402 2.66702,2.49401 4.57919,0.58184 1.60447,-1.60447 3.7426,-1.67488 9.04439,-0.29785 4.29328,1.1151 5.19008,1.69922 6.15579,4.00949 0.88503,2.11722 2.89534,2.69766 4.33993,1.25306 0.56949,-0.56949 1.60208,-1.17765 2.29463,-1.35147 1.18022,-0.29622 7.91198,1.29765 10.54219,2.49605 1.09381,0.49837 2.79552,3.22051 2.79552,4.47184 0,1.17256 2.16297,1.23214 3.37554,0.093 0.66304,-0.62288 2.17615,-1.26271 3.36249,-1.42183 1.61572,-0.21671 2.11685,-0.4998 1.99708,-1.12818 -0.21516,-1.12888 -16.57492,-6.60504 -28.83147,-9.65088 -30.94445,-7.6899 -60.02034,-10.68558 -96.98745,-9.99258 -27.97134,0.52436 -48.29286,2.82225 -72.59197,8.20845 -11.96195,2.65151 -34.391936,9.43812 -35.827316,10.84021 -0.24308,0.23745 -0.28584,0.92363 -0.095,1.52485 0.24451,0.77037 0.78051,1.09313 1.81535,1.09313 0.80762,0 2.02122,0.46054 2.69689,1.02343 1.43136,1.19244 1.73182,1.24304 3.084,0.51938 z m 29.752056,-4.6149 c 2.2153,-0.52528 4.38135,-1.24845 4.81345,-1.60706 1.10813,-0.91966 0.97522,-2.79356 -0.27861,-3.92826 -1.03135,-0.93336 -1.20423,-0.93427 -5.594,-0.0296 -6.16288,1.27001 -7.82695,2.99816 -5.31033,5.51478 1.2524,1.2524 1.29763,1.25276 6.36949,0.0502 z m 166.02723,-0.62007 c 0.28612,-0.45657 0.36628,-1.44341 0.17815,-2.19299 -0.27371,-1.09056 -0.87318,-1.52059 -3.0003,-2.15228 -4.75847,-1.41311 -7.63055,-1.58847 -8.79258,-0.53685 -2.20351,1.99414 -0.68849,4.09275 3.74967,5.19407 3.64261,0.9039 7.19132,0.76315 7.86506,-0.31195 z M 88.170734,78.051361 c 22.821576,-8.27252 51.482146,-13.99301 82.819026,-16.53022 10.81853,-0.87593 49.80495,-0.87322 60.36321,0.004 32.20984,2.67672 60.92301,8.46432 83.4632,16.82334 2.97403,1.10292 5.67846,2.00531 6.00984,2.00531 0.5551,0 2.17336,-3.53521 1.77001,-3.8667 -0.53738,-0.44165 -14.66775,-5.13284 -20.41893,-6.77895 -13.3379,-3.81759 -33.88378,-7.96417 -49.09861,-9.90912 -15.54754,-1.98746 -23.60354,-2.45735 -46.52364,-2.71358 -36.70673,-0.41032 -57.22175,1.49454 -88.63671,8.23013 -16.20674,3.47484 -38.253756,10.23926 -38.253756,11.73695 0,1.0257 1.15867,3.3013 1.68093,3.3013 0.26021,0 3.33166,-1.03618 6.82543,-2.30262 z m 52.537736,-0.34495 c 2.05826,-0.31134 4.26916,-0.90216 4.91312,-1.31292 2.17141,-1.38508 1.00807,-4.9214 -1.59828,-4.85846 -0.62352,0.015 -2.87262,0.33833 -4.998,0.7184 -5.04125,0.90149 -6.52279,2.65698 -4.20145,4.97832 1.21692,1.21692 1.06089,1.20433 5.88461,0.47466 z m 126.17423,-0.24398 c 1.18746,-0.83173 1.49296,-2.53633 0.6836,-3.81434 -0.46072,-0.72751 -6.29614,-2.08587 -9.11298,-2.12131 -2.75307,-0.0347 -4.24132,2.30599 -2.75696,4.33597 0.55565,0.7599 5.30342,1.93815 9.49513,2.3564 0.29408,0.0293 1.05512,-0.31119 1.69121,-0.75672 z m -100.70639,-3.74806 c 1.27061,-1.12586 1.14307,-3.07431 -0.26019,-3.97486 -0.93102,-0.59749 -2.02351,-0.66173 -5.33382,-0.31365 -5.14504,0.54102 -5.91219,0.83281 -6.30508,2.39821 -0.41295,1.64534 0.0558,2.74133 1.38241,3.23207 1.6253,0.60124 9.45062,-0.39715 10.51668,-1.34177 z m 81.13714,0.57468 c 2.59108,-2.34489 0.27486,-4.44175 -5.46005,-4.94294 -5.03792,-0.44028 -6.59764,0.18931 -6.59764,2.6632 0,1.81671 0.56139,2.22783 3.64261,2.66764 4.53423,0.64722 7.41819,0.51428 8.41508,-0.3879 z M 83.130584,72.975421 c 1.67114,-0.62375 3.09231,-1.16547 3.15815,-1.20382 0.0658,-0.0383 0.61092,-4.9724 1.21129,-10.96456 0.71792,-7.16544 1.35878,-11.31051 1.87217,-12.10915 1.47306,-2.29155 5.92116,-3.36946 8.33399,-2.01958 0.62134,0.34761 3.994286,4.3787 7.495416,8.95798 3.50113,4.57928 6.44116,8.41795 6.53339,8.53038 0.19258,0.23477 5.97638,-0.87132 6.31219,-1.20714 0.12221,-0.1222 -1.05768,-2.6395 -2.62197,-5.59402 -1.56429,-2.9545 -5.59835,-10.75768 -8.96457,-17.34039 -3.36623,-6.582716 -6.18405,-12.043979 -6.26183,-12.136147 -0.210546,-0.249483 -34.761616,10.796677 -35.149446,11.237457 -0.27068,0.30764 14.52083,34.98308 14.92275,34.98308 0.066,0 1.48732,-0.51034 3.15847,-1.13409 z m 2.64815,-28.56883 c -1.48942,-0.8675 -2.60004,-3.5345 -2.24965,-5.40221 0.34307,-1.828746 1.96826,-3.599428 3.81895,-4.160837 1.58825,-0.481802 4.62123,0.579898 5.58422,1.954764 2.28644,3.264343 -0.27956,8.186083 -4.25143,8.154523 -1.09528,-0.009 -2.40122,-0.25451 -2.90209,-0.54624 z m 5.22976,-2.14387 c 0.34344,-0.34345 0.62445,-1.3918 0.62445,-2.32968 0,-2.238464 -1.99939,-3.703131 -4.06395,-2.977065 -3.27563,1.151975 -2.38137,5.931185 1.10982,5.931185 0.93788,0 1.98623,-0.281 2.32968,-0.62444 z m 238.486086,13.9364 c 3.99827,-9.69532 7.19279,-17.85824 7.09893,-18.13981 -0.15814,-0.474408 -34.17849,-10.503121 -34.45904,-10.15802 -0.0694,0.08539 -4.14679,8.037481 -9.06082,17.67131 l -8.9346,17.51605 2.64334,0.56689 c 1.45383,0.31179 2.92614,0.5669 3.27179,0.5669 0.34564,0 3.31261,-3.53594 6.59325,-7.85765 3.28063,-4.32171 6.5304,-8.30256 7.2217,-8.84634 2.68257,-2.11011 8.11076,-0.67601 9.32,2.46229 0.31631,0.82092 0.94975,5.47342 1.40765,10.33891 1.1486,12.20479 0.89358,11.41476 4.07802,12.63306 1.48644,0.56867 2.89332,0.99802 3.12641,0.95411 0.23309,-0.0439 3.69511,-8.01237 7.69337,-17.7077 z M 309.629,43.447571 c -3.21731,-3.21732 -1.06474,-8.886365 3.37421,-8.886365 1.29701,0 2.34538,0.439824 3.49342,1.465598 1.366,1.220523 1.64028,1.8456 1.64028,3.738127 0,1.89253 -0.27428,2.51761 -1.64028,3.73813 -2.2613,2.02047 -4.81228,1.99985 -6.86763,-0.0555 z m 5.76413,-1.60115 c 2.6143,-2.61431 -0.29925,-6.254342 -3.9001,-4.872565 -1.9352,0.742603 -1.96997,4.236335 -0.0549,5.515065 1.05831,0.70665 2.90601,0.40648 3.95499,-0.6425 z m -130.09779,31.27821 c 1.85282,-0.51566 2.57517,-2.81597 1.31985,-4.20308 -0.82005,-0.90615 -1.59468,-1.05651 -5.44303,-1.05651 -5.22131,0 -6.79998,0.7257 -6.79998,3.12589 0,0.88507 0.37538,1.72439 0.91065,2.03616 1.01447,0.59087 7.99557,0.65888 10.01251,0.0975 z m 41.72358,-0.3967 c 1.29384,-1.17091 1.19781,-3.07033 -0.2049,-4.05282 -1.44709,-1.01358 -10.25477,-1.15918 -11.22834,-0.18562 -0.81772,0.81772 -0.8016,3.26456 0.026,3.94914 1.57166,1.30003 10.05271,1.51512 11.40723,0.2893 z m -20.49943,-0.46922 c 1.43564,-1.00557 1.48057,-2.50851 0.11579,-3.87329 -0.8731,-0.87311 -1.73458,-1.04075 -5.34813,-1.04075 -4.81614,0 -6.62044,0.77792 -6.62044,2.85439 0,2.29947 1.22521,2.86971 6.16585,2.86971 3.25816,0 4.85518,-0.22749 5.68693,-0.81006 z M 99.767914,67.748191 c 5.256736,-1.48404 9.557696,-2.86262 9.557696,-3.0635 0,-0.20088 -2.75357,-3.95812 -6.11904,-8.34942 -5.060276,-6.6027 -6.375536,-8.01362 -7.601346,-8.15425 -1.81163,-0.20783 -4.30969,0.76399 -4.72135,1.83676 -0.22165,0.5776 -2.37317,19.51868 -2.37317,20.89236 0,0.10367 0.3824,0.0417 0.84976,-0.1376 0.46737,-0.17934 5.15072,-1.5403 10.40745,-3.02435 z m 213.690596,1.88979 c -0.0623,-0.54581 -0.47999,-4.85614 -0.92815,-9.57852 -0.44815,-4.72238 -0.94407,-9.00935 -1.10204,-9.52661 -0.34453,-1.12809 -2.23632,-1.92159 -4.58127,-1.92159 -1.59387,0 -2.12153,0.53235 -7.55872,7.62582 -3.21487,4.1942 -5.9536,7.90822 -6.08605,8.2534 -0.16027,0.41766 1.81373,1.18364 5.90138,2.28995 3.37821,0.9143 7.78138,2.21536 9.78481,2.89124 4.10429,1.38464 4.73146,1.38001 4.57004,-0.0337 z m -190.68785,-7.78059 c 0.18957,-0.1666 -0.94192,-6.00262 -1.27131,-6.5572 -0.19078,-0.32122 -3.70813,0.28318 -4.13558,0.71063 -0.11294,0.11294 0.54957,1.6512 1.47225,3.41835 1.39284,2.66761 1.85426,3.15948 2.71834,2.89774 0.57241,-0.17339 1.11975,-0.38468 1.2163,-0.46952 z m 160.98805,-2.56178 c 0.91284,-1.85113 1.55461,-3.45772 1.42617,-3.57019 -0.12845,-0.11247 -1.19914,-0.35219 -2.37932,-0.53272 l -2.14577,-0.32822 -0.31216,1.94702 c -0.17169,1.07086 -0.46034,2.68611 -0.64147,3.58944 -0.32405,1.61616 -0.0824,1.88224 1.99771,2.20002 0.21732,0.0332 1.142,-1.4542 2.05484,-3.30535 z m -156.70623,1.78629 c 0.83579,-0.4473 1.00654,-1.10938 1.00654,-3.9028 0,-1.85026 -0.2049,-3.36411 -0.45533,-3.36411 -0.25042,0 -1.1871,0.14635 -2.08149,0.32523 -1.83361,0.36672 -1.93019,0.80777 -1.06267,4.85288 0.58552,2.73019 0.90844,2.99032 2.59295,2.0888 z m 150.51989,-0.63216 c 0.15358,-0.64396 0.43606,-2.25868 0.62772,-3.58826 l 0.34846,-2.41743 -2.16749,-0.3662 c -1.19212,-0.2014 -2.21758,-0.2844 -2.27881,-0.18443 -0.0612,0.1 -0.0261,1.74895 0.0781,3.66441 0.18992,3.49112 0.37455,3.78451 2.51866,4.00238 0.32673,0.0332 0.71971,-0.46651 0.87331,-1.11047 z m -142.10965,-0.71987 c 0.96577,-0.27237 0.95873,-0.25063 3.77332,-11.63898 1.02566,-4.14997 2.1276,-8.2075 2.44876,-9.01673 0.82425,-2.076862 2.50928,-2.999061 5.60886,-3.06966 3.59008,-0.08178 4.10123,0.494973 10.01984,11.30583 l 4.8431,8.84633 3.11565,-0.18524 c 1.7136,-0.10188 3.21774,-0.28204 3.34254,-0.40035 0.12479,-0.11831 -2.56814,-8.52134 -5.98429,-18.673393 l -6.21118,-18.458279 -1.56112,0.03055 c -0.85861,0.01681 -6.24447,0.658563 -11.96856,1.426154 l -10.40745,1.395623 -0.37449,5.724098 c -0.20598,3.148253 -0.7336,10.992867 -1.17251,17.432477 -0.4389,6.43961 -0.79726,12.72418 -0.79634,13.96571 l 0.002,2.25732 2.21158,-0.34394 c 1.21637,-0.18916 2.61615,-0.45804 3.11063,-0.5975 z m 6.5363,-27.717273 c -1.39656,-1.247822 -1.68759,-1.8852 -1.68759,-3.695863 0,-1.810662 0.29103,-2.448035 1.68759,-3.695857 2.31012,-2.064088 4.84246,-2.059249 6.91493,0.01322 3.21732,3.217317 1.06474,8.886359 -3.37421,8.886359 -1.30931,0 -2.34837,-0.442498 -3.54072,-1.507862 z m 5.5368,-1.391356 c 0.44975,-0.449748 0.81773,-1.486778 0.81773,-2.304507 0,-1.898834 -1.22641,-3.122235 -3.1299,-3.122235 -1.54804,0 -3.11457,1.570386 -3.11457,3.122235 0,2.606104 3.59746,4.133793 5.42674,2.304507 z M 272.2066,59.929361 c 0.009,-1.31498 -2.11902,-33.519203 -2.38293,-36.064017 l -0.27275,-2.630087 -11.70317,-1.470021 c -6.43674,-0.808513 -11.79728,-1.375912 -11.91231,-1.260889 -0.34458,0.34458 -12.33098,36.957414 -12.14876,37.108774 0.0925,0.0768 1.50682,0.27137 3.14297,0.43232 l 2.97481,0.29264 5.03136,-9.13763 c 2.76726,-5.0257 5.46798,-9.574241 6.00162,-10.107877 0.68555,-0.68556 1.7265,-0.970251 3.54762,-0.970251 2.91953,0 4.74874,0.673857 5.62111,2.070748 0.32834,0.52576 1.76834,5.45471 3.19999,10.95322 1.43164,5.49851 2.72842,10.12272 2.88173,10.27602 0.29395,0.29395 3.55891,0.99617 5.10367,1.09768 0.50086,0.0329 0.91263,-0.23287 0.91504,-0.59063 z M 253.35874,32.012598 c -1.39655,-1.247822 -1.68759,-1.8852 -1.68759,-3.695863 0,-1.827491 0.28886,-2.446094 1.7532,-3.754477 1.52086,-1.358885 2.03639,-1.528495 3.89015,-1.279851 4.3962,0.58965 6.09177,5.584373 2.95917,8.716968 -2.07246,2.072467 -4.60481,2.077312 -6.91493,0.01322 z m 5.5368,-1.391356 c 0.44976,-0.449748 0.81773,-1.486778 0.81773,-2.304507 0,-1.898834 -1.2264,-3.122235 -3.12989,-3.122235 -1.54805,0 -3.11458,1.570386 -3.11458,3.122235 0,2.606104 3.59746,4.133793 5.42674,2.304507 z M 151.64606,57.500561 c 4.24363,-0.54485 7.81456,-1.0895 7.9354,-1.21034 0.42787,-0.42787 -9.30422,-17.61387 -10.26581,-18.1285 -1.26701,-0.678077 -4.32991,-0.0951 -5.27611,1.00428 -0.4067,0.47252 -1.80636,5.16249 -3.11035,10.42217 l -2.37092,9.56304 2.68606,-0.33001 c 1.47733,-0.1815 6.15811,-0.77579 10.40173,-1.32064 z m 111.70982,0.7153 c 0,-1.69284 -4.69003,-18.67852 -5.32053,-19.26912 -1.2468,-1.167921 -4.32374,-1.370674 -5.50897,-0.36301 -0.59582,0.50656 -3.11868,4.63385 -5.60636,9.17176 -3.30631,6.03123 -4.34738,8.35932 -3.87003,8.65434 0.35916,0.22197 2.44053,0.56107 4.62527,0.75355 2.18473,0.19248 5.96266,0.66182 8.39541,1.04298 6.18396,0.96892 7.28521,0.97036 7.28521,0.01 z m -89.50407,-6.48236 v -3.64261 h -2.05078 c -1.12793,0 -2.21223,0.26122 -2.40955,0.58049 -0.19732,0.31927 0.0815,1.95844 0.61965,3.64261 0.88075,2.75645 1.12127,3.06211 2.40955,3.06211 1.42496,0 1.43113,-0.0157 1.43113,-3.6426 z m 5.64587,2.73195 c 0.26333,-0.50086 0.64479,-2.14003 0.8477,-3.6426 l 0.36893,-2.73196 h -2.3905 -2.39051 v 3.64261 3.6426 h 1.54281 c 0.94004,0 1.72986,-0.35578 2.02157,-0.91065 z m 46.80431,-2.81248 0.15274,-3.46295 -2.13921,-0.36141 c -1.17656,-0.19878 -2.25677,-0.24385 -2.40046,-0.10016 -0.42809,0.42809 0.97105,6.8339 1.5858,7.26036 0.31179,0.21629 1.03523,0.33337 1.60764,0.26018 0.90513,-0.11573 1.06065,-0.58431 1.19349,-3.59602 z m 6.18896,0.37059 c 0.5995,-1.8439 0.95947,-3.48307 0.79993,-3.6426 -0.15954,-0.15954 -1.30479,-0.29007 -2.54501,-0.29007 h -2.25495 v 3.64261 c 0,3.6414 4.9e-4,3.6426 1.45502,3.6426 1.32976,0 1.54886,-0.28861 2.54501,-3.35254 z m -40.45114,-7.09569 c 4.40248,-11.301483 4.88195,-11.927783 9.13156,-11.927783 4.26768,0 4.75712,0.63832 9.15308,11.937413 l 3.85623,9.91178 3.25233,0.003 c 2.269,0.002 3.24529,-0.19344 3.22906,-0.64724 -0.0128,-0.35776 -1.71051,-8.96342 -3.7727,-19.12369 l -3.74944,-18.473097 -11.67216,-0.140297 c -6.41968,-0.07717 -11.84262,0.03991 -12.05097,0.260186 -0.20836,0.220268 -1.93212,8.479267 -3.83058,18.353335 -1.89846,9.874073 -3.57487,18.362643 -3.72535,18.863503 -0.24041,0.80017 0.12586,0.91065 3.01897,0.91065 h 3.29258 z m 5.70911,-16.050731 c -3.21732,-3.217317 -1.06475,-8.886364 3.37421,-8.886364 1.31038,0 2.34864,0.442748 3.54502,1.511718 1.43939,1.28609 1.68317,1.844934 1.63337,3.744314 -0.0473,1.805859 -0.37074,2.511552 -1.69191,3.692007 -2.25415,2.014086 -4.80789,1.991127 -6.86069,-0.06167 z m 5.76412,-1.60115 c 1.25025,-1.250252 1.32095,-2.490612 0.23068,-4.047191 -0.96198,-1.373425 -3.40292,-1.552558 -4.61667,-0.338804 -0.44976,0.449752 -0.81773,1.486776 -0.81773,2.304505 0,2.912593 3.1233,4.161914 5.20372,2.08149 z m 8.32596,27.297411 c 0,-1.24468 -7.49666,-18.941237 -8.12628,-19.182846 -1.16891,-0.448551 -4.51108,-0.363938 -5.29612,0.134079 -0.52745,0.33461 -7.91287,18.164747 -7.91287,19.103537 0,0.12516 4.80044,0.22756 10.66764,0.22756 5.8672,0 10.66763,-0.12705 10.66763,-0.28233 z m -92.37927,-1.26277 c 1.48967,-0.34537 2.18388,-0.3055 2.48129,0.1425 0.30314,0.45664 0.54836,0.39294 0.92221,-0.23956 0.30565,-0.51712 1.53315,-1.00242 3.07021,-1.21382 l 2.56096,-0.35222 0.17259,-3.3905 c 0.0949,-1.86478 0.0319,-3.47688 -0.14021,-3.58245 -0.17205,-0.10558 -1.79483,0.0837 -3.60619,0.42051 -2.56473,0.47697 -3.33982,0.47317 -3.50326,-0.0172 -0.11543,-0.3463 -0.44959,-0.62964 -0.74256,-0.62964 -0.29298,0 -0.40296,0.33807 -0.2444,0.75126 0.22336,0.58207 -0.5844,0.89789 -3.58694,1.4024 -2.13137,0.35814 -3.87521,0.83447 -3.87521,1.05853 0,0.22405 0.6342,1.70047 1.40933,3.28094 1.48909,3.03619 1.727,3.1471 5.08218,2.36922 z m 168.50544,-2.36922 c 0.77513,-1.58047 1.40933,-3.06943 1.40933,-3.30881 0,-0.23938 -1.76784,-0.73763 -3.92853,-1.10723 -2.90562,-0.49702 -3.85833,-0.85493 -3.65893,-1.37454 0.14827,-0.3864 0.0623,-0.70255 -0.19109,-0.70255 -0.25338,0 -0.54952,0.26653 -0.6581,0.59227 -0.14707,0.4412 -1.10285,0.4346 -3.74686,-0.0258 -1.9522,-0.33995 -3.65974,-0.50781 -3.79454,-0.37301 -0.1348,0.1348 -0.0837,1.75213 0.11355,3.59405 l 0.35864,3.34894 5.54135,1.05173 c 3.04774,0.57846 5.90236,1.08027 6.34359,1.11515 0.48604,0.0384 1.35776,-1.06922 2.21159,-2.81016 z m -107.03188,-5.19111 c 0.31726,-0.0947 0.73825,-1.18737 0.93554,-2.42826 0.19729,-1.2409 0.49825,-2.81601 0.6688,-3.50025 l 0.3101,-1.24407 -3.97759,0.25527 c -3.1181,0.2001 -3.97759,0.10349 -3.97759,-0.44714 0,-0.38633 -0.23416,-0.70241 -0.52037,-0.70241 -0.2862,0 -0.52037,0.35125 -0.52037,0.78056 0,0.62445 -0.78056,0.78056 -3.9028,0.78056 -2.96355,0 -3.90279,0.1721 -3.90279,0.71513 0,0.59882 0.59903,2.55551 1.8068,5.90178 0.16976,0.47035 1.80267,0.55929 6.36589,0.34676 3.37566,-0.15722 6.39713,-0.36329 6.71438,-0.45793 z m 54.37801,-2.11453 c 1.5288,-4.34345 1.50018,-4.39121 -2.63154,-4.39121 -2.87801,0 -3.73449,-0.18601 -4.19318,-0.91065 -0.4128,-0.652141 -0.65403,-0.726002 -0.84978,-0.26019 -0.18126,0.43133 -1.4859,0.65046 -3.87259,0.65046 -3.38931,0 -3.59852,0.0683 -3.58683,1.17084 0.0159,1.49927 0.83715,5.05592 1.26662,5.48538 0.29287,0.29288 11.25521,1.08228 12.4766,0.89845 0.26739,-0.0402 0.8932,-1.22963 1.3907,-2.64308 z m -119.17684,1.06387 c 3.49781,-0.50393 3.55384,-0.5834 2.9289,-4.15415 -0.30054,-1.71723 -0.59493,-3.190676 -0.65419,-3.274326 -0.24903,-0.35148 -9.60393,1.623916 -9.60393,2.027986 0,0.2435 0.63994,1.74753 1.42209,3.34231 1.15229,2.34948 1.62123,2.85237 2.47177,2.65073 0.57732,-0.13687 2.12323,-0.40351 3.43536,-0.59255 z m 176.23219,-2.30219 c 0.93016,-1.69359 1.69121,-3.28307 1.69121,-3.53219 0,-0.39639 -7.25097,-1.702193 -9.45203,-1.702193 -0.59219,0 -0.95587,0.879983 -1.34412,3.252333 -0.29274,1.78878 -0.44985,3.34217 -0.34913,3.45198 0.16275,0.17744 5.91234,1.41067 7.24248,1.55345 0.28621,0.0307 1.28142,-1.3298 2.21159,-3.02338 z m -166.28557,0.43191 2.87899,-0.57819 0.31953,-3.42184 c 0.17575,-1.882009 0.24325,-3.498125 0.15,-3.59137 -0.21665,-0.216657 -8.20816,1.304022 -8.52665,1.622511 -0.13131,0.131305 -0.074,1.658119 0.12734,3.392909 0.41255,3.5546 0.34625,3.52079 5.05079,2.57598 z m 155.13967,-2.4434 c 0.2403,-1.51877 0.31846,-3.070096 0.17368,-3.447397 -0.15104,-0.393589 -1.55626,-0.841099 -3.29671,-1.049872 -1.6684,-0.200136 -3.56034,-0.488994 -4.2043,-0.641911 -1.09235,-0.25939 -1.17036,-0.108555 -1.16373,2.250158 0.0118,4.180372 0.31667,4.712352 3.03331,5.292082 4.46253,0.95231 4.96162,0.73256 5.45775,-2.40306 z M 84.363294,30.470334 c 12.74468,-4.046526 23.457856,-7.357323 23.807046,-7.357323 0.87338,0 0.7835,-1.048124 -0.58016,-6.764843 l -1.17923,-4.943539 -1.795,0.139751 c -2.79551,0.21764 -18.236686,4.170713 -25.732136,6.587651 -9.92516,3.2004 -23.25364,8.27104 -23.51223,8.944912 -0.33996,0.885929 4.60603,11.203818 5.25459,10.961658 0.31074,-0.11602 10.99244,-3.521736 23.73712,-7.568267 z m 88.968146,5.423322 c 0,-0.652953 -0.14467,-2.242655 -0.32149,-3.532669 l -0.32148,-2.34548 -4.75216,0.258854 c -2.61368,0.142369 -4.83455,0.330395 -4.93525,0.417833 -0.23869,0.207233 1.49979,5.533746 2.02706,6.210688 0.22909,0.294135 2.12221,0.445939 4.35431,0.34917 3.71444,-0.161034 3.94901,-0.241723 3.94901,-1.358396 z m 8.35724,0.74904 c 1.52612,0 1.51971,0.01311 2.35051,-4.813446 l 0.33589,-1.951397 h -4.80935 -4.80935 l 0.32255,1.951397 c 0.1774,1.073268 0.32512,2.744273 0.32827,3.713342 l 0.006,1.76194 2.4143,-0.330916 c 1.32788,-0.182005 3.06553,-0.33092 3.86146,-0.33092 z m 56.84096,-2.792137 c 1.26367,-3.79656 1.0793,-3.953962 -4.64421,-3.964734 -4.8052,-0.0091 -4.85338,0.03872 -4.86703,4.826523 l -0.007,2.492813 4.25119,-0.151137 4.25118,-0.151142 z m -11.48931,-0.460192 c 0.11163,-1.78878 0.11861,-3.427953 0.0155,-3.642607 -0.17496,-0.364261 -8.97236,-0.585523 -8.97236,-0.225665 0,0.627642 1.18863,6.417307 1.38175,6.730321 0.13243,0.214654 1.84534,0.39028 3.80646,0.39028 h 3.56568 z m 116.16993,-2.250174 c 1.06721,-3.026372 1.86018,-5.578674 1.76215,-5.671779 -0.42418,-0.402872 -23.74713,-7.708137 -30.62003,-9.590871 -9.09815,-2.492308 -18.08516,-4.51406 -18.44888,-4.150335 -0.49426,0.49426 -2.54728,10.857625 -2.21647,11.188436 0.32159,0.321585 45.86121,13.569936 47.00332,13.674166 0.31874,0.02909 1.4527,-2.423239 2.51991,-5.449617 z m -197.19839,-13.690547 19.25379,-2.44368 0.13999,-2.841411 c 0.077,-1.562778 -0.0423,-4.2464217 -0.26509,-5.9636507 l -0.40509,-3.122236 -2.59695,0.141334 c -13.17982,0.717281 -41.88509,4.670254 -41.88509,5.767949 0,0.185487 0.46834,2.7950817 1.04075,5.7990987 0.57241,3.004017 1.04074,5.516376 1.04074,5.58302 0,0.06664 0.99522,-0.01337 2.21159,-0.177791 1.21637,-0.164427 10.87578,-1.39861 21.46536,-2.742633 z M 280.7807,15.17733 c 0.51254,-2.933601 1.02532,-5.5838417 1.13951,-5.8894257 0.47086,-1.260051 -20.64315,-4.378758 -41.55848,-6.138517 l -2.95981,-0.249035 -0.27332,2.691024 c -0.96855,9.5361537 -0.98172,9.1417737 0.31471,9.4227027 0.65718,0.14241 9.85908,1.334505 20.44866,2.649107 10.58958,1.314601 19.48795,2.474694 19.77415,2.577993 1.92685,0.695426 2.18037,0.283244 3.11458,-5.063849 z M 223.49249,8.7204383 c 0.2436,-3.76796 0.17641,-5.728401 -0.20957,-6.114377 -0.75473,-0.754732 -43.43816,-0.80092 -44.13965,-0.04777 -0.27264,0.29273 -0.36801,2.967554 -0.21799,6.114377 l 0.26668,5.5940047 h 21.97098 21.97098 z"
     id="path1535" />
  <path
     style="fill:#0085ca;fill-opacity:1;fill-rule:evenodd;stroke:none;stroke-width:1px;stroke-linecap:butt;stroke-linejoin:miter;stroke-opacity:1"
     d="m 399.25002,101.84642 v 397.52549 c 0,54.0145 -32.11301,65.33253 -67.56216,67.37938 -39.28245,2.2682 -70.93449,-1.16941 -106.13059,9.89984 -19.36856,6.09144 -24.21332,17.12848 -25.55726,26.58683 -1.34395,-9.45835 -6.18871,-20.49539 -25.55726,-26.58683 C 139.24664,565.58188 107.5946,569.01949 68.312157,566.75129 32.863008,564.70444 0.75,553.38641 0.75,499.37191 V 101.84642 h 199.25001 z"
     id="path4478" />
  <path
     style="fill:#ffffff;fill-rule:evenodd;stroke:#000000;stroke-width:1.5;stroke-linecap:butt;stroke-linejoin:miter;stroke-miterlimit:4;stroke-dasharray:none;stroke-opacity:1"
     d="m 179.85769,330.07895 c 1.25561,-37.64027 -2.88225,-56.04832 -12.48541,-76.35626 -5.50464,-11.64075 -18.36818,-23.13218 -30.39218,-26.83462 -14.85742,-4.57491 -30.82951,-2.23074 -43.074587,1.73298 -27.426628,8.87797 -41.280102,31.27503 -44.831282,54.21001 -1.498986,16.87325 -1.305819,42.37478 4.4837,55.13321 3.955571,8.29654 8.898223,9.82953 13.536803,7.0968 2.420963,2.32055 5.978156,5.83652 10.38261,1.97133 3.809368,4.75828 8.194139,5.14215 10.645449,2.3656 3.067714,4.07701 10.029681,3.9293 9.199782,-1.1828 -2.197521,-13.5365 -4.443457,-37.17464 0.262848,-57.30006 4.363267,-18.65853 15.380117,-36.94093 36.799097,-36.00966 25.13552,1.09288 39.96379,33.32432 38.3762,75.69915 z"
     id="path4454" />
  <path
     style="fill:#ffcc00;fill-opacity:1;fill-rule:evenodd;stroke:#000000;stroke-width:1.5;stroke-linecap:butt;stroke-linejoin:miter;stroke-miterlimit:4;stroke-dasharray:none;stroke-opacity:1"
     d="m 5.061972,416.09473 54.804375,6.37397 21.488039,-14.85069 c 1.238417,-3.01774 2.474756,-7.20863 2.909605,-10.58372 0.533214,-4.13851 0.625423,-10.96427 -1.661059,-14.51791 -0.640485,-0.99544 -2.785363,-4.25691 -10.38261,-7.35965 -16.7608,-6.84516 -25.62343,-8.86735 -53.555829,-11.49943 -3.423842,-0.32264 -8.7345659,6.28655 -12.8139752,17.01917 -3.3312685,8.76432 -4.6888219,22.83953 -0.7885458,35.41826 z"
     id="path4446" />
  <path
     style="fill:#000000;fill-rule:evenodd;stroke:#000000;stroke-width:1px;stroke-linecap:butt;stroke-linejoin:miter;stroke-opacity:1"
     d="m 96.796867,404.98956 c 3.238353,-20.13232 10.133863,-33.00849 19.188103,-44.15784 14.7791,-18.19893 31.86742,-26.39119 48.36453,-30.22709 21.60718,-5.02408 45.22366,-0.51406 65.18698,11.30231 18.42875,10.90804 35.03349,31.07565 54.67294,32.06699 26.46669,1.33596 31.61428,-38.45843 23.13087,-55.72298 -7.11184,-14.47327 -16.77807,-35.80806 -27.33648,-56.24868 -11.55156,2.53567 -22.71624,0.92344 -33.64489,-5.51972 -8.36721,-4.93302 -13.59827,-15.63475 -14.45679,-23.91883 9.26217,5.97237 19.1832,6.42814 29.70213,-3.15414 7.68738,-7.00287 15.13945,-4.12396 22.34231,-3.67982 4.34698,-7.935 10.45379,-18.39359 23.13087,-15.24496 9.27318,2.30319 15.3551,-5.10527 21.2909,-16.03351 0.76005,13.40507 1.80796,26.6382 -5.25701,40.21518 -6.15873,11.83542 -17.79181,18.46225 -15.77104,22.6046 9.19124,18.84107 23.96971,25.85739 38.9019,41.79225 27.72062,29.58201 21.52261,73.89923 -2.10281,104.87487 l -138.25947,33.11837 z"
     id="path4452" />
  <path
     style="fill:none;fill-rule:evenodd;stroke:#000000;stroke-width:1.5;stroke-linecap:round;stroke-linejoin:round;stroke-miterlimit:4;stroke-dasharray:none;stroke-opacity:1"
     d="m 67.094734,345.06107 c -8.03713,-13.06134 -6.944987,-30.93214 -6.571265,-45.20922"
     id="path4456" />
  <path
     style="fill:none;fill-rule:evenodd;stroke:#000000;stroke-width:1.5;stroke-linecap:round;stroke-linejoin:round;stroke-miterlimit:4;stroke-dasharray:none;stroke-opacity:1"
     d="m 77.477344,347.0324 c -6.257509,-9.85666 -6.413237,-30.09567 -5.191305,-45.34064"
     id="path4458" />
  <path
     style="fill:none;fill-rule:evenodd;stroke:#000000;stroke-width:1.5;stroke-linecap:round;stroke-linejoin:round;stroke-miterlimit:4;stroke-dasharray:none;stroke-opacity:1"
     d="M 88.122793,349.398 C 80.602008,335.44178 82.690552,318.95187 83.194347,304.3202"
     id="path4460" />
  <path
     style="fill:none;fill-rule:evenodd;stroke:#000000;stroke-width:1.5;stroke-linecap:butt;stroke-linejoin:miter;stroke-miterlimit:4;stroke-dasharray:none;stroke-opacity:1"
     d="m 2.499173,404.46387 c 5.6004587,2.58297 11.512736,4.60933 17.282441,5.78258"
     id="path4462" />
  <path
     style="fill:none;fill-rule:evenodd;stroke:#000000;stroke-width:1.5;stroke-linecap:butt;stroke-linejoin:miter;stroke-miterlimit:4;stroke-dasharray:none;stroke-opacity:1"
     d="m 2.4334659,396.84139 c 8.8561531,3.82812 21.5815001,7.48978 29.7678401,9.65952"
     id="path4464" />
  <path
     style="fill:none;fill-rule:evenodd;stroke:#000000;stroke-width:1.5;stroke-linecap:butt;stroke-linejoin:miter;stroke-miterlimit:4;stroke-dasharray:none;stroke-opacity:1"
     d="m 4.0105675,387.64183 c 17.7871045,4.46836 35.5806895,8.93671 52.9644155,13.40506"
     id="path4466" />
  <path
     style="fill:none;fill-rule:evenodd;stroke:#000000;stroke-width:1.5;stroke-linecap:butt;stroke-linejoin:miter;stroke-miterlimit:4;stroke-dasharray:none;stroke-opacity:1"
     d="m 6.9019222,377.9166 c 17.6435678,3.51325 35.8880648,7.64404 61.6384998,16.03351"
     id="path4468" />
  <path
     style="fill:none;fill-rule:evenodd;stroke:#000000;stroke-width:1.5;stroke-linecap:butt;stroke-linejoin:miter;stroke-miterlimit:4;stroke-dasharray:none;stroke-opacity:1"
     d="M 71.694625,387.77326 C 38.340139,376.76599 25.431196,374.61813 9.5304283,372.0026"
     id="path4470" />
  <path
     style="fill:none;fill-rule:evenodd;stroke:#000000;stroke-width:1.5;stroke-linecap:butt;stroke-linejoin:miter;stroke-miterlimit:4;stroke-dasharray:none;stroke-opacity:1"
     d="m 12.4875,367.46853 c 24.246821,2.03177 45.93231,7.86716 62.492763,15.57354"
     id="path4472" />
  <path
     style="fill:#ffcc00;fill-opacity:1;fill-rule:evenodd;stroke:#000000;stroke-width:1.5;stroke-linecap:butt;stroke-linejoin:miter;stroke-miterlimit:4;stroke-dasharray:none;stroke-opacity:1"
     d="m 33.778408,365.30008 c -9.249276,9.36476 -17.244044,28.42756 -16.231027,46.26059 l -5.836653,1.90562 c -2.0122638,-21.26055 5.763813,-40.33281 15.311046,-48.95475 z"
     id="path4448" />
  <path
     style="fill:#ffcc00;fill-opacity:1;fill-rule:evenodd;stroke:#000000;stroke-width:1.5;stroke-linecap:butt;stroke-linejoin:miter;stroke-miterlimit:4;stroke-dasharray:none;stroke-opacity:1"
     d="m 47.835231,402.82109 6.511246,-1.1828 c -0.505459,-6.68196 6.340451,-19.7297 14.193945,-27.73006 l -5.191305,-1.97133 c -6.46262,4.79012 -14.786477,19.68255 -15.513886,30.88419 z"
     id="path4474" />
  <path
     style="fill:none;fill-rule:evenodd;stroke:#000000;stroke-width:1.5;stroke-linecap:butt;stroke-linejoin:miter;stroke-miterlimit:4;stroke-dasharray:none;stroke-opacity:1"
     d="m 66.634754,400.19265 c 1.173911,-7.26968 8.705077,-21.59597 13.339672,-20.56756"
     id="path4476" />
  <path
     id="path4424"
     d="m 72.944987,425.17839 c -29.907699,0 -53.221836,10.15967 -72.194987,17.31795 v -25.2209 c 18.973151,-7.15828 42.287288,-17.31796 72.194987,-17.31796 51.138553,0 73.179803,28.24741 127.055023,28.24741 53.87521,0 75.91647,-28.24741 127.05502,-28.24741 29.9077,0 53.22184,10.15968 72.19499,17.31796 v 25.2209 c -18.97315,-7.15828 -42.28729,-17.31795 -72.19499,-17.31795 -51.13855,0 -73.17981,28.24741 -127.05502,28.24741 -53.87522,0 -75.91647,-28.24741 -127.055023,-28.24741 z"
     style="fill:#ffffff;fill-rule:evenodd;stroke:none;stroke-width:1px;stroke-linecap:butt;stroke-linejoin:miter;stroke-opacity:1" />
  <path
     style="fill:#ffffff;fill-rule:evenodd;stroke:none;stroke-width:1px;stroke-linecap:butt;stroke-linejoin:miter;stroke-opacity:1"
     d="m 72.944987,475.62019 c -29.907699,0 -53.221836,10.15968 -72.194987,17.31795 v -25.2209 c 18.973151,-7.15828 42.287288,-17.31795 72.194987,-17.31795 51.138553,0 73.179803,28.24741 127.055023,28.24741 53.87521,0 75.91647,-28.24741 127.05502,-28.24741 29.9077,0 53.22184,10.15967 72.19499,17.31795 v 25.2209 c -18.97315,-7.15827 -42.28729,-17.31795 -72.19499,-17.31795 -51.13855,0 -73.17981,28.24741 -127.05502,28.24741 -53.87522,0 -75.91647,-28.24741 -127.055023,-28.24741 z"
     id="path4428" />
  <path
     style="fill:#ffffff;fill-rule:evenodd;stroke:none;stroke-width:1px;stroke-linecap:butt;stroke-linejoin:miter;stroke-opacity:1"
     d="m 327.05504,526.062 c 25.23023,0 45.76804,7.23029 62.9658,13.78945 4.24455,-7.41193 6.43419,-14.82384 7.79519,-22.23577 -18.7113,-7.11752 -41.60245,-16.77459 -70.76099,-16.77459 -51.13856,0 -73.17982,28.24741 -127.05503,28.24741 -53.87522,0 -75.91647,-28.24741 -127.055023,-28.24741 -29.158539,0 -52.049701,9.65707 -70.7609922,16.77459 1.3610036,7.41193 3.5506452,14.82384 7.7951849,22.23577 C 27.176947,533.29229 47.71476,526.062 72.944987,526.062 c 51.138553,0 73.179803,28.24741 127.055023,28.24741 53.87521,0 75.91647,-28.24741 127.05503,-28.24741 z"
     id="path4440" />
  <path
     style="fill:none;fill-rule:evenodd;stroke:#000000;stroke-width:1.5;stroke-linecap:butt;stroke-linejoin:miter;stroke-miterlimit:4;stroke-dasharray:none;stroke-opacity:1"
     d="m 0.75,417.27544 c 18.973151,-7.15828 42.287288,-17.31796 72.194987,-17.31796 51.138553,0 73.179803,28.24741 127.055023,28.24741 53.87521,0 75.91647,-28.24741 127.05502,-28.24741 29.9077,0 53.22184,10.15968 72.19499,17.31796 m 0,25.2209 c -18.97315,-7.15828 -42.28729,-17.31795 -72.19499,-17.31795 -51.13855,0 -73.17981,28.24741 -127.05502,28.24741 -53.87522,0 -75.91647,-28.24741 -127.055023,-28.24741 -29.907699,0 -53.221836,10.15967 -72.194987,17.31795"
     id="path4480" />
  <path
     id="path4482"
     d="m 0.75,467.71724 c 18.973151,-7.15828 42.287288,-17.31795 72.194987,-17.31795 51.138553,0 73.179803,28.24741 127.055023,28.24741 53.87521,0 75.91647,-28.24741 127.05502,-28.24741 29.9077,0 53.22184,10.15967 72.19499,17.31795 m 0,25.2209 c -18.97315,-7.15827 -42.28729,-17.31795 -72.19499,-17.31795 -51.13855,0 -73.17981,28.24741 -127.05502,28.24741 -53.87522,0 -75.91647,-28.24741 -127.055023,-28.24741 -29.907699,0 -53.221836,10.15968 -72.194987,17.31795"
     style="fill:none;fill-rule:evenodd;stroke:#000000;stroke-width:1.5;stroke-linecap:butt;stroke-linejoin:miter;stroke-miterlimit:4;stroke-dasharray:none;stroke-opacity:1" />
  <path
     id="path4484"
     d="M 9.9791797,539.85145 C 27.176947,533.29229 47.71476,526.062 72.944987,526.062 c 51.138553,0 73.179803,28.24741 127.055023,28.24741 53.87521,0 75.91647,-28.24741 127.05503,-28.24741 25.23023,0 45.76804,7.23029 62.9658,13.78945 m 7.79519,-22.23577 c -18.7113,-7.11752 -41.60245,-16.77459 -70.76099,-16.77459 -51.13856,0 -73.17982,28.24741 -127.05503,28.24741 -53.87522,0 -75.91647,-28.24741 -127.055023,-28.24741 -29.158539,0 -52.049701,9.65707 -70.7609922,16.77459"
     style="fill:none;fill-rule:evenodd;stroke:#000000;stroke-width:1.5;stroke-linecap:butt;stroke-linejoin:miter;stroke-miterlimit:4;stroke-dasharray:none;stroke-opacity:1" />
  <path
     id="path4438"
     d="m 399.25002,101.84642 v 397.52549 c 0,54.0145 -32.11301,65.33253 -67.56216,67.37938 -39.28245,2.2682 -70.93449,-1.16941 -106.13059,9.89984 -19.36856,6.09144 -24.21332,17.12848 -25.55726,26.58683 -1.34395,-9.45835 -6.18871,-20.49539 -25.55726,-26.58683 C 139.24664,565.58188 107.5946,569.01949 68.312157,566.75129 32.863008,564.70444 0.75,553.38641 0.75,499.37191 V 101.84642 h 199.25001 z"
     style="fill:none;fill-rule:evenodd;stroke:#000000;stroke-width:1.5;stroke-linecap:butt;stroke-linejoin:miter;stroke-miterlimit:4;stroke-dasharray:none;stroke-opacity:1" />
</svg>
