<?xml version="1.0" encoding="utf-8"?>
<!-- Generator: Adobe Illustrator 18.1.1, SVG Export Plug-In . SVG Version: 6.00 Build 0)  -->
<svg version="1.1" id="Layer_1" xmlns="http://www.w3.org/2000/svg" xmlns:xlink="http://www.w3.org/1999/xlink" x="0px" y="0px"
	 viewBox="0 0 117.8 27.5" enable-background="new 0 0 117.8 27.5" xml:space="preserve" preserveAspectRatio="xMinyMin meet">
<g>
	<circle fill="#00529B" cx="59" cy="3.4" r="3.4"/>
	<circle fill="#68AEE0" cx="59" cy="13.7" r="3.4"/>
	<circle fill="#68AEE0" cx="48.7" cy="13.7" r="3.4"/>
	<circle fill="#68AEE0" cx="69.4" cy="13.7" r="3.4"/>
	<circle fill="#68AEE0" cx="59" cy="24.1" r="3.4"/>
</g>
<g>
	<g>
		<g>
			<path fill="#00529B" d="M6.5,18.3v-4.2H1.1v4.2H0V9.1h1.1v3.9h5.4V9.1h1.1v9.2H6.5z"/>
			<path fill="#00529B" d="M10.9,18.3V9.1H16v1h-4v3.1h3.3v1H12v3.2h4.1v1H10.9z"/>
			<path fill="#00529B" d="M18.5,18.3V9.1h1.1v8.2h4.1v1H18.5z"/>
			<path fill="#00529B" d="M30.2,10.7c-0.5-0.3-0.7-0.4-1-0.5C28.9,10.1,28.3,10,28,10c-1,0-1.7,0.5-1.7,1.3c0,0.7,0.4,1,2.3,2
				c0.6,0.3,1.1,0.6,1.4,0.9c0.4,0.4,0.7,1,0.7,1.7c0,1.6-1.2,2.6-3,2.6c-0.6,0-1.2-0.1-1.7-0.3c-0.3-0.1-0.6-0.3-1.2-0.7l0.6-0.9
				c0.5,0.3,0.7,0.5,1.1,0.6c0.4,0.2,0.8,0.2,1.3,0.2c1.1,0,1.7-0.5,1.7-1.4c0-0.3,0-0.5-0.1-0.7c-0.2-0.3-0.4-0.5-0.8-0.8
				c-0.2-0.1-0.7-0.3-1.5-0.8c-1.4-0.7-2-1.5-2-2.4c0-1.5,1.2-2.4,3-2.4c0.5,0,1.1,0.1,1.5,0.2c0.4,0.1,0.6,0.2,1.1,0.5L30.2,10.7z"
				/>
			<path fill="#00529B" d="M33.1,18.3V9.1h5.1v1h-4v3.1h3.3v1h-3.3v3.2h4.1v1H33.1z"/>
		</g>
		<g>
			<path fill="#00529B" d="M6.5,18.3v-4.2H1.1v4.2H0V9.1h1.1v3.9h5.4V9.1h1.1v9.2H6.5z"/>
			<path fill="#00529B" d="M10.9,18.3V9.1H16v1h-4v3.1h3.3v1H12v3.2h4.1v1H10.9z"/>
			<path fill="#00529B" d="M18.5,18.3V9.1h1.1v8.2h4.1v1H18.5z"/>
			<path fill="#00529B" d="M30.2,10.7c-0.5-0.3-0.7-0.4-1-0.5C28.9,10.1,28.3,10,28,10c-1,0-1.7,0.5-1.7,1.3c0,0.7,0.4,1,2.3,2
				c0.6,0.3,1.1,0.6,1.4,0.9c0.4,0.4,0.7,1,0.7,1.7c0,1.6-1.2,2.6-3,2.6c-0.6,0-1.2-0.1-1.7-0.3c-0.3-0.1-0.6-0.3-1.2-0.7l0.6-0.9
				c0.5,0.3,0.7,0.5,1.1,0.6c0.4,0.2,0.8,0.2,1.3,0.2c1.1,0,1.7-0.5,1.7-1.4c0-0.3,0-0.5-0.1-0.7c-0.2-0.3-0.4-0.5-0.8-0.8
				c-0.2-0.1-0.7-0.3-1.5-0.8c-1.4-0.7-2-1.5-2-2.4c0-1.5,1.2-2.4,3-2.4c0.5,0,1.1,0.1,1.5,0.2c0.4,0.1,0.6,0.2,1.1,0.5L30.2,10.7z"
				/>
			<path fill="#00529B" d="M33.1,18.3V9.1h5.1v1h-4v3.1h3.3v1h-3.3v3.2h4.1v1H33.1z"/>
		</g>
	</g>
</g>
<g>
	<g>
		<g>
			<path fill="#00529B" d="M86,18.4L82,12.4c0,0-0.1-0.2-0.2-0.4c-0.1-0.1-0.1-0.2-0.1-0.2c-0.1-0.1-0.1-0.2-0.1-0.3v6.7h-1.7V9.1h2
				l3.8,6c0,0,0.1,0.1,0.1,0.2c0,0.1,0.1,0.2,0.1,0.2l0.1,0.2l0.1,0.2V9.1h1.7v9.2H86z"/>
			<path fill="#00529B" d="M94.6,18.5c-2.9,0-4.9-2-4.9-4.8c0-2.8,2-4.7,4.9-4.7c2.9,0,4.9,1.9,4.9,4.7
				C99.4,16.5,97.4,18.5,94.6,18.5z M94.6,10.5c-1.7,0-3,1.4-3,3.2c0,1.9,1.3,3.2,3,3.2c1.7,0,3-1.4,3-3.2
				C97.6,11.9,96.3,10.5,94.6,10.5z"/>
			<path fill="#00529B" d="M106,18.3l-2.1-3.7H103v3.7h-1.7V9.1h3.1c1.3,0,1.9,0.2,2.5,0.7c0.5,0.5,0.8,1.1,0.8,2
				c0,0.7-0.2,1.3-0.5,1.7c-0.3,0.4-0.7,0.6-1.4,0.8l2.3,3.9H106z M104.2,10.6H103v2.5h1.1c1.1,0,1.6-0.4,1.6-1.3
				C105.7,11,105.3,10.6,104.2,10.6z"/>
			<path fill="#00529B" d="M116.5,16.9c-0.8,0.9-2.1,1.3-3.7,1.3h-3.4V9.1h3.4c1.7,0,2.8,0.4,3.7,1.3c0.8,0.8,1.2,2,1.2,3.2
				C117.8,14.9,117.3,16.1,116.5,16.9z M114.8,11.2c-0.5-0.4-1.2-0.5-2.2-0.5h-1.4v6.1h1.4c2.1,0,3.2-1.1,3.2-3.1
				C115.9,12.7,115.5,11.7,114.8,11.2z"/>
		</g>
		<g>
			<path fill="#00529B" d="M86,18.4L82,12.4c0,0-0.1-0.2-0.2-0.4c-0.1-0.1-0.1-0.2-0.1-0.2c-0.1-0.1-0.1-0.2-0.1-0.3v6.7h-1.7V9.1h2
				l3.8,6c0,0,0.1,0.1,0.1,0.2c0,0.1,0.1,0.2,0.1,0.2l0.1,0.2l0.1,0.2V9.1h1.7v9.2H86z"/>
			<path fill="#00529B" d="M94.6,18.5c-2.9,0-4.9-2-4.9-4.8c0-2.8,2-4.7,4.9-4.7c2.9,0,4.9,1.9,4.9,4.7
				C99.4,16.5,97.4,18.5,94.6,18.5z M94.6,10.5c-1.7,0-3,1.4-3,3.2c0,1.9,1.3,3.2,3,3.2c1.7,0,3-1.4,3-3.2
				C97.6,11.9,96.3,10.5,94.6,10.5z"/>
			<path fill="#00529B" d="M106,18.3l-2.1-3.7H103v3.7h-1.7V9.1h3.1c1.3,0,1.9,0.2,2.5,0.7c0.5,0.5,0.8,1.1,0.8,2
				c0,0.7-0.2,1.3-0.5,1.7c-0.3,0.4-0.7,0.6-1.4,0.8l2.3,3.9H106z M104.2,10.6H103v2.5h1.1c1.1,0,1.6-0.4,1.6-1.3
				C105.7,11,105.3,10.6,104.2,10.6z"/>
			<path fill="#00529B" d="M116.5,16.9c-0.8,0.9-2.1,1.3-3.7,1.3h-3.4V9.1h3.4c1.7,0,2.8,0.4,3.7,1.3c0.8,0.8,1.2,2,1.2,3.2
				C117.8,14.9,117.3,16.1,116.5,16.9z M114.8,11.2c-0.5-0.4-1.2-0.5-2.2-0.5h-1.4v6.1h1.4c2.1,0,3.2-1.1,3.2-3.1
				C115.9,12.7,115.5,11.7,114.8,11.2z"/>
		</g>
	</g>
</g>
</svg>
