<?xml version="1.0" encoding="UTF-8" standalone="no"?>
<svg
   xmlns:dc="http://purl.org/dc/elements/1.1/"
   xmlns:cc="http://creativecommons.org/ns#"
   xmlns:rdf="http://www.w3.org/1999/02/22-rdf-syntax-ns#"
   xmlns:svg="http://www.w3.org/2000/svg"
   xmlns="http://www.w3.org/2000/svg"
   xmlns:sodipodi="http://sodipodi.sourceforge.net/DTD/sodipodi-0.dtd"
   xmlns:inkscape="http://www.inkscape.org/namespaces/inkscape"
   viewBox="0 0 615.53235 749.99999"
   height="750"
   width="615.53235"
   xml:space="preserve"
   id="svg2"
   version="1.1"
   sodipodi:docname="Vestland våpen.svg"
   inkscape:version="0.92.3 (2405546, 2018-03-11)"><sodipodi:namedview
     pagecolor="#ffffff"
     bordercolor="#666666"
     borderopacity="1"
     objecttolerance="10"
     gridtolerance="10"
     guidetolerance="10"
     inkscape:pageopacity="0"
     inkscape:pageshadow="2"
     inkscape:window-width="1366"
     inkscape:window-height="705"
     id="namedview38"
     showgrid="false"
     fit-margin-left="1"
     fit-margin-bottom="1"
     fit-margin-right="1"
     fit-margin-top="0"
     inkscape:zoom="0.50141301"
     inkscape:cx="334.99392"
     inkscape:cy="351.82809"
     inkscape:window-x="-8"
     inkscape:window-y="-8"
     inkscape:window-maximized="1"
     inkscape:current-layer="svg2" /><metadata
     id="metadata8"><rdf:RDF><cc:Work
         rdf:about=""><dc:format>image/svg+xml</dc:format><dc:type
           rdf:resource="http://purl.org/dc/dcmitype/StillImage" /><dc:title></dc:title></cc:Work></rdf:RDF></metadata><defs
     id="defs6" /><g
     id="g1305"
     transform="matrix(18.069296,0,0,18.069296,1.0000007,4.2368885e-6)"
     style="stroke-width:0.0553425"><path
       inkscape:connector-curvature="0"
       d="M 33.869144,0.05199976 H 0.01754487 L 16.943544,20.725466 Z"
       style="fill:#007096;fill-opacity:1;fill-rule:nonzero;stroke:none;stroke-width:0.007379"
       id="path14" /><path
       inkscape:connector-curvature="0"
       d="m 16.943544,41.399439 c 2.753734,-2.191667 6.3704,-5.014053 9.498,-9.071867 H 7.4446247 c 3.1276133,4.057814 6.7442533,6.8802 9.4989193,9.071867"
       style="fill:#007096;fill-opacity:1;fill-rule:nonzero;stroke:none;stroke-width:0.007379"
       id="path16" /><path
       inkscape:connector-curvature="0"
       d="m 1.8498382,20.725466 c 0.3474,1.463067 0.7598933,2.836533 1.2484399,4.048933 1.17916,2.921333 2.6942666,5.4084 4.3458266,7.551093 0,5.2e-4 5.2e-4,0.001 5.2e-4,0.0021 L 16.943544,20.725466 H 1.8498382"
       style="fill:#007096;fill-opacity:1;fill-rule:nonzero;stroke:none;stroke-width:0.007379"
       id="path18" /><path
       inkscape:connector-curvature="0"
       d="M 33.869144,0.05199976 16.943544,20.725466 v 0 L 7.4446247,32.327572 v 0 H 26.441544 v 0 c 5.34e-4,-0.001 5.34e-4,-0.0016 0.0015,-0.0021 1.650533,-2.142693 3.165733,-4.62976 4.3448,-7.551093 0.4896,-1.2124 0.9016,-2.585866 1.249066,-4.048933 2.0744,-8.737467 1.832267,-20.67346624 1.832267,-20.67346624"
       style="fill:#d0d0ce;fill-opacity:1;fill-rule:nonzero;stroke:none;stroke-width:0.007379"
       id="path20" /><path
       inkscape:connector-curvature="0"
       d="M 16.943544,20.725466 0.01754487,0.05199976 c 0,0 -0.24270666,11.93599924 1.83229333,20.67346624 H 16.943544 v 0"
       style="fill:#d0d0ce;fill-opacity:1;fill-rule:nonzero;stroke:none;stroke-width:0.007379"
       id="path22" /><path
       inkscape:connector-curvature="0"
       d="M 33.945677,-2.3448e-7 H 0.00869154 L 16.977411,20.725466 Z"
       style="fill:#007096;fill-opacity:1;fill-rule:nonzero;stroke:none;stroke-width:0.007379"
       id="path66" /><path
       inkscape:connector-curvature="0"
       d="m 16.977411,41.451532 c 2.760933,-2.1974 6.386533,-5.027093 9.521867,-9.09532 H 7.4550514 c 3.1348936,4.068227 6.7608936,6.89792 9.5223596,9.09532"
       style="fill:#007096;fill-opacity:1;fill-rule:nonzero;stroke:none;stroke-width:0.007379"
       id="path68" /><path
       inkscape:connector-curvature="0"
       d="m 1.8456648,20.725466 c 0.34844,1.466667 0.7614667,2.8432 1.2520933,4.058933 1.18176,2.929067 2.70052,5.4224 4.3562399,7.570773 5.2e-4,0 5.2e-4,10e-4 0.00105,10e-4 L 16.977411,20.725466 H 1.8456648"
       style="fill:#007096;fill-opacity:1;fill-rule:nonzero;stroke:none;stroke-width:0.007379"
       id="path70" /><path
       inkscape:connector-curvature="0"
       d="M 33.945677,-2.3448e-7 16.977411,20.725466 v 0 L 7.4550514,32.356212 v 0 H 26.499278 v 0 c 5.33e-4,0 5.33e-4,-10e-4 0.0016,-10e-4 1.6552,-2.148373 3.173999,-4.641706 4.356266,-7.570773 0.490133,-1.215733 0.903067,-2.592266 1.2516,-4.058933 C 34.188877,11.966133 33.945677,-2.3448e-7 33.945677,-2.3448e-7"
       style="fill:#d0d0ce;fill-opacity:1;fill-rule:nonzero;stroke:none;stroke-width:0.007379"
       id="path72" /><path
       inkscape:connector-curvature="0"
       d="M 16.977411,20.725466 0.00869154,-2.3448e-7 c 0,0 -0.24270666,11.96613323448 1.83697326,20.72546623448 H 16.977411 v 0"
       style="fill:#d0d0ce;fill-opacity:1;fill-rule:nonzero;stroke:none;stroke-width:0.007379"
       id="path74" /></g></svg>