<?xml version="1.0" encoding="UTF-8" standalone="no"?>
<svg
   xmlns:dc="http://purl.org/dc/elements/1.1/"
   xmlns:cc="http://creativecommons.org/ns#"
   xmlns:rdf="http://www.w3.org/1999/02/22-rdf-syntax-ns#"
   xmlns:svg="http://www.w3.org/2000/svg"
   xmlns="http://www.w3.org/2000/svg"
   xmlns:sodipodi="http://sodipodi.sourceforge.net/DTD/sodipodi-0.dtd"
   xmlns:inkscape="http://www.inkscape.org/namespaces/inkscape"
   version="1.1"
   id="Layer_1"
   x="0px"
   y="0px"
   viewBox="0 0 400 537.2427"
   xml:space="preserve"
   sodipodi:docname="Lillehammer_komm.svg"
   width="400"
   height="537.24268"
   inkscape:version="1.0 (4035a4fb49, 2020-05-01)"><metadata
   id="metadata529"><rdf:RDF><cc:Work
       rdf:about=""><dc:format>image/svg+xml</dc:format><dc:type
         rdf:resource="http://purl.org/dc/dcmitype/StillImage" /></cc:Work></rdf:RDF></metadata><defs
   id="defs527" /><sodipodi:namedview
   inkscape:document-rotation="0"
   pagecolor="#ffffff"
   bordercolor="#666666"
   borderopacity="1"
   objecttolerance="10"
   gridtolerance="10"
   guidetolerance="10"
   inkscape:pageopacity="0"
   inkscape:pageshadow="2"
   inkscape:window-width="1920"
   inkscape:window-height="1000"
   id="namedview525"
   showgrid="false"
   inkscape:zoom="1.5139785"
   inkscape:cx="109.32828"
   inkscape:cy="156.03208"
   inkscape:window-x="-11"
   inkscape:window-y="-11"
   inkscape:window-maximized="1"
   inkscape:current-layer="g482" />
<style
   type="text/css"
   id="style2">
	.st0{stroke:#000000;stroke-width:0.538;}
	.st1{fill:#0066B3;stroke:#000000;stroke-width:0.538;}
	.st2{fill:#FFFFFF;stroke:#000000;stroke-width:0.538;}
	.st3{fill:#FFFFFF;}
	.st4{fill:#EE334E;}
	.st5{fill:#FFFFFF;stroke:#000000;stroke-width:0.1614;}
	.st6{fill:#EE334E;stroke:#000000;stroke-width:0.538;}
	.st7{fill:#EE334E;stroke:#000000;stroke-width:0.1614;}
	.st8{fill:#EE334E;stroke:#000000;stroke-width:0.269;}
	.st9{fill:#FEC340;}
	.st10{fill:#FFFFFF;stroke:#000000;stroke-width:0.1076;}
	.st11{fill:#FFFFFF;stroke:#000000;stroke-width:0.269;}
	.st12{fill:#EE334E;stroke:#000000;stroke-width:0.3766;}
	.st13{fill:#FFFFFF;stroke:#000000;stroke-width:0.3766;}
</style>
<g
   id="g482"
   transform="translate(-0.78560844,-1.975)">
	<path
   class="st0"
   d="m 399.94957,126.29854 c 0.81212,0.80912 0.81212,2.42735 -0.40606,3.64103 -18.27263,9.30486 -23.5514,29.12824 -24.76956,48.54708 l -0.81212,79.69812 1.62422,80.10268 c 0.81212,49.76074 2.84242,106.39901 -42.23008,135.12269 -17.86658,12.54133 -29.23623,17.39604 -60.50274,20.6325 -34.10893,3.64104 -58.87851,19.01428 -70.65421,44.90605 h -2.43635 c -11.36964,-21.84618 -34.51498,-41.26501 -59.28456,-44.09693 -41.417979,0.40456 -80.805667,-15.77779 -101.514657,-53.40178 -7.309056,-13.755 -12.181759,-28.31913 -11.7757,-45.3106 L 26.375635,180.10488 C 26.781694,167.56356 25.969577,152.99943 17.036287,142.88546 13.381759,137.22163 6.8848209,133.98516 1.2,130.34413 c 0,0 17.054463,-18.60972 25.175635,-27.10545 H 373.55577 Z"
   id="path4" />
	<path
   class="st1"
   d="m 373.14971,106.07059 11.7757,11.32765 -17.46052,15.7778 -60.09668,51.78355 -35.73316,30.74648 c -7.30906,-6.8775 -13.806,-14.96868 -21.92717,-21.84618 -4.06059,-5.25927 -10.15147,-8.49574 -16.6484,-8.49574 -14.21205,1.61824 -22.73929,21.03707 -31.67257,33.57839 -9.33935,-4.04559 -18.6787,-12.94588 -30.04834,-12.94588 -4.87271,-0.40456 -10.15147,0.40456 -14.61811,-0.80912 0,-2.42736 0.40606,-5.66382 -2.0303,-7.28206 -0.81211,-1.21368 -2.03029,-2.0228 -3.65452,-1.61824 l -2.0303,3.23648 c -2.84241,-3.64104 -4.46664,-8.49575 -6.09088,-12.94589 -0.81212,-3.64104 -11.7757,-37.62399 -11.7757,-37.62399 0,0 -21.5211,35.60119 -31.266513,52.59267 -1.624234,1.21367 -5.278762,0 -5.278762,3.23647 -0.812117,2.83191 1.218176,5.66383 3.654528,6.06839 3.654527,0.80912 7.715117,-6.06839 9.339347,0 2.43636,3.23646 0,8.90029 4.8727,10.51853 4.87271,0 8.9333,2.42736 12.99388,4.04558 3.24847,4.45016 -1.21818,8.90031 -2.43635,13.35045 -7.71511,8.49575 -18.27264,18.20516 -30.454398,13.75501 C 86.472313,248.8799 78.757198,248.47536 73.884496,242.40697 66.57544,239.97961 70.229968,231.07931 62.920912,228.2474 l -7.309055,-2.42736 c -4.060587,-21.44162 -8.93329,-42.88325 -12.993876,-64.72943 1.218176,-10.92309 -3.24847,-20.22795 -8.93329,-28.72368 0,0 -0.812118,2.42734 -1.218176,4.04558 -1.624235,19.41884 7.715114,36.41031 8.93329,55.42458 2.030292,12.13677 4.872703,23.46442 6.090879,36.00575 -2.030293,1.21368 -1.218176,4.45015 -2.842411,6.06839 -0.812116,4.45014 -1.218176,10.11397 2.030294,13.75501 1.218176,2.02278 4.060586,3.23646 5.278762,4.8547 l 19.084755,105.99445 4.872704,27.51002 -0.812117,2.02278 C 60.48456,400.18496 47.896743,412.72629 33.278632,423.64938 30.84228,418.39012 30.030163,412.72629 29.218045,406.65791 L 28.811987,381.57525 28.405929,176.46386 C 30.030163,158.66325 23.533225,142.07634 9.3211726,131.96237 L 5.6666449,129.13045 27.187753,106.07059 Z"
   id="path6" />
	<path
   class="st2"
   d="m 396.29505,127.91678 c -16.6484,9.70941 -23.5514,27.51001 -24.36352,46.11972 l -0.81212,19.41883 1.62424,159.80079 c 0.81212,16.58692 0.40606,34.38751 -1.62424,50.56988 -15.43022,3.64103 -31.26652,6.87749 -47.1028,9.70941 -1.21818,-8.49574 0,-16.58691 4.8727,-22.6553 2.43636,-4.04559 -3.24846,-6.06838 -1.62422,-9.30486 -2.84242,-3.64103 -6.49694,0.40456 -10.15148,-1.21368 -4.06058,-5.25926 -11.7757,-2.42735 -15.43022,-7.28205 -1.62424,-1.21368 -2.84242,0 -4.46664,-0.80912 -11.36965,-10.51853 -24.36352,-21.44163 -40.19981,-16.99148 -2.03029,-4.04559 -6.49694,-0.80912 -8.52723,-5.66382 2.43635,-3.23648 6.09088,-6.47295 7.30905,-10.11398 4.06059,0 6.903,-2.02279 8.93329,-5.25927 5.27876,-6.47294 1.62424,-15.37324 4.46664,-23.05986 -2.8424,-4.45015 -8.52722,-3.64103 -13.39993,-4.45015 -5.68482,-3.23647 -11.7757,-5.25926 -17.86658,-8.09118 l 0.40606,-0.80912 c 11.36964,-5.66382 34.51499,-16.18235 34.51499,-16.18235 9.33934,-4.04559 21.11504,-9.70942 23.14534,-21.03708 0,-13.75499 -10.55752,-23.46442 -18.27264,-33.98295 -2.0303,-2.8319 -6.49694,-7.28206 -6.09088,-7.68662 9.7454,-8.49573 38.98162,-33.57839 56.03609,-48.14252 l 51.16339,-45.3106 8.12117,-7.28206 c 3.24847,3.23647 7.30905,6.06838 9.33935,9.70942 z"
   id="path8" />
	<path
   class="st3"
   d="m 39.369511,145.31281 c 2.842411,11.73221 0.812118,20.22795 3.654528,24.6781 0.406058,1.61823 3.654528,4.04559 -0.812117,4.85471 -2.842411,-0.40456 -2.030293,-6.87751 -2.842411,-10.11398 -2.436352,-8.09118 -5.278762,-18.60971 -4.060586,-27.10545 1.624234,0.80912 3.24847,5.66383 4.060586,7.68662 z"
   id="path10"
   style="stroke-width:0.999998" />
	<path
   class="st3"
   d="m 144.94476,197.90548 c 1.21817,1.61824 2.03029,5.25926 5.27876,4.8547 2.43635,-0.80911 0.81212,-3.64102 2.84241,-3.64102 1.21817,1.21368 1.62423,3.23646 0.81212,4.45014 -1.21818,1.61824 -3.24847,2.42736 -5.27877,1.61824 -13.80599,-8.09118 -11.7757,-25.08266 -16.24234,-38.02854 l -2.84241,3.23647 c -1.21818,-0.40456 -4.06059,-2.83191 -4.06059,-2.83191 -7.30906,12.54132 -14.61811,25.48721 -22.33322,38.02854 -1.21818,1.61823 -2.84242,4.04559 -5.278765,2.42735 0,-0.80912 -1.218176,-1.61823 0,-2.42735 6.496935,-0.40456 7.309055,-7.68662 10.557525,-11.73221 7.30906,-12.94589 15.43023,-25.89178 22.73928,-38.83766 4.46665,13.755 8.52723,28.72368 13.806,42.88325 z"
   id="path12"
   style="stroke-width:0.999998" />
	<path
   class="st4"
   d="m 129.51453,172.82282 c 0.81211,-0.80912 2.03029,-1.61824 2.43635,-2.0228 v 0 c 2.03029,5.66384 2.03029,12.54133 4.06058,18.20516 -5.68482,-1.61823 -11.36964,-4.85471 -18.67869,-3.64103 2.43635,-5.25927 5.68482,-10.51853 8.52723,-15.37324 z"
   id="path14"
   style="stroke-width:0.999998" />
	<path
   class="st4"
   d="m 53.581564,225.82004 c -0.812118,0.40456 -2.030294,1.61824 -2.842411,0.40456 -4.060586,-15.77779 -6.09088,-32.36471 -9.339348,-48.95163 l 1.624234,-1.21367 1.218176,1.21367 z"
   id="path16"
   style="stroke-width:0.999998" />
	<path
   class="st3"
   d="m 136.01146,191.83709 c -0.81211,0.40456 -0.40605,1.21368 -0.40605,2.0228 0.81211,0.80911 3.24847,0.40456 2.84241,2.42735 -2.43636,-1.21368 -6.09088,-0.80912 -8.12118,-3.23647 0.40606,0 0,-0.80912 0.40606,-1.21368 l -0.40606,-0.40456 c -1.62423,2.83192 -5.27876,0.40456 -7.71511,0.80912 -0.81211,-0.40456 0,-2.02279 -1.21817,-1.61823 -0.81212,0.40455 -0.40606,0.80911 -0.40606,1.61823 -2.0303,0.40456 -4.87271,0 -7.30906,0.40456 -0.40606,-2.83191 2.0303,-0.80912 2.84241,-2.02279 -0.81211,-0.80912 -1.21817,-0.80912 -0.81211,-2.0228 6.49693,-2.42735 15.02416,-1.21367 20.30292,3.23647 z"
   id="path18"
   style="stroke-width:0.999998" />
	<path
   class="st2"
   d="m 242.80489,190.21886 c 9.33934,8.9003 19.08475,17.39603 26.79986,27.51001 -44.66644,40.4559 -90.95713,81.72091 -136.43569,120.15402 12.18176,-21.84619 28.01804,-41.66958 38.57557,-63.92033 5.68482,-7.68661 10.55752,-15.77779 15.43022,-23.86898 7.71512,-12.94589 16.64841,-29.5328 21.52111,-38.83765 9.33935,-12.54133 15.83629,-25.89178 29.64228,-22.65531 2.43635,0.40456 3.24847,0.80912 4.46665,1.61824 z"
   id="path20" />
	<path
   class="st3"
   d="m 121.39336,193.85989 c 0.81211,9.30485 -3.65453,16.99148 -6.09088,25.48721 -1.62424,0 -3.24848,-0.80912 -3.65453,-2.42735 0.40605,-1.21368 0.40605,-2.42736 -0.81212,-3.64103 1.21817,-2.02279 2.84241,0.80911 4.06059,-0.80911 -1.21818,-2.42736 -4.8727,-0.40456 -5.27876,-3.23648 1.21817,-0.40456 2.43634,-1.21368 2.43634,-2.83191 -0.81211,-0.40456 -0.81211,-1.21368 -1.62423,-0.80912 l -0.81211,0.80912 c 0,0 0.40606,0.40455 0.40606,0.80911 0,0.80912 -1.21818,-0.80911 -2.43636,-0.80911 -0.40606,-3.64104 2.0303,-6.06838 2.43636,-9.30486 h 3.24846 c 2.0303,2.0228 -2.84241,4.04559 0.81212,5.25926 0.81212,-0.40455 2.43635,0.40456 3.24847,-0.40455 -0.40606,-1.21368 -1.62423,-0.40456 -2.43635,-0.80912 -0.40606,-1.21367 1.21817,-1.61823 2.43635,-2.02279 l 2.03029,-2.0228 c -1.62423,-1.61824 -4.06058,-1.61824 -6.09088,-2.0228 1.62424,-1.21367 5.27876,-1.21367 8.12118,-1.21367 z"
   id="path22"
   style="stroke-width:0.999998" />
	<path
   class="st3"
   d="m 124.23576,194.26445 c 0.40606,5.25927 -1.62423,9.30485 -2.8424,14.15956 0,-4.04559 2.8424,-8.90029 2.43635,-14.15956 z"
   id="path24"
   style="stroke-width:0.999998" />
	<path
   class="st5"
   d="m 132.763,195.88268 c 0.81212,1.21368 0,2.42736 -0.81212,3.64104 -2.84241,0.40456 -4.8727,-2.0228 -6.903,-2.83192 L 125.86,194.669 c 2.84241,-0.80911 4.46664,0.80912 6.903,1.21368 z"
   id="path26" />
	<path
   class="st3"
   d="m 137.22964,197.90548 c -3.24847,6.47294 -5.27876,14.15957 -10.15146,19.82339 2.84241,-6.06838 5.68482,-13.35045 7.30905,-20.63251 0.81212,-0.40456 2.43635,0 2.84241,0.80912 z"
   id="path28"
   style="stroke-width:0.999998" />
	<path
   class="st5"
   d="m 131.95088,201.14195 c 0.40606,1.21367 -0.81212,1.21367 -1.21818,1.61823 -2.43635,1.21368 -4.06058,-4.04558 -5.27876,-0.80911 2.0303,0.40455 3.24847,3.23647 5.68482,2.42735 0.40606,1.21368 -0.81212,2.0228 -2.03029,2.0228 -2.03029,0 -3.65453,-1.21368 -4.87271,-2.42736 l 1.21818,-5.66382 c 2.0303,0.80912 4.06059,2.0228 6.49694,2.83191 z"
   id="path30" />
	<path
   class="st5"
   d="m 141.69629,199.92828 v 0.80911 h -3.24847 l 0.40606,-2.02279 c 0.81211,0 2.03029,0 2.84241,1.21368 z"
   id="path32" />
	<path
   class="st5"
   d="m 143.72658,205.18754 c 0.40606,1.21368 -0.81212,1.61823 -0.81212,2.42735 -2.03029,-0.80912 -3.24847,-4.04559 -5.68482,-2.42735 1.62424,0.80912 3.24847,2.02279 4.06059,3.64103 0,0.80912 -0.81212,1.61824 -1.21818,2.0228 -1.62423,-0.80912 -2.84241,-2.42736 -4.8727,-2.42736 0.81211,-2.42735 1.62423,-4.85471 3.24847,-6.8775 1.62423,0.40456 4.06058,1.21367 5.27876,3.64103 z"
   id="path34" />
	<path
   class="st3"
   d="m 148.19322,206.80577 c -4.46664,6.06839 -10.55752,10.51854 -16.6484,15.37325 h -0.81212 c 4.87271,-5.25927 11.36964,-10.11397 15.43023,-16.58692 0.40606,0 1.21818,0.40456 2.03029,1.21367 z"
   id="path36"
   style="stroke-width:0.999998" />
	<path
   class="st5"
   d="m 129.92059,208.01945 c 0,1.61824 -0.81212,2.42736 -2.0303,3.64104 -2.03029,-0.40456 -5.68482,-2.0228 -4.8727,-4.0456 l 0.81212,-1.21367 c 2.03029,0.40455 3.65453,2.42735 6.09088,1.61823 z"
   id="path38" />
	<path
   class="st5"
   d="m 157.53257,211.66049 c 0.40606,1.21367 -0.40605,1.61823 -1.21817,2.02279 -2.43635,0.40455 -2.43635,-2.42735 -3.24847,-3.64103 l 0.40606,-3.64103 c 4.46664,-0.80912 1.62423,4.04559 4.06058,5.25927 z"
   id="path40" />
	<path
   class="st5"
   d="m 152.65987,212.46961 c 0.81212,0.80911 1.21818,1.21367 1.21818,2.02278 -0.81212,2.0228 -2.0303,0 -3.24847,0 -2.0303,-2.02278 -2.43636,-5.25926 -1.21818,-8.09117 4.06059,-0.80912 2.03029,4.45015 3.24847,6.06839 z"
   id="path42" />
	<path
   class="st5"
   d="m 164.43557,207.61489 c 0,1.21368 -1.21818,1.61824 -2.43635,2.0228 -2.0303,-2.0228 1.21817,-2.0228 2.43635,-2.0228 z"
   id="path44" />
	<path
   class="st5"
   d="m 174.99309,210.04225 -2.43635,2.0228 -2.03029,-2.42736 c 0.40606,-2.0228 5.27876,-2.83192 4.46664,0.40456 z"
   id="path46" />
	<path
   class="st5"
   d="m 160.78104,210.04225 c 0.40606,0.40456 -0.40606,0.80912 -0.81212,0.80912 -0.81211,0 -2.43635,0 -2.03029,-1.21368 -0.40606,-2.83192 3.65453,-1.61824 2.84241,0.40456 z"
   id="path48" />
	<path
   class="st3"
   d="m 168.90222,208.42401 c -11.36965,9.30486 -24.36352,17.39603 -37.76346,21.84619 0.81212,-2.42736 4.46665,-1.21368 5.68482,-3.64104 10.15147,-6.06838 20.30294,-12.54133 30.4544,-18.60971 z"
   id="path50"
   style="stroke-width:0.999998" />
	<path
   class="st3"
   d="m 177.83551,209.63769 c -4.46665,8.09118 -9.33935,17.39603 -6.09088,27.91456 -1.62424,0.80912 -2.0303,-1.61822 -2.84241,-2.42734 -2.43636,-10.11398 3.24846,-17.8006 7.71511,-25.89178 0.40606,0 0.81212,0 1.21818,0.40456 z"
   id="path52"
   style="stroke-width:0.999998" />
	<path
   class="st3"
   d="m 118.957,218.53798 c 0.81212,-1.21367 3.24847,-0.80911 4.46665,-0.40455 1.21817,1.21367 0.40606,3.64103 2.43635,3.64103 0.81212,-0.40456 1.21818,-0.80912 2.03029,-1.21368 0.81212,1.21368 -0.40605,3.64104 2.0303,4.04559 l 3.24847,-1.61823 c 0.81211,0.80912 1.21817,2.02279 1.21817,3.23646 -1.62423,0.80912 -3.24847,2.0228 -4.8727,2.42736 0,-6.8775 -7.71511,-7.68662 -12.18176,-9.70942 l 3.65453,-9.30485 c -0.40606,3.23647 -1.62424,6.06838 -2.0303,8.90029 z"
   id="path54"
   style="stroke-width:0.999998" />
	<path
   class="st5"
   d="m 148.59928,213.68328 2.43636,2.83191 c -0.81212,2.02279 -2.43636,0.40456 -3.65453,0.40456 -1.21818,-1.61824 -2.03029,-3.23647 -1.62424,-5.25926 0.81212,-0.40456 0.81212,-1.61824 1.62424,-1.61824 1.21817,0.80912 0,2.83191 1.21817,3.64103 z"
   id="path56" />
	<path
   class="st5"
   d="m 186.76879,213.27872 c 0,0.80911 -1.21817,1.21367 -1.62423,2.02279 -1.62423,-1.61823 -3.24847,-3.64102 -5.68482,-4.04558 v -0.80912 c 2.84241,-0.80912 4.8727,1.61824 7.30905,2.83191 z"
   id="path58" />
	<path
   class="st5"
   d="m 127.48424,214.08783 c -1.62424,0.40456 -3.24848,-0.40455 -4.87271,-0.80911 l -0.40606,0.40456 c 0.81212,1.21367 2.43635,1.61823 4.06059,2.42735 -0.81212,3.64103 -3.24847,-0.40456 -4.8727,0 -0.81212,-2.0228 0.81211,-4.04558 1.21817,-5.66382 1.21818,0.80912 4.06059,1.61824 4.87271,3.64102 z"
   id="path60" />
	<path
   class="st5"
   d="m 137.6357,212.06505 c 0,0.80911 0,2.02278 -0.81212,2.02278 -1.62423,0 -2.84241,-1.21367 -3.65452,-2.42734 0,-2.42736 4.06058,-1.61824 4.46664,0.40456 z"
   id="path62" />
	<path
   class="st5"
   d="m 171.33857,213.68328 c 0,0.40455 0.40606,0.80911 -0.40606,1.21367 -2.03029,0 -1.62424,-2.42734 -3.24847,-3.23646 l 0.81212,-0.80912 c 1.21817,0 2.43635,1.61824 2.84241,2.83191 z"
   id="path64" />
	<path
   class="st5"
   d="m 183.92638,215.70607 v 1.21368 c -1.62423,-1.21368 -3.65452,-3.64103 -6.09087,-3.23647 l -0.40606,-1.21367 c 2.84241,-0.80912 4.8727,1.61822 6.49693,3.23646 z"
   id="path66" />
	<path
   class="st5"
   d="m 170.12039,217.32431 c -0.81212,2.83191 -2.03029,6.47295 -5.68482,7.28206 -2.43635,0.80911 -0.40606,-2.83191 -2.03029,-3.64103 l -2.84241,-3.64103 c 0.40605,-1.21368 2.03029,-2.0228 2.84241,-2.42736 2.03029,2.0228 2.84241,5.25927 2.43635,7.68663 0.81212,0 1.21817,-0.80912 1.21817,-1.21368 1.21818,-3.64103 -4.8727,-7.28207 -0.40605,-8.90029 2.43635,0.80911 3.24847,2.8319 4.46664,4.8547 z"
   id="path68" />
	<path
   class="st5"
   d="m 147.38111,218.53798 c 0,0.80912 -0.81212,1.21368 -1.21818,1.21368 -4.06059,1.21368 -2.03029,-3.64103 -3.24847,-5.25927 0.81212,-0.40456 0.81212,-1.61823 2.0303,-1.21367 0,2.02279 0.40606,4.04559 2.43635,5.25926 z"
   id="path70" />
	<path
   class="st5"
   d="m 133.98117,214.89695 v 0.80912 c -0.81211,0.40456 -2.03029,-0.80912 -2.43635,-1.21368 l 0.40606,-0.80911 c 0.81212,0 2.43635,0 2.03029,1.21367 z"
   id="path72" />
	<path
   class="st3"
   d="m 190.42332,215.70607 c -6.90299,6.06839 -10.96358,14.96868 -12.58781,23.86898 -1.21818,-1.21368 -0.81212,-4.04558 -0.40606,-6.06838 2.84241,-6.47295 5.27876,-13.75501 10.55752,-19.01428 1.21818,-0.80911 1.62424,0.80912 2.43635,1.21368 z"
   id="path74"
   style="stroke-width:0.999998" />
	<path
   class="st5"
   d="m 182.30215,218.53798 c -1.62423,1.61824 -0.81212,6.47295 -4.06059,4.85472 -0.40605,-1.61824 -2.43635,-2.42736 -1.62423,-4.0456 1.62423,-0.40456 2.03029,2.0228 3.65453,2.42736 0.81211,-0.40456 0.40606,-0.80912 0.40606,-1.21368 -1.21818,-1.21368 -2.43636,-2.83191 -4.06059,-2.42735 l 0.40606,-2.0228 c 2.03029,-1.21368 4.46664,0 5.27876,2.42735 z"
   id="path76" />
	<path
   class="st5"
   d="m 142.5084,222.58358 c -1.62423,0.40456 -2.84241,-0.80912 -3.24846,-2.0228 0,-1.61824 -0.40606,-3.64103 1.62423,-4.45015 1.21817,1.61824 2.43635,4.45015 1.62423,6.47295 z"
   id="path78" />
	<path
   class="st5"
   d="m 195.29603,221.77446 c 0,0.80912 -0.40606,1.61824 -0.81212,2.0228 -1.21818,0 -2.43635,-0.80912 -3.24847,-2.0228 -2.03029,2.42736 4.46665,3.64102 0.40606,5.25926 -2.03029,0.80912 -2.84241,-1.21368 -3.65453,-2.42735 -0.40606,-2.02279 -1.21818,-5.66383 2.03029,-6.8775 0.81212,1.21367 -0.40605,3.23647 0.81212,4.04559 l 0.40606,-5.25927 c 3.65453,0 2.84241,3.23647 4.06059,5.25927 z"
   id="path80" />
	<path
   class="st5"
   d="m 131.54482,216.91975 c 0.81212,1.21368 -0.40606,2.42735 -1.21818,2.83191 -0.81211,-0.40456 -1.21817,-0.40456 -1.62423,-0.80912 0,-1.61823 1.62423,-1.61823 2.84241,-2.02279 z"
   id="path82" />
	<path
   class="st5"
   d="m 161.59316,222.17902 c 0.81212,1.21368 0,2.83191 -0.81212,4.04558 l -1.21817,0.80912 c 0.40605,-2.42735 -0.40606,-5.25926 -2.43635,-7.28206 2.03029,-4.04559 2.43635,1.61824 4.46664,2.42736 z"
   id="path84" />
	<path
   class="st5"
   d="m 197.73238,220.56078 c -0.40606,0 -0.40606,0.40456 -0.40606,0.80912 -1.21818,0.40456 -1.62423,-0.80912 -1.62423,-2.0228 0.81211,-0.40456 1.21817,0.80912 2.03029,1.21368 z"
   id="path86" />
	<path
   class="st5"
   d="m 139.25994,224.20182 c -1.21818,0.40455 -2.43636,1.21366 -4.06059,0.40455 -0.40606,-0.80911 -0.81212,-2.42735 -0.40606,-3.64103 0.81212,-0.80912 1.62423,-1.61824 2.84241,-2.0228 1.21818,1.61824 1.21818,3.64104 1.62424,5.25928 z"
   id="path88" />
	<path
   class="st6"
   d="m 276.50775,226.2246 c 8.12118,10.11399 19.49082,22.25076 17.46052,35.60119 -5.27876,12.94589 -19.49081,16.18237 -28.83016,21.44163 -8.93329,4.85471 -18.27264,7.28206 -27.20593,12.13677 0,0 -23.5514,10.11398 -33.70286,15.37324 -23.95746,8.9003 -46.29069,21.84618 -69.84209,31.5556 h -2.03029 l 53.19368,-46.92884 c 28.01805,-25.89177 58.06639,-50.97443 85.67837,-75.65253 -0.40606,0 4.46664,5.25927 5.27876,6.47294 z"
   id="path90" />
	<path
   class="st5"
   d="m 157.53257,222.58358 c 0.81212,1.61824 -0.40605,4.04558 0.81212,4.8547 -0.81212,0.80912 -2.03029,1.61824 -3.24847,1.21368 l -2.03029,-6.8775 c 1.62423,-2.42736 3.65453,-0.40456 4.46664,0.80912 z"
   id="path92" />
	<path
   class="st3"
   d="m 200.98085,221.77446 c -4.46665,8.49574 -8.93329,16.58691 -13.806,24.27354 -1.21817,-0.80912 -0.81211,-3.64103 -0.40606,-5.25927 3.65453,-6.8775 5.68483,-14.56413 12.18176,-19.82339 z"
   id="path94"
   style="stroke-width:0.999998" />
	<path
   class="st5"
   d="m 176.21127,223.3927 c -3.24847,2.42734 4.46665,5.25926 -0.40606,7.28205 0.81212,0.40456 0.40606,1.61824 0.40606,2.0228 -1.62423,0.80912 -2.84241,-0.80912 -4.06059,-1.61824 -0.81211,-3.23647 1.21818,-4.85471 0.81212,-8.09117 0.81212,-0.80912 2.84241,-2.0228 3.24847,0.40456 z"
   id="path96" />
	<path
   class="st5"
   d="m 153.87805,229.05652 c 0.40605,0.80912 -0.81212,1.21368 -1.62424,1.61823 h -0.81212 c 0,-2.02279 -0.40605,-4.45015 -2.03029,-6.06838 l 2.43635,-2.02279 c 1.21818,1.61824 3.24847,3.64102 2.0303,6.47294 z"
   id="path98" />
	<path
   class="st5"
   d="m 190.42332,229.46108 c -0.81211,0.80912 -0.81211,3.23647 -2.43635,2.02279 -2.03029,-2.02279 -3.65453,-4.04559 -3.65453,-6.8775 l 1.21818,-2.02279 c 1.21817,2.8319 2.03029,5.25926 4.8727,6.8775 z"
   id="path100" />
	<path
   class="st3"
   d="m 167.27798,225.01093 c -9.33935,6.06838 -19.89687,10.9231 -30.04834,15.37324 -0.81212,0 -1.21818,-0.40456 -1.62423,-1.21368 3.24847,-2.0228 6.90299,-2.8319 10.55752,-4.04558 6.903,-3.64104 14.21205,-6.06839 21.11505,-10.11398 z"
   id="path102"
   style="stroke-width:0.999998" />
	<path
   class="st5"
   d="m 149.81746,228.65196 c 0.40606,1.61824 -0.40606,3.23647 -2.03029,4.04559 -0.81212,-0.80912 -0.81212,-2.42735 -1.21818,-3.64103 0.40606,-1.21368 -3.24847,-2.42736 -0.81212,-3.64104 2.43635,-0.40455 3.24847,1.61824 4.06059,3.23648 z"
   id="path104" />
	<path
   class="st5"
   d="m 145.75687,229.86564 c 0.40606,2.02279 -0.40605,3.23647 -2.03029,4.45015 -1.21818,-0.40456 0,-2.42736 -0.81212,-3.23648 -0.40606,-1.21367 -1.62423,-2.42735 -0.81212,-3.64103 1.62424,0.40456 3.24848,0.80912 3.65453,2.42736 z"
   id="path106" />
	<path
   class="st5"
   d="m 187.58091,235.93403 c -2.84241,1.61822 -4.06058,-2.42736 -5.68482,-4.0456 -0.40606,-1.21368 0,-3.64103 1.62424,-4.04559 -0.40606,3.64103 6.49693,4.45015 4.06058,8.09119 z"
   id="path108" />
	<path
   class="st5"
   d="m 166.87192,227.84284 c -1.62423,3.23647 3.65453,8.49575 -2.43635,8.9003 -0.81212,0 -1.62423,-0.80911 -2.03029,-1.61823 -0.40606,-2.83192 1.21817,-6.06839 3.65452,-7.28207 z"
   id="path110" />
	<path
   class="st3"
   d="m 54.799739,228.65196 c 0,0.40456 0,0.80912 -0.406058,0.80912 l -0.812117,-1.61824 c 0.406058,0 0.812117,0.40456 1.218175,0.80912 z"
   id="path112"
   style="stroke-width:0.999998" />
	<path
   class="st5"
   d="m 60.890619,233.50667 c -1.624235,0.80912 -2.436352,-1.21368 -4.060587,-2.0228 -0.812117,-0.80912 -1.218175,-2.02279 -0.406058,-3.23647 2.436352,0.80912 6.496938,1.21368 4.466645,5.25927 z"
   id="path114" />
	<path
   class="st5"
   d="m 53.987622,231.88843 c -0.812117,0.80912 -2.436352,0.80912 -3.248469,0.40456 -0.406058,-0.80912 -0.812117,-1.61824 -0.812117,-2.42735 2.030293,-3.23648 3.248469,1.21367 4.060586,2.02279 z"
   id="path116" />
	<path
   class="st5"
   d="m 142.5084,232.29299 c 0.40606,1.61824 -1.62423,2.42736 -2.43635,3.64104 h -0.40606 c 1.62424,-2.42736 -3.24847,-6.47295 0.40606,-6.87751 z"
   id="path118" />
	<path
   class="st5"
   d="m 138.44782,232.29299 c 0.40606,1.21368 0.40606,2.83192 -0.81212,3.64104 -0.81212,0 -1.62424,-1.21368 -1.62424,-2.0228 l -0.81211,3.64102 c -2.03029,0 -2.43635,-3.23646 -3.24847,-4.8547 0.81212,-0.80912 2.43635,-2.0228 4.06058,-2.42735 1.21818,0 2.0303,1.21367 2.43636,2.02279 z"
   id="path120" />
	<path
   class="st3"
   d="m 63.73303,231.07931 c 0.406058,1.21368 -0.812118,2.83192 -1.624235,4.0456 l 0.406059,-4.85471 z"
   id="path122"
   style="stroke-width:0.999998" />
	<path
   class="st5"
   d="m 161.59316,231.07931 c 0,2.0228 -0.81212,4.85472 0.40606,6.47294 -0.81212,1.61824 -2.0303,0 -2.84241,0 -1.21818,-2.02278 0,-3.64102 -0.40606,-5.66382 0.81212,-0.80912 2.03029,-0.80912 2.84241,-0.80912 z"
   id="path124" />
	<path
   class="st3"
   d="m 132.35694,237.95681 c 2.43635,3.23648 4.46664,6.87751 7.71511,9.70943 -0.40606,1.61822 -1.21817,3.23646 -1.62423,4.8547 -4.46665,-2.83192 -6.49694,-7.68662 -8.12118,-12.13677 -1.62423,-1.21368 -2.03029,-3.23648 -2.43635,-4.8547 0.81212,-0.80912 0.40606,-2.83192 1.62424,-3.64104 2.03029,0.80912 1.21817,4.0456 2.84241,6.06838 z"
   id="path126"
   style="stroke-width:0.999998" />
	<path
   class="st3"
   d="m 58.048208,233.91123 c 2.842411,2.0228 6.09088,4.45014 5.278762,8.49574 0.40606,1.21367 -0.812116,1.61823 -1.218175,2.42735 -1.624235,-3.23647 -3.654528,-7.28207 -6.09088,-9.70941 -0.812117,0.40456 0,0.80912 -0.406058,1.61823 -1.218176,0 -2.436352,-0.40455 -2.436352,-1.61823 -2.84241,0.80912 -2.030293,4.8547 -3.248469,6.8775 -0.812117,-2.0228 2.030293,-4.85472 -1.218176,-5.25927 -1.624235,0.80911 0,2.02279 0.406059,2.42735 -1.624235,0.40456 0.406058,3.64103 -1.624235,3.64103 -2.030293,-2.42735 0.406059,-5.66383 -0.406059,-8.49573 0.812118,0.40456 2.030294,2.42735 3.24847,1.21368 l -2.436352,-2.42736 1.218176,-1.21368 c 2.436351,4.45016 6.090879,-0.40456 8.933289,2.0228 z"
   id="path128"
   style="stroke-width:0.999998" />
	<path
   class="st5"
   d="m 157.53257,233.10211 c -2.03029,2.42736 3.65453,8.9003 -2.43635,6.8775 0,-2.42736 -1.62423,-7.28206 2.43635,-6.8775 z"
   id="path130" />
	<path
   class="st5"
   d="m 66.57544,235.52947 h -2.436352 l 0.812118,-2.42736 c 1.624234,0.40456 1.218176,1.61824 1.624234,2.42736 z"
   id="path132" />
	<path
   class="st5"
   d="m 175.39915,235.93403 h -2.43635 l -0.40606,-2.42736 c 1.62424,0 2.84241,1.61824 2.84241,2.42736 z"
   id="path134" />
	<path
   class="st5"
   d="m 185.55062,240.78873 -0.81212,0.80912 c -2.43635,-1.21368 -4.06058,-4.0456 -4.06058,-6.8775 l 0.81211,-1.21368 c 0.40606,2.42736 7.30906,3.23647 4.06059,7.28206 z"
   id="path136" />
	<path
   class="st5"
   d="m 154.2841,241.59785 c -0.81211,1.61823 -1.62423,-0.40456 -2.43635,-0.40456 -1.21817,-1.21368 -0.40606,-3.64104 -0.40606,-5.25926 l 2.0303,-0.80912 c 0.40606,1.21368 -0.81212,4.8547 0.81211,6.47294 z"
   id="path138" />
	<path
   class="st3"
   d="m 168.90222,237.14769 v 0.80912 c -7.30906,4.0456 -14.21206,9.30487 -21.92717,12.13677 -0.81212,-0.40456 -1.62423,-0.80912 -2.03029,-1.61822 7.30905,-4.85472 15.43022,-8.09119 23.95746,-11.32767 z"
   id="path140"
   style="stroke-width:0.999998" />
	<path
   class="st5"
   d="m 149.81746,237.14769 c -0.40606,2.0228 0.40606,4.45016 1.62423,5.66383 h -2.84241 l -0.40606,-4.04559 c -0.40605,0 -1.21817,0.80912 -1.21817,1.21368 -1.21818,2.0228 3.65453,5.25927 -0.81212,4.85471 -1.21817,-1.21368 -1.62423,-3.64103 -0.81211,-5.25927 1.21817,-0.80912 2.43635,-2.42736 4.46664,-2.42736 z"
   id="path142" />
	<path
   class="st5"
   d="m 67.793616,238.76593 c -0.812118,0.80912 -1.218176,1.21368 -2.436352,0.80912 -0.812118,-0.80912 -2.030294,-1.61824 -0.812118,-2.42736 0.812118,1.21368 3.654528,-0.40455 3.24847,1.61824 z"
   id="path144" />
	<path
   class="st5"
   d="m 175.80521,240.38417 v 0.80912 c -1.21817,0.40456 -3.24847,-0.80912 -3.65453,-2.0228 0,-0.80912 -0.40605,-1.61824 0.81212,-1.61824 2.03029,-0.80911 1.21818,2.42736 2.84241,2.83192 z"
   id="path146" />
	<path
   class="st3"
   d="m 55.611857,239.57505 -2.030293,-0.40456 v -1.61824 c 0.406058,0.80912 2.030293,0.40456 2.030293,2.0228 z"
   id="path148"
   style="stroke-width:0.999998" />
	<path
   class="st3"
   d="m 127.89029,239.97961 c -0.40605,0.40456 -0.81211,0.40456 -1.21817,0.80912 -0.81212,-0.80912 -1.62424,-2.42736 -0.40606,-3.23648 1.62423,0 1.21818,1.61824 1.62423,2.42736 z"
   id="path150"
   style="stroke-width:0.999998" />
	<path
   class="st5"
   d="m 184.7385,244.42976 c -1.62423,1.21368 -3.24847,-0.80912 -4.8727,-0.80912 -1.21818,-1.21367 -0.40606,-2.83191 -0.40606,-4.45015 l 0.81212,-0.80912 c 0,2.42736 3.24847,4.0456 4.46664,6.06839 z"
   id="path152" />
	<path
   class="st5"
   d="m 169.30827,239.97961 c -0.40605,2.42736 4.46665,3.64103 2.43636,6.47295 -0.81212,0.40456 -1.62424,0.80912 -2.43636,0.80912 0.40606,-2.42736 -1.62423,-3.64104 -2.84241,-5.66383 0.40606,-0.80912 1.62424,-1.61824 2.84241,-1.61824 z"
   id="path154" />
	<path
   class="st5"
   d="m 144.94476,246.45256 c -1.62424,0 -2.84242,-0.80912 -3.24847,-2.42736 0,-1.21368 -0.40606,-3.23647 0.81211,-4.04559 2.0303,1.21368 0.81212,4.85471 2.43636,6.47295 z"
   id="path156" />
	<path
   class="st3"
   d="m 55.205798,242.00241 v 0.80911 c -0.812117,-0.40455 -2.436352,-0.40455 -3.248469,-1.21367 0.812117,-2.0228 2.436352,-0.40456 3.248469,0.40456 z"
   id="path158"
   style="stroke-width:0.999998" />
	<path
   class="st5"
   d="m 136.01146,267.08506 -0.40605,0.80912 c -2.84241,-1.21368 -3.24847,-4.45015 -4.46665,-6.87751 -5.68482,-5.25926 -7.71511,-13.35043 -6.49694,-20.22794 0.81212,10.11397 6.903,17.8006 11.36964,26.29633 z"
   id="path160" />
	<path
   class="st3"
   d="m 58.860326,241.19329 c 0,2.02279 -2.030294,3.64103 -2.030294,5.66383 0,-1.61824 0.406059,-4.0456 0.812118,-5.66383 z"
   id="path162"
   style="stroke-width:0.999998" />
	<path
   class="st3"
   d="m 66.169382,241.19329 c -0.812118,3.23647 -1.624236,7.28207 -4.872704,9.70941 0,0.40456 -0.406059,1.21368 0.406058,1.21368 2.436352,-1.21368 3.654528,-3.64102 5.278762,-5.66382 -1.218176,1.61824 -1.624234,4.8547 -4.060586,6.47294 -1.624234,-0.80912 -2.84241,-2.83192 -4.872704,-2.42736 -0.406058,-2.02278 0.406059,-4.8547 2.030294,-6.06838 1.624234,0.80912 0.406058,4.0456 3.248468,3.23648 2.842412,-1.61824 -0.406058,-5.66383 2.842412,-6.47295 z"
   id="path164"
   style="stroke-width:0.999998" />
	<path
   class="st3"
   d="m 129.10847,245.23888 -1.21818,1.61824 c -2.03029,-0.80912 -0.40605,-2.83192 -1.21817,-3.64104 l 1.62423,-1.21367 c 1.21818,0.40456 1.62424,2.02279 0.81212,3.23647 z"
   id="path166"
   style="stroke-width:0.999998" />
	<path
   class="st5"
   d="m 140.88417,246.048 -2.43635,-2.42736 c -0.40606,-1.21367 1.21817,-1.21367 2.03029,-1.61823 z"
   id="path168" />
	<path
   class="st5"
   d="m 173.77492,245.23888 c -0.81212,-0.40456 -1.21818,-2.0228 -0.81212,-2.83191 l 2.84241,1.21367 z"
   id="path170" />
	<path
   class="st5"
   d="m 168.0901,246.45256 c 0,1.61824 -0.81212,2.8319 -2.43635,3.64102 -1.62424,-0.40456 -0.81212,-2.8319 -2.0303,-4.04558 l -2.03029,-2.42736 c 3.24847,-3.64103 4.8727,1.61824 6.49694,2.83192 z"
   id="path172" />
	<path
   class="st5"
   d="m 72.26026,246.45256 c -0.406058,1.61824 -1.624234,0 -2.436352,0 -1.218176,-0.40456 -0.812116,-2.42736 -0.406058,-3.64104 1.624234,-0.80911 4.466646,1.61824 2.84241,3.64104 z"
   id="path174" />
	<path
   class="st5"
   d="m 55.205798,248.8799 v 0 c -1.218176,0.80912 -2.84241,0 -3.654528,-0.8091 l 0.812118,-4.45016 c 3.248469,-0.40456 2.84241,2.83192 2.84241,5.25926 z"
   id="path176" />
	<path
   class="st5"
   d="m 123.01759,248.47536 c -0.81212,0.8091 -2.43635,1.61822 -3.65453,1.21366 -0.81212,-0.40456 -1.21818,-1.61822 -0.81212,-2.42734 l 3.65453,-3.23648 c 0,1.61824 0.81212,2.83192 0.81212,4.45016 z"
   id="path178" />
	<path
   class="st5"
   d="m 163.62345,250.49814 c -3.65453,2.0228 -0.40606,-4.04558 -4.06058,-4.45014 -0.40606,-0.80912 0.40605,-1.21368 0.81211,-1.61824 2.0303,1.21368 2.84241,4.0456 3.24847,6.06838 z"
   id="path180" />
	<path
   class="st3"
   d="m 178.64762,244.83432 c -1.62423,2.42736 -5.27876,3.64104 -7.71511,6.06838 -4.46665,2.0228 -8.12117,7.28207 -12.99388,5.66383 0.81212,-2.42735 4.06059,-1.61824 5.68482,-3.23647 4.87271,-2.83192 9.74541,-6.47294 15.02417,-8.49574 z"
   id="path182"
   style="stroke-width:0.999998" />
	<polygon
   class="st3"
   points="13.3,60.8 13.2,60.6 13.3,60.6 "
   id="polygon184"
   transform="matrix(4.0605863,0,0,4.0455898,-3.6727036,0.07613974)"
   style="stroke-width:0.246725" />
	<path
   class="st5"
   d="m 72.66632,254.13918 c -0.40606,2.02279 -1.624236,4.85471 -3.654528,5.25927 -1.624235,-2.83192 -8.93329,-5.25927 -3.24847,-8.49575 1.218176,-0.80912 2.030294,1.21368 2.84241,2.0228 0,0.40456 0.40606,0.80912 -0.406058,1.21368 l -2.030292,-0.80912 c -0.812118,1.21367 1.218175,1.61823 1.624234,2.83191 1.218176,-1.21368 3.654528,-3.23647 4.060586,-5.66383 l 2.436352,-4.8547 c 2.436352,2.42736 -0.812118,5.66382 -1.624234,8.49574 z"
   id="path186" />
	<path
   class="st5"
   d="m 185.14456,249.68902 c -1.62423,1.21368 -1.62423,3.64104 -4.06059,2.0228 -0.81211,-1.61824 -0.81211,-4.45014 -0.40605,-5.66382 2.03029,0.80912 6.49693,1.21368 4.46664,3.64102 z"
   id="path188" />
	<path
   class="st5"
   d="m 160.78104,250.09358 c 0,0.80912 0,3.23648 -1.62423,3.64104 -0.81212,-1.61824 -1.62424,-4.0456 -3.24847,-5.66382 1.21818,-3.64104 4.46664,0 4.8727,2.02278 z"
   id="path190" />
	<path
   class="st5"
   d="m 182.30215,254.13918 c -0.40606,1.61823 -2.43635,0.80911 -3.24847,0.80911 -0.81212,0 -1.62423,-0.80911 -1.62423,-1.61823 0,-2.42736 -0.40606,-5.25926 1.62423,-6.47294 1.62424,2.02278 -0.81212,6.8775 3.24847,7.28206 z"
   id="path192" />
	<path
   class="st3"
   d="m 129.51453,247.26168 c 1.62423,1.61822 -2.03029,2.02278 -0.40606,3.64102 1.21817,0.80912 0.81212,-2.0228 2.03029,-0.80912 l -1.62423,1.21368 c -0.81212,-0.80912 -1.21818,-2.0228 -0.81212,-3.64102 0.40606,0 0.40606,-0.40456 0.81212,-0.40456 z"
   id="path194"
   style="stroke-width:0.999998" />
	<path
   class="st5"
   d="m 70.636026,250.49814 c -0.406058,0.40456 -1.218176,0.80912 -1.624234,0.40456 -0.812118,-0.80912 -1.218176,-2.42734 -0.812118,-3.64102 1.218176,1.21368 3.654528,1.21368 2.436352,3.23646 z"
   id="path196" />
	<path
   class="st5"
   d="m 79.163258,249.28446 h -2.436352 l 0.406058,-1.61822 c 0.812118,0 1.218176,1.21366 2.030294,1.61822 z"
   id="path198" />
	<path
   class="st5"
   d="m 134.38723,250.49814 c -2.03029,0.80912 -2.43635,-1.61824 -2.43635,-2.42734 z"
   id="path200" />
	<path
   class="st5"
   d="m 157.12652,253.73462 -1.62424,0.80911 c 0.40606,-2.02279 -3.65453,-5.25927 -0.81212,-6.47293 0.81212,2.02278 2.84241,3.23646 2.43636,5.66382 z"
   id="path202" />
	<path
   class="st3"
   d="m 126.67212,271.13066 c -0.40606,1.21367 -2.43636,1.21367 -3.65453,0.80911 -5.68482,-6.06838 -7.71511,-15.37324 -5.68482,-23.05987 0.81211,8.09119 3.65453,15.77781 9.33935,22.25076 z"
   id="path204"
   style="stroke-width:0.999998" />
	<path
   class="st5"
   d="m 175.80521,249.68902 c -0.40606,2.83192 2.43635,6.06839 -0.40606,8.09119 -3.65452,-0.40456 -1.21817,-4.45015 -2.03029,-6.47295 0.81212,-0.80912 1.62423,-1.61824 2.43635,-1.61824 z"
   id="path206" />
	<path
   class="st3"
   d="m 147.38111,252.11638 c 2.03029,3.23647 4.46664,6.47295 4.46664,10.11397 1.62424,0.80912 0.81212,3.23648 0.81212,4.45015 -0.40606,0.80912 -0.81212,0.40456 -1.21818,0.40456 -1.62423,-3.64103 -3.65452,-7.28205 -7.71511,-9.70941 0.40606,-2.0228 4.06059,-1.61824 3.65453,-4.45015 -0.81212,-0.40456 -3.65453,-0.80912 -4.87271,0.40456 v 2.02279 c -1.21817,0 -1.62423,-1.61823 -2.03029,-2.42735 l 0.81212,-2.83192 c 2.03029,0 4.46664,0.40456 6.09088,2.0228 z"
   id="path208"
   style="stroke-width:0.999998" />
	<path
   class="st5"
   d="m 153.87805,252.9255 v 0.80912 c -2.0303,0.80911 -3.65453,-1.61824 -5.27877,-2.42736 1.62424,-2.0228 5.27877,-1.21368 5.27877,1.61824 z"
   id="path210" />
	<path
   class="st5"
   d="m 79.163258,251.30726 c 0,0.80912 0,1.21368 -0.812118,1.61824 -0.812117,-0.40456 -4.466644,0 -2.84241,-2.42736 1.218176,-0.40456 2.84241,0.40456 3.654528,0.80912 z"
   id="path212" />
	<path
   class="st3"
   d="m 81.599609,250.49814 c 0.406059,5.66383 -1.218176,11.73221 -5.684821,15.77781 l -0.812117,-0.80912 c 1.624235,-4.85472 4.466645,-10.11398 5.684821,-14.96869 z"
   id="path214"
   style="stroke-width:0.999998" />
	<path
   class="st5"
   d="m 114.89642,250.49814 c -0.40606,4.04559 -0.81212,8.49575 1.21817,12.13677 l -4.46664,3.23648 c -0.81212,0 -0.40606,-0.80912 -0.40606,-1.21368 0.40606,-3.23648 6.49694,-0.40456 3.24847,-3.64104 -1.62424,0.40456 -3.24847,2.0228 -4.46664,0.80912 l 4.8727,-3.23646 c -0.81212,-1.21368 -2.0303,-0.40456 -3.24847,0 l -1.62423,1.21368 c -0.81212,-0.40456 -0.40606,-1.61824 -0.40606,-2.42736 l 4.8727,-3.23647 c -1.21818,-0.80912 -2.84241,0 -3.65453,0.40455 -0.40606,0.40456 -0.81211,0.40456 -0.81211,0.40456 -1.21818,-2.42735 2.8424,-3.23647 4.8727,-4.45015 z"
   id="path216" />
	<path
   class="st5"
   d="m 124.23576,252.52094 c 0.40606,2.02279 -2.43634,1.21368 -3.65452,2.02279 -1.21818,0 -1.21818,-1.21367 -1.62424,-2.02279 -0.81212,-2.0228 1.62424,-1.21368 2.43636,-2.0228 1.62423,0 2.8424,0.40456 2.8424,2.0228 z"
   id="path218" />
	<path
   class="st5"
   d="m 87.28443,252.9255 v 2.02279 c -1.624234,0.80912 -2.436352,-1.61823 -3.654528,-2.42735 l 0.406059,-2.0228 c 0.812117,1.21368 2.84241,0.80912 3.248469,2.42736 z"
   id="path220" />
	<path
   class="st5"
   d="m 172.15068,251.71182 c 0.40606,2.42736 0.40606,5.66383 0,7.28207 -0.81211,-1.21368 -2.43635,-0.80912 -2.84241,-2.42736 -0.40605,-2.0228 0.81212,-4.45015 2.84241,-4.85471 z"
   id="path222" />
	<path
   class="st7"
   d="m 60.890619,263.03947 6.090879,32.36472 14.212052,74.43885 14.212053,72.82062 v 1.21368 C 93.781368,444.2819 90.938958,444.2819 90.12684,442.66366 83.629902,406.65791 75.102671,371.86584 69.41785,335.45553 l -11.7757,-65.13399 c -0.812118,-6.06839 -2.030293,-12.13677 -2.842411,-17.8006 6.496939,-1.21368 4.466645,6.87751 6.09088,10.51853 z"
   id="path224" />
	<path
   class="st3"
   d="m 131.13876,252.9255 c -0.40606,0 -0.40606,0 -0.81212,0.40456 -0.81211,-0.40456 0.40606,-0.80912 0.81212,-0.80912 z"
   id="path226"
   style="stroke-width:0.999998" />
	<path
   class="st3"
   d="m 135.19935,253.33006 v 0.80912 h -1.21818 v -1.21368 c 0.81212,-0.40456 0.81212,0 1.21818,0.40456 z"
   id="path228"
   style="stroke-width:0.999998" />
	<path
   class="st3"
   d="m 92.157133,256.97109 c -0.812117,5.66382 0,12.13677 -4.872703,16.18235 -0.812117,-0.40456 -1.624234,-0.40456 -2.436352,-0.80911 2.842411,-4.45015 3.654528,-9.70942 4.060587,-14.96868 0.406058,-0.80912 2.030293,-0.80912 1.624234,-2.0228 -0.812117,-0.40456 -2.436352,-0.40456 -2.030293,-2.02279 2.84241,0 2.84241,2.02279 3.654527,3.64103 z"
   id="path230"
   style="stroke-width:0.999998" />
	<path
   class="st3"
   d="m 132.763,254.54373 c 0.40606,0.80912 -0.40606,0.80912 -0.81212,1.21368 -0.81212,-0.40456 -0.81212,-1.61823 0,-2.02279 0,0 0.40606,0.80911 0.81212,0.80911 z"
   id="path232"
   style="stroke-width:0.999998" />
	<path
   class="st5"
   d="m 142.91446,258.99389 v 0.80912 c -2.43635,-0.40456 -6.09088,2.42734 -7.30905,-1.21368 0.81211,-1.21368 -1.62424,-1.61824 -0.40606,-2.83192 1.62423,-0.80912 1.62423,1.61824 2.84241,1.21368 0.40606,-0.80912 -0.40606,-2.0228 -1.21818,-2.42736 3.24847,-0.80911 3.24847,3.64104 6.09088,4.45016 z"
   id="path234" />
	<path
   class="st5"
   d="m 77.945082,256.16197 c -1.624235,0 -2.842411,-0.40456 -3.654528,-0.80912 0,-1.61823 2.84241,-0.80912 3.654528,-0.40456 z"
   id="path236" />
	<path
   class="st3"
   d="m 161.1871,258.58933 c 0.40606,1.61823 2.84241,0.80912 3.65453,1.61823 3.24847,2.42735 7.71511,2.02279 10.96358,4.04559 -0.81212,4.04559 -4.8727,3.64103 -8.12117,3.23647 -6.903,-2.02279 -16.24235,-3.64103 -17.46052,-12.94589 l 0.40606,-0.40455 c 3.24847,2.42735 6.49694,4.04559 10.55752,4.45015 z"
   id="path238"
   style="stroke-width:0.999998" />
	<path
   class="st5"
   d="m 169.71433,260.20756 c -1.62423,0.40455 -2.84241,-0.80911 -4.06058,-2.02279 0.40605,-1.21368 0,-3.23648 2.03029,-3.64104 1.62423,1.21368 0.40606,4.0456 2.03029,5.66383 z"
   id="path240" />
	<path
   class="st3"
   d="m 107.58736,254.54373 c 2.0303,6.47294 0,14.96869 6.903,19.82339 -0.40606,0.80912 -1.62424,1.21368 -2.43636,0.80912 -4.8727,-4.8547 -4.8727,-11.73221 -6.09087,-18.20515 0,-0.80912 -0.40606,-2.83191 1.62423,-2.42736 z"
   id="path242"
   style="stroke-width:0.999998" />
	<path
   class="st5"
   d="m 125.45394,256.16197 c 0.40606,1.61824 -0.81212,1.61824 -1.62423,2.0228 -1.21818,-0.40456 -2.84241,1.21368 -3.24847,-0.80912 -0.40606,-1.61824 4.06058,-3.64103 4.8727,-1.21368 z"
   id="path244" />
	<path
   class="st5"
   d="m 87.28443,258.58933 c -0.812117,1.61823 -2.030293,0.80912 -2.84241,-0.40456 -0.406059,-0.80912 -2.030294,-2.0228 -0.812118,-3.23648 0.812118,1.21368 2.842411,2.0228 3.654528,3.64104 z"
   id="path246" />
	<path
   class="st5"
   d="m 98.654071,256.16197 v 1.21368 c -1.624234,-0.40456 -4.872703,0.80912 -5.278762,-1.21368 l 0.406059,-1.21368 c 1.218176,0.80912 3.248469,-0.40456 4.872703,1.21368 z"
   id="path248" />
	<path
   class="st5"
   d="m 104.33889,255.35285 c 0.40606,1.61824 0.81212,3.64104 -0.40605,4.85471 -1.62424,-0.40455 -0.81212,-2.02279 -2.0303,-2.42735 -0.40606,6.06838 1.21818,14.56412 -2.842409,19.01427 h -2.030294 c 0.812118,-2.0228 2.030294,-4.85471 1.624234,-7.28206 l -0.812116,1.21368 c -1.218176,-2.42736 -6.09088,-1.61824 -5.278763,-4.85471 2.030293,-0.80912 4.060587,0.80911 5.278763,2.42735 l 0.812116,1.21368 c 2.030289,-3.64103 1.624229,-8.90031 1.624229,-13.35045 l 1.62424,1.21368 c -0.40606,-1.21368 0.81212,-2.42736 2.43635,-2.0228 z"
   id="path250" />
	<path
   class="st1"
   d="m 73.072378,266.27595 0.812118,1.61823 c 10.963582,8.09118 24.363517,16.18236 38.575564,10.11398 8.12118,-4.45016 18.27264,-3.64104 25.5817,-8.49574 h 1.62423 c 5.68483,8.09118 12.99388,12.94589 21.11505,17.39603 -0.81212,4.85471 -4.8727,9.30486 -7.30905,14.15957 -8.93329,14.15956 -18.27264,27.51001 -26.79987,42.07413 -13.806,12.54133 -26.799873,23.86898 -41.011924,36.00575 -5.684822,-22.25075 -8.93329,-46.11973 -13.805994,-69.17959 -3.654528,-17.80059 -6.902996,-35.19663 -10.151466,-52.99722 5.278762,1.21368 7.309056,7.28206 11.369642,9.30486 z"
   id="path252" />
	<path
   class="st5"
   d="m 76.726906,258.18477 c -0.812118,2.02279 -2.84241,-0.40456 -4.060586,0 l 0.812116,-1.61824 c 0.812118,0.40456 2.842411,0 3.24847,1.61824 z"
   id="path254" />
	<path
   class="st5"
   d="m 136.01146,260.61211 c 0.40606,0.80912 -0.40605,1.21368 -0.81211,1.61824 -2.03029,0 -2.03029,-2.42734 -2.84241,-3.64102 l 0.81212,-2.0228 c 1.21817,0.80912 2.43635,2.42736 2.8424,4.04558 z"
   id="path256" />
	<path
   class="st5"
   d="m 164.43557,257.37565 v 0.80912 h -1.62423 c 0.40605,-0.80912 1.21817,-1.61824 1.62423,-0.80912 z"
   id="path258" />
	<path
   class="st5"
   d="m 177.42945,261.82579 c -1.62424,0.80912 -3.24847,-0.40456 -4.87271,-0.40456 1.21818,-2.42734 4.46665,-3.23646 6.903,-4.04558 0.81212,1.21368 -1.62423,2.83191 -2.03029,4.45014 z"
   id="path260" />
	<path
   class="st5"
   d="m 130.32664,264.25315 c 0.81212,1.21368 2.0303,2.83191 0.81212,4.45015 -0.81212,1.21368 -2.03029,2.0228 -3.65452,1.61824 l -2.0303,-2.42736 c 1.62424,-0.80912 3.24847,-2.02279 4.8727,-3.64103 -2.03029,-0.40456 -5.68482,4.45015 -6.49693,0 1.21817,-0.40456 3.24847,-0.80912 3.65453,-2.42736 -2.0303,-0.40456 -4.46665,2.0228 -5.68482,-0.80912 0.81211,-1.21366 3.24846,-2.02278 5.27876,-2.42734 z"
   id="path262" />
	<path
   class="st5"
   d="m 98.654071,260.61211 c 0,0.80912 0.40606,1.61824 -0.406058,2.0228 -0.812118,-2.42735 -6.09088,0 -4.872704,-3.64102 2.030294,-0.80912 4.466646,0 5.278762,1.61822 z"
   id="path264" />
	<path
   class="st5"
   d="m 87.28443,261.01667 -0.406059,2.42736 c -1.624234,0.80912 -3.248469,-0.40456 -4.466645,-1.21368 -2.030293,-0.80912 -0.812117,-2.42734 0,-3.23646 1.218176,0.80912 2.842411,2.42734 4.872704,2.02278 z"
   id="path266" />
	<path
   class="st5"
   d="m 75.102671,261.82579 c 0.406059,0.80912 -0.406059,1.61824 -0.812117,2.0228 -2.030294,0.40456 -2.030294,-2.0228 -3.24847,-2.83192 -0.406058,-0.80911 1.218176,-0.80911 1.624236,-1.21366 0.812116,0.40455 2.84241,0.40455 2.436351,2.02278 z"
   id="path268" />
	<path
   class="st5"
   d="m 145.75687,261.42123 c -2.03029,0.80912 -4.06058,1.21368 -6.49693,0.80912 l -0.40606,-0.80912 z"
   id="path270" />
	<path
   class="st5"
   d="m 105.55707,263.44403 c 0,0.40456 0.40606,1.61824 -0.81212,1.61824 h -0.81211 l -0.40606,-3.23648 c 1.62423,-0.40456 1.62423,0.80912 2.03029,1.61824 z"
   id="path272" />
	<path
   class="st5"
   d="m 138.44782,263.44403 c 0.40606,0.80912 -0.81212,1.61824 -1.21818,2.0228 -0.81212,0.40456 -1.21818,-0.40456 -1.62423,-0.80912 -0.40606,-1.21368 0.81211,-1.61824 1.21817,-2.42736 0.81212,0 1.21818,0.80912 1.62424,1.21368 z"
   id="path274" />
	<path
   class="st5"
   d="m 98.248013,265.87139 c -1.624234,0 -3.654528,-0.80912 -5.278762,-1.61824 0,-1.61824 2.436352,-2.0228 3.248469,-0.80912 0.406059,0.80912 2.030293,1.21368 2.030293,2.42736 z"
   id="path276" />
	<path
   class="st5"
   d="m 149.00534,268.29874 c -1.21817,0.80912 -2.43635,0.80912 -3.65452,0.40456 -1.62424,-0.80912 -0.81212,-2.83191 -0.81212,-4.45015 0.81212,-1.21368 2.03029,-0.80912 2.84241,-1.21368 0.40606,2.0228 2.43635,2.83192 1.62423,5.25927 z"
   id="path278" />
	<path
   class="st5"
   d="m 86.066254,265.87139 v 0.80911 c -1.624234,0.40456 -4.466645,0.80912 -5.278762,-1.61823 l -0.406059,-2.0228 c 1.624235,1.61824 4.060587,2.0228 5.684821,2.83192 z"
   id="path280" />
	<path
   class="st5"
   d="m 142.91446,266.6805 c -1.21817,0 -2.03029,-1.61823 -2.84241,-2.42735 0.40606,-0.80912 2.03029,-0.40456 3.24847,0 z"
   id="path282" />
	<path
   class="st5"
   d="m 156.72046,265.46683 c -0.40606,0.80912 -1.62424,1.21367 -2.43636,0.80912 l 0.40606,-2.0228 z"
   id="path284" />
	<path
   class="st5"
   d="m 117.33277,266.27595 c -2.43635,-0.40456 -3.65453,4.04559 -5.68482,2.02279 1.21817,-2.02279 4.06059,-4.85471 5.68482,-2.02279 z"
   id="path286" />
	<path
   class="st5"
   d="m 84.44202,268.7033 c -0.406059,0.80912 -0.812118,3.64103 -2.436352,2.42736 -2.030294,-1.21368 -3.24847,-2.42736 -4.466645,-3.64104 0.406059,-0.40456 0,-2.42735 1.624235,-2.42735 1.218175,1.61823 2.84241,4.85471 5.278762,3.64103 z"
   id="path288" />
	<path
   class="st5"
   d="m 140.07205,266.27595 c -0.81211,0.40455 -1.21817,1.21367 -2.03029,0.80911 0,-0.80911 1.21818,-1.61823 2.03029,-0.80911 z"
   id="path290" />
	<path
   class="st5"
   d="m 105.96313,267.89418 c 0.81211,1.61824 -0.81212,0.80912 -1.62424,1.21368 -0.40605,0 -0.81211,-0.40456 -0.81211,-0.80912 -1.21818,-2.02279 2.8424,-2.83191 2.43635,-0.40456 z"
   id="path292" />
	<path
   class="st3"
   d="m 158.34469,267.08506 c -0.81212,1.21368 -2.84241,1.61824 -4.46664,2.0228 1.21817,-1.61824 2.84241,-2.0228 4.46664,-2.0228 z"
   id="path294"
   style="stroke-width:0.999998" />
	<path
   class="st5"
   d="m 165.65375,271.13066 c 0.40605,0.80911 0.40605,1.61822 0.40605,2.42734 -0.81211,0 -0.81211,0.80912 -1.62423,0.80912 l -4.06059,-5.66382 c 2.0303,-2.42735 5.27877,0.40456 5.27877,2.42736 z"
   id="path296" />
	<path
   class="st5"
   d="m 145.35082,271.53522 c 2.03029,-0.40456 5.68482,-0.40456 7.30905,2.02278 1.21818,0 0.81212,1.61824 1.62423,2.42736 -0.40605,1.21368 -1.62423,1.21368 -2.43635,1.61824 -2.84241,-0.40456 -6.09088,-3.23648 -6.49693,-6.06838 -0.81212,0 -2.0303,-1.21368 -2.43636,-2.42736 l 0.40606,-0.80912 c 0,1.21368 3.65453,1.21368 2.0303,3.23648 z"
   id="path298" />
	<path
   class="st3"
   d="m 133.57512,268.29874 c 0,0.40456 0,0.80912 -0.40606,0.80912 h -0.81212 c 0.40606,0 0.40606,-1.21368 1.21818,-0.80912 z"
   id="path300"
   style="stroke-width:0.999998" />
	<path
   class="st5"
   d="m 118.55094,269.10786 c -1.21817,0.80912 -2.8424,2.0228 -4.06058,3.64102 -0.81212,-0.40455 -1.21818,-1.21366 -0.81212,-2.42734 1.21818,-1.61824 3.24847,-2.0228 4.8727,-1.21368 z"
   id="path302" />
	<path
   class="st5"
   d="m 162.40528,275.17624 c -0.81212,0 -1.21818,1.61824 -2.43636,0.80912 1.21818,-3.64103 -8.93328,-6.06838 -1.21817,-7.28206 1.21817,2.42736 4.06059,3.64103 3.65453,6.47294 z"
   id="path304" />
	<path
   class="st5"
   d="m 169.30827,271.13066 c 1.21818,-0.40456 1.21818,-2.42736 2.84241,-1.21368 -0.81211,0.80912 -0.81211,2.02279 -2.03029,2.42735 -2.84241,2.02279 -3.24847,-2.02279 -4.06059,-3.64103 2.0303,-0.40456 3.65453,0.80912 3.24847,2.42736 z"
   id="path306" />
	<path
   class="st5"
   d="m 96.623779,273.15344 c -1.624235,0 -3.654528,-1.21367 -5.684821,-1.21367 -0.812118,-0.80911 0,-2.02279 0.812117,-2.42735 2.84241,-1.21368 3.654528,2.83191 4.872704,3.64102 z"
   id="path308" />
	<path
   class="st5"
   d="m 107.58736,271.93977 c 0.40606,2.02279 -2.03029,1.61823 -3.24847,2.02279 -0.81211,0 -2.03029,0.40456 -2.03029,-0.80912 0.81212,-0.80911 -0.40606,-2.8319 1.21818,-3.23646 1.21817,-0.40456 3.65452,0 4.06058,2.02279 z"
   id="path310" />
	<path
   class="st5"
   d="m 157.93863,276.38992 c -3.65453,1.61824 -2.84241,-4.8547 -6.49694,-5.25926 3.24847,-3.23648 4.06059,2.8319 6.49694,3.23646 z"
   id="path312" />
	<path
   class="st5"
   d="m 121.39336,272.34433 c -0.81212,1.61823 -3.65453,1.21367 -5.27877,1.61823 -0.40605,-1.21368 0.81212,-1.61823 1.21818,-2.02279 1.21817,0 3.24847,-0.80911 4.06059,0.40456 z"
   id="path314" />
	<path
   class="st5"
   d="m 95.405603,275.17624 c 0,0.80912 0,1.21368 -0.812118,1.61824 -2.030293,-0.80912 -6.090879,-0.80912 -6.090879,-3.64104 1.218176,-0.80911 3.654527,-0.40456 5.278762,0.40456 0.812117,0.80912 1.218176,1.21368 1.624235,1.61824 z"
   id="path316" />
	<path
   class="st3"
   d="m 168.0901,276.79448 c -4.06059,2.42735 -9.33935,3.23647 -14.61811,3.23647 -0.40606,-0.40456 -0.81212,-0.80912 -0.81212,-1.21368 5.27876,-1.21367 11.36964,-1.21367 15.83629,-4.85471 1.21817,0.80912 -0.40606,2.0228 -0.40606,2.83192 z"
   id="path318"
   style="stroke-width:0.999998" />
	<path
   class="st5"
   d="m 110.42977,275.98536 c -2.84241,0.80912 -6.49693,2.42736 -9.33935,0.80912 0.40606,-2.83192 4.87271,-0.80912 6.49694,-2.83192 2.0303,-0.80912 1.21818,1.61824 2.84241,2.0228 z"
   id="path320" />
	<path
   class="st5"
   d="m 166.0598,279.62639 c -1.21817,1.61824 -1.62423,5.66382 -4.06058,4.8547 -1.62424,-1.21367 -3.65453,-1.21367 -4.8727,-2.8319 2.8424,-1.21368 6.09087,-1.21368 8.93328,-2.0228 z"
   id="path322" />
	<path
   class="st4"
   d="m 250.92606,305.92273 c 4.8727,2.8319 10.96358,2.02279 15.83629,4.45014 -1.62424,7.68662 0.81212,17.39604 -4.46665,23.86898 -2.03029,0.40456 -3.24847,-2.42735 -5.27876,-2.83191 -13.80599,-4.04559 -25.17564,-13.35045 -35.3271,-23.86898 l -0.81212,-0.80912 c 3.65453,-4.04559 9.33935,-4.8547 14.21205,-7.68662 4.8727,2.83192 10.96358,3.23648 15.83629,6.87751 z"
   id="path324"
   style="stroke-width:0.999998" />
	<path
   class="st4"
   d="m 221.28378,309.96831 c 2.84241,2.83192 4.46664,4.85471 7.71511,7.68663 6.49694,8.09118 15.83629,11.73221 24.36352,15.77779 0.81212,2.0228 1.62424,3.64104 0,5.66383 -2.0303,3.23647 -6.09088,7.68662 -9.7454,8.9003 -4.87271,3.64103 -10.15147,6.06838 -15.02418,10.11397 -2.84241,1.21368 -5.68482,4.0456 -8.52723,4.85471 -0.40605,-1.61823 -1.21817,-4.04559 -3.65453,-4.85471 -6.09088,0.80912 -10.96358,4.85471 -16.6484,5.25927 1.21818,-0.80912 0.81212,-2.83191 0.40606,-4.04559 -3.65453,-4.04559 -9.33935,-0.40456 -13.80599,-1.21368 -8.52723,-2.42735 -15.02417,-8.49573 -24.76958,-7.68662 l -7.30906,0.40456 c 0.40606,-5.25927 3.24847,-10.51853 4.06059,-16.18236 19.49082,-9.70941 39.79375,-17.80059 59.28456,-27.51001 -0.40606,-0.40456 2.84241,2.02279 3.65453,2.83191 z"
   id="path326"
   style="stroke-width:0.999998" />
	<path
   d="m 231.43525,328.98259 c 2.03029,3.64102 5.68482,6.06838 8.12116,8.9003 1.62424,2.02279 4.87271,1.21367 5.27877,4.04558 -8.93329,-2.42735 -14.61811,-12.54132 -20.70899,-19.41883 l -6.49694,-8.09118 c 6.09088,3.23648 9.33935,9.70942 13.806,14.56413 z"
   id="path328"
   style="stroke-width:0.999998" />
	<path
   d="m 237.12007,345.16494 c 0,0.40456 0.40606,0.80912 -0.40606,1.21368 -10.55753,-4.04559 -11.7757,-16.58692 -19.89688,-23.05986 l 0.40606,-1.21368 c 8.12118,6.47295 9.74541,17.8006 19.89688,23.05986 z"
   id="path330"
   style="stroke-width:0.999998" />
	<path
   d="m 190.82938,332.21906 c 3.24847,6.47294 3.65453,14.15956 8.93329,19.41883 v 0.80912 l -1.21818,-0.40456 c -4.8727,-6.06839 -6.49693,-13.755 -9.7454,-20.63251 -0.81212,-2.02279 -2.84241,-3.23647 -2.84241,-5.25926 1.62423,1.61823 4.06058,4.04558 4.8727,6.06838 z"
   id="path332"
   style="stroke-width:0.999998" />
	<path
   d="m 205.04143,330.60082 c 5.27876,7.68663 7.30906,17.39604 15.02417,24.27354 v 2.83191 c -1.62423,-1.21368 -2.84241,-3.23647 -4.06058,-5.66382 -5.68483,-7.68663 -8.52723,-17.39604 -15.83629,-24.27354 1.21818,-1.21368 3.24847,1.21368 4.8727,2.83191 z"
   id="path334"
   style="stroke-width:0.999998" />
	<path
   d="m 189.61121,337.47833 c 2.43635,6.06838 2.84241,12.94588 5.68482,18.60971 -4.06059,-1.21368 -4.06059,-6.47294 -4.87271,-10.51854 -2.43635,-4.8547 -2.43635,-10.92309 -6.90299,-14.96868 l -0.40606,-3.23647 c 2.84241,2.42735 4.8727,6.47294 6.49694,10.11398 z"
   id="path336"
   style="stroke-width:0.999998" />
	<path
   d="m 197.32632,331.8145 c 5.68482,7.68662 7.30905,16.58692 14.61811,23.05986 -2.03029,0.80912 -4.06059,-2.42735 -6.09088,-3.64103 0,-4.04559 -4.8727,-6.47295 -4.8727,-10.51853 -1.21818,-3.23647 -4.46665,-5.66383 -5.27876,-9.30486 z"
   id="path338"
   style="stroke-width:0.999998" />
	<path
   class="st2"
   d="m 155.50228,335.05097 c -0.81212,6.06838 -4.06059,11.73221 -4.46664,18.20515 0,4.45015 0,8.09119 2.03029,11.32765 8.93329,8.49575 13.39993,20.63252 19.08475,31.15105 2.84241,6.06838 6.09088,12.13677 8.52724,18.20515 -1.62424,1.61824 0,3.64103 0.40605,4.85471 2.43636,2.42736 2.84241,6.47294 4.87271,9.70941 -1.62424,2.0228 -4.87271,2.0228 -5.68482,4.85472 0.81211,4.04558 -3.24847,5.66382 -4.06059,8.90029 -4.46664,-0.40456 -6.49694,7.28206 -11.36964,4.8547 -3.65453,0.80912 -4.46665,5.25927 -4.87271,8.09119 -25.58169,4.04558 -55.22397,16.99147 -80.805662,3.23646 -7.715114,-3.23646 -14.618112,-8.90029 -19.896874,-15.77779 -1.218176,-0.40456 -3.654527,-0.40456 -4.060586,1.61824 0.406059,4.8547 4.872704,8.09117 8.527232,11.73221 15.430228,12.94588 35.733159,16.58691 56.03609,14.56411 19.08476,-4.45014 40.1998,-8.49573 59.69062,-12.94588 30.04834,-6.8775 59.69062,-13.755 90.14501,-19.41883 7.30906,-2.0228 16.24235,-2.42736 21.11506,-9.70942 -1.62424,-3.64103 2.43634,-2.83191 4.06058,-4.04559 25.5817,-3.64102 49.94522,-11.73221 75.5269,-15.77779 -3.65452,35.19663 -35.3271,65.53855 -67.81178,76.46164 -6.49694,2.0228 -20.709,6.06839 -30.86046,5.66383 -28.4241,2.83191 -57.25427,16.58691 -70.24814,44.09693 h -0.81212 C 186.36274,510.22501 161.1871,491.21074 131.54482,491.21074 101.90254,489.99706 75.102671,480.6922 55.205798,458.0369 c -5.278762,-2.83191 -7.715114,-9.30486 -11.775701,-13.755 -3.248468,-5.66383 -6.496938,-11.73221 -8.52723,-18.20516 l 0.812116,-2.0228 c 13.805994,-11.73221 28.424105,-24.6781 42.636157,-35.60119 v 0 l 11.7757,55.42459 c 2.436352,1.61823 5.278763,0 8.121173,0 0,-8.49575 -9.339348,-50.56988 -11.369642,-63.51577 12.18176,-11.32765 25.581689,-22.25074 38.169509,-33.17383 -0.40606,1.21368 25.98776,-10.92309 30.4544,-12.13677 z"
   id="path340" />
	<path
   class="st8"
   d="m 248.89577,352.04245 v 1.21367 c -0.81212,0 -2.84242,-0.40456 -2.0303,1.21368 -0.40606,0.80912 0.40606,1.21368 0.81212,2.02279 2.43635,0.40456 4.8727,-2.02279 6.49694,-0.40455 0.81212,2.02279 -4.06059,2.83191 -0.81212,4.85471 4.46664,-3.64104 9.7454,-5.25927 15.83628,-4.0456 11.36965,2.0228 21.11506,10.9231 29.23622,18.60972 0,4.04559 -2.8424,7.68662 -4.06058,12.13676 -15.43022,-0.40456 -26.79986,-10.92309 -41.01192,-14.15955 -9.33935,-1.21368 -19.08476,-2.83192 -23.95746,-11.73221 4.8727,-4.45016 10.96358,-7.28207 16.6484,-10.51854 1.21818,-0.40456 2.0303,0 2.84242,0.80912 z"
   id="path342" />
	<path
   class="st8"
   d="m 178.64762,357.70627 c 0,1.61824 -1.62423,1.21368 -2.43635,2.42736 -1.21818,0 -2.03029,-0.80912 -2.84241,0.40456 -0.40606,0.80912 0.81212,1.21368 1.62423,1.61824 0.81212,0 1.62424,-0.40456 2.0303,0.40455 -0.40606,2.02279 -4.06059,2.83191 -2.43635,4.85471 1.21817,-1.21368 3.24847,-1.21368 4.46664,0 8.93329,8.49573 12.18176,20.6325 15.02417,31.96015 0.81212,2.83192 -0.40606,6.47295 2.03029,8.09119 -3.65452,4.04558 -8.52723,5.25926 -13.39993,5.66382 -9.33935,-15.77779 -15.02417,-33.17383 -25.58169,-47.73796 -1.62424,-0.80912 -3.24847,-2.02279 -3.65453,-4.04558 0,-2.83192 -1.62424,-7.68663 1.21817,-8.9003 9.33935,-0.80912 17.46052,0.80911 23.95746,5.25926 z"
   id="path344" />
	<path
   class="st3"
   d="m 194.07785,359.72907 c 2.03029,2.0228 1.62424,6.47294 5.27876,6.06838 6.09088,2.0228 10.96358,-7.28206 15.43023,-0.40456 4.46665,0.80912 8.52723,-0.80912 12.18176,-3.64102 4.06059,4.8547 7.71511,9.30485 12.99387,10.92309 20.30294,0.80912 34.51499,14.96867 54.41186,16.58691 -0.40606,1.61824 0.40606,2.83192 2.0303,3.64103 3.24846,-3.64103 5.27876,2.42736 8.93328,1.21368 0.40606,0.40456 0.81212,0.80912 0.81212,1.61824 -1.62424,0 -3.24846,1.21368 -3.65452,2.42736 -0.40606,2.8319 -0.40606,6.06837 2.8424,6.87749 3.24848,-1.21367 3.65454,2.42736 4.0606,3.64104 -0.81212,3.64102 -7.30906,3.64102 -6.49694,8.90029 -29.64228,4.45015 -65.7815,20.63251 -93.79955,0.40456 -2.43635,-0.80912 -4.8727,-4.85471 -8.12117,-2.83191 -1.62424,-2.83192 -0.40606,-6.47294 -3.65453,-8.49574 -1.62423,-15.7778 -6.49694,-30.74649 -17.86658,-41.66958 0.40606,-2.02279 0,-5.66382 2.84241,-6.47294 3.24847,1.21368 7.71511,1.61824 11.7757,1.21368 z"
   id="path346"
   style="stroke-width:0.999998" />
	<path
   class="st4"
   d="m 198.13844,361.34731 c -0.81212,0.40456 -0.81212,-0.40456 -1.21818,-0.80912 -0.40606,-0.80912 0.81212,-1.21368 1.21818,-0.80912 z"
   id="path348"
   style="stroke-width:0.999998" />
	<path
   class="st4"
   d="m 217.62925,361.34731 c 0.40606,1.21367 -0.81212,1.61823 -1.21818,2.02279 -1.21817,0 -1.62423,-1.21367 -2.43635,-2.02279 0.81212,-0.40456 2.43635,-2.0228 3.65453,0 z"
   id="path350"
   style="stroke-width:0.999998" />
	<path
   class="st9"
   d="m 301.68339,379.95702 c -0.40606,0.40455 -1.21818,0.80911 -0.81212,1.61823 1.62424,1.21368 1.21818,-1.21368 2.43636,-1.21368 0.81211,1.21368 -0.81212,3.23648 1.21816,3.64104 -0.81211,-2.0228 1.21818,-3.64104 0.81212,-6.06839 6.49694,-2.0228 10.15148,4.45015 15.43024,5.66383 -4.87271,3.23647 -1.21818,15.37323 -10.15148,11.32765 l -0.81211,-0.80912 c 2.43635,-1.21368 4.87271,-4.04559 4.46665,-6.47295 h -0.81212 l -5.68482,6.47295 c -2.0303,-3.23647 -6.903,-1.61824 -8.9333,-4.85471 -0.81211,0.40456 -1.21817,1.21368 -2.03028,1.61824 -0.40606,-6.06838 2.8424,-10.92309 4.06058,-16.58692 1.21818,1.21368 1.21818,3.64103 0.81212,5.66383 z"
   id="path352"
   style="stroke-width:0.999998" />
	<path
   class="st9"
   d="m 324.82873,381.97981 c -1.21818,6.06838 -5.68482,10.51853 -7.30906,16.58692 -3.24846,-1.61823 -6.903,2.02279 -9.33934,-2.02279 l 0.81212,-0.80912 6.49694,0.80912 c 3.24846,-4.45015 4.06058,-10.51853 7.30904,-14.96869 z"
   id="path354"
   style="stroke-width:0.999998" />
	<path
   class="st9"
   d="m 328.07719,387.64363 c 0,3.64104 -2.43634,5.66383 -4.06058,8.90031 -1.21818,5.66382 -2.0303,10.51853 -2.0303,16.18235 -1.62422,0.40456 -2.03028,-1.61824 -2.8424,-2.42735 0.81212,-4.45015 -1.62424,-10.11398 0.81212,-14.96868 l 5.68482,-10.51853 c 1.21818,1.21368 2.43634,1.61823 2.43634,2.8319 z"
   id="path356"
   style="stroke-width:0.999998" />
	<path
   class="st9"
   d="m 309.39851,398.97128 c 0,0.80912 -0.81212,0.80912 -1.21818,0.80912 -0.81212,-0.40456 -0.81212,-1.61822 0,-2.02278 0,0.40456 0.81212,0.40456 1.21818,1.21366 z"
   id="path358"
   style="stroke-width:0.999998" />
	<path
   class="st9"
   d="m 305.74397,402.61232 -2.03029,-0.40456 c -0.81211,-1.21368 -0.40605,-3.23648 0.81211,-3.64103 h 0.81212 z"
   id="path360"
   style="stroke-width:0.999998" />
	<path
   class="st9"
   d="m 317.11361,400.18496 c -2.8424,0.80912 -6.49694,2.0228 -9.33934,2.0228 2.03029,-2.0228 5.68482,-3.64103 9.33934,-2.0228 z"
   id="path362"
   style="stroke-width:0.999998" />
	<path
   class="st9"
   d="m 318.33179,407.87159 c -1.62424,0 -3.65452,-2.42736 -5.68482,-2.83192 -1.21818,0 -2.43636,0.40456 -3.65452,-0.40456 0.40606,-2.83191 4.06058,-1.21367 5.68482,-2.42735 4.46664,-0.80912 2.43634,4.04559 3.65452,5.66383 z"
   id="path364"
   style="stroke-width:0.999998" />
	<path
   class="st9"
   d="m 315.08333,407.87159 h -4.87272 v -1.61824 c 1.62424,0.40456 3.65454,0 4.87272,1.61824 z"
   id="path366"
   style="stroke-width:0.999998" />
	<path
   class="st10"
   d="m 370.30729,407.87159 -45.88462,9.70941 c -0.81212,-2.83191 3.24847,-2.02279 4.8727,-3.23647 13.39994,-3.23648 26.79988,-5.66382 40.60586,-8.09118 z"
   id="path368" />
	<path
   class="st11"
   d="m 322.39237,416.36732 c 0.81212,1.21368 -1.21816,1.21368 -1.62422,2.0228 -3.65454,-2.0228 -6.903,-4.85471 -9.74542,-7.68663 v -0.8091 c 4.87271,-0.40456 8.9333,2.8319 11.36964,6.47293 z"
   id="path370" />
	<path
   class="st9"
   d="m 198.13844,410.29894 c 1.21817,4.04559 -4.87271,5.25927 -4.46665,8.49574 1.21818,0.40456 1.21818,-1.21368 1.62424,-1.61824 l 3.24846,-2.42735 c 2.0303,4.04559 -0.81211,9.30485 3.24848,12.94589 -0.81212,2.83191 -5.27877,2.42735 -5.27877,5.25927 1.62424,-0.40456 2.84241,-3.23648 4.87271,-1.61824 -1.21818,1.21368 -3.65453,2.0228 -4.87271,3.64102 2.03029,0.80912 3.24847,-1.61822 5.27877,-2.02278 0.81211,0.40456 1.21817,1.21366 1.21817,2.02278 l -6.09088,2.0228 c -2.43635,-2.83192 -5.27876,-5.25926 -8.93329,-6.06838 0,-5.66383 -3.24847,-10.11397 -5.27876,-14.96868 4.8727,-1.21368 10.55752,-2.0228 15.43023,-5.66383 z"
   id="path372"
   style="stroke-width:0.999998" />
	<path
   class="st10"
   d="m 316.70755,417.17644 c 0.81212,0.80912 0.40606,0.40456 0.81212,1.21368 l -0.81212,0.80912 c -36.13921,4.45014 -77.96325,25.08266 -111.66612,1.61824 -1.21817,-0.80912 -2.03029,-2.42736 -2.03029,-3.64104 2.84241,0.40456 5.27876,2.83192 7.71511,4.45016 22.33323,16.18235 61.72092,3.64102 79.5875,0.40455 2.03029,-0.40455 26.3938,-4.45015 26.3938,-4.85471 1.62424,0 0,0 -0.40606,0"
   id="path374" />
	<path
   class="st9"
   d="m 314.27121,416.77188 c -1.21818,0 -2.43636,0.80912 -4.0606,0.40456 -2.03028,0 -3.24846,0.40456 -5.27876,0.40456 -2.8424,-4.45015 3.65454,-2.42735 5.27876,-5.25927 1.62424,1.21368 4.0606,2.0228 5.68483,3.64104 z"
   id="path376"
   style="stroke-width:0.999998" />
	<path
   class="st3"
   d="m 211.13231,427.69498 c 21.52111,10.92309 48.32098,5.66383 71.06026,1.21367 l -2.43635,2.0228 -70.24814,14.96868 c 1.21817,-2.83191 -1.62424,-5.66383 0,-8.49574 0.40606,-1.61824 -1.21818,-2.83192 -2.43635,-3.64103 -5.68482,-0.80911 -1.62424,-8.09118 -6.09088,-10.9231 v -2.8319 z"
   id="path378"
   style="stroke-width:0.999998" />
	<path
   class="st10"
   d="m 287.47133,428.50409 c -0.40606,4.45016 -6.09088,3.64104 -8.93328,6.06838 -32.4847,6.47295 -63.75121,14.15957 -95.82984,21.03708 -0.40606,-0.80912 0.40606,-2.83192 1.62423,-3.23648 30.86046,-4.04559 59.69062,-12.54132 89.73896,-18.20516 4.46665,-1.21366 8.93329,-3.64102 13.39993,-5.66382 z"
   id="path380" />
	<path
   class="st9"
   d="m 185.95668,432.95425 c 0,2.02278 -1.62424,2.42734 -3.24847,2.8319 -1.21818,0 -0.81212,-1.61824 -0.40606,-2.02279 0.81212,-1.61823 2.43635,-0.80911 3.65453,-0.80911 z"
   id="path382"
   style="stroke-width:0.999998" />
	<path
   class="st9"
   d="m 194.07785,436.59527 c 0,3.64103 6.49694,2.83192 3.24847,6.47295 -0.81212,-0.40456 -3.65453,1.21368 -3.24847,-1.21368 v -0.80912 l -8.12117,-4.45015 c 1.62423,-0.80912 0.40606,-5.25926 3.65453,-3.64102 z"
   id="path384"
   style="stroke-width:0.999998" />
	<path
   class="st9"
   d="m 207.07173,436.59527 c -1.21818,3.23648 -4.46665,2.42736 -6.49694,3.64103 -0.81212,0 -1.21818,-1.21367 -2.0303,-1.21367 0.81212,-2.83192 4.46665,-2.83192 6.903,-3.64104 0.40606,1.21368 1.62424,0.80912 1.62424,1.21368 z"
   id="path386"
   style="stroke-width:0.999998" />
	<path
   class="st9"
   d="m 191.6415,442.66366 c -2.03029,3.23647 -5.68482,5.66382 -9.33935,6.47294 -0.81212,-3.23647 -7.30906,-6.06838 -2.43635,-9.30485 2.03029,-1.61824 4.8727,-2.0228 6.90299,-0.80912 2.0303,0.40456 4.06059,2.02279 4.87271,3.64103 z"
   id="path388"
   style="stroke-width:0.999998" />
	<path
   class="st9"
   d="m 207.88384,441.85454 c 0.81212,2.83192 -2.03029,4.04559 -3.65452,4.8547 -3.65453,1.61824 -8.12118,2.42736 -12.18176,2.83192 h -0.81212 c 0.81212,-2.0228 2.84241,-3.64103 4.8727,-4.8547 4.87271,0.80911 7.71512,-6.87751 11.7757,-2.83192 z"
   id="path390"
   style="stroke-width:0.999998" />
	<path
   class="st9"
   d="m 193.67179,444.68646 c -2.84241,2.8319 -6.09088,7.68661 -10.55752,6.47294 2.84241,-2.0228 7.30905,-3.64104 9.33935,-6.8775 0.40605,-0.80912 0.81211,0 1.21817,0.40456 z"
   id="path392"
   style="stroke-width:0.999998" />
	<path
   class="st11"
   d="m 181.08397,453.58675 c -1.62423,1.21368 -2.03029,3.23647 -4.06058,3.23647 -0.40606,-3.64103 -3.24847,-6.47294 -5.27876,-9.70942 0.40605,-2.02279 2.84241,-2.02279 4.06058,-2.8319 3.65453,1.21367 4.87271,5.66382 5.27876,9.30485 z"
   id="path394" />
	<path
   class="st10"
   d="m 66.981498,453.58675 c 5.278762,6.47294 13.399935,7.28206 20.708991,10.92309 28.830161,8.49574 56.442151,-5.25927 84.054141,-8.90029 0.81211,-0.80912 1.62423,-0.40456 2.43635,-0.40456 0.81211,0.40456 0.81211,1.61823 0.40606,2.02279 -32.07864,4.85471 -80.399613,27.51001 -110.85401,-4.04559 -2.436352,-2.42735 -5.684822,-4.04559 -6.496939,-7.68662 3.654528,1.21367 5.684821,5.66383 9.745407,8.09118 z"
   id="path396" />
	<path
   class="st9"
   d="m 170.12039,451.96852 c 0.81212,-0.40456 0.81212,-1.21368 1.62424,-0.80912 l 1.21817,2.02279 c -1.62423,1.61824 -4.8727,0.40456 -6.49694,2.0228 l -5.27876,-0.80912 c 0.40606,-1.21368 0.40606,-4.04559 2.43635,-4.04559 2.43635,-1.61824 5.27877,-0.80912 6.49694,1.61824 z"
   id="path398"
   style="stroke-width:0.999998" />
	<ellipse
   class="st12"
   cx="233.46555"
   cy="210.04225"
   id="circle400"
   rx="10.963583"
   ry="10.923093" />
	<ellipse
   class="st12"
   cx="233.46555"
   cy="210.04225"
   id="circle402"
   rx="6.902997"
   ry="6.8775029" />
	<ellipse
   class="st13"
   cx="272.44717"
   cy="255.75742"
   id="circle404"
   rx="10.963583"
   ry="10.923093" />
	<ellipse
   class="st13"
   cx="272.44717"
   cy="255.75742"
   id="circle406"
   rx="6.902997"
   ry="6.8775029" />
	<path
   d="m 108.80554,59.523514 c -2.84241,-4.045589 -6.49694,-2.427354 -8.12118,-1.618235 -2.842405,1.213677 -2.030289,5.259266 -1.624229,6.877502 0.406058,1.618235 11.369639,20.227948 11.775699,20.227948 0.40606,0 8.12117,-4.854708 8.93329,-4.854708 0,0 -7.71512,-16.182359 -10.96358,-20.632507 z m 86.49049,-25.082656 c -1.62424,2.022794 -1.62424,4.854708 -1.62424,5.663825 0,0.809118 0.81212,21.846185 1.21818,21.846185 0.40606,0 7.30905,0 8.12117,0 0.81212,0 5.27876,0 5.27876,0 0,0 0,-19.014271 -0.81211,-24.273539 -0.40606,-5.259266 -6.903,-6.877502 -7.30906,-6.068384 0,0 -2.03029,-0.809118 -4.8727,2.831913 z m 7.71511,42.478692 c -8.52723,0 -25.98775,-0.809118 -43.85433,4.854708 -20.70899,6.472943 -30.86046,10.518533 -50.75733,23.059862 l -3.24847,0.40456 h -2.43635 L 94.187427,93.911026 98.654071,90.674555 79.163258,59.928073 72.26026,63.164545 57.64215,45.768509 c 0,0 17.460521,-12.541328 19.896873,-13.350446 1.624235,-0.404559 6.496938,10.113974 6.496938,10.113974 0,0 11.7757,-6.877502 13.399934,-6.877502 1.218176,-0.40456 -4.060586,-9.709416 -4.060586,-9.709416 0,0 19.490811,-9.709415 21.115051,-8.900297 1.21818,0.404559 8.12117,20.227948 8.12117,20.227948 l -5.27876,2.831913 c 0,0 0.40606,2.427354 1.21817,2.427354 0.81212,-0.404559 12.58782,-5.259267 13.39994,-4.450148 0.81212,0.809117 2.43635,9.304856 3.65453,9.304856 1.62423,0.404558 17.05446,-4.450148 18.27264,-4.450148 1.21817,0 -1.62424,-9.709416 -1.62424,-9.709416 0,0 14.61811,-3.236472 15.83629,-2.831913 0.40606,0 0,-4.04559 0,-4.04559 0,0 -8.52723,0.40456 -9.74541,0.809118 -1.21817,0.809119 -4.8727,-20.6325075 -4.8727,-20.6325075 0,0 21.5211,-3.2364718 22.73928,-2.4273538 1.21818,0.8091179 0.40606,6.4729433 2.43635,6.8775023 2.0303,0.809118 7.71512,0.809118 8.93329,0 1.21818,-0.809118 -0.81212,-8.9002973 0,-8.9002973 0.81212,0 23.14534,-0.4045589 25.5817,0.404559 1.21817,0.404559 -0.40606,8.4957383 -0.40606,8.4957383 0,0 10.15146,0.809118 10.96358,0.404559 0.81212,-0.404559 0.81212,-8.4957383 2.43635,-8.4957383 1.21818,0 20.70899,2.4273538 20.70899,3.6410308 0,1.2136769 -4.06058,22.2507435 -4.06058,22.2507435 l -10.15147,-2.022794 c 0,0 -0.81212,3.236471 -0.40606,3.236471 1.21818,0 17.46052,4.045589 17.46052,4.045589 l -1.62423,9.304857 16.6484,4.04559 c 0,0 2.43636,-8.900298 3.24847,-8.900298 2.84241,0.809119 14.61811,5.663827 14.61811,5.663827 l 1.21818,-2.427354 -7.30906,-2.831914 c 0,0 6.903,-20.632507 8.12118,-20.632507 1.21817,0 19.89686,8.900297 19.89686,8.900297 l -2.8424,7.282062 6.49694,3.236471 6.49694,3.641031 4.46664,-6.877502 c 0,0 15.83628,8.495739 17.46052,10.113974 0.81212,0.809118 -11.36964,18.205153 -11.36964,18.205153 l -5.68482,-3.641029 -17.86658,33.578394 4.06058,3.236472 -5.68482,8.495738 c 0,0 -4.06058,0.40456 -6.903,0.40456 -0.81211,0 0.40606,0 0.40606,0 0,0 -30.86045,-16.586919 -42.2301,-19.823391 -8.12116,-1.618235 -23.95745,-8.091179 -48.32097,-8.091179 z m 93.79955,-17.800594 c -2.0303,0 -3.24848,1.618235 -4.46665,3.236471 -1.21817,1.618235 -9.33935,19.418831 -9.74541,19.82339 -0.40606,0.404558 6.49694,3.64103 6.903,3.64103 0.40606,0 9.33934,-19.014271 10.15146,-20.632508 0.81212,-1.618235 1.62424,-4.450148 -0.81212,-6.068383 -0.40606,0.404558 0,0.404558 -2.03028,0 z"
   id="path408"
   style="stroke-width:0.999998" />
	<path
   class="st9"
   d="m 67.387557,52.241453 c 0.406059,-0.404559 12.587817,-7.686621 13.399935,-7.686621 0.812117,-0.404558 -4.060586,-6.877503 -4.060586,-6.877503 0,0 -8.121174,4.045591 -12.993876,8.495739 -2.030294,1.213677 3.654527,6.068385 3.654527,6.068385 z"
   id="path410"
   style="stroke-width:0.999998" />
	<path
   class="st9"
   d="m 101.90254,34.036298 c 0.81212,-0.404558 5.68482,-2.831912 7.30906,-3.64103 1.62423,-0.809118 6.49694,-2.831913 6.90299,-3.236472 0,-0.404558 -2.43635,-6.068385 -3.24847,-6.068385 -0.81212,0 -12.58782,4.854708 -14.618107,6.068385 0,0.404559 2.436347,7.686621 3.654527,6.877502 z"
   id="path412"
   style="stroke-width:0.999998" />
	<path
   class="st9"
   d="m 91.345016,42.127478 c -2.030293,0 -24.363518,13.755005 -22.333224,12.541328 -0.40606,0 2.84241,4.04559 3.248468,4.04559 8.527232,-5.663825 19.490815,-11.327651 21.115049,-12.136769 0.406059,0 -1.624234,-4.450149 -2.030293,-4.450149 z"
   id="path414"
   style="stroke-width:0.999998" />
	<path
   class="st9"
   d="m 96.623779,45.768509 c 9.339351,-4.854708 10.963581,-5.663826 22.739281,-10.518534 -0.40606,0 -1.62423,-4.045589 -2.43635,-4.450148 -0.81212,-0.404559 -18.678697,7.282062 -23.145342,10.113974 0,0 3.248469,4.450149 2.842411,4.854708 z"
   id="path416"
   style="stroke-width:0.999998" />
	<path
   class="st9"
   d="m 107.99342,86.628966 c 0,0 -2.43635,-4.450149 -3.24847,-5.259268 -0.81211,-0.809117 -7.309055,-12.136768 -8.933289,-16.586917 -1.624234,-4.854708 0,-7.686621 2.030294,-9.709416 2.030292,-2.022794 3.654525,-1.618236 5.684825,-2.022794 2.43635,-0.40456 5.27876,1.618235 6.90299,3.236471 1.62423,1.618237 12.18176,22.655302 12.58782,22.655302 0.40606,0 6.09088,-3.236471 6.09088,-3.236471 L 114.0843,41.72292 c 0,0 0,0 -1.21818,-0.40456 -1.21817,-0.404559 -27.205924,12.541328 -30.860452,16.182359 -0.812118,0.809118 19.084752,31.960159 19.490812,32.364718 0.40606,0.40456 5.27876,-2.427354 6.49694,-3.236471 z"
   id="path418"
   style="stroke-width:0.999998" />
	<path
   class="st9"
   d="m 122.61153,51.836894 c 0,0 0,0 1.21818,-0.40456 1.21817,-0.809117 8.93329,-3.236471 8.93329,-3.641031 0,0 -2.0303,-6.472943 -2.43636,-6.877502 -0.40605,-0.404558 -7.71511,2.427354 -10.96358,3.641031 z"
   id="path420"
   style="stroke-width:0.999998" />
	<path
   class="st9"
   d="m 123.82971,54.264248 c 0,0 3.65453,8.495737 3.65453,8.900297 0,0 2.43635,-0.809118 2.03029,-0.809118 0,0 -4.06059,-8.495739 -4.06059,-8.495739 z"
   id="path422"
   style="stroke-width:0.999998" />
	<path
   class="st9"
   d="m 128.70241,52.646011 3.65453,8.495739 c 0,0 8.93329,-2.831913 14.21205,-4.04559 0.40606,0 -3.24847,-8.495738 -3.24847,-8.495738 0,0 -10.55752,2.022795 -14.61811,4.045589 z"
   id="path424"
   style="stroke-width:0.999998" />
	<path
   class="st9"
   d="m 146.56899,47.791303 2.43635,8.495739 c 0,0 15.02417,-3.641031 16.24235,-3.641031 1.21817,0 -1.62424,-8.900297 -1.62424,-8.900297 0,0 -9.7454,1.618236 -17.05446,4.045589 z"
   id="path426"
   style="stroke-width:0.999998" />
	<path
   class="st9"
   d="m 156.3144,34.845417 c 0,0 0.81212,7.282061 1.21817,6.877503 0.40606,0 12.58782,-2.427354 12.58782,-2.427354 0.40606,0 -0.40606,-6.068385 -0.81212,-6.068385 0,0 -7.71511,0.404559 -12.99387,1.618236 z"
   id="path428"
   style="stroke-width:0.999998" />
	<path
   class="st9"
   d="m 166.46586,43.341155 1.62424,8.495739 3.65453,-1.213677 -0.81212,-8.09118 c 0,0.40456 -4.46665,0.809118 -4.46665,0.809118 z"
   id="path430"
   style="stroke-width:0.999998" />
	<path
   class="st9"
   d="m 129.10847,66.401016 c 0,0 3.24847,8.495739 3.65453,8.495739 0.40606,0 7.71511,-3.236471 7.71511,-3.236471 -1.62423,-4.854708 -2.43635,-7.282062 -3.24847,-8.09118 0,-0.809119 -8.12117,2.831912 -8.12117,2.831912 z"
   id="path432"
   style="stroke-width:0.999998" />
	<path
   class="st9"
   d="m 144.13264,70.446607 c -0.81212,0 11.7757,-3.236472 13.39993,-3.641031 1.62424,-0.40456 0.81212,0 0.81212,0 l -1.62423,-8.495739 c 0,0 -13.806,3.236472 -15.02417,4.04559 -1.21818,0.809118 2.43635,8.09118 2.43635,8.09118 z"
   id="path434"
   style="stroke-width:0.999998" />
	<path
   class="st9"
   d="m 161.59316,65.996458 c -0.40606,0 10.96358,-2.022796 11.7757,-2.022796 0.40606,0 -0.40606,-8.495737 -0.81212,-8.900297 -0.40606,-0.404559 -9.7454,1.213677 -11.36964,1.618237 -1.62423,0.809117 -0.81212,0.404558 -0.81212,0.404558 0,0 1.21818,8.900298 1.21818,8.900298 z"
   id="path436"
   style="stroke-width:0.999998" />
	<path
   class="st9"
   d="m 157.12652,8.5490833 c 0,0 0,4.8547077 0.40605,4.8547077 0.81212,0 16.24235,-1.618236 17.05447,-1.618236 0.81211,0 0,-4.8547076 -0.40606,-5.2592665 0,0 -17.05446,2.0227948 -17.05446,2.0227948 z"
   id="path438"
   style="stroke-width:0.999998" />
	<path
   class="st9"
   d="m 158.75075,16.640263 0.81212,6.472944 c 0,0 11.7757,-1.618237 21.92716,-1.618237 1.21818,0 0,-7.282061 0,-7.282061 0,0 -10.96358,0 -12.18176,0.404559 -0.81211,0.809118 -10.55752,2.022795 -10.55752,2.022795 z"
   id="path440"
   style="stroke-width:0.999998" />
	<polygon
   class="st9"
   points="48,0.9 48,2.1 52.5,2.1 52.6,0.9 "
   id="polygon442"
   transform="matrix(4.0605863,0,0,4.0455898,-3.6727036,2.0761397)"
   style="stroke-width:0.246725" />
	<path
   class="st9"
   d="m 184.7385,14.212909 c 0,0 -0.81212,7.686621 0,7.282061 0.40606,0 31.26652,0 31.67257,0.40456 0.40606,0.404558 0.40606,-7.686621 0.40606,-7.686621 0,0 -12.18176,-0.809118 -14.61811,-0.809118 -2.43635,0.404559 -17.46052,0.809118 -17.46052,0.809118 z"
   id="path444"
   style="stroke-width:0.999998" />
	<path
   class="st9"
   d="m 219.65955,15.022027 c 0,0 -1.21818,7.282061 -0.40606,7.282061 0.81211,0 10.15146,0.809119 11.7757,0.809119 1.62423,0 7.71511,1.618235 8.12117,1.618235 0.40605,0 1.62423,-7.282061 1.62423,-7.282061 0,0 -7.30905,-1.213677 -8.52723,-1.213677 -0.81211,-0.404559 -12.18176,-1.213677 -12.58781,-1.213677 z"
   id="path446"
   style="stroke-width:0.999998" />
	<path
   class="st9"
   d="m 227.37466,12.190114 c 2.43635,0.404559 12.58781,2.022795 13.39993,2.022795 0.81212,0 0.40606,0 0.40606,0 l 1.62424,-5.2592667 c 0,0 -12.99388,-2.4273538 -13.39994,-2.4273538 -0.40606,0 -2.03029,5.6638255 -2.03029,5.6638255 z"
   id="path448"
   style="stroke-width:0.999998" />
	<path
   class="st9"
   d="m 200.16873,27.967915 c 6.09088,0 10.96358,4.450148 11.36964,8.900297 0.40606,4.450148 0.81212,25.487215 0.81212,25.487215 0.40606,0 4.8727,0.404558 6.49694,0.404558 1.62423,0 6.09088,0.809119 6.90299,0.809119 0.81212,0 2.84241,-37.219426 2.84241,-37.219426 0,0 -19.08475,-1.618236 -27.20592,-1.618236 -8.52724,0 -26.39382,0.809119 -29.64228,1.618236 -0.81212,0 4.8727,36.814867 4.8727,37.219426 0,0 6.49694,-0.404559 7.71511,-0.404559 1.21818,0 6.09088,-0.40456 6.49694,-0.40456 0,0 -1.62423,-21.846184 -0.81212,-24.678096 0.81212,-2.831914 1.62424,-6.472944 5.27877,-8.09118 3.65452,-2.427354 4.8727,-2.022794 4.8727,-2.022794 z"
   id="path450"
   style="stroke-width:0.999998" />
	<path
   class="st9"
   d="m 231.8413,32.822621 c 0,0 -0.81211,6.877503 -0.40605,6.877503 0,0 13.39993,2.427354 13.39993,2.427354 0,0 1.21817,-6.068384 1.21817,-6.068384 0,0 -10.15146,-3.236473 -14.21205,-3.236473 z"
   id="path452"
   style="stroke-width:0.999998" />
	<path
   class="st9"
   d="m 235.49583,43.745714 c 0,0 -1.62424,-0.404559 -4.46664,-0.809117 -0.81212,0 -0.81212,8.495737 -0.81212,8.900297 0,0.404559 2.84241,0.404559 3.24847,0.404559 0.40605,0 2.03029,-8.495739 2.03029,-8.495739 z"
   id="path454"
   style="stroke-width:0.999998" />
	<path
   class="st9"
   d="m 230.62313,55.073365 c 0,0 -1.21818,9.304857 -0.81212,9.304857 0.40606,0 8.12117,1.618236 9.33935,2.022794 1.21817,0 2.43635,-9.304856 2.43635,-9.304856 0,0 -3.24847,-1.618235 -6.09088,-1.618235 -2.43635,-0.40456 -4.8727,-0.40456 -4.8727,-0.40456 z"
   id="path456"
   style="stroke-width:0.999998" />
	<path
   class="st9"
   d="m 238.33824,44.150274 c 0,0 -2.43635,8.900297 -2.03029,8.900297 0,0 3.65452,0.404558 6.903,1.618235 3.65452,0.809119 7.71511,2.022796 7.71511,2.022796 l 2.43635,-8.495739 c 0,0 -4.46664,-2.022795 -7.30906,-2.427354 -2.43634,-0.809118 -7.71511,-1.618235 -7.71511,-1.618235 z"
   id="path458"
   style="stroke-width:0.999998" />
	<polygon
   class="st9"
   points="66.8,14.8 67.6,12.6 65.9,12 64.2,11.5 63.6,13.7 65.1,14.2 "
   id="polygon460"
   transform="matrix(4.0605863,0,0,4.0455898,-3.6727036,2.0761397)"
   style="stroke-width:0.246725" />
	<polygon
   class="st9"
   points="68.3,12.9 67.6,15.1 68.4,15.4 69.3,13.4 "
   id="polygon462"
   transform="matrix(4.0605863,0,0,4.0455898,-3.6727036,2.0761397)"
   style="stroke-width:0.246725" />
	<path
   class="st9"
   d="m 275.69563,44.150274 c -2.8424,-1.213677 -5.68482,-1.618237 -6.09088,-2.022796 0,0 -2.43634,5.663825 -2.43634,6.068385 0,0 2.8424,0.809117 5.68482,2.022794 2.8424,1.213677 5.27876,2.427354 5.68482,2.427354 0,0 2.8424,-6.068384 2.8424,-6.068384 0,0 -2.8424,-1.213677 -5.68482,-2.427353 z"
   id="path464"
   style="stroke-width:0.999998" />
	<path
   class="st9"
   d="m 252.14423,59.928073 c -3.65452,-1.213677 -7.71511,-1.618236 -7.71511,-1.618236 0,0 -2.43635,8.900298 -2.03029,8.900298 0,0 3.65452,0.809118 6.903,2.022795 3.24846,0.809117 6.90299,2.022794 6.90299,2.022794 0.40606,0 3.24847,-8.495739 3.24847,-8.495739 0,-0.404558 -3.65453,-2.022794 -7.30906,-2.831912 z"
   id="path466"
   style="stroke-width:0.999998" />
	<path
   class="st9"
   d="m 267.98052,64.782781 c -2.43635,-0.809119 -5.27876,-1.618236 -5.68482,-1.618236 0,0 -3.24847,8.900297 -3.24847,8.900297 0,0 2.0303,0.809119 4.46664,1.618236 2.0303,0.809118 5.27877,2.022795 5.27877,2.022795 l 4.06059,-9.304857 c 0.40606,0.40456 -2.0303,-0.404558 -4.87271,-1.618235 z"
   id="path468"
   style="stroke-width:0.999998" />
	<path
   class="st9"
   d="m 300.05915,28.372473 c 0,-0.404558 -12.99388,-6.472943 -13.39994,-6.068385 -0.40605,0 -2.03028,4.04559 -2.03028,4.04559 0,0 12.99387,6.472943 13.39993,6.472943 0.40605,0 2.03029,-4.450148 2.03029,-4.450148 z"
   id="path470"
   style="stroke-width:0.999998" />
	<path
   class="st9"
   d="m 320.76815,39.295566 c -0.40606,0 -2.84242,3.236471 -2.43636,3.641031 2.43636,1.213677 9.33935,5.663825 10.15146,5.663825 0.40606,0 2.84242,-2.831913 2.43636,-3.236472 0,0 -6.49694,-4.450149 -10.15146,-6.068384 z"
   id="path472"
   style="stroke-width:0.999998" />
	<path
   class="st9"
   d="m 283.81681,29.181591 c -0.40606,-0.404559 -3.65453,6.068384 -3.24847,6.472944 2.43635,1.213677 14.21205,6.472943 21.92717,10.518533 0.40606,0.404559 4.06058,-5.663825 4.06058,-6.068385 -9.7454,-5.259266 -14.61811,-7.282062 -22.73928,-10.923092 z"
   id="path474"
   style="stroke-width:0.999998" />
	<path
   class="st9"
   d="m 309.39851,41.31836 c 0,0 -3.65454,6.068385 -3.65454,5.663826 0,0 11.36964,6.068385 17.86658,10.113974 0.40606,0.404559 3.65454,-5.259266 3.24848,-5.663826 -8.52724,-5.259266 -10.15148,-6.068384 -17.46052,-10.113974 z"
   id="path476"
   style="stroke-width:0.999998" />
	<path
   class="st9"
   d="m 300.46521,55.477925 c 5.68482,3.236471 3.24847,8.900297 2.43636,11.327651 -1.21818,2.427354 -10.15148,20.227948 -10.15148,20.227948 0.40606,0.404559 4.87271,3.641031 5.27877,4.04559 0.81211,0.40456 18.27263,-32.364718 17.86658,-32.769277 -0.40605,-1.213677 -6.49693,-4.450149 -14.21205,-8.495738 -7.30906,-3.641031 -15.02418,-6.877502 -15.43023,-6.877502 -0.81211,0 -15.02417,33.578395 -15.02417,33.982953 0,0.404559 7.71512,4.450148 8.12118,4.04559 0.40605,-0.404559 8.12116,-17.396036 10.15146,-20.227949 1.62424,-2.831912 3.24846,-6.068385 7.30906,-5.663826 4.06058,0 3.65452,0.40456 3.65452,0.40456 z"
   id="path478"
   style="stroke-width:0.999998" />
	<path
   class="st9"
   d="m 280.56834,85.010729 c -8.12117,-4.045589 -21.52111,-10.113974 -33.29681,-13.350445 -11.7757,-3.236472 -29.64228,-6.068385 -45.88462,-6.472945 -16.24235,-0.404558 -36.54528,3.236473 -45.07251,5.259268 -14.21206,3.236471 -12.58782,3.236471 -23.5514,7.68662 -17.86658,7.68662 -32.4847,16.586918 -32.890753,16.991476 -0.406058,0.40456 4.466643,6.068387 4.466643,6.068387 0,0 0.40606,0 3.24847,-2.427356 4.8727,-4.045589 33.70287,-16.182359 37.3574,-17.800594 4.8727,-2.022796 21.92716,-7.282062 38.16951,-8.495739 26.39381,-2.022794 43.04221,1.618237 62.53302,6.472943 19.49082,4.854708 48.32098,22.250746 49.1331,22.655306 0.40606,0 3.24847,-4.85471 3.65452,-5.25927 0.40606,-0.404558 -7.30904,-6.068383 -17.86657,-11.327651 z"
   id="path480"
   style="stroke-width:0.999998" />
</g>


</svg>
