<svg title="Norsk senter for forskningsdata" viewBox="0 0 259 51" fill="none" xmlns="http://www.w3.org/2000/svg" class="menu__logo--desktop"><path d="M31.0585 50.5225C30.6123 50.5225 30.298 50.5086 30.1604 50.5031L28.4766 50.309L6.02535 6.22208H5.61281V50.2147H0V0.47137H9.51091L32.0435 44.9437C34.1904 44.8134 37.4571 44.2422 39.3402 42.487C40.4178 41.475 40.9426 40.1357 40.9426 38.3972C40.9426 34.5154 38.0071 31.945 34.6086 28.9698C30.8985 25.7118 26.6945 22.0213 26.6945 16.0765C26.6833 5.80616 36.7639 1.07029 42.0961 0L43.2186 5.43184C42.7724 5.52612 32.2905 7.78592 32.2905 16.0654C32.2905 19.5203 35.0969 21.9741 38.3187 24.8135C42.1718 28.1962 46.5386 32.0226 46.5386 38.4C46.5386 41.6608 45.3712 44.4723 43.1709 46.5297C39.2897 50.1426 33.3738 50.5225 31.0585 50.5225Z" fill="#EA4D36"/><path d="M52.6736 50.2146H49.8672V0.360352H52.6736C59.9169 0.360352 66.2089 1.86596 70.8703 5.31251C76.3568 9.36906 79.2559 15.4885 79.2559 23.0083C79.2473 30.2779 76.3558 37.2548 71.2015 42.4426C68.7967 44.897 65.9177 46.8496 62.7351 48.1847C59.5525 49.5197 56.1311 50.21 52.6736 50.2146ZM55.48 6.03065V44.4528C65.4343 42.9167 73.6431 33.7222 73.6431 23.0083C73.6431 9.22487 61.9656 6.5963 55.48 6.03065Z" fill="#EA4D36"/><path d="M107.518 21.3105H105.259L99.0356 11.363H98.9666C98.9896 11.8228 99.0184 12.3515 99.0528 12.9491C99.0873 13.5353 99.1046 14.1387 99.1046 14.7593V21.3105H97.415V9.00116H99.6562L105.863 18.8969H105.914C105.903 18.6555 105.886 18.3509 105.863 17.9832C105.851 17.6154 105.84 17.2246 105.828 16.8108C105.817 16.3856 105.805 15.9891 105.794 15.6213V9.00116H107.518V21.3105Z" fill="#36374B"/><path d="M121.661 15.1386C121.661 16.4143 121.448 17.5292 121.023 18.4831C120.598 19.4256 119.96 20.1611 119.109 20.6898C118.259 21.2185 117.201 21.4829 115.937 21.4829C114.638 21.4829 113.564 21.2185 112.713 20.6898C111.863 20.1611 111.231 19.4198 110.817 18.4659C110.403 17.5119 110.196 16.3971 110.196 15.1213C110.196 13.8571 110.403 12.7537 110.817 11.8113C111.242 10.8688 111.88 10.1332 112.73 9.60456C113.581 9.07587 114.656 8.81152 115.954 8.81152C117.219 8.81152 118.27 9.07587 119.109 9.60456C119.96 10.1218 120.598 10.8573 121.023 11.8113C121.448 12.7537 121.661 13.8628 121.661 15.1386ZM112.161 15.1386C112.161 16.6097 112.466 17.7705 113.075 18.621C113.684 19.4715 114.638 19.8968 115.937 19.8968C117.247 19.8968 118.201 19.4715 118.799 18.621C119.397 17.7705 119.695 16.6097 119.695 15.1386C119.695 13.6674 119.397 12.5124 118.799 11.6733C118.213 10.8343 117.265 10.4148 115.954 10.4148C114.644 10.4148 113.684 10.8343 113.075 11.6733C112.466 12.5124 112.161 13.6674 112.161 15.1386Z" fill="#36374B"/><path d="M127.784 9.00116C129.358 9.00116 130.519 9.29424 131.266 9.8804C132.025 10.4666 132.404 11.3573 132.404 12.5526C132.404 13.1847 132.283 13.7192 132.042 14.1559C131.812 14.5811 131.513 14.9317 131.145 15.2075C130.778 15.4719 130.393 15.6845 129.99 15.8454L133.438 21.3105H131.3L128.335 16.3281H126.197V21.3105H124.336V9.00116H127.784ZM127.663 10.5872H126.197V14.7765H127.749C128.703 14.7765 129.398 14.5984 129.835 14.2421C130.272 13.8743 130.49 13.3341 130.49 12.6215C130.49 11.886 130.26 11.363 129.801 11.0527C129.341 10.7424 128.628 10.5872 127.663 10.5872Z" fill="#36374B"/><path d="M142.314 17.9832C142.314 19.075 141.917 19.9313 141.124 20.5519C140.331 21.1725 139.245 21.4829 137.866 21.4829C137.199 21.4829 136.567 21.4254 135.969 21.3105C135.383 21.207 134.883 21.0519 134.469 20.845V19.0865C134.929 19.2934 135.469 19.483 136.09 19.6554C136.711 19.8163 137.343 19.8968 137.986 19.8968C138.814 19.8968 139.434 19.7359 139.848 19.4141C140.262 19.0923 140.469 18.6613 140.469 18.1211C140.469 17.7418 140.371 17.4257 140.176 17.1729C139.992 16.9085 139.699 16.6672 139.297 16.4488C138.894 16.2304 138.366 15.9891 137.71 15.7247C137.101 15.4949 136.561 15.2248 136.09 14.9145C135.63 14.6041 135.268 14.2191 135.004 13.7594C134.739 13.2996 134.607 12.7365 134.607 12.0699C134.607 11.0585 134.975 10.2654 135.711 9.69076C136.446 9.1161 137.412 8.82876 138.607 8.82876C139.274 8.82876 139.888 8.89772 140.452 9.03564C141.026 9.16207 141.572 9.34021 142.089 9.57008L141.503 11.1044C141.032 10.909 140.549 10.7481 140.055 10.6217C139.572 10.4953 139.072 10.4321 138.555 10.4321C137.877 10.4321 137.36 10.5815 137.004 10.8803C136.647 11.1791 136.469 11.5699 136.469 12.0526C136.469 12.4319 136.555 12.7537 136.728 13.0181C136.9 13.2709 137.176 13.5008 137.555 13.7077C137.935 13.9145 138.435 14.1444 139.055 14.3973C139.745 14.6731 140.331 14.9662 140.814 15.2765C141.308 15.5753 141.681 15.9431 141.934 16.3798C142.187 16.8051 142.314 17.3395 142.314 17.9832Z" fill="#36374B"/><path d="M153.982 21.3105H151.827L147.792 15.6385L146.586 16.6384V21.3105H144.724V9.00116H146.586V14.9489C146.885 14.6041 147.183 14.2593 147.482 13.9145C147.781 13.5582 148.08 13.2077 148.379 12.8629L151.706 9.00116H153.844L149.137 14.38L153.982 21.3105Z" fill="#36374B"/><path d="M167.163 17.9832C167.163 19.075 166.767 19.9313 165.974 20.5519C165.181 21.1725 164.095 21.4829 162.715 21.4829C162.049 21.4829 161.417 21.4254 160.819 21.3105C160.233 21.207 159.733 21.0519 159.319 20.845V19.0865C159.779 19.2934 160.319 19.483 160.94 19.6554C161.56 19.8163 162.192 19.8968 162.836 19.8968C163.664 19.8968 164.284 19.7359 164.698 19.4141C165.112 19.0923 165.319 18.6613 165.319 18.1211C165.319 17.7418 165.221 17.4257 165.026 17.1729C164.842 16.9085 164.549 16.6672 164.146 16.4488C163.744 16.2304 163.215 15.9891 162.56 15.7247C161.951 15.4949 161.411 15.2248 160.94 14.9145C160.48 14.6041 160.118 14.2191 159.854 13.7594C159.589 13.2996 159.457 12.7365 159.457 12.0699C159.457 11.0585 159.825 10.2654 160.56 9.69076C161.296 9.1161 162.261 8.82876 163.457 8.82876C164.123 8.82876 164.738 8.89772 165.301 9.03564C165.876 9.16207 166.422 9.34021 166.939 9.57008L166.353 11.1044C165.882 10.909 165.399 10.7481 164.905 10.6217C164.422 10.4953 163.922 10.4321 163.405 10.4321C162.727 10.4321 162.21 10.5815 161.853 10.8803C161.497 11.1791 161.319 11.5699 161.319 12.0526C161.319 12.4319 161.405 12.7537 161.578 13.0181C161.75 13.2709 162.026 13.5008 162.405 13.7077C162.784 13.9145 163.284 14.1444 163.905 14.3973C164.595 14.6731 165.181 14.9662 165.663 15.2765C166.158 15.5753 166.531 15.9431 166.784 16.3798C167.037 16.8051 167.163 17.3395 167.163 17.9832Z" fill="#36374B"/><path d="M176.504 21.3105H169.573V9.00116H176.504V10.5872H171.435V14.1042H176.194V15.673H171.435V19.7071H176.504V21.3105Z" fill="#36374B"/><path d="M189.273 21.3105H187.014L180.79 11.363H180.722C180.744 11.8228 180.773 12.3515 180.808 12.9491C180.842 13.5353 180.859 14.1387 180.859 14.7593V21.3105H179.17V9.00116H181.411L187.617 18.8969H187.669C187.658 18.6555 187.64 18.3509 187.617 17.9832C187.606 17.6154 187.594 17.2246 187.583 16.8108C187.571 16.3856 187.56 15.9891 187.549 15.6213V9.00116H189.273V21.3105Z" fill="#36374B"/><path d="M196.692 21.3105H194.83V10.6045H191.141V9.00116H200.381V10.6045H196.692V21.3105Z" fill="#36374B"/><path d="M209.199 21.3105H202.269V9.00116H209.199V10.5872H204.131V14.1042H208.889V15.673H204.131V19.7071H209.199V21.3105Z" fill="#36374B"/><path d="M215.313 9.00116C216.888 9.00116 218.049 9.29424 218.796 9.8804C219.554 10.4666 219.933 11.3573 219.933 12.5526C219.933 13.1847 219.813 13.7192 219.571 14.1559C219.341 14.5811 219.043 14.9317 218.675 15.2075C218.307 15.4719 217.922 15.6845 217.52 15.8454L220.968 21.3105H218.83L215.865 16.3281H213.727V21.3105H211.865V9.00116H215.313ZM215.192 10.5872H213.727V14.7765H215.279C216.233 14.7765 216.928 14.5984 217.365 14.2421C217.801 13.8743 218.02 13.3341 218.02 12.6215C218.02 11.886 217.79 11.363 217.33 11.0527C216.87 10.7424 216.158 10.5872 215.192 10.5872Z" fill="#36374B"/><path d="M229.098 21.3105H227.253V9.00116H234.184V10.5872H229.098V14.6041H233.856V16.1902H229.098V21.3105Z" fill="#36374B"/><path d="M247.222 15.1386C247.222 16.4143 247.01 17.5292 246.585 18.4831C246.159 19.4256 245.521 20.1611 244.671 20.6898C243.82 21.2185 242.763 21.4829 241.499 21.4829C240.2 21.4829 239.125 21.2185 238.275 20.6898C237.424 20.1611 236.792 19.4198 236.379 18.4659C235.965 17.5119 235.758 16.3971 235.758 15.1213C235.758 13.8571 235.965 12.7537 236.379 11.8113C236.804 10.8688 237.442 10.1332 238.292 9.60456C239.143 9.07587 240.217 8.81152 241.516 8.81152C242.78 8.81152 243.832 9.07587 244.671 9.60456C245.521 10.1218 246.159 10.8573 246.585 11.8113C247.01 12.7537 247.222 13.8628 247.222 15.1386ZM237.723 15.1386C237.723 16.6097 238.028 17.7705 238.637 18.621C239.246 19.4715 240.2 19.8968 241.499 19.8968C242.809 19.8968 243.763 19.4715 244.361 18.621C244.958 17.7705 245.257 16.6097 245.257 15.1386C245.257 13.6674 244.958 12.5124 244.361 11.6733C243.774 10.8343 242.826 10.4148 241.516 10.4148C240.206 10.4148 239.246 10.8343 238.637 11.6733C238.028 12.5124 237.723 13.6674 237.723 15.1386Z" fill="#36374B"/><path d="M253.345 9.00116C254.92 9.00116 256.081 9.29424 256.828 9.8804C257.586 10.4666 257.966 11.3573 257.966 12.5526C257.966 13.1847 257.845 13.7192 257.604 14.1559C257.374 14.5811 257.075 14.9317 256.707 15.2075C256.339 15.4719 255.954 15.6845 255.552 15.8454L259 21.3105H256.862L253.897 16.3281H251.759V21.3105H249.897V9.00116H253.345ZM253.225 10.5872H251.759V14.7765H253.311C254.265 14.7765 254.96 14.5984 255.397 14.2421C255.834 13.8743 256.052 13.3341 256.052 12.6215C256.052 11.886 255.822 11.363 255.362 11.0527C254.903 10.7424 254.19 10.5872 253.225 10.5872Z" fill="#36374B"/><path d="M99.2597 44.7759H97.415V32.4666H104.345V34.0527H99.2597V38.0696H104.018V39.6556H99.2597V44.7759Z" fill="#36374B"/><path d="M117.384 38.604C117.384 39.8798 117.172 40.9946 116.746 41.9485C116.321 42.891 115.683 43.6266 114.833 44.1553C113.982 44.6839 112.925 44.9483 111.661 44.9483C110.362 44.9483 109.287 44.6839 108.437 44.1553C107.586 43.6266 106.954 42.8852 106.54 41.9313C106.127 40.9774 105.92 39.8625 105.92 38.5868C105.92 37.3225 106.127 36.2191 106.54 35.2767C106.966 34.3343 107.604 33.5987 108.454 33.07C109.305 32.5413 110.379 32.277 111.678 32.277C112.942 32.277 113.994 32.5413 114.833 33.07C115.683 33.5872 116.321 34.3228 116.746 35.2767C117.172 36.2191 117.384 37.3282 117.384 38.604ZM107.885 38.604C107.885 40.0751 108.19 41.236 108.799 42.0865C109.408 42.937 110.362 43.3622 111.661 43.3622C112.971 43.3622 113.925 42.937 114.523 42.0865C115.12 41.236 115.419 40.0751 115.419 38.604C115.419 37.1329 115.12 35.9778 114.523 35.1388C113.936 34.2998 112.988 33.8803 111.678 33.8803C110.368 33.8803 109.408 34.2998 108.799 35.1388C108.19 35.9778 107.885 37.1329 107.885 38.604Z" fill="#36374B"/><path d="M123.507 32.4666C125.082 32.4666 126.243 32.7597 126.99 33.3458C127.748 33.932 128.128 34.8227 128.128 36.018C128.128 36.6501 128.007 37.1846 127.765 37.6213C127.536 38.0466 127.237 38.3971 126.869 38.673C126.501 38.9373 126.116 39.1499 125.714 39.3108L129.162 44.7759H127.024L124.059 39.7936H121.921V44.7759H120.059V32.4666H123.507ZM123.387 34.0527H121.921V38.242H123.473C124.427 38.242 125.122 38.0638 125.559 37.7075C125.996 37.3397 126.214 36.7996 126.214 36.087C126.214 35.3514 125.984 34.8285 125.524 34.5181C125.065 34.2078 124.352 34.0527 123.387 34.0527Z" fill="#36374B"/><path d="M138.037 41.4486C138.037 42.5404 137.641 43.3967 136.848 44.0173C136.055 44.638 134.969 44.9483 133.589 44.9483C132.923 44.9483 132.291 44.8908 131.693 44.7759C131.107 44.6725 130.607 44.5173 130.193 44.3104V42.5519C130.653 42.7588 131.193 42.9485 131.814 43.1209C132.434 43.2818 133.066 43.3622 133.71 43.3622C134.538 43.3622 135.158 43.2013 135.572 42.8795C135.986 42.5577 136.193 42.1267 136.193 41.5865C136.193 41.2072 136.095 40.8912 135.899 40.6383C135.716 40.374 135.423 40.1326 135.02 39.9142C134.618 39.6959 134.089 39.4545 133.434 39.1902C132.825 38.9603 132.285 38.6902 131.814 38.3799C131.354 38.0696 130.992 37.6845 130.728 37.2248C130.463 36.7651 130.331 36.2019 130.331 35.5353C130.331 34.5239 130.699 33.7309 131.434 33.1562C132.17 32.5815 133.135 32.2942 134.331 32.2942C134.997 32.2942 135.612 32.3632 136.175 32.5011C136.75 32.6275 137.296 32.8056 137.813 33.0355L137.227 34.5699C136.756 34.3745 136.273 34.2136 135.779 34.0871C135.296 33.9607 134.796 33.8975 134.279 33.8975C133.601 33.8975 133.084 34.0469 132.727 34.3457C132.371 34.6446 132.193 35.0353 132.193 35.5181C132.193 35.8973 132.279 36.2191 132.452 36.4835C132.624 36.7363 132.9 36.9662 133.279 37.1731C133.658 37.38 134.158 37.6098 134.779 37.8627C135.469 38.1385 136.055 38.4316 136.537 38.7419C137.032 39.0407 137.405 39.4085 137.658 39.8453C137.911 40.2705 138.037 40.805 138.037 41.4486Z" fill="#36374B"/><path d="M149.705 44.7759H147.55L143.516 39.104L142.309 40.1039V44.7759H140.447V32.4666H142.309V38.4144C142.608 38.0696 142.907 37.7248 143.206 37.38C143.505 37.0237 143.804 36.6731 144.102 36.3283L147.43 32.4666H149.567L144.861 37.8454L149.705 44.7759Z" fill="#36374B"/><path d="M161.443 44.7759H159.184L152.961 34.8285H152.892C152.915 35.2882 152.944 35.8169 152.978 36.4145C153.013 37.0007 153.03 37.6041 153.03 38.2247V44.7759H151.34V32.4666H153.581L159.788 42.3623H159.84C159.828 42.1209 159.811 41.8164 159.788 41.4486C159.776 41.0808 159.765 40.69 159.753 40.2763C159.742 39.851 159.73 39.4545 159.719 39.0867V32.4666H161.443V44.7759Z" fill="#36374B"/><path d="M168.518 44.7759H163.742V43.707L165.207 43.276V33.9837L163.742 33.5355V32.4666H168.518V33.5355L167.069 33.9837V43.276L168.518 43.707V44.7759Z" fill="#36374B"/><path d="M180.922 44.7759H178.663L172.44 34.8285H172.371C172.394 35.2882 172.423 35.8169 172.457 36.4145C172.492 37.0007 172.509 37.6041 172.509 38.2247V44.7759H170.819V32.4666H173.061L179.267 42.3623H179.319C179.307 42.1209 179.29 41.8164 179.267 41.4486C179.255 41.0808 179.244 40.69 179.232 40.2763C179.221 39.851 179.209 39.4545 179.198 39.0867V32.4666H180.922V44.7759Z" fill="#36374B"/><path d="M189.341 38.1558H193.789V44.2932C193.134 44.5115 192.462 44.6725 191.772 44.7759C191.094 44.8908 190.318 44.9483 189.445 44.9483C187.56 44.9483 186.112 44.3909 185.1 43.276C184.1 42.1497 183.6 40.5981 183.6 38.6212C183.6 37.334 183.848 36.2191 184.342 35.2767C184.847 34.3228 185.577 33.5872 186.531 33.07C187.485 32.5528 188.64 32.2942 189.996 32.2942C190.675 32.2942 191.324 32.3632 191.945 32.5011C192.565 32.6275 193.14 32.8056 193.669 33.0355L192.996 34.5871C192.571 34.4032 192.094 34.2423 191.565 34.1044C191.048 33.9665 190.502 33.8975 189.927 33.8975C188.56 33.8975 187.485 34.3228 186.704 35.1733C185.922 36.0238 185.531 37.1788 185.531 38.6385C185.531 39.5694 185.675 40.3912 185.962 41.1038C186.25 41.8049 186.704 42.3566 187.324 42.7588C187.945 43.1611 188.755 43.3622 189.755 43.3622C190.249 43.3622 190.663 43.3392 190.996 43.2933C191.341 43.2358 191.657 43.1726 191.945 43.1036V39.7591H189.341V38.1558Z" fill="#36374B"/><path d="M203.798 41.4486C203.798 42.5404 203.402 43.3967 202.609 44.0173C201.815 44.638 200.729 44.9483 199.35 44.9483C198.684 44.9483 198.051 44.8908 197.454 44.7759C196.868 44.6725 196.368 44.5173 195.954 44.3104V42.5519C196.414 42.7588 196.954 42.9485 197.574 43.1209C198.195 43.2818 198.827 43.3622 199.471 43.3622C200.298 43.3622 200.919 43.2013 201.333 42.8795C201.747 42.5577 201.953 42.1267 201.953 41.5865C201.953 41.2072 201.856 40.8912 201.66 40.6383C201.476 40.374 201.183 40.1326 200.781 39.9142C200.379 39.6959 199.85 39.4545 199.195 39.1902C198.586 38.9603 198.046 38.6902 197.574 38.3799C197.115 38.0696 196.753 37.6845 196.488 37.2248C196.224 36.7651 196.092 36.2019 196.092 35.5353C196.092 34.5239 196.46 33.7309 197.195 33.1562C197.931 32.5815 198.896 32.2942 200.091 32.2942C200.758 32.2942 201.373 32.3632 201.936 32.5011C202.511 32.6275 203.057 32.8056 203.574 33.0355L202.988 34.5699C202.517 34.3745 202.034 34.2136 201.54 34.0871C201.057 33.9607 200.557 33.8975 200.04 33.8975C199.362 33.8975 198.844 34.0469 198.488 34.3457C198.132 34.6446 197.954 35.0353 197.954 35.5181C197.954 35.8973 198.04 36.2191 198.212 36.4835C198.385 36.7363 198.661 36.9662 199.04 37.1731C199.419 37.38 199.919 37.6098 200.54 37.8627C201.229 38.1385 201.815 38.4316 202.298 38.7419C202.792 39.0407 203.166 39.4085 203.419 39.8453C203.672 40.2705 203.798 40.805 203.798 41.4486Z" fill="#36374B"/><path d="M216.173 38.5006C216.173 40.5808 215.598 42.1497 214.449 43.2071C213.311 44.2529 211.714 44.7759 209.656 44.7759H206.208V32.4666H210.018C211.271 32.4666 212.357 32.6965 213.277 33.1562C214.196 33.6159 214.909 34.294 215.414 35.1905C215.92 36.0755 216.173 37.1788 216.173 38.5006ZM214.225 38.5523C214.225 37.0007 213.846 35.8629 213.087 35.1388C212.34 34.4032 211.277 34.0354 209.898 34.0354H208.07V43.2071H209.57C212.673 43.2071 214.225 41.6555 214.225 38.5523Z" fill="#36374B"/><path d="M226.187 44.7759L224.877 41.2245H220.119L218.808 44.7759H216.878L221.55 32.4149H223.48L228.135 44.7759H226.187ZM224.36 39.6039L223.118 36.1387C223.084 36.0123 223.021 35.8226 222.929 35.5698C222.848 35.3169 222.768 35.0526 222.687 34.7767C222.607 34.5009 222.544 34.2768 222.498 34.1044C222.406 34.4607 222.302 34.84 222.187 35.2422C222.072 35.6445 221.981 35.9433 221.912 36.1387L220.67 39.6039H224.36Z" fill="#36374B"/><path d="M232.721 44.7759H230.859V34.0699H227.169V32.4666H236.41V34.0699H232.721V44.7759Z" fill="#36374B"/><path d="M244.757 44.7759L243.447 41.2245H238.689L237.378 44.7759H235.447L240.119 32.4149H242.05L246.705 44.7759H244.757ZM242.93 39.6039L241.688 36.1387C241.654 36.0123 241.591 35.8226 241.499 35.5698C241.418 35.3169 241.338 35.0526 241.257 34.7767C241.177 34.5009 241.114 34.2768 241.068 34.1044C240.976 34.4607 240.872 34.84 240.757 35.2422C240.642 35.6445 240.55 35.9433 240.482 36.1387L239.24 39.6039H242.93Z" fill="#36374B"/></svg>