<?xml version="1.0" encoding="UTF-8" standalone="no"?>
<svg
   xmlns:dc="http://purl.org/dc/elements/1.1/"
   xmlns:cc="http://creativecommons.org/ns#"
   xmlns:rdf="http://www.w3.org/1999/02/22-rdf-syntax-ns#"
   xmlns:svg="http://www.w3.org/2000/svg"
   xmlns="http://www.w3.org/2000/svg"
   xml:space="preserve"
   enable-background="new 30.5 31.5 412 533"
   viewBox="30.5 31.5 420 500"
   height="500"
   width="420"
   y="0"
   x="0"
   version="1.1"
   id="svg2"><metadata
     id="metadata4"><rdf:RDF><cc:Work
         rdf:about=""><dc:format>
          
          
          
          
          image/svg+xml
        
        
        
        
        </dc:format><dc:type
           rdf:resource="http://purl.org/dc/dcmitype/StillImage" /><dc:title></dc:title></cc:Work></rdf:RDF></metadata><defs
     id="defs6" /><path
     style="fill:#0085ca;fill-opacity:1;stroke:none"
     id="path4224"
     d="M 36.845963,32.7 C 30.285483,272.4597 74.816703,408.70539 240.5,530.88 406.18329,408.70539 450.71452,272.4597 444.15404,32.7 269.40696,32.912842 146.41006,32.7087 36.845963,32.7 Z" /><path
     style="fill:#ffffff;fill-rule:evenodd;stroke:none;stroke-width:1.00400555px;stroke-linecap:butt;stroke-linejoin:round;stroke-opacity:0.59393945"
     d="m 320.66904,460.63011 -24.07456,-9.76925 c -20.75966,-8.4241 -38.21717,-21.01311 -36.55412,-38.83025 2.41667,-25.89086 20.30141,-38.41593 25.91168,-41.85215 10.39024,6.23913 25.70018,5.22048 33.84626,-0.74127 6.11413,-4.47467 10.91166,-13.78295 14.13097,-24.08257 4.85243,-15.52453 10.03584,-33.55444 14.46939,-47.88612 -28.07446,11.11139 -49.67523,15.24049 -61.5037,23.31497 -15.4585,10.55244 -14.9158,27.47303 -8.4992,42.04563 -5.39512,5.28794 -13.69691,13.0164 -20.01132,17.10234 -1.79038,-20.91154 -2.36324,-36.83106 -1.03791,-57.03174 1.13597,-17.31443 23.07574,-36.57893 29.62663,-38.02883 8.58749,3.62006 20.05059,8.11881 32.6662,-0.77946 14.35757,-10.12694 20.32357,-48.68582 30.17629,-72.91635 -27.26475,11.08124 -54.46089,16.81303 -63.72829,24.21773 -14.7668,11.79876 -14.05323,26.87338 -7.61874,42.45882 -6.43331,5.94784 -11.31936,11.60169 -21.76309,18.04479 -1.35619,-19.16971 -1.01849,-32.83964 -0.0316,-51.71558 1.04599,-20.00662 21.3083,-39.27329 29.09672,-44.91851 11.4443,6.86522 29.82085,5.73544 37.84202,-3.69528 10.81607,-12.71673 17.05844,-45.94472 25.58493,-68.92884 -21.93506,8.99288 -52.6037,14.90769 -64.67223,25.08325 -12.45764,10.50364 -11.86528,25.68462 -6.17087,40.95348 l -22.47534,23.62858 c -11.23075,-13.92741 -9.26629,-41.03871 -10.87931,-63.69995 13.33505,-4.89546 26.17203,-16.66173 24.25853,-31.73393 -2.49189,-19.62812 -19.96069,-43.086325 -28.89141,-66.917248 -8.93072,23.830923 -26.39953,47.289128 -28.89142,66.917248 -1.91349,15.0722 10.92348,26.83847 24.25853,31.73393 -1.61302,22.66124 0.35144,49.77254 -10.87931,63.69995 L 202.3794,192.67492 c 5.69441,-15.26886 6.28677,-30.44984 -6.17087,-40.95348 -12.06853,-10.17556 -42.73716,-16.09037 -64.67223,-25.08325 8.52649,22.98412 14.76886,56.21211 25.58493,68.92884 8.02117,9.43072 26.39772,10.5605 37.84202,3.69528 7.78842,5.64522 28.05073,24.91189 29.09672,44.91851 0.98686,18.87594 1.32456,32.54587 -0.0316,51.71558 -10.44373,-6.4431 -15.32978,-12.09695 -21.76309,-18.04479 6.4345,-15.58544 7.14806,-30.66006 -7.61874,-42.45882 -9.2674,-7.4047 -36.46354,-13.13649 -63.72829,-24.21773 9.85273,24.23053 15.81872,62.78941 30.17629,72.91635 12.61561,8.89827 24.07871,4.39952 32.6662,0.77946 6.55089,1.4499 28.49066,20.7144 29.62663,38.02883 1.32533,20.20068 0.75248,36.1202 -1.03791,57.03174 -6.31441,-4.08594 -14.6162,-11.8144 -20.01132,-17.10234 6.4166,-14.5726 6.9593,-31.49319 -8.4992,-42.04563 -11.82846,-8.07448 -33.42924,-12.20358 -61.5037,-23.31497 4.43355,14.33168 9.61696,32.36159 14.46939,47.88612 3.21931,10.29962 8.01684,19.6079 14.13097,24.08257 8.14608,5.96175 23.45603,6.9804 33.84626,0.74127 5.61027,3.43622 23.49501,15.96129 25.91168,41.85215 1.66305,17.81714 -15.42631,30.42312 -36.19285,38.83025 l -23.83371,9.64883 c 25.45575,28.2517 52.45106,50.67359 79.85608,70.57312 27.13452,-19.72948 53.57147,-42.5008 80.14598,-70.4527 z"
     id="path4239" /><path
     id="path4229"
     d="m 320.8296,460.50969 -24.59639,-9.64883 c -20.85639,-8.18168 -37.8559,-21.01311 -36.19285,-38.83025 2.41667,-25.89086 20.30141,-38.41593 25.91168,-41.85215 10.39024,6.23913 25.70018,5.22048 33.84626,-0.74127 6.11413,-4.47467 10.91166,-13.78295 14.13097,-24.08257 4.85243,-15.52453 10.03584,-33.55444 14.46939,-47.88612 -28.07446,11.11139 -49.67523,15.24049 -61.5037,23.31497 -15.4585,10.55244 -14.9158,27.47303 -8.4992,42.04563 -5.39512,5.28794 -13.69691,13.0164 -20.01132,17.10234 -1.79038,-20.91154 -2.36324,-36.83106 -1.03791,-57.03174 1.13597,-17.31443 23.07574,-36.57893 29.62663,-38.02883 8.58749,3.62006 20.05059,8.11881 32.6662,-0.77946 14.35757,-10.12694 20.32357,-48.68582 30.17629,-72.91635 -27.26475,11.08124 -54.46089,16.81303 -63.72829,24.21773 -14.7668,11.79876 -14.05323,26.87338 -7.61874,42.45882 -6.43331,5.94784 -11.31936,11.60169 -21.76309,18.04479 -1.35619,-19.16971 -1.01849,-32.83964 -0.0316,-51.71558 1.04599,-20.00662 21.3083,-39.27329 29.09672,-44.91851 11.4443,6.86522 29.82085,5.73544 37.84202,-3.69528 10.81607,-12.71673 17.05844,-45.94472 25.58493,-68.92884 -21.93506,8.99288 -52.6037,14.90769 -64.67223,25.08325 -12.45764,10.50364 -11.86528,25.68462 -6.17087,40.95348 l -22.47534,23.62858 c -11.23075,-13.92741 -9.26629,-41.03871 -10.87931,-63.69995 13.33505,-4.89546 26.17203,-16.66173 24.25853,-31.73393 -2.49189,-19.62812 -19.96069,-43.086325 -28.89141,-66.917248 -8.93072,23.830923 -26.39953,47.289128 -28.89142,66.917248 -1.91349,15.0722 10.92348,26.83847 24.25853,31.73393 -1.61302,22.66124 0.35144,49.77254 -10.87931,63.69995 L 202.3794,192.67492 c 5.69441,-15.26886 6.28677,-30.44984 -6.17087,-40.95348 -12.06853,-10.17556 -42.73716,-16.09037 -64.67223,-25.08325 8.52649,22.98412 14.76886,56.21211 25.58493,68.92884 8.02117,9.43072 26.39772,10.5605 37.84202,3.69528 7.78842,5.64522 28.05073,24.91189 29.09672,44.91851 0.98686,18.87594 1.32456,32.54587 -0.0316,51.71558 -10.44373,-6.4431 -15.32978,-12.09695 -21.76309,-18.04479 6.4345,-15.58544 7.14806,-30.66006 -7.61874,-42.45882 -9.2674,-7.4047 -36.46354,-13.13649 -63.72829,-24.21773 9.85273,24.23053 15.81872,62.78941 30.17629,72.91635 12.61561,8.89827 24.07871,4.39952 32.6662,0.77946 6.55089,1.4499 28.49066,20.7144 29.62663,38.02883 1.32533,20.20068 0.75248,36.1202 -1.03791,57.03174 -6.31441,-4.08594 -14.6162,-11.8144 -20.01132,-17.10234 6.4166,-14.5726 6.9593,-31.49319 -8.4992,-42.04563 -11.82846,-8.07448 -33.42924,-12.20358 -61.5037,-23.31497 4.43355,14.33168 9.61696,32.36159 14.46939,47.88612 3.21931,10.29962 8.01684,19.6079 14.13097,24.08257 8.14608,5.96175 23.45603,6.9804 33.84626,0.74127 5.61027,3.43622 23.49501,15.96129 25.91168,41.85215 1.66305,17.81714 -15.39714,30.49555 -36.19285,38.83025 l -24.07456,9.64883"
     style="fill:none;fill-rule:evenodd;stroke:#000000;stroke-width:1;stroke-linecap:butt;stroke-linejoin:round;stroke-miterlimit:4;stroke-dasharray:none;stroke-opacity:1" /><path
     d="M 36.845963,32.7 C 30.285483,272.4597 74.816703,408.70539 240.5,530.88 406.18329,408.70539 450.71452,272.4597 444.15404,32.7 269.40696,32.912842 146.41006,32.7087 36.845963,32.7 Z"
     id="path924"
     style="fill:none;fill-opacity:1;stroke:#000000;stroke-opacity:1" /></svg>